<?xml version="1.0" encoding="utf-8" standalone="no"?>
<!DOCTYPE svg PUBLIC "-//W3C//DTD SVG 1.1//EN"
  "http://www.w3.org/Graphics/SVG/1.1/DTD/svg11.dtd">
<svg xmlns:xlink="http://www.w3.org/1999/xlink" width="1152pt" height="288pt" viewBox="0 0 1152 288" xmlns="http://www.w3.org/2000/svg" version="1.1">
 <metadata>
  <rdf:RDF xmlns:dc="http://purl.org/dc/elements/1.1/" xmlns:cc="http://creativecommons.org/ns#" xmlns:rdf="http://www.w3.org/1999/02/22-rdf-syntax-ns#">
   <cc:Work>
    <dc:type rdf:resource="http://purl.org/dc/dcmitype/StillImage"/>
    <dc:date>2023-11-04T23:29:40.489489</dc:date>
    <dc:format>image/svg+xml</dc:format>
    <dc:creator>
     <cc:Agent>
      <dc:title>Matplotlib v3.8.0, https://matplotlib.org/</dc:title>
     </cc:Agent>
    </dc:creator>
   </cc:Work>
  </rdf:RDF>
 </metadata>
 <defs>
  <style type="text/css">*{stroke-linejoin: round; stroke-linecap: butt}</style>
 </defs>
 <g id="figure_1">
  <g id="patch_1">
   <path d="M 0 288 
L 1152 288 
L 1152 0 
L 0 0 
z
" style="fill: #ffffff"/>
  </g>
  <g id="axes_1">
   <g id="patch_2">
    <path d="M 144 256.32 
L 406.588235 256.32 
L 406.588235 34.56 
L 144 34.56 
z
" style="fill: #ffffff"/>
   </g>
   <g id="patch_3">
    <path d="M 144 256.32 
L 152.931573 256.32 
L 152.931573 223.003703 
L 144 223.003703 
z
" clip-path="url(#p38ee4f3f7d)" style="fill: #1f77b4"/>
   </g>
   <g id="patch_4">
    <path d="M 152.931573 256.32 
L 161.863145 256.32 
L 161.863145 129.53298 
L 152.931573 129.53298 
z
" clip-path="url(#p38ee4f3f7d)" style="fill: #1f77b4"/>
   </g>
   <g id="patch_5">
    <path d="M 161.863145 256.32 
L 170.794718 256.32 
L 170.794718 83.260345 
L 161.863145 83.260345 
z
" clip-path="url(#p38ee4f3f7d)" style="fill: #1f77b4"/>
   </g>
   <g id="patch_6">
    <path d="M 170.794718 256.32 
L 179.726291 256.32 
L 179.726291 56.422216 
L 170.794718 56.422216 
z
" clip-path="url(#p38ee4f3f7d)" style="fill: #1f77b4"/>
   </g>
   <g id="patch_7">
    <path d="M 179.726291 256.32 
L 188.657863 256.32 
L 188.657863 62.900385 
L 179.726291 62.900385 
z
" clip-path="url(#p38ee4f3f7d)" style="fill: #1f77b4"/>
   </g>
   <g id="patch_8">
    <path d="M 188.657863 256.32 
L 197.589436 256.32 
L 197.589436 64.75129 
L 188.657863 64.75129 
z
" clip-path="url(#p38ee4f3f7d)" style="fill: #1f77b4"/>
   </g>
   <g id="patch_9">
    <path d="M 197.589436 256.32 
L 206.521008 256.32 
L 206.521008 83.260345 
L 197.589436 83.260345 
z
" clip-path="url(#p38ee4f3f7d)" style="fill: #1f77b4"/>
   </g>
   <g id="patch_10">
    <path d="M 206.521008 256.32 
L 215.452581 256.32 
L 215.452581 105.471209 
L 206.521008 105.471209 
z
" clip-path="url(#p38ee4f3f7d)" style="fill: #1f77b4"/>
   </g>
   <g id="patch_11">
    <path d="M 215.452581 256.32 
L 224.384154 256.32 
L 224.384154 136.011149 
L 215.452581 136.011149 
z
" clip-path="url(#p38ee4f3f7d)" style="fill: #1f77b4"/>
   </g>
   <g id="patch_12">
    <path d="M 224.384154 256.32 
L 233.315726 256.32 
L 233.315726 156.371108 
L 224.384154 156.371108 
z
" clip-path="url(#p38ee4f3f7d)" style="fill: #1f77b4"/>
   </g>
   <g id="patch_13">
    <path d="M 233.315726 256.32 
L 242.247299 256.32 
L 242.247299 178.581973 
L 233.315726 178.581973 
z
" clip-path="url(#p38ee4f3f7d)" style="fill: #1f77b4"/>
   </g>
   <g id="patch_14">
    <path d="M 242.247299 256.32 
L 251.178872 256.32 
L 251.178872 180.432878 
L 242.247299 180.432878 
z
" clip-path="url(#p38ee4f3f7d)" style="fill: #1f77b4"/>
   </g>
   <g id="patch_15">
    <path d="M 251.178872 256.32 
L 260.110444 256.32 
L 260.110444 203.569196 
L 251.178872 203.569196 
z
" clip-path="url(#p38ee4f3f7d)" style="fill: #1f77b4"/>
   </g>
   <g id="patch_16">
    <path d="M 260.110444 256.32 
L 269.042017 256.32 
L 269.042017 210.047365 
L 260.110444 210.047365 
z
" clip-path="url(#p38ee4f3f7d)" style="fill: #1f77b4"/>
   </g>
   <g id="patch_17">
    <path d="M 269.042017 256.32 
L 277.973589 256.32 
L 277.973589 234.109135 
L 269.042017 234.109135 
z
" clip-path="url(#p38ee4f3f7d)" style="fill: #1f77b4"/>
   </g>
   <g id="patch_18">
    <path d="M 277.973589 256.32 
L 286.905162 256.32 
L 286.905162 239.661851 
L 277.973589 239.661851 
z
" clip-path="url(#p38ee4f3f7d)" style="fill: #1f77b4"/>
   </g>
   <g id="patch_19">
    <path d="M 286.905162 256.32 
L 295.836735 256.32 
L 295.836735 241.512757 
L 286.905162 241.512757 
z
" clip-path="url(#p38ee4f3f7d)" style="fill: #1f77b4"/>
   </g>
   <g id="patch_20">
    <path d="M 295.836735 256.32 
L 304.768307 256.32 
L 304.768307 243.363662 
L 295.836735 243.363662 
z
" clip-path="url(#p38ee4f3f7d)" style="fill: #1f77b4"/>
   </g>
   <g id="patch_21">
    <path d="M 304.768307 256.32 
L 313.69988 256.32 
L 313.69988 247.990926 
L 304.768307 247.990926 
z
" clip-path="url(#p38ee4f3f7d)" style="fill: #1f77b4"/>
   </g>
   <g id="patch_22">
    <path d="M 313.69988 256.32 
L 322.631453 256.32 
L 322.631453 253.543642 
L 313.69988 253.543642 
z
" clip-path="url(#p38ee4f3f7d)" style="fill: #1f77b4"/>
   </g>
   <g id="patch_23">
    <path d="M 322.631453 256.32 
L 331.563025 256.32 
L 331.563025 251.692736 
L 322.631453 251.692736 
z
" clip-path="url(#p38ee4f3f7d)" style="fill: #1f77b4"/>
   </g>
   <g id="patch_24">
    <path d="M 331.563025 256.32 
L 340.494598 256.32 
L 340.494598 255.394547 
L 331.563025 255.394547 
z
" clip-path="url(#p38ee4f3f7d)" style="fill: #1f77b4"/>
   </g>
   <g id="patch_25">
    <path d="M 340.494598 256.32 
L 349.42617 256.32 
L 349.42617 255.394547 
L 340.494598 255.394547 
z
" clip-path="url(#p38ee4f3f7d)" style="fill: #1f77b4"/>
   </g>
   <g id="patch_26">
    <path d="M 349.42617 256.32 
L 358.357743 256.32 
L 358.357743 254.469095 
L 349.42617 254.469095 
z
" clip-path="url(#p38ee4f3f7d)" style="fill: #1f77b4"/>
   </g>
   <g id="patch_27">
    <path d="M 358.357743 256.32 
L 367.289316 256.32 
L 367.289316 254.469095 
L 358.357743 254.469095 
z
" clip-path="url(#p38ee4f3f7d)" style="fill: #1f77b4"/>
   </g>
   <g id="patch_28">
    <path d="M 367.289316 256.32 
L 376.220888 256.32 
L 376.220888 256.32 
L 367.289316 256.32 
z
" clip-path="url(#p38ee4f3f7d)" style="fill: #1f77b4"/>
   </g>
   <g id="patch_29">
    <path d="M 376.220888 256.32 
L 385.152461 256.32 
L 385.152461 256.32 
L 376.220888 256.32 
z
" clip-path="url(#p38ee4f3f7d)" style="fill: #1f77b4"/>
   </g>
   <g id="patch_30">
    <path d="M 385.152461 256.32 
L 394.084034 256.32 
L 394.084034 256.32 
L 385.152461 256.32 
z
" clip-path="url(#p38ee4f3f7d)" style="fill: #1f77b4"/>
   </g>
   <g id="patch_31">
    <path d="M 394.084034 256.32 
L 403.015606 256.32 
L 403.015606 256.32 
L 394.084034 256.32 
z
" clip-path="url(#p38ee4f3f7d)" style="fill: #1f77b4"/>
   </g>
   <g id="patch_32">
    <path d="M 403.015606 256.32 
L 411.947179 256.32 
L 411.947179 256.32 
L 403.015606 256.32 
z
" clip-path="url(#p38ee4f3f7d)" style="fill: #1f77b4"/>
   </g>
   <g id="patch_33">
    <path d="M 411.947179 256.32 
L 420.878752 256.32 
L 420.878752 256.32 
L 411.947179 256.32 
z
" clip-path="url(#p38ee4f3f7d)" style="fill: #1f77b4"/>
   </g>
   <g id="patch_34">
    <path d="M 420.878752 256.32 
L 429.810324 256.32 
L 429.810324 256.32 
L 420.878752 256.32 
z
" clip-path="url(#p38ee4f3f7d)" style="fill: #1f77b4"/>
   </g>
   <g id="patch_35">
    <path d="M 429.810324 256.32 
L 438.741897 256.32 
L 438.741897 256.32 
L 429.810324 256.32 
z
" clip-path="url(#p38ee4f3f7d)" style="fill: #1f77b4"/>
   </g>
   <g id="patch_36">
    <path d="M 438.741897 256.32 
L 447.673469 256.32 
L 447.673469 256.32 
L 438.741897 256.32 
z
" clip-path="url(#p38ee4f3f7d)" style="fill: #1f77b4"/>
   </g>
   <g id="patch_37">
    <path d="M 447.673469 256.32 
L 456.605042 256.32 
L 456.605042 256.32 
L 447.673469 256.32 
z
" clip-path="url(#p38ee4f3f7d)" style="fill: #1f77b4"/>
   </g>
   <g id="patch_38">
    <path d="M 456.605042 256.32 
L 465.536615 256.32 
L 465.536615 256.32 
L 456.605042 256.32 
z
" clip-path="url(#p38ee4f3f7d)" style="fill: #1f77b4"/>
   </g>
   <g id="patch_39">
    <path d="M 465.536615 256.32 
L 474.468187 256.32 
L 474.468187 256.32 
L 465.536615 256.32 
z
" clip-path="url(#p38ee4f3f7d)" style="fill: #1f77b4"/>
   </g>
   <g id="patch_40">
    <path d="M 474.468187 256.32 
L 483.39976 256.32 
L 483.39976 256.32 
L 474.468187 256.32 
z
" clip-path="url(#p38ee4f3f7d)" style="fill: #1f77b4"/>
   </g>
   <g id="patch_41">
    <path d="M 483.39976 256.32 
L 492.331333 256.32 
L 492.331333 256.32 
L 483.39976 256.32 
z
" clip-path="url(#p38ee4f3f7d)" style="fill: #1f77b4"/>
   </g>
   <g id="patch_42">
    <path d="M 492.331333 256.32 
L 501.262905 256.32 
L 501.262905 256.32 
L 492.331333 256.32 
z
" clip-path="url(#p38ee4f3f7d)" style="fill: #1f77b4"/>
   </g>
   <g id="patch_43">
    <path d="M 501.262905 256.32 
L 510.194478 256.32 
L 510.194478 256.32 
L 501.262905 256.32 
z
" clip-path="url(#p38ee4f3f7d)" style="fill: #1f77b4"/>
   </g>
   <g id="patch_44">
    <path d="M 510.194478 256.32 
L 519.12605 256.32 
L 519.12605 256.32 
L 510.194478 256.32 
z
" clip-path="url(#p38ee4f3f7d)" style="fill: #1f77b4"/>
   </g>
   <g id="patch_45">
    <path d="M 519.12605 256.32 
L 528.057623 256.32 
L 528.057623 256.32 
L 519.12605 256.32 
z
" clip-path="url(#p38ee4f3f7d)" style="fill: #1f77b4"/>
   </g>
   <g id="patch_46">
    <path d="M 528.057623 256.32 
L 536.989196 256.32 
L 536.989196 256.32 
L 528.057623 256.32 
z
" clip-path="url(#p38ee4f3f7d)" style="fill: #1f77b4"/>
   </g>
   <g id="patch_47">
    <path d="M 536.989196 256.32 
L 545.920768 256.32 
L 545.920768 256.32 
L 536.989196 256.32 
z
" clip-path="url(#p38ee4f3f7d)" style="fill: #1f77b4"/>
   </g>
   <g id="patch_48">
    <path d="M 545.920768 256.32 
L 554.852341 256.32 
L 554.852341 256.32 
L 545.920768 256.32 
z
" clip-path="url(#p38ee4f3f7d)" style="fill: #1f77b4"/>
   </g>
   <g id="patch_49">
    <path d="M 554.852341 256.32 
L 563.783914 256.32 
L 563.783914 256.32 
L 554.852341 256.32 
z
" clip-path="url(#p38ee4f3f7d)" style="fill: #1f77b4"/>
   </g>
   <g id="patch_50">
    <path d="M 563.783914 256.32 
L 572.715486 256.32 
L 572.715486 256.32 
L 563.783914 256.32 
z
" clip-path="url(#p38ee4f3f7d)" style="fill: #1f77b4"/>
   </g>
   <g id="patch_51">
    <path d="M 572.715486 256.32 
L 581.647059 256.32 
L 581.647059 256.32 
L 572.715486 256.32 
z
" clip-path="url(#p38ee4f3f7d)" style="fill: #1f77b4"/>
   </g>
   <g id="matplotlib.axis_1">
    <g id="xtick_1">
     <g id="line2d_1">
      <defs>
       <path id="m7490962aff" d="M 0 0 
L 0 3.5 
" style="stroke: #000000; stroke-width: 0.8"/>
      </defs>
      <g>
       <use xlink:href="#m7490962aff" x="144" y="256.32" style="stroke: #000000; stroke-width: 0.8"/>
      </g>
     </g>
     <g id="text_1">
      <!-- 0.0 -->
      <g transform="translate(134.458125 272.438125) scale(0.12 -0.12)">
       <defs>
        <path id="DejaVuSans-30" d="M 2034 4250 
Q 1547 4250 1301 3770 
Q 1056 3291 1056 2328 
Q 1056 1369 1301 889 
Q 1547 409 2034 409 
Q 2525 409 2770 889 
Q 3016 1369 3016 2328 
Q 3016 3291 2770 3770 
Q 2525 4250 2034 4250 
z
M 2034 4750 
Q 2819 4750 3233 4129 
Q 3647 3509 3647 2328 
Q 3647 1150 3233 529 
Q 2819 -91 2034 -91 
Q 1250 -91 836 529 
Q 422 1150 422 2328 
Q 422 3509 836 4129 
Q 1250 4750 2034 4750 
z
" transform="scale(0.015625)"/>
        <path id="DejaVuSans-2e" d="M 684 794 
L 1344 794 
L 1344 0 
L 684 0 
L 684 794 
z
" transform="scale(0.015625)"/>
       </defs>
       <use xlink:href="#DejaVuSans-30"/>
       <use xlink:href="#DejaVuSans-2e" x="63.623047"/>
       <use xlink:href="#DejaVuSans-30" x="95.410156"/>
      </g>
     </g>
    </g>
    <g id="xtick_2">
     <g id="line2d_2">
      <g>
       <use xlink:href="#m7490962aff" x="187.764706" y="256.32" style="stroke: #000000; stroke-width: 0.8"/>
      </g>
     </g>
     <g id="text_2">
      <!-- 0.5 -->
      <g transform="translate(178.222831 272.438125) scale(0.12 -0.12)">
       <defs>
        <path id="DejaVuSans-35" d="M 691 4666 
L 3169 4666 
L 3169 4134 
L 1269 4134 
L 1269 2991 
Q 1406 3038 1543 3061 
Q 1681 3084 1819 3084 
Q 2600 3084 3056 2656 
Q 3513 2228 3513 1497 
Q 3513 744 3044 326 
Q 2575 -91 1722 -91 
Q 1428 -91 1123 -41 
Q 819 9 494 109 
L 494 744 
Q 775 591 1075 516 
Q 1375 441 1709 441 
Q 2250 441 2565 725 
Q 2881 1009 2881 1497 
Q 2881 1984 2565 2268 
Q 2250 2553 1709 2553 
Q 1456 2553 1204 2497 
Q 953 2441 691 2322 
L 691 4666 
z
" transform="scale(0.015625)"/>
       </defs>
       <use xlink:href="#DejaVuSans-30"/>
       <use xlink:href="#DejaVuSans-2e" x="63.623047"/>
       <use xlink:href="#DejaVuSans-35" x="95.410156"/>
      </g>
     </g>
    </g>
    <g id="xtick_3">
     <g id="line2d_3">
      <g>
       <use xlink:href="#m7490962aff" x="231.529412" y="256.32" style="stroke: #000000; stroke-width: 0.8"/>
      </g>
     </g>
     <g id="text_3">
      <!-- 1.0 -->
      <g transform="translate(221.987537 272.438125) scale(0.12 -0.12)">
       <defs>
        <path id="DejaVuSans-31" d="M 794 531 
L 1825 531 
L 1825 4091 
L 703 3866 
L 703 4441 
L 1819 4666 
L 2450 4666 
L 2450 531 
L 3481 531 
L 3481 0 
L 794 0 
L 794 531 
z
" transform="scale(0.015625)"/>
       </defs>
       <use xlink:href="#DejaVuSans-31"/>
       <use xlink:href="#DejaVuSans-2e" x="63.623047"/>
       <use xlink:href="#DejaVuSans-30" x="95.410156"/>
      </g>
     </g>
    </g>
    <g id="xtick_4">
     <g id="line2d_4">
      <g>
       <use xlink:href="#m7490962aff" x="275.294118" y="256.32" style="stroke: #000000; stroke-width: 0.8"/>
      </g>
     </g>
     <g id="text_4">
      <!-- 1.5 -->
      <g transform="translate(265.752243 272.438125) scale(0.12 -0.12)">
       <use xlink:href="#DejaVuSans-31"/>
       <use xlink:href="#DejaVuSans-2e" x="63.623047"/>
       <use xlink:href="#DejaVuSans-35" x="95.410156"/>
      </g>
     </g>
    </g>
    <g id="xtick_5">
     <g id="line2d_5">
      <g>
       <use xlink:href="#m7490962aff" x="319.058824" y="256.32" style="stroke: #000000; stroke-width: 0.8"/>
      </g>
     </g>
     <g id="text_5">
      <!-- 2.0 -->
      <g transform="translate(309.516949 272.438125) scale(0.12 -0.12)">
       <defs>
        <path id="DejaVuSans-32" d="M 1228 531 
L 3431 531 
L 3431 0 
L 469 0 
L 469 531 
Q 828 903 1448 1529 
Q 2069 2156 2228 2338 
Q 2531 2678 2651 2914 
Q 2772 3150 2772 3378 
Q 2772 3750 2511 3984 
Q 2250 4219 1831 4219 
Q 1534 4219 1204 4116 
Q 875 4013 500 3803 
L 500 4441 
Q 881 4594 1212 4672 
Q 1544 4750 1819 4750 
Q 2544 4750 2975 4387 
Q 3406 4025 3406 3419 
Q 3406 3131 3298 2873 
Q 3191 2616 2906 2266 
Q 2828 2175 2409 1742 
Q 1991 1309 1228 531 
z
" transform="scale(0.015625)"/>
       </defs>
       <use xlink:href="#DejaVuSans-32"/>
       <use xlink:href="#DejaVuSans-2e" x="63.623047"/>
       <use xlink:href="#DejaVuSans-30" x="95.410156"/>
      </g>
     </g>
    </g>
    <g id="xtick_6">
     <g id="line2d_6">
      <g>
       <use xlink:href="#m7490962aff" x="362.823529" y="256.32" style="stroke: #000000; stroke-width: 0.8"/>
      </g>
     </g>
     <g id="text_6">
      <!-- 2.5 -->
      <g transform="translate(353.281654 272.438125) scale(0.12 -0.12)">
       <use xlink:href="#DejaVuSans-32"/>
       <use xlink:href="#DejaVuSans-2e" x="63.623047"/>
       <use xlink:href="#DejaVuSans-35" x="95.410156"/>
      </g>
     </g>
    </g>
    <g id="xtick_7">
     <g id="line2d_7">
      <g>
       <use xlink:href="#m7490962aff" x="406.588235" y="256.32" style="stroke: #000000; stroke-width: 0.8"/>
      </g>
     </g>
     <g id="text_7">
      <!-- 3.0 -->
      <g transform="translate(397.04636 272.438125) scale(0.12 -0.12)">
       <defs>
        <path id="DejaVuSans-33" d="M 2597 2516 
Q 3050 2419 3304 2112 
Q 3559 1806 3559 1356 
Q 3559 666 3084 287 
Q 2609 -91 1734 -91 
Q 1441 -91 1130 -33 
Q 819 25 488 141 
L 488 750 
Q 750 597 1062 519 
Q 1375 441 1716 441 
Q 2309 441 2620 675 
Q 2931 909 2931 1356 
Q 2931 1769 2642 2001 
Q 2353 2234 1838 2234 
L 1294 2234 
L 1294 2753 
L 1863 2753 
Q 2328 2753 2575 2939 
Q 2822 3125 2822 3475 
Q 2822 3834 2567 4026 
Q 2313 4219 1838 4219 
Q 1578 4219 1281 4162 
Q 984 4106 628 3988 
L 628 4550 
Q 988 4650 1302 4700 
Q 1616 4750 1894 4750 
Q 2613 4750 3031 4423 
Q 3450 4097 3450 3541 
Q 3450 3153 3228 2886 
Q 3006 2619 2597 2516 
z
" transform="scale(0.015625)"/>
       </defs>
       <use xlink:href="#DejaVuSans-33"/>
       <use xlink:href="#DejaVuSans-2e" x="63.623047"/>
       <use xlink:href="#DejaVuSans-30" x="95.410156"/>
      </g>
     </g>
    </g>
   </g>
   <g id="matplotlib.axis_2">
    <g id="ytick_1">
     <g id="line2d_8">
      <defs>
       <path id="m62526cefdd" d="M 0 0 
L -3.5 0 
" style="stroke: #000000; stroke-width: 0.8"/>
      </defs>
      <g>
       <use xlink:href="#m62526cefdd" x="144" y="256.32" style="stroke: #000000; stroke-width: 0.8"/>
      </g>
     </g>
     <g id="text_8">
      <!-- 0.0 -->
      <g transform="translate(117.91625 260.879063) scale(0.12 -0.12)">
       <use xlink:href="#DejaVuSans-30"/>
       <use xlink:href="#DejaVuSans-2e" x="63.623047"/>
       <use xlink:href="#DejaVuSans-30" x="95.410156"/>
      </g>
     </g>
    </g>
    <g id="ytick_2">
     <g id="line2d_9">
      <g>
       <use xlink:href="#m62526cefdd" x="144" y="219.528533" style="stroke: #000000; stroke-width: 0.8"/>
      </g>
     </g>
     <g id="text_9">
      <!-- 0.2 -->
      <g transform="translate(117.91625 224.087596) scale(0.12 -0.12)">
       <use xlink:href="#DejaVuSans-30"/>
       <use xlink:href="#DejaVuSans-2e" x="63.623047"/>
       <use xlink:href="#DejaVuSans-32" x="95.410156"/>
      </g>
     </g>
    </g>
    <g id="ytick_3">
     <g id="line2d_10">
      <g>
       <use xlink:href="#m62526cefdd" x="144" y="182.737067" style="stroke: #000000; stroke-width: 0.8"/>
      </g>
     </g>
     <g id="text_10">
      <!-- 0.4 -->
      <g transform="translate(117.91625 187.296129) scale(0.12 -0.12)">
       <defs>
        <path id="DejaVuSans-34" d="M 2419 4116 
L 825 1625 
L 2419 1625 
L 2419 4116 
z
M 2253 4666 
L 3047 4666 
L 3047 1625 
L 3713 1625 
L 3713 1100 
L 3047 1100 
L 3047 0 
L 2419 0 
L 2419 1100 
L 313 1100 
L 313 1709 
L 2253 4666 
z
" transform="scale(0.015625)"/>
       </defs>
       <use xlink:href="#DejaVuSans-30"/>
       <use xlink:href="#DejaVuSans-2e" x="63.623047"/>
       <use xlink:href="#DejaVuSans-34" x="95.410156"/>
      </g>
     </g>
    </g>
    <g id="ytick_4">
     <g id="line2d_11">
      <g>
       <use xlink:href="#m62526cefdd" x="144" y="145.9456" style="stroke: #000000; stroke-width: 0.8"/>
      </g>
     </g>
     <g id="text_11">
      <!-- 0.6 -->
      <g transform="translate(117.91625 150.504663) scale(0.12 -0.12)">
       <defs>
        <path id="DejaVuSans-36" d="M 2113 2584 
Q 1688 2584 1439 2293 
Q 1191 2003 1191 1497 
Q 1191 994 1439 701 
Q 1688 409 2113 409 
Q 2538 409 2786 701 
Q 3034 994 3034 1497 
Q 3034 2003 2786 2293 
Q 2538 2584 2113 2584 
z
M 3366 4563 
L 3366 3988 
Q 3128 4100 2886 4159 
Q 2644 4219 2406 4219 
Q 1781 4219 1451 3797 
Q 1122 3375 1075 2522 
Q 1259 2794 1537 2939 
Q 1816 3084 2150 3084 
Q 2853 3084 3261 2657 
Q 3669 2231 3669 1497 
Q 3669 778 3244 343 
Q 2819 -91 2113 -91 
Q 1303 -91 875 529 
Q 447 1150 447 2328 
Q 447 3434 972 4092 
Q 1497 4750 2381 4750 
Q 2619 4750 2861 4703 
Q 3103 4656 3366 4563 
z
" transform="scale(0.015625)"/>
       </defs>
       <use xlink:href="#DejaVuSans-30"/>
       <use xlink:href="#DejaVuSans-2e" x="63.623047"/>
       <use xlink:href="#DejaVuSans-36" x="95.410156"/>
      </g>
     </g>
    </g>
    <g id="ytick_5">
     <g id="line2d_12">
      <g>
       <use xlink:href="#m62526cefdd" x="144" y="109.154133" style="stroke: #000000; stroke-width: 0.8"/>
      </g>
     </g>
     <g id="text_12">
      <!-- 0.8 -->
      <g transform="translate(117.91625 113.713196) scale(0.12 -0.12)">
       <defs>
        <path id="DejaVuSans-38" d="M 2034 2216 
Q 1584 2216 1326 1975 
Q 1069 1734 1069 1313 
Q 1069 891 1326 650 
Q 1584 409 2034 409 
Q 2484 409 2743 651 
Q 3003 894 3003 1313 
Q 3003 1734 2745 1975 
Q 2488 2216 2034 2216 
z
M 1403 2484 
Q 997 2584 770 2862 
Q 544 3141 544 3541 
Q 544 4100 942 4425 
Q 1341 4750 2034 4750 
Q 2731 4750 3128 4425 
Q 3525 4100 3525 3541 
Q 3525 3141 3298 2862 
Q 3072 2584 2669 2484 
Q 3125 2378 3379 2068 
Q 3634 1759 3634 1313 
Q 3634 634 3220 271 
Q 2806 -91 2034 -91 
Q 1263 -91 848 271 
Q 434 634 434 1313 
Q 434 1759 690 2068 
Q 947 2378 1403 2484 
z
M 1172 3481 
Q 1172 3119 1398 2916 
Q 1625 2713 2034 2713 
Q 2441 2713 2670 2916 
Q 2900 3119 2900 3481 
Q 2900 3844 2670 4047 
Q 2441 4250 2034 4250 
Q 1625 4250 1398 4047 
Q 1172 3844 1172 3481 
z
" transform="scale(0.015625)"/>
       </defs>
       <use xlink:href="#DejaVuSans-30"/>
       <use xlink:href="#DejaVuSans-2e" x="63.623047"/>
       <use xlink:href="#DejaVuSans-38" x="95.410156"/>
      </g>
     </g>
    </g>
    <g id="ytick_6">
     <g id="line2d_13">
      <g>
       <use xlink:href="#m62526cefdd" x="144" y="72.362667" style="stroke: #000000; stroke-width: 0.8"/>
      </g>
     </g>
     <g id="text_13">
      <!-- 1.0 -->
      <g transform="translate(117.91625 76.921729) scale(0.12 -0.12)">
       <use xlink:href="#DejaVuSans-31"/>
       <use xlink:href="#DejaVuSans-2e" x="63.623047"/>
       <use xlink:href="#DejaVuSans-30" x="95.410156"/>
      </g>
     </g>
    </g>
    <g id="ytick_7">
     <g id="line2d_14">
      <g>
       <use xlink:href="#m62526cefdd" x="144" y="35.5712" style="stroke: #000000; stroke-width: 0.8"/>
      </g>
     </g>
     <g id="text_14">
      <!-- 1.2 -->
      <g transform="translate(117.91625 40.130263) scale(0.12 -0.12)">
       <use xlink:href="#DejaVuSans-31"/>
       <use xlink:href="#DejaVuSans-2e" x="63.623047"/>
       <use xlink:href="#DejaVuSans-32" x="95.410156"/>
      </g>
     </g>
    </g>
   </g>
   <g id="line2d_15">
    <path d="M 144 256.32 
L 146.652406 238.224825 
L 149.304813 220.291293 
L 151.957219 202.678641 
L 154.609626 185.541352 
L 157.262032 169.026896 
L 159.914439 153.273621 
L 162.566845 138.408831 
L 165.219251 124.547085 
L 167.871658 111.788751 
L 170.524064 100.218848 
L 173.176471 89.906175 
L 175.828877 80.902756 
L 178.481283 73.243597 
L 181.13369 66.946742 
L 183.786096 62.013629 
L 186.438503 58.429731 
L 189.090909 56.165431 
L 191.743316 55.177143 
L 194.395722 55.408609 
L 197.048128 56.792361 
L 199.700535 59.251298 
L 202.352941 62.700343 
L 205.005348 67.048145 
L 207.657754 72.198786 
L 210.31016 78.053455 
L 212.962567 84.512068 
L 215.614973 91.474789 
L 218.26738 98.843448 
L 220.919786 106.522817 
L 223.572193 114.421739 
L 226.224599 122.454099 
L 228.877005 130.539628 
L 231.529412 138.604534 
L 234.181818 146.581974 
L 236.834225 154.412359 
L 239.486631 162.043513 
L 242.139037 169.43068 
L 244.791444 176.53642 
L 247.44385 183.330377 
L 250.096257 189.788961 
L 252.748663 195.894946 
L 255.40107 201.637004 
L 258.053476 207.009195 
L 260.705882 212.010423 
L 263.358289 216.643874 
L 266.010695 220.916453 
L 268.663102 224.838223 
L 271.315508 228.421868 
L 273.967914 231.682172 
L 276.620321 234.635542 
L 279.272727 237.299558 
L 281.925134 239.692571 
L 284.57754 241.83334 
L 287.229947 243.740715 
L 289.882353 245.433365 
L 292.534759 246.929545 
L 295.187166 248.246911 
L 297.839572 249.402365 
L 300.491979 250.411941 
L 303.144385 251.290726 
L 305.796791 252.052799 
L 308.449198 252.711206 
L 311.101604 253.277955 
L 313.754011 253.764021 
L 316.406417 254.179377 
L 319.058824 254.53303 
L 321.71123 254.833066 
L 324.363636 255.086707 
L 327.016043 255.300368 
L 329.668449 255.479717 
L 332.320856 255.629736 
L 334.973262 255.754783 
L 337.625668 255.858654 
L 340.278075 255.944636 
L 342.930481 256.015565 
L 345.582888 256.073875 
L 348.235294 256.121648 
L 350.887701 256.160655 
L 353.540107 256.192396 
L 356.192513 256.218138 
L 358.84492 256.238943 
L 361.497326 256.255702 
L 364.149733 256.269157 
L 366.802139 256.279923 
L 369.454545 256.288509 
L 372.106952 256.295333 
L 374.759358 256.300739 
L 377.411765 256.305007 
L 380.064171 256.308366 
L 382.716578 256.311001 
L 385.368984 256.313061 
L 388.02139 256.314666 
L 390.673797 256.315912 
L 393.326203 256.316877 
L 395.97861 256.317622 
L 398.631016 256.318195 
L 401.283422 256.318634 
L 403.935829 256.318969 
L 406.588235 256.319225 
" clip-path="url(#p38ee4f3f7d)" style="fill: none; stroke: #ff0000; stroke-width: 1.5; stroke-linecap: square"/>
   </g>
   <g id="line2d_16">
    <path d="M 144 256.32 
L 146.652406 245.181304 
L 149.304813 234.103893 
L 151.957219 223.148493 
L 154.609626 212.37471 
L 157.262032 201.840497 
L 159.914439 191.60163 
L 162.566845 181.711219 
L 165.219251 172.219249 
L 167.871658 163.172163 
L 170.524064 154.612485 
L 173.176471 146.578497 
L 175.828877 139.103962 
L 178.481283 132.217905 
L 181.13369 125.944446 
L 183.786096 120.302698 
L 186.438503 115.306711 
L 189.090909 110.96548 
L 191.743316 107.283005 
L 194.395722 104.258407 
L 197.048128 101.886083 
L 199.700535 100.155924 
L 202.352941 99.053554 
L 205.005348 98.560626 
L 207.657754 98.655135 
L 210.31016 99.311764 
L 212.962567 100.502256 
L 215.614973 102.195789 
L 218.26738 104.359376 
L 220.919786 106.958258 
L 223.572193 109.956308 
L 226.224599 113.316416 
L 228.877005 117.000876 
L 231.529412 120.971758 
L 234.181818 125.191251 
L 236.834225 129.621999 
L 239.486631 134.227402 
L 242.139037 138.971897 
L 244.791444 143.821208 
L 247.44385 148.742567 
L 250.096257 153.704901 
L 252.748663 158.678995 
L 255.40107 163.637621 
L 258.053476 168.55563 
L 260.705882 173.41003 
L 263.358289 178.180021 
L 266.010695 182.847012 
L 268.663102 187.394612 
L 271.315508 191.808597 
L 273.967914 196.076858 
L 276.620321 200.18933 
L 279.272727 204.137909 
L 281.925134 207.916349 
L 284.57754 211.520154 
L 287.229947 214.946459 
L 289.882353 218.193908 
L 292.534759 221.26252 
L 295.187166 224.15356 
L 297.839572 226.86941 
L 300.491979 229.413434 
L 303.144385 231.789852 
L 305.796791 234.003617 
L 308.449198 236.060295 
L 311.101604 237.965953 
L 313.754011 239.727053 
L 316.406417 241.350354 
L 319.058824 242.842816 
L 321.71123 244.211524 
L 324.363636 245.46361 
L 327.016043 246.606185 
L 329.668449 247.646279 
L 332.320856 248.590796 
L 334.973262 249.446462 
L 337.625668 250.219793 
L 340.278075 250.917066 
L 342.930481 251.544292 
L 345.582888 252.107197 
L 348.235294 252.611215 
L 350.887701 253.061472 
L 353.540107 253.46279 
L 356.192513 253.81968 
L 358.84492 254.136347 
L 361.497326 254.416697 
L 364.149733 254.664345 
L 366.802139 254.882621 
L 369.454545 255.074586 
L 372.106952 255.243044 
L 374.759358 255.390549 
L 377.411765 255.51943 
L 380.064171 255.631793 
L 382.716578 255.729546 
L 385.368984 255.814406 
L 388.02139 255.887916 
L 390.673797 255.95146 
L 393.326203 256.006272 
L 395.97861 256.053452 
L 398.631016 256.093977 
L 401.283422 256.128713 
L 403.935829 256.158426 
L 406.588235 256.183787 
" clip-path="url(#p38ee4f3f7d)" style="fill: none; stroke: #0000ff; stroke-width: 1.5; stroke-linecap: square"/>
   </g>
   <g id="line2d_17">
    <path d="M 160.956203 256.32 
L 160.956203 45.12 
" clip-path="url(#p38ee4f3f7d)" style="fill: none; stroke: #000000; stroke-width: 1.5; stroke-linecap: square"/>
   </g>
   <g id="patch_52">
    <path d="M 144 256.32 
L 144 34.56 
" style="fill: none; stroke: #000000; stroke-width: 0.8; stroke-linejoin: miter; stroke-linecap: square"/>
   </g>
   <g id="patch_53">
    <path d="M 406.588235 256.32 
L 406.588235 34.56 
" style="fill: none; stroke: #000000; stroke-width: 0.8; stroke-linejoin: miter; stroke-linecap: square"/>
   </g>
   <g id="patch_54">
    <path d="M 144 256.32 
L 406.588235 256.32 
" style="fill: none; stroke: #000000; stroke-width: 0.8; stroke-linejoin: miter; stroke-linecap: square"/>
   </g>
   <g id="patch_55">
    <path d="M 144 34.56 
L 406.588235 34.56 
" style="fill: none; stroke: #000000; stroke-width: 0.8; stroke-linejoin: miter; stroke-linecap: square"/>
   </g>
   <g id="text_15">
    <!-- &lt;E1&gt; = 0.19 -->
    <g transform="translate(327.811765 66.24) scale(0.1 -0.1)">
     <defs>
      <path id="DejaVuSans-3c" d="M 4684 3150 
L 1459 2003 
L 4684 863 
L 4684 294 
L 678 1747 
L 678 2266 
L 4684 3719 
L 4684 3150 
z
" transform="scale(0.015625)"/>
      <path id="DejaVuSans-45" d="M 628 4666 
L 3578 4666 
L 3578 4134 
L 1259 4134 
L 1259 2753 
L 3481 2753 
L 3481 2222 
L 1259 2222 
L 1259 531 
L 3634 531 
L 3634 0 
L 628 0 
L 628 4666 
z
" transform="scale(0.015625)"/>
      <path id="DejaVuSans-3e" d="M 678 3150 
L 678 3719 
L 4684 2266 
L 4684 1747 
L 678 294 
L 678 863 
L 3897 2003 
L 678 3150 
z
" transform="scale(0.015625)"/>
      <path id="DejaVuSans-20" transform="scale(0.015625)"/>
      <path id="DejaVuSans-3d" d="M 678 2906 
L 4684 2906 
L 4684 2381 
L 678 2381 
L 678 2906 
z
M 678 1631 
L 4684 1631 
L 4684 1100 
L 678 1100 
L 678 1631 
z
" transform="scale(0.015625)"/>
      <path id="DejaVuSans-39" d="M 703 97 
L 703 672 
Q 941 559 1184 500 
Q 1428 441 1663 441 
Q 2288 441 2617 861 
Q 2947 1281 2994 2138 
Q 2813 1869 2534 1725 
Q 2256 1581 1919 1581 
Q 1219 1581 811 2004 
Q 403 2428 403 3163 
Q 403 3881 828 4315 
Q 1253 4750 1959 4750 
Q 2769 4750 3195 4129 
Q 3622 3509 3622 2328 
Q 3622 1225 3098 567 
Q 2575 -91 1691 -91 
Q 1453 -91 1209 -44 
Q 966 3 703 97 
z
M 1959 2075 
Q 2384 2075 2632 2365 
Q 2881 2656 2881 3163 
Q 2881 3666 2632 3958 
Q 2384 4250 1959 4250 
Q 1534 4250 1286 3958 
Q 1038 3666 1038 3163 
Q 1038 2656 1286 2365 
Q 1534 2075 1959 2075 
z
" transform="scale(0.015625)"/>
     </defs>
     <use xlink:href="#DejaVuSans-3c"/>
     <use xlink:href="#DejaVuSans-45" x="83.789062"/>
     <use xlink:href="#DejaVuSans-31" x="146.972656"/>
     <use xlink:href="#DejaVuSans-3e" x="210.595703"/>
     <use xlink:href="#DejaVuSans-20" x="294.384766"/>
     <use xlink:href="#DejaVuSans-3d" x="326.171875"/>
     <use xlink:href="#DejaVuSans-20" x="409.960938"/>
     <use xlink:href="#DejaVuSans-30" x="441.748047"/>
     <use xlink:href="#DejaVuSans-2e" x="505.371094"/>
     <use xlink:href="#DejaVuSans-31" x="537.158203"/>
     <use xlink:href="#DejaVuSans-39" x="600.78125"/>
    </g>
   </g>
  </g>
  <g id="axes_2">
   <g id="patch_56">
    <path d="M 459.105882 256.32 
L 721.694118 256.32 
L 721.694118 34.56 
L 459.105882 34.56 
z
" style="fill: #ffffff"/>
   </g>
   <g id="patch_57">
    <path d="M 459.105882 256.32 
L 468.037455 256.32 
L 468.037455 248.938611 
L 459.105882 248.938611 
z
" clip-path="url(#p168fc21f8d)" style="fill: #1f77b4"/>
   </g>
   <g id="patch_58">
    <path d="M 468.037455 256.32 
L 476.969028 256.32 
L 476.969028 229.562464 
L 468.037455 229.562464 
z
" clip-path="url(#p168fc21f8d)" style="fill: #1f77b4"/>
   </g>
   <g id="patch_59">
    <path d="M 476.969028 256.32 
L 485.9006 256.32 
L 485.9006 197.268886 
L 476.969028 197.268886 
z
" clip-path="url(#p168fc21f8d)" style="fill: #1f77b4"/>
   </g>
   <g id="patch_60">
    <path d="M 485.9006 256.32 
L 494.832173 256.32 
L 494.832173 157.593919 
L 485.9006 157.593919 
z
" clip-path="url(#p168fc21f8d)" style="fill: #1f77b4"/>
   </g>
   <g id="patch_61">
    <path d="M 494.832173 256.32 
L 503.763745 256.32 
L 503.763745 115.150931 
L 494.832173 115.150931 
z
" clip-path="url(#p168fc21f8d)" style="fill: #1f77b4"/>
   </g>
   <g id="patch_62">
    <path d="M 503.763745 256.32 
L 512.695318 256.32 
L 512.695318 80.089332 
L 503.763745 80.089332 
z
" clip-path="url(#p168fc21f8d)" style="fill: #1f77b4"/>
   </g>
   <g id="patch_63">
    <path d="M 512.695318 256.32 
L 521.626891 256.32 
L 521.626891 55.177143 
L 512.695318 55.177143 
z
" clip-path="url(#p168fc21f8d)" style="fill: #1f77b4"/>
   </g>
   <g id="patch_64">
    <path d="M 521.626891 256.32 
L 530.558463 256.32 
L 530.558463 61.635858 
L 521.626891 61.635858 
z
" clip-path="url(#p168fc21f8d)" style="fill: #1f77b4"/>
   </g>
   <g id="patch_65">
    <path d="M 530.558463 256.32 
L 539.490036 256.32 
L 539.490036 56.099817 
L 530.558463 56.099817 
z
" clip-path="url(#p168fc21f8d)" style="fill: #1f77b4"/>
   </g>
   <g id="patch_66">
    <path d="M 539.490036 256.32 
L 548.421609 256.32 
L 548.421609 105.00152 
L 539.490036 105.00152 
z
" clip-path="url(#p168fc21f8d)" style="fill: #1f77b4"/>
   </g>
   <g id="patch_67">
    <path d="M 548.421609 256.32 
L 557.353181 256.32 
L 557.353181 128.991035 
L 548.421609 128.991035 
z
" clip-path="url(#p168fc21f8d)" style="fill: #1f77b4"/>
   </g>
   <g id="patch_68">
    <path d="M 557.353181 256.32 
L 566.284754 256.32 
L 566.284754 146.521835 
L 557.353181 146.521835 
z
" clip-path="url(#p168fc21f8d)" style="fill: #1f77b4"/>
   </g>
   <g id="patch_69">
    <path d="M 566.284754 256.32 
L 575.216327 256.32 
L 575.216327 168.666003 
L 566.284754 168.666003 
z
" clip-path="url(#p168fc21f8d)" style="fill: #1f77b4"/>
   </g>
   <g id="patch_70">
    <path d="M 575.216327 256.32 
L 584.147899 256.32 
L 584.147899 187.119476 
L 575.216327 187.119476 
z
" clip-path="url(#p168fc21f8d)" style="fill: #1f77b4"/>
   </g>
   <g id="patch_71">
    <path d="M 584.147899 256.32 
L 593.079472 256.32 
L 593.079472 208.34097 
L 584.147899 208.34097 
z
" clip-path="url(#p168fc21f8d)" style="fill: #1f77b4"/>
   </g>
   <g id="patch_72">
    <path d="M 593.079472 256.32 
L 602.011044 256.32 
L 602.011044 218.49038 
L 593.079472 218.49038 
z
" clip-path="url(#p168fc21f8d)" style="fill: #1f77b4"/>
   </g>
   <g id="patch_73">
    <path d="M 602.011044 256.32 
L 610.942617 256.32 
L 610.942617 232.330485 
L 602.011044 232.330485 
z
" clip-path="url(#p168fc21f8d)" style="fill: #1f77b4"/>
   </g>
   <g id="patch_74">
    <path d="M 610.942617 256.32 
L 619.87419 256.32 
L 619.87419 242.479895 
L 610.942617 242.479895 
z
" clip-path="url(#p168fc21f8d)" style="fill: #1f77b4"/>
   </g>
   <g id="patch_75">
    <path d="M 619.87419 256.32 
L 628.805762 256.32 
L 628.805762 249.861284 
L 619.87419 249.861284 
z
" clip-path="url(#p168fc21f8d)" style="fill: #1f77b4"/>
   </g>
   <g id="patch_76">
    <path d="M 628.805762 256.32 
L 637.737335 256.32 
L 637.737335 253.551979 
L 628.805762 253.551979 
z
" clip-path="url(#p168fc21f8d)" style="fill: #1f77b4"/>
   </g>
   <g id="patch_77">
    <path d="M 637.737335 256.32 
L 646.668908 256.32 
L 646.668908 250.783958 
L 637.737335 250.783958 
z
" clip-path="url(#p168fc21f8d)" style="fill: #1f77b4"/>
   </g>
   <g id="patch_78">
    <path d="M 646.668908 256.32 
L 655.60048 256.32 
L 655.60048 249.861284 
L 646.668908 249.861284 
z
" clip-path="url(#p168fc21f8d)" style="fill: #1f77b4"/>
   </g>
   <g id="patch_79">
    <path d="M 655.60048 256.32 
L 664.532053 256.32 
L 664.532053 255.397326 
L 655.60048 255.397326 
z
" clip-path="url(#p168fc21f8d)" style="fill: #1f77b4"/>
   </g>
   <g id="patch_80">
    <path d="M 664.532053 256.32 
L 673.463625 256.32 
L 673.463625 256.32 
L 664.532053 256.32 
z
" clip-path="url(#p168fc21f8d)" style="fill: #1f77b4"/>
   </g>
   <g id="patch_81">
    <path d="M 673.463625 256.32 
L 682.395198 256.32 
L 682.395198 256.32 
L 673.463625 256.32 
z
" clip-path="url(#p168fc21f8d)" style="fill: #1f77b4"/>
   </g>
   <g id="patch_82">
    <path d="M 682.395198 256.32 
L 691.326771 256.32 
L 691.326771 256.32 
L 682.395198 256.32 
z
" clip-path="url(#p168fc21f8d)" style="fill: #1f77b4"/>
   </g>
   <g id="patch_83">
    <path d="M 691.326771 256.32 
L 700.258343 256.32 
L 700.258343 256.32 
L 691.326771 256.32 
z
" clip-path="url(#p168fc21f8d)" style="fill: #1f77b4"/>
   </g>
   <g id="patch_84">
    <path d="M 700.258343 256.32 
L 709.189916 256.32 
L 709.189916 256.32 
L 700.258343 256.32 
z
" clip-path="url(#p168fc21f8d)" style="fill: #1f77b4"/>
   </g>
   <g id="patch_85">
    <path d="M 709.189916 256.32 
L 718.121489 256.32 
L 718.121489 256.32 
L 709.189916 256.32 
z
" clip-path="url(#p168fc21f8d)" style="fill: #1f77b4"/>
   </g>
   <g id="patch_86">
    <path d="M 718.121489 256.32 
L 727.053061 256.32 
L 727.053061 256.32 
L 718.121489 256.32 
z
" clip-path="url(#p168fc21f8d)" style="fill: #1f77b4"/>
   </g>
   <g id="patch_87">
    <path d="M 727.053061 256.32 
L 735.984634 256.32 
L 735.984634 256.32 
L 727.053061 256.32 
z
" clip-path="url(#p168fc21f8d)" style="fill: #1f77b4"/>
   </g>
   <g id="patch_88">
    <path d="M 735.984634 256.32 
L 744.916206 256.32 
L 744.916206 256.32 
L 735.984634 256.32 
z
" clip-path="url(#p168fc21f8d)" style="fill: #1f77b4"/>
   </g>
   <g id="patch_89">
    <path d="M 744.916206 256.32 
L 753.847779 256.32 
L 753.847779 256.32 
L 744.916206 256.32 
z
" clip-path="url(#p168fc21f8d)" style="fill: #1f77b4"/>
   </g>
   <g id="patch_90">
    <path d="M 753.847779 256.32 
L 762.779352 256.32 
L 762.779352 256.32 
L 753.847779 256.32 
z
" clip-path="url(#p168fc21f8d)" style="fill: #1f77b4"/>
   </g>
   <g id="patch_91">
    <path d="M 762.779352 256.32 
L 771.710924 256.32 
L 771.710924 256.32 
L 762.779352 256.32 
z
" clip-path="url(#p168fc21f8d)" style="fill: #1f77b4"/>
   </g>
   <g id="patch_92">
    <path d="M 771.710924 256.32 
L 780.642497 256.32 
L 780.642497 256.32 
L 771.710924 256.32 
z
" clip-path="url(#p168fc21f8d)" style="fill: #1f77b4"/>
   </g>
   <g id="patch_93">
    <path d="M 780.642497 256.32 
L 789.57407 256.32 
L 789.57407 256.32 
L 780.642497 256.32 
z
" clip-path="url(#p168fc21f8d)" style="fill: #1f77b4"/>
   </g>
   <g id="patch_94">
    <path d="M 789.57407 256.32 
L 798.505642 256.32 
L 798.505642 256.32 
L 789.57407 256.32 
z
" clip-path="url(#p168fc21f8d)" style="fill: #1f77b4"/>
   </g>
   <g id="patch_95">
    <path d="M 798.505642 256.32 
L 807.437215 256.32 
L 807.437215 256.32 
L 798.505642 256.32 
z
" clip-path="url(#p168fc21f8d)" style="fill: #1f77b4"/>
   </g>
   <g id="patch_96">
    <path d="M 807.437215 256.32 
L 816.368788 256.32 
L 816.368788 256.32 
L 807.437215 256.32 
z
" clip-path="url(#p168fc21f8d)" style="fill: #1f77b4"/>
   </g>
   <g id="patch_97">
    <path d="M 816.368788 256.32 
L 825.30036 256.32 
L 825.30036 256.32 
L 816.368788 256.32 
z
" clip-path="url(#p168fc21f8d)" style="fill: #1f77b4"/>
   </g>
   <g id="patch_98">
    <path d="M 825.30036 256.32 
L 834.231933 256.32 
L 834.231933 256.32 
L 825.30036 256.32 
z
" clip-path="url(#p168fc21f8d)" style="fill: #1f77b4"/>
   </g>
   <g id="patch_99">
    <path d="M 834.231933 256.32 
L 843.163505 256.32 
L 843.163505 256.32 
L 834.231933 256.32 
z
" clip-path="url(#p168fc21f8d)" style="fill: #1f77b4"/>
   </g>
   <g id="patch_100">
    <path d="M 843.163505 256.32 
L 852.095078 256.32 
L 852.095078 256.32 
L 843.163505 256.32 
z
" clip-path="url(#p168fc21f8d)" style="fill: #1f77b4"/>
   </g>
   <g id="patch_101">
    <path d="M 852.095078 256.32 
L 861.026651 256.32 
L 861.026651 256.32 
L 852.095078 256.32 
z
" clip-path="url(#p168fc21f8d)" style="fill: #1f77b4"/>
   </g>
   <g id="patch_102">
    <path d="M 861.026651 256.32 
L 869.958223 256.32 
L 869.958223 256.32 
L 861.026651 256.32 
z
" clip-path="url(#p168fc21f8d)" style="fill: #1f77b4"/>
   </g>
   <g id="patch_103">
    <path d="M 869.958223 256.32 
L 878.889796 256.32 
L 878.889796 256.32 
L 869.958223 256.32 
z
" clip-path="url(#p168fc21f8d)" style="fill: #1f77b4"/>
   </g>
   <g id="patch_104">
    <path d="M 878.889796 256.32 
L 887.821369 256.32 
L 887.821369 256.32 
L 878.889796 256.32 
z
" clip-path="url(#p168fc21f8d)" style="fill: #1f77b4"/>
   </g>
   <g id="patch_105">
    <path d="M 887.821369 256.32 
L 896.752941 256.32 
L 896.752941 256.32 
L 887.821369 256.32 
z
" clip-path="url(#p168fc21f8d)" style="fill: #1f77b4"/>
   </g>
   <g id="matplotlib.axis_3">
    <g id="xtick_8">
     <g id="line2d_18">
      <g>
       <use xlink:href="#m7490962aff" x="459.105882" y="256.32" style="stroke: #000000; stroke-width: 0.8"/>
      </g>
     </g>
     <g id="text_16">
      <!-- 0.0 -->
      <g transform="translate(449.564007 272.438125) scale(0.12 -0.12)">
       <use xlink:href="#DejaVuSans-30"/>
       <use xlink:href="#DejaVuSans-2e" x="63.623047"/>
       <use xlink:href="#DejaVuSans-30" x="95.410156"/>
      </g>
     </g>
    </g>
    <g id="xtick_9">
     <g id="line2d_19">
      <g>
       <use xlink:href="#m7490962aff" x="502.870588" y="256.32" style="stroke: #000000; stroke-width: 0.8"/>
      </g>
     </g>
     <g id="text_17">
      <!-- 0.5 -->
      <g transform="translate(493.328713 272.438125) scale(0.12 -0.12)">
       <use xlink:href="#DejaVuSans-30"/>
       <use xlink:href="#DejaVuSans-2e" x="63.623047"/>
       <use xlink:href="#DejaVuSans-35" x="95.410156"/>
      </g>
     </g>
    </g>
    <g id="xtick_10">
     <g id="line2d_20">
      <g>
       <use xlink:href="#m7490962aff" x="546.635294" y="256.32" style="stroke: #000000; stroke-width: 0.8"/>
      </g>
     </g>
     <g id="text_18">
      <!-- 1.0 -->
      <g transform="translate(537.093419 272.438125) scale(0.12 -0.12)">
       <use xlink:href="#DejaVuSans-31"/>
       <use xlink:href="#DejaVuSans-2e" x="63.623047"/>
       <use xlink:href="#DejaVuSans-30" x="95.410156"/>
      </g>
     </g>
    </g>
    <g id="xtick_11">
     <g id="line2d_21">
      <g>
       <use xlink:href="#m7490962aff" x="590.4" y="256.32" style="stroke: #000000; stroke-width: 0.8"/>
      </g>
     </g>
     <g id="text_19">
      <!-- 1.5 -->
      <g transform="translate(580.858125 272.438125) scale(0.12 -0.12)">
       <use xlink:href="#DejaVuSans-31"/>
       <use xlink:href="#DejaVuSans-2e" x="63.623047"/>
       <use xlink:href="#DejaVuSans-35" x="95.410156"/>
      </g>
     </g>
    </g>
    <g id="xtick_12">
     <g id="line2d_22">
      <g>
       <use xlink:href="#m7490962aff" x="634.164706" y="256.32" style="stroke: #000000; stroke-width: 0.8"/>
      </g>
     </g>
     <g id="text_20">
      <!-- 2.0 -->
      <g transform="translate(624.622831 272.438125) scale(0.12 -0.12)">
       <use xlink:href="#DejaVuSans-32"/>
       <use xlink:href="#DejaVuSans-2e" x="63.623047"/>
       <use xlink:href="#DejaVuSans-30" x="95.410156"/>
      </g>
     </g>
    </g>
    <g id="xtick_13">
     <g id="line2d_23">
      <g>
       <use xlink:href="#m7490962aff" x="677.929412" y="256.32" style="stroke: #000000; stroke-width: 0.8"/>
      </g>
     </g>
     <g id="text_21">
      <!-- 2.5 -->
      <g transform="translate(668.387537 272.438125) scale(0.12 -0.12)">
       <use xlink:href="#DejaVuSans-32"/>
       <use xlink:href="#DejaVuSans-2e" x="63.623047"/>
       <use xlink:href="#DejaVuSans-35" x="95.410156"/>
      </g>
     </g>
    </g>
    <g id="xtick_14">
     <g id="line2d_24">
      <g>
       <use xlink:href="#m7490962aff" x="721.694118" y="256.32" style="stroke: #000000; stroke-width: 0.8"/>
      </g>
     </g>
     <g id="text_22">
      <!-- 3.0 -->
      <g transform="translate(712.152243 272.438125) scale(0.12 -0.12)">
       <use xlink:href="#DejaVuSans-33"/>
       <use xlink:href="#DejaVuSans-2e" x="63.623047"/>
       <use xlink:href="#DejaVuSans-30" x="95.410156"/>
      </g>
     </g>
    </g>
   </g>
   <g id="matplotlib.axis_4">
    <g id="ytick_8">
     <g id="line2d_25">
      <g>
       <use xlink:href="#m62526cefdd" x="459.105882" y="256.32" style="stroke: #000000; stroke-width: 0.8"/>
      </g>
     </g>
     <g id="text_23">
      <!-- 0.0 -->
      <g transform="translate(433.022132 260.879063) scale(0.12 -0.12)">
       <use xlink:href="#DejaVuSans-30"/>
       <use xlink:href="#DejaVuSans-2e" x="63.623047"/>
       <use xlink:href="#DejaVuSans-30" x="95.410156"/>
      </g>
     </g>
    </g>
    <g id="ytick_9">
     <g id="line2d_26">
      <g>
       <use xlink:href="#m62526cefdd" x="459.105882" y="219.657845" style="stroke: #000000; stroke-width: 0.8"/>
      </g>
     </g>
     <g id="text_24">
      <!-- 0.2 -->
      <g transform="translate(433.022132 224.216907) scale(0.12 -0.12)">
       <use xlink:href="#DejaVuSans-30"/>
       <use xlink:href="#DejaVuSans-2e" x="63.623047"/>
       <use xlink:href="#DejaVuSans-32" x="95.410156"/>
      </g>
     </g>
    </g>
    <g id="ytick_10">
     <g id="line2d_27">
      <g>
       <use xlink:href="#m62526cefdd" x="459.105882" y="182.995689" style="stroke: #000000; stroke-width: 0.8"/>
      </g>
     </g>
     <g id="text_25">
      <!-- 0.4 -->
      <g transform="translate(433.022132 187.554752) scale(0.12 -0.12)">
       <use xlink:href="#DejaVuSans-30"/>
       <use xlink:href="#DejaVuSans-2e" x="63.623047"/>
       <use xlink:href="#DejaVuSans-34" x="95.410156"/>
      </g>
     </g>
    </g>
    <g id="ytick_11">
     <g id="line2d_28">
      <g>
       <use xlink:href="#m62526cefdd" x="459.105882" y="146.333534" style="stroke: #000000; stroke-width: 0.8"/>
      </g>
     </g>
     <g id="text_26">
      <!-- 0.6 -->
      <g transform="translate(433.022132 150.892597) scale(0.12 -0.12)">
       <use xlink:href="#DejaVuSans-30"/>
       <use xlink:href="#DejaVuSans-2e" x="63.623047"/>
       <use xlink:href="#DejaVuSans-36" x="95.410156"/>
      </g>
     </g>
    </g>
    <g id="ytick_12">
     <g id="line2d_29">
      <g>
       <use xlink:href="#m62526cefdd" x="459.105882" y="109.671379" style="stroke: #000000; stroke-width: 0.8"/>
      </g>
     </g>
     <g id="text_27">
      <!-- 0.8 -->
      <g transform="translate(433.022132 114.230441) scale(0.12 -0.12)">
       <use xlink:href="#DejaVuSans-30"/>
       <use xlink:href="#DejaVuSans-2e" x="63.623047"/>
       <use xlink:href="#DejaVuSans-38" x="95.410156"/>
      </g>
     </g>
    </g>
    <g id="ytick_13">
     <g id="line2d_30">
      <g>
       <use xlink:href="#m62526cefdd" x="459.105882" y="73.009224" style="stroke: #000000; stroke-width: 0.8"/>
      </g>
     </g>
     <g id="text_28">
      <!-- 1.0 -->
      <g transform="translate(433.022132 77.568286) scale(0.12 -0.12)">
       <use xlink:href="#DejaVuSans-31"/>
       <use xlink:href="#DejaVuSans-2e" x="63.623047"/>
       <use xlink:href="#DejaVuSans-30" x="95.410156"/>
      </g>
     </g>
    </g>
    <g id="ytick_14">
     <g id="line2d_31">
      <g>
       <use xlink:href="#m62526cefdd" x="459.105882" y="36.347068" style="stroke: #000000; stroke-width: 0.8"/>
      </g>
     </g>
     <g id="text_29">
      <!-- 1.2 -->
      <g transform="translate(433.022132 40.906131) scale(0.12 -0.12)">
       <use xlink:href="#DejaVuSans-31"/>
       <use xlink:href="#DejaVuSans-2e" x="63.623047"/>
       <use xlink:href="#DejaVuSans-32" x="95.410156"/>
      </g>
     </g>
    </g>
   </g>
   <g id="line2d_32">
    <path d="M 459.105882 256.32 
L 461.758289 244.633601 
L 464.410695 233.005187 
L 467.063102 221.492437 
L 469.715508 210.152412 
L 472.367914 199.041235 
L 475.020321 188.213778 
L 477.672727 177.723323 
L 480.325134 167.621227 
L 482.97754 157.956575 
L 485.629947 148.775829 
L 488.282353 140.12247 
L 490.934759 132.036646 
L 493.587166 124.554827 
L 496.239572 117.709467 
L 498.891979 111.528688 
L 501.544385 106.035994 
L 504.196791 101.250014 
L 506.849198 97.184285 
L 509.501604 93.847089 
L 512.154011 91.241339 
L 514.806417 89.364525 
L 517.458824 88.208728 
L 520.11123 87.760694 
L 522.763636 88.001986 
L 525.416043 88.909192 
L 528.068449 90.454208 
L 530.720856 92.604584 
L 533.373262 95.323921 
L 536.025668 98.572325 
L 538.678075 102.306907 
L 541.330481 106.482308 
L 543.982888 111.05126 
L 546.635294 115.96516 
L 549.287701 121.174644 
L 551.940107 126.63016 
L 554.592513 132.282527 
L 557.24492 138.083466 
L 559.897326 143.986101 
L 562.549733 149.945414 
L 565.202139 155.91866 
L 567.854545 161.86572 
L 570.506952 167.749408 
L 573.159358 173.535711 
L 575.811765 179.193968 
L 578.464171 184.697 
L 581.116578 190.021165 
L 583.768984 195.146374 
L 586.42139 200.056042 
L 589.073797 204.736999 
L 591.726203 209.179355 
L 594.37861 213.376332 
L 597.031016 217.324057 
L 599.683422 221.021342 
L 602.335829 224.469438 
L 604.988235 227.671775 
L 607.640642 230.633703 
L 610.293048 233.362225 
L 612.945455 235.865734 
L 615.597861 238.153762 
L 618.250267 240.236733 
L 620.902674 242.12574 
L 623.55508 243.832327 
L 626.207487 245.3683 
L 628.859893 246.745553 
L 631.512299 247.97591 
L 634.164706 249.070999 
L 636.817112 250.042132 
L 639.469519 250.90022 
L 642.121925 251.655688 
L 644.774332 252.318429 
L 647.426738 252.897754 
L 650.079144 253.402368 
L 652.731551 253.840359 
L 655.383957 254.219189 
L 658.036364 254.545706 
L 660.68877 254.826156 
L 663.341176 255.066205 
L 665.993583 255.270965 
L 668.645989 255.445024 
L 671.298396 255.592478 
L 673.950802 255.716969 
L 676.603209 255.821716 
L 679.255615 255.90955 
L 681.908021 255.982955 
L 684.560428 256.044093 
L 687.212834 256.094844 
L 689.865241 256.136832 
L 692.517647 256.171453 
L 695.170053 256.199905 
L 697.82246 256.223209 
L 700.474866 256.242233 
L 703.127273 256.257712 
L 705.779679 256.270265 
L 708.432086 256.280412 
L 711.084492 256.288586 
L 713.736898 256.29515 
L 716.389305 256.300403 
L 719.041711 256.304594 
L 721.694118 256.307926 
" clip-path="url(#p168fc21f8d)" style="fill: none; stroke: #ff0000; stroke-width: 1.5; stroke-linecap: square"/>
   </g>
   <g id="line2d_33">
    <path d="M 459.105882 256.32 
L 461.758289 245.220453 
L 464.410695 234.181977 
L 467.063102 223.265081 
L 469.715508 212.529165 
L 472.367914 202.031977 
L 475.020321 191.829097 
L 477.672727 181.973447 
L 480.325134 172.514839 
L 482.97754 163.499551 
L 485.629947 154.969958 
L 488.282353 146.964207 
L 490.934759 139.515943 
L 493.587166 132.654088 
L 496.239572 126.402679 
L 498.891979 120.78076 
L 501.544385 115.802332 
L 504.196791 111.476359 
L 506.849198 107.806827 
L 509.501604 104.792859 
L 512.154011 102.428874 
L 514.806417 100.704795 
L 517.458824 99.6063 
L 520.11123 99.115105 
L 522.763636 99.209281 
L 525.416043 99.863603 
L 528.068449 101.04991 
L 530.720856 102.737491 
L 533.373262 104.893473 
L 536.025668 107.483222 
L 538.678075 110.470734 
L 541.330481 113.819032 
L 543.982888 117.490543 
L 546.635294 121.447468 
L 549.287701 125.652131 
L 551.940107 130.067306 
L 554.592513 134.656522 
L 557.24492 139.384342 
L 559.897326 144.216609 
L 562.549733 149.12067 
L 565.202139 154.065563 
L 567.854545 159.022175 
L 570.506952 163.963372 
L 573.159358 168.864096 
L 575.811765 173.701434 
L 578.464171 178.45466 
L 581.116578 183.105248 
L 583.768984 187.636865 
L 586.42139 192.035336 
L 589.073797 196.288595 
L 591.726203 200.386614 
L 594.37861 204.321314 
L 597.031016 208.086474 
L 599.683422 211.677612 
L 602.335829 215.091875 
L 604.988235 218.32791 
L 607.640642 221.385737 
L 610.293048 224.266616 
L 612.945455 226.972921 
L 615.597861 229.508003 
L 618.250267 231.876068 
L 620.902674 234.082052 
L 623.55508 236.131502 
L 626.207487 238.030462 
L 628.859893 239.785373 
L 631.512299 241.402967 
L 634.164706 242.890184 
L 636.817112 244.254082 
L 639.469519 245.501767 
L 642.121925 246.640326 
L 644.774332 247.676765 
L 647.426738 248.617962 
L 650.079144 249.47062 
L 652.731551 250.241234 
L 655.383957 250.936056 
L 658.036364 251.561077 
L 660.68877 252.122004 
L 663.341176 252.62425 
L 665.993583 253.072925 
L 668.645989 253.472833 
L 671.298396 253.828468 
L 673.950802 254.144022 
L 676.603209 254.423387 
L 679.255615 254.670164 
L 681.908021 254.887673 
L 684.560428 255.078964 
L 687.212834 255.246829 
L 689.865241 255.393816 
L 692.517647 255.522243 
L 695.170053 255.634212 
L 697.82246 255.731621 
L 700.474866 255.816183 
L 703.127273 255.889435 
L 705.779679 255.952755 
L 708.432086 256.007374 
L 711.084492 256.054388 
L 713.736898 256.094771 
L 716.389305 256.129386 
L 719.041711 256.158993 
L 721.694118 256.184266 
" clip-path="url(#p168fc21f8d)" style="fill: none; stroke: #0000ff; stroke-width: 1.5; stroke-linecap: square"/>
   </g>
   <g id="line2d_34">
    <path d="M 531.765607 256.32 
L 531.765607 45.12 
" clip-path="url(#p168fc21f8d)" style="fill: none; stroke: #000000; stroke-width: 1.5; stroke-linecap: square"/>
   </g>
   <g id="patch_106">
    <path d="M 459.105882 256.32 
L 459.105882 34.56 
" style="fill: none; stroke: #000000; stroke-width: 0.8; stroke-linejoin: miter; stroke-linecap: square"/>
   </g>
   <g id="patch_107">
    <path d="M 721.694118 256.32 
L 721.694118 34.56 
" style="fill: none; stroke: #000000; stroke-width: 0.8; stroke-linejoin: miter; stroke-linecap: square"/>
   </g>
   <g id="patch_108">
    <path d="M 459.105882 256.32 
L 721.694118 256.32 
" style="fill: none; stroke: #000000; stroke-width: 0.8; stroke-linejoin: miter; stroke-linecap: square"/>
   </g>
   <g id="patch_109">
    <path d="M 459.105882 34.56 
L 721.694118 34.56 
" style="fill: none; stroke: #000000; stroke-width: 0.8; stroke-linejoin: miter; stroke-linecap: square"/>
   </g>
   <g id="text_30">
    <!-- &lt;E1&gt; = 0.83 -->
    <g transform="translate(642.917647 66.24) scale(0.1 -0.1)">
     <use xlink:href="#DejaVuSans-3c"/>
     <use xlink:href="#DejaVuSans-45" x="83.789062"/>
     <use xlink:href="#DejaVuSans-31" x="146.972656"/>
     <use xlink:href="#DejaVuSans-3e" x="210.595703"/>
     <use xlink:href="#DejaVuSans-20" x="294.384766"/>
     <use xlink:href="#DejaVuSans-3d" x="326.171875"/>
     <use xlink:href="#DejaVuSans-20" x="409.960938"/>
     <use xlink:href="#DejaVuSans-30" x="441.748047"/>
     <use xlink:href="#DejaVuSans-2e" x="505.371094"/>
     <use xlink:href="#DejaVuSans-38" x="537.158203"/>
     <use xlink:href="#DejaVuSans-33" x="600.78125"/>
    </g>
   </g>
   <g id="text_31">
    <!-- Conditional histograms (acentric, real data) -->
    <g transform="translate(433.355625 28.56) scale(0.144 -0.144)">
     <defs>
      <path id="DejaVuSans-43" d="M 4122 4306 
L 4122 3641 
Q 3803 3938 3442 4084 
Q 3081 4231 2675 4231 
Q 1875 4231 1450 3742 
Q 1025 3253 1025 2328 
Q 1025 1406 1450 917 
Q 1875 428 2675 428 
Q 3081 428 3442 575 
Q 3803 722 4122 1019 
L 4122 359 
Q 3791 134 3420 21 
Q 3050 -91 2638 -91 
Q 1578 -91 968 557 
Q 359 1206 359 2328 
Q 359 3453 968 4101 
Q 1578 4750 2638 4750 
Q 3056 4750 3426 4639 
Q 3797 4528 4122 4306 
z
" transform="scale(0.015625)"/>
      <path id="DejaVuSans-6f" d="M 1959 3097 
Q 1497 3097 1228 2736 
Q 959 2375 959 1747 
Q 959 1119 1226 758 
Q 1494 397 1959 397 
Q 2419 397 2687 759 
Q 2956 1122 2956 1747 
Q 2956 2369 2687 2733 
Q 2419 3097 1959 3097 
z
M 1959 3584 
Q 2709 3584 3137 3096 
Q 3566 2609 3566 1747 
Q 3566 888 3137 398 
Q 2709 -91 1959 -91 
Q 1206 -91 779 398 
Q 353 888 353 1747 
Q 353 2609 779 3096 
Q 1206 3584 1959 3584 
z
" transform="scale(0.015625)"/>
      <path id="DejaVuSans-6e" d="M 3513 2113 
L 3513 0 
L 2938 0 
L 2938 2094 
Q 2938 2591 2744 2837 
Q 2550 3084 2163 3084 
Q 1697 3084 1428 2787 
Q 1159 2491 1159 1978 
L 1159 0 
L 581 0 
L 581 3500 
L 1159 3500 
L 1159 2956 
Q 1366 3272 1645 3428 
Q 1925 3584 2291 3584 
Q 2894 3584 3203 3211 
Q 3513 2838 3513 2113 
z
" transform="scale(0.015625)"/>
      <path id="DejaVuSans-64" d="M 2906 2969 
L 2906 4863 
L 3481 4863 
L 3481 0 
L 2906 0 
L 2906 525 
Q 2725 213 2448 61 
Q 2172 -91 1784 -91 
Q 1150 -91 751 415 
Q 353 922 353 1747 
Q 353 2572 751 3078 
Q 1150 3584 1784 3584 
Q 2172 3584 2448 3432 
Q 2725 3281 2906 2969 
z
M 947 1747 
Q 947 1113 1208 752 
Q 1469 391 1925 391 
Q 2381 391 2643 752 
Q 2906 1113 2906 1747 
Q 2906 2381 2643 2742 
Q 2381 3103 1925 3103 
Q 1469 3103 1208 2742 
Q 947 2381 947 1747 
z
" transform="scale(0.015625)"/>
      <path id="DejaVuSans-69" d="M 603 3500 
L 1178 3500 
L 1178 0 
L 603 0 
L 603 3500 
z
M 603 4863 
L 1178 4863 
L 1178 4134 
L 603 4134 
L 603 4863 
z
" transform="scale(0.015625)"/>
      <path id="DejaVuSans-74" d="M 1172 4494 
L 1172 3500 
L 2356 3500 
L 2356 3053 
L 1172 3053 
L 1172 1153 
Q 1172 725 1289 603 
Q 1406 481 1766 481 
L 2356 481 
L 2356 0 
L 1766 0 
Q 1100 0 847 248 
Q 594 497 594 1153 
L 594 3053 
L 172 3053 
L 172 3500 
L 594 3500 
L 594 4494 
L 1172 4494 
z
" transform="scale(0.015625)"/>
      <path id="DejaVuSans-61" d="M 2194 1759 
Q 1497 1759 1228 1600 
Q 959 1441 959 1056 
Q 959 750 1161 570 
Q 1363 391 1709 391 
Q 2188 391 2477 730 
Q 2766 1069 2766 1631 
L 2766 1759 
L 2194 1759 
z
M 3341 1997 
L 3341 0 
L 2766 0 
L 2766 531 
Q 2569 213 2275 61 
Q 1981 -91 1556 -91 
Q 1019 -91 701 211 
Q 384 513 384 1019 
Q 384 1609 779 1909 
Q 1175 2209 1959 2209 
L 2766 2209 
L 2766 2266 
Q 2766 2663 2505 2880 
Q 2244 3097 1772 3097 
Q 1472 3097 1187 3025 
Q 903 2953 641 2809 
L 641 3341 
Q 956 3463 1253 3523 
Q 1550 3584 1831 3584 
Q 2591 3584 2966 3190 
Q 3341 2797 3341 1997 
z
" transform="scale(0.015625)"/>
      <path id="DejaVuSans-6c" d="M 603 4863 
L 1178 4863 
L 1178 0 
L 603 0 
L 603 4863 
z
" transform="scale(0.015625)"/>
      <path id="DejaVuSans-68" d="M 3513 2113 
L 3513 0 
L 2938 0 
L 2938 2094 
Q 2938 2591 2744 2837 
Q 2550 3084 2163 3084 
Q 1697 3084 1428 2787 
Q 1159 2491 1159 1978 
L 1159 0 
L 581 0 
L 581 4863 
L 1159 4863 
L 1159 2956 
Q 1366 3272 1645 3428 
Q 1925 3584 2291 3584 
Q 2894 3584 3203 3211 
Q 3513 2838 3513 2113 
z
" transform="scale(0.015625)"/>
      <path id="DejaVuSans-73" d="M 2834 3397 
L 2834 2853 
Q 2591 2978 2328 3040 
Q 2066 3103 1784 3103 
Q 1356 3103 1142 2972 
Q 928 2841 928 2578 
Q 928 2378 1081 2264 
Q 1234 2150 1697 2047 
L 1894 2003 
Q 2506 1872 2764 1633 
Q 3022 1394 3022 966 
Q 3022 478 2636 193 
Q 2250 -91 1575 -91 
Q 1294 -91 989 -36 
Q 684 19 347 128 
L 347 722 
Q 666 556 975 473 
Q 1284 391 1588 391 
Q 1994 391 2212 530 
Q 2431 669 2431 922 
Q 2431 1156 2273 1281 
Q 2116 1406 1581 1522 
L 1381 1569 
Q 847 1681 609 1914 
Q 372 2147 372 2553 
Q 372 3047 722 3315 
Q 1072 3584 1716 3584 
Q 2034 3584 2315 3537 
Q 2597 3491 2834 3397 
z
" transform="scale(0.015625)"/>
      <path id="DejaVuSans-67" d="M 2906 1791 
Q 2906 2416 2648 2759 
Q 2391 3103 1925 3103 
Q 1463 3103 1205 2759 
Q 947 2416 947 1791 
Q 947 1169 1205 825 
Q 1463 481 1925 481 
Q 2391 481 2648 825 
Q 2906 1169 2906 1791 
z
M 3481 434 
Q 3481 -459 3084 -895 
Q 2688 -1331 1869 -1331 
Q 1566 -1331 1297 -1286 
Q 1028 -1241 775 -1147 
L 775 -588 
Q 1028 -725 1275 -790 
Q 1522 -856 1778 -856 
Q 2344 -856 2625 -561 
Q 2906 -266 2906 331 
L 2906 616 
Q 2728 306 2450 153 
Q 2172 0 1784 0 
Q 1141 0 747 490 
Q 353 981 353 1791 
Q 353 2603 747 3093 
Q 1141 3584 1784 3584 
Q 2172 3584 2450 3431 
Q 2728 3278 2906 2969 
L 2906 3500 
L 3481 3500 
L 3481 434 
z
" transform="scale(0.015625)"/>
      <path id="DejaVuSans-72" d="M 2631 2963 
Q 2534 3019 2420 3045 
Q 2306 3072 2169 3072 
Q 1681 3072 1420 2755 
Q 1159 2438 1159 1844 
L 1159 0 
L 581 0 
L 581 3500 
L 1159 3500 
L 1159 2956 
Q 1341 3275 1631 3429 
Q 1922 3584 2338 3584 
Q 2397 3584 2469 3576 
Q 2541 3569 2628 3553 
L 2631 2963 
z
" transform="scale(0.015625)"/>
      <path id="DejaVuSans-6d" d="M 3328 2828 
Q 3544 3216 3844 3400 
Q 4144 3584 4550 3584 
Q 5097 3584 5394 3201 
Q 5691 2819 5691 2113 
L 5691 0 
L 5113 0 
L 5113 2094 
Q 5113 2597 4934 2840 
Q 4756 3084 4391 3084 
Q 3944 3084 3684 2787 
Q 3425 2491 3425 1978 
L 3425 0 
L 2847 0 
L 2847 2094 
Q 2847 2600 2669 2842 
Q 2491 3084 2119 3084 
Q 1678 3084 1418 2786 
Q 1159 2488 1159 1978 
L 1159 0 
L 581 0 
L 581 3500 
L 1159 3500 
L 1159 2956 
Q 1356 3278 1631 3431 
Q 1906 3584 2284 3584 
Q 2666 3584 2933 3390 
Q 3200 3197 3328 2828 
z
" transform="scale(0.015625)"/>
      <path id="DejaVuSans-28" d="M 1984 4856 
Q 1566 4138 1362 3434 
Q 1159 2731 1159 2009 
Q 1159 1288 1364 580 
Q 1569 -128 1984 -844 
L 1484 -844 
Q 1016 -109 783 600 
Q 550 1309 550 2009 
Q 550 2706 781 3412 
Q 1013 4119 1484 4856 
L 1984 4856 
z
" transform="scale(0.015625)"/>
      <path id="DejaVuSans-63" d="M 3122 3366 
L 3122 2828 
Q 2878 2963 2633 3030 
Q 2388 3097 2138 3097 
Q 1578 3097 1268 2742 
Q 959 2388 959 1747 
Q 959 1106 1268 751 
Q 1578 397 2138 397 
Q 2388 397 2633 464 
Q 2878 531 3122 666 
L 3122 134 
Q 2881 22 2623 -34 
Q 2366 -91 2075 -91 
Q 1284 -91 818 406 
Q 353 903 353 1747 
Q 353 2603 823 3093 
Q 1294 3584 2113 3584 
Q 2378 3584 2631 3529 
Q 2884 3475 3122 3366 
z
" transform="scale(0.015625)"/>
      <path id="DejaVuSans-65" d="M 3597 1894 
L 3597 1613 
L 953 1613 
Q 991 1019 1311 708 
Q 1631 397 2203 397 
Q 2534 397 2845 478 
Q 3156 559 3463 722 
L 3463 178 
Q 3153 47 2828 -22 
Q 2503 -91 2169 -91 
Q 1331 -91 842 396 
Q 353 884 353 1716 
Q 353 2575 817 3079 
Q 1281 3584 2069 3584 
Q 2775 3584 3186 3129 
Q 3597 2675 3597 1894 
z
M 3022 2063 
Q 3016 2534 2758 2815 
Q 2500 3097 2075 3097 
Q 1594 3097 1305 2825 
Q 1016 2553 972 2059 
L 3022 2063 
z
" transform="scale(0.015625)"/>
      <path id="DejaVuSans-2c" d="M 750 794 
L 1409 794 
L 1409 256 
L 897 -744 
L 494 -744 
L 750 256 
L 750 794 
z
" transform="scale(0.015625)"/>
      <path id="DejaVuSans-29" d="M 513 4856 
L 1013 4856 
Q 1481 4119 1714 3412 
Q 1947 2706 1947 2009 
Q 1947 1309 1714 600 
Q 1481 -109 1013 -844 
L 513 -844 
Q 928 -128 1133 580 
Q 1338 1288 1338 2009 
Q 1338 2731 1133 3434 
Q 928 4138 513 4856 
z
" transform="scale(0.015625)"/>
     </defs>
     <use xlink:href="#DejaVuSans-43"/>
     <use xlink:href="#DejaVuSans-6f" x="69.824219"/>
     <use xlink:href="#DejaVuSans-6e" x="131.005859"/>
     <use xlink:href="#DejaVuSans-64" x="194.384766"/>
     <use xlink:href="#DejaVuSans-69" x="257.861328"/>
     <use xlink:href="#DejaVuSans-74" x="285.644531"/>
     <use xlink:href="#DejaVuSans-69" x="324.853516"/>
     <use xlink:href="#DejaVuSans-6f" x="352.636719"/>
     <use xlink:href="#DejaVuSans-6e" x="413.818359"/>
     <use xlink:href="#DejaVuSans-61" x="477.197266"/>
     <use xlink:href="#DejaVuSans-6c" x="538.476562"/>
     <use xlink:href="#DejaVuSans-20" x="566.259766"/>
     <use xlink:href="#DejaVuSans-68" x="598.046875"/>
     <use xlink:href="#DejaVuSans-69" x="661.425781"/>
     <use xlink:href="#DejaVuSans-73" x="689.208984"/>
     <use xlink:href="#DejaVuSans-74" x="741.308594"/>
     <use xlink:href="#DejaVuSans-6f" x="780.517578"/>
     <use xlink:href="#DejaVuSans-67" x="841.699219"/>
     <use xlink:href="#DejaVuSans-72" x="905.175781"/>
     <use xlink:href="#DejaVuSans-61" x="946.289062"/>
     <use xlink:href="#DejaVuSans-6d" x="1007.568359"/>
     <use xlink:href="#DejaVuSans-73" x="1104.980469"/>
     <use xlink:href="#DejaVuSans-20" x="1157.080078"/>
     <use xlink:href="#DejaVuSans-28" x="1188.867188"/>
     <use xlink:href="#DejaVuSans-61" x="1227.880859"/>
     <use xlink:href="#DejaVuSans-63" x="1289.160156"/>
     <use xlink:href="#DejaVuSans-65" x="1344.140625"/>
     <use xlink:href="#DejaVuSans-6e" x="1405.664062"/>
     <use xlink:href="#DejaVuSans-74" x="1469.042969"/>
     <use xlink:href="#DejaVuSans-72" x="1508.251953"/>
     <use xlink:href="#DejaVuSans-69" x="1549.365234"/>
     <use xlink:href="#DejaVuSans-63" x="1577.148438"/>
     <use xlink:href="#DejaVuSans-2c" x="1632.128906"/>
     <use xlink:href="#DejaVuSans-20" x="1663.916016"/>
     <use xlink:href="#DejaVuSans-72" x="1695.703125"/>
     <use xlink:href="#DejaVuSans-65" x="1734.566406"/>
     <use xlink:href="#DejaVuSans-61" x="1796.089844"/>
     <use xlink:href="#DejaVuSans-6c" x="1857.369141"/>
     <use xlink:href="#DejaVuSans-20" x="1885.152344"/>
     <use xlink:href="#DejaVuSans-64" x="1916.939453"/>
     <use xlink:href="#DejaVuSans-61" x="1980.416016"/>
     <use xlink:href="#DejaVuSans-74" x="2041.695312"/>
     <use xlink:href="#DejaVuSans-61" x="2080.904297"/>
     <use xlink:href="#DejaVuSans-29" x="2142.183594"/>
    </g>
   </g>
  </g>
  <g id="axes_3">
   <g id="patch_110">
    <path d="M 774.211765 256.32 
L 1036.8 256.32 
L 1036.8 34.56 
L 774.211765 34.56 
z
" style="fill: #ffffff"/>
   </g>
   <g id="patch_111">
    <path d="M 774.211765 256.32 
L 783.143337 256.32 
L 783.143337 252.780149 
L 774.211765 252.780149 
z
" clip-path="url(#p2c134e60d2)" style="fill: #1f77b4"/>
   </g>
   <g id="patch_112">
    <path d="M 783.143337 256.32 
L 792.07491 256.32 
L 792.07491 246.880399 
L 783.143337 246.880399 
z
" clip-path="url(#p2c134e60d2)" style="fill: #1f77b4"/>
   </g>
   <g id="patch_113">
    <path d="M 792.07491 256.32 
L 801.006483 256.32 
L 801.006483 220.921495 
L 792.07491 220.921495 
z
" clip-path="url(#p2c134e60d2)" style="fill: #1f77b4"/>
   </g>
   <g id="patch_114">
    <path d="M 801.006483 256.32 
L 809.938055 256.32 
L 809.938055 186.70294 
L 801.006483 186.70294 
z
" clip-path="url(#p2c134e60d2)" style="fill: #1f77b4"/>
   </g>
   <g id="patch_115">
    <path d="M 809.938055 256.32 
L 818.869628 256.32 
L 818.869628 184.343039 
L 809.938055 184.343039 
z
" clip-path="url(#p2c134e60d2)" style="fill: #1f77b4"/>
   </g>
   <g id="patch_116">
    <path d="M 818.869628 256.32 
L 827.8012 256.32 
L 827.8012 133.605182 
L 818.869628 133.605182 
z
" clip-path="url(#p2c134e60d2)" style="fill: #1f77b4"/>
   </g>
   <g id="patch_117">
    <path d="M 827.8012 256.32 
L 836.732773 256.32 
L 836.732773 98.206677 
L 827.8012 98.206677 
z
" clip-path="url(#p2c134e60d2)" style="fill: #1f77b4"/>
   </g>
   <g id="patch_118">
    <path d="M 836.732773 256.32 
L 845.664346 256.32 
L 845.664346 100.566577 
L 836.732773 100.566577 
z
" clip-path="url(#p2c134e60d2)" style="fill: #1f77b4"/>
   </g>
   <g id="patch_119">
    <path d="M 845.664346 256.32 
L 854.595918 256.32 
L 854.595918 78.147524 
L 845.664346 78.147524 
z
" clip-path="url(#p2c134e60d2)" style="fill: #1f77b4"/>
   </g>
   <g id="patch_120">
    <path d="M 854.595918 256.32 
L 863.527491 256.32 
L 863.527491 106.466328 
L 854.595918 106.466328 
z
" clip-path="url(#p2c134e60d2)" style="fill: #1f77b4"/>
   </g>
   <g id="patch_121">
    <path d="M 863.527491 256.32 
L 872.459064 256.32 
L 872.459064 104.106427 
L 863.527491 104.106427 
z
" clip-path="url(#p2c134e60d2)" style="fill: #1f77b4"/>
   </g>
   <g id="patch_122">
    <path d="M 872.459064 256.32 
L 881.390636 256.32 
L 881.390636 72.247773 
L 872.459064 72.247773 
z
" clip-path="url(#p2c134e60d2)" style="fill: #1f77b4"/>
   </g>
   <g id="patch_123">
    <path d="M 881.390636 256.32 
L 890.322209 256.32 
L 890.322209 115.905929 
L 881.390636 115.905929 
z
" clip-path="url(#p2c134e60d2)" style="fill: #1f77b4"/>
   </g>
   <g id="patch_124">
    <path d="M 890.322209 256.32 
L 899.253782 256.32 
L 899.253782 107.646278 
L 890.322209 107.646278 
z
" clip-path="url(#p2c134e60d2)" style="fill: #1f77b4"/>
   </g>
   <g id="patch_125">
    <path d="M 899.253782 256.32 
L 908.185354 256.32 
L 908.185354 121.80568 
L 899.253782 121.80568 
z
" clip-path="url(#p2c134e60d2)" style="fill: #1f77b4"/>
   </g>
   <g id="patch_126">
    <path d="M 908.185354 256.32 
L 917.116927 256.32 
L 917.116927 137.145032 
L 908.185354 137.145032 
z
" clip-path="url(#p2c134e60d2)" style="fill: #1f77b4"/>
   </g>
   <g id="patch_127">
    <path d="M 917.116927 256.32 
L 926.048499 256.32 
L 926.048499 148.944534 
L 917.116927 148.944534 
z
" clip-path="url(#p2c134e60d2)" style="fill: #1f77b4"/>
   </g>
   <g id="patch_128">
    <path d="M 926.048499 256.32 
L 934.980072 256.32 
L 934.980072 160.744036 
L 926.048499 160.744036 
z
" clip-path="url(#p2c134e60d2)" style="fill: #1f77b4"/>
   </g>
   <g id="patch_129">
    <path d="M 934.980072 256.32 
L 943.911645 256.32 
L 943.911645 177.263338 
L 934.980072 177.263338 
z
" clip-path="url(#p2c134e60d2)" style="fill: #1f77b4"/>
   </g>
   <g id="patch_130">
    <path d="M 943.911645 256.32 
L 952.843217 256.32 
L 952.843217 205.582142 
L 943.911645 205.582142 
z
" clip-path="url(#p2c134e60d2)" style="fill: #1f77b4"/>
   </g>
   <g id="patch_131">
    <path d="M 952.843217 256.32 
L 961.77479 256.32 
L 961.77479 216.201694 
L 952.843217 216.201694 
z
" clip-path="url(#p2c134e60d2)" style="fill: #1f77b4"/>
   </g>
   <g id="patch_132">
    <path d="M 961.77479 256.32 
L 970.706363 256.32 
L 970.706363 230.361096 
L 961.77479 230.361096 
z
" clip-path="url(#p2c134e60d2)" style="fill: #1f77b4"/>
   </g>
   <g id="patch_133">
    <path d="M 970.706363 256.32 
L 979.637935 256.32 
L 979.637935 229.181146 
L 970.706363 229.181146 
z
" clip-path="url(#p2c134e60d2)" style="fill: #1f77b4"/>
   </g>
   <g id="patch_134">
    <path d="M 979.637935 256.32 
L 988.569508 256.32 
L 988.569508 240.980648 
L 979.637935 240.980648 
z
" clip-path="url(#p2c134e60d2)" style="fill: #1f77b4"/>
   </g>
   <g id="patch_135">
    <path d="M 988.569508 256.32 
L 997.50108 256.32 
L 997.50108 246.880399 
L 988.569508 246.880399 
z
" clip-path="url(#p2c134e60d2)" style="fill: #1f77b4"/>
   </g>
   <g id="patch_136">
    <path d="M 997.50108 256.32 
L 1006.432653 256.32 
L 1006.432653 252.780149 
L 997.50108 252.780149 
z
" clip-path="url(#p2c134e60d2)" style="fill: #1f77b4"/>
   </g>
   <g id="patch_137">
    <path d="M 1006.432653 256.32 
L 1015.364226 256.32 
L 1015.364226 253.9601 
L 1006.432653 253.9601 
z
" clip-path="url(#p2c134e60d2)" style="fill: #1f77b4"/>
   </g>
   <g id="patch_138">
    <path d="M 1015.364226 256.32 
L 1024.295798 256.32 
L 1024.295798 251.600199 
L 1015.364226 251.600199 
z
" clip-path="url(#p2c134e60d2)" style="fill: #1f77b4"/>
   </g>
   <g id="patch_139">
    <path d="M 1024.295798 256.32 
L 1033.227371 256.32 
L 1033.227371 255.14005 
L 1024.295798 255.14005 
z
" clip-path="url(#p2c134e60d2)" style="fill: #1f77b4"/>
   </g>
   <g id="patch_140">
    <path d="M 1033.227371 256.32 
L 1042.158944 256.32 
L 1042.158944 256.32 
L 1033.227371 256.32 
z
" clip-path="url(#p2c134e60d2)" style="fill: #1f77b4"/>
   </g>
   <g id="patch_141">
    <path d="M 1042.158944 256.32 
L 1051.090516 256.32 
L 1051.090516 255.14005 
L 1042.158944 255.14005 
z
" clip-path="url(#p2c134e60d2)" style="fill: #1f77b4"/>
   </g>
   <g id="patch_142">
    <path d="M 1051.090516 256.32 
L 1060.022089 256.32 
L 1060.022089 255.14005 
L 1051.090516 255.14005 
z
" clip-path="url(#p2c134e60d2)" style="fill: #1f77b4"/>
   </g>
   <g id="patch_143">
    <path d="M 1060.022089 256.32 
L 1068.953661 256.32 
L 1068.953661 256.32 
L 1060.022089 256.32 
z
" clip-path="url(#p2c134e60d2)" style="fill: #1f77b4"/>
   </g>
   <g id="patch_144">
    <path d="M 1068.953661 256.32 
L 1077.885234 256.32 
L 1077.885234 256.32 
L 1068.953661 256.32 
z
" clip-path="url(#p2c134e60d2)" style="fill: #1f77b4"/>
   </g>
   <g id="patch_145">
    <path d="M 1077.885234 256.32 
L 1086.816807 256.32 
L 1086.816807 256.32 
L 1077.885234 256.32 
z
" clip-path="url(#p2c134e60d2)" style="fill: #1f77b4"/>
   </g>
   <g id="patch_146">
    <path d="M 1086.816807 256.32 
L 1095.748379 256.32 
L 1095.748379 256.32 
L 1086.816807 256.32 
z
" clip-path="url(#p2c134e60d2)" style="fill: #1f77b4"/>
   </g>
   <g id="patch_147">
    <path d="M 1095.748379 256.32 
L 1104.679952 256.32 
L 1104.679952 256.32 
L 1095.748379 256.32 
z
" clip-path="url(#p2c134e60d2)" style="fill: #1f77b4"/>
   </g>
   <g id="patch_148">
    <path d="M 1104.679952 256.32 
L 1113.611525 256.32 
L 1113.611525 256.32 
L 1104.679952 256.32 
z
" clip-path="url(#p2c134e60d2)" style="fill: #1f77b4"/>
   </g>
   <g id="patch_149">
    <path d="M 1113.611525 256.32 
L 1122.543097 256.32 
L 1122.543097 256.32 
L 1113.611525 256.32 
z
" clip-path="url(#p2c134e60d2)" style="fill: #1f77b4"/>
   </g>
   <g id="patch_150">
    <path d="M 1122.543097 256.32 
L 1131.47467 256.32 
L 1131.47467 256.32 
L 1122.543097 256.32 
z
" clip-path="url(#p2c134e60d2)" style="fill: #1f77b4"/>
   </g>
   <g id="patch_151">
    <path d="M 1131.47467 256.32 
L 1140.406242 256.32 
L 1140.406242 256.32 
L 1131.47467 256.32 
z
" clip-path="url(#p2c134e60d2)" style="fill: #1f77b4"/>
   </g>
   <g id="patch_152">
    <path d="M 1140.406242 256.32 
L 1149.337815 256.32 
L 1149.337815 256.32 
L 1140.406242 256.32 
z
" clip-path="url(#p2c134e60d2)" style="fill: #1f77b4"/>
   </g>
   <g id="patch_153">
    <path d="M 1149.337815 256.32 
L 1158.269388 256.32 
L 1158.269388 256.32 
L 1149.337815 256.32 
z
" clip-path="url(#p2c134e60d2)" style="fill: #1f77b4"/>
   </g>
   <g id="patch_154">
    <path d="M 1158.269388 256.32 
L 1167.20096 256.32 
L 1167.20096 256.32 
L 1158.269388 256.32 
z
" clip-path="url(#p2c134e60d2)" style="fill: #1f77b4"/>
   </g>
   <g id="patch_155">
    <path d="M 1167.20096 256.32 
L 1176.132533 256.32 
L 1176.132533 256.32 
L 1167.20096 256.32 
z
" clip-path="url(#p2c134e60d2)" style="fill: #1f77b4"/>
   </g>
   <g id="patch_156">
    <path d="M 1176.132533 256.32 
L 1185.064106 256.32 
L 1185.064106 256.32 
L 1176.132533 256.32 
z
" clip-path="url(#p2c134e60d2)" style="fill: #1f77b4"/>
   </g>
   <g id="patch_157">
    <path d="M 1185.064106 256.32 
L 1193.995678 256.32 
L 1193.995678 256.32 
L 1185.064106 256.32 
z
" clip-path="url(#p2c134e60d2)" style="fill: #1f77b4"/>
   </g>
   <g id="patch_158">
    <path d="M 1193.995678 256.32 
L 1202.927251 256.32 
L 1202.927251 256.32 
L 1193.995678 256.32 
z
" clip-path="url(#p2c134e60d2)" style="fill: #1f77b4"/>
   </g>
   <g id="patch_159">
    <path d="M 1202.927251 256.32 
L 1211.858824 256.32 
L 1211.858824 256.32 
L 1202.927251 256.32 
z
" clip-path="url(#p2c134e60d2)" style="fill: #1f77b4"/>
   </g>
   <g id="matplotlib.axis_5">
    <g id="xtick_15">
     <g id="line2d_35">
      <g>
       <use xlink:href="#m7490962aff" x="774.211765" y="256.32" style="stroke: #000000; stroke-width: 0.8"/>
      </g>
     </g>
     <g id="text_32">
      <!-- 0.0 -->
      <g transform="translate(764.66989 272.438125) scale(0.12 -0.12)">
       <use xlink:href="#DejaVuSans-30"/>
       <use xlink:href="#DejaVuSans-2e" x="63.623047"/>
       <use xlink:href="#DejaVuSans-30" x="95.410156"/>
      </g>
     </g>
    </g>
    <g id="xtick_16">
     <g id="line2d_36">
      <g>
       <use xlink:href="#m7490962aff" x="817.976471" y="256.32" style="stroke: #000000; stroke-width: 0.8"/>
      </g>
     </g>
     <g id="text_33">
      <!-- 0.5 -->
      <g transform="translate(808.434596 272.438125) scale(0.12 -0.12)">
       <use xlink:href="#DejaVuSans-30"/>
       <use xlink:href="#DejaVuSans-2e" x="63.623047"/>
       <use xlink:href="#DejaVuSans-35" x="95.410156"/>
      </g>
     </g>
    </g>
    <g id="xtick_17">
     <g id="line2d_37">
      <g>
       <use xlink:href="#m7490962aff" x="861.741176" y="256.32" style="stroke: #000000; stroke-width: 0.8"/>
      </g>
     </g>
     <g id="text_34">
      <!-- 1.0 -->
      <g transform="translate(852.199301 272.438125) scale(0.12 -0.12)">
       <use xlink:href="#DejaVuSans-31"/>
       <use xlink:href="#DejaVuSans-2e" x="63.623047"/>
       <use xlink:href="#DejaVuSans-30" x="95.410156"/>
      </g>
     </g>
    </g>
    <g id="xtick_18">
     <g id="line2d_38">
      <g>
       <use xlink:href="#m7490962aff" x="905.505882" y="256.32" style="stroke: #000000; stroke-width: 0.8"/>
      </g>
     </g>
     <g id="text_35">
      <!-- 1.5 -->
      <g transform="translate(895.964007 272.438125) scale(0.12 -0.12)">
       <use xlink:href="#DejaVuSans-31"/>
       <use xlink:href="#DejaVuSans-2e" x="63.623047"/>
       <use xlink:href="#DejaVuSans-35" x="95.410156"/>
      </g>
     </g>
    </g>
    <g id="xtick_19">
     <g id="line2d_39">
      <g>
       <use xlink:href="#m7490962aff" x="949.270588" y="256.32" style="stroke: #000000; stroke-width: 0.8"/>
      </g>
     </g>
     <g id="text_36">
      <!-- 2.0 -->
      <g transform="translate(939.728713 272.438125) scale(0.12 -0.12)">
       <use xlink:href="#DejaVuSans-32"/>
       <use xlink:href="#DejaVuSans-2e" x="63.623047"/>
       <use xlink:href="#DejaVuSans-30" x="95.410156"/>
      </g>
     </g>
    </g>
    <g id="xtick_20">
     <g id="line2d_40">
      <g>
       <use xlink:href="#m7490962aff" x="993.035294" y="256.32" style="stroke: #000000; stroke-width: 0.8"/>
      </g>
     </g>
     <g id="text_37">
      <!-- 2.5 -->
      <g transform="translate(983.493419 272.438125) scale(0.12 -0.12)">
       <use xlink:href="#DejaVuSans-32"/>
       <use xlink:href="#DejaVuSans-2e" x="63.623047"/>
       <use xlink:href="#DejaVuSans-35" x="95.410156"/>
      </g>
     </g>
    </g>
    <g id="xtick_21">
     <g id="line2d_41">
      <g>
       <use xlink:href="#m7490962aff" x="1036.8" y="256.32" style="stroke: #000000; stroke-width: 0.8"/>
      </g>
     </g>
     <g id="text_38">
      <!-- 3.0 -->
      <g transform="translate(1027.258125 272.438125) scale(0.12 -0.12)">
       <use xlink:href="#DejaVuSans-33"/>
       <use xlink:href="#DejaVuSans-2e" x="63.623047"/>
       <use xlink:href="#DejaVuSans-30" x="95.410156"/>
      </g>
     </g>
    </g>
   </g>
   <g id="matplotlib.axis_6">
    <g id="ytick_15">
     <g id="line2d_42">
      <g>
       <use xlink:href="#m62526cefdd" x="774.211765" y="256.32" style="stroke: #000000; stroke-width: 0.8"/>
      </g>
     </g>
     <g id="text_39">
      <!-- 0.0 -->
      <g transform="translate(748.128015 260.879063) scale(0.12 -0.12)">
       <use xlink:href="#DejaVuSans-30"/>
       <use xlink:href="#DejaVuSans-2e" x="63.623047"/>
       <use xlink:href="#DejaVuSans-30" x="95.410156"/>
      </g>
     </g>
    </g>
    <g id="ytick_16">
     <g id="line2d_43">
      <g>
       <use xlink:href="#m62526cefdd" x="774.211765" y="209.41096" style="stroke: #000000; stroke-width: 0.8"/>
      </g>
     </g>
     <g id="text_40">
      <!-- 0.2 -->
      <g transform="translate(748.128015 213.970023) scale(0.12 -0.12)">
       <use xlink:href="#DejaVuSans-30"/>
       <use xlink:href="#DejaVuSans-2e" x="63.623047"/>
       <use xlink:href="#DejaVuSans-32" x="95.410156"/>
      </g>
     </g>
    </g>
    <g id="ytick_17">
     <g id="line2d_44">
      <g>
       <use xlink:href="#m62526cefdd" x="774.211765" y="162.501921" style="stroke: #000000; stroke-width: 0.8"/>
      </g>
     </g>
     <g id="text_41">
      <!-- 0.4 -->
      <g transform="translate(748.128015 167.060983) scale(0.12 -0.12)">
       <use xlink:href="#DejaVuSans-30"/>
       <use xlink:href="#DejaVuSans-2e" x="63.623047"/>
       <use xlink:href="#DejaVuSans-34" x="95.410156"/>
      </g>
     </g>
    </g>
    <g id="ytick_18">
     <g id="line2d_45">
      <g>
       <use xlink:href="#m62526cefdd" x="774.211765" y="115.592881" style="stroke: #000000; stroke-width: 0.8"/>
      </g>
     </g>
     <g id="text_42">
      <!-- 0.6 -->
      <g transform="translate(748.128015 120.151944) scale(0.12 -0.12)">
       <use xlink:href="#DejaVuSans-30"/>
       <use xlink:href="#DejaVuSans-2e" x="63.623047"/>
       <use xlink:href="#DejaVuSans-36" x="95.410156"/>
      </g>
     </g>
    </g>
    <g id="ytick_19">
     <g id="line2d_46">
      <g>
       <use xlink:href="#m62526cefdd" x="774.211765" y="68.683842" style="stroke: #000000; stroke-width: 0.8"/>
      </g>
     </g>
     <g id="text_43">
      <!-- 0.8 -->
      <g transform="translate(748.128015 73.242904) scale(0.12 -0.12)">
       <use xlink:href="#DejaVuSans-30"/>
       <use xlink:href="#DejaVuSans-2e" x="63.623047"/>
       <use xlink:href="#DejaVuSans-38" x="95.410156"/>
      </g>
     </g>
    </g>
   </g>
   <g id="line2d_47">
    <path d="M 774.211765 256.32 
L 776.864171 252.644951 
L 779.516578 248.940883 
L 782.168984 245.179284 
L 784.82139 241.332659 
L 787.473797 237.375019 
L 790.126203 233.282361 
L 792.77861 229.033126 
L 795.431016 224.608634 
L 798.083422 219.993476 
L 800.735829 215.175885 
L 803.388235 210.148049 
L 806.040642 204.906387 
L 808.693048 199.451762 
L 811.345455 193.789638 
L 813.997861 187.930181 
L 816.650267 181.888274 
L 819.302674 175.683482 
L 821.95508 169.339928 
L 824.607487 162.886102 
L 827.259893 156.354594 
L 829.912299 149.781751 
L 832.564706 143.20727 
L 835.217112 136.673717 
L 837.869519 130.225996 
L 840.521925 123.910751 
L 843.174332 117.775744 
L 845.826738 111.869177 
L 848.479144 106.239009 
L 851.131551 100.932253 
L 853.783957 95.994278 
L 856.436364 91.468125 
L 859.08877 87.393847 
L 861.741176 83.807898 
L 864.393583 80.742567 
L 867.045989 78.225476 
L 869.698396 76.279157 
L 872.350802 74.920703 
L 875.003209 74.161513 
L 877.655615 74.007127 
L 880.308021 74.457161 
L 882.960428 75.505334 
L 885.612834 77.139594 
L 888.265241 79.342333 
L 890.917647 82.090689 
L 893.570053 85.35693 
L 896.22246 89.108907 
L 898.874866 93.310559 
L 901.527273 97.922486 
L 904.179679 102.902536 
L 906.832086 108.206435 
L 909.484492 113.788418 
L 912.136898 119.601866 
L 914.789305 125.599927 
L 917.441711 131.736114 
L 920.094118 137.96487 
L 922.746524 144.242095 
L 925.39893 150.525615 
L 928.051337 156.775597 
L 930.703743 162.954913 
L 933.35615 169.029428 
L 936.008556 174.968227 
L 938.660963 180.743782 
L 941.313369 186.332052 
L 943.965775 191.712517 
L 946.618182 196.868169 
L 949.270588 201.785435 
L 951.922995 206.454063 
L 954.575401 210.866968 
L 957.227807 215.020036 
L 959.880214 218.911906 
L 962.53262 222.543731 
L 965.185027 225.918918 
L 967.837433 229.04287 
L 970.48984 231.922711 
L 973.142246 234.567024 
L 975.794652 236.98559 
L 978.447059 239.189141 
L 981.099465 241.189119 
L 983.751872 242.997463 
L 986.404278 244.626403 
L 989.056684 246.088283 
L 991.709091 247.395398 
L 994.361497 248.559854 
L 997.013904 249.593452 
L 999.66631 250.507586 
L 1002.318717 251.313162 
L 1004.971123 252.020541 
L 1007.623529 252.639491 
L 1010.275936 253.179155 
L 1012.928342 253.648039 
L 1015.580749 254.054004 
L 1018.233155 254.40427 
L 1020.885561 254.705433 
L 1023.537968 254.963484 
L 1026.190374 255.183835 
L 1028.842781 255.37135 
L 1031.495187 255.530379 
L 1034.147594 255.66479 
L 1036.8 255.778009 
" clip-path="url(#p2c134e60d2)" style="fill: none; stroke: #ff0000; stroke-width: 1.5; stroke-linecap: square"/>
   </g>
   <g id="line2d_48">
    <path d="M 774.211765 256.32 
L 776.864171 242.118187 
L 779.516578 227.994513 
L 782.168984 214.026401 
L 784.82139 200.289851 
L 787.473797 186.858753 
L 790.126203 173.80422 
L 792.77861 161.193967 
L 795.431016 149.091727 
L 798.083422 137.556711 
L 800.735829 126.643141 
L 803.388235 116.399824 
L 806.040642 106.869808 
L 808.693048 98.0901 
L 811.345455 90.091454 
L 813.997861 82.898238 
L 816.650267 76.528365 
L 819.302674 70.993304 
L 821.95508 66.298157 
L 824.607487 62.441801 
L 827.259893 59.417094 
L 829.912299 57.211144 
L 832.564706 55.805625 
L 835.217112 55.177143 
L 837.869519 55.297641 
L 840.521925 56.134842 
L 843.174332 57.652716 
L 845.826738 59.811967 
L 848.479144 62.570536 
L 851.131551 65.884106 
L 853.783957 69.706612 
L 856.436364 73.990742 
L 859.08877 78.688422 
L 861.741176 83.751287 
L 864.393583 89.131132 
L 867.045989 94.780325 
L 869.698396 100.652204 
L 872.350802 106.701425 
L 875.003209 112.884286 
L 877.655615 119.159008 
L 880.308021 125.485973 
L 882.960428 131.827933 
L 885.612834 138.150169 
L 888.265241 144.42062 
L 890.917647 150.609969 
L 893.570053 156.691697 
L 896.22246 162.642101 
L 898.874866 168.440281 
L 901.527273 174.068102 
L 904.179679 179.510126 
L 906.832086 184.753519 
L 909.484492 189.787948 
L 912.136898 194.605451 
L 914.789305 199.200294 
L 917.441711 203.568826 
L 920.094118 207.709316 
L 922.746524 211.621789 
L 925.39893 215.30786 
L 928.051337 218.770563 
L 930.703743 222.014187 
L 933.35615 225.044115 
L 936.008556 227.86666 
L 938.660963 230.48892 
L 941.313369 232.91863 
L 943.965775 235.164029 
L 946.618182 237.233733 
L 949.270588 239.136619 
L 951.922995 240.88172 
L 954.575401 242.478127 
L 957.227807 243.934907 
L 959.880214 245.261025 
L 962.53262 246.465282 
L 965.185027 247.556254 
L 967.837433 248.54225 
L 970.48984 249.431271 
L 973.142246 250.230982 
L 975.794652 250.948685 
L 978.447059 251.591307 
L 981.099465 252.165384 
L 983.751872 252.677064 
L 986.404278 253.132097 
L 989.056684 253.535847 
L 991.709091 253.893293 
L 994.361497 254.209043 
L 997.013904 254.487345 
L 999.66631 254.7321 
L 1002.318717 254.946883 
L 1004.971123 255.134953 
L 1007.623529 255.299275 
L 1010.275936 255.442538 
L 1012.928342 255.567172 
L 1015.580749 255.675369 
L 1018.233155 255.769094 
L 1020.885561 255.850112 
L 1023.537968 255.919997 
L 1026.190374 255.980151 
L 1028.842781 256.031821 
L 1031.495187 256.07611 
L 1034.147594 256.113993 
L 1036.8 256.146329 
" clip-path="url(#p2c134e60d2)" style="fill: none; stroke: #0000ff; stroke-width: 1.5; stroke-linecap: square"/>
   </g>
   <g id="line2d_49">
    <path d="M 920.607973 256.32 
L 920.607973 45.12 
" clip-path="url(#p2c134e60d2)" style="fill: none; stroke: #000000; stroke-width: 1.5; stroke-linecap: square"/>
   </g>
   <g id="patch_160">
    <path d="M 774.211765 256.32 
L 774.211765 34.56 
" style="fill: none; stroke: #000000; stroke-width: 0.8; stroke-linejoin: miter; stroke-linecap: square"/>
   </g>
   <g id="patch_161">
    <path d="M 1036.8 256.32 
L 1036.8 34.56 
" style="fill: none; stroke: #000000; stroke-width: 0.8; stroke-linejoin: miter; stroke-linecap: square"/>
   </g>
   <g id="patch_162">
    <path d="M 774.211765 256.32 
L 1036.8 256.32 
" style="fill: none; stroke: #000000; stroke-width: 0.8; stroke-linejoin: miter; stroke-linecap: square"/>
   </g>
   <g id="patch_163">
    <path d="M 774.211765 34.56 
L 1036.8 34.56 
" style="fill: none; stroke: #000000; stroke-width: 0.8; stroke-linejoin: miter; stroke-linecap: square"/>
   </g>
   <g id="text_44">
    <!-- &lt;E1&gt; = 1.67 -->
    <g transform="translate(958.023529 66.24) scale(0.1 -0.1)">
     <defs>
      <path id="DejaVuSans-37" d="M 525 4666 
L 3525 4666 
L 3525 4397 
L 1831 0 
L 1172 0 
L 2766 4134 
L 525 4134 
L 525 4666 
z
" transform="scale(0.015625)"/>
     </defs>
     <use xlink:href="#DejaVuSans-3c"/>
     <use xlink:href="#DejaVuSans-45" x="83.789062"/>
     <use xlink:href="#DejaVuSans-31" x="146.972656"/>
     <use xlink:href="#DejaVuSans-3e" x="210.595703"/>
     <use xlink:href="#DejaVuSans-20" x="294.384766"/>
     <use xlink:href="#DejaVuSans-3d" x="326.171875"/>
     <use xlink:href="#DejaVuSans-20" x="409.960938"/>
     <use xlink:href="#DejaVuSans-31" x="441.748047"/>
     <use xlink:href="#DejaVuSans-2e" x="505.371094"/>
     <use xlink:href="#DejaVuSans-36" x="537.158203"/>
     <use xlink:href="#DejaVuSans-37" x="600.78125"/>
    </g>
   </g>
  </g>
 </g>
 <defs>
  <clipPath id="p38ee4f3f7d">
   <rect x="144" y="34.56" width="262.588235" height="221.76"/>
  </clipPath>
  <clipPath id="p168fc21f8d">
   <rect x="459.105882" y="34.56" width="262.588235" height="221.76"/>
  </clipPath>
  <clipPath id="p2c134e60d2">
   <rect x="774.211765" y="34.56" width="262.588235" height="221.76"/>
  </clipPath>
 </defs>
</svg>
