<?xml version="1.0" encoding="utf-8" standalone="no"?>
<!DOCTYPE svg PUBLIC "-//W3C//DTD SVG 1.1//EN"
  "http://www.w3.org/Graphics/SVG/1.1/DTD/svg11.dtd">
<svg xmlns:xlink="http://www.w3.org/1999/xlink" width="1152pt" height="288pt" viewBox="0 0 1152 288" xmlns="http://www.w3.org/2000/svg" version="1.1">
 <metadata>
  <rdf:RDF xmlns:dc="http://purl.org/dc/elements/1.1/" xmlns:cc="http://creativecommons.org/ns#" xmlns:rdf="http://www.w3.org/1999/02/22-rdf-syntax-ns#">
   <cc:Work>
    <dc:type rdf:resource="http://purl.org/dc/dcmitype/StillImage"/>
    <dc:date>2023-11-04T23:31:28.589996</dc:date>
    <dc:format>image/svg+xml</dc:format>
    <dc:creator>
     <cc:Agent>
      <dc:title>Matplotlib v3.8.0, https://matplotlib.org/</dc:title>
     </cc:Agent>
    </dc:creator>
   </cc:Work>
  </rdf:RDF>
 </metadata>
 <defs>
  <style type="text/css">*{stroke-linejoin: round; stroke-linecap: butt}</style>
 </defs>
 <g id="figure_1">
  <g id="patch_1">
   <path d="M 0 288 
L 1152 288 
L 1152 0 
L 0 0 
z
" style="fill: #ffffff"/>
  </g>
  <g id="axes_1">
   <g id="patch_2">
    <path d="M 144 256.32 
L 406.588235 256.32 
L 406.588235 34.56 
L 144 34.56 
z
" style="fill: #ffffff"/>
   </g>
   <g id="patch_3">
    <path d="M 144 256.32 
L 152.931573 256.32 
L 152.931573 227.194431 
L 144 227.194431 
z
" clip-path="url(#pa475f2587a)" style="fill: #1f77b4"/>
   </g>
   <g id="patch_4">
    <path d="M 152.931573 256.32 
L 161.863145 256.32 
L 161.863145 146.188941 
L 152.931573 146.188941 
z
" clip-path="url(#pa475f2587a)" style="fill: #1f77b4"/>
   </g>
   <g id="patch_5">
    <path d="M 161.863145 256.32 
L 170.794718 256.32 
L 170.794718 127.075286 
L 161.863145 127.075286 
z
" clip-path="url(#pa475f2587a)" style="fill: #1f77b4"/>
   </g>
   <g id="patch_6">
    <path d="M 170.794718 256.32 
L 179.726291 256.32 
L 179.726291 98.85989 
L 170.794718 98.85989 
z
" clip-path="url(#pa475f2587a)" style="fill: #1f77b4"/>
   </g>
   <g id="patch_7">
    <path d="M 179.726291 256.32 
L 188.657863 256.32 
L 188.657863 91.578498 
L 179.726291 91.578498 
z
" clip-path="url(#pa475f2587a)" style="fill: #1f77b4"/>
   </g>
   <g id="patch_8">
    <path d="M 188.657863 256.32 
L 197.589436 256.32 
L 197.589436 128.895634 
L 188.657863 128.895634 
z
" clip-path="url(#pa475f2587a)" style="fill: #1f77b4"/>
   </g>
   <g id="patch_9">
    <path d="M 197.589436 256.32 
L 206.521008 256.32 
L 206.521008 136.177026 
L 197.589436 136.177026 
z
" clip-path="url(#pa475f2587a)" style="fill: #1f77b4"/>
   </g>
   <g id="patch_10">
    <path d="M 206.521008 256.32 
L 215.452581 256.32 
L 215.452581 173.494162 
L 206.521008 173.494162 
z
" clip-path="url(#pa475f2587a)" style="fill: #1f77b4"/>
   </g>
   <g id="patch_11">
    <path d="M 215.452581 256.32 
L 224.384154 256.32 
L 224.384154 204.440079 
L 215.452581 204.440079 
z
" clip-path="url(#pa475f2587a)" style="fill: #1f77b4"/>
   </g>
   <g id="patch_12">
    <path d="M 224.384154 256.32 
L 233.315726 256.32 
L 233.315726 206.260428 
L 224.384154 206.260428 
z
" clip-path="url(#pa475f2587a)" style="fill: #1f77b4"/>
   </g>
   <g id="patch_13">
    <path d="M 233.315726 256.32 
L 242.247299 256.32 
L 242.247299 232.655475 
L 233.315726 232.655475 
z
" clip-path="url(#pa475f2587a)" style="fill: #1f77b4"/>
   </g>
   <g id="patch_14">
    <path d="M 242.247299 256.32 
L 251.178872 256.32 
L 251.178872 232.655475 
L 242.247299 232.655475 
z
" clip-path="url(#pa475f2587a)" style="fill: #1f77b4"/>
   </g>
   <g id="patch_15">
    <path d="M 251.178872 256.32 
L 260.110444 256.32 
L 260.110444 240.847041 
L 251.178872 240.847041 
z
" clip-path="url(#pa475f2587a)" style="fill: #1f77b4"/>
   </g>
   <g id="patch_16">
    <path d="M 260.110444 256.32 
L 269.042017 256.32 
L 269.042017 249.038608 
L 260.110444 249.038608 
z
" clip-path="url(#pa475f2587a)" style="fill: #1f77b4"/>
   </g>
   <g id="patch_17">
    <path d="M 269.042017 256.32 
L 277.973589 256.32 
L 277.973589 251.76913 
L 269.042017 251.76913 
z
" clip-path="url(#pa475f2587a)" style="fill: #1f77b4"/>
   </g>
   <g id="patch_18">
    <path d="M 277.973589 256.32 
L 286.905162 256.32 
L 286.905162 252.679304 
L 277.973589 252.679304 
z
" clip-path="url(#pa475f2587a)" style="fill: #1f77b4"/>
   </g>
   <g id="patch_19">
    <path d="M 286.905162 256.32 
L 295.836735 256.32 
L 295.836735 255.409826 
L 286.905162 255.409826 
z
" clip-path="url(#pa475f2587a)" style="fill: #1f77b4"/>
   </g>
   <g id="patch_20">
    <path d="M 295.836735 256.32 
L 304.768307 256.32 
L 304.768307 255.409826 
L 295.836735 255.409826 
z
" clip-path="url(#pa475f2587a)" style="fill: #1f77b4"/>
   </g>
   <g id="patch_21">
    <path d="M 304.768307 256.32 
L 313.69988 256.32 
L 313.69988 256.32 
L 304.768307 256.32 
z
" clip-path="url(#pa475f2587a)" style="fill: #1f77b4"/>
   </g>
   <g id="patch_22">
    <path d="M 313.69988 256.32 
L 322.631453 256.32 
L 322.631453 256.32 
L 313.69988 256.32 
z
" clip-path="url(#pa475f2587a)" style="fill: #1f77b4"/>
   </g>
   <g id="patch_23">
    <path d="M 322.631453 256.32 
L 331.563025 256.32 
L 331.563025 256.32 
L 322.631453 256.32 
z
" clip-path="url(#pa475f2587a)" style="fill: #1f77b4"/>
   </g>
   <g id="patch_24">
    <path d="M 331.563025 256.32 
L 340.494598 256.32 
L 340.494598 256.32 
L 331.563025 256.32 
z
" clip-path="url(#pa475f2587a)" style="fill: #1f77b4"/>
   </g>
   <g id="patch_25">
    <path d="M 340.494598 256.32 
L 349.42617 256.32 
L 349.42617 255.409826 
L 340.494598 255.409826 
z
" clip-path="url(#pa475f2587a)" style="fill: #1f77b4"/>
   </g>
   <g id="patch_26">
    <path d="M 349.42617 256.32 
L 358.357743 256.32 
L 358.357743 256.32 
L 349.42617 256.32 
z
" clip-path="url(#pa475f2587a)" style="fill: #1f77b4"/>
   </g>
   <g id="patch_27">
    <path d="M 358.357743 256.32 
L 367.289316 256.32 
L 367.289316 256.32 
L 358.357743 256.32 
z
" clip-path="url(#pa475f2587a)" style="fill: #1f77b4"/>
   </g>
   <g id="patch_28">
    <path d="M 367.289316 256.32 
L 376.220888 256.32 
L 376.220888 256.32 
L 367.289316 256.32 
z
" clip-path="url(#pa475f2587a)" style="fill: #1f77b4"/>
   </g>
   <g id="patch_29">
    <path d="M 376.220888 256.32 
L 385.152461 256.32 
L 385.152461 256.32 
L 376.220888 256.32 
z
" clip-path="url(#pa475f2587a)" style="fill: #1f77b4"/>
   </g>
   <g id="patch_30">
    <path d="M 385.152461 256.32 
L 394.084034 256.32 
L 394.084034 256.32 
L 385.152461 256.32 
z
" clip-path="url(#pa475f2587a)" style="fill: #1f77b4"/>
   </g>
   <g id="patch_31">
    <path d="M 394.084034 256.32 
L 403.015606 256.32 
L 403.015606 256.32 
L 394.084034 256.32 
z
" clip-path="url(#pa475f2587a)" style="fill: #1f77b4"/>
   </g>
   <g id="patch_32">
    <path d="M 403.015606 256.32 
L 411.947179 256.32 
L 411.947179 256.32 
L 403.015606 256.32 
z
" clip-path="url(#pa475f2587a)" style="fill: #1f77b4"/>
   </g>
   <g id="patch_33">
    <path d="M 411.947179 256.32 
L 420.878752 256.32 
L 420.878752 256.32 
L 411.947179 256.32 
z
" clip-path="url(#pa475f2587a)" style="fill: #1f77b4"/>
   </g>
   <g id="patch_34">
    <path d="M 420.878752 256.32 
L 429.810324 256.32 
L 429.810324 256.32 
L 420.878752 256.32 
z
" clip-path="url(#pa475f2587a)" style="fill: #1f77b4"/>
   </g>
   <g id="patch_35">
    <path d="M 429.810324 256.32 
L 438.741897 256.32 
L 438.741897 256.32 
L 429.810324 256.32 
z
" clip-path="url(#pa475f2587a)" style="fill: #1f77b4"/>
   </g>
   <g id="patch_36">
    <path d="M 438.741897 256.32 
L 447.673469 256.32 
L 447.673469 256.32 
L 438.741897 256.32 
z
" clip-path="url(#pa475f2587a)" style="fill: #1f77b4"/>
   </g>
   <g id="patch_37">
    <path d="M 447.673469 256.32 
L 456.605042 256.32 
L 456.605042 256.32 
L 447.673469 256.32 
z
" clip-path="url(#pa475f2587a)" style="fill: #1f77b4"/>
   </g>
   <g id="patch_38">
    <path d="M 456.605042 256.32 
L 465.536615 256.32 
L 465.536615 256.32 
L 456.605042 256.32 
z
" clip-path="url(#pa475f2587a)" style="fill: #1f77b4"/>
   </g>
   <g id="patch_39">
    <path d="M 465.536615 256.32 
L 474.468187 256.32 
L 474.468187 256.32 
L 465.536615 256.32 
z
" clip-path="url(#pa475f2587a)" style="fill: #1f77b4"/>
   </g>
   <g id="patch_40">
    <path d="M 474.468187 256.32 
L 483.39976 256.32 
L 483.39976 256.32 
L 474.468187 256.32 
z
" clip-path="url(#pa475f2587a)" style="fill: #1f77b4"/>
   </g>
   <g id="patch_41">
    <path d="M 483.39976 256.32 
L 492.331333 256.32 
L 492.331333 256.32 
L 483.39976 256.32 
z
" clip-path="url(#pa475f2587a)" style="fill: #1f77b4"/>
   </g>
   <g id="patch_42">
    <path d="M 492.331333 256.32 
L 501.262905 256.32 
L 501.262905 256.32 
L 492.331333 256.32 
z
" clip-path="url(#pa475f2587a)" style="fill: #1f77b4"/>
   </g>
   <g id="patch_43">
    <path d="M 501.262905 256.32 
L 510.194478 256.32 
L 510.194478 256.32 
L 501.262905 256.32 
z
" clip-path="url(#pa475f2587a)" style="fill: #1f77b4"/>
   </g>
   <g id="patch_44">
    <path d="M 510.194478 256.32 
L 519.12605 256.32 
L 519.12605 256.32 
L 510.194478 256.32 
z
" clip-path="url(#pa475f2587a)" style="fill: #1f77b4"/>
   </g>
   <g id="patch_45">
    <path d="M 519.12605 256.32 
L 528.057623 256.32 
L 528.057623 256.32 
L 519.12605 256.32 
z
" clip-path="url(#pa475f2587a)" style="fill: #1f77b4"/>
   </g>
   <g id="patch_46">
    <path d="M 528.057623 256.32 
L 536.989196 256.32 
L 536.989196 256.32 
L 528.057623 256.32 
z
" clip-path="url(#pa475f2587a)" style="fill: #1f77b4"/>
   </g>
   <g id="patch_47">
    <path d="M 536.989196 256.32 
L 545.920768 256.32 
L 545.920768 256.32 
L 536.989196 256.32 
z
" clip-path="url(#pa475f2587a)" style="fill: #1f77b4"/>
   </g>
   <g id="patch_48">
    <path d="M 545.920768 256.32 
L 554.852341 256.32 
L 554.852341 256.32 
L 545.920768 256.32 
z
" clip-path="url(#pa475f2587a)" style="fill: #1f77b4"/>
   </g>
   <g id="patch_49">
    <path d="M 554.852341 256.32 
L 563.783914 256.32 
L 563.783914 256.32 
L 554.852341 256.32 
z
" clip-path="url(#pa475f2587a)" style="fill: #1f77b4"/>
   </g>
   <g id="patch_50">
    <path d="M 563.783914 256.32 
L 572.715486 256.32 
L 572.715486 256.32 
L 563.783914 256.32 
z
" clip-path="url(#pa475f2587a)" style="fill: #1f77b4"/>
   </g>
   <g id="patch_51">
    <path d="M 572.715486 256.32 
L 581.647059 256.32 
L 581.647059 256.32 
L 572.715486 256.32 
z
" clip-path="url(#pa475f2587a)" style="fill: #1f77b4"/>
   </g>
   <g id="matplotlib.axis_1">
    <g id="xtick_1">
     <g id="line2d_1">
      <defs>
       <path id="mbbee1e1c23" d="M 0 0 
L 0 3.5 
" style="stroke: #000000; stroke-width: 0.8"/>
      </defs>
      <g>
       <use xlink:href="#mbbee1e1c23" x="144" y="256.32" style="stroke: #000000; stroke-width: 0.8"/>
      </g>
     </g>
     <g id="text_1">
      <!-- 0.0 -->
      <g transform="translate(134.458125 272.438125) scale(0.12 -0.12)">
       <defs>
        <path id="DejaVuSans-30" d="M 2034 4250 
Q 1547 4250 1301 3770 
Q 1056 3291 1056 2328 
Q 1056 1369 1301 889 
Q 1547 409 2034 409 
Q 2525 409 2770 889 
Q 3016 1369 3016 2328 
Q 3016 3291 2770 3770 
Q 2525 4250 2034 4250 
z
M 2034 4750 
Q 2819 4750 3233 4129 
Q 3647 3509 3647 2328 
Q 3647 1150 3233 529 
Q 2819 -91 2034 -91 
Q 1250 -91 836 529 
Q 422 1150 422 2328 
Q 422 3509 836 4129 
Q 1250 4750 2034 4750 
z
" transform="scale(0.015625)"/>
        <path id="DejaVuSans-2e" d="M 684 794 
L 1344 794 
L 1344 0 
L 684 0 
L 684 794 
z
" transform="scale(0.015625)"/>
       </defs>
       <use xlink:href="#DejaVuSans-30"/>
       <use xlink:href="#DejaVuSans-2e" x="63.623047"/>
       <use xlink:href="#DejaVuSans-30" x="95.410156"/>
      </g>
     </g>
    </g>
    <g id="xtick_2">
     <g id="line2d_2">
      <g>
       <use xlink:href="#mbbee1e1c23" x="187.764706" y="256.32" style="stroke: #000000; stroke-width: 0.8"/>
      </g>
     </g>
     <g id="text_2">
      <!-- 0.5 -->
      <g transform="translate(178.222831 272.438125) scale(0.12 -0.12)">
       <defs>
        <path id="DejaVuSans-35" d="M 691 4666 
L 3169 4666 
L 3169 4134 
L 1269 4134 
L 1269 2991 
Q 1406 3038 1543 3061 
Q 1681 3084 1819 3084 
Q 2600 3084 3056 2656 
Q 3513 2228 3513 1497 
Q 3513 744 3044 326 
Q 2575 -91 1722 -91 
Q 1428 -91 1123 -41 
Q 819 9 494 109 
L 494 744 
Q 775 591 1075 516 
Q 1375 441 1709 441 
Q 2250 441 2565 725 
Q 2881 1009 2881 1497 
Q 2881 1984 2565 2268 
Q 2250 2553 1709 2553 
Q 1456 2553 1204 2497 
Q 953 2441 691 2322 
L 691 4666 
z
" transform="scale(0.015625)"/>
       </defs>
       <use xlink:href="#DejaVuSans-30"/>
       <use xlink:href="#DejaVuSans-2e" x="63.623047"/>
       <use xlink:href="#DejaVuSans-35" x="95.410156"/>
      </g>
     </g>
    </g>
    <g id="xtick_3">
     <g id="line2d_3">
      <g>
       <use xlink:href="#mbbee1e1c23" x="231.529412" y="256.32" style="stroke: #000000; stroke-width: 0.8"/>
      </g>
     </g>
     <g id="text_3">
      <!-- 1.0 -->
      <g transform="translate(221.987537 272.438125) scale(0.12 -0.12)">
       <defs>
        <path id="DejaVuSans-31" d="M 794 531 
L 1825 531 
L 1825 4091 
L 703 3866 
L 703 4441 
L 1819 4666 
L 2450 4666 
L 2450 531 
L 3481 531 
L 3481 0 
L 794 0 
L 794 531 
z
" transform="scale(0.015625)"/>
       </defs>
       <use xlink:href="#DejaVuSans-31"/>
       <use xlink:href="#DejaVuSans-2e" x="63.623047"/>
       <use xlink:href="#DejaVuSans-30" x="95.410156"/>
      </g>
     </g>
    </g>
    <g id="xtick_4">
     <g id="line2d_4">
      <g>
       <use xlink:href="#mbbee1e1c23" x="275.294118" y="256.32" style="stroke: #000000; stroke-width: 0.8"/>
      </g>
     </g>
     <g id="text_4">
      <!-- 1.5 -->
      <g transform="translate(265.752243 272.438125) scale(0.12 -0.12)">
       <use xlink:href="#DejaVuSans-31"/>
       <use xlink:href="#DejaVuSans-2e" x="63.623047"/>
       <use xlink:href="#DejaVuSans-35" x="95.410156"/>
      </g>
     </g>
    </g>
    <g id="xtick_5">
     <g id="line2d_5">
      <g>
       <use xlink:href="#mbbee1e1c23" x="319.058824" y="256.32" style="stroke: #000000; stroke-width: 0.8"/>
      </g>
     </g>
     <g id="text_5">
      <!-- 2.0 -->
      <g transform="translate(309.516949 272.438125) scale(0.12 -0.12)">
       <defs>
        <path id="DejaVuSans-32" d="M 1228 531 
L 3431 531 
L 3431 0 
L 469 0 
L 469 531 
Q 828 903 1448 1529 
Q 2069 2156 2228 2338 
Q 2531 2678 2651 2914 
Q 2772 3150 2772 3378 
Q 2772 3750 2511 3984 
Q 2250 4219 1831 4219 
Q 1534 4219 1204 4116 
Q 875 4013 500 3803 
L 500 4441 
Q 881 4594 1212 4672 
Q 1544 4750 1819 4750 
Q 2544 4750 2975 4387 
Q 3406 4025 3406 3419 
Q 3406 3131 3298 2873 
Q 3191 2616 2906 2266 
Q 2828 2175 2409 1742 
Q 1991 1309 1228 531 
z
" transform="scale(0.015625)"/>
       </defs>
       <use xlink:href="#DejaVuSans-32"/>
       <use xlink:href="#DejaVuSans-2e" x="63.623047"/>
       <use xlink:href="#DejaVuSans-30" x="95.410156"/>
      </g>
     </g>
    </g>
    <g id="xtick_6">
     <g id="line2d_6">
      <g>
       <use xlink:href="#mbbee1e1c23" x="362.823529" y="256.32" style="stroke: #000000; stroke-width: 0.8"/>
      </g>
     </g>
     <g id="text_6">
      <!-- 2.5 -->
      <g transform="translate(353.281654 272.438125) scale(0.12 -0.12)">
       <use xlink:href="#DejaVuSans-32"/>
       <use xlink:href="#DejaVuSans-2e" x="63.623047"/>
       <use xlink:href="#DejaVuSans-35" x="95.410156"/>
      </g>
     </g>
    </g>
    <g id="xtick_7">
     <g id="line2d_7">
      <g>
       <use xlink:href="#mbbee1e1c23" x="406.588235" y="256.32" style="stroke: #000000; stroke-width: 0.8"/>
      </g>
     </g>
     <g id="text_7">
      <!-- 3.0 -->
      <g transform="translate(397.04636 272.438125) scale(0.12 -0.12)">
       <defs>
        <path id="DejaVuSans-33" d="M 2597 2516 
Q 3050 2419 3304 2112 
Q 3559 1806 3559 1356 
Q 3559 666 3084 287 
Q 2609 -91 1734 -91 
Q 1441 -91 1130 -33 
Q 819 25 488 141 
L 488 750 
Q 750 597 1062 519 
Q 1375 441 1716 441 
Q 2309 441 2620 675 
Q 2931 909 2931 1356 
Q 2931 1769 2642 2001 
Q 2353 2234 1838 2234 
L 1294 2234 
L 1294 2753 
L 1863 2753 
Q 2328 2753 2575 2939 
Q 2822 3125 2822 3475 
Q 2822 3834 2567 4026 
Q 2313 4219 1838 4219 
Q 1578 4219 1281 4162 
Q 984 4106 628 3988 
L 628 4550 
Q 988 4650 1302 4700 
Q 1616 4750 1894 4750 
Q 2613 4750 3031 4423 
Q 3450 4097 3450 3541 
Q 3450 3153 3228 2886 
Q 3006 2619 2597 2516 
z
" transform="scale(0.015625)"/>
       </defs>
       <use xlink:href="#DejaVuSans-33"/>
       <use xlink:href="#DejaVuSans-2e" x="63.623047"/>
       <use xlink:href="#DejaVuSans-30" x="95.410156"/>
      </g>
     </g>
    </g>
   </g>
   <g id="matplotlib.axis_2">
    <g id="ytick_1">
     <g id="line2d_8">
      <defs>
       <path id="mfaee29b04b" d="M 0 0 
L -3.5 0 
" style="stroke: #000000; stroke-width: 0.8"/>
      </defs>
      <g>
       <use xlink:href="#mfaee29b04b" x="144" y="256.32" style="stroke: #000000; stroke-width: 0.8"/>
      </g>
     </g>
     <g id="text_8">
      <!-- 0.00 -->
      <g transform="translate(110.28125 260.879063) scale(0.12 -0.12)">
       <use xlink:href="#DejaVuSans-30"/>
       <use xlink:href="#DejaVuSans-2e" x="63.623047"/>
       <use xlink:href="#DejaVuSans-30" x="95.410156"/>
       <use xlink:href="#DejaVuSans-30" x="159.033203"/>
      </g>
     </g>
    </g>
    <g id="ytick_2">
     <g id="line2d_9">
      <g>
       <use xlink:href="#mfaee29b04b" x="144" y="228.155686" style="stroke: #000000; stroke-width: 0.8"/>
      </g>
     </g>
     <g id="text_9">
      <!-- 0.25 -->
      <g transform="translate(110.28125 232.714748) scale(0.12 -0.12)">
       <use xlink:href="#DejaVuSans-30"/>
       <use xlink:href="#DejaVuSans-2e" x="63.623047"/>
       <use xlink:href="#DejaVuSans-32" x="95.410156"/>
       <use xlink:href="#DejaVuSans-35" x="159.033203"/>
      </g>
     </g>
    </g>
    <g id="ytick_3">
     <g id="line2d_10">
      <g>
       <use xlink:href="#mfaee29b04b" x="144" y="199.991372" style="stroke: #000000; stroke-width: 0.8"/>
      </g>
     </g>
     <g id="text_10">
      <!-- 0.50 -->
      <g transform="translate(110.28125 204.550434) scale(0.12 -0.12)">
       <use xlink:href="#DejaVuSans-30"/>
       <use xlink:href="#DejaVuSans-2e" x="63.623047"/>
       <use xlink:href="#DejaVuSans-35" x="95.410156"/>
       <use xlink:href="#DejaVuSans-30" x="159.033203"/>
      </g>
     </g>
    </g>
    <g id="ytick_4">
     <g id="line2d_11">
      <g>
       <use xlink:href="#mfaee29b04b" x="144" y="171.827057" style="stroke: #000000; stroke-width: 0.8"/>
      </g>
     </g>
     <g id="text_11">
      <!-- 0.75 -->
      <g transform="translate(110.28125 176.38612) scale(0.12 -0.12)">
       <defs>
        <path id="DejaVuSans-37" d="M 525 4666 
L 3525 4666 
L 3525 4397 
L 1831 0 
L 1172 0 
L 2766 4134 
L 525 4134 
L 525 4666 
z
" transform="scale(0.015625)"/>
       </defs>
       <use xlink:href="#DejaVuSans-30"/>
       <use xlink:href="#DejaVuSans-2e" x="63.623047"/>
       <use xlink:href="#DejaVuSans-37" x="95.410156"/>
       <use xlink:href="#DejaVuSans-35" x="159.033203"/>
      </g>
     </g>
    </g>
    <g id="ytick_5">
     <g id="line2d_12">
      <g>
       <use xlink:href="#mfaee29b04b" x="144" y="143.662743" style="stroke: #000000; stroke-width: 0.8"/>
      </g>
     </g>
     <g id="text_12">
      <!-- 1.00 -->
      <g transform="translate(110.28125 148.221806) scale(0.12 -0.12)">
       <use xlink:href="#DejaVuSans-31"/>
       <use xlink:href="#DejaVuSans-2e" x="63.623047"/>
       <use xlink:href="#DejaVuSans-30" x="95.410156"/>
       <use xlink:href="#DejaVuSans-30" x="159.033203"/>
      </g>
     </g>
    </g>
    <g id="ytick_6">
     <g id="line2d_13">
      <g>
       <use xlink:href="#mfaee29b04b" x="144" y="115.498429" style="stroke: #000000; stroke-width: 0.8"/>
      </g>
     </g>
     <g id="text_13">
      <!-- 1.25 -->
      <g transform="translate(110.28125 120.057492) scale(0.12 -0.12)">
       <use xlink:href="#DejaVuSans-31"/>
       <use xlink:href="#DejaVuSans-2e" x="63.623047"/>
       <use xlink:href="#DejaVuSans-32" x="95.410156"/>
       <use xlink:href="#DejaVuSans-35" x="159.033203"/>
      </g>
     </g>
    </g>
    <g id="ytick_7">
     <g id="line2d_14">
      <g>
       <use xlink:href="#mfaee29b04b" x="144" y="87.334115" style="stroke: #000000; stroke-width: 0.8"/>
      </g>
     </g>
     <g id="text_14">
      <!-- 1.50 -->
      <g transform="translate(110.28125 91.893177) scale(0.12 -0.12)">
       <use xlink:href="#DejaVuSans-31"/>
       <use xlink:href="#DejaVuSans-2e" x="63.623047"/>
       <use xlink:href="#DejaVuSans-35" x="95.410156"/>
       <use xlink:href="#DejaVuSans-30" x="159.033203"/>
      </g>
     </g>
    </g>
    <g id="ytick_8">
     <g id="line2d_15">
      <g>
       <use xlink:href="#mfaee29b04b" x="144" y="59.169801" style="stroke: #000000; stroke-width: 0.8"/>
      </g>
     </g>
     <g id="text_15">
      <!-- 1.75 -->
      <g transform="translate(110.28125 63.728863) scale(0.12 -0.12)">
       <use xlink:href="#DejaVuSans-31"/>
       <use xlink:href="#DejaVuSans-2e" x="63.623047"/>
       <use xlink:href="#DejaVuSans-37" x="95.410156"/>
       <use xlink:href="#DejaVuSans-35" x="159.033203"/>
      </g>
     </g>
    </g>
   </g>
   <g id="line2d_16">
    <path d="M 144 256.32 
L 146.652406 226.966231 
L 149.304813 198.30182 
L 151.957219 170.989421 
L 154.609626 145.63971 
L 157.262032 122.788879 
L 159.914439 102.880039 
L 162.566845 86.249423 
L 165.219251 73.11797 
L 167.871658 63.588491 
L 170.524064 57.648344 
L 173.176471 55.177143 
L 175.828877 55.95881 
L 178.481283 59.697047 
L 181.13369 66.033148 
L 183.786096 74.565063 
L 186.438503 84.866593 
L 189.090909 96.50572 
L 191.743316 109.061229 
L 194.395722 122.136938 
L 197.048128 135.373103 
L 199.700535 148.454757 
L 202.352941 161.116959 
L 205.005348 173.14711 
L 207.657754 184.384645 
L 210.31016 194.718516 
L 212.962567 204.082926 
L 215.614973 212.451841 
L 218.26738 219.832739 
L 220.919786 226.260073 
L 223.572193 231.788801 
L 226.224599 236.488315 
L 228.877005 240.436976 
L 231.529412 243.717418 
L 234.181818 246.412677 
L 236.834225 248.603165 
L 239.486631 250.364445 
L 242.139037 251.765742 
L 244.791444 252.869068 
L 247.44385 253.728875 
L 250.096257 254.39211 
L 252.748663 254.898569 
L 255.40107 255.281453 
L 258.053476 255.56805 
L 260.705882 255.780463 
L 263.358289 255.936358 
L 266.010695 256.04966 
L 268.663102 256.131211 
L 271.315508 256.189344 
L 273.967914 256.230387 
L 276.620321 256.259088 
L 279.272727 256.278967 
L 281.925134 256.292606 
L 284.57754 256.301875 
L 287.229947 256.308115 
L 289.882353 256.312276 
L 292.534759 256.315025 
L 295.187166 256.316824 
L 297.839572 256.317991 
L 300.491979 256.31874 
L 303.144385 256.319217 
L 305.796791 256.319518 
L 308.449198 256.319706 
L 311.101604 256.319822 
L 313.754011 256.319893 
L 316.406417 256.319937 
L 319.058824 256.319963 
L 321.71123 256.319978 
L 324.363636 256.319987 
L 327.016043 256.319993 
L 329.668449 256.319996 
L 332.320856 256.319998 
L 334.973262 256.319999 
L 337.625668 256.319999 
L 340.278075 256.32 
L 342.930481 256.32 
L 345.582888 256.32 
L 348.235294 256.32 
L 350.887701 256.32 
L 353.540107 256.32 
L 356.192513 256.32 
L 358.84492 256.32 
L 361.497326 256.32 
L 364.149733 256.32 
L 366.802139 256.32 
L 369.454545 256.32 
L 372.106952 256.32 
L 374.759358 256.32 
L 377.411765 256.32 
L 380.064171 256.32 
L 382.716578 256.32 
L 385.368984 256.32 
L 388.02139 256.32 
L 390.673797 256.32 
L 393.326203 256.32 
L 395.97861 256.32 
L 398.631016 256.32 
L 401.283422 256.32 
L 403.935829 256.32 
L 406.588235 256.32 
" clip-path="url(#pa475f2587a)" style="fill: none; stroke: #ff0000; stroke-width: 1.5; stroke-linecap: square"/>
   </g>
   <g id="line2d_17">
    <path d="M 144 256.32 
L 146.652406 249.498554 
L 149.304813 242.714641 
L 151.957219 236.005447 
L 154.609626 229.407478 
L 157.262032 222.956224 
L 159.914439 216.685842 
L 162.566845 210.628858 
L 165.219251 204.815884 
L 167.871658 199.27536 
L 170.524064 194.03333 
L 173.176471 189.113238 
L 175.828877 184.53576 
L 178.481283 180.318672 
L 181.13369 176.476745 
L 183.786096 173.021684 
L 186.438503 169.962093 
L 189.090909 167.303481 
L 191.743316 165.048298 
L 194.395722 163.196004 
L 197.048128 161.74317 
L 199.700535 160.683604 
L 202.352941 160.008502 
L 205.005348 159.706628 
L 207.657754 159.764506 
L 210.31016 160.166632 
L 212.962567 160.895701 
L 215.614973 161.932837 
L 218.26738 163.257838 
L 220.919786 164.849419 
L 223.572193 166.685454 
L 226.224599 168.743217 
L 228.877005 170.999616 
L 231.529412 173.431423 
L 234.181818 176.015481 
L 236.834225 178.728914 
L 239.486631 181.549308 
L 242.139037 184.454882 
L 244.791444 187.424648 
L 247.44385 190.438536 
L 250.096257 193.477517 
L 252.748663 196.523701 
L 255.40107 199.560411 
L 258.053476 202.572248 
L 260.705882 205.545129 
L 263.358289 208.466318 
L 266.010695 211.324429 
L 268.663102 214.109423 
L 271.315508 216.812591 
L 273.967914 219.426515 
L 276.620321 221.945033 
L 279.272727 224.363181 
L 281.925134 226.677134 
L 284.57754 228.884139 
L 287.229947 230.982442 
L 289.882353 232.971211 
L 292.534759 234.850459 
L 295.187166 236.62096 
L 297.839572 238.284173 
L 300.491979 239.842158 
L 303.144385 241.297499 
L 305.796791 242.65323 
L 308.449198 243.91276 
L 311.101604 245.079803 
L 313.754011 246.158318 
L 316.406417 247.152443 
L 319.058824 248.066441 
L 321.71123 248.904652 
L 324.363636 249.671441 
L 327.016043 250.371165 
L 329.668449 251.008129 
L 332.320856 251.58656 
L 334.973262 252.110578 
L 337.625668 252.584174 
L 340.278075 253.011191 
L 342.930481 253.39531 
L 345.582888 253.740039 
L 348.235294 254.048704 
L 350.887701 254.324446 
L 353.540107 254.570217 
L 356.192513 254.78878 
L 358.84492 254.98271 
L 361.497326 255.154399 
L 364.149733 255.306061 
L 366.802139 255.439735 
L 369.454545 255.557297 
L 372.106952 255.660461 
L 374.759358 255.750795 
L 377.411765 255.829723 
L 380.064171 255.898535 
L 382.716578 255.9584 
L 385.368984 256.010369 
L 388.02139 256.055388 
L 390.673797 256.094302 
L 393.326203 256.12787 
L 395.97861 256.156763 
L 398.631016 256.181581 
L 401.283422 256.202854 
L 403.935829 256.22105 
L 406.588235 256.236582 
" clip-path="url(#pa475f2587a)" style="fill: none; stroke: #0000ff; stroke-width: 1.5; stroke-linecap: square"/>
   </g>
   <g id="line2d_18">
    <path d="M 158.93654 256.32 
L 158.93654 45.12 
" clip-path="url(#pa475f2587a)" style="fill: none; stroke: #000000; stroke-width: 1.5; stroke-linecap: square"/>
   </g>
   <g id="patch_52">
    <path d="M 144 256.32 
L 144 34.56 
" style="fill: none; stroke: #000000; stroke-width: 0.8; stroke-linejoin: miter; stroke-linecap: square"/>
   </g>
   <g id="patch_53">
    <path d="M 406.588235 256.32 
L 406.588235 34.56 
" style="fill: none; stroke: #000000; stroke-width: 0.8; stroke-linejoin: miter; stroke-linecap: square"/>
   </g>
   <g id="patch_54">
    <path d="M 144 256.32 
L 406.588235 256.32 
" style="fill: none; stroke: #000000; stroke-width: 0.8; stroke-linejoin: miter; stroke-linecap: square"/>
   </g>
   <g id="patch_55">
    <path d="M 144 34.56 
L 406.588235 34.56 
" style="fill: none; stroke: #000000; stroke-width: 0.8; stroke-linejoin: miter; stroke-linecap: square"/>
   </g>
   <g id="text_16">
    <!-- &lt;E1&gt; = 0.17 -->
    <g transform="translate(327.811765 66.24) scale(0.1 -0.1)">
     <defs>
      <path id="DejaVuSans-3c" d="M 4684 3150 
L 1459 2003 
L 4684 863 
L 4684 294 
L 678 1747 
L 678 2266 
L 4684 3719 
L 4684 3150 
z
" transform="scale(0.015625)"/>
      <path id="DejaVuSans-45" d="M 628 4666 
L 3578 4666 
L 3578 4134 
L 1259 4134 
L 1259 2753 
L 3481 2753 
L 3481 2222 
L 1259 2222 
L 1259 531 
L 3634 531 
L 3634 0 
L 628 0 
L 628 4666 
z
" transform="scale(0.015625)"/>
      <path id="DejaVuSans-3e" d="M 678 3150 
L 678 3719 
L 4684 2266 
L 4684 1747 
L 678 294 
L 678 863 
L 3897 2003 
L 678 3150 
z
" transform="scale(0.015625)"/>
      <path id="DejaVuSans-20" transform="scale(0.015625)"/>
      <path id="DejaVuSans-3d" d="M 678 2906 
L 4684 2906 
L 4684 2381 
L 678 2381 
L 678 2906 
z
M 678 1631 
L 4684 1631 
L 4684 1100 
L 678 1100 
L 678 1631 
z
" transform="scale(0.015625)"/>
     </defs>
     <use xlink:href="#DejaVuSans-3c"/>
     <use xlink:href="#DejaVuSans-45" x="83.789062"/>
     <use xlink:href="#DejaVuSans-31" x="146.972656"/>
     <use xlink:href="#DejaVuSans-3e" x="210.595703"/>
     <use xlink:href="#DejaVuSans-20" x="294.384766"/>
     <use xlink:href="#DejaVuSans-3d" x="326.171875"/>
     <use xlink:href="#DejaVuSans-20" x="409.960938"/>
     <use xlink:href="#DejaVuSans-30" x="441.748047"/>
     <use xlink:href="#DejaVuSans-2e" x="505.371094"/>
     <use xlink:href="#DejaVuSans-31" x="537.158203"/>
     <use xlink:href="#DejaVuSans-37" x="600.78125"/>
    </g>
   </g>
  </g>
  <g id="axes_2">
   <g id="patch_56">
    <path d="M 459.105882 256.32 
L 721.694118 256.32 
L 721.694118 34.56 
L 459.105882 34.56 
z
" style="fill: #ffffff"/>
   </g>
   <g id="patch_57">
    <path d="M 459.105882 256.32 
L 468.037455 256.32 
L 468.037455 247.533288 
L 459.105882 247.533288 
z
" clip-path="url(#p1035a14ffe)" style="fill: #1f77b4"/>
   </g>
   <g id="patch_58">
    <path d="M 468.037455 256.32 
L 476.969028 256.32 
L 476.969028 222.428395 
L 468.037455 222.428395 
z
" clip-path="url(#p1035a14ffe)" style="fill: #1f77b4"/>
   </g>
   <g id="patch_59">
    <path d="M 476.969028 256.32 
L 485.9006 256.32 
L 485.9006 192.302523 
L 476.969028 192.302523 
z
" clip-path="url(#p1035a14ffe)" style="fill: #1f77b4"/>
   </g>
   <g id="patch_60">
    <path d="M 485.9006 256.32 
L 494.832173 256.32 
L 494.832173 172.218609 
L 485.9006 172.218609 
z
" clip-path="url(#p1035a14ffe)" style="fill: #1f77b4"/>
   </g>
   <g id="patch_61">
    <path d="M 494.832173 256.32 
L 503.763745 256.32 
L 503.763745 145.858472 
L 494.832173 145.858472 
z
" clip-path="url(#p1035a14ffe)" style="fill: #1f77b4"/>
   </g>
   <g id="patch_62">
    <path d="M 503.763745 256.32 
L 512.695318 256.32 
L 512.695318 127.029802 
L 503.763745 127.029802 
z
" clip-path="url(#p1035a14ffe)" style="fill: #1f77b4"/>
   </g>
   <g id="patch_63">
    <path d="M 512.695318 256.32 
L 521.626891 256.32 
L 521.626891 93.138197 
L 512.695318 93.138197 
z
" clip-path="url(#p1035a14ffe)" style="fill: #1f77b4"/>
   </g>
   <g id="patch_64">
    <path d="M 521.626891 256.32 
L 530.558463 256.32 
L 530.558463 96.903931 
L 521.626891 96.903931 
z
" clip-path="url(#p1035a14ffe)" style="fill: #1f77b4"/>
   </g>
   <g id="patch_65">
    <path d="M 530.558463 256.32 
L 539.490036 256.32 
L 539.490036 70.543794 
L 530.558463 70.543794 
z
" clip-path="url(#p1035a14ffe)" style="fill: #1f77b4"/>
   </g>
   <g id="patch_66">
    <path d="M 539.490036 256.32 
L 548.421609 256.32 
L 548.421609 109.456377 
L 539.490036 109.456377 
z
" clip-path="url(#p1035a14ffe)" style="fill: #1f77b4"/>
   </g>
   <g id="patch_67">
    <path d="M 548.421609 256.32 
L 557.353181 256.32 
L 557.353181 144.603227 
L 548.421609 144.603227 
z
" clip-path="url(#p1035a14ffe)" style="fill: #1f77b4"/>
   </g>
   <g id="patch_68">
    <path d="M 557.353181 256.32 
L 566.284754 256.32 
L 566.284754 157.155674 
L 557.353181 157.155674 
z
" clip-path="url(#p1035a14ffe)" style="fill: #1f77b4"/>
   </g>
   <g id="patch_69">
    <path d="M 566.284754 256.32 
L 575.216327 256.32 
L 575.216327 177.239588 
L 566.284754 177.239588 
z
" clip-path="url(#p1035a14ffe)" style="fill: #1f77b4"/>
   </g>
   <g id="patch_70">
    <path d="M 575.216327 256.32 
L 584.147899 256.32 
L 584.147899 211.131193 
L 575.216327 211.131193 
z
" clip-path="url(#p1035a14ffe)" style="fill: #1f77b4"/>
   </g>
   <g id="patch_71">
    <path d="M 584.147899 256.32 
L 593.079472 256.32 
L 593.079472 219.917906 
L 584.147899 219.917906 
z
" clip-path="url(#p1035a14ffe)" style="fill: #1f77b4"/>
   </g>
   <g id="patch_72">
    <path d="M 593.079472 256.32 
L 602.011044 256.32 
L 602.011044 233.725597 
L 593.079472 233.725597 
z
" clip-path="url(#p1035a14ffe)" style="fill: #1f77b4"/>
   </g>
   <g id="patch_73">
    <path d="M 602.011044 256.32 
L 610.942617 256.32 
L 610.942617 237.49133 
L 602.011044 237.49133 
z
" clip-path="url(#p1035a14ffe)" style="fill: #1f77b4"/>
   </g>
   <g id="patch_74">
    <path d="M 610.942617 256.32 
L 619.87419 256.32 
L 619.87419 246.278043 
L 610.942617 246.278043 
z
" clip-path="url(#p1035a14ffe)" style="fill: #1f77b4"/>
   </g>
   <g id="patch_75">
    <path d="M 619.87419 256.32 
L 628.805762 256.32 
L 628.805762 251.299021 
L 619.87419 251.299021 
z
" clip-path="url(#p1035a14ffe)" style="fill: #1f77b4"/>
   </g>
   <g id="patch_76">
    <path d="M 628.805762 256.32 
L 637.737335 256.32 
L 637.737335 253.809511 
L 628.805762 253.809511 
z
" clip-path="url(#p1035a14ffe)" style="fill: #1f77b4"/>
   </g>
   <g id="patch_77">
    <path d="M 637.737335 256.32 
L 646.668908 256.32 
L 646.668908 253.809511 
L 637.737335 253.809511 
z
" clip-path="url(#p1035a14ffe)" style="fill: #1f77b4"/>
   </g>
   <g id="patch_78">
    <path d="M 646.668908 256.32 
L 655.60048 256.32 
L 655.60048 255.064755 
L 646.668908 255.064755 
z
" clip-path="url(#p1035a14ffe)" style="fill: #1f77b4"/>
   </g>
   <g id="patch_79">
    <path d="M 655.60048 256.32 
L 664.532053 256.32 
L 664.532053 256.32 
L 655.60048 256.32 
z
" clip-path="url(#p1035a14ffe)" style="fill: #1f77b4"/>
   </g>
   <g id="patch_80">
    <path d="M 664.532053 256.32 
L 673.463625 256.32 
L 673.463625 255.064755 
L 664.532053 255.064755 
z
" clip-path="url(#p1035a14ffe)" style="fill: #1f77b4"/>
   </g>
   <g id="patch_81">
    <path d="M 673.463625 256.32 
L 682.395198 256.32 
L 682.395198 256.32 
L 673.463625 256.32 
z
" clip-path="url(#p1035a14ffe)" style="fill: #1f77b4"/>
   </g>
   <g id="patch_82">
    <path d="M 682.395198 256.32 
L 691.326771 256.32 
L 691.326771 256.32 
L 682.395198 256.32 
z
" clip-path="url(#p1035a14ffe)" style="fill: #1f77b4"/>
   </g>
   <g id="patch_83">
    <path d="M 691.326771 256.32 
L 700.258343 256.32 
L 700.258343 256.32 
L 691.326771 256.32 
z
" clip-path="url(#p1035a14ffe)" style="fill: #1f77b4"/>
   </g>
   <g id="patch_84">
    <path d="M 700.258343 256.32 
L 709.189916 256.32 
L 709.189916 256.32 
L 700.258343 256.32 
z
" clip-path="url(#p1035a14ffe)" style="fill: #1f77b4"/>
   </g>
   <g id="patch_85">
    <path d="M 709.189916 256.32 
L 718.121489 256.32 
L 718.121489 256.32 
L 709.189916 256.32 
z
" clip-path="url(#p1035a14ffe)" style="fill: #1f77b4"/>
   </g>
   <g id="patch_86">
    <path d="M 718.121489 256.32 
L 727.053061 256.32 
L 727.053061 256.32 
L 718.121489 256.32 
z
" clip-path="url(#p1035a14ffe)" style="fill: #1f77b4"/>
   </g>
   <g id="patch_87">
    <path d="M 727.053061 256.32 
L 735.984634 256.32 
L 735.984634 256.32 
L 727.053061 256.32 
z
" clip-path="url(#p1035a14ffe)" style="fill: #1f77b4"/>
   </g>
   <g id="patch_88">
    <path d="M 735.984634 256.32 
L 744.916206 256.32 
L 744.916206 256.32 
L 735.984634 256.32 
z
" clip-path="url(#p1035a14ffe)" style="fill: #1f77b4"/>
   </g>
   <g id="patch_89">
    <path d="M 744.916206 256.32 
L 753.847779 256.32 
L 753.847779 256.32 
L 744.916206 256.32 
z
" clip-path="url(#p1035a14ffe)" style="fill: #1f77b4"/>
   </g>
   <g id="patch_90">
    <path d="M 753.847779 256.32 
L 762.779352 256.32 
L 762.779352 256.32 
L 753.847779 256.32 
z
" clip-path="url(#p1035a14ffe)" style="fill: #1f77b4"/>
   </g>
   <g id="patch_91">
    <path d="M 762.779352 256.32 
L 771.710924 256.32 
L 771.710924 256.32 
L 762.779352 256.32 
z
" clip-path="url(#p1035a14ffe)" style="fill: #1f77b4"/>
   </g>
   <g id="patch_92">
    <path d="M 771.710924 256.32 
L 780.642497 256.32 
L 780.642497 256.32 
L 771.710924 256.32 
z
" clip-path="url(#p1035a14ffe)" style="fill: #1f77b4"/>
   </g>
   <g id="patch_93">
    <path d="M 780.642497 256.32 
L 789.57407 256.32 
L 789.57407 256.32 
L 780.642497 256.32 
z
" clip-path="url(#p1035a14ffe)" style="fill: #1f77b4"/>
   </g>
   <g id="patch_94">
    <path d="M 789.57407 256.32 
L 798.505642 256.32 
L 798.505642 256.32 
L 789.57407 256.32 
z
" clip-path="url(#p1035a14ffe)" style="fill: #1f77b4"/>
   </g>
   <g id="patch_95">
    <path d="M 798.505642 256.32 
L 807.437215 256.32 
L 807.437215 256.32 
L 798.505642 256.32 
z
" clip-path="url(#p1035a14ffe)" style="fill: #1f77b4"/>
   </g>
   <g id="patch_96">
    <path d="M 807.437215 256.32 
L 816.368788 256.32 
L 816.368788 256.32 
L 807.437215 256.32 
z
" clip-path="url(#p1035a14ffe)" style="fill: #1f77b4"/>
   </g>
   <g id="patch_97">
    <path d="M 816.368788 256.32 
L 825.30036 256.32 
L 825.30036 256.32 
L 816.368788 256.32 
z
" clip-path="url(#p1035a14ffe)" style="fill: #1f77b4"/>
   </g>
   <g id="patch_98">
    <path d="M 825.30036 256.32 
L 834.231933 256.32 
L 834.231933 256.32 
L 825.30036 256.32 
z
" clip-path="url(#p1035a14ffe)" style="fill: #1f77b4"/>
   </g>
   <g id="patch_99">
    <path d="M 834.231933 256.32 
L 843.163505 256.32 
L 843.163505 256.32 
L 834.231933 256.32 
z
" clip-path="url(#p1035a14ffe)" style="fill: #1f77b4"/>
   </g>
   <g id="patch_100">
    <path d="M 843.163505 256.32 
L 852.095078 256.32 
L 852.095078 256.32 
L 843.163505 256.32 
z
" clip-path="url(#p1035a14ffe)" style="fill: #1f77b4"/>
   </g>
   <g id="patch_101">
    <path d="M 852.095078 256.32 
L 861.026651 256.32 
L 861.026651 256.32 
L 852.095078 256.32 
z
" clip-path="url(#p1035a14ffe)" style="fill: #1f77b4"/>
   </g>
   <g id="patch_102">
    <path d="M 861.026651 256.32 
L 869.958223 256.32 
L 869.958223 256.32 
L 861.026651 256.32 
z
" clip-path="url(#p1035a14ffe)" style="fill: #1f77b4"/>
   </g>
   <g id="patch_103">
    <path d="M 869.958223 256.32 
L 878.889796 256.32 
L 878.889796 256.32 
L 869.958223 256.32 
z
" clip-path="url(#p1035a14ffe)" style="fill: #1f77b4"/>
   </g>
   <g id="patch_104">
    <path d="M 878.889796 256.32 
L 887.821369 256.32 
L 887.821369 256.32 
L 878.889796 256.32 
z
" clip-path="url(#p1035a14ffe)" style="fill: #1f77b4"/>
   </g>
   <g id="patch_105">
    <path d="M 887.821369 256.32 
L 896.752941 256.32 
L 896.752941 256.32 
L 887.821369 256.32 
z
" clip-path="url(#p1035a14ffe)" style="fill: #1f77b4"/>
   </g>
   <g id="matplotlib.axis_3">
    <g id="xtick_8">
     <g id="line2d_19">
      <g>
       <use xlink:href="#mbbee1e1c23" x="459.105882" y="256.32" style="stroke: #000000; stroke-width: 0.8"/>
      </g>
     </g>
     <g id="text_17">
      <!-- 0.0 -->
      <g transform="translate(449.564007 272.438125) scale(0.12 -0.12)">
       <use xlink:href="#DejaVuSans-30"/>
       <use xlink:href="#DejaVuSans-2e" x="63.623047"/>
       <use xlink:href="#DejaVuSans-30" x="95.410156"/>
      </g>
     </g>
    </g>
    <g id="xtick_9">
     <g id="line2d_20">
      <g>
       <use xlink:href="#mbbee1e1c23" x="502.870588" y="256.32" style="stroke: #000000; stroke-width: 0.8"/>
      </g>
     </g>
     <g id="text_18">
      <!-- 0.5 -->
      <g transform="translate(493.328713 272.438125) scale(0.12 -0.12)">
       <use xlink:href="#DejaVuSans-30"/>
       <use xlink:href="#DejaVuSans-2e" x="63.623047"/>
       <use xlink:href="#DejaVuSans-35" x="95.410156"/>
      </g>
     </g>
    </g>
    <g id="xtick_10">
     <g id="line2d_21">
      <g>
       <use xlink:href="#mbbee1e1c23" x="546.635294" y="256.32" style="stroke: #000000; stroke-width: 0.8"/>
      </g>
     </g>
     <g id="text_19">
      <!-- 1.0 -->
      <g transform="translate(537.093419 272.438125) scale(0.12 -0.12)">
       <use xlink:href="#DejaVuSans-31"/>
       <use xlink:href="#DejaVuSans-2e" x="63.623047"/>
       <use xlink:href="#DejaVuSans-30" x="95.410156"/>
      </g>
     </g>
    </g>
    <g id="xtick_11">
     <g id="line2d_22">
      <g>
       <use xlink:href="#mbbee1e1c23" x="590.4" y="256.32" style="stroke: #000000; stroke-width: 0.8"/>
      </g>
     </g>
     <g id="text_20">
      <!-- 1.5 -->
      <g transform="translate(580.858125 272.438125) scale(0.12 -0.12)">
       <use xlink:href="#DejaVuSans-31"/>
       <use xlink:href="#DejaVuSans-2e" x="63.623047"/>
       <use xlink:href="#DejaVuSans-35" x="95.410156"/>
      </g>
     </g>
    </g>
    <g id="xtick_12">
     <g id="line2d_23">
      <g>
       <use xlink:href="#mbbee1e1c23" x="634.164706" y="256.32" style="stroke: #000000; stroke-width: 0.8"/>
      </g>
     </g>
     <g id="text_21">
      <!-- 2.0 -->
      <g transform="translate(624.622831 272.438125) scale(0.12 -0.12)">
       <use xlink:href="#DejaVuSans-32"/>
       <use xlink:href="#DejaVuSans-2e" x="63.623047"/>
       <use xlink:href="#DejaVuSans-30" x="95.410156"/>
      </g>
     </g>
    </g>
    <g id="xtick_13">
     <g id="line2d_24">
      <g>
       <use xlink:href="#mbbee1e1c23" x="677.929412" y="256.32" style="stroke: #000000; stroke-width: 0.8"/>
      </g>
     </g>
     <g id="text_22">
      <!-- 2.5 -->
      <g transform="translate(668.387537 272.438125) scale(0.12 -0.12)">
       <use xlink:href="#DejaVuSans-32"/>
       <use xlink:href="#DejaVuSans-2e" x="63.623047"/>
       <use xlink:href="#DejaVuSans-35" x="95.410156"/>
      </g>
     </g>
    </g>
    <g id="xtick_14">
     <g id="line2d_25">
      <g>
       <use xlink:href="#mbbee1e1c23" x="721.694118" y="256.32" style="stroke: #000000; stroke-width: 0.8"/>
      </g>
     </g>
     <g id="text_23">
      <!-- 3.0 -->
      <g transform="translate(712.152243 272.438125) scale(0.12 -0.12)">
       <use xlink:href="#DejaVuSans-33"/>
       <use xlink:href="#DejaVuSans-2e" x="63.623047"/>
       <use xlink:href="#DejaVuSans-30" x="95.410156"/>
      </g>
     </g>
    </g>
   </g>
   <g id="matplotlib.axis_4">
    <g id="ytick_9">
     <g id="line2d_26">
      <g>
       <use xlink:href="#mfaee29b04b" x="459.105882" y="256.32" style="stroke: #000000; stroke-width: 0.8"/>
      </g>
     </g>
     <g id="text_24">
      <!-- 0.0 -->
      <g transform="translate(433.022132 260.879063) scale(0.12 -0.12)">
       <use xlink:href="#DejaVuSans-30"/>
       <use xlink:href="#DejaVuSans-2e" x="63.623047"/>
       <use xlink:href="#DejaVuSans-30" x="95.410156"/>
      </g>
     </g>
    </g>
    <g id="ytick_10">
     <g id="line2d_27">
      <g>
       <use xlink:href="#mfaee29b04b" x="459.105882" y="225.271908" style="stroke: #000000; stroke-width: 0.8"/>
      </g>
     </g>
     <g id="text_25">
      <!-- 0.2 -->
      <g transform="translate(433.022132 229.830971) scale(0.12 -0.12)">
       <use xlink:href="#DejaVuSans-30"/>
       <use xlink:href="#DejaVuSans-2e" x="63.623047"/>
       <use xlink:href="#DejaVuSans-32" x="95.410156"/>
      </g>
     </g>
    </g>
    <g id="ytick_11">
     <g id="line2d_28">
      <g>
       <use xlink:href="#mfaee29b04b" x="459.105882" y="194.223816" style="stroke: #000000; stroke-width: 0.8"/>
      </g>
     </g>
     <g id="text_26">
      <!-- 0.4 -->
      <g transform="translate(433.022132 198.782879) scale(0.12 -0.12)">
       <defs>
        <path id="DejaVuSans-34" d="M 2419 4116 
L 825 1625 
L 2419 1625 
L 2419 4116 
z
M 2253 4666 
L 3047 4666 
L 3047 1625 
L 3713 1625 
L 3713 1100 
L 3047 1100 
L 3047 0 
L 2419 0 
L 2419 1100 
L 313 1100 
L 313 1709 
L 2253 4666 
z
" transform="scale(0.015625)"/>
       </defs>
       <use xlink:href="#DejaVuSans-30"/>
       <use xlink:href="#DejaVuSans-2e" x="63.623047"/>
       <use xlink:href="#DejaVuSans-34" x="95.410156"/>
      </g>
     </g>
    </g>
    <g id="ytick_12">
     <g id="line2d_29">
      <g>
       <use xlink:href="#mfaee29b04b" x="459.105882" y="163.175724" style="stroke: #000000; stroke-width: 0.8"/>
      </g>
     </g>
     <g id="text_27">
      <!-- 0.6 -->
      <g transform="translate(433.022132 167.734787) scale(0.12 -0.12)">
       <defs>
        <path id="DejaVuSans-36" d="M 2113 2584 
Q 1688 2584 1439 2293 
Q 1191 2003 1191 1497 
Q 1191 994 1439 701 
Q 1688 409 2113 409 
Q 2538 409 2786 701 
Q 3034 994 3034 1497 
Q 3034 2003 2786 2293 
Q 2538 2584 2113 2584 
z
M 3366 4563 
L 3366 3988 
Q 3128 4100 2886 4159 
Q 2644 4219 2406 4219 
Q 1781 4219 1451 3797 
Q 1122 3375 1075 2522 
Q 1259 2794 1537 2939 
Q 1816 3084 2150 3084 
Q 2853 3084 3261 2657 
Q 3669 2231 3669 1497 
Q 3669 778 3244 343 
Q 2819 -91 2113 -91 
Q 1303 -91 875 529 
Q 447 1150 447 2328 
Q 447 3434 972 4092 
Q 1497 4750 2381 4750 
Q 2619 4750 2861 4703 
Q 3103 4656 3366 4563 
z
" transform="scale(0.015625)"/>
       </defs>
       <use xlink:href="#DejaVuSans-30"/>
       <use xlink:href="#DejaVuSans-2e" x="63.623047"/>
       <use xlink:href="#DejaVuSans-36" x="95.410156"/>
      </g>
     </g>
    </g>
    <g id="ytick_13">
     <g id="line2d_30">
      <g>
       <use xlink:href="#mfaee29b04b" x="459.105882" y="132.127633" style="stroke: #000000; stroke-width: 0.8"/>
      </g>
     </g>
     <g id="text_28">
      <!-- 0.8 -->
      <g transform="translate(433.022132 136.686695) scale(0.12 -0.12)">
       <defs>
        <path id="DejaVuSans-38" d="M 2034 2216 
Q 1584 2216 1326 1975 
Q 1069 1734 1069 1313 
Q 1069 891 1326 650 
Q 1584 409 2034 409 
Q 2484 409 2743 651 
Q 3003 894 3003 1313 
Q 3003 1734 2745 1975 
Q 2488 2216 2034 2216 
z
M 1403 2484 
Q 997 2584 770 2862 
Q 544 3141 544 3541 
Q 544 4100 942 4425 
Q 1341 4750 2034 4750 
Q 2731 4750 3128 4425 
Q 3525 4100 3525 3541 
Q 3525 3141 3298 2862 
Q 3072 2584 2669 2484 
Q 3125 2378 3379 2068 
Q 3634 1759 3634 1313 
Q 3634 634 3220 271 
Q 2806 -91 2034 -91 
Q 1263 -91 848 271 
Q 434 634 434 1313 
Q 434 1759 690 2068 
Q 947 2378 1403 2484 
z
M 1172 3481 
Q 1172 3119 1398 2916 
Q 1625 2713 2034 2713 
Q 2441 2713 2670 2916 
Q 2900 3119 2900 3481 
Q 2900 3844 2670 4047 
Q 2441 4250 2034 4250 
Q 1625 4250 1398 4047 
Q 1172 3844 1172 3481 
z
" transform="scale(0.015625)"/>
       </defs>
       <use xlink:href="#DejaVuSans-30"/>
       <use xlink:href="#DejaVuSans-2e" x="63.623047"/>
       <use xlink:href="#DejaVuSans-38" x="95.410156"/>
      </g>
     </g>
    </g>
    <g id="ytick_14">
     <g id="line2d_31">
      <g>
       <use xlink:href="#mfaee29b04b" x="459.105882" y="101.079541" style="stroke: #000000; stroke-width: 0.8"/>
      </g>
     </g>
     <g id="text_29">
      <!-- 1.0 -->
      <g transform="translate(433.022132 105.638603) scale(0.12 -0.12)">
       <use xlink:href="#DejaVuSans-31"/>
       <use xlink:href="#DejaVuSans-2e" x="63.623047"/>
       <use xlink:href="#DejaVuSans-30" x="95.410156"/>
      </g>
     </g>
    </g>
    <g id="ytick_15">
     <g id="line2d_32">
      <g>
       <use xlink:href="#mfaee29b04b" x="459.105882" y="70.031449" style="stroke: #000000; stroke-width: 0.8"/>
      </g>
     </g>
     <g id="text_30">
      <!-- 1.2 -->
      <g transform="translate(433.022132 74.590511) scale(0.12 -0.12)">
       <use xlink:href="#DejaVuSans-31"/>
       <use xlink:href="#DejaVuSans-2e" x="63.623047"/>
       <use xlink:href="#DejaVuSans-32" x="95.410156"/>
      </g>
     </g>
    </g>
    <g id="ytick_16">
     <g id="line2d_33">
      <g>
       <use xlink:href="#mfaee29b04b" x="459.105882" y="38.983357" style="stroke: #000000; stroke-width: 0.8"/>
      </g>
     </g>
     <g id="text_31">
      <!-- 1.4 -->
      <g transform="translate(433.022132 43.54242) scale(0.12 -0.12)">
       <use xlink:href="#DejaVuSans-31"/>
       <use xlink:href="#DejaVuSans-2e" x="63.623047"/>
       <use xlink:href="#DejaVuSans-34" x="95.410156"/>
      </g>
     </g>
    </g>
   </g>
   <g id="line2d_34">
    <path d="M 459.105882 256.32 
L 461.758289 253.107341 
L 464.410695 249.755066 
L 467.063102 246.126545 
L 469.715508 242.091227 
L 472.367914 237.527921 
L 475.020321 232.328316 
L 477.672727 226.400745 
L 480.325134 219.6741 
L 482.97754 212.101796 
L 485.629947 203.665564 
L 488.282353 194.378844 
L 490.934759 184.289483 
L 493.587166 173.481453 
L 496.239572 162.075307 
L 498.891979 150.227141 
L 501.544385 138.125884 
L 504.196791 125.98887 
L 506.849198 114.055709 
L 509.501604 102.580637 
L 512.154011 91.82363 
L 514.806417 82.040658 
L 517.458824 73.473597 
L 520.11123 66.340289 
L 522.763636 60.825358 
L 525.416043 57.07227 
L 528.068449 55.177143 
L 530.720856 55.184657 
L 533.373262 57.086317 
L 536.025668 60.821153 
L 538.678075 66.278814 
L 541.330481 73.304819 
L 543.982888 81.707649 
L 546.635294 91.267224 
L 549.287701 101.744243 
L 551.940107 112.889863 
L 554.592513 124.45517 
L 557.24492 136.199967 
L 559.897326 147.90046 
L 562.549733 159.355555 
L 565.202139 170.391547 
L 567.854545 180.865142 
L 570.506952 190.664826 
L 573.159358 199.710719 
L 575.811765 207.953092 
L 578.464171 215.369828 
L 581.116578 221.963074 
L 583.768984 227.755396 
L 586.42139 232.785697 
L 589.073797 237.105132 
L 591.726203 240.773242 
L 594.37861 243.854435 
L 597.031016 246.414947 
L 599.683422 248.520311 
L 602.335829 250.233379 
L 604.988235 251.61287 
L 607.640642 252.712389 
L 610.293048 253.579884 
L 612.945455 254.257441 
L 615.597861 254.781371 
L 618.250267 255.182494 
L 620.902674 255.486573 
L 623.55508 255.71483 
L 626.207487 255.884503 
L 628.859893 256.009406 
L 631.512299 256.100467 
L 634.164706 256.166216 
L 636.817112 256.213236 
L 639.469519 256.246541 
L 642.121925 256.269908 
L 644.774332 256.286146 
L 647.426738 256.297325 
L 650.079144 256.304948 
L 652.731551 256.310097 
L 655.383957 256.313543 
L 658.036364 256.315827 
L 660.68877 256.317327 
L 663.341176 256.318303 
L 665.993583 256.318933 
L 668.645989 256.319334 
L 671.298396 256.319589 
L 673.950802 256.319748 
L 676.603209 256.319847 
L 679.255615 256.319908 
L 681.908021 256.319945 
L 684.560428 256.319968 
L 687.212834 256.319981 
L 689.865241 256.319989 
L 692.517647 256.319994 
L 695.170053 256.319996 
L 697.82246 256.319998 
L 700.474866 256.319999 
L 703.127273 256.319999 
L 705.779679 256.32 
L 708.432086 256.32 
L 711.084492 256.32 
L 713.736898 256.32 
L 716.389305 256.32 
L 719.041711 256.32 
L 721.694118 256.32 
" clip-path="url(#p1035a14ffe)" style="fill: none; stroke: #ff0000; stroke-width: 1.5; stroke-linecap: square"/>
   </g>
   <g id="line2d_35">
    <path d="M 459.105882 256.32 
L 461.758289 246.920123 
L 464.410695 237.571965 
L 467.063102 228.32677 
L 469.715508 219.234841 
L 472.367914 210.345083 
L 475.020321 201.704567 
L 477.672727 193.35811 
L 480.325134 185.347895 
L 482.97754 177.713115 
L 485.629947 170.489655 
L 488.282353 163.709822 
L 490.934759 157.402108 
L 493.587166 151.591007 
L 496.239572 146.296874 
L 498.891979 141.535838 
L 501.544385 137.319755 
L 504.196791 133.656217 
L 506.849198 130.548599 
L 509.501604 127.996159 
L 512.154011 125.99417 
L 514.806417 124.534099 
L 517.458824 123.603816 
L 520.11123 123.187837 
L 522.763636 123.267592 
L 525.416043 123.821718 
L 528.068449 124.826366 
L 530.720856 126.255528 
L 533.373262 128.081366 
L 536.025668 130.274547 
L 538.678075 132.804583 
L 541.330481 135.640157 
L 543.982888 138.749451 
L 546.635294 142.100453 
L 549.287701 145.661257 
L 551.940107 149.400338 
L 554.592513 153.286809 
L 557.24492 157.290659 
L 559.897326 161.382963 
L 562.549733 165.536067 
L 565.202139 169.723751 
L 567.854545 173.921358 
L 570.506952 178.105911 
L 573.159358 182.256189 
L 575.811765 186.352787 
L 578.464171 190.378153 
L 581.116578 194.316598 
L 583.768984 198.15429 
L 586.42139 201.879225 
L 589.073797 205.481184 
L 591.726203 208.951674 
L 594.37861 212.283855 
L 597.031016 215.472457 
L 599.683422 218.513686 
L 602.335829 221.405124 
L 604.988235 224.145626 
L 607.640642 226.735209 
L 610.293048 229.17494 
L 612.945455 231.466829 
L 615.597861 233.613715 
L 618.250267 235.619159 
L 620.902674 237.487342 
L 623.55508 239.22296 
L 626.207487 240.831133 
L 628.859893 242.317315 
L 631.512299 243.687208 
L 634.164706 244.946687 
L 636.817112 246.101732 
L 639.469519 247.15836 
L 642.121925 248.122571 
L 644.774332 249.000301 
L 647.426738 249.797372 
L 650.079144 250.519463 
L 652.731551 251.172073 
L 655.383957 251.760498 
L 658.036364 252.289809 
L 660.68877 252.764841 
L 663.341176 253.190179 
L 665.993583 253.570149 
L 668.645989 253.908818 
L 671.298396 254.209995 
L 673.950802 254.477229 
L 676.603209 254.713814 
L 679.255615 254.922803 
L 681.908021 255.107005 
L 684.560428 255.269003 
L 687.212834 255.411163 
L 689.865241 255.535642 
L 692.517647 255.644404 
L 695.170053 255.739226 
L 697.82246 255.821719 
L 700.474866 255.893332 
L 703.127273 255.955367 
L 705.779679 256.008991 
L 708.432086 256.055247 
L 711.084492 256.095061 
L 713.736898 256.129261 
L 716.389305 256.158574 
L 719.041711 256.183648 
L 721.694118 256.205051 
" clip-path="url(#p1035a14ffe)" style="fill: none; stroke: #0000ff; stroke-width: 1.5; stroke-linecap: square"/>
   </g>
   <g id="line2d_36">
    <path d="M 532.040692 256.32 
L 532.040692 45.12 
" clip-path="url(#p1035a14ffe)" style="fill: none; stroke: #000000; stroke-width: 1.5; stroke-linecap: square"/>
   </g>
   <g id="patch_106">
    <path d="M 459.105882 256.32 
L 459.105882 34.56 
" style="fill: none; stroke: #000000; stroke-width: 0.8; stroke-linejoin: miter; stroke-linecap: square"/>
   </g>
   <g id="patch_107">
    <path d="M 721.694118 256.32 
L 721.694118 34.56 
" style="fill: none; stroke: #000000; stroke-width: 0.8; stroke-linejoin: miter; stroke-linecap: square"/>
   </g>
   <g id="patch_108">
    <path d="M 459.105882 256.32 
L 721.694118 256.32 
" style="fill: none; stroke: #000000; stroke-width: 0.8; stroke-linejoin: miter; stroke-linecap: square"/>
   </g>
   <g id="patch_109">
    <path d="M 459.105882 34.56 
L 721.694118 34.56 
" style="fill: none; stroke: #000000; stroke-width: 0.8; stroke-linejoin: miter; stroke-linecap: square"/>
   </g>
   <g id="text_32">
    <!-- &lt;E1&gt; = 0.83 -->
    <g transform="translate(642.917647 66.24) scale(0.1 -0.1)">
     <use xlink:href="#DejaVuSans-3c"/>
     <use xlink:href="#DejaVuSans-45" x="83.789062"/>
     <use xlink:href="#DejaVuSans-31" x="146.972656"/>
     <use xlink:href="#DejaVuSans-3e" x="210.595703"/>
     <use xlink:href="#DejaVuSans-20" x="294.384766"/>
     <use xlink:href="#DejaVuSans-3d" x="326.171875"/>
     <use xlink:href="#DejaVuSans-20" x="409.960938"/>
     <use xlink:href="#DejaVuSans-30" x="441.748047"/>
     <use xlink:href="#DejaVuSans-2e" x="505.371094"/>
     <use xlink:href="#DejaVuSans-38" x="537.158203"/>
     <use xlink:href="#DejaVuSans-33" x="600.78125"/>
    </g>
   </g>
   <g id="text_33">
    <!-- Conditional histograms (acentric, real data) -->
    <g transform="translate(433.355625 28.56) scale(0.144 -0.144)">
     <defs>
      <path id="DejaVuSans-43" d="M 4122 4306 
L 4122 3641 
Q 3803 3938 3442 4084 
Q 3081 4231 2675 4231 
Q 1875 4231 1450 3742 
Q 1025 3253 1025 2328 
Q 1025 1406 1450 917 
Q 1875 428 2675 428 
Q 3081 428 3442 575 
Q 3803 722 4122 1019 
L 4122 359 
Q 3791 134 3420 21 
Q 3050 -91 2638 -91 
Q 1578 -91 968 557 
Q 359 1206 359 2328 
Q 359 3453 968 4101 
Q 1578 4750 2638 4750 
Q 3056 4750 3426 4639 
Q 3797 4528 4122 4306 
z
" transform="scale(0.015625)"/>
      <path id="DejaVuSans-6f" d="M 1959 3097 
Q 1497 3097 1228 2736 
Q 959 2375 959 1747 
Q 959 1119 1226 758 
Q 1494 397 1959 397 
Q 2419 397 2687 759 
Q 2956 1122 2956 1747 
Q 2956 2369 2687 2733 
Q 2419 3097 1959 3097 
z
M 1959 3584 
Q 2709 3584 3137 3096 
Q 3566 2609 3566 1747 
Q 3566 888 3137 398 
Q 2709 -91 1959 -91 
Q 1206 -91 779 398 
Q 353 888 353 1747 
Q 353 2609 779 3096 
Q 1206 3584 1959 3584 
z
" transform="scale(0.015625)"/>
      <path id="DejaVuSans-6e" d="M 3513 2113 
L 3513 0 
L 2938 0 
L 2938 2094 
Q 2938 2591 2744 2837 
Q 2550 3084 2163 3084 
Q 1697 3084 1428 2787 
Q 1159 2491 1159 1978 
L 1159 0 
L 581 0 
L 581 3500 
L 1159 3500 
L 1159 2956 
Q 1366 3272 1645 3428 
Q 1925 3584 2291 3584 
Q 2894 3584 3203 3211 
Q 3513 2838 3513 2113 
z
" transform="scale(0.015625)"/>
      <path id="DejaVuSans-64" d="M 2906 2969 
L 2906 4863 
L 3481 4863 
L 3481 0 
L 2906 0 
L 2906 525 
Q 2725 213 2448 61 
Q 2172 -91 1784 -91 
Q 1150 -91 751 415 
Q 353 922 353 1747 
Q 353 2572 751 3078 
Q 1150 3584 1784 3584 
Q 2172 3584 2448 3432 
Q 2725 3281 2906 2969 
z
M 947 1747 
Q 947 1113 1208 752 
Q 1469 391 1925 391 
Q 2381 391 2643 752 
Q 2906 1113 2906 1747 
Q 2906 2381 2643 2742 
Q 2381 3103 1925 3103 
Q 1469 3103 1208 2742 
Q 947 2381 947 1747 
z
" transform="scale(0.015625)"/>
      <path id="DejaVuSans-69" d="M 603 3500 
L 1178 3500 
L 1178 0 
L 603 0 
L 603 3500 
z
M 603 4863 
L 1178 4863 
L 1178 4134 
L 603 4134 
L 603 4863 
z
" transform="scale(0.015625)"/>
      <path id="DejaVuSans-74" d="M 1172 4494 
L 1172 3500 
L 2356 3500 
L 2356 3053 
L 1172 3053 
L 1172 1153 
Q 1172 725 1289 603 
Q 1406 481 1766 481 
L 2356 481 
L 2356 0 
L 1766 0 
Q 1100 0 847 248 
Q 594 497 594 1153 
L 594 3053 
L 172 3053 
L 172 3500 
L 594 3500 
L 594 4494 
L 1172 4494 
z
" transform="scale(0.015625)"/>
      <path id="DejaVuSans-61" d="M 2194 1759 
Q 1497 1759 1228 1600 
Q 959 1441 959 1056 
Q 959 750 1161 570 
Q 1363 391 1709 391 
Q 2188 391 2477 730 
Q 2766 1069 2766 1631 
L 2766 1759 
L 2194 1759 
z
M 3341 1997 
L 3341 0 
L 2766 0 
L 2766 531 
Q 2569 213 2275 61 
Q 1981 -91 1556 -91 
Q 1019 -91 701 211 
Q 384 513 384 1019 
Q 384 1609 779 1909 
Q 1175 2209 1959 2209 
L 2766 2209 
L 2766 2266 
Q 2766 2663 2505 2880 
Q 2244 3097 1772 3097 
Q 1472 3097 1187 3025 
Q 903 2953 641 2809 
L 641 3341 
Q 956 3463 1253 3523 
Q 1550 3584 1831 3584 
Q 2591 3584 2966 3190 
Q 3341 2797 3341 1997 
z
" transform="scale(0.015625)"/>
      <path id="DejaVuSans-6c" d="M 603 4863 
L 1178 4863 
L 1178 0 
L 603 0 
L 603 4863 
z
" transform="scale(0.015625)"/>
      <path id="DejaVuSans-68" d="M 3513 2113 
L 3513 0 
L 2938 0 
L 2938 2094 
Q 2938 2591 2744 2837 
Q 2550 3084 2163 3084 
Q 1697 3084 1428 2787 
Q 1159 2491 1159 1978 
L 1159 0 
L 581 0 
L 581 4863 
L 1159 4863 
L 1159 2956 
Q 1366 3272 1645 3428 
Q 1925 3584 2291 3584 
Q 2894 3584 3203 3211 
Q 3513 2838 3513 2113 
z
" transform="scale(0.015625)"/>
      <path id="DejaVuSans-73" d="M 2834 3397 
L 2834 2853 
Q 2591 2978 2328 3040 
Q 2066 3103 1784 3103 
Q 1356 3103 1142 2972 
Q 928 2841 928 2578 
Q 928 2378 1081 2264 
Q 1234 2150 1697 2047 
L 1894 2003 
Q 2506 1872 2764 1633 
Q 3022 1394 3022 966 
Q 3022 478 2636 193 
Q 2250 -91 1575 -91 
Q 1294 -91 989 -36 
Q 684 19 347 128 
L 347 722 
Q 666 556 975 473 
Q 1284 391 1588 391 
Q 1994 391 2212 530 
Q 2431 669 2431 922 
Q 2431 1156 2273 1281 
Q 2116 1406 1581 1522 
L 1381 1569 
Q 847 1681 609 1914 
Q 372 2147 372 2553 
Q 372 3047 722 3315 
Q 1072 3584 1716 3584 
Q 2034 3584 2315 3537 
Q 2597 3491 2834 3397 
z
" transform="scale(0.015625)"/>
      <path id="DejaVuSans-67" d="M 2906 1791 
Q 2906 2416 2648 2759 
Q 2391 3103 1925 3103 
Q 1463 3103 1205 2759 
Q 947 2416 947 1791 
Q 947 1169 1205 825 
Q 1463 481 1925 481 
Q 2391 481 2648 825 
Q 2906 1169 2906 1791 
z
M 3481 434 
Q 3481 -459 3084 -895 
Q 2688 -1331 1869 -1331 
Q 1566 -1331 1297 -1286 
Q 1028 -1241 775 -1147 
L 775 -588 
Q 1028 -725 1275 -790 
Q 1522 -856 1778 -856 
Q 2344 -856 2625 -561 
Q 2906 -266 2906 331 
L 2906 616 
Q 2728 306 2450 153 
Q 2172 0 1784 0 
Q 1141 0 747 490 
Q 353 981 353 1791 
Q 353 2603 747 3093 
Q 1141 3584 1784 3584 
Q 2172 3584 2450 3431 
Q 2728 3278 2906 2969 
L 2906 3500 
L 3481 3500 
L 3481 434 
z
" transform="scale(0.015625)"/>
      <path id="DejaVuSans-72" d="M 2631 2963 
Q 2534 3019 2420 3045 
Q 2306 3072 2169 3072 
Q 1681 3072 1420 2755 
Q 1159 2438 1159 1844 
L 1159 0 
L 581 0 
L 581 3500 
L 1159 3500 
L 1159 2956 
Q 1341 3275 1631 3429 
Q 1922 3584 2338 3584 
Q 2397 3584 2469 3576 
Q 2541 3569 2628 3553 
L 2631 2963 
z
" transform="scale(0.015625)"/>
      <path id="DejaVuSans-6d" d="M 3328 2828 
Q 3544 3216 3844 3400 
Q 4144 3584 4550 3584 
Q 5097 3584 5394 3201 
Q 5691 2819 5691 2113 
L 5691 0 
L 5113 0 
L 5113 2094 
Q 5113 2597 4934 2840 
Q 4756 3084 4391 3084 
Q 3944 3084 3684 2787 
Q 3425 2491 3425 1978 
L 3425 0 
L 2847 0 
L 2847 2094 
Q 2847 2600 2669 2842 
Q 2491 3084 2119 3084 
Q 1678 3084 1418 2786 
Q 1159 2488 1159 1978 
L 1159 0 
L 581 0 
L 581 3500 
L 1159 3500 
L 1159 2956 
Q 1356 3278 1631 3431 
Q 1906 3584 2284 3584 
Q 2666 3584 2933 3390 
Q 3200 3197 3328 2828 
z
" transform="scale(0.015625)"/>
      <path id="DejaVuSans-28" d="M 1984 4856 
Q 1566 4138 1362 3434 
Q 1159 2731 1159 2009 
Q 1159 1288 1364 580 
Q 1569 -128 1984 -844 
L 1484 -844 
Q 1016 -109 783 600 
Q 550 1309 550 2009 
Q 550 2706 781 3412 
Q 1013 4119 1484 4856 
L 1984 4856 
z
" transform="scale(0.015625)"/>
      <path id="DejaVuSans-63" d="M 3122 3366 
L 3122 2828 
Q 2878 2963 2633 3030 
Q 2388 3097 2138 3097 
Q 1578 3097 1268 2742 
Q 959 2388 959 1747 
Q 959 1106 1268 751 
Q 1578 397 2138 397 
Q 2388 397 2633 464 
Q 2878 531 3122 666 
L 3122 134 
Q 2881 22 2623 -34 
Q 2366 -91 2075 -91 
Q 1284 -91 818 406 
Q 353 903 353 1747 
Q 353 2603 823 3093 
Q 1294 3584 2113 3584 
Q 2378 3584 2631 3529 
Q 2884 3475 3122 3366 
z
" transform="scale(0.015625)"/>
      <path id="DejaVuSans-65" d="M 3597 1894 
L 3597 1613 
L 953 1613 
Q 991 1019 1311 708 
Q 1631 397 2203 397 
Q 2534 397 2845 478 
Q 3156 559 3463 722 
L 3463 178 
Q 3153 47 2828 -22 
Q 2503 -91 2169 -91 
Q 1331 -91 842 396 
Q 353 884 353 1716 
Q 353 2575 817 3079 
Q 1281 3584 2069 3584 
Q 2775 3584 3186 3129 
Q 3597 2675 3597 1894 
z
M 3022 2063 
Q 3016 2534 2758 2815 
Q 2500 3097 2075 3097 
Q 1594 3097 1305 2825 
Q 1016 2553 972 2059 
L 3022 2063 
z
" transform="scale(0.015625)"/>
      <path id="DejaVuSans-2c" d="M 750 794 
L 1409 794 
L 1409 256 
L 897 -744 
L 494 -744 
L 750 256 
L 750 794 
z
" transform="scale(0.015625)"/>
      <path id="DejaVuSans-29" d="M 513 4856 
L 1013 4856 
Q 1481 4119 1714 3412 
Q 1947 2706 1947 2009 
Q 1947 1309 1714 600 
Q 1481 -109 1013 -844 
L 513 -844 
Q 928 -128 1133 580 
Q 1338 1288 1338 2009 
Q 1338 2731 1133 3434 
Q 928 4138 513 4856 
z
" transform="scale(0.015625)"/>
     </defs>
     <use xlink:href="#DejaVuSans-43"/>
     <use xlink:href="#DejaVuSans-6f" x="69.824219"/>
     <use xlink:href="#DejaVuSans-6e" x="131.005859"/>
     <use xlink:href="#DejaVuSans-64" x="194.384766"/>
     <use xlink:href="#DejaVuSans-69" x="257.861328"/>
     <use xlink:href="#DejaVuSans-74" x="285.644531"/>
     <use xlink:href="#DejaVuSans-69" x="324.853516"/>
     <use xlink:href="#DejaVuSans-6f" x="352.636719"/>
     <use xlink:href="#DejaVuSans-6e" x="413.818359"/>
     <use xlink:href="#DejaVuSans-61" x="477.197266"/>
     <use xlink:href="#DejaVuSans-6c" x="538.476562"/>
     <use xlink:href="#DejaVuSans-20" x="566.259766"/>
     <use xlink:href="#DejaVuSans-68" x="598.046875"/>
     <use xlink:href="#DejaVuSans-69" x="661.425781"/>
     <use xlink:href="#DejaVuSans-73" x="689.208984"/>
     <use xlink:href="#DejaVuSans-74" x="741.308594"/>
     <use xlink:href="#DejaVuSans-6f" x="780.517578"/>
     <use xlink:href="#DejaVuSans-67" x="841.699219"/>
     <use xlink:href="#DejaVuSans-72" x="905.175781"/>
     <use xlink:href="#DejaVuSans-61" x="946.289062"/>
     <use xlink:href="#DejaVuSans-6d" x="1007.568359"/>
     <use xlink:href="#DejaVuSans-73" x="1104.980469"/>
     <use xlink:href="#DejaVuSans-20" x="1157.080078"/>
     <use xlink:href="#DejaVuSans-28" x="1188.867188"/>
     <use xlink:href="#DejaVuSans-61" x="1227.880859"/>
     <use xlink:href="#DejaVuSans-63" x="1289.160156"/>
     <use xlink:href="#DejaVuSans-65" x="1344.140625"/>
     <use xlink:href="#DejaVuSans-6e" x="1405.664062"/>
     <use xlink:href="#DejaVuSans-74" x="1469.042969"/>
     <use xlink:href="#DejaVuSans-72" x="1508.251953"/>
     <use xlink:href="#DejaVuSans-69" x="1549.365234"/>
     <use xlink:href="#DejaVuSans-63" x="1577.148438"/>
     <use xlink:href="#DejaVuSans-2c" x="1632.128906"/>
     <use xlink:href="#DejaVuSans-20" x="1663.916016"/>
     <use xlink:href="#DejaVuSans-72" x="1695.703125"/>
     <use xlink:href="#DejaVuSans-65" x="1734.566406"/>
     <use xlink:href="#DejaVuSans-61" x="1796.089844"/>
     <use xlink:href="#DejaVuSans-6c" x="1857.369141"/>
     <use xlink:href="#DejaVuSans-20" x="1885.152344"/>
     <use xlink:href="#DejaVuSans-64" x="1916.939453"/>
     <use xlink:href="#DejaVuSans-61" x="1980.416016"/>
     <use xlink:href="#DejaVuSans-74" x="2041.695312"/>
     <use xlink:href="#DejaVuSans-61" x="2080.904297"/>
     <use xlink:href="#DejaVuSans-29" x="2142.183594"/>
    </g>
   </g>
  </g>
  <g id="axes_3">
   <g id="patch_110">
    <path d="M 774.211765 256.32 
L 1036.8 256.32 
L 1036.8 34.56 
L 774.211765 34.56 
z
" style="fill: #ffffff"/>
   </g>
   <g id="patch_111">
    <path d="M 774.211765 256.32 
L 783.143337 256.32 
L 783.143337 256.32 
L 774.211765 256.32 
z
" clip-path="url(#p08e315747e)" style="fill: #1f77b4"/>
   </g>
   <g id="patch_112">
    <path d="M 783.143337 256.32 
L 792.07491 256.32 
L 792.07491 253.72481 
L 783.143337 253.72481 
z
" clip-path="url(#p08e315747e)" style="fill: #1f77b4"/>
   </g>
   <g id="patch_113">
    <path d="M 792.07491 256.32 
L 801.006483 256.32 
L 801.006483 248.534431 
L 792.07491 248.534431 
z
" clip-path="url(#p08e315747e)" style="fill: #1f77b4"/>
   </g>
   <g id="patch_114">
    <path d="M 801.006483 256.32 
L 809.938055 256.32 
L 809.938055 249.832026 
L 801.006483 249.832026 
z
" clip-path="url(#p08e315747e)" style="fill: #1f77b4"/>
   </g>
   <g id="patch_115">
    <path d="M 809.938055 256.32 
L 818.869628 256.32 
L 818.869628 240.748863 
L 809.938055 240.748863 
z
" clip-path="url(#p08e315747e)" style="fill: #1f77b4"/>
   </g>
   <g id="patch_116">
    <path d="M 818.869628 256.32 
L 827.8012 256.32 
L 827.8012 235.558484 
L 818.869628 235.558484 
z
" clip-path="url(#p08e315747e)" style="fill: #1f77b4"/>
   </g>
   <g id="patch_117">
    <path d="M 827.8012 256.32 
L 836.732773 256.32 
L 836.732773 216.094562 
L 827.8012 216.094562 
z
" clip-path="url(#p08e315747e)" style="fill: #1f77b4"/>
   </g>
   <g id="patch_118">
    <path d="M 836.732773 256.32 
L 845.664346 256.32 
L 845.664346 210.904183 
L 836.732773 210.904183 
z
" clip-path="url(#p08e315747e)" style="fill: #1f77b4"/>
   </g>
   <g id="patch_119">
    <path d="M 845.664346 256.32 
L 854.595918 256.32 
L 854.595918 204.416209 
L 845.664346 204.416209 
z
" clip-path="url(#p08e315747e)" style="fill: #1f77b4"/>
   </g>
   <g id="patch_120">
    <path d="M 854.595918 256.32 
L 863.527491 256.32 
L 863.527491 152.512418 
L 854.595918 152.512418 
z
" clip-path="url(#p08e315747e)" style="fill: #1f77b4"/>
   </g>
   <g id="patch_121">
    <path d="M 863.527491 256.32 
L 872.459064 256.32 
L 872.459064 181.059503 
L 863.527491 181.059503 
z
" clip-path="url(#p08e315747e)" style="fill: #1f77b4"/>
   </g>
   <g id="patch_122">
    <path d="M 872.459064 256.32 
L 881.390636 256.32 
L 881.390636 138.238875 
L 872.459064 138.238875 
z
" clip-path="url(#p08e315747e)" style="fill: #1f77b4"/>
   </g>
   <g id="patch_123">
    <path d="M 881.390636 256.32 
L 890.322209 256.32 
L 890.322209 125.262927 
L 881.390636 125.262927 
z
" clip-path="url(#p08e315747e)" style="fill: #1f77b4"/>
   </g>
   <g id="patch_124">
    <path d="M 890.322209 256.32 
L 899.253782 256.32 
L 899.253782 107.0966 
L 890.322209 107.0966 
z
" clip-path="url(#p08e315747e)" style="fill: #1f77b4"/>
   </g>
   <g id="patch_125">
    <path d="M 899.253782 256.32 
L 908.185354 256.32 
L 908.185354 69.466352 
L 899.253782 69.466352 
z
" clip-path="url(#p08e315747e)" style="fill: #1f77b4"/>
   </g>
   <g id="patch_126">
    <path d="M 908.185354 256.32 
L 917.116927 256.32 
L 917.116927 117.477359 
L 908.185354 117.477359 
z
" clip-path="url(#p08e315747e)" style="fill: #1f77b4"/>
   </g>
   <g id="patch_127">
    <path d="M 917.116927 256.32 
L 926.048499 256.32 
L 926.048499 129.155712 
L 917.116927 129.155712 
z
" clip-path="url(#p08e315747e)" style="fill: #1f77b4"/>
   </g>
   <g id="patch_128">
    <path d="M 926.048499 256.32 
L 934.980072 256.32 
L 934.980072 161.595581 
L 926.048499 161.595581 
z
" clip-path="url(#p08e315747e)" style="fill: #1f77b4"/>
   </g>
   <g id="patch_129">
    <path d="M 934.980072 256.32 
L 943.911645 256.32 
L 943.911645 174.571529 
L 934.980072 174.571529 
z
" clip-path="url(#p08e315747e)" style="fill: #1f77b4"/>
   </g>
   <g id="patch_130">
    <path d="M 943.911645 256.32 
L 952.843217 256.32 
L 952.843217 191.440261 
L 943.911645 191.440261 
z
" clip-path="url(#p08e315747e)" style="fill: #1f77b4"/>
   </g>
   <g id="patch_131">
    <path d="M 952.843217 256.32 
L 961.77479 256.32 
L 961.77479 219.987346 
L 952.843217 219.987346 
z
" clip-path="url(#p08e315747e)" style="fill: #1f77b4"/>
   </g>
   <g id="patch_132">
    <path d="M 961.77479 256.32 
L 970.706363 256.32 
L 970.706363 231.665699 
L 961.77479 231.665699 
z
" clip-path="url(#p08e315747e)" style="fill: #1f77b4"/>
   </g>
   <g id="patch_133">
    <path d="M 970.706363 256.32 
L 979.637935 256.32 
L 979.637935 236.856078 
L 970.706363 236.856078 
z
" clip-path="url(#p08e315747e)" style="fill: #1f77b4"/>
   </g>
   <g id="patch_134">
    <path d="M 979.637935 256.32 
L 988.569508 256.32 
L 988.569508 242.046457 
L 979.637935 242.046457 
z
" clip-path="url(#p08e315747e)" style="fill: #1f77b4"/>
   </g>
   <g id="patch_135">
    <path d="M 988.569508 256.32 
L 997.50108 256.32 
L 997.50108 248.534431 
L 988.569508 248.534431 
z
" clip-path="url(#p08e315747e)" style="fill: #1f77b4"/>
   </g>
   <g id="patch_136">
    <path d="M 997.50108 256.32 
L 1006.432653 256.32 
L 1006.432653 255.022405 
L 997.50108 255.022405 
z
" clip-path="url(#p08e315747e)" style="fill: #1f77b4"/>
   </g>
   <g id="patch_137">
    <path d="M 1006.432653 256.32 
L 1015.364226 256.32 
L 1015.364226 253.72481 
L 1006.432653 253.72481 
z
" clip-path="url(#p08e315747e)" style="fill: #1f77b4"/>
   </g>
   <g id="patch_138">
    <path d="M 1015.364226 256.32 
L 1024.295798 256.32 
L 1024.295798 253.72481 
L 1015.364226 253.72481 
z
" clip-path="url(#p08e315747e)" style="fill: #1f77b4"/>
   </g>
   <g id="patch_139">
    <path d="M 1024.295798 256.32 
L 1033.227371 256.32 
L 1033.227371 256.32 
L 1024.295798 256.32 
z
" clip-path="url(#p08e315747e)" style="fill: #1f77b4"/>
   </g>
   <g id="patch_140">
    <path d="M 1033.227371 256.32 
L 1042.158944 256.32 
L 1042.158944 256.32 
L 1033.227371 256.32 
z
" clip-path="url(#p08e315747e)" style="fill: #1f77b4"/>
   </g>
   <g id="patch_141">
    <path d="M 1042.158944 256.32 
L 1051.090516 256.32 
L 1051.090516 256.32 
L 1042.158944 256.32 
z
" clip-path="url(#p08e315747e)" style="fill: #1f77b4"/>
   </g>
   <g id="patch_142">
    <path d="M 1051.090516 256.32 
L 1060.022089 256.32 
L 1060.022089 256.32 
L 1051.090516 256.32 
z
" clip-path="url(#p08e315747e)" style="fill: #1f77b4"/>
   </g>
   <g id="patch_143">
    <path d="M 1060.022089 256.32 
L 1068.953661 256.32 
L 1068.953661 255.022405 
L 1060.022089 255.022405 
z
" clip-path="url(#p08e315747e)" style="fill: #1f77b4"/>
   </g>
   <g id="patch_144">
    <path d="M 1068.953661 256.32 
L 1077.885234 256.32 
L 1077.885234 256.32 
L 1068.953661 256.32 
z
" clip-path="url(#p08e315747e)" style="fill: #1f77b4"/>
   </g>
   <g id="patch_145">
    <path d="M 1077.885234 256.32 
L 1086.816807 256.32 
L 1086.816807 256.32 
L 1077.885234 256.32 
z
" clip-path="url(#p08e315747e)" style="fill: #1f77b4"/>
   </g>
   <g id="patch_146">
    <path d="M 1086.816807 256.32 
L 1095.748379 256.32 
L 1095.748379 256.32 
L 1086.816807 256.32 
z
" clip-path="url(#p08e315747e)" style="fill: #1f77b4"/>
   </g>
   <g id="patch_147">
    <path d="M 1095.748379 256.32 
L 1104.679952 256.32 
L 1104.679952 256.32 
L 1095.748379 256.32 
z
" clip-path="url(#p08e315747e)" style="fill: #1f77b4"/>
   </g>
   <g id="patch_148">
    <path d="M 1104.679952 256.32 
L 1113.611525 256.32 
L 1113.611525 256.32 
L 1104.679952 256.32 
z
" clip-path="url(#p08e315747e)" style="fill: #1f77b4"/>
   </g>
   <g id="patch_149">
    <path d="M 1113.611525 256.32 
L 1122.543097 256.32 
L 1122.543097 256.32 
L 1113.611525 256.32 
z
" clip-path="url(#p08e315747e)" style="fill: #1f77b4"/>
   </g>
   <g id="patch_150">
    <path d="M 1122.543097 256.32 
L 1131.47467 256.32 
L 1131.47467 256.32 
L 1122.543097 256.32 
z
" clip-path="url(#p08e315747e)" style="fill: #1f77b4"/>
   </g>
   <g id="patch_151">
    <path d="M 1131.47467 256.32 
L 1140.406242 256.32 
L 1140.406242 256.32 
L 1131.47467 256.32 
z
" clip-path="url(#p08e315747e)" style="fill: #1f77b4"/>
   </g>
   <g id="patch_152">
    <path d="M 1140.406242 256.32 
L 1149.337815 256.32 
L 1149.337815 256.32 
L 1140.406242 256.32 
z
" clip-path="url(#p08e315747e)" style="fill: #1f77b4"/>
   </g>
   <g id="patch_153">
    <path d="M 1149.337815 256.32 
L 1158.269388 256.32 
L 1158.269388 256.32 
L 1149.337815 256.32 
z
" clip-path="url(#p08e315747e)" style="fill: #1f77b4"/>
   </g>
   <g id="patch_154">
    <path d="M 1158.269388 256.32 
L 1167.20096 256.32 
L 1167.20096 256.32 
L 1158.269388 256.32 
z
" clip-path="url(#p08e315747e)" style="fill: #1f77b4"/>
   </g>
   <g id="patch_155">
    <path d="M 1167.20096 256.32 
L 1176.132533 256.32 
L 1176.132533 256.32 
L 1167.20096 256.32 
z
" clip-path="url(#p08e315747e)" style="fill: #1f77b4"/>
   </g>
   <g id="patch_156">
    <path d="M 1176.132533 256.32 
L 1185.064106 256.32 
L 1185.064106 256.32 
L 1176.132533 256.32 
z
" clip-path="url(#p08e315747e)" style="fill: #1f77b4"/>
   </g>
   <g id="patch_157">
    <path d="M 1185.064106 256.32 
L 1193.995678 256.32 
L 1193.995678 256.32 
L 1185.064106 256.32 
z
" clip-path="url(#p08e315747e)" style="fill: #1f77b4"/>
   </g>
   <g id="patch_158">
    <path d="M 1193.995678 256.32 
L 1202.927251 256.32 
L 1202.927251 256.32 
L 1193.995678 256.32 
z
" clip-path="url(#p08e315747e)" style="fill: #1f77b4"/>
   </g>
   <g id="patch_159">
    <path d="M 1202.927251 256.32 
L 1211.858824 256.32 
L 1211.858824 256.32 
L 1202.927251 256.32 
z
" clip-path="url(#p08e315747e)" style="fill: #1f77b4"/>
   </g>
   <g id="matplotlib.axis_5">
    <g id="xtick_15">
     <g id="line2d_37">
      <g>
       <use xlink:href="#mbbee1e1c23" x="774.211765" y="256.32" style="stroke: #000000; stroke-width: 0.8"/>
      </g>
     </g>
     <g id="text_34">
      <!-- 0.0 -->
      <g transform="translate(764.66989 272.438125) scale(0.12 -0.12)">
       <use xlink:href="#DejaVuSans-30"/>
       <use xlink:href="#DejaVuSans-2e" x="63.623047"/>
       <use xlink:href="#DejaVuSans-30" x="95.410156"/>
      </g>
     </g>
    </g>
    <g id="xtick_16">
     <g id="line2d_38">
      <g>
       <use xlink:href="#mbbee1e1c23" x="817.976471" y="256.32" style="stroke: #000000; stroke-width: 0.8"/>
      </g>
     </g>
     <g id="text_35">
      <!-- 0.5 -->
      <g transform="translate(808.434596 272.438125) scale(0.12 -0.12)">
       <use xlink:href="#DejaVuSans-30"/>
       <use xlink:href="#DejaVuSans-2e" x="63.623047"/>
       <use xlink:href="#DejaVuSans-35" x="95.410156"/>
      </g>
     </g>
    </g>
    <g id="xtick_17">
     <g id="line2d_39">
      <g>
       <use xlink:href="#mbbee1e1c23" x="861.741176" y="256.32" style="stroke: #000000; stroke-width: 0.8"/>
      </g>
     </g>
     <g id="text_36">
      <!-- 1.0 -->
      <g transform="translate(852.199301 272.438125) scale(0.12 -0.12)">
       <use xlink:href="#DejaVuSans-31"/>
       <use xlink:href="#DejaVuSans-2e" x="63.623047"/>
       <use xlink:href="#DejaVuSans-30" x="95.410156"/>
      </g>
     </g>
    </g>
    <g id="xtick_18">
     <g id="line2d_40">
      <g>
       <use xlink:href="#mbbee1e1c23" x="905.505882" y="256.32" style="stroke: #000000; stroke-width: 0.8"/>
      </g>
     </g>
     <g id="text_37">
      <!-- 1.5 -->
      <g transform="translate(895.964007 272.438125) scale(0.12 -0.12)">
       <use xlink:href="#DejaVuSans-31"/>
       <use xlink:href="#DejaVuSans-2e" x="63.623047"/>
       <use xlink:href="#DejaVuSans-35" x="95.410156"/>
      </g>
     </g>
    </g>
    <g id="xtick_19">
     <g id="line2d_41">
      <g>
       <use xlink:href="#mbbee1e1c23" x="949.270588" y="256.32" style="stroke: #000000; stroke-width: 0.8"/>
      </g>
     </g>
     <g id="text_38">
      <!-- 2.0 -->
      <g transform="translate(939.728713 272.438125) scale(0.12 -0.12)">
       <use xlink:href="#DejaVuSans-32"/>
       <use xlink:href="#DejaVuSans-2e" x="63.623047"/>
       <use xlink:href="#DejaVuSans-30" x="95.410156"/>
      </g>
     </g>
    </g>
    <g id="xtick_20">
     <g id="line2d_42">
      <g>
       <use xlink:href="#mbbee1e1c23" x="993.035294" y="256.32" style="stroke: #000000; stroke-width: 0.8"/>
      </g>
     </g>
     <g id="text_39">
      <!-- 2.5 -->
      <g transform="translate(983.493419 272.438125) scale(0.12 -0.12)">
       <use xlink:href="#DejaVuSans-32"/>
       <use xlink:href="#DejaVuSans-2e" x="63.623047"/>
       <use xlink:href="#DejaVuSans-35" x="95.410156"/>
      </g>
     </g>
    </g>
    <g id="xtick_21">
     <g id="line2d_43">
      <g>
       <use xlink:href="#mbbee1e1c23" x="1036.8" y="256.32" style="stroke: #000000; stroke-width: 0.8"/>
      </g>
     </g>
     <g id="text_40">
      <!-- 3.0 -->
      <g transform="translate(1027.258125 272.438125) scale(0.12 -0.12)">
       <use xlink:href="#DejaVuSans-33"/>
       <use xlink:href="#DejaVuSans-2e" x="63.623047"/>
       <use xlink:href="#DejaVuSans-30" x="95.410156"/>
      </g>
     </g>
    </g>
   </g>
   <g id="matplotlib.axis_6">
    <g id="ytick_17">
     <g id="line2d_44">
      <g>
       <use xlink:href="#mfaee29b04b" x="774.211765" y="256.32" style="stroke: #000000; stroke-width: 0.8"/>
      </g>
     </g>
     <g id="text_41">
      <!-- 0.0 -->
      <g transform="translate(748.128015 260.879063) scale(0.12 -0.12)">
       <use xlink:href="#DejaVuSans-30"/>
       <use xlink:href="#DejaVuSans-2e" x="63.623047"/>
       <use xlink:href="#DejaVuSans-30" x="95.410156"/>
      </g>
     </g>
    </g>
    <g id="ytick_18">
     <g id="line2d_45">
      <g>
       <use xlink:href="#mfaee29b04b" x="774.211765" y="224.22439" style="stroke: #000000; stroke-width: 0.8"/>
      </g>
     </g>
     <g id="text_42">
      <!-- 0.2 -->
      <g transform="translate(748.128015 228.783453) scale(0.12 -0.12)">
       <use xlink:href="#DejaVuSans-30"/>
       <use xlink:href="#DejaVuSans-2e" x="63.623047"/>
       <use xlink:href="#DejaVuSans-32" x="95.410156"/>
      </g>
     </g>
    </g>
    <g id="ytick_19">
     <g id="line2d_46">
      <g>
       <use xlink:href="#mfaee29b04b" x="774.211765" y="192.128781" style="stroke: #000000; stroke-width: 0.8"/>
      </g>
     </g>
     <g id="text_43">
      <!-- 0.4 -->
      <g transform="translate(748.128015 196.687843) scale(0.12 -0.12)">
       <use xlink:href="#DejaVuSans-30"/>
       <use xlink:href="#DejaVuSans-2e" x="63.623047"/>
       <use xlink:href="#DejaVuSans-34" x="95.410156"/>
      </g>
     </g>
    </g>
    <g id="ytick_20">
     <g id="line2d_47">
      <g>
       <use xlink:href="#mfaee29b04b" x="774.211765" y="160.033171" style="stroke: #000000; stroke-width: 0.8"/>
      </g>
     </g>
     <g id="text_44">
      <!-- 0.6 -->
      <g transform="translate(748.128015 164.592234) scale(0.12 -0.12)">
       <use xlink:href="#DejaVuSans-30"/>
       <use xlink:href="#DejaVuSans-2e" x="63.623047"/>
       <use xlink:href="#DejaVuSans-36" x="95.410156"/>
      </g>
     </g>
    </g>
    <g id="ytick_21">
     <g id="line2d_48">
      <g>
       <use xlink:href="#mfaee29b04b" x="774.211765" y="127.937562" style="stroke: #000000; stroke-width: 0.8"/>
      </g>
     </g>
     <g id="text_45">
      <!-- 0.8 -->
      <g transform="translate(748.128015 132.496624) scale(0.12 -0.12)">
       <use xlink:href="#DejaVuSans-30"/>
       <use xlink:href="#DejaVuSans-2e" x="63.623047"/>
       <use xlink:href="#DejaVuSans-38" x="95.410156"/>
      </g>
     </g>
    </g>
    <g id="ytick_22">
     <g id="line2d_49">
      <g>
       <use xlink:href="#mfaee29b04b" x="774.211765" y="95.841952" style="stroke: #000000; stroke-width: 0.8"/>
      </g>
     </g>
     <g id="text_46">
      <!-- 1.0 -->
      <g transform="translate(748.128015 100.401014) scale(0.12 -0.12)">
       <use xlink:href="#DejaVuSans-31"/>
       <use xlink:href="#DejaVuSans-2e" x="63.623047"/>
       <use xlink:href="#DejaVuSans-30" x="95.410156"/>
      </g>
     </g>
    </g>
    <g id="ytick_23">
     <g id="line2d_50">
      <g>
       <use xlink:href="#mfaee29b04b" x="774.211765" y="63.746342" style="stroke: #000000; stroke-width: 0.8"/>
      </g>
     </g>
     <g id="text_47">
      <!-- 1.2 -->
      <g transform="translate(748.128015 68.305405) scale(0.12 -0.12)">
       <use xlink:href="#DejaVuSans-31"/>
       <use xlink:href="#DejaVuSans-2e" x="63.623047"/>
       <use xlink:href="#DejaVuSans-32" x="95.410156"/>
      </g>
     </g>
    </g>
   </g>
   <g id="line2d_51">
    <path d="M 774.211765 256.32 
L 776.864171 256.31888 
L 779.516578 256.317473 
L 782.168984 256.315441 
L 784.82139 256.312348 
L 787.473797 256.307592 
L 790.126203 256.300327 
L 792.77861 256.289364 
L 795.431016 256.273039 
L 798.083422 256.249053 
L 800.735829 256.21426 
L 803.388235 256.164419 
L 806.040642 256.093882 
L 808.693048 255.995229 
L 811.345455 255.85884 
L 813.997861 255.672415 
L 816.650267 255.420444 
L 819.302674 255.083646 
L 821.95508 254.638398 
L 824.607487 254.056197 
L 827.259893 253.30318 
L 829.912299 252.339782 
L 832.564706 251.120564 
L 835.217112 249.594313 
L 837.869519 247.70446 
L 840.521925 245.389896 
L 843.174332 242.586256 
L 845.826738 239.2277 
L 848.479144 235.249223 
L 851.131551 230.589492 
L 853.783957 225.194141 
L 856.436364 219.019445 
L 859.08877 212.036239 
L 861.741176 204.233886 
L 864.393583 195.624071 
L 867.045989 186.244181 
L 869.698396 176.159985 
L 872.350802 165.467358 
L 875.003209 154.292806 
L 877.655615 142.792585 
L 880.308021 131.150301 
L 882.960428 119.572933 
L 885.612834 108.285338 
L 888.265241 97.523403 
L 890.917647 87.526099 
L 893.570053 78.526805 
L 896.22246 70.744319 
L 898.874866 64.374049 
L 901.527273 59.579869 
L 904.179679 56.487116 
L 906.832086 55.177143 
L 909.484492 55.683762 
L 912.136898 57.991792 
L 914.789305 62.0378 
L 917.441711 67.712983 
L 920.094118 74.868014 
L 922.746524 83.319546 
L 925.39893 92.857984 
L 928.051337 103.256062 
L 930.703743 114.27775 
L 933.35615 125.686988 
L 936.008556 137.255837 
L 938.660963 148.771633 
L 941.313369 160.042895 
L 943.965775 170.903771 
L 946.618182 181.216949 
L 949.270588 190.875048 
L 951.922995 199.80059 
L 954.575401 207.944729 
L 957.227807 215.284956 
L 959.880214 221.82204 
L 962.53262 227.576464 
L 965.185027 232.584605 
L 967.837433 236.894895 
L 970.48984 240.564143 
L 973.142246 243.654174 
L 975.794652 246.228893 
L 978.447059 248.351823 
L 981.099465 250.084161 
L 983.751872 251.483318 
L 986.404278 252.601929 
L 989.056684 253.487263 
L 991.709091 254.180984 
L 994.361497 254.719182 
L 997.013904 255.132618 
L 999.66631 255.447108 
L 1002.318717 255.684006 
L 1004.971123 255.86073 
L 1007.623529 255.991295 
L 1010.275936 256.086832 
L 1012.928342 256.156071 
L 1015.580749 256.205773 
L 1018.233155 256.241112 
L 1020.885561 256.266002 
L 1023.537968 256.283367 
L 1026.190374 256.295369 
L 1028.842781 256.303585 
L 1031.495187 256.309158 
L 1034.147594 256.312902 
L 1036.8 256.315395 
" clip-path="url(#p08e315747e)" style="fill: none; stroke: #ff0000; stroke-width: 1.5; stroke-linecap: square"/>
   </g>
   <g id="line2d_52">
    <path d="M 774.211765 256.32 
L 776.864171 246.602985 
L 779.516578 236.939433 
L 782.168984 227.382318 
L 784.82139 217.983641 
L 787.473797 208.793956 
L 790.126203 199.861921 
L 792.77861 191.233867 
L 795.431016 182.953399 
L 798.083422 175.061032 
L 800.735829 167.593863 
L 803.388235 160.585289 
L 806.040642 154.064762 
L 808.693048 148.057602 
L 811.345455 142.584853 
L 813.997861 137.663186 
L 816.650267 133.304859 
L 819.302674 129.517718 
L 821.95508 126.305254 
L 824.607487 123.666698 
L 827.259893 121.597165 
L 829.912299 120.087833 
L 832.564706 119.126164 
L 835.217112 118.69615 
L 837.869519 118.778596 
L 840.521925 119.351417 
L 843.174332 120.389961 
L 845.826738 121.867341 
L 848.479144 123.75478 
L 851.131551 126.021956 
L 853.783957 128.637351 
L 856.436364 131.568593 
L 859.08877 134.78279 
L 861.741176 138.246851 
L 864.393583 141.927791 
L 867.045989 145.793023 
L 869.698396 149.810618 
L 872.350802 153.949553 
L 875.003209 158.179925 
L 877.655615 162.473149 
L 880.308021 166.802118 
L 882.960428 171.141347 
L 885.612834 175.467081 
L 888.265241 179.757383 
L 890.917647 183.992195 
L 893.570053 188.153371 
L 896.22246 192.224693 
L 898.874866 196.191863 
L 901.527273 200.042472 
L 904.179679 203.765956 
L 906.832086 207.353535 
L 909.484492 210.79814 
L 912.136898 214.09432 
L 914.789305 217.238156 
L 917.441711 220.227147 
L 920.094118 223.060109 
L 922.746524 225.737061 
L 925.39893 228.259105 
L 928.051337 230.628319 
L 930.703743 232.847638 
L 933.35615 234.920743 
L 936.008556 236.851955 
L 938.660963 238.64613 
L 941.313369 240.308561 
L 943.965775 241.844884 
L 946.618182 243.260995 
L 949.270588 244.562968 
L 951.922995 245.756982 
L 954.575401 246.849259 
L 957.227807 247.846002 
L 959.880214 248.753345 
L 962.53262 249.577308 
L 965.185027 250.323762 
L 967.837433 250.99839 
L 970.48984 251.606667 
L 973.142246 252.153836 
L 975.794652 252.644896 
L 978.447059 253.084583 
L 981.099465 253.477373 
L 983.751872 253.827469 
L 986.404278 254.138807 
L 989.056684 254.415056 
L 991.709091 254.659624 
L 994.361497 254.875663 
L 997.013904 255.06608 
L 999.66631 255.233544 
L 1002.318717 255.3805 
L 1004.971123 255.509179 
L 1007.623529 255.62161 
L 1010.275936 255.719632 
L 1012.928342 255.804908 
L 1015.580749 255.878937 
L 1018.233155 255.943065 
L 1020.885561 255.998498 
L 1023.537968 256.046314 
L 1026.190374 256.087472 
L 1028.842781 256.122825 
L 1031.495187 256.153128 
L 1034.147594 256.179048 
L 1036.8 256.201173 
" clip-path="url(#p08e315747e)" style="fill: none; stroke: #0000ff; stroke-width: 1.5; stroke-linecap: square"/>
   </g>
   <g id="line2d_53">
    <path d="M 920.516433 256.32 
L 920.516433 45.12 
" clip-path="url(#p08e315747e)" style="fill: none; stroke: #000000; stroke-width: 1.5; stroke-linecap: square"/>
   </g>
   <g id="patch_160">
    <path d="M 774.211765 256.32 
L 774.211765 34.56 
" style="fill: none; stroke: #000000; stroke-width: 0.8; stroke-linejoin: miter; stroke-linecap: square"/>
   </g>
   <g id="patch_161">
    <path d="M 1036.8 256.32 
L 1036.8 34.56 
" style="fill: none; stroke: #000000; stroke-width: 0.8; stroke-linejoin: miter; stroke-linecap: square"/>
   </g>
   <g id="patch_162">
    <path d="M 774.211765 256.32 
L 1036.8 256.32 
" style="fill: none; stroke: #000000; stroke-width: 0.8; stroke-linejoin: miter; stroke-linecap: square"/>
   </g>
   <g id="patch_163">
    <path d="M 774.211765 34.56 
L 1036.8 34.56 
" style="fill: none; stroke: #000000; stroke-width: 0.8; stroke-linejoin: miter; stroke-linecap: square"/>
   </g>
   <g id="text_48">
    <!-- &lt;E1&gt; = 1.67 -->
    <g transform="translate(958.023529 66.24) scale(0.1 -0.1)">
     <use xlink:href="#DejaVuSans-3c"/>
     <use xlink:href="#DejaVuSans-45" x="83.789062"/>
     <use xlink:href="#DejaVuSans-31" x="146.972656"/>
     <use xlink:href="#DejaVuSans-3e" x="210.595703"/>
     <use xlink:href="#DejaVuSans-20" x="294.384766"/>
     <use xlink:href="#DejaVuSans-3d" x="326.171875"/>
     <use xlink:href="#DejaVuSans-20" x="409.960938"/>
     <use xlink:href="#DejaVuSans-31" x="441.748047"/>
     <use xlink:href="#DejaVuSans-2e" x="505.371094"/>
     <use xlink:href="#DejaVuSans-36" x="537.158203"/>
     <use xlink:href="#DejaVuSans-37" x="600.78125"/>
    </g>
   </g>
  </g>
 </g>
 <defs>
  <clipPath id="pa475f2587a">
   <rect x="144" y="34.56" width="262.588235" height="221.76"/>
  </clipPath>
  <clipPath id="p1035a14ffe">
   <rect x="459.105882" y="34.56" width="262.588235" height="221.76"/>
  </clipPath>
  <clipPath id="p08e315747e">
   <rect x="774.211765" y="34.56" width="262.588235" height="221.76"/>
  </clipPath>
 </defs>
</svg>
