<?xml version="1.0" encoding="utf-8" standalone="no"?>
<!DOCTYPE svg PUBLIC "-//W3C//DTD SVG 1.1//EN"
  "http://www.w3.org/Graphics/SVG/1.1/DTD/svg11.dtd">
<svg xmlns:xlink="http://www.w3.org/1999/xlink" width="1152pt" height="288pt" viewBox="0 0 1152 288" xmlns="http://www.w3.org/2000/svg" version="1.1">
 <metadata>
  <rdf:RDF xmlns:dc="http://purl.org/dc/elements/1.1/" xmlns:cc="http://creativecommons.org/ns#" xmlns:rdf="http://www.w3.org/1999/02/22-rdf-syntax-ns#">
   <cc:Work>
    <dc:type rdf:resource="http://purl.org/dc/dcmitype/StillImage"/>
    <dc:date>2023-11-04T23:24:03.427664</dc:date>
    <dc:format>image/svg+xml</dc:format>
    <dc:creator>
     <cc:Agent>
      <dc:title>Matplotlib v3.8.0, https://matplotlib.org/</dc:title>
     </cc:Agent>
    </dc:creator>
   </cc:Work>
  </rdf:RDF>
 </metadata>
 <defs>
  <style type="text/css">*{stroke-linejoin: round; stroke-linecap: butt}</style>
 </defs>
 <g id="figure_1">
  <g id="patch_1">
   <path d="M 0 288 
L 1152 288 
L 1152 0 
L 0 0 
z
" style="fill: #ffffff"/>
  </g>
  <g id="axes_1">
   <g id="patch_2">
    <path d="M 144 256.32 
L 406.588235 256.32 
L 406.588235 34.56 
L 144 34.56 
z
" style="fill: #ffffff"/>
   </g>
   <g id="patch_3">
    <path d="M 144 256.32 
L 152.931573 256.32 
L 152.931573 232.656134 
L 144 232.656134 
z
" clip-path="url(#pcdebd6d5fe)" style="fill: #1f77b4"/>
   </g>
   <g id="patch_4">
    <path d="M 152.931573 256.32 
L 161.863145 256.32 
L 161.863145 140.367059 
L 152.931573 140.367059 
z
" clip-path="url(#pcdebd6d5fe)" style="fill: #1f77b4"/>
   </g>
   <g id="patch_5">
    <path d="M 161.863145 256.32 
L 170.794718 256.32 
L 170.794718 95.405714 
L 161.863145 95.405714 
z
" clip-path="url(#pcdebd6d5fe)" style="fill: #1f77b4"/>
   </g>
   <g id="patch_6">
    <path d="M 170.794718 256.32 
L 179.726291 256.32 
L 179.726291 55.177143 
L 170.794718 55.177143 
z
" clip-path="url(#pcdebd6d5fe)" style="fill: #1f77b4"/>
   </g>
   <g id="patch_7">
    <path d="M 179.726291 256.32 
L 188.657863 256.32 
L 188.657863 98.955294 
L 179.726291 98.955294 
z
" clip-path="url(#pcdebd6d5fe)" style="fill: #1f77b4"/>
   </g>
   <g id="patch_8">
    <path d="M 188.657863 256.32 
L 197.589436 256.32 
L 197.589436 145.099832 
L 188.657863 145.099832 
z
" clip-path="url(#pcdebd6d5fe)" style="fill: #1f77b4"/>
   </g>
   <g id="patch_9">
    <path d="M 197.589436 256.32 
L 206.521008 256.32 
L 206.521008 191.24437 
L 197.589436 191.24437 
z
" clip-path="url(#pcdebd6d5fe)" style="fill: #1f77b4"/>
   </g>
   <g id="patch_10">
    <path d="M 206.521008 256.32 
L 215.452581 256.32 
L 215.452581 212.541849 
L 206.521008 212.541849 
z
" clip-path="url(#pcdebd6d5fe)" style="fill: #1f77b4"/>
   </g>
   <g id="patch_11">
    <path d="M 215.452581 256.32 
L 224.384154 256.32 
L 224.384154 236.205714 
L 215.452581 236.205714 
z
" clip-path="url(#pcdebd6d5fe)" style="fill: #1f77b4"/>
   </g>
   <g id="patch_12">
    <path d="M 224.384154 256.32 
L 233.315726 256.32 
L 233.315726 239.755294 
L 224.384154 239.755294 
z
" clip-path="url(#pcdebd6d5fe)" style="fill: #1f77b4"/>
   </g>
   <g id="patch_13">
    <path d="M 233.315726 256.32 
L 242.247299 256.32 
L 242.247299 251.587227 
L 233.315726 251.587227 
z
" clip-path="url(#pcdebd6d5fe)" style="fill: #1f77b4"/>
   </g>
   <g id="patch_14">
    <path d="M 242.247299 256.32 
L 251.178872 256.32 
L 251.178872 253.953613 
L 242.247299 253.953613 
z
" clip-path="url(#pcdebd6d5fe)" style="fill: #1f77b4"/>
   </g>
   <g id="patch_15">
    <path d="M 251.178872 256.32 
L 260.110444 256.32 
L 260.110444 253.953613 
L 251.178872 253.953613 
z
" clip-path="url(#pcdebd6d5fe)" style="fill: #1f77b4"/>
   </g>
   <g id="patch_16">
    <path d="M 260.110444 256.32 
L 269.042017 256.32 
L 269.042017 252.77042 
L 260.110444 252.77042 
z
" clip-path="url(#pcdebd6d5fe)" style="fill: #1f77b4"/>
   </g>
   <g id="patch_17">
    <path d="M 269.042017 256.32 
L 277.973589 256.32 
L 277.973589 253.953613 
L 269.042017 253.953613 
z
" clip-path="url(#pcdebd6d5fe)" style="fill: #1f77b4"/>
   </g>
   <g id="patch_18">
    <path d="M 277.973589 256.32 
L 286.905162 256.32 
L 286.905162 256.32 
L 277.973589 256.32 
z
" clip-path="url(#pcdebd6d5fe)" style="fill: #1f77b4"/>
   </g>
   <g id="patch_19">
    <path d="M 286.905162 256.32 
L 295.836735 256.32 
L 295.836735 256.32 
L 286.905162 256.32 
z
" clip-path="url(#pcdebd6d5fe)" style="fill: #1f77b4"/>
   </g>
   <g id="patch_20">
    <path d="M 295.836735 256.32 
L 304.768307 256.32 
L 304.768307 256.32 
L 295.836735 256.32 
z
" clip-path="url(#pcdebd6d5fe)" style="fill: #1f77b4"/>
   </g>
   <g id="patch_21">
    <path d="M 304.768307 256.32 
L 313.69988 256.32 
L 313.69988 256.32 
L 304.768307 256.32 
z
" clip-path="url(#pcdebd6d5fe)" style="fill: #1f77b4"/>
   </g>
   <g id="patch_22">
    <path d="M 313.69988 256.32 
L 322.631453 256.32 
L 322.631453 256.32 
L 313.69988 256.32 
z
" clip-path="url(#pcdebd6d5fe)" style="fill: #1f77b4"/>
   </g>
   <g id="patch_23">
    <path d="M 322.631453 256.32 
L 331.563025 256.32 
L 331.563025 256.32 
L 322.631453 256.32 
z
" clip-path="url(#pcdebd6d5fe)" style="fill: #1f77b4"/>
   </g>
   <g id="patch_24">
    <path d="M 331.563025 256.32 
L 340.494598 256.32 
L 340.494598 256.32 
L 331.563025 256.32 
z
" clip-path="url(#pcdebd6d5fe)" style="fill: #1f77b4"/>
   </g>
   <g id="patch_25">
    <path d="M 340.494598 256.32 
L 349.42617 256.32 
L 349.42617 256.32 
L 340.494598 256.32 
z
" clip-path="url(#pcdebd6d5fe)" style="fill: #1f77b4"/>
   </g>
   <g id="patch_26">
    <path d="M 349.42617 256.32 
L 358.357743 256.32 
L 358.357743 256.32 
L 349.42617 256.32 
z
" clip-path="url(#pcdebd6d5fe)" style="fill: #1f77b4"/>
   </g>
   <g id="patch_27">
    <path d="M 358.357743 256.32 
L 367.289316 256.32 
L 367.289316 256.32 
L 358.357743 256.32 
z
" clip-path="url(#pcdebd6d5fe)" style="fill: #1f77b4"/>
   </g>
   <g id="patch_28">
    <path d="M 367.289316 256.32 
L 376.220888 256.32 
L 376.220888 256.32 
L 367.289316 256.32 
z
" clip-path="url(#pcdebd6d5fe)" style="fill: #1f77b4"/>
   </g>
   <g id="patch_29">
    <path d="M 376.220888 256.32 
L 385.152461 256.32 
L 385.152461 256.32 
L 376.220888 256.32 
z
" clip-path="url(#pcdebd6d5fe)" style="fill: #1f77b4"/>
   </g>
   <g id="patch_30">
    <path d="M 385.152461 256.32 
L 394.084034 256.32 
L 394.084034 256.32 
L 385.152461 256.32 
z
" clip-path="url(#pcdebd6d5fe)" style="fill: #1f77b4"/>
   </g>
   <g id="patch_31">
    <path d="M 394.084034 256.32 
L 403.015606 256.32 
L 403.015606 256.32 
L 394.084034 256.32 
z
" clip-path="url(#pcdebd6d5fe)" style="fill: #1f77b4"/>
   </g>
   <g id="patch_32">
    <path d="M 403.015606 256.32 
L 411.947179 256.32 
L 411.947179 256.32 
L 403.015606 256.32 
z
" clip-path="url(#pcdebd6d5fe)" style="fill: #1f77b4"/>
   </g>
   <g id="patch_33">
    <path d="M 411.947179 256.32 
L 420.878752 256.32 
L 420.878752 256.32 
L 411.947179 256.32 
z
" clip-path="url(#pcdebd6d5fe)" style="fill: #1f77b4"/>
   </g>
   <g id="patch_34">
    <path d="M 420.878752 256.32 
L 429.810324 256.32 
L 429.810324 256.32 
L 420.878752 256.32 
z
" clip-path="url(#pcdebd6d5fe)" style="fill: #1f77b4"/>
   </g>
   <g id="patch_35">
    <path d="M 429.810324 256.32 
L 438.741897 256.32 
L 438.741897 256.32 
L 429.810324 256.32 
z
" clip-path="url(#pcdebd6d5fe)" style="fill: #1f77b4"/>
   </g>
   <g id="patch_36">
    <path d="M 438.741897 256.32 
L 447.673469 256.32 
L 447.673469 256.32 
L 438.741897 256.32 
z
" clip-path="url(#pcdebd6d5fe)" style="fill: #1f77b4"/>
   </g>
   <g id="patch_37">
    <path d="M 447.673469 256.32 
L 456.605042 256.32 
L 456.605042 256.32 
L 447.673469 256.32 
z
" clip-path="url(#pcdebd6d5fe)" style="fill: #1f77b4"/>
   </g>
   <g id="patch_38">
    <path d="M 456.605042 256.32 
L 465.536615 256.32 
L 465.536615 256.32 
L 456.605042 256.32 
z
" clip-path="url(#pcdebd6d5fe)" style="fill: #1f77b4"/>
   </g>
   <g id="patch_39">
    <path d="M 465.536615 256.32 
L 474.468187 256.32 
L 474.468187 256.32 
L 465.536615 256.32 
z
" clip-path="url(#pcdebd6d5fe)" style="fill: #1f77b4"/>
   </g>
   <g id="patch_40">
    <path d="M 474.468187 256.32 
L 483.39976 256.32 
L 483.39976 256.32 
L 474.468187 256.32 
z
" clip-path="url(#pcdebd6d5fe)" style="fill: #1f77b4"/>
   </g>
   <g id="patch_41">
    <path d="M 483.39976 256.32 
L 492.331333 256.32 
L 492.331333 256.32 
L 483.39976 256.32 
z
" clip-path="url(#pcdebd6d5fe)" style="fill: #1f77b4"/>
   </g>
   <g id="patch_42">
    <path d="M 492.331333 256.32 
L 501.262905 256.32 
L 501.262905 256.32 
L 492.331333 256.32 
z
" clip-path="url(#pcdebd6d5fe)" style="fill: #1f77b4"/>
   </g>
   <g id="patch_43">
    <path d="M 501.262905 256.32 
L 510.194478 256.32 
L 510.194478 256.32 
L 501.262905 256.32 
z
" clip-path="url(#pcdebd6d5fe)" style="fill: #1f77b4"/>
   </g>
   <g id="patch_44">
    <path d="M 510.194478 256.32 
L 519.12605 256.32 
L 519.12605 256.32 
L 510.194478 256.32 
z
" clip-path="url(#pcdebd6d5fe)" style="fill: #1f77b4"/>
   </g>
   <g id="patch_45">
    <path d="M 519.12605 256.32 
L 528.057623 256.32 
L 528.057623 256.32 
L 519.12605 256.32 
z
" clip-path="url(#pcdebd6d5fe)" style="fill: #1f77b4"/>
   </g>
   <g id="patch_46">
    <path d="M 528.057623 256.32 
L 536.989196 256.32 
L 536.989196 256.32 
L 528.057623 256.32 
z
" clip-path="url(#pcdebd6d5fe)" style="fill: #1f77b4"/>
   </g>
   <g id="patch_47">
    <path d="M 536.989196 256.32 
L 545.920768 256.32 
L 545.920768 256.32 
L 536.989196 256.32 
z
" clip-path="url(#pcdebd6d5fe)" style="fill: #1f77b4"/>
   </g>
   <g id="patch_48">
    <path d="M 545.920768 256.32 
L 554.852341 256.32 
L 554.852341 256.32 
L 545.920768 256.32 
z
" clip-path="url(#pcdebd6d5fe)" style="fill: #1f77b4"/>
   </g>
   <g id="patch_49">
    <path d="M 554.852341 256.32 
L 563.783914 256.32 
L 563.783914 256.32 
L 554.852341 256.32 
z
" clip-path="url(#pcdebd6d5fe)" style="fill: #1f77b4"/>
   </g>
   <g id="patch_50">
    <path d="M 563.783914 256.32 
L 572.715486 256.32 
L 572.715486 256.32 
L 563.783914 256.32 
z
" clip-path="url(#pcdebd6d5fe)" style="fill: #1f77b4"/>
   </g>
   <g id="patch_51">
    <path d="M 572.715486 256.32 
L 581.647059 256.32 
L 581.647059 256.32 
L 572.715486 256.32 
z
" clip-path="url(#pcdebd6d5fe)" style="fill: #1f77b4"/>
   </g>
   <g id="matplotlib.axis_1">
    <g id="xtick_1">
     <g id="line2d_1">
      <defs>
       <path id="mba1e8f13ae" d="M 0 0 
L 0 3.5 
" style="stroke: #000000; stroke-width: 0.8"/>
      </defs>
      <g>
       <use xlink:href="#mba1e8f13ae" x="144" y="256.32" style="stroke: #000000; stroke-width: 0.8"/>
      </g>
     </g>
     <g id="text_1">
      <!-- 0.0 -->
      <g transform="translate(134.458125 272.438125) scale(0.12 -0.12)">
       <defs>
        <path id="DejaVuSans-30" d="M 2034 4250 
Q 1547 4250 1301 3770 
Q 1056 3291 1056 2328 
Q 1056 1369 1301 889 
Q 1547 409 2034 409 
Q 2525 409 2770 889 
Q 3016 1369 3016 2328 
Q 3016 3291 2770 3770 
Q 2525 4250 2034 4250 
z
M 2034 4750 
Q 2819 4750 3233 4129 
Q 3647 3509 3647 2328 
Q 3647 1150 3233 529 
Q 2819 -91 2034 -91 
Q 1250 -91 836 529 
Q 422 1150 422 2328 
Q 422 3509 836 4129 
Q 1250 4750 2034 4750 
z
" transform="scale(0.015625)"/>
        <path id="DejaVuSans-2e" d="M 684 794 
L 1344 794 
L 1344 0 
L 684 0 
L 684 794 
z
" transform="scale(0.015625)"/>
       </defs>
       <use xlink:href="#DejaVuSans-30"/>
       <use xlink:href="#DejaVuSans-2e" x="63.623047"/>
       <use xlink:href="#DejaVuSans-30" x="95.410156"/>
      </g>
     </g>
    </g>
    <g id="xtick_2">
     <g id="line2d_2">
      <g>
       <use xlink:href="#mba1e8f13ae" x="187.764706" y="256.32" style="stroke: #000000; stroke-width: 0.8"/>
      </g>
     </g>
     <g id="text_2">
      <!-- 0.5 -->
      <g transform="translate(178.222831 272.438125) scale(0.12 -0.12)">
       <defs>
        <path id="DejaVuSans-35" d="M 691 4666 
L 3169 4666 
L 3169 4134 
L 1269 4134 
L 1269 2991 
Q 1406 3038 1543 3061 
Q 1681 3084 1819 3084 
Q 2600 3084 3056 2656 
Q 3513 2228 3513 1497 
Q 3513 744 3044 326 
Q 2575 -91 1722 -91 
Q 1428 -91 1123 -41 
Q 819 9 494 109 
L 494 744 
Q 775 591 1075 516 
Q 1375 441 1709 441 
Q 2250 441 2565 725 
Q 2881 1009 2881 1497 
Q 2881 1984 2565 2268 
Q 2250 2553 1709 2553 
Q 1456 2553 1204 2497 
Q 953 2441 691 2322 
L 691 4666 
z
" transform="scale(0.015625)"/>
       </defs>
       <use xlink:href="#DejaVuSans-30"/>
       <use xlink:href="#DejaVuSans-2e" x="63.623047"/>
       <use xlink:href="#DejaVuSans-35" x="95.410156"/>
      </g>
     </g>
    </g>
    <g id="xtick_3">
     <g id="line2d_3">
      <g>
       <use xlink:href="#mba1e8f13ae" x="231.529412" y="256.32" style="stroke: #000000; stroke-width: 0.8"/>
      </g>
     </g>
     <g id="text_3">
      <!-- 1.0 -->
      <g transform="translate(221.987537 272.438125) scale(0.12 -0.12)">
       <defs>
        <path id="DejaVuSans-31" d="M 794 531 
L 1825 531 
L 1825 4091 
L 703 3866 
L 703 4441 
L 1819 4666 
L 2450 4666 
L 2450 531 
L 3481 531 
L 3481 0 
L 794 0 
L 794 531 
z
" transform="scale(0.015625)"/>
       </defs>
       <use xlink:href="#DejaVuSans-31"/>
       <use xlink:href="#DejaVuSans-2e" x="63.623047"/>
       <use xlink:href="#DejaVuSans-30" x="95.410156"/>
      </g>
     </g>
    </g>
    <g id="xtick_4">
     <g id="line2d_4">
      <g>
       <use xlink:href="#mba1e8f13ae" x="275.294118" y="256.32" style="stroke: #000000; stroke-width: 0.8"/>
      </g>
     </g>
     <g id="text_4">
      <!-- 1.5 -->
      <g transform="translate(265.752243 272.438125) scale(0.12 -0.12)">
       <use xlink:href="#DejaVuSans-31"/>
       <use xlink:href="#DejaVuSans-2e" x="63.623047"/>
       <use xlink:href="#DejaVuSans-35" x="95.410156"/>
      </g>
     </g>
    </g>
    <g id="xtick_5">
     <g id="line2d_5">
      <g>
       <use xlink:href="#mba1e8f13ae" x="319.058824" y="256.32" style="stroke: #000000; stroke-width: 0.8"/>
      </g>
     </g>
     <g id="text_5">
      <!-- 2.0 -->
      <g transform="translate(309.516949 272.438125) scale(0.12 -0.12)">
       <defs>
        <path id="DejaVuSans-32" d="M 1228 531 
L 3431 531 
L 3431 0 
L 469 0 
L 469 531 
Q 828 903 1448 1529 
Q 2069 2156 2228 2338 
Q 2531 2678 2651 2914 
Q 2772 3150 2772 3378 
Q 2772 3750 2511 3984 
Q 2250 4219 1831 4219 
Q 1534 4219 1204 4116 
Q 875 4013 500 3803 
L 500 4441 
Q 881 4594 1212 4672 
Q 1544 4750 1819 4750 
Q 2544 4750 2975 4387 
Q 3406 4025 3406 3419 
Q 3406 3131 3298 2873 
Q 3191 2616 2906 2266 
Q 2828 2175 2409 1742 
Q 1991 1309 1228 531 
z
" transform="scale(0.015625)"/>
       </defs>
       <use xlink:href="#DejaVuSans-32"/>
       <use xlink:href="#DejaVuSans-2e" x="63.623047"/>
       <use xlink:href="#DejaVuSans-30" x="95.410156"/>
      </g>
     </g>
    </g>
    <g id="xtick_6">
     <g id="line2d_6">
      <g>
       <use xlink:href="#mba1e8f13ae" x="362.823529" y="256.32" style="stroke: #000000; stroke-width: 0.8"/>
      </g>
     </g>
     <g id="text_6">
      <!-- 2.5 -->
      <g transform="translate(353.281654 272.438125) scale(0.12 -0.12)">
       <use xlink:href="#DejaVuSans-32"/>
       <use xlink:href="#DejaVuSans-2e" x="63.623047"/>
       <use xlink:href="#DejaVuSans-35" x="95.410156"/>
      </g>
     </g>
    </g>
    <g id="xtick_7">
     <g id="line2d_7">
      <g>
       <use xlink:href="#mba1e8f13ae" x="406.588235" y="256.32" style="stroke: #000000; stroke-width: 0.8"/>
      </g>
     </g>
     <g id="text_7">
      <!-- 3.0 -->
      <g transform="translate(397.04636 272.438125) scale(0.12 -0.12)">
       <defs>
        <path id="DejaVuSans-33" d="M 2597 2516 
Q 3050 2419 3304 2112 
Q 3559 1806 3559 1356 
Q 3559 666 3084 287 
Q 2609 -91 1734 -91 
Q 1441 -91 1130 -33 
Q 819 25 488 141 
L 488 750 
Q 750 597 1062 519 
Q 1375 441 1716 441 
Q 2309 441 2620 675 
Q 2931 909 2931 1356 
Q 2931 1769 2642 2001 
Q 2353 2234 1838 2234 
L 1294 2234 
L 1294 2753 
L 1863 2753 
Q 2328 2753 2575 2939 
Q 2822 3125 2822 3475 
Q 2822 3834 2567 4026 
Q 2313 4219 1838 4219 
Q 1578 4219 1281 4162 
Q 984 4106 628 3988 
L 628 4550 
Q 988 4650 1302 4700 
Q 1616 4750 1894 4750 
Q 2613 4750 3031 4423 
Q 3450 4097 3450 3541 
Q 3450 3153 3228 2886 
Q 3006 2619 2597 2516 
z
" transform="scale(0.015625)"/>
       </defs>
       <use xlink:href="#DejaVuSans-33"/>
       <use xlink:href="#DejaVuSans-2e" x="63.623047"/>
       <use xlink:href="#DejaVuSans-30" x="95.410156"/>
      </g>
     </g>
    </g>
   </g>
   <g id="matplotlib.axis_2">
    <g id="ytick_1">
     <g id="line2d_8">
      <defs>
       <path id="m64f91a0310" d="M 0 0 
L -3.5 0 
" style="stroke: #000000; stroke-width: 0.8"/>
      </defs>
      <g>
       <use xlink:href="#m64f91a0310" x="144" y="256.32" style="stroke: #000000; stroke-width: 0.8"/>
      </g>
     </g>
     <g id="text_8">
      <!-- 0.0 -->
      <g transform="translate(117.91625 260.879063) scale(0.12 -0.12)">
       <use xlink:href="#DejaVuSans-30"/>
       <use xlink:href="#DejaVuSans-2e" x="63.623047"/>
       <use xlink:href="#DejaVuSans-30" x="95.410156"/>
      </g>
     </g>
    </g>
    <g id="ytick_2">
     <g id="line2d_9">
      <g>
       <use xlink:href="#m64f91a0310" x="144" y="208.811168" style="stroke: #000000; stroke-width: 0.8"/>
      </g>
     </g>
     <g id="text_9">
      <!-- 0.5 -->
      <g transform="translate(117.91625 213.37023) scale(0.12 -0.12)">
       <use xlink:href="#DejaVuSans-30"/>
       <use xlink:href="#DejaVuSans-2e" x="63.623047"/>
       <use xlink:href="#DejaVuSans-35" x="95.410156"/>
      </g>
     </g>
    </g>
    <g id="ytick_3">
     <g id="line2d_10">
      <g>
       <use xlink:href="#m64f91a0310" x="144" y="161.302336" style="stroke: #000000; stroke-width: 0.8"/>
      </g>
     </g>
     <g id="text_10">
      <!-- 1.0 -->
      <g transform="translate(117.91625 165.861398) scale(0.12 -0.12)">
       <use xlink:href="#DejaVuSans-31"/>
       <use xlink:href="#DejaVuSans-2e" x="63.623047"/>
       <use xlink:href="#DejaVuSans-30" x="95.410156"/>
      </g>
     </g>
    </g>
    <g id="ytick_4">
     <g id="line2d_11">
      <g>
       <use xlink:href="#m64f91a0310" x="144" y="113.793504" style="stroke: #000000; stroke-width: 0.8"/>
      </g>
     </g>
     <g id="text_11">
      <!-- 1.5 -->
      <g transform="translate(117.91625 118.352566) scale(0.12 -0.12)">
       <use xlink:href="#DejaVuSans-31"/>
       <use xlink:href="#DejaVuSans-2e" x="63.623047"/>
       <use xlink:href="#DejaVuSans-35" x="95.410156"/>
      </g>
     </g>
    </g>
    <g id="ytick_5">
     <g id="line2d_12">
      <g>
       <use xlink:href="#m64f91a0310" x="144" y="66.284672" style="stroke: #000000; stroke-width: 0.8"/>
      </g>
     </g>
     <g id="text_12">
      <!-- 2.0 -->
      <g transform="translate(117.91625 70.843734) scale(0.12 -0.12)">
       <use xlink:href="#DejaVuSans-32"/>
       <use xlink:href="#DejaVuSans-2e" x="63.623047"/>
       <use xlink:href="#DejaVuSans-30" x="95.410156"/>
      </g>
     </g>
    </g>
   </g>
   <g id="line2d_13">
    <path d="M 144 256.32 
L 146.652406 236.635687 
L 149.304813 217.321043 
L 151.957219 198.734206 
L 154.609626 181.210753 
L 157.262032 165.053649 
L 159.914439 150.524588 
L 162.566845 137.83707 
L 165.219251 127.151476 
L 167.871658 118.572262 
L 170.524064 112.147334 
L 173.176471 107.86951 
L 175.828877 105.67991 
L 178.481283 105.473019 
L 181.13369 107.103105 
L 183.786096 110.391615 
L 186.438503 115.135194 
L 189.090909 121.113903 
L 191.743316 128.099315 
L 194.395722 135.862132 
L 197.048128 144.179069 
L 199.700535 152.838801 
L 202.352941 161.646813 
L 205.005348 170.429092 
L 207.657754 179.034647 
L 210.31016 187.336892 
L 212.962567 195.233999 
L 215.614973 202.648333 
L 218.26738 209.52513 
L 220.919786 215.830581 
L 223.572193 221.549491 
L 226.224599 226.682665 
L 228.877005 231.244193 
L 231.529412 235.258726 
L 234.181818 238.758886 
L 236.834225 241.782869 
L 239.486631 244.372305 
L 242.139037 246.570414 
L 244.791444 248.420473 
L 247.44385 249.964588 
L 250.096257 251.242761 
L 252.748663 252.292224 
L 255.40107 253.147013 
L 258.053476 253.837742 
L 260.705882 254.391538 
L 263.358289 254.832115 
L 266.010695 255.179933 
L 268.663102 255.452436 
L 271.315508 255.664323 
L 273.967914 255.827845 
L 276.620321 255.953103 
L 279.272727 256.048343 
L 281.925134 256.120226 
L 284.57754 256.174084 
L 287.229947 256.214144 
L 289.882353 256.243725 
L 292.534759 256.265411 
L 295.187166 256.281194 
L 297.839572 256.2926 
L 300.491979 256.300784 
L 303.144385 256.306614 
L 305.796791 256.310738 
L 308.449198 256.313634 
L 311.101604 256.315654 
L 313.754011 256.317053 
L 316.406417 256.318015 
L 319.058824 256.318672 
L 321.71123 256.319117 
L 324.363636 256.319417 
L 327.016043 256.319618 
L 329.668449 256.319751 
L 332.320856 256.319839 
L 334.973262 256.319897 
L 337.625668 256.319934 
L 340.278075 256.319958 
L 342.930481 256.319974 
L 345.582888 256.319983 
L 348.235294 256.31999 
L 350.887701 256.319994 
L 353.540107 256.319996 
L 356.192513 256.319998 
L 358.84492 256.319999 
L 361.497326 256.319999 
L 364.149733 256.319999 
L 366.802139 256.32 
L 369.454545 256.32 
L 372.106952 256.32 
L 374.759358 256.32 
L 377.411765 256.32 
L 380.064171 256.32 
L 382.716578 256.32 
L 385.368984 256.32 
L 388.02139 256.32 
L 390.673797 256.32 
L 393.326203 256.32 
L 395.97861 256.32 
L 398.631016 256.32 
L 401.283422 256.32 
L 403.935829 256.32 
L 406.588235 256.32 
" clip-path="url(#pcdebd6d5fe)" style="fill: none; stroke: #ff0000; stroke-width: 1.5; stroke-linecap: square"/>
   </g>
   <g id="line2d_14">
    <path d="M 144 256.32 
L 146.652406 250.566639 
L 149.304813 244.844934 
L 151.957219 239.186249 
L 154.609626 233.621374 
L 157.262032 228.180241 
L 159.914439 222.89166 
L 162.566845 217.783063 
L 165.219251 212.88027 
L 167.871658 208.207268 
L 170.524064 203.786022 
L 173.176471 199.636306 
L 175.828877 195.775558 
L 178.481283 192.218771 
L 181.13369 188.978403 
L 183.786096 186.064327 
L 186.438503 183.483799 
L 189.090909 181.241465 
L 191.743316 179.339393 
L 194.395722 177.777127 
L 197.048128 176.551775 
L 199.700535 175.658112 
L 202.352941 175.088716 
L 205.005348 174.834109 
L 207.657754 174.882924 
L 210.31016 175.222087 
L 212.962567 175.837 
L 215.614973 176.711744 
L 218.26738 177.82928 
L 220.919786 179.171655 
L 223.572193 180.720208 
L 226.224599 182.455771 
L 228.877005 184.358869 
L 231.529412 186.40991 
L 234.181818 188.589363 
L 236.834225 190.877933 
L 239.486631 193.256716 
L 242.139037 195.707344 
L 244.791444 198.21211 
L 247.44385 200.754091 
L 250.096257 203.317237 
L 252.748663 205.886456 
L 255.40107 208.447686 
L 258.053476 210.987937 
L 260.705882 213.495332 
L 263.358289 215.959128 
L 266.010695 218.369723 
L 268.663102 220.71865 
L 271.315508 222.998562 
L 273.967914 225.203205 
L 276.620321 227.32738 
L 279.272727 229.3669 
L 281.925134 231.31854 
L 284.57754 233.179978 
L 287.229947 234.949734 
L 289.882353 236.627106 
L 292.534759 238.212106 
L 295.187166 239.705387 
L 297.839572 241.108178 
L 300.491979 242.422217 
L 303.144385 243.649685 
L 305.796791 244.793139 
L 308.449198 245.855455 
L 311.101604 246.839765 
L 313.754011 247.749409 
L 316.406417 248.587876 
L 319.058824 249.358763 
L 321.71123 250.065729 
L 324.363636 250.712456 
L 327.016043 251.302619 
L 329.668449 251.839849 
L 332.320856 252.327711 
L 334.973262 252.769679 
L 337.625668 253.169121 
L 340.278075 253.529276 
L 342.930481 253.853251 
L 345.582888 254.144002 
L 348.235294 254.404338 
L 350.887701 254.636905 
L 353.540107 254.844194 
L 356.192513 255.028534 
L 358.84492 255.192099 
L 361.497326 255.336906 
L 364.149733 255.464821 
L 366.802139 255.577565 
L 369.454545 255.676719 
L 372.106952 255.76373 
L 374.759358 255.83992 
L 377.411765 255.906489 
L 380.064171 255.964527 
L 382.716578 256.015019 
L 385.368984 256.05885 
L 388.02139 256.09682 
L 390.673797 256.129642 
L 393.326203 256.157953 
L 395.97861 256.182322 
L 398.631016 256.203255 
L 401.283422 256.221197 
L 403.935829 256.236544 
L 406.588235 256.249643 
" clip-path="url(#pcdebd6d5fe)" style="fill: none; stroke: #0000ff; stroke-width: 1.5; stroke-linecap: square"/>
   </g>
   <g id="line2d_15">
    <path d="M 156.089652 256.32 
L 156.089652 45.12 
" clip-path="url(#pcdebd6d5fe)" style="fill: none; stroke: #000000; stroke-width: 1.5; stroke-linecap: square"/>
   </g>
   <g id="patch_52">
    <path d="M 144 256.32 
L 144 34.56 
" style="fill: none; stroke: #000000; stroke-width: 0.8; stroke-linejoin: miter; stroke-linecap: square"/>
   </g>
   <g id="patch_53">
    <path d="M 406.588235 256.32 
L 406.588235 34.56 
" style="fill: none; stroke: #000000; stroke-width: 0.8; stroke-linejoin: miter; stroke-linecap: square"/>
   </g>
   <g id="patch_54">
    <path d="M 144 256.32 
L 406.588235 256.32 
" style="fill: none; stroke: #000000; stroke-width: 0.8; stroke-linejoin: miter; stroke-linecap: square"/>
   </g>
   <g id="patch_55">
    <path d="M 144 34.56 
L 406.588235 34.56 
" style="fill: none; stroke: #000000; stroke-width: 0.8; stroke-linejoin: miter; stroke-linecap: square"/>
   </g>
   <g id="text_13">
    <!-- &lt;E1&gt; = 0.14 -->
    <g transform="translate(327.811765 66.24) scale(0.1 -0.1)">
     <defs>
      <path id="DejaVuSans-3c" d="M 4684 3150 
L 1459 2003 
L 4684 863 
L 4684 294 
L 678 1747 
L 678 2266 
L 4684 3719 
L 4684 3150 
z
" transform="scale(0.015625)"/>
      <path id="DejaVuSans-45" d="M 628 4666 
L 3578 4666 
L 3578 4134 
L 1259 4134 
L 1259 2753 
L 3481 2753 
L 3481 2222 
L 1259 2222 
L 1259 531 
L 3634 531 
L 3634 0 
L 628 0 
L 628 4666 
z
" transform="scale(0.015625)"/>
      <path id="DejaVuSans-3e" d="M 678 3150 
L 678 3719 
L 4684 2266 
L 4684 1747 
L 678 294 
L 678 863 
L 3897 2003 
L 678 3150 
z
" transform="scale(0.015625)"/>
      <path id="DejaVuSans-20" transform="scale(0.015625)"/>
      <path id="DejaVuSans-3d" d="M 678 2906 
L 4684 2906 
L 4684 2381 
L 678 2381 
L 678 2906 
z
M 678 1631 
L 4684 1631 
L 4684 1100 
L 678 1100 
L 678 1631 
z
" transform="scale(0.015625)"/>
      <path id="DejaVuSans-34" d="M 2419 4116 
L 825 1625 
L 2419 1625 
L 2419 4116 
z
M 2253 4666 
L 3047 4666 
L 3047 1625 
L 3713 1625 
L 3713 1100 
L 3047 1100 
L 3047 0 
L 2419 0 
L 2419 1100 
L 313 1100 
L 313 1709 
L 2253 4666 
z
" transform="scale(0.015625)"/>
     </defs>
     <use xlink:href="#DejaVuSans-3c"/>
     <use xlink:href="#DejaVuSans-45" x="83.789062"/>
     <use xlink:href="#DejaVuSans-31" x="146.972656"/>
     <use xlink:href="#DejaVuSans-3e" x="210.595703"/>
     <use xlink:href="#DejaVuSans-20" x="294.384766"/>
     <use xlink:href="#DejaVuSans-3d" x="326.171875"/>
     <use xlink:href="#DejaVuSans-20" x="409.960938"/>
     <use xlink:href="#DejaVuSans-30" x="441.748047"/>
     <use xlink:href="#DejaVuSans-2e" x="505.371094"/>
     <use xlink:href="#DejaVuSans-31" x="537.158203"/>
     <use xlink:href="#DejaVuSans-34" x="600.78125"/>
    </g>
   </g>
  </g>
  <g id="axes_2">
   <g id="patch_56">
    <path d="M 459.105882 256.32 
L 721.694118 256.32 
L 721.694118 34.56 
L 459.105882 34.56 
z
" style="fill: #ffffff"/>
   </g>
   <g id="patch_57">
    <path d="M 459.105882 256.32 
L 468.037455 256.32 
L 468.037455 254.736198 
L 459.105882 254.736198 
z
" clip-path="url(#p713a5aa197)" style="fill: #1f77b4"/>
   </g>
   <g id="patch_58">
    <path d="M 468.037455 256.32 
L 476.969028 256.32 
L 476.969028 240.48198 
L 468.037455 240.48198 
z
" clip-path="url(#p713a5aa197)" style="fill: #1f77b4"/>
   </g>
   <g id="patch_59">
    <path d="M 476.969028 256.32 
L 485.9006 256.32 
L 485.9006 227.811564 
L 476.969028 227.811564 
z
" clip-path="url(#p713a5aa197)" style="fill: #1f77b4"/>
   </g>
   <g id="patch_60">
    <path d="M 485.9006 256.32 
L 494.832173 256.32 
L 494.832173 204.054533 
L 485.9006 204.054533 
z
" clip-path="url(#p713a5aa197)" style="fill: #1f77b4"/>
   </g>
   <g id="patch_61">
    <path d="M 494.832173 256.32 
L 503.763745 256.32 
L 503.763745 183.465107 
L 494.832173 183.465107 
z
" clip-path="url(#p713a5aa197)" style="fill: #1f77b4"/>
   </g>
   <g id="patch_62">
    <path d="M 503.763745 256.32 
L 512.695318 256.32 
L 512.695318 132.783442 
L 503.763745 132.783442 
z
" clip-path="url(#p713a5aa197)" style="fill: #1f77b4"/>
   </g>
   <g id="patch_63">
    <path d="M 512.695318 256.32 
L 521.626891 256.32 
L 521.626891 113.777818 
L 512.695318 113.777818 
z
" clip-path="url(#p713a5aa197)" style="fill: #1f77b4"/>
   </g>
   <g id="patch_64">
    <path d="M 521.626891 256.32 
L 530.558463 256.32 
L 530.558463 55.177143 
L 521.626891 55.177143 
z
" clip-path="url(#p713a5aa197)" style="fill: #1f77b4"/>
   </g>
   <g id="patch_65">
    <path d="M 530.558463 256.32 
L 539.490036 256.32 
L 539.490036 86.853183 
L 530.558463 86.853183 
z
" clip-path="url(#p713a5aa197)" style="fill: #1f77b4"/>
   </g>
   <g id="patch_66">
    <path d="M 539.490036 256.32 
L 548.421609 256.32 
L 548.421609 109.026412 
L 539.490036 109.026412 
z
" clip-path="url(#p713a5aa197)" style="fill: #1f77b4"/>
   </g>
   <g id="patch_67">
    <path d="M 548.421609 256.32 
L 557.353181 256.32 
L 557.353181 139.11865 
L 548.421609 139.11865 
z
" clip-path="url(#p713a5aa197)" style="fill: #1f77b4"/>
   </g>
   <g id="patch_68">
    <path d="M 557.353181 256.32 
L 566.284754 256.32 
L 566.284754 192.967919 
L 557.353181 192.967919 
z
" clip-path="url(#p713a5aa197)" style="fill: #1f77b4"/>
   </g>
   <g id="patch_69">
    <path d="M 566.284754 256.32 
L 575.216327 256.32 
L 575.216327 204.054533 
L 566.284754 204.054533 
z
" clip-path="url(#p713a5aa197)" style="fill: #1f77b4"/>
   </g>
   <g id="patch_70">
    <path d="M 575.216327 256.32 
L 584.147899 256.32 
L 584.147899 226.227762 
L 575.216327 226.227762 
z
" clip-path="url(#p713a5aa197)" style="fill: #1f77b4"/>
   </g>
   <g id="patch_71">
    <path d="M 584.147899 256.32 
L 593.079472 256.32 
L 593.079472 245.233386 
L 584.147899 245.233386 
z
" clip-path="url(#p713a5aa197)" style="fill: #1f77b4"/>
   </g>
   <g id="patch_72">
    <path d="M 593.079472 256.32 
L 602.011044 256.32 
L 602.011044 248.40099 
L 593.079472 248.40099 
z
" clip-path="url(#p713a5aa197)" style="fill: #1f77b4"/>
   </g>
   <g id="patch_73">
    <path d="M 602.011044 256.32 
L 610.942617 256.32 
L 610.942617 251.568594 
L 602.011044 251.568594 
z
" clip-path="url(#p713a5aa197)" style="fill: #1f77b4"/>
   </g>
   <g id="patch_74">
    <path d="M 610.942617 256.32 
L 619.87419 256.32 
L 619.87419 256.32 
L 610.942617 256.32 
z
" clip-path="url(#p713a5aa197)" style="fill: #1f77b4"/>
   </g>
   <g id="patch_75">
    <path d="M 619.87419 256.32 
L 628.805762 256.32 
L 628.805762 253.152396 
L 619.87419 253.152396 
z
" clip-path="url(#p713a5aa197)" style="fill: #1f77b4"/>
   </g>
   <g id="patch_76">
    <path d="M 628.805762 256.32 
L 637.737335 256.32 
L 637.737335 256.32 
L 628.805762 256.32 
z
" clip-path="url(#p713a5aa197)" style="fill: #1f77b4"/>
   </g>
   <g id="patch_77">
    <path d="M 637.737335 256.32 
L 646.668908 256.32 
L 646.668908 256.32 
L 637.737335 256.32 
z
" clip-path="url(#p713a5aa197)" style="fill: #1f77b4"/>
   </g>
   <g id="patch_78">
    <path d="M 646.668908 256.32 
L 655.60048 256.32 
L 655.60048 256.32 
L 646.668908 256.32 
z
" clip-path="url(#p713a5aa197)" style="fill: #1f77b4"/>
   </g>
   <g id="patch_79">
    <path d="M 655.60048 256.32 
L 664.532053 256.32 
L 664.532053 256.32 
L 655.60048 256.32 
z
" clip-path="url(#p713a5aa197)" style="fill: #1f77b4"/>
   </g>
   <g id="patch_80">
    <path d="M 664.532053 256.32 
L 673.463625 256.32 
L 673.463625 256.32 
L 664.532053 256.32 
z
" clip-path="url(#p713a5aa197)" style="fill: #1f77b4"/>
   </g>
   <g id="patch_81">
    <path d="M 673.463625 256.32 
L 682.395198 256.32 
L 682.395198 256.32 
L 673.463625 256.32 
z
" clip-path="url(#p713a5aa197)" style="fill: #1f77b4"/>
   </g>
   <g id="patch_82">
    <path d="M 682.395198 256.32 
L 691.326771 256.32 
L 691.326771 256.32 
L 682.395198 256.32 
z
" clip-path="url(#p713a5aa197)" style="fill: #1f77b4"/>
   </g>
   <g id="patch_83">
    <path d="M 691.326771 256.32 
L 700.258343 256.32 
L 700.258343 256.32 
L 691.326771 256.32 
z
" clip-path="url(#p713a5aa197)" style="fill: #1f77b4"/>
   </g>
   <g id="patch_84">
    <path d="M 700.258343 256.32 
L 709.189916 256.32 
L 709.189916 256.32 
L 700.258343 256.32 
z
" clip-path="url(#p713a5aa197)" style="fill: #1f77b4"/>
   </g>
   <g id="patch_85">
    <path d="M 709.189916 256.32 
L 718.121489 256.32 
L 718.121489 256.32 
L 709.189916 256.32 
z
" clip-path="url(#p713a5aa197)" style="fill: #1f77b4"/>
   </g>
   <g id="patch_86">
    <path d="M 718.121489 256.32 
L 727.053061 256.32 
L 727.053061 256.32 
L 718.121489 256.32 
z
" clip-path="url(#p713a5aa197)" style="fill: #1f77b4"/>
   </g>
   <g id="patch_87">
    <path d="M 727.053061 256.32 
L 735.984634 256.32 
L 735.984634 256.32 
L 727.053061 256.32 
z
" clip-path="url(#p713a5aa197)" style="fill: #1f77b4"/>
   </g>
   <g id="patch_88">
    <path d="M 735.984634 256.32 
L 744.916206 256.32 
L 744.916206 256.32 
L 735.984634 256.32 
z
" clip-path="url(#p713a5aa197)" style="fill: #1f77b4"/>
   </g>
   <g id="patch_89">
    <path d="M 744.916206 256.32 
L 753.847779 256.32 
L 753.847779 256.32 
L 744.916206 256.32 
z
" clip-path="url(#p713a5aa197)" style="fill: #1f77b4"/>
   </g>
   <g id="patch_90">
    <path d="M 753.847779 256.32 
L 762.779352 256.32 
L 762.779352 256.32 
L 753.847779 256.32 
z
" clip-path="url(#p713a5aa197)" style="fill: #1f77b4"/>
   </g>
   <g id="patch_91">
    <path d="M 762.779352 256.32 
L 771.710924 256.32 
L 771.710924 256.32 
L 762.779352 256.32 
z
" clip-path="url(#p713a5aa197)" style="fill: #1f77b4"/>
   </g>
   <g id="patch_92">
    <path d="M 771.710924 256.32 
L 780.642497 256.32 
L 780.642497 256.32 
L 771.710924 256.32 
z
" clip-path="url(#p713a5aa197)" style="fill: #1f77b4"/>
   </g>
   <g id="patch_93">
    <path d="M 780.642497 256.32 
L 789.57407 256.32 
L 789.57407 256.32 
L 780.642497 256.32 
z
" clip-path="url(#p713a5aa197)" style="fill: #1f77b4"/>
   </g>
   <g id="patch_94">
    <path d="M 789.57407 256.32 
L 798.505642 256.32 
L 798.505642 256.32 
L 789.57407 256.32 
z
" clip-path="url(#p713a5aa197)" style="fill: #1f77b4"/>
   </g>
   <g id="patch_95">
    <path d="M 798.505642 256.32 
L 807.437215 256.32 
L 807.437215 256.32 
L 798.505642 256.32 
z
" clip-path="url(#p713a5aa197)" style="fill: #1f77b4"/>
   </g>
   <g id="patch_96">
    <path d="M 807.437215 256.32 
L 816.368788 256.32 
L 816.368788 256.32 
L 807.437215 256.32 
z
" clip-path="url(#p713a5aa197)" style="fill: #1f77b4"/>
   </g>
   <g id="patch_97">
    <path d="M 816.368788 256.32 
L 825.30036 256.32 
L 825.30036 256.32 
L 816.368788 256.32 
z
" clip-path="url(#p713a5aa197)" style="fill: #1f77b4"/>
   </g>
   <g id="patch_98">
    <path d="M 825.30036 256.32 
L 834.231933 256.32 
L 834.231933 256.32 
L 825.30036 256.32 
z
" clip-path="url(#p713a5aa197)" style="fill: #1f77b4"/>
   </g>
   <g id="patch_99">
    <path d="M 834.231933 256.32 
L 843.163505 256.32 
L 843.163505 256.32 
L 834.231933 256.32 
z
" clip-path="url(#p713a5aa197)" style="fill: #1f77b4"/>
   </g>
   <g id="patch_100">
    <path d="M 843.163505 256.32 
L 852.095078 256.32 
L 852.095078 256.32 
L 843.163505 256.32 
z
" clip-path="url(#p713a5aa197)" style="fill: #1f77b4"/>
   </g>
   <g id="patch_101">
    <path d="M 852.095078 256.32 
L 861.026651 256.32 
L 861.026651 256.32 
L 852.095078 256.32 
z
" clip-path="url(#p713a5aa197)" style="fill: #1f77b4"/>
   </g>
   <g id="patch_102">
    <path d="M 861.026651 256.32 
L 869.958223 256.32 
L 869.958223 256.32 
L 861.026651 256.32 
z
" clip-path="url(#p713a5aa197)" style="fill: #1f77b4"/>
   </g>
   <g id="patch_103">
    <path d="M 869.958223 256.32 
L 878.889796 256.32 
L 878.889796 256.32 
L 869.958223 256.32 
z
" clip-path="url(#p713a5aa197)" style="fill: #1f77b4"/>
   </g>
   <g id="patch_104">
    <path d="M 878.889796 256.32 
L 887.821369 256.32 
L 887.821369 256.32 
L 878.889796 256.32 
z
" clip-path="url(#p713a5aa197)" style="fill: #1f77b4"/>
   </g>
   <g id="patch_105">
    <path d="M 887.821369 256.32 
L 896.752941 256.32 
L 896.752941 256.32 
L 887.821369 256.32 
z
" clip-path="url(#p713a5aa197)" style="fill: #1f77b4"/>
   </g>
   <g id="matplotlib.axis_3">
    <g id="xtick_8">
     <g id="line2d_16">
      <g>
       <use xlink:href="#mba1e8f13ae" x="459.105882" y="256.32" style="stroke: #000000; stroke-width: 0.8"/>
      </g>
     </g>
     <g id="text_14">
      <!-- 0.0 -->
      <g transform="translate(449.564007 272.438125) scale(0.12 -0.12)">
       <use xlink:href="#DejaVuSans-30"/>
       <use xlink:href="#DejaVuSans-2e" x="63.623047"/>
       <use xlink:href="#DejaVuSans-30" x="95.410156"/>
      </g>
     </g>
    </g>
    <g id="xtick_9">
     <g id="line2d_17">
      <g>
       <use xlink:href="#mba1e8f13ae" x="502.870588" y="256.32" style="stroke: #000000; stroke-width: 0.8"/>
      </g>
     </g>
     <g id="text_15">
      <!-- 0.5 -->
      <g transform="translate(493.328713 272.438125) scale(0.12 -0.12)">
       <use xlink:href="#DejaVuSans-30"/>
       <use xlink:href="#DejaVuSans-2e" x="63.623047"/>
       <use xlink:href="#DejaVuSans-35" x="95.410156"/>
      </g>
     </g>
    </g>
    <g id="xtick_10">
     <g id="line2d_18">
      <g>
       <use xlink:href="#mba1e8f13ae" x="546.635294" y="256.32" style="stroke: #000000; stroke-width: 0.8"/>
      </g>
     </g>
     <g id="text_16">
      <!-- 1.0 -->
      <g transform="translate(537.093419 272.438125) scale(0.12 -0.12)">
       <use xlink:href="#DejaVuSans-31"/>
       <use xlink:href="#DejaVuSans-2e" x="63.623047"/>
       <use xlink:href="#DejaVuSans-30" x="95.410156"/>
      </g>
     </g>
    </g>
    <g id="xtick_11">
     <g id="line2d_19">
      <g>
       <use xlink:href="#mba1e8f13ae" x="590.4" y="256.32" style="stroke: #000000; stroke-width: 0.8"/>
      </g>
     </g>
     <g id="text_17">
      <!-- 1.5 -->
      <g transform="translate(580.858125 272.438125) scale(0.12 -0.12)">
       <use xlink:href="#DejaVuSans-31"/>
       <use xlink:href="#DejaVuSans-2e" x="63.623047"/>
       <use xlink:href="#DejaVuSans-35" x="95.410156"/>
      </g>
     </g>
    </g>
    <g id="xtick_12">
     <g id="line2d_20">
      <g>
       <use xlink:href="#mba1e8f13ae" x="634.164706" y="256.32" style="stroke: #000000; stroke-width: 0.8"/>
      </g>
     </g>
     <g id="text_18">
      <!-- 2.0 -->
      <g transform="translate(624.622831 272.438125) scale(0.12 -0.12)">
       <use xlink:href="#DejaVuSans-32"/>
       <use xlink:href="#DejaVuSans-2e" x="63.623047"/>
       <use xlink:href="#DejaVuSans-30" x="95.410156"/>
      </g>
     </g>
    </g>
    <g id="xtick_13">
     <g id="line2d_21">
      <g>
       <use xlink:href="#mba1e8f13ae" x="677.929412" y="256.32" style="stroke: #000000; stroke-width: 0.8"/>
      </g>
     </g>
     <g id="text_19">
      <!-- 2.5 -->
      <g transform="translate(668.387537 272.438125) scale(0.12 -0.12)">
       <use xlink:href="#DejaVuSans-32"/>
       <use xlink:href="#DejaVuSans-2e" x="63.623047"/>
       <use xlink:href="#DejaVuSans-35" x="95.410156"/>
      </g>
     </g>
    </g>
    <g id="xtick_14">
     <g id="line2d_22">
      <g>
       <use xlink:href="#mba1e8f13ae" x="721.694118" y="256.32" style="stroke: #000000; stroke-width: 0.8"/>
      </g>
     </g>
     <g id="text_20">
      <!-- 3.0 -->
      <g transform="translate(712.152243 272.438125) scale(0.12 -0.12)">
       <use xlink:href="#DejaVuSans-33"/>
       <use xlink:href="#DejaVuSans-2e" x="63.623047"/>
       <use xlink:href="#DejaVuSans-30" x="95.410156"/>
      </g>
     </g>
    </g>
   </g>
   <g id="matplotlib.axis_4">
    <g id="ytick_6">
     <g id="line2d_23">
      <g>
       <use xlink:href="#m64f91a0310" x="459.105882" y="256.32" style="stroke: #000000; stroke-width: 0.8"/>
      </g>
     </g>
     <g id="text_21">
      <!-- 0.0 -->
      <g transform="translate(433.022132 260.879063) scale(0.12 -0.12)">
       <use xlink:href="#DejaVuSans-30"/>
       <use xlink:href="#DejaVuSans-2e" x="63.623047"/>
       <use xlink:href="#DejaVuSans-30" x="95.410156"/>
      </g>
     </g>
    </g>
    <g id="ytick_7">
     <g id="line2d_24">
      <g>
       <use xlink:href="#m64f91a0310" x="459.105882" y="230.914523" style="stroke: #000000; stroke-width: 0.8"/>
      </g>
     </g>
     <g id="text_22">
      <!-- 0.2 -->
      <g transform="translate(433.022132 235.473585) scale(0.12 -0.12)">
       <use xlink:href="#DejaVuSans-30"/>
       <use xlink:href="#DejaVuSans-2e" x="63.623047"/>
       <use xlink:href="#DejaVuSans-32" x="95.410156"/>
      </g>
     </g>
    </g>
    <g id="ytick_8">
     <g id="line2d_25">
      <g>
       <use xlink:href="#m64f91a0310" x="459.105882" y="205.509045" style="stroke: #000000; stroke-width: 0.8"/>
      </g>
     </g>
     <g id="text_23">
      <!-- 0.4 -->
      <g transform="translate(433.022132 210.068108) scale(0.12 -0.12)">
       <use xlink:href="#DejaVuSans-30"/>
       <use xlink:href="#DejaVuSans-2e" x="63.623047"/>
       <use xlink:href="#DejaVuSans-34" x="95.410156"/>
      </g>
     </g>
    </g>
    <g id="ytick_9">
     <g id="line2d_26">
      <g>
       <use xlink:href="#m64f91a0310" x="459.105882" y="180.103568" style="stroke: #000000; stroke-width: 0.8"/>
      </g>
     </g>
     <g id="text_24">
      <!-- 0.6 -->
      <g transform="translate(433.022132 184.66263) scale(0.12 -0.12)">
       <defs>
        <path id="DejaVuSans-36" d="M 2113 2584 
Q 1688 2584 1439 2293 
Q 1191 2003 1191 1497 
Q 1191 994 1439 701 
Q 1688 409 2113 409 
Q 2538 409 2786 701 
Q 3034 994 3034 1497 
Q 3034 2003 2786 2293 
Q 2538 2584 2113 2584 
z
M 3366 4563 
L 3366 3988 
Q 3128 4100 2886 4159 
Q 2644 4219 2406 4219 
Q 1781 4219 1451 3797 
Q 1122 3375 1075 2522 
Q 1259 2794 1537 2939 
Q 1816 3084 2150 3084 
Q 2853 3084 3261 2657 
Q 3669 2231 3669 1497 
Q 3669 778 3244 343 
Q 2819 -91 2113 -91 
Q 1303 -91 875 529 
Q 447 1150 447 2328 
Q 447 3434 972 4092 
Q 1497 4750 2381 4750 
Q 2619 4750 2861 4703 
Q 3103 4656 3366 4563 
z
" transform="scale(0.015625)"/>
       </defs>
       <use xlink:href="#DejaVuSans-30"/>
       <use xlink:href="#DejaVuSans-2e" x="63.623047"/>
       <use xlink:href="#DejaVuSans-36" x="95.410156"/>
      </g>
     </g>
    </g>
    <g id="ytick_10">
     <g id="line2d_27">
      <g>
       <use xlink:href="#m64f91a0310" x="459.105882" y="154.69809" style="stroke: #000000; stroke-width: 0.8"/>
      </g>
     </g>
     <g id="text_25">
      <!-- 0.8 -->
      <g transform="translate(433.022132 159.257153) scale(0.12 -0.12)">
       <defs>
        <path id="DejaVuSans-38" d="M 2034 2216 
Q 1584 2216 1326 1975 
Q 1069 1734 1069 1313 
Q 1069 891 1326 650 
Q 1584 409 2034 409 
Q 2484 409 2743 651 
Q 3003 894 3003 1313 
Q 3003 1734 2745 1975 
Q 2488 2216 2034 2216 
z
M 1403 2484 
Q 997 2584 770 2862 
Q 544 3141 544 3541 
Q 544 4100 942 4425 
Q 1341 4750 2034 4750 
Q 2731 4750 3128 4425 
Q 3525 4100 3525 3541 
Q 3525 3141 3298 2862 
Q 3072 2584 2669 2484 
Q 3125 2378 3379 2068 
Q 3634 1759 3634 1313 
Q 3634 634 3220 271 
Q 2806 -91 2034 -91 
Q 1263 -91 848 271 
Q 434 634 434 1313 
Q 434 1759 690 2068 
Q 947 2378 1403 2484 
z
M 1172 3481 
Q 1172 3119 1398 2916 
Q 1625 2713 2034 2713 
Q 2441 2713 2670 2916 
Q 2900 3119 2900 3481 
Q 2900 3844 2670 4047 
Q 2441 4250 2034 4250 
Q 1625 4250 1398 4047 
Q 1172 3844 1172 3481 
z
" transform="scale(0.015625)"/>
       </defs>
       <use xlink:href="#DejaVuSans-30"/>
       <use xlink:href="#DejaVuSans-2e" x="63.623047"/>
       <use xlink:href="#DejaVuSans-38" x="95.410156"/>
      </g>
     </g>
    </g>
    <g id="ytick_11">
     <g id="line2d_28">
      <g>
       <use xlink:href="#m64f91a0310" x="459.105882" y="129.292613" style="stroke: #000000; stroke-width: 0.8"/>
      </g>
     </g>
     <g id="text_26">
      <!-- 1.0 -->
      <g transform="translate(433.022132 133.851676) scale(0.12 -0.12)">
       <use xlink:href="#DejaVuSans-31"/>
       <use xlink:href="#DejaVuSans-2e" x="63.623047"/>
       <use xlink:href="#DejaVuSans-30" x="95.410156"/>
      </g>
     </g>
    </g>
    <g id="ytick_12">
     <g id="line2d_29">
      <g>
       <use xlink:href="#m64f91a0310" x="459.105882" y="103.887136" style="stroke: #000000; stroke-width: 0.8"/>
      </g>
     </g>
     <g id="text_27">
      <!-- 1.2 -->
      <g transform="translate(433.022132 108.446198) scale(0.12 -0.12)">
       <use xlink:href="#DejaVuSans-31"/>
       <use xlink:href="#DejaVuSans-2e" x="63.623047"/>
       <use xlink:href="#DejaVuSans-32" x="95.410156"/>
      </g>
     </g>
    </g>
    <g id="ytick_13">
     <g id="line2d_30">
      <g>
       <use xlink:href="#m64f91a0310" x="459.105882" y="78.481658" style="stroke: #000000; stroke-width: 0.8"/>
      </g>
     </g>
     <g id="text_28">
      <!-- 1.4 -->
      <g transform="translate(433.022132 83.040721) scale(0.12 -0.12)">
       <use xlink:href="#DejaVuSans-31"/>
       <use xlink:href="#DejaVuSans-2e" x="63.623047"/>
       <use xlink:href="#DejaVuSans-34" x="95.410156"/>
      </g>
     </g>
    </g>
    <g id="ytick_14">
     <g id="line2d_31">
      <g>
       <use xlink:href="#m64f91a0310" x="459.105882" y="53.076181" style="stroke: #000000; stroke-width: 0.8"/>
      </g>
     </g>
     <g id="text_29">
      <!-- 1.6 -->
      <g transform="translate(433.022132 57.635243) scale(0.12 -0.12)">
       <use xlink:href="#DejaVuSans-31"/>
       <use xlink:href="#DejaVuSans-2e" x="63.623047"/>
       <use xlink:href="#DejaVuSans-36" x="95.410156"/>
      </g>
     </g>
    </g>
   </g>
   <g id="line2d_32">
    <path d="M 459.105882 256.32 
L 461.758289 251.623155 
L 464.410695 246.854633 
L 467.063102 241.945733 
L 469.715508 236.833635 
L 472.367914 231.464148 
L 475.020321 225.794236 
L 477.672727 219.794238 
L 480.325134 213.449713 
L 482.97754 206.762843 
L 485.629947 199.753317 
L 488.282353 192.458667 
L 490.934759 184.933988 
L 493.587166 177.251043 
L 496.239572 169.496743 
L 498.891979 161.771025 
L 501.544385 154.184179 
L 504.196791 146.853706 
L 506.849198 139.900795 
L 509.501604 133.446556 
L 512.154011 127.608138 
L 514.806417 122.494886 
L 517.458824 118.204703 
L 520.11123 114.820745 
L 522.763636 112.408617 
L 525.416043 111.014155 
L 528.068449 110.661923 
L 530.720856 111.354456 
L 533.373262 113.072286 
L 536.025668 115.774744 
L 538.678075 119.401477 
L 541.330481 123.874617 
L 543.982888 129.101476 
L 546.635294 134.977653 
L 549.287701 141.390404 
L 551.940107 148.222123 
L 554.592513 155.353795 
L 557.24492 162.668279 
L 559.897326 170.053304 
L 562.549733 177.404082 
L 565.202139 184.625463 
L 567.854545 191.63358 
L 570.506952 198.356978 
L 573.159358 204.737225 
L 575.811765 210.729034 
L 578.464171 216.299948 
L 581.116578 221.429647 
L 583.768984 226.10895 
L 586.42139 230.338594 
L 589.073797 234.127854 
L 591.726203 237.493091 
L 594.37861 240.456285 
L 597.031016 243.043616 
L 599.683422 245.284131 
L 602.335829 247.208546 
L 604.988235 248.848191 
L 607.640642 250.234125 
L 610.293048 251.39641 
L 612.945455 252.363563 
L 615.597861 253.162144 
L 618.250267 253.816498 
L 620.902674 254.348608 
L 623.55508 254.778053 
L 626.207487 255.122051 
L 628.859893 255.395553 
L 631.512299 255.611399 
L 634.164706 255.780491 
L 636.817112 255.911987 
L 639.469519 256.0135 
L 642.121925 256.091299 
L 644.774332 256.150493 
L 647.426738 256.195207 
L 650.079144 256.22874 
L 652.731551 256.253709 
L 655.383957 256.272168 
L 658.036364 256.285718 
L 660.68877 256.295593 
L 663.341176 256.30274 
L 665.993583 256.307876 
L 668.645989 256.31154 
L 671.298396 256.314136 
L 673.950802 256.315963 
L 676.603209 256.317239 
L 679.255615 256.318124 
L 681.908021 256.318734 
L 684.560428 256.319152 
L 687.212834 256.319435 
L 689.865241 256.319626 
L 692.517647 256.319755 
L 695.170053 256.31984 
L 697.82246 256.319896 
L 700.474866 256.319933 
L 703.127273 256.319957 
L 705.779679 256.319973 
L 708.432086 256.319983 
L 711.084492 256.319989 
L 713.736898 256.319993 
L 716.389305 256.319996 
L 719.041711 256.319997 
L 721.694118 256.319998 
" clip-path="url(#p713a5aa197)" style="fill: none; stroke: #ff0000; stroke-width: 1.5; stroke-linecap: square"/>
   </g>
   <g id="line2d_33">
    <path d="M 459.105882 256.32 
L 461.758289 248.628437 
L 464.410695 240.979193 
L 467.063102 233.4142 
L 469.715508 225.974619 
L 472.367914 218.700467 
L 475.020321 211.63026 
L 477.672727 204.80067 
L 480.325134 198.246215 
L 482.97754 191.998964 
L 485.629947 186.08828 
L 488.282353 180.5406 
L 490.934759 175.379237 
L 493.587166 170.624232 
L 496.239572 166.292244 
L 498.891979 162.396468 
L 501.544385 158.946607 
L 504.196791 155.948873 
L 506.849198 153.406027 
L 509.501604 151.317462 
L 512.154011 149.67931 
L 514.806417 148.48459 
L 517.458824 147.723374 
L 520.11123 147.382994 
L 522.763636 147.448255 
L 525.416043 147.901675 
L 528.068449 148.723741 
L 530.720856 149.89317 
L 533.373262 151.387184 
L 536.025668 153.181781 
L 538.678075 155.252013 
L 541.330481 157.572256 
L 543.982888 160.116473 
L 546.635294 162.858472 
L 549.287701 165.772143 
L 551.940107 168.831691 
L 554.592513 172.011843 
L 557.24492 175.288042 
L 559.897326 178.636619 
L 562.549733 182.034947 
L 565.202139 185.46157 
L 567.854545 188.896313 
L 570.506952 192.320374 
L 573.159358 195.716389 
L 575.811765 199.068481 
L 578.464171 202.362285 
L 581.116578 205.584965 
L 583.768984 208.725203 
L 586.42139 211.773176 
L 589.073797 214.720523 
L 591.726203 217.560293 
L 594.37861 220.286891 
L 597.031016 222.896003 
L 599.683422 225.384525 
L 602.335829 227.75048 
L 604.988235 229.992929 
L 607.640642 232.111886 
L 610.293048 234.108226 
L 612.945455 235.983592 
L 615.597861 237.740307 
L 618.250267 239.381286 
L 620.902674 240.909949 
L 623.55508 242.330139 
L 626.207487 243.646047 
L 628.859893 244.862133 
L 631.512299 245.983065 
L 634.164706 247.013649 
L 636.817112 247.958778 
L 639.469519 248.823377 
L 642.121925 249.612354 
L 644.774332 250.330567 
L 647.426738 250.982781 
L 650.079144 251.573641 
L 652.731551 252.107647 
L 655.383957 252.589132 
L 658.036364 253.022247 
L 660.68877 253.410948 
L 663.341176 253.758986 
L 665.993583 254.069901 
L 668.645989 254.347021 
L 671.298396 254.593463 
L 673.950802 254.81213 
L 676.603209 255.005719 
L 679.255615 255.176726 
L 681.908021 255.327452 
L 684.560428 255.460009 
L 687.212834 255.576333 
L 689.865241 255.67819 
L 692.517647 255.767185 
L 695.170053 255.844775 
L 697.82246 255.912276 
L 700.474866 255.970874 
L 703.127273 256.021635 
L 705.779679 256.065513 
L 708.432086 256.103362 
L 711.084492 256.135941 
L 713.736898 256.163925 
L 716.389305 256.187912 
L 719.041711 256.208429 
L 721.694118 256.225941 
" clip-path="url(#p713a5aa197)" style="fill: none; stroke: #0000ff; stroke-width: 1.5; stroke-linecap: square"/>
   </g>
   <g id="line2d_34">
    <path d="M 531.451508 256.32 
L 531.451508 45.12 
" clip-path="url(#p713a5aa197)" style="fill: none; stroke: #000000; stroke-width: 1.5; stroke-linecap: square"/>
   </g>
   <g id="patch_106">
    <path d="M 459.105882 256.32 
L 459.105882 34.56 
" style="fill: none; stroke: #000000; stroke-width: 0.8; stroke-linejoin: miter; stroke-linecap: square"/>
   </g>
   <g id="patch_107">
    <path d="M 721.694118 256.32 
L 721.694118 34.56 
" style="fill: none; stroke: #000000; stroke-width: 0.8; stroke-linejoin: miter; stroke-linecap: square"/>
   </g>
   <g id="patch_108">
    <path d="M 459.105882 256.32 
L 721.694118 256.32 
" style="fill: none; stroke: #000000; stroke-width: 0.8; stroke-linejoin: miter; stroke-linecap: square"/>
   </g>
   <g id="patch_109">
    <path d="M 459.105882 34.56 
L 721.694118 34.56 
" style="fill: none; stroke: #000000; stroke-width: 0.8; stroke-linejoin: miter; stroke-linecap: square"/>
   </g>
   <g id="text_30">
    <!-- &lt;E1&gt; = 0.83 -->
    <g transform="translate(642.917647 66.24) scale(0.1 -0.1)">
     <use xlink:href="#DejaVuSans-3c"/>
     <use xlink:href="#DejaVuSans-45" x="83.789062"/>
     <use xlink:href="#DejaVuSans-31" x="146.972656"/>
     <use xlink:href="#DejaVuSans-3e" x="210.595703"/>
     <use xlink:href="#DejaVuSans-20" x="294.384766"/>
     <use xlink:href="#DejaVuSans-3d" x="326.171875"/>
     <use xlink:href="#DejaVuSans-20" x="409.960938"/>
     <use xlink:href="#DejaVuSans-30" x="441.748047"/>
     <use xlink:href="#DejaVuSans-2e" x="505.371094"/>
     <use xlink:href="#DejaVuSans-38" x="537.158203"/>
     <use xlink:href="#DejaVuSans-33" x="600.78125"/>
    </g>
   </g>
   <g id="text_31">
    <!-- Conditional histograms (acentric, real data) -->
    <g transform="translate(433.355625 28.56) scale(0.144 -0.144)">
     <defs>
      <path id="DejaVuSans-43" d="M 4122 4306 
L 4122 3641 
Q 3803 3938 3442 4084 
Q 3081 4231 2675 4231 
Q 1875 4231 1450 3742 
Q 1025 3253 1025 2328 
Q 1025 1406 1450 917 
Q 1875 428 2675 428 
Q 3081 428 3442 575 
Q 3803 722 4122 1019 
L 4122 359 
Q 3791 134 3420 21 
Q 3050 -91 2638 -91 
Q 1578 -91 968 557 
Q 359 1206 359 2328 
Q 359 3453 968 4101 
Q 1578 4750 2638 4750 
Q 3056 4750 3426 4639 
Q 3797 4528 4122 4306 
z
" transform="scale(0.015625)"/>
      <path id="DejaVuSans-6f" d="M 1959 3097 
Q 1497 3097 1228 2736 
Q 959 2375 959 1747 
Q 959 1119 1226 758 
Q 1494 397 1959 397 
Q 2419 397 2687 759 
Q 2956 1122 2956 1747 
Q 2956 2369 2687 2733 
Q 2419 3097 1959 3097 
z
M 1959 3584 
Q 2709 3584 3137 3096 
Q 3566 2609 3566 1747 
Q 3566 888 3137 398 
Q 2709 -91 1959 -91 
Q 1206 -91 779 398 
Q 353 888 353 1747 
Q 353 2609 779 3096 
Q 1206 3584 1959 3584 
z
" transform="scale(0.015625)"/>
      <path id="DejaVuSans-6e" d="M 3513 2113 
L 3513 0 
L 2938 0 
L 2938 2094 
Q 2938 2591 2744 2837 
Q 2550 3084 2163 3084 
Q 1697 3084 1428 2787 
Q 1159 2491 1159 1978 
L 1159 0 
L 581 0 
L 581 3500 
L 1159 3500 
L 1159 2956 
Q 1366 3272 1645 3428 
Q 1925 3584 2291 3584 
Q 2894 3584 3203 3211 
Q 3513 2838 3513 2113 
z
" transform="scale(0.015625)"/>
      <path id="DejaVuSans-64" d="M 2906 2969 
L 2906 4863 
L 3481 4863 
L 3481 0 
L 2906 0 
L 2906 525 
Q 2725 213 2448 61 
Q 2172 -91 1784 -91 
Q 1150 -91 751 415 
Q 353 922 353 1747 
Q 353 2572 751 3078 
Q 1150 3584 1784 3584 
Q 2172 3584 2448 3432 
Q 2725 3281 2906 2969 
z
M 947 1747 
Q 947 1113 1208 752 
Q 1469 391 1925 391 
Q 2381 391 2643 752 
Q 2906 1113 2906 1747 
Q 2906 2381 2643 2742 
Q 2381 3103 1925 3103 
Q 1469 3103 1208 2742 
Q 947 2381 947 1747 
z
" transform="scale(0.015625)"/>
      <path id="DejaVuSans-69" d="M 603 3500 
L 1178 3500 
L 1178 0 
L 603 0 
L 603 3500 
z
M 603 4863 
L 1178 4863 
L 1178 4134 
L 603 4134 
L 603 4863 
z
" transform="scale(0.015625)"/>
      <path id="DejaVuSans-74" d="M 1172 4494 
L 1172 3500 
L 2356 3500 
L 2356 3053 
L 1172 3053 
L 1172 1153 
Q 1172 725 1289 603 
Q 1406 481 1766 481 
L 2356 481 
L 2356 0 
L 1766 0 
Q 1100 0 847 248 
Q 594 497 594 1153 
L 594 3053 
L 172 3053 
L 172 3500 
L 594 3500 
L 594 4494 
L 1172 4494 
z
" transform="scale(0.015625)"/>
      <path id="DejaVuSans-61" d="M 2194 1759 
Q 1497 1759 1228 1600 
Q 959 1441 959 1056 
Q 959 750 1161 570 
Q 1363 391 1709 391 
Q 2188 391 2477 730 
Q 2766 1069 2766 1631 
L 2766 1759 
L 2194 1759 
z
M 3341 1997 
L 3341 0 
L 2766 0 
L 2766 531 
Q 2569 213 2275 61 
Q 1981 -91 1556 -91 
Q 1019 -91 701 211 
Q 384 513 384 1019 
Q 384 1609 779 1909 
Q 1175 2209 1959 2209 
L 2766 2209 
L 2766 2266 
Q 2766 2663 2505 2880 
Q 2244 3097 1772 3097 
Q 1472 3097 1187 3025 
Q 903 2953 641 2809 
L 641 3341 
Q 956 3463 1253 3523 
Q 1550 3584 1831 3584 
Q 2591 3584 2966 3190 
Q 3341 2797 3341 1997 
z
" transform="scale(0.015625)"/>
      <path id="DejaVuSans-6c" d="M 603 4863 
L 1178 4863 
L 1178 0 
L 603 0 
L 603 4863 
z
" transform="scale(0.015625)"/>
      <path id="DejaVuSans-68" d="M 3513 2113 
L 3513 0 
L 2938 0 
L 2938 2094 
Q 2938 2591 2744 2837 
Q 2550 3084 2163 3084 
Q 1697 3084 1428 2787 
Q 1159 2491 1159 1978 
L 1159 0 
L 581 0 
L 581 4863 
L 1159 4863 
L 1159 2956 
Q 1366 3272 1645 3428 
Q 1925 3584 2291 3584 
Q 2894 3584 3203 3211 
Q 3513 2838 3513 2113 
z
" transform="scale(0.015625)"/>
      <path id="DejaVuSans-73" d="M 2834 3397 
L 2834 2853 
Q 2591 2978 2328 3040 
Q 2066 3103 1784 3103 
Q 1356 3103 1142 2972 
Q 928 2841 928 2578 
Q 928 2378 1081 2264 
Q 1234 2150 1697 2047 
L 1894 2003 
Q 2506 1872 2764 1633 
Q 3022 1394 3022 966 
Q 3022 478 2636 193 
Q 2250 -91 1575 -91 
Q 1294 -91 989 -36 
Q 684 19 347 128 
L 347 722 
Q 666 556 975 473 
Q 1284 391 1588 391 
Q 1994 391 2212 530 
Q 2431 669 2431 922 
Q 2431 1156 2273 1281 
Q 2116 1406 1581 1522 
L 1381 1569 
Q 847 1681 609 1914 
Q 372 2147 372 2553 
Q 372 3047 722 3315 
Q 1072 3584 1716 3584 
Q 2034 3584 2315 3537 
Q 2597 3491 2834 3397 
z
" transform="scale(0.015625)"/>
      <path id="DejaVuSans-67" d="M 2906 1791 
Q 2906 2416 2648 2759 
Q 2391 3103 1925 3103 
Q 1463 3103 1205 2759 
Q 947 2416 947 1791 
Q 947 1169 1205 825 
Q 1463 481 1925 481 
Q 2391 481 2648 825 
Q 2906 1169 2906 1791 
z
M 3481 434 
Q 3481 -459 3084 -895 
Q 2688 -1331 1869 -1331 
Q 1566 -1331 1297 -1286 
Q 1028 -1241 775 -1147 
L 775 -588 
Q 1028 -725 1275 -790 
Q 1522 -856 1778 -856 
Q 2344 -856 2625 -561 
Q 2906 -266 2906 331 
L 2906 616 
Q 2728 306 2450 153 
Q 2172 0 1784 0 
Q 1141 0 747 490 
Q 353 981 353 1791 
Q 353 2603 747 3093 
Q 1141 3584 1784 3584 
Q 2172 3584 2450 3431 
Q 2728 3278 2906 2969 
L 2906 3500 
L 3481 3500 
L 3481 434 
z
" transform="scale(0.015625)"/>
      <path id="DejaVuSans-72" d="M 2631 2963 
Q 2534 3019 2420 3045 
Q 2306 3072 2169 3072 
Q 1681 3072 1420 2755 
Q 1159 2438 1159 1844 
L 1159 0 
L 581 0 
L 581 3500 
L 1159 3500 
L 1159 2956 
Q 1341 3275 1631 3429 
Q 1922 3584 2338 3584 
Q 2397 3584 2469 3576 
Q 2541 3569 2628 3553 
L 2631 2963 
z
" transform="scale(0.015625)"/>
      <path id="DejaVuSans-6d" d="M 3328 2828 
Q 3544 3216 3844 3400 
Q 4144 3584 4550 3584 
Q 5097 3584 5394 3201 
Q 5691 2819 5691 2113 
L 5691 0 
L 5113 0 
L 5113 2094 
Q 5113 2597 4934 2840 
Q 4756 3084 4391 3084 
Q 3944 3084 3684 2787 
Q 3425 2491 3425 1978 
L 3425 0 
L 2847 0 
L 2847 2094 
Q 2847 2600 2669 2842 
Q 2491 3084 2119 3084 
Q 1678 3084 1418 2786 
Q 1159 2488 1159 1978 
L 1159 0 
L 581 0 
L 581 3500 
L 1159 3500 
L 1159 2956 
Q 1356 3278 1631 3431 
Q 1906 3584 2284 3584 
Q 2666 3584 2933 3390 
Q 3200 3197 3328 2828 
z
" transform="scale(0.015625)"/>
      <path id="DejaVuSans-28" d="M 1984 4856 
Q 1566 4138 1362 3434 
Q 1159 2731 1159 2009 
Q 1159 1288 1364 580 
Q 1569 -128 1984 -844 
L 1484 -844 
Q 1016 -109 783 600 
Q 550 1309 550 2009 
Q 550 2706 781 3412 
Q 1013 4119 1484 4856 
L 1984 4856 
z
" transform="scale(0.015625)"/>
      <path id="DejaVuSans-63" d="M 3122 3366 
L 3122 2828 
Q 2878 2963 2633 3030 
Q 2388 3097 2138 3097 
Q 1578 3097 1268 2742 
Q 959 2388 959 1747 
Q 959 1106 1268 751 
Q 1578 397 2138 397 
Q 2388 397 2633 464 
Q 2878 531 3122 666 
L 3122 134 
Q 2881 22 2623 -34 
Q 2366 -91 2075 -91 
Q 1284 -91 818 406 
Q 353 903 353 1747 
Q 353 2603 823 3093 
Q 1294 3584 2113 3584 
Q 2378 3584 2631 3529 
Q 2884 3475 3122 3366 
z
" transform="scale(0.015625)"/>
      <path id="DejaVuSans-65" d="M 3597 1894 
L 3597 1613 
L 953 1613 
Q 991 1019 1311 708 
Q 1631 397 2203 397 
Q 2534 397 2845 478 
Q 3156 559 3463 722 
L 3463 178 
Q 3153 47 2828 -22 
Q 2503 -91 2169 -91 
Q 1331 -91 842 396 
Q 353 884 353 1716 
Q 353 2575 817 3079 
Q 1281 3584 2069 3584 
Q 2775 3584 3186 3129 
Q 3597 2675 3597 1894 
z
M 3022 2063 
Q 3016 2534 2758 2815 
Q 2500 3097 2075 3097 
Q 1594 3097 1305 2825 
Q 1016 2553 972 2059 
L 3022 2063 
z
" transform="scale(0.015625)"/>
      <path id="DejaVuSans-2c" d="M 750 794 
L 1409 794 
L 1409 256 
L 897 -744 
L 494 -744 
L 750 256 
L 750 794 
z
" transform="scale(0.015625)"/>
      <path id="DejaVuSans-29" d="M 513 4856 
L 1013 4856 
Q 1481 4119 1714 3412 
Q 1947 2706 1947 2009 
Q 1947 1309 1714 600 
Q 1481 -109 1013 -844 
L 513 -844 
Q 928 -128 1133 580 
Q 1338 1288 1338 2009 
Q 1338 2731 1133 3434 
Q 928 4138 513 4856 
z
" transform="scale(0.015625)"/>
     </defs>
     <use xlink:href="#DejaVuSans-43"/>
     <use xlink:href="#DejaVuSans-6f" x="69.824219"/>
     <use xlink:href="#DejaVuSans-6e" x="131.005859"/>
     <use xlink:href="#DejaVuSans-64" x="194.384766"/>
     <use xlink:href="#DejaVuSans-69" x="257.861328"/>
     <use xlink:href="#DejaVuSans-74" x="285.644531"/>
     <use xlink:href="#DejaVuSans-69" x="324.853516"/>
     <use xlink:href="#DejaVuSans-6f" x="352.636719"/>
     <use xlink:href="#DejaVuSans-6e" x="413.818359"/>
     <use xlink:href="#DejaVuSans-61" x="477.197266"/>
     <use xlink:href="#DejaVuSans-6c" x="538.476562"/>
     <use xlink:href="#DejaVuSans-20" x="566.259766"/>
     <use xlink:href="#DejaVuSans-68" x="598.046875"/>
     <use xlink:href="#DejaVuSans-69" x="661.425781"/>
     <use xlink:href="#DejaVuSans-73" x="689.208984"/>
     <use xlink:href="#DejaVuSans-74" x="741.308594"/>
     <use xlink:href="#DejaVuSans-6f" x="780.517578"/>
     <use xlink:href="#DejaVuSans-67" x="841.699219"/>
     <use xlink:href="#DejaVuSans-72" x="905.175781"/>
     <use xlink:href="#DejaVuSans-61" x="946.289062"/>
     <use xlink:href="#DejaVuSans-6d" x="1007.568359"/>
     <use xlink:href="#DejaVuSans-73" x="1104.980469"/>
     <use xlink:href="#DejaVuSans-20" x="1157.080078"/>
     <use xlink:href="#DejaVuSans-28" x="1188.867188"/>
     <use xlink:href="#DejaVuSans-61" x="1227.880859"/>
     <use xlink:href="#DejaVuSans-63" x="1289.160156"/>
     <use xlink:href="#DejaVuSans-65" x="1344.140625"/>
     <use xlink:href="#DejaVuSans-6e" x="1405.664062"/>
     <use xlink:href="#DejaVuSans-74" x="1469.042969"/>
     <use xlink:href="#DejaVuSans-72" x="1508.251953"/>
     <use xlink:href="#DejaVuSans-69" x="1549.365234"/>
     <use xlink:href="#DejaVuSans-63" x="1577.148438"/>
     <use xlink:href="#DejaVuSans-2c" x="1632.128906"/>
     <use xlink:href="#DejaVuSans-20" x="1663.916016"/>
     <use xlink:href="#DejaVuSans-72" x="1695.703125"/>
     <use xlink:href="#DejaVuSans-65" x="1734.566406"/>
     <use xlink:href="#DejaVuSans-61" x="1796.089844"/>
     <use xlink:href="#DejaVuSans-6c" x="1857.369141"/>
     <use xlink:href="#DejaVuSans-20" x="1885.152344"/>
     <use xlink:href="#DejaVuSans-64" x="1916.939453"/>
     <use xlink:href="#DejaVuSans-61" x="1980.416016"/>
     <use xlink:href="#DejaVuSans-74" x="2041.695312"/>
     <use xlink:href="#DejaVuSans-61" x="2080.904297"/>
     <use xlink:href="#DejaVuSans-29" x="2142.183594"/>
    </g>
   </g>
  </g>
  <g id="axes_3">
   <g id="patch_110">
    <path d="M 774.211765 256.32 
L 1036.8 256.32 
L 1036.8 34.56 
L 774.211765 34.56 
z
" style="fill: #ffffff"/>
   </g>
   <g id="patch_111">
    <path d="M 774.211765 256.32 
L 783.143337 256.32 
L 783.143337 256.32 
L 774.211765 256.32 
z
" clip-path="url(#p701c1fcf5f)" style="fill: #1f77b4"/>
   </g>
   <g id="patch_112">
    <path d="M 783.143337 256.32 
L 792.07491 256.32 
L 792.07491 256.32 
L 783.143337 256.32 
z
" clip-path="url(#p701c1fcf5f)" style="fill: #1f77b4"/>
   </g>
   <g id="patch_113">
    <path d="M 792.07491 256.32 
L 801.006483 256.32 
L 801.006483 256.32 
L 792.07491 256.32 
z
" clip-path="url(#p701c1fcf5f)" style="fill: #1f77b4"/>
   </g>
   <g id="patch_114">
    <path d="M 801.006483 256.32 
L 809.938055 256.32 
L 809.938055 256.32 
L 801.006483 256.32 
z
" clip-path="url(#p701c1fcf5f)" style="fill: #1f77b4"/>
   </g>
   <g id="patch_115">
    <path d="M 809.938055 256.32 
L 818.869628 256.32 
L 818.869628 256.32 
L 809.938055 256.32 
z
" clip-path="url(#p701c1fcf5f)" style="fill: #1f77b4"/>
   </g>
   <g id="patch_116">
    <path d="M 818.869628 256.32 
L 827.8012 256.32 
L 827.8012 254.524082 
L 818.869628 254.524082 
z
" clip-path="url(#p701c1fcf5f)" style="fill: #1f77b4"/>
   </g>
   <g id="patch_117">
    <path d="M 827.8012 256.32 
L 836.732773 256.32 
L 836.732773 250.932245 
L 827.8012 250.932245 
z
" clip-path="url(#p701c1fcf5f)" style="fill: #1f77b4"/>
   </g>
   <g id="patch_118">
    <path d="M 836.732773 256.32 
L 845.664346 256.32 
L 845.664346 254.524082 
L 836.732773 254.524082 
z
" clip-path="url(#p701c1fcf5f)" style="fill: #1f77b4"/>
   </g>
   <g id="patch_119">
    <path d="M 845.664346 256.32 
L 854.595918 256.32 
L 854.595918 231.177143 
L 845.664346 231.177143 
z
" clip-path="url(#p701c1fcf5f)" style="fill: #1f77b4"/>
   </g>
   <g id="patch_120">
    <path d="M 854.595918 256.32 
L 863.527491 256.32 
L 863.527491 236.564898 
L 854.595918 236.564898 
z
" clip-path="url(#p701c1fcf5f)" style="fill: #1f77b4"/>
   </g>
   <g id="patch_121">
    <path d="M 863.527491 256.32 
L 872.459064 256.32 
L 872.459064 193.462857 
L 863.527491 193.462857 
z
" clip-path="url(#p701c1fcf5f)" style="fill: #1f77b4"/>
   </g>
   <g id="patch_122">
    <path d="M 872.459064 256.32 
L 881.390636 256.32 
L 881.390636 168.32 
L 872.459064 168.32 
z
" clip-path="url(#p701c1fcf5f)" style="fill: #1f77b4"/>
   </g>
   <g id="patch_123">
    <path d="M 881.390636 256.32 
L 890.322209 256.32 
L 890.322209 114.442449 
L 881.390636 114.442449 
z
" clip-path="url(#p701c1fcf5f)" style="fill: #1f77b4"/>
   </g>
   <g id="patch_124">
    <path d="M 890.322209 256.32 
L 899.253782 256.32 
L 899.253782 98.279184 
L 890.322209 98.279184 
z
" clip-path="url(#p701c1fcf5f)" style="fill: #1f77b4"/>
   </g>
   <g id="patch_125">
    <path d="M 899.253782 256.32 
L 908.185354 256.32 
L 908.185354 65.952653 
L 899.253782 65.952653 
z
" clip-path="url(#p701c1fcf5f)" style="fill: #1f77b4"/>
   </g>
   <g id="patch_126">
    <path d="M 908.185354 256.32 
L 917.116927 256.32 
L 917.116927 55.177143 
L 908.185354 55.177143 
z
" clip-path="url(#p701c1fcf5f)" style="fill: #1f77b4"/>
   </g>
   <g id="patch_127">
    <path d="M 917.116927 256.32 
L 926.048499 256.32 
L 926.048499 82.115918 
L 917.116927 82.115918 
z
" clip-path="url(#p701c1fcf5f)" style="fill: #1f77b4"/>
   </g>
   <g id="patch_128">
    <path d="M 926.048499 256.32 
L 934.980072 256.32 
L 934.980072 121.626122 
L 926.048499 121.626122 
z
" clip-path="url(#p701c1fcf5f)" style="fill: #1f77b4"/>
   </g>
   <g id="patch_129">
    <path d="M 934.980072 256.32 
L 943.911645 256.32 
L 943.911645 157.54449 
L 934.980072 157.54449 
z
" clip-path="url(#p701c1fcf5f)" style="fill: #1f77b4"/>
   </g>
   <g id="patch_130">
    <path d="M 943.911645 256.32 
L 952.843217 256.32 
L 952.843217 200.646531 
L 943.911645 200.646531 
z
" clip-path="url(#p701c1fcf5f)" style="fill: #1f77b4"/>
   </g>
   <g id="patch_131">
    <path d="M 952.843217 256.32 
L 961.77479 256.32 
L 961.77479 227.585306 
L 952.843217 227.585306 
z
" clip-path="url(#p701c1fcf5f)" style="fill: #1f77b4"/>
   </g>
   <g id="patch_132">
    <path d="M 961.77479 256.32 
L 970.706363 256.32 
L 970.706363 240.156735 
L 961.77479 240.156735 
z
" clip-path="url(#p701c1fcf5f)" style="fill: #1f77b4"/>
   </g>
   <g id="patch_133">
    <path d="M 970.706363 256.32 
L 979.637935 256.32 
L 979.637935 250.932245 
L 970.706363 250.932245 
z
" clip-path="url(#p701c1fcf5f)" style="fill: #1f77b4"/>
   </g>
   <g id="patch_134">
    <path d="M 979.637935 256.32 
L 988.569508 256.32 
L 988.569508 252.728163 
L 979.637935 252.728163 
z
" clip-path="url(#p701c1fcf5f)" style="fill: #1f77b4"/>
   </g>
   <g id="patch_135">
    <path d="M 988.569508 256.32 
L 997.50108 256.32 
L 997.50108 256.32 
L 988.569508 256.32 
z
" clip-path="url(#p701c1fcf5f)" style="fill: #1f77b4"/>
   </g>
   <g id="patch_136">
    <path d="M 997.50108 256.32 
L 1006.432653 256.32 
L 1006.432653 256.32 
L 997.50108 256.32 
z
" clip-path="url(#p701c1fcf5f)" style="fill: #1f77b4"/>
   </g>
   <g id="patch_137">
    <path d="M 1006.432653 256.32 
L 1015.364226 256.32 
L 1015.364226 256.32 
L 1006.432653 256.32 
z
" clip-path="url(#p701c1fcf5f)" style="fill: #1f77b4"/>
   </g>
   <g id="patch_138">
    <path d="M 1015.364226 256.32 
L 1024.295798 256.32 
L 1024.295798 256.32 
L 1015.364226 256.32 
z
" clip-path="url(#p701c1fcf5f)" style="fill: #1f77b4"/>
   </g>
   <g id="patch_139">
    <path d="M 1024.295798 256.32 
L 1033.227371 256.32 
L 1033.227371 256.32 
L 1024.295798 256.32 
z
" clip-path="url(#p701c1fcf5f)" style="fill: #1f77b4"/>
   </g>
   <g id="patch_140">
    <path d="M 1033.227371 256.32 
L 1042.158944 256.32 
L 1042.158944 256.32 
L 1033.227371 256.32 
z
" clip-path="url(#p701c1fcf5f)" style="fill: #1f77b4"/>
   </g>
   <g id="patch_141">
    <path d="M 1042.158944 256.32 
L 1051.090516 256.32 
L 1051.090516 256.32 
L 1042.158944 256.32 
z
" clip-path="url(#p701c1fcf5f)" style="fill: #1f77b4"/>
   </g>
   <g id="patch_142">
    <path d="M 1051.090516 256.32 
L 1060.022089 256.32 
L 1060.022089 256.32 
L 1051.090516 256.32 
z
" clip-path="url(#p701c1fcf5f)" style="fill: #1f77b4"/>
   </g>
   <g id="patch_143">
    <path d="M 1060.022089 256.32 
L 1068.953661 256.32 
L 1068.953661 256.32 
L 1060.022089 256.32 
z
" clip-path="url(#p701c1fcf5f)" style="fill: #1f77b4"/>
   </g>
   <g id="patch_144">
    <path d="M 1068.953661 256.32 
L 1077.885234 256.32 
L 1077.885234 256.32 
L 1068.953661 256.32 
z
" clip-path="url(#p701c1fcf5f)" style="fill: #1f77b4"/>
   </g>
   <g id="patch_145">
    <path d="M 1077.885234 256.32 
L 1086.816807 256.32 
L 1086.816807 256.32 
L 1077.885234 256.32 
z
" clip-path="url(#p701c1fcf5f)" style="fill: #1f77b4"/>
   </g>
   <g id="patch_146">
    <path d="M 1086.816807 256.32 
L 1095.748379 256.32 
L 1095.748379 256.32 
L 1086.816807 256.32 
z
" clip-path="url(#p701c1fcf5f)" style="fill: #1f77b4"/>
   </g>
   <g id="patch_147">
    <path d="M 1095.748379 256.32 
L 1104.679952 256.32 
L 1104.679952 256.32 
L 1095.748379 256.32 
z
" clip-path="url(#p701c1fcf5f)" style="fill: #1f77b4"/>
   </g>
   <g id="patch_148">
    <path d="M 1104.679952 256.32 
L 1113.611525 256.32 
L 1113.611525 256.32 
L 1104.679952 256.32 
z
" clip-path="url(#p701c1fcf5f)" style="fill: #1f77b4"/>
   </g>
   <g id="patch_149">
    <path d="M 1113.611525 256.32 
L 1122.543097 256.32 
L 1122.543097 256.32 
L 1113.611525 256.32 
z
" clip-path="url(#p701c1fcf5f)" style="fill: #1f77b4"/>
   </g>
   <g id="patch_150">
    <path d="M 1122.543097 256.32 
L 1131.47467 256.32 
L 1131.47467 256.32 
L 1122.543097 256.32 
z
" clip-path="url(#p701c1fcf5f)" style="fill: #1f77b4"/>
   </g>
   <g id="patch_151">
    <path d="M 1131.47467 256.32 
L 1140.406242 256.32 
L 1140.406242 256.32 
L 1131.47467 256.32 
z
" clip-path="url(#p701c1fcf5f)" style="fill: #1f77b4"/>
   </g>
   <g id="patch_152">
    <path d="M 1140.406242 256.32 
L 1149.337815 256.32 
L 1149.337815 256.32 
L 1140.406242 256.32 
z
" clip-path="url(#p701c1fcf5f)" style="fill: #1f77b4"/>
   </g>
   <g id="patch_153">
    <path d="M 1149.337815 256.32 
L 1158.269388 256.32 
L 1158.269388 256.32 
L 1149.337815 256.32 
z
" clip-path="url(#p701c1fcf5f)" style="fill: #1f77b4"/>
   </g>
   <g id="patch_154">
    <path d="M 1158.269388 256.32 
L 1167.20096 256.32 
L 1167.20096 256.32 
L 1158.269388 256.32 
z
" clip-path="url(#p701c1fcf5f)" style="fill: #1f77b4"/>
   </g>
   <g id="patch_155">
    <path d="M 1167.20096 256.32 
L 1176.132533 256.32 
L 1176.132533 256.32 
L 1167.20096 256.32 
z
" clip-path="url(#p701c1fcf5f)" style="fill: #1f77b4"/>
   </g>
   <g id="patch_156">
    <path d="M 1176.132533 256.32 
L 1185.064106 256.32 
L 1185.064106 256.32 
L 1176.132533 256.32 
z
" clip-path="url(#p701c1fcf5f)" style="fill: #1f77b4"/>
   </g>
   <g id="patch_157">
    <path d="M 1185.064106 256.32 
L 1193.995678 256.32 
L 1193.995678 256.32 
L 1185.064106 256.32 
z
" clip-path="url(#p701c1fcf5f)" style="fill: #1f77b4"/>
   </g>
   <g id="patch_158">
    <path d="M 1193.995678 256.32 
L 1202.927251 256.32 
L 1202.927251 256.32 
L 1193.995678 256.32 
z
" clip-path="url(#p701c1fcf5f)" style="fill: #1f77b4"/>
   </g>
   <g id="patch_159">
    <path d="M 1202.927251 256.32 
L 1211.858824 256.32 
L 1211.858824 256.32 
L 1202.927251 256.32 
z
" clip-path="url(#p701c1fcf5f)" style="fill: #1f77b4"/>
   </g>
   <g id="matplotlib.axis_5">
    <g id="xtick_15">
     <g id="line2d_35">
      <g>
       <use xlink:href="#mba1e8f13ae" x="774.211765" y="256.32" style="stroke: #000000; stroke-width: 0.8"/>
      </g>
     </g>
     <g id="text_32">
      <!-- 0.0 -->
      <g transform="translate(764.66989 272.438125) scale(0.12 -0.12)">
       <use xlink:href="#DejaVuSans-30"/>
       <use xlink:href="#DejaVuSans-2e" x="63.623047"/>
       <use xlink:href="#DejaVuSans-30" x="95.410156"/>
      </g>
     </g>
    </g>
    <g id="xtick_16">
     <g id="line2d_36">
      <g>
       <use xlink:href="#mba1e8f13ae" x="817.976471" y="256.32" style="stroke: #000000; stroke-width: 0.8"/>
      </g>
     </g>
     <g id="text_33">
      <!-- 0.5 -->
      <g transform="translate(808.434596 272.438125) scale(0.12 -0.12)">
       <use xlink:href="#DejaVuSans-30"/>
       <use xlink:href="#DejaVuSans-2e" x="63.623047"/>
       <use xlink:href="#DejaVuSans-35" x="95.410156"/>
      </g>
     </g>
    </g>
    <g id="xtick_17">
     <g id="line2d_37">
      <g>
       <use xlink:href="#mba1e8f13ae" x="861.741176" y="256.32" style="stroke: #000000; stroke-width: 0.8"/>
      </g>
     </g>
     <g id="text_34">
      <!-- 1.0 -->
      <g transform="translate(852.199301 272.438125) scale(0.12 -0.12)">
       <use xlink:href="#DejaVuSans-31"/>
       <use xlink:href="#DejaVuSans-2e" x="63.623047"/>
       <use xlink:href="#DejaVuSans-30" x="95.410156"/>
      </g>
     </g>
    </g>
    <g id="xtick_18">
     <g id="line2d_38">
      <g>
       <use xlink:href="#mba1e8f13ae" x="905.505882" y="256.32" style="stroke: #000000; stroke-width: 0.8"/>
      </g>
     </g>
     <g id="text_35">
      <!-- 1.5 -->
      <g transform="translate(895.964007 272.438125) scale(0.12 -0.12)">
       <use xlink:href="#DejaVuSans-31"/>
       <use xlink:href="#DejaVuSans-2e" x="63.623047"/>
       <use xlink:href="#DejaVuSans-35" x="95.410156"/>
      </g>
     </g>
    </g>
    <g id="xtick_19">
     <g id="line2d_39">
      <g>
       <use xlink:href="#mba1e8f13ae" x="949.270588" y="256.32" style="stroke: #000000; stroke-width: 0.8"/>
      </g>
     </g>
     <g id="text_36">
      <!-- 2.0 -->
      <g transform="translate(939.728713 272.438125) scale(0.12 -0.12)">
       <use xlink:href="#DejaVuSans-32"/>
       <use xlink:href="#DejaVuSans-2e" x="63.623047"/>
       <use xlink:href="#DejaVuSans-30" x="95.410156"/>
      </g>
     </g>
    </g>
    <g id="xtick_20">
     <g id="line2d_40">
      <g>
       <use xlink:href="#mba1e8f13ae" x="993.035294" y="256.32" style="stroke: #000000; stroke-width: 0.8"/>
      </g>
     </g>
     <g id="text_37">
      <!-- 2.5 -->
      <g transform="translate(983.493419 272.438125) scale(0.12 -0.12)">
       <use xlink:href="#DejaVuSans-32"/>
       <use xlink:href="#DejaVuSans-2e" x="63.623047"/>
       <use xlink:href="#DejaVuSans-35" x="95.410156"/>
      </g>
     </g>
    </g>
    <g id="xtick_21">
     <g id="line2d_41">
      <g>
       <use xlink:href="#mba1e8f13ae" x="1036.8" y="256.32" style="stroke: #000000; stroke-width: 0.8"/>
      </g>
     </g>
     <g id="text_38">
      <!-- 3.0 -->
      <g transform="translate(1027.258125 272.438125) scale(0.12 -0.12)">
       <use xlink:href="#DejaVuSans-33"/>
       <use xlink:href="#DejaVuSans-2e" x="63.623047"/>
       <use xlink:href="#DejaVuSans-30" x="95.410156"/>
      </g>
     </g>
    </g>
   </g>
   <g id="matplotlib.axis_6">
    <g id="ytick_15">
     <g id="line2d_42">
      <g>
       <use xlink:href="#m64f91a0310" x="774.211765" y="256.32" style="stroke: #000000; stroke-width: 0.8"/>
      </g>
     </g>
     <g id="text_39">
      <!-- 0.0 -->
      <g transform="translate(748.128015 260.879063) scale(0.12 -0.12)">
       <use xlink:href="#DejaVuSans-30"/>
       <use xlink:href="#DejaVuSans-2e" x="63.623047"/>
       <use xlink:href="#DejaVuSans-30" x="95.410156"/>
      </g>
     </g>
    </g>
    <g id="ytick_16">
     <g id="line2d_43">
      <g>
       <use xlink:href="#m64f91a0310" x="774.211765" y="227.475352" style="stroke: #000000; stroke-width: 0.8"/>
      </g>
     </g>
     <g id="text_40">
      <!-- 0.2 -->
      <g transform="translate(748.128015 232.034414) scale(0.12 -0.12)">
       <use xlink:href="#DejaVuSans-30"/>
       <use xlink:href="#DejaVuSans-2e" x="63.623047"/>
       <use xlink:href="#DejaVuSans-32" x="95.410156"/>
      </g>
     </g>
    </g>
    <g id="ytick_17">
     <g id="line2d_44">
      <g>
       <use xlink:href="#m64f91a0310" x="774.211765" y="198.630704" style="stroke: #000000; stroke-width: 0.8"/>
      </g>
     </g>
     <g id="text_41">
      <!-- 0.4 -->
      <g transform="translate(748.128015 203.189766) scale(0.12 -0.12)">
       <use xlink:href="#DejaVuSans-30"/>
       <use xlink:href="#DejaVuSans-2e" x="63.623047"/>
       <use xlink:href="#DejaVuSans-34" x="95.410156"/>
      </g>
     </g>
    </g>
    <g id="ytick_18">
     <g id="line2d_45">
      <g>
       <use xlink:href="#m64f91a0310" x="774.211765" y="169.786056" style="stroke: #000000; stroke-width: 0.8"/>
      </g>
     </g>
     <g id="text_42">
      <!-- 0.6 -->
      <g transform="translate(748.128015 174.345118) scale(0.12 -0.12)">
       <use xlink:href="#DejaVuSans-30"/>
       <use xlink:href="#DejaVuSans-2e" x="63.623047"/>
       <use xlink:href="#DejaVuSans-36" x="95.410156"/>
      </g>
     </g>
    </g>
    <g id="ytick_19">
     <g id="line2d_46">
      <g>
       <use xlink:href="#m64f91a0310" x="774.211765" y="140.941408" style="stroke: #000000; stroke-width: 0.8"/>
      </g>
     </g>
     <g id="text_43">
      <!-- 0.8 -->
      <g transform="translate(748.128015 145.50047) scale(0.12 -0.12)">
       <use xlink:href="#DejaVuSans-30"/>
       <use xlink:href="#DejaVuSans-2e" x="63.623047"/>
       <use xlink:href="#DejaVuSans-38" x="95.410156"/>
      </g>
     </g>
    </g>
    <g id="ytick_20">
     <g id="line2d_47">
      <g>
       <use xlink:href="#m64f91a0310" x="774.211765" y="112.09676" style="stroke: #000000; stroke-width: 0.8"/>
      </g>
     </g>
     <g id="text_44">
      <!-- 1.0 -->
      <g transform="translate(748.128015 116.655822) scale(0.12 -0.12)">
       <use xlink:href="#DejaVuSans-31"/>
       <use xlink:href="#DejaVuSans-2e" x="63.623047"/>
       <use xlink:href="#DejaVuSans-30" x="95.410156"/>
      </g>
     </g>
    </g>
    <g id="ytick_21">
     <g id="line2d_48">
      <g>
       <use xlink:href="#m64f91a0310" x="774.211765" y="83.252112" style="stroke: #000000; stroke-width: 0.8"/>
      </g>
     </g>
     <g id="text_45">
      <!-- 1.2 -->
      <g transform="translate(748.128015 87.811174) scale(0.12 -0.12)">
       <use xlink:href="#DejaVuSans-31"/>
       <use xlink:href="#DejaVuSans-2e" x="63.623047"/>
       <use xlink:href="#DejaVuSans-32" x="95.410156"/>
      </g>
     </g>
    </g>
    <g id="ytick_22">
     <g id="line2d_49">
      <g>
       <use xlink:href="#m64f91a0310" x="774.211765" y="54.407464" style="stroke: #000000; stroke-width: 0.8"/>
      </g>
     </g>
     <g id="text_46">
      <!-- 1.4 -->
      <g transform="translate(748.128015 58.966526) scale(0.12 -0.12)">
       <use xlink:href="#DejaVuSans-31"/>
       <use xlink:href="#DejaVuSans-2e" x="63.623047"/>
       <use xlink:href="#DejaVuSans-34" x="95.410156"/>
      </g>
     </g>
    </g>
   </g>
   <g id="line2d_50">
    <path d="M 774.211765 256.32 
L 776.864171 256.3003 
L 779.516578 256.278106 
L 782.168984 256.250751 
L 784.82139 256.215219 
L 787.473797 256.167958 
L 790.126203 256.104689 
L 792.77861 256.020198 
L 795.431016 255.90812 
L 798.083422 255.760713 
L 800.735829 255.568621 
L 803.388235 255.320638 
L 806.040642 255.003481 
L 808.693048 254.601581 
L 811.345455 254.096902 
L 813.997861 253.468818 
L 816.650267 252.694049 
L 819.302674 251.746691 
L 821.95508 250.598353 
L 824.607487 249.21843 
L 827.259893 247.574514 
L 829.912299 245.632983 
L 832.564706 243.359759 
L 835.217112 240.721243 
L 837.869519 237.685434 
L 840.521925 234.223193 
L 843.174332 230.309654 
L 845.826738 225.925714 
L 848.479144 221.059587 
L 851.131551 215.708319 
L 853.783957 209.879239 
L 856.436364 203.591233 
L 859.08877 196.875785 
L 861.741176 189.777699 
L 864.393583 182.355425 
L 867.045989 174.680947 
L 869.698396 166.839158 
L 872.350802 158.926721 
L 875.003209 151.050406 
L 877.655615 143.324918 
L 880.308021 135.870275 
L 882.960428 128.808811 
L 885.612834 122.261898 
L 888.265241 116.346511 
L 890.917647 111.17177 
L 893.570053 106.835602 
L 896.22246 103.421657 
L 898.874866 100.996629 
L 901.527273 99.608087 
L 904.179679 99.28292 
L 906.832086 100.026472 
L 909.484492 101.822397 
L 912.136898 104.633247 
L 914.789305 108.40176 
L 917.441711 113.052785 
L 920.094118 118.495758 
L 922.746524 124.627616 
L 925.39893 131.336011 
L 928.051337 138.502699 
L 930.703743 146.006948 
L 933.35615 153.72884 
L 936.008556 161.552338 
L 938.660963 169.368026 
L 941.313369 177.075419 
L 943.965775 184.584812 
L 946.618182 191.818609 
L 949.270588 198.712152 
L 951.922995 205.214055 
L 954.575401 211.286073 
L 957.227807 216.90258 
L 959.880214 222.049704 
L 962.53262 226.724203 
L 965.185027 230.932149 
L 967.837433 234.6875 
L 970.48984 238.010629 
L 973.142246 240.926862 
L 975.794652 243.465093 
L 978.447059 245.656501 
L 981.099465 247.533408 
L 983.751872 249.128293 
L 986.404278 250.47297 
L 989.056684 251.597944 
L 991.709091 252.53191 
L 994.361497 253.301414 
L 997.013904 253.930639 
L 999.66631 254.441308 
L 1002.318717 254.852677 
L 1004.971123 255.181606 
L 1007.623529 255.442681 
L 1010.275936 255.648385 
L 1012.928342 255.809281 
L 1015.580749 255.934217 
L 1018.233155 256.030529 
L 1020.885561 256.104242 
L 1023.537968 256.160254 
L 1026.190374 256.202512 
L 1028.842781 256.234166 
L 1031.495187 256.257708 
L 1034.147594 256.275094 
L 1036.8 256.287843 
" clip-path="url(#p701c1fcf5f)" style="fill: none; stroke: #ff0000; stroke-width: 1.5; stroke-linecap: square"/>
   </g>
   <g id="line2d_51">
    <path d="M 774.211765 256.32 
L 776.864171 247.58722 
L 779.516578 238.902489 
L 782.168984 230.313414 
L 784.82139 221.866728 
L 787.473797 213.607865 
L 790.126203 205.580555 
L 792.77861 197.826436 
L 795.431016 190.384695 
L 798.083422 183.291746 
L 800.735829 176.580926 
L 803.388235 170.282249 
L 806.040642 164.422186 
L 808.693048 159.023491 
L 811.345455 154.105076 
L 813.997861 149.681924 
L 816.650267 145.765052 
L 819.302674 142.36151 
L 821.95508 139.474436 
L 824.607487 137.10314 
L 827.259893 135.243229 
L 829.912299 133.886778 
L 832.564706 133.022516 
L 835.217112 132.636058 
L 837.869519 132.710153 
L 840.521925 133.224953 
L 843.174332 134.158303 
L 845.826738 135.486039 
L 848.479144 137.1823 
L 851.131551 139.219834 
L 853.783957 141.570316 
L 856.436364 144.204653 
L 859.08877 147.093284 
L 861.741176 150.20647 
L 864.393583 153.514568 
L 867.045989 156.988291 
L 869.698396 160.598944 
L 872.350802 164.318646 
L 875.003209 168.120525 
L 877.655615 171.978888 
L 880.308021 175.869377 
L 882.960428 179.769086 
L 885.612834 183.656666 
L 888.265241 187.512404 
L 890.917647 191.318272 
L 893.570053 195.057963 
L 896.22246 198.716901 
L 898.874866 202.282237 
L 901.527273 205.742818 
L 904.179679 209.08915 
L 906.832086 212.313344 
L 909.484492 215.409045 
L 912.136898 218.371356 
L 914.789305 221.196752 
L 917.441711 223.882989 
L 920.094118 226.429001 
L 922.746524 228.834804 
L 925.39893 231.101391 
L 928.051337 233.230627 
L 930.703743 235.225151 
L 933.35615 237.088272 
L 936.008556 238.823872 
L 938.660963 240.436315 
L 941.313369 241.930358 
L 943.965775 243.311068 
L 946.618182 244.583741 
L 949.270588 245.753837 
L 951.922995 246.826909 
L 954.575401 247.80855 
L 957.227807 248.704332 
L 959.880214 249.51977 
L 962.53262 250.260275 
L 965.185027 250.93112 
L 967.837433 251.537415 
L 970.48984 252.08408 
L 973.142246 252.575827 
L 975.794652 253.017147 
L 978.447059 253.412298 
L 981.099465 253.765302 
L 983.751872 254.079937 
L 986.404278 254.35974 
L 989.056684 254.608008 
L 991.709091 254.827803 
L 994.361497 255.02196 
L 997.013904 255.193089 
L 999.66631 255.343591 
L 1002.318717 255.475662 
L 1004.971123 255.591307 
L 1007.623529 255.69235 
L 1010.275936 255.780443 
L 1012.928342 255.857082 
L 1015.580749 255.923612 
L 1018.233155 255.981245 
L 1020.885561 256.031063 
L 1023.537968 256.074036 
L 1026.190374 256.111025 
L 1028.842781 256.142797 
L 1031.495187 256.170031 
L 1034.147594 256.193325 
L 1036.8 256.213209 
" clip-path="url(#p701c1fcf5f)" style="fill: none; stroke: #0000ff; stroke-width: 1.5; stroke-linecap: square"/>
   </g>
   <g id="line2d_52">
    <path d="M 921.757261 256.32 
L 921.757261 45.12 
" clip-path="url(#p701c1fcf5f)" style="fill: none; stroke: #000000; stroke-width: 1.5; stroke-linecap: square"/>
   </g>
   <g id="patch_160">
    <path d="M 774.211765 256.32 
L 774.211765 34.56 
" style="fill: none; stroke: #000000; stroke-width: 0.8; stroke-linejoin: miter; stroke-linecap: square"/>
   </g>
   <g id="patch_161">
    <path d="M 1036.8 256.32 
L 1036.8 34.56 
" style="fill: none; stroke: #000000; stroke-width: 0.8; stroke-linejoin: miter; stroke-linecap: square"/>
   </g>
   <g id="patch_162">
    <path d="M 774.211765 256.32 
L 1036.8 256.32 
" style="fill: none; stroke: #000000; stroke-width: 0.8; stroke-linejoin: miter; stroke-linecap: square"/>
   </g>
   <g id="patch_163">
    <path d="M 774.211765 34.56 
L 1036.8 34.56 
" style="fill: none; stroke: #000000; stroke-width: 0.8; stroke-linejoin: miter; stroke-linecap: square"/>
   </g>
   <g id="text_47">
    <!-- &lt;E1&gt; = 1.69 -->
    <g transform="translate(958.023529 66.24) scale(0.1 -0.1)">
     <defs>
      <path id="DejaVuSans-39" d="M 703 97 
L 703 672 
Q 941 559 1184 500 
Q 1428 441 1663 441 
Q 2288 441 2617 861 
Q 2947 1281 2994 2138 
Q 2813 1869 2534 1725 
Q 2256 1581 1919 1581 
Q 1219 1581 811 2004 
Q 403 2428 403 3163 
Q 403 3881 828 4315 
Q 1253 4750 1959 4750 
Q 2769 4750 3195 4129 
Q 3622 3509 3622 2328 
Q 3622 1225 3098 567 
Q 2575 -91 1691 -91 
Q 1453 -91 1209 -44 
Q 966 3 703 97 
z
M 1959 2075 
Q 2384 2075 2632 2365 
Q 2881 2656 2881 3163 
Q 2881 3666 2632 3958 
Q 2384 4250 1959 4250 
Q 1534 4250 1286 3958 
Q 1038 3666 1038 3163 
Q 1038 2656 1286 2365 
Q 1534 2075 1959 2075 
z
" transform="scale(0.015625)"/>
     </defs>
     <use xlink:href="#DejaVuSans-3c"/>
     <use xlink:href="#DejaVuSans-45" x="83.789062"/>
     <use xlink:href="#DejaVuSans-31" x="146.972656"/>
     <use xlink:href="#DejaVuSans-3e" x="210.595703"/>
     <use xlink:href="#DejaVuSans-20" x="294.384766"/>
     <use xlink:href="#DejaVuSans-3d" x="326.171875"/>
     <use xlink:href="#DejaVuSans-20" x="409.960938"/>
     <use xlink:href="#DejaVuSans-31" x="441.748047"/>
     <use xlink:href="#DejaVuSans-2e" x="505.371094"/>
     <use xlink:href="#DejaVuSans-36" x="537.158203"/>
     <use xlink:href="#DejaVuSans-39" x="600.78125"/>
    </g>
   </g>
  </g>
 </g>
 <defs>
  <clipPath id="pcdebd6d5fe">
   <rect x="144" y="34.56" width="262.588235" height="221.76"/>
  </clipPath>
  <clipPath id="p713a5aa197">
   <rect x="459.105882" y="34.56" width="262.588235" height="221.76"/>
  </clipPath>
  <clipPath id="p701c1fcf5f">
   <rect x="774.211765" y="34.56" width="262.588235" height="221.76"/>
  </clipPath>
 </defs>
</svg>
