<?xml version="1.0" encoding="utf-8" standalone="no"?>
<!DOCTYPE svg PUBLIC "-//W3C//DTD SVG 1.1//EN"
  "http://www.w3.org/Graphics/SVG/1.1/DTD/svg11.dtd">
<svg xmlns:xlink="http://www.w3.org/1999/xlink" width="1152pt" height="288pt" viewBox="0 0 1152 288" xmlns="http://www.w3.org/2000/svg" version="1.1">
 <metadata>
  <rdf:RDF xmlns:dc="http://purl.org/dc/elements/1.1/" xmlns:cc="http://creativecommons.org/ns#" xmlns:rdf="http://www.w3.org/1999/02/22-rdf-syntax-ns#">
   <cc:Work>
    <dc:type rdf:resource="http://purl.org/dc/dcmitype/StillImage"/>
    <dc:date>2024-01-17T17:43:14.307286</dc:date>
    <dc:format>image/svg+xml</dc:format>
    <dc:creator>
     <cc:Agent>
      <dc:title>Matplotlib v3.8.2, https://matplotlib.org/</dc:title>
     </cc:Agent>
    </dc:creator>
   </cc:Work>
  </rdf:RDF>
 </metadata>
 <defs>
  <style type="text/css">*{stroke-linejoin: round; stroke-linecap: butt}</style>
 </defs>
 <g id="figure_1">
  <g id="patch_1">
   <path d="M 0 288 
L 1152 288 
L 1152 0 
L 0 0 
z
" style="fill: #ffffff"/>
  </g>
  <g id="axes_1">
   <g id="patch_2">
    <path d="M 144 256.32 
L 406.588235 256.32 
L 406.588235 34.56 
L 144 34.56 
z
" style="fill: #ffffff"/>
   </g>
   <g id="patch_3">
    <path d="M 144 256.32 
L 152.931573 256.32 
L 152.931573 223.012591 
L 144 223.012591 
z
" clip-path="url(#pd82cf503a7)" style="fill: #1f77b4"/>
   </g>
   <g id="patch_4">
    <path d="M 152.931573 256.32 
L 161.863145 256.32 
L 161.863145 140.784925 
L 152.931573 140.784925 
z
" clip-path="url(#pd82cf503a7)" style="fill: #1f77b4"/>
   </g>
   <g id="patch_5">
    <path d="M 161.863145 256.32 
L 170.794718 256.32 
L 170.794718 66.884111 
L 161.863145 66.884111 
z
" clip-path="url(#pd82cf503a7)" style="fill: #1f77b4"/>
   </g>
   <g id="patch_6">
    <path d="M 170.794718 256.32 
L 179.726291 256.32 
L 179.726291 58.557259 
L 170.794718 58.557259 
z
" clip-path="url(#pd82cf503a7)" style="fill: #1f77b4"/>
   </g>
   <g id="patch_7">
    <path d="M 179.726291 256.32 
L 188.657863 256.32 
L 188.657863 85.619529 
L 179.726291 85.619529 
z
" clip-path="url(#pd82cf503a7)" style="fill: #1f77b4"/>
   </g>
   <g id="patch_8">
    <path d="M 188.657863 256.32 
L 197.589436 256.32 
L 197.589436 106.43666 
L 188.657863 106.43666 
z
" clip-path="url(#pd82cf503a7)" style="fill: #1f77b4"/>
   </g>
   <g id="patch_9">
    <path d="M 197.589436 256.32 
L 206.521008 256.32 
L 206.521008 134.539786 
L 197.589436 134.539786 
z
" clip-path="url(#pd82cf503a7)" style="fill: #1f77b4"/>
   </g>
   <g id="patch_10">
    <path d="M 206.521008 256.32 
L 215.452581 256.32 
L 215.452581 165.765482 
L 206.521008 165.765482 
z
" clip-path="url(#pd82cf503a7)" style="fill: #1f77b4"/>
   </g>
   <g id="patch_11">
    <path d="M 215.452581 256.32 
L 224.384154 256.32 
L 224.384154 191.786895 
L 215.452581 191.786895 
z
" clip-path="url(#pd82cf503a7)" style="fill: #1f77b4"/>
   </g>
   <g id="patch_12">
    <path d="M 224.384154 256.32 
L 233.315726 256.32 
L 233.315726 207.399743 
L 224.384154 207.399743 
z
" clip-path="url(#pd82cf503a7)" style="fill: #1f77b4"/>
   </g>
   <g id="patch_13">
    <path d="M 233.315726 256.32 
L 242.247299 256.32 
L 242.247299 218.849165 
L 233.315726 218.849165 
z
" clip-path="url(#pd82cf503a7)" style="fill: #1f77b4"/>
   </g>
   <g id="patch_14">
    <path d="M 242.247299 256.32 
L 251.178872 256.32 
L 251.178872 241.748009 
L 242.247299 241.748009 
z
" clip-path="url(#pd82cf503a7)" style="fill: #1f77b4"/>
   </g>
   <g id="patch_15">
    <path d="M 251.178872 256.32 
L 260.110444 256.32 
L 260.110444 246.952291 
L 251.178872 246.952291 
z
" clip-path="url(#pd82cf503a7)" style="fill: #1f77b4"/>
   </g>
   <g id="patch_16">
    <path d="M 260.110444 256.32 
L 269.042017 256.32 
L 269.042017 249.034004 
L 260.110444 249.034004 
z
" clip-path="url(#pd82cf503a7)" style="fill: #1f77b4"/>
   </g>
   <g id="patch_17">
    <path d="M 269.042017 256.32 
L 277.973589 256.32 
L 277.973589 252.156574 
L 269.042017 252.156574 
z
" clip-path="url(#pd82cf503a7)" style="fill: #1f77b4"/>
   </g>
   <g id="patch_18">
    <path d="M 277.973589 256.32 
L 286.905162 256.32 
L 286.905162 256.32 
L 277.973589 256.32 
z
" clip-path="url(#pd82cf503a7)" style="fill: #1f77b4"/>
   </g>
   <g id="patch_19">
    <path d="M 286.905162 256.32 
L 295.836735 256.32 
L 295.836735 256.32 
L 286.905162 256.32 
z
" clip-path="url(#pd82cf503a7)" style="fill: #1f77b4"/>
   </g>
   <g id="patch_20">
    <path d="M 295.836735 256.32 
L 304.768307 256.32 
L 304.768307 256.32 
L 295.836735 256.32 
z
" clip-path="url(#pd82cf503a7)" style="fill: #1f77b4"/>
   </g>
   <g id="patch_21">
    <path d="M 304.768307 256.32 
L 313.69988 256.32 
L 313.69988 256.32 
L 304.768307 256.32 
z
" clip-path="url(#pd82cf503a7)" style="fill: #1f77b4"/>
   </g>
   <g id="patch_22">
    <path d="M 313.69988 256.32 
L 322.631453 256.32 
L 322.631453 256.32 
L 313.69988 256.32 
z
" clip-path="url(#pd82cf503a7)" style="fill: #1f77b4"/>
   </g>
   <g id="patch_23">
    <path d="M 322.631453 256.32 
L 331.563025 256.32 
L 331.563025 256.32 
L 322.631453 256.32 
z
" clip-path="url(#pd82cf503a7)" style="fill: #1f77b4"/>
   </g>
   <g id="patch_24">
    <path d="M 331.563025 256.32 
L 340.494598 256.32 
L 340.494598 256.32 
L 331.563025 256.32 
z
" clip-path="url(#pd82cf503a7)" style="fill: #1f77b4"/>
   </g>
   <g id="patch_25">
    <path d="M 340.494598 256.32 
L 349.42617 256.32 
L 349.42617 256.32 
L 340.494598 256.32 
z
" clip-path="url(#pd82cf503a7)" style="fill: #1f77b4"/>
   </g>
   <g id="patch_26">
    <path d="M 349.42617 256.32 
L 358.357743 256.32 
L 358.357743 256.32 
L 349.42617 256.32 
z
" clip-path="url(#pd82cf503a7)" style="fill: #1f77b4"/>
   </g>
   <g id="patch_27">
    <path d="M 358.357743 256.32 
L 367.289316 256.32 
L 367.289316 256.32 
L 358.357743 256.32 
z
" clip-path="url(#pd82cf503a7)" style="fill: #1f77b4"/>
   </g>
   <g id="patch_28">
    <path d="M 367.289316 256.32 
L 376.220888 256.32 
L 376.220888 256.32 
L 367.289316 256.32 
z
" clip-path="url(#pd82cf503a7)" style="fill: #1f77b4"/>
   </g>
   <g id="patch_29">
    <path d="M 376.220888 256.32 
L 385.152461 256.32 
L 385.152461 256.32 
L 376.220888 256.32 
z
" clip-path="url(#pd82cf503a7)" style="fill: #1f77b4"/>
   </g>
   <g id="patch_30">
    <path d="M 385.152461 256.32 
L 394.084034 256.32 
L 394.084034 256.32 
L 385.152461 256.32 
z
" clip-path="url(#pd82cf503a7)" style="fill: #1f77b4"/>
   </g>
   <g id="patch_31">
    <path d="M 394.084034 256.32 
L 403.015606 256.32 
L 403.015606 256.32 
L 394.084034 256.32 
z
" clip-path="url(#pd82cf503a7)" style="fill: #1f77b4"/>
   </g>
   <g id="patch_32">
    <path d="M 403.015606 256.32 
L 411.947179 256.32 
L 411.947179 256.32 
L 403.015606 256.32 
z
" clip-path="url(#pd82cf503a7)" style="fill: #1f77b4"/>
   </g>
   <g id="patch_33">
    <path d="M 411.947179 256.32 
L 420.878752 256.32 
L 420.878752 256.32 
L 411.947179 256.32 
z
" clip-path="url(#pd82cf503a7)" style="fill: #1f77b4"/>
   </g>
   <g id="patch_34">
    <path d="M 420.878752 256.32 
L 429.810324 256.32 
L 429.810324 256.32 
L 420.878752 256.32 
z
" clip-path="url(#pd82cf503a7)" style="fill: #1f77b4"/>
   </g>
   <g id="patch_35">
    <path d="M 429.810324 256.32 
L 438.741897 256.32 
L 438.741897 256.32 
L 429.810324 256.32 
z
" clip-path="url(#pd82cf503a7)" style="fill: #1f77b4"/>
   </g>
   <g id="patch_36">
    <path d="M 438.741897 256.32 
L 447.673469 256.32 
L 447.673469 256.32 
L 438.741897 256.32 
z
" clip-path="url(#pd82cf503a7)" style="fill: #1f77b4"/>
   </g>
   <g id="patch_37">
    <path d="M 447.673469 256.32 
L 456.605042 256.32 
L 456.605042 256.32 
L 447.673469 256.32 
z
" clip-path="url(#pd82cf503a7)" style="fill: #1f77b4"/>
   </g>
   <g id="patch_38">
    <path d="M 456.605042 256.32 
L 465.536615 256.32 
L 465.536615 256.32 
L 456.605042 256.32 
z
" clip-path="url(#pd82cf503a7)" style="fill: #1f77b4"/>
   </g>
   <g id="patch_39">
    <path d="M 465.536615 256.32 
L 474.468187 256.32 
L 474.468187 256.32 
L 465.536615 256.32 
z
" clip-path="url(#pd82cf503a7)" style="fill: #1f77b4"/>
   </g>
   <g id="patch_40">
    <path d="M 474.468187 256.32 
L 483.39976 256.32 
L 483.39976 256.32 
L 474.468187 256.32 
z
" clip-path="url(#pd82cf503a7)" style="fill: #1f77b4"/>
   </g>
   <g id="patch_41">
    <path d="M 483.39976 256.32 
L 492.331333 256.32 
L 492.331333 256.32 
L 483.39976 256.32 
z
" clip-path="url(#pd82cf503a7)" style="fill: #1f77b4"/>
   </g>
   <g id="patch_42">
    <path d="M 492.331333 256.32 
L 501.262905 256.32 
L 501.262905 256.32 
L 492.331333 256.32 
z
" clip-path="url(#pd82cf503a7)" style="fill: #1f77b4"/>
   </g>
   <g id="patch_43">
    <path d="M 501.262905 256.32 
L 510.194478 256.32 
L 510.194478 256.32 
L 501.262905 256.32 
z
" clip-path="url(#pd82cf503a7)" style="fill: #1f77b4"/>
   </g>
   <g id="patch_44">
    <path d="M 510.194478 256.32 
L 519.12605 256.32 
L 519.12605 256.32 
L 510.194478 256.32 
z
" clip-path="url(#pd82cf503a7)" style="fill: #1f77b4"/>
   </g>
   <g id="patch_45">
    <path d="M 519.12605 256.32 
L 528.057623 256.32 
L 528.057623 256.32 
L 519.12605 256.32 
z
" clip-path="url(#pd82cf503a7)" style="fill: #1f77b4"/>
   </g>
   <g id="patch_46">
    <path d="M 528.057623 256.32 
L 536.989196 256.32 
L 536.989196 256.32 
L 528.057623 256.32 
z
" clip-path="url(#pd82cf503a7)" style="fill: #1f77b4"/>
   </g>
   <g id="patch_47">
    <path d="M 536.989196 256.32 
L 545.920768 256.32 
L 545.920768 256.32 
L 536.989196 256.32 
z
" clip-path="url(#pd82cf503a7)" style="fill: #1f77b4"/>
   </g>
   <g id="patch_48">
    <path d="M 545.920768 256.32 
L 554.852341 256.32 
L 554.852341 256.32 
L 545.920768 256.32 
z
" clip-path="url(#pd82cf503a7)" style="fill: #1f77b4"/>
   </g>
   <g id="patch_49">
    <path d="M 554.852341 256.32 
L 563.783914 256.32 
L 563.783914 256.32 
L 554.852341 256.32 
z
" clip-path="url(#pd82cf503a7)" style="fill: #1f77b4"/>
   </g>
   <g id="patch_50">
    <path d="M 563.783914 256.32 
L 572.715486 256.32 
L 572.715486 256.32 
L 563.783914 256.32 
z
" clip-path="url(#pd82cf503a7)" style="fill: #1f77b4"/>
   </g>
   <g id="patch_51">
    <path d="M 572.715486 256.32 
L 581.647059 256.32 
L 581.647059 256.32 
L 572.715486 256.32 
z
" clip-path="url(#pd82cf503a7)" style="fill: #1f77b4"/>
   </g>
   <g id="matplotlib.axis_1">
    <g id="xtick_1">
     <g id="line2d_1">
      <defs>
       <path id="m46c51094a4" d="M 0 0 
L 0 3.5 
" style="stroke: #000000; stroke-width: 0.8"/>
      </defs>
      <g>
       <use xlink:href="#m46c51094a4" x="144" y="256.32" style="stroke: #000000; stroke-width: 0.8"/>
      </g>
     </g>
     <g id="text_1">
      <!-- 0.0 -->
      <g transform="translate(134.458125 272.438125) scale(0.12 -0.12)">
       <defs>
        <path id="DejaVuSans-30" d="M 2034 4250 
Q 1547 4250 1301 3770 
Q 1056 3291 1056 2328 
Q 1056 1369 1301 889 
Q 1547 409 2034 409 
Q 2525 409 2770 889 
Q 3016 1369 3016 2328 
Q 3016 3291 2770 3770 
Q 2525 4250 2034 4250 
z
M 2034 4750 
Q 2819 4750 3233 4129 
Q 3647 3509 3647 2328 
Q 3647 1150 3233 529 
Q 2819 -91 2034 -91 
Q 1250 -91 836 529 
Q 422 1150 422 2328 
Q 422 3509 836 4129 
Q 1250 4750 2034 4750 
z
" transform="scale(0.015625)"/>
        <path id="DejaVuSans-2e" d="M 684 794 
L 1344 794 
L 1344 0 
L 684 0 
L 684 794 
z
" transform="scale(0.015625)"/>
       </defs>
       <use xlink:href="#DejaVuSans-30"/>
       <use xlink:href="#DejaVuSans-2e" x="63.623047"/>
       <use xlink:href="#DejaVuSans-30" x="95.410156"/>
      </g>
     </g>
    </g>
    <g id="xtick_2">
     <g id="line2d_2">
      <g>
       <use xlink:href="#m46c51094a4" x="187.764706" y="256.32" style="stroke: #000000; stroke-width: 0.8"/>
      </g>
     </g>
     <g id="text_2">
      <!-- 0.5 -->
      <g transform="translate(178.222831 272.438125) scale(0.12 -0.12)">
       <defs>
        <path id="DejaVuSans-35" d="M 691 4666 
L 3169 4666 
L 3169 4134 
L 1269 4134 
L 1269 2991 
Q 1406 3038 1543 3061 
Q 1681 3084 1819 3084 
Q 2600 3084 3056 2656 
Q 3513 2228 3513 1497 
Q 3513 744 3044 326 
Q 2575 -91 1722 -91 
Q 1428 -91 1123 -41 
Q 819 9 494 109 
L 494 744 
Q 775 591 1075 516 
Q 1375 441 1709 441 
Q 2250 441 2565 725 
Q 2881 1009 2881 1497 
Q 2881 1984 2565 2268 
Q 2250 2553 1709 2553 
Q 1456 2553 1204 2497 
Q 953 2441 691 2322 
L 691 4666 
z
" transform="scale(0.015625)"/>
       </defs>
       <use xlink:href="#DejaVuSans-30"/>
       <use xlink:href="#DejaVuSans-2e" x="63.623047"/>
       <use xlink:href="#DejaVuSans-35" x="95.410156"/>
      </g>
     </g>
    </g>
    <g id="xtick_3">
     <g id="line2d_3">
      <g>
       <use xlink:href="#m46c51094a4" x="231.529412" y="256.32" style="stroke: #000000; stroke-width: 0.8"/>
      </g>
     </g>
     <g id="text_3">
      <!-- 1.0 -->
      <g transform="translate(221.987537 272.438125) scale(0.12 -0.12)">
       <defs>
        <path id="DejaVuSans-31" d="M 794 531 
L 1825 531 
L 1825 4091 
L 703 3866 
L 703 4441 
L 1819 4666 
L 2450 4666 
L 2450 531 
L 3481 531 
L 3481 0 
L 794 0 
L 794 531 
z
" transform="scale(0.015625)"/>
       </defs>
       <use xlink:href="#DejaVuSans-31"/>
       <use xlink:href="#DejaVuSans-2e" x="63.623047"/>
       <use xlink:href="#DejaVuSans-30" x="95.410156"/>
      </g>
     </g>
    </g>
    <g id="xtick_4">
     <g id="line2d_4">
      <g>
       <use xlink:href="#m46c51094a4" x="275.294118" y="256.32" style="stroke: #000000; stroke-width: 0.8"/>
      </g>
     </g>
     <g id="text_4">
      <!-- 1.5 -->
      <g transform="translate(265.752243 272.438125) scale(0.12 -0.12)">
       <use xlink:href="#DejaVuSans-31"/>
       <use xlink:href="#DejaVuSans-2e" x="63.623047"/>
       <use xlink:href="#DejaVuSans-35" x="95.410156"/>
      </g>
     </g>
    </g>
    <g id="xtick_5">
     <g id="line2d_5">
      <g>
       <use xlink:href="#m46c51094a4" x="319.058824" y="256.32" style="stroke: #000000; stroke-width: 0.8"/>
      </g>
     </g>
     <g id="text_5">
      <!-- 2.0 -->
      <g transform="translate(309.516949 272.438125) scale(0.12 -0.12)">
       <defs>
        <path id="DejaVuSans-32" d="M 1228 531 
L 3431 531 
L 3431 0 
L 469 0 
L 469 531 
Q 828 903 1448 1529 
Q 2069 2156 2228 2338 
Q 2531 2678 2651 2914 
Q 2772 3150 2772 3378 
Q 2772 3750 2511 3984 
Q 2250 4219 1831 4219 
Q 1534 4219 1204 4116 
Q 875 4013 500 3803 
L 500 4441 
Q 881 4594 1212 4672 
Q 1544 4750 1819 4750 
Q 2544 4750 2975 4387 
Q 3406 4025 3406 3419 
Q 3406 3131 3298 2873 
Q 3191 2616 2906 2266 
Q 2828 2175 2409 1742 
Q 1991 1309 1228 531 
z
" transform="scale(0.015625)"/>
       </defs>
       <use xlink:href="#DejaVuSans-32"/>
       <use xlink:href="#DejaVuSans-2e" x="63.623047"/>
       <use xlink:href="#DejaVuSans-30" x="95.410156"/>
      </g>
     </g>
    </g>
    <g id="xtick_6">
     <g id="line2d_6">
      <g>
       <use xlink:href="#m46c51094a4" x="362.823529" y="256.32" style="stroke: #000000; stroke-width: 0.8"/>
      </g>
     </g>
     <g id="text_6">
      <!-- 2.5 -->
      <g transform="translate(353.281654 272.438125) scale(0.12 -0.12)">
       <use xlink:href="#DejaVuSans-32"/>
       <use xlink:href="#DejaVuSans-2e" x="63.623047"/>
       <use xlink:href="#DejaVuSans-35" x="95.410156"/>
      </g>
     </g>
    </g>
    <g id="xtick_7">
     <g id="line2d_7">
      <g>
       <use xlink:href="#m46c51094a4" x="406.588235" y="256.32" style="stroke: #000000; stroke-width: 0.8"/>
      </g>
     </g>
     <g id="text_7">
      <!-- 3.0 -->
      <g transform="translate(397.04636 272.438125) scale(0.12 -0.12)">
       <defs>
        <path id="DejaVuSans-33" d="M 2597 2516 
Q 3050 2419 3304 2112 
Q 3559 1806 3559 1356 
Q 3559 666 3084 287 
Q 2609 -91 1734 -91 
Q 1441 -91 1130 -33 
Q 819 25 488 141 
L 488 750 
Q 750 597 1062 519 
Q 1375 441 1716 441 
Q 2309 441 2620 675 
Q 2931 909 2931 1356 
Q 2931 1769 2642 2001 
Q 2353 2234 1838 2234 
L 1294 2234 
L 1294 2753 
L 1863 2753 
Q 2328 2753 2575 2939 
Q 2822 3125 2822 3475 
Q 2822 3834 2567 4026 
Q 2313 4219 1838 4219 
Q 1578 4219 1281 4162 
Q 984 4106 628 3988 
L 628 4550 
Q 988 4650 1302 4700 
Q 1616 4750 1894 4750 
Q 2613 4750 3031 4423 
Q 3450 4097 3450 3541 
Q 3450 3153 3228 2886 
Q 3006 2619 2597 2516 
z
" transform="scale(0.015625)"/>
       </defs>
       <use xlink:href="#DejaVuSans-33"/>
       <use xlink:href="#DejaVuSans-2e" x="63.623047"/>
       <use xlink:href="#DejaVuSans-30" x="95.410156"/>
      </g>
     </g>
    </g>
   </g>
   <g id="matplotlib.axis_2">
    <g id="ytick_1">
     <g id="line2d_8">
      <defs>
       <path id="me8f4e11c37" d="M 0 0 
L -3.5 0 
" style="stroke: #000000; stroke-width: 0.8"/>
      </defs>
      <g>
       <use xlink:href="#me8f4e11c37" x="144" y="256.32" style="stroke: #000000; stroke-width: 0.8"/>
      </g>
     </g>
     <g id="text_8">
      <!-- 0.0 -->
      <g transform="translate(117.91625 260.879063) scale(0.12 -0.12)">
       <use xlink:href="#DejaVuSans-30"/>
       <use xlink:href="#DejaVuSans-2e" x="63.623047"/>
       <use xlink:href="#DejaVuSans-30" x="95.410156"/>
      </g>
     </g>
    </g>
    <g id="ytick_2">
     <g id="line2d_9">
      <g>
       <use xlink:href="#me8f4e11c37" x="144" y="230.702184" style="stroke: #000000; stroke-width: 0.8"/>
      </g>
     </g>
     <g id="text_9">
      <!-- 0.2 -->
      <g transform="translate(117.91625 235.261247) scale(0.12 -0.12)">
       <use xlink:href="#DejaVuSans-30"/>
       <use xlink:href="#DejaVuSans-2e" x="63.623047"/>
       <use xlink:href="#DejaVuSans-32" x="95.410156"/>
      </g>
     </g>
    </g>
    <g id="ytick_3">
     <g id="line2d_10">
      <g>
       <use xlink:href="#me8f4e11c37" x="144" y="205.084368" style="stroke: #000000; stroke-width: 0.8"/>
      </g>
     </g>
     <g id="text_10">
      <!-- 0.4 -->
      <g transform="translate(117.91625 209.643431) scale(0.12 -0.12)">
       <defs>
        <path id="DejaVuSans-34" d="M 2419 4116 
L 825 1625 
L 2419 1625 
L 2419 4116 
z
M 2253 4666 
L 3047 4666 
L 3047 1625 
L 3713 1625 
L 3713 1100 
L 3047 1100 
L 3047 0 
L 2419 0 
L 2419 1100 
L 313 1100 
L 313 1709 
L 2253 4666 
z
" transform="scale(0.015625)"/>
       </defs>
       <use xlink:href="#DejaVuSans-30"/>
       <use xlink:href="#DejaVuSans-2e" x="63.623047"/>
       <use xlink:href="#DejaVuSans-34" x="95.410156"/>
      </g>
     </g>
    </g>
    <g id="ytick_4">
     <g id="line2d_11">
      <g>
       <use xlink:href="#me8f4e11c37" x="144" y="179.466552" style="stroke: #000000; stroke-width: 0.8"/>
      </g>
     </g>
     <g id="text_11">
      <!-- 0.6 -->
      <g transform="translate(117.91625 184.025615) scale(0.12 -0.12)">
       <defs>
        <path id="DejaVuSans-36" d="M 2113 2584 
Q 1688 2584 1439 2293 
Q 1191 2003 1191 1497 
Q 1191 994 1439 701 
Q 1688 409 2113 409 
Q 2538 409 2786 701 
Q 3034 994 3034 1497 
Q 3034 2003 2786 2293 
Q 2538 2584 2113 2584 
z
M 3366 4563 
L 3366 3988 
Q 3128 4100 2886 4159 
Q 2644 4219 2406 4219 
Q 1781 4219 1451 3797 
Q 1122 3375 1075 2522 
Q 1259 2794 1537 2939 
Q 1816 3084 2150 3084 
Q 2853 3084 3261 2657 
Q 3669 2231 3669 1497 
Q 3669 778 3244 343 
Q 2819 -91 2113 -91 
Q 1303 -91 875 529 
Q 447 1150 447 2328 
Q 447 3434 972 4092 
Q 1497 4750 2381 4750 
Q 2619 4750 2861 4703 
Q 3103 4656 3366 4563 
z
" transform="scale(0.015625)"/>
       </defs>
       <use xlink:href="#DejaVuSans-30"/>
       <use xlink:href="#DejaVuSans-2e" x="63.623047"/>
       <use xlink:href="#DejaVuSans-36" x="95.410156"/>
      </g>
     </g>
    </g>
    <g id="ytick_5">
     <g id="line2d_12">
      <g>
       <use xlink:href="#me8f4e11c37" x="144" y="153.848737" style="stroke: #000000; stroke-width: 0.8"/>
      </g>
     </g>
     <g id="text_12">
      <!-- 0.8 -->
      <g transform="translate(117.91625 158.407799) scale(0.12 -0.12)">
       <defs>
        <path id="DejaVuSans-38" d="M 2034 2216 
Q 1584 2216 1326 1975 
Q 1069 1734 1069 1313 
Q 1069 891 1326 650 
Q 1584 409 2034 409 
Q 2484 409 2743 651 
Q 3003 894 3003 1313 
Q 3003 1734 2745 1975 
Q 2488 2216 2034 2216 
z
M 1403 2484 
Q 997 2584 770 2862 
Q 544 3141 544 3541 
Q 544 4100 942 4425 
Q 1341 4750 2034 4750 
Q 2731 4750 3128 4425 
Q 3525 4100 3525 3541 
Q 3525 3141 3298 2862 
Q 3072 2584 2669 2484 
Q 3125 2378 3379 2068 
Q 3634 1759 3634 1313 
Q 3634 634 3220 271 
Q 2806 -91 2034 -91 
Q 1263 -91 848 271 
Q 434 634 434 1313 
Q 434 1759 690 2068 
Q 947 2378 1403 2484 
z
M 1172 3481 
Q 1172 3119 1398 2916 
Q 1625 2713 2034 2713 
Q 2441 2713 2670 2916 
Q 2900 3119 2900 3481 
Q 2900 3844 2670 4047 
Q 2441 4250 2034 4250 
Q 1625 4250 1398 4047 
Q 1172 3844 1172 3481 
z
" transform="scale(0.015625)"/>
       </defs>
       <use xlink:href="#DejaVuSans-30"/>
       <use xlink:href="#DejaVuSans-2e" x="63.623047"/>
       <use xlink:href="#DejaVuSans-38" x="95.410156"/>
      </g>
     </g>
    </g>
    <g id="ytick_6">
     <g id="line2d_13">
      <g>
       <use xlink:href="#me8f4e11c37" x="144" y="128.230921" style="stroke: #000000; stroke-width: 0.8"/>
      </g>
     </g>
     <g id="text_13">
      <!-- 1.0 -->
      <g transform="translate(117.91625 132.789983) scale(0.12 -0.12)">
       <use xlink:href="#DejaVuSans-31"/>
       <use xlink:href="#DejaVuSans-2e" x="63.623047"/>
       <use xlink:href="#DejaVuSans-30" x="95.410156"/>
      </g>
     </g>
    </g>
    <g id="ytick_7">
     <g id="line2d_14">
      <g>
       <use xlink:href="#me8f4e11c37" x="144" y="102.613105" style="stroke: #000000; stroke-width: 0.8"/>
      </g>
     </g>
     <g id="text_14">
      <!-- 1.2 -->
      <g transform="translate(117.91625 107.172167) scale(0.12 -0.12)">
       <use xlink:href="#DejaVuSans-31"/>
       <use xlink:href="#DejaVuSans-2e" x="63.623047"/>
       <use xlink:href="#DejaVuSans-32" x="95.410156"/>
      </g>
     </g>
    </g>
    <g id="ytick_8">
     <g id="line2d_15">
      <g>
       <use xlink:href="#me8f4e11c37" x="144" y="76.995289" style="stroke: #000000; stroke-width: 0.8"/>
      </g>
     </g>
     <g id="text_15">
      <!-- 1.4 -->
      <g transform="translate(117.91625 81.554352) scale(0.12 -0.12)">
       <use xlink:href="#DejaVuSans-31"/>
       <use xlink:href="#DejaVuSans-2e" x="63.623047"/>
       <use xlink:href="#DejaVuSans-34" x="95.410156"/>
      </g>
     </g>
    </g>
    <g id="ytick_9">
     <g id="line2d_16">
      <g>
       <use xlink:href="#me8f4e11c37" x="144" y="51.377473" style="stroke: #000000; stroke-width: 0.8"/>
      </g>
     </g>
     <g id="text_16">
      <!-- 1.6 -->
      <g transform="translate(117.91625 55.936536) scale(0.12 -0.12)">
       <use xlink:href="#DejaVuSans-31"/>
       <use xlink:href="#DejaVuSans-2e" x="63.623047"/>
       <use xlink:href="#DejaVuSans-36" x="95.410156"/>
      </g>
     </g>
    </g>
   </g>
   <g id="line2d_17">
    <path d="M 144 256.32 
L 146.652406 230.622889 
L 149.304813 205.387356 
L 151.957219 181.061426 
L 154.609626 158.066559 
L 157.262032 136.7857 
L 159.914439 117.552855 
L 162.566845 100.644576 
L 165.219251 86.273655 
L 167.871658 74.585219 
L 170.524064 65.655293 
L 173.176471 59.491801 
L 175.828877 56.037866 
L 178.481283 55.177143 
L 181.13369 56.740899 
L 183.786096 60.516428 
L 186.438503 66.256394 
L 189.090909 73.688672 
L 191.743316 82.526245 
L 194.395722 92.476777 
L 197.048128 103.251496 
L 199.700535 114.573105 
L 202.352941 126.182499 
L 205.005348 137.844142 
L 207.657754 149.350032 
L 210.31016 160.522261 
L 212.962567 171.214229 
L 215.614973 181.310636 
L 218.26738 190.726402 
L 220.919786 199.404716 
L 223.572193 207.314392 
L 226.224599 214.446767 
L 228.877005 220.812308 
L 231.529412 226.437121 
L 234.181818 231.359516 
L 236.834225 235.62675 
L 239.486631 239.292046 
L 242.139037 242.41197 
L 244.791444 245.044176 
L 247.44385 247.245568 
L 250.096257 249.070851 
L 252.748663 250.571453 
L 255.40107 251.794787 
L 258.053476 252.78381 
L 260.705882 253.576831 
L 263.358289 254.20751 
L 266.010695 254.705024 
L 268.663102 255.094339 
L 271.315508 255.396555 
L 273.967914 255.629298 
L 276.620321 255.807124 
L 279.272727 255.941924 
L 281.925134 256.043311 
L 284.57754 256.118973 
L 287.229947 256.175 
L 289.882353 256.216168 
L 292.534759 256.246184 
L 295.187166 256.267901 
L 297.839572 256.283494 
L 300.491979 256.294605 
L 303.144385 256.302461 
L 305.796791 256.307974 
L 308.449198 256.311814 
L 311.101604 256.314468 
L 313.754011 256.316288 
L 316.406417 256.317527 
L 319.058824 256.318365 
L 321.71123 256.318926 
L 324.363636 256.3193 
L 327.016043 256.319547 
L 329.668449 256.319709 
L 332.320856 256.319814 
L 334.973262 256.319882 
L 337.625668 256.319926 
L 340.278075 256.319954 
L 342.930481 256.319971 
L 345.582888 256.319982 
L 348.235294 256.319989 
L 350.887701 256.319993 
L 353.540107 256.319996 
L 356.192513 256.319998 
L 358.84492 256.319999 
L 361.497326 256.319999 
L 364.149733 256.32 
L 366.802139 256.32 
L 369.454545 256.32 
L 372.106952 256.32 
L 374.759358 256.32 
L 377.411765 256.32 
L 380.064171 256.32 
L 382.716578 256.32 
L 385.368984 256.32 
L 388.02139 256.32 
L 390.673797 256.32 
L 393.326203 256.32 
L 395.97861 256.32 
L 398.631016 256.32 
L 401.283422 256.32 
L 403.935829 256.32 
L 406.588235 256.32 
" clip-path="url(#pd82cf503a7)" style="fill: none; stroke: #ff0000; stroke-width: 1.5; stroke-linecap: square"/>
   </g>
   <g id="line2d_18">
    <path d="M 144 256.32 
L 146.652406 248.564151 
L 149.304813 240.850975 
L 151.957219 233.222754 
L 154.609626 225.720993 
L 157.262032 218.386044 
L 159.914439 211.256744 
L 162.566845 204.370073 
L 165.219251 197.760836 
L 167.871658 191.46137 
L 170.524064 185.501285 
L 173.176471 179.907237 
L 175.828877 174.702735 
L 178.481283 169.907989 
L 181.13369 165.539794 
L 183.786096 161.611457 
L 186.438503 158.132763 
L 189.090909 155.109973 
L 191.743316 152.545874 
L 194.395722 150.439853 
L 197.048128 148.78801 
L 199.700535 147.583303 
L 202.352941 146.815726 
L 205.005348 146.472501 
L 207.657754 146.538307 
L 210.31016 146.995517 
L 212.962567 147.824454 
L 215.614973 149.003657 
L 218.26738 150.510158 
L 220.919786 152.319754 
L 223.572193 154.407289 
L 226.224599 156.746924 
L 228.877005 159.312406 
L 231.529412 162.077322 
L 234.181818 165.015346 
L 236.834225 168.100466 
L 239.486631 171.307197 
L 242.139037 174.610779 
L 244.791444 177.987343 
L 247.44385 181.414074 
L 250.096257 184.869336 
L 252.748663 188.332787 
L 255.40107 191.785467 
L 258.053476 195.209866 
L 260.705882 198.589974 
L 263.358289 201.911308 
L 266.010695 205.160923 
L 268.663102 208.327407 
L 271.315508 211.400855 
L 273.967914 214.372835 
L 276.620321 217.236341 
L 279.272727 219.985727 
L 281.925134 222.616646 
L 284.57754 225.125967 
L 287.229947 227.511696 
L 289.882353 229.772888 
L 292.534759 231.909555 
L 295.187166 233.92258 
L 297.839572 235.81362 
L 300.491979 237.585018 
L 303.144385 239.239713 
L 305.796791 240.781152 
L 308.449198 242.213213 
L 311.101604 243.540118 
L 313.754011 244.766368 
L 316.406417 245.896669 
L 319.058824 246.935867 
L 321.71123 247.888895 
L 324.363636 248.76072 
L 327.016043 249.556292 
L 329.668449 250.280508 
L 332.320856 250.938172 
L 334.973262 251.533971 
L 337.625668 252.07244 
L 340.278075 252.557949 
L 342.930481 252.994685 
L 345.582888 253.386635 
L 348.235294 253.737581 
L 350.887701 254.051095 
L 353.540107 254.330531 
L 356.192513 254.579033 
L 358.84492 254.799527 
L 361.497326 254.994734 
L 364.149733 255.167171 
L 366.802139 255.319156 
L 369.454545 255.452821 
L 372.106952 255.570118 
L 374.759358 255.672826 
L 377.411765 255.762565 
L 380.064171 255.840803 
L 382.716578 255.908868 
L 385.368984 255.967956 
L 388.02139 256.019141 
L 390.673797 256.063386 
L 393.326203 256.101552 
L 395.97861 256.134403 
L 398.631016 256.162621 
L 401.283422 256.186808 
L 403.935829 256.207496 
L 406.588235 256.225155 
" clip-path="url(#pd82cf503a7)" style="fill: none; stroke: #0000ff; stroke-width: 1.5; stroke-linecap: square"/>
   </g>
   <g id="line2d_19">
    <path d="M 164.442652 256.32 
L 164.442652 45.12 
" clip-path="url(#pd82cf503a7)" style="fill: none; stroke: #000000; stroke-width: 1.5; stroke-linecap: square"/>
   </g>
   <g id="patch_52">
    <path d="M 144 256.32 
L 144 34.56 
" style="fill: none; stroke: #000000; stroke-width: 0.8; stroke-linejoin: miter; stroke-linecap: square"/>
   </g>
   <g id="patch_53">
    <path d="M 406.588235 256.32 
L 406.588235 34.56 
" style="fill: none; stroke: #000000; stroke-width: 0.8; stroke-linejoin: miter; stroke-linecap: square"/>
   </g>
   <g id="patch_54">
    <path d="M 144 256.32 
L 406.588235 256.32 
" style="fill: none; stroke: #000000; stroke-width: 0.8; stroke-linejoin: miter; stroke-linecap: square"/>
   </g>
   <g id="patch_55">
    <path d="M 144 34.56 
L 406.588235 34.56 
" style="fill: none; stroke: #000000; stroke-width: 0.8; stroke-linejoin: miter; stroke-linecap: square"/>
   </g>
   <g id="text_17">
    <!-- &lt;E1&gt; = 0.23 -->
    <g transform="translate(327.811765 66.24) scale(0.1 -0.1)">
     <defs>
      <path id="DejaVuSans-3c" d="M 4684 3150 
L 1459 2003 
L 4684 863 
L 4684 294 
L 678 1747 
L 678 2266 
L 4684 3719 
L 4684 3150 
z
" transform="scale(0.015625)"/>
      <path id="DejaVuSans-45" d="M 628 4666 
L 3578 4666 
L 3578 4134 
L 1259 4134 
L 1259 2753 
L 3481 2753 
L 3481 2222 
L 1259 2222 
L 1259 531 
L 3634 531 
L 3634 0 
L 628 0 
L 628 4666 
z
" transform="scale(0.015625)"/>
      <path id="DejaVuSans-3e" d="M 678 3150 
L 678 3719 
L 4684 2266 
L 4684 1747 
L 678 294 
L 678 863 
L 3897 2003 
L 678 3150 
z
" transform="scale(0.015625)"/>
      <path id="DejaVuSans-20" transform="scale(0.015625)"/>
      <path id="DejaVuSans-3d" d="M 678 2906 
L 4684 2906 
L 4684 2381 
L 678 2381 
L 678 2906 
z
M 678 1631 
L 4684 1631 
L 4684 1100 
L 678 1100 
L 678 1631 
z
" transform="scale(0.015625)"/>
     </defs>
     <use xlink:href="#DejaVuSans-3c"/>
     <use xlink:href="#DejaVuSans-45" x="83.789062"/>
     <use xlink:href="#DejaVuSans-31" x="146.972656"/>
     <use xlink:href="#DejaVuSans-3e" x="210.595703"/>
     <use xlink:href="#DejaVuSans-20" x="294.384766"/>
     <use xlink:href="#DejaVuSans-3d" x="326.171875"/>
     <use xlink:href="#DejaVuSans-20" x="409.960938"/>
     <use xlink:href="#DejaVuSans-30" x="441.748047"/>
     <use xlink:href="#DejaVuSans-2e" x="505.371094"/>
     <use xlink:href="#DejaVuSans-32" x="537.158203"/>
     <use xlink:href="#DejaVuSans-33" x="600.78125"/>
    </g>
   </g>
  </g>
  <g id="axes_2">
   <g id="patch_56">
    <path d="M 459.105882 256.32 
L 721.694118 256.32 
L 721.694118 34.56 
L 459.105882 34.56 
z
" style="fill: #ffffff"/>
   </g>
   <g id="patch_57">
    <path d="M 459.105882 256.32 
L 468.037455 256.32 
L 468.037455 252.617984 
L 459.105882 252.617984 
z
" clip-path="url(#p2e333a0b87)" style="fill: #1f77b4"/>
   </g>
   <g id="patch_58">
    <path d="M 468.037455 256.32 
L 476.969028 256.32 
L 476.969028 227.937879 
L 468.037455 227.937879 
z
" clip-path="url(#p2e333a0b87)" style="fill: #1f77b4"/>
   </g>
   <g id="patch_59">
    <path d="M 476.969028 256.32 
L 485.9006 256.32 
L 485.9006 206.95979 
L 476.969028 206.95979 
z
" clip-path="url(#p2e333a0b87)" style="fill: #1f77b4"/>
   </g>
   <g id="patch_60">
    <path d="M 485.9006 256.32 
L 494.832173 256.32 
L 494.832173 174.875653 
L 485.9006 174.875653 
z
" clip-path="url(#p2e333a0b87)" style="fill: #1f77b4"/>
   </g>
   <g id="patch_61">
    <path d="M 494.832173 256.32 
L 503.763745 256.32 
L 503.763745 139.0895 
L 494.832173 139.0895 
z
" clip-path="url(#p2e333a0b87)" style="fill: #1f77b4"/>
   </g>
   <g id="patch_62">
    <path d="M 503.763745 256.32 
L 512.695318 256.32 
L 512.695318 115.643401 
L 503.763745 115.643401 
z
" clip-path="url(#p2e333a0b87)" style="fill: #1f77b4"/>
   </g>
   <g id="patch_63">
    <path d="M 512.695318 256.32 
L 521.626891 256.32 
L 521.626891 104.537353 
L 512.695318 104.537353 
z
" clip-path="url(#p2e333a0b87)" style="fill: #1f77b4"/>
   </g>
   <g id="patch_64">
    <path d="M 521.626891 256.32 
L 530.558463 256.32 
L 530.558463 55.177143 
L 521.626891 55.177143 
z
" clip-path="url(#p2e333a0b87)" style="fill: #1f77b4"/>
   </g>
   <g id="patch_65">
    <path d="M 530.558463 256.32 
L 539.490036 256.32 
L 539.490036 90.963295 
L 530.558463 90.963295 
z
" clip-path="url(#p2e333a0b87)" style="fill: #1f77b4"/>
   </g>
   <g id="patch_66">
    <path d="M 539.490036 256.32 
L 548.421609 256.32 
L 548.421609 94.665311 
L 539.490036 94.665311 
z
" clip-path="url(#p2e333a0b87)" style="fill: #1f77b4"/>
   </g>
   <g id="patch_67">
    <path d="M 548.421609 256.32 
L 557.353181 256.32 
L 557.353181 124.281437 
L 548.421609 124.281437 
z
" clip-path="url(#p2e333a0b87)" style="fill: #1f77b4"/>
   </g>
   <g id="patch_68">
    <path d="M 557.353181 256.32 
L 566.284754 256.32 
L 566.284754 184.747695 
L 557.353181 184.747695 
z
" clip-path="url(#p2e333a0b87)" style="fill: #1f77b4"/>
   </g>
   <g id="patch_69">
    <path d="M 566.284754 256.32 
L 575.216327 256.32 
L 575.216327 200.789763 
L 566.284754 200.789763 
z
" clip-path="url(#p2e333a0b87)" style="fill: #1f77b4"/>
   </g>
   <g id="patch_70">
    <path d="M 575.216327 256.32 
L 584.147899 256.32 
L 584.147899 208.193795 
L 575.216327 208.193795 
z
" clip-path="url(#p2e333a0b87)" style="fill: #1f77b4"/>
   </g>
   <g id="patch_71">
    <path d="M 584.147899 256.32 
L 593.079472 256.32 
L 593.079472 230.40589 
L 584.147899 230.40589 
z
" clip-path="url(#p2e333a0b87)" style="fill: #1f77b4"/>
   </g>
   <g id="patch_72">
    <path d="M 593.079472 256.32 
L 602.011044 256.32 
L 602.011044 245.213953 
L 593.079472 245.213953 
z
" clip-path="url(#p2e333a0b87)" style="fill: #1f77b4"/>
   </g>
   <g id="patch_73">
    <path d="M 602.011044 256.32 
L 610.942617 256.32 
L 610.942617 245.213953 
L 602.011044 245.213953 
z
" clip-path="url(#p2e333a0b87)" style="fill: #1f77b4"/>
   </g>
   <g id="patch_74">
    <path d="M 610.942617 256.32 
L 619.87419 256.32 
L 619.87419 242.745942 
L 610.942617 242.745942 
z
" clip-path="url(#p2e333a0b87)" style="fill: #1f77b4"/>
   </g>
   <g id="patch_75">
    <path d="M 619.87419 256.32 
L 628.805762 256.32 
L 628.805762 248.915968 
L 619.87419 248.915968 
z
" clip-path="url(#p2e333a0b87)" style="fill: #1f77b4"/>
   </g>
   <g id="patch_76">
    <path d="M 628.805762 256.32 
L 637.737335 256.32 
L 637.737335 253.851989 
L 628.805762 253.851989 
z
" clip-path="url(#p2e333a0b87)" style="fill: #1f77b4"/>
   </g>
   <g id="patch_77">
    <path d="M 637.737335 256.32 
L 646.668908 256.32 
L 646.668908 252.617984 
L 637.737335 252.617984 
z
" clip-path="url(#p2e333a0b87)" style="fill: #1f77b4"/>
   </g>
   <g id="patch_78">
    <path d="M 646.668908 256.32 
L 655.60048 256.32 
L 655.60048 256.32 
L 646.668908 256.32 
z
" clip-path="url(#p2e333a0b87)" style="fill: #1f77b4"/>
   </g>
   <g id="patch_79">
    <path d="M 655.60048 256.32 
L 664.532053 256.32 
L 664.532053 256.32 
L 655.60048 256.32 
z
" clip-path="url(#p2e333a0b87)" style="fill: #1f77b4"/>
   </g>
   <g id="patch_80">
    <path d="M 664.532053 256.32 
L 673.463625 256.32 
L 673.463625 255.085995 
L 664.532053 255.085995 
z
" clip-path="url(#p2e333a0b87)" style="fill: #1f77b4"/>
   </g>
   <g id="patch_81">
    <path d="M 673.463625 256.32 
L 682.395198 256.32 
L 682.395198 255.085995 
L 673.463625 255.085995 
z
" clip-path="url(#p2e333a0b87)" style="fill: #1f77b4"/>
   </g>
   <g id="patch_82">
    <path d="M 682.395198 256.32 
L 691.326771 256.32 
L 691.326771 256.32 
L 682.395198 256.32 
z
" clip-path="url(#p2e333a0b87)" style="fill: #1f77b4"/>
   </g>
   <g id="patch_83">
    <path d="M 691.326771 256.32 
L 700.258343 256.32 
L 700.258343 256.32 
L 691.326771 256.32 
z
" clip-path="url(#p2e333a0b87)" style="fill: #1f77b4"/>
   </g>
   <g id="patch_84">
    <path d="M 700.258343 256.32 
L 709.189916 256.32 
L 709.189916 256.32 
L 700.258343 256.32 
z
" clip-path="url(#p2e333a0b87)" style="fill: #1f77b4"/>
   </g>
   <g id="patch_85">
    <path d="M 709.189916 256.32 
L 718.121489 256.32 
L 718.121489 256.32 
L 709.189916 256.32 
z
" clip-path="url(#p2e333a0b87)" style="fill: #1f77b4"/>
   </g>
   <g id="patch_86">
    <path d="M 718.121489 256.32 
L 727.053061 256.32 
L 727.053061 256.32 
L 718.121489 256.32 
z
" clip-path="url(#p2e333a0b87)" style="fill: #1f77b4"/>
   </g>
   <g id="patch_87">
    <path d="M 727.053061 256.32 
L 735.984634 256.32 
L 735.984634 256.32 
L 727.053061 256.32 
z
" clip-path="url(#p2e333a0b87)" style="fill: #1f77b4"/>
   </g>
   <g id="patch_88">
    <path d="M 735.984634 256.32 
L 744.916206 256.32 
L 744.916206 256.32 
L 735.984634 256.32 
z
" clip-path="url(#p2e333a0b87)" style="fill: #1f77b4"/>
   </g>
   <g id="patch_89">
    <path d="M 744.916206 256.32 
L 753.847779 256.32 
L 753.847779 256.32 
L 744.916206 256.32 
z
" clip-path="url(#p2e333a0b87)" style="fill: #1f77b4"/>
   </g>
   <g id="patch_90">
    <path d="M 753.847779 256.32 
L 762.779352 256.32 
L 762.779352 256.32 
L 753.847779 256.32 
z
" clip-path="url(#p2e333a0b87)" style="fill: #1f77b4"/>
   </g>
   <g id="patch_91">
    <path d="M 762.779352 256.32 
L 771.710924 256.32 
L 771.710924 256.32 
L 762.779352 256.32 
z
" clip-path="url(#p2e333a0b87)" style="fill: #1f77b4"/>
   </g>
   <g id="patch_92">
    <path d="M 771.710924 256.32 
L 780.642497 256.32 
L 780.642497 256.32 
L 771.710924 256.32 
z
" clip-path="url(#p2e333a0b87)" style="fill: #1f77b4"/>
   </g>
   <g id="patch_93">
    <path d="M 780.642497 256.32 
L 789.57407 256.32 
L 789.57407 256.32 
L 780.642497 256.32 
z
" clip-path="url(#p2e333a0b87)" style="fill: #1f77b4"/>
   </g>
   <g id="patch_94">
    <path d="M 789.57407 256.32 
L 798.505642 256.32 
L 798.505642 256.32 
L 789.57407 256.32 
z
" clip-path="url(#p2e333a0b87)" style="fill: #1f77b4"/>
   </g>
   <g id="patch_95">
    <path d="M 798.505642 256.32 
L 807.437215 256.32 
L 807.437215 256.32 
L 798.505642 256.32 
z
" clip-path="url(#p2e333a0b87)" style="fill: #1f77b4"/>
   </g>
   <g id="patch_96">
    <path d="M 807.437215 256.32 
L 816.368788 256.32 
L 816.368788 256.32 
L 807.437215 256.32 
z
" clip-path="url(#p2e333a0b87)" style="fill: #1f77b4"/>
   </g>
   <g id="patch_97">
    <path d="M 816.368788 256.32 
L 825.30036 256.32 
L 825.30036 256.32 
L 816.368788 256.32 
z
" clip-path="url(#p2e333a0b87)" style="fill: #1f77b4"/>
   </g>
   <g id="patch_98">
    <path d="M 825.30036 256.32 
L 834.231933 256.32 
L 834.231933 256.32 
L 825.30036 256.32 
z
" clip-path="url(#p2e333a0b87)" style="fill: #1f77b4"/>
   </g>
   <g id="patch_99">
    <path d="M 834.231933 256.32 
L 843.163505 256.32 
L 843.163505 256.32 
L 834.231933 256.32 
z
" clip-path="url(#p2e333a0b87)" style="fill: #1f77b4"/>
   </g>
   <g id="patch_100">
    <path d="M 843.163505 256.32 
L 852.095078 256.32 
L 852.095078 256.32 
L 843.163505 256.32 
z
" clip-path="url(#p2e333a0b87)" style="fill: #1f77b4"/>
   </g>
   <g id="patch_101">
    <path d="M 852.095078 256.32 
L 861.026651 256.32 
L 861.026651 256.32 
L 852.095078 256.32 
z
" clip-path="url(#p2e333a0b87)" style="fill: #1f77b4"/>
   </g>
   <g id="patch_102">
    <path d="M 861.026651 256.32 
L 869.958223 256.32 
L 869.958223 256.32 
L 861.026651 256.32 
z
" clip-path="url(#p2e333a0b87)" style="fill: #1f77b4"/>
   </g>
   <g id="patch_103">
    <path d="M 869.958223 256.32 
L 878.889796 256.32 
L 878.889796 256.32 
L 869.958223 256.32 
z
" clip-path="url(#p2e333a0b87)" style="fill: #1f77b4"/>
   </g>
   <g id="patch_104">
    <path d="M 878.889796 256.32 
L 887.821369 256.32 
L 887.821369 256.32 
L 878.889796 256.32 
z
" clip-path="url(#p2e333a0b87)" style="fill: #1f77b4"/>
   </g>
   <g id="patch_105">
    <path d="M 887.821369 256.32 
L 896.752941 256.32 
L 896.752941 256.32 
L 887.821369 256.32 
z
" clip-path="url(#p2e333a0b87)" style="fill: #1f77b4"/>
   </g>
   <g id="matplotlib.axis_3">
    <g id="xtick_8">
     <g id="line2d_20">
      <g>
       <use xlink:href="#m46c51094a4" x="459.105882" y="256.32" style="stroke: #000000; stroke-width: 0.8"/>
      </g>
     </g>
     <g id="text_18">
      <!-- 0.0 -->
      <g transform="translate(449.564007 272.438125) scale(0.12 -0.12)">
       <use xlink:href="#DejaVuSans-30"/>
       <use xlink:href="#DejaVuSans-2e" x="63.623047"/>
       <use xlink:href="#DejaVuSans-30" x="95.410156"/>
      </g>
     </g>
    </g>
    <g id="xtick_9">
     <g id="line2d_21">
      <g>
       <use xlink:href="#m46c51094a4" x="502.870588" y="256.32" style="stroke: #000000; stroke-width: 0.8"/>
      </g>
     </g>
     <g id="text_19">
      <!-- 0.5 -->
      <g transform="translate(493.328713 272.438125) scale(0.12 -0.12)">
       <use xlink:href="#DejaVuSans-30"/>
       <use xlink:href="#DejaVuSans-2e" x="63.623047"/>
       <use xlink:href="#DejaVuSans-35" x="95.410156"/>
      </g>
     </g>
    </g>
    <g id="xtick_10">
     <g id="line2d_22">
      <g>
       <use xlink:href="#m46c51094a4" x="546.635294" y="256.32" style="stroke: #000000; stroke-width: 0.8"/>
      </g>
     </g>
     <g id="text_20">
      <!-- 1.0 -->
      <g transform="translate(537.093419 272.438125) scale(0.12 -0.12)">
       <use xlink:href="#DejaVuSans-31"/>
       <use xlink:href="#DejaVuSans-2e" x="63.623047"/>
       <use xlink:href="#DejaVuSans-30" x="95.410156"/>
      </g>
     </g>
    </g>
    <g id="xtick_11">
     <g id="line2d_23">
      <g>
       <use xlink:href="#m46c51094a4" x="590.4" y="256.32" style="stroke: #000000; stroke-width: 0.8"/>
      </g>
     </g>
     <g id="text_21">
      <!-- 1.5 -->
      <g transform="translate(580.858125 272.438125) scale(0.12 -0.12)">
       <use xlink:href="#DejaVuSans-31"/>
       <use xlink:href="#DejaVuSans-2e" x="63.623047"/>
       <use xlink:href="#DejaVuSans-35" x="95.410156"/>
      </g>
     </g>
    </g>
    <g id="xtick_12">
     <g id="line2d_24">
      <g>
       <use xlink:href="#m46c51094a4" x="634.164706" y="256.32" style="stroke: #000000; stroke-width: 0.8"/>
      </g>
     </g>
     <g id="text_22">
      <!-- 2.0 -->
      <g transform="translate(624.622831 272.438125) scale(0.12 -0.12)">
       <use xlink:href="#DejaVuSans-32"/>
       <use xlink:href="#DejaVuSans-2e" x="63.623047"/>
       <use xlink:href="#DejaVuSans-30" x="95.410156"/>
      </g>
     </g>
    </g>
    <g id="xtick_13">
     <g id="line2d_25">
      <g>
       <use xlink:href="#m46c51094a4" x="677.929412" y="256.32" style="stroke: #000000; stroke-width: 0.8"/>
      </g>
     </g>
     <g id="text_23">
      <!-- 2.5 -->
      <g transform="translate(668.387537 272.438125) scale(0.12 -0.12)">
       <use xlink:href="#DejaVuSans-32"/>
       <use xlink:href="#DejaVuSans-2e" x="63.623047"/>
       <use xlink:href="#DejaVuSans-35" x="95.410156"/>
      </g>
     </g>
    </g>
    <g id="xtick_14">
     <g id="line2d_26">
      <g>
       <use xlink:href="#m46c51094a4" x="721.694118" y="256.32" style="stroke: #000000; stroke-width: 0.8"/>
      </g>
     </g>
     <g id="text_24">
      <!-- 3.0 -->
      <g transform="translate(712.152243 272.438125) scale(0.12 -0.12)">
       <use xlink:href="#DejaVuSans-33"/>
       <use xlink:href="#DejaVuSans-2e" x="63.623047"/>
       <use xlink:href="#DejaVuSans-30" x="95.410156"/>
      </g>
     </g>
    </g>
   </g>
   <g id="matplotlib.axis_4">
    <g id="ytick_10">
     <g id="line2d_27">
      <g>
       <use xlink:href="#me8f4e11c37" x="459.105882" y="256.32" style="stroke: #000000; stroke-width: 0.8"/>
      </g>
     </g>
     <g id="text_25">
      <!-- 0.0 -->
      <g transform="translate(433.022132 260.879063) scale(0.12 -0.12)">
       <use xlink:href="#DejaVuSans-30"/>
       <use xlink:href="#DejaVuSans-2e" x="63.623047"/>
       <use xlink:href="#DejaVuSans-30" x="95.410156"/>
      </g>
     </g>
    </g>
    <g id="ytick_11">
     <g id="line2d_28">
      <g>
       <use xlink:href="#me8f4e11c37" x="459.105882" y="225.998728" style="stroke: #000000; stroke-width: 0.8"/>
      </g>
     </g>
     <g id="text_26">
      <!-- 0.2 -->
      <g transform="translate(433.022132 230.55779) scale(0.12 -0.12)">
       <use xlink:href="#DejaVuSans-30"/>
       <use xlink:href="#DejaVuSans-2e" x="63.623047"/>
       <use xlink:href="#DejaVuSans-32" x="95.410156"/>
      </g>
     </g>
    </g>
    <g id="ytick_12">
     <g id="line2d_29">
      <g>
       <use xlink:href="#me8f4e11c37" x="459.105882" y="195.677456" style="stroke: #000000; stroke-width: 0.8"/>
      </g>
     </g>
     <g id="text_27">
      <!-- 0.4 -->
      <g transform="translate(433.022132 200.236518) scale(0.12 -0.12)">
       <use xlink:href="#DejaVuSans-30"/>
       <use xlink:href="#DejaVuSans-2e" x="63.623047"/>
       <use xlink:href="#DejaVuSans-34" x="95.410156"/>
      </g>
     </g>
    </g>
    <g id="ytick_13">
     <g id="line2d_30">
      <g>
       <use xlink:href="#me8f4e11c37" x="459.105882" y="165.356184" style="stroke: #000000; stroke-width: 0.8"/>
      </g>
     </g>
     <g id="text_28">
      <!-- 0.6 -->
      <g transform="translate(433.022132 169.915246) scale(0.12 -0.12)">
       <use xlink:href="#DejaVuSans-30"/>
       <use xlink:href="#DejaVuSans-2e" x="63.623047"/>
       <use xlink:href="#DejaVuSans-36" x="95.410156"/>
      </g>
     </g>
    </g>
    <g id="ytick_14">
     <g id="line2d_31">
      <g>
       <use xlink:href="#me8f4e11c37" x="459.105882" y="135.034912" style="stroke: #000000; stroke-width: 0.8"/>
      </g>
     </g>
     <g id="text_29">
      <!-- 0.8 -->
      <g transform="translate(433.022132 139.593974) scale(0.12 -0.12)">
       <use xlink:href="#DejaVuSans-30"/>
       <use xlink:href="#DejaVuSans-2e" x="63.623047"/>
       <use xlink:href="#DejaVuSans-38" x="95.410156"/>
      </g>
     </g>
    </g>
    <g id="ytick_15">
     <g id="line2d_32">
      <g>
       <use xlink:href="#me8f4e11c37" x="459.105882" y="104.71364" style="stroke: #000000; stroke-width: 0.8"/>
      </g>
     </g>
     <g id="text_30">
      <!-- 1.0 -->
      <g transform="translate(433.022132 109.272702) scale(0.12 -0.12)">
       <use xlink:href="#DejaVuSans-31"/>
       <use xlink:href="#DejaVuSans-2e" x="63.623047"/>
       <use xlink:href="#DejaVuSans-30" x="95.410156"/>
      </g>
     </g>
    </g>
    <g id="ytick_16">
     <g id="line2d_33">
      <g>
       <use xlink:href="#me8f4e11c37" x="459.105882" y="74.392368" style="stroke: #000000; stroke-width: 0.8"/>
      </g>
     </g>
     <g id="text_31">
      <!-- 1.2 -->
      <g transform="translate(433.022132 78.95143) scale(0.12 -0.12)">
       <use xlink:href="#DejaVuSans-31"/>
       <use xlink:href="#DejaVuSans-2e" x="63.623047"/>
       <use xlink:href="#DejaVuSans-32" x="95.410156"/>
      </g>
     </g>
    </g>
    <g id="ytick_17">
     <g id="line2d_34">
      <g>
       <use xlink:href="#me8f4e11c37" x="459.105882" y="44.071096" style="stroke: #000000; stroke-width: 0.8"/>
      </g>
     </g>
     <g id="text_32">
      <!-- 1.4 -->
      <g transform="translate(433.022132 48.630158) scale(0.12 -0.12)">
       <use xlink:href="#DejaVuSans-31"/>
       <use xlink:href="#DejaVuSans-2e" x="63.623047"/>
       <use xlink:href="#DejaVuSans-34" x="95.410156"/>
      </g>
     </g>
    </g>
   </g>
   <g id="line2d_35">
    <path d="M 459.105882 256.32 
L 461.758289 251.705816 
L 464.410695 246.989157 
L 467.063102 242.071039 
L 469.715508 236.85941 
L 472.367914 231.272484 
L 475.020321 225.241902 
L 477.672727 218.715656 
L 480.325134 211.660678 
L 482.97754 204.065017 
L 485.629947 195.939492 
L 488.282353 187.318733 
L 490.934759 178.261509 
L 493.587166 168.850274 
L 496.239572 159.189871 
L 498.891979 149.40538 
L 501.544385 139.63911 
L 504.196791 130.046813 
L 506.849198 120.793198 
L 509.501604 112.046912 
L 512.154011 103.975145 
L 514.806417 96.738099 
L 517.458824 90.483523 
L 520.11123 85.34158 
L 522.763636 81.420255 
L 525.416043 78.801538 
L 528.068449 77.53854 
L 530.720856 77.653688 
L 533.373262 79.138073 
L 536.025668 81.951976 
L 538.678075 86.026531 
L 541.330481 91.266429 
L 543.982888 97.553522 
L 546.635294 104.751134 
L 549.287701 112.708869 
L 551.940107 121.267685 
L 554.592513 130.264998 
L 557.24492 139.539599 
L 559.897326 148.936178 
L 562.549733 158.309304 
L 565.202139 167.526729 
L 567.854545 176.471925 
L 570.506952 185.045836 
L 573.159358 193.167839 
L 575.811765 200.775955 
L 578.464171 207.826391 
L 581.116578 214.29251 
L 583.768984 220.163338 
L 586.42139 225.441735 
L 589.073797 230.14235 
L 591.726203 234.289468 
L 594.37861 237.914865 
L 597.031016 241.055741 
L 599.683422 243.752817 
L 602.335829 246.048631 
L 604.988235 247.986079 
L 607.640642 249.607202 
L 610.293048 250.95224 
L 612.945455 252.058915 
L 615.597861 252.961952 
L 618.250267 253.692787 
L 620.902674 254.279451 
L 623.55508 254.746583 
L 626.207487 255.115553 
L 628.859893 255.404665 
L 631.512299 255.629406 
L 634.164706 255.802731 
L 636.817112 255.935352 
L 639.469519 256.036035 
L 642.121925 256.111876 
L 644.774332 256.168561 
L 647.426738 256.210602 
L 650.079144 256.241542 
L 652.731551 256.264136 
L 655.383957 256.28051 
L 658.036364 256.292286 
L 660.68877 256.30069 
L 663.341176 256.306643 
L 665.993583 256.310827 
L 668.645989 256.313745 
L 671.298396 256.315766 
L 673.950802 256.317155 
L 676.603209 256.318101 
L 679.255615 256.318742 
L 681.908021 256.319173 
L 684.560428 256.31946 
L 687.212834 256.31965 
L 689.865241 256.319775 
L 692.517647 256.319856 
L 695.170053 256.319909 
L 697.82246 256.319942 
L 700.474866 256.319964 
L 703.127273 256.319978 
L 705.779679 256.319986 
L 708.432086 256.319992 
L 711.084492 256.319995 
L 713.736898 256.319997 
L 716.389305 256.319998 
L 719.041711 256.319999 
L 721.694118 256.319999 
" clip-path="url(#p2e333a0b87)" style="fill: none; stroke: #ff0000; stroke-width: 1.5; stroke-linecap: square"/>
   </g>
   <g id="line2d_36">
    <path d="M 459.105882 256.32 
L 461.758289 247.140169 
L 464.410695 238.010846 
L 467.063102 228.982077 
L 469.715508 220.102985 
L 472.367914 211.421332 
L 475.020321 202.983086 
L 477.672727 194.832015 
L 480.325134 187.009315 
L 482.97754 179.553261 
L 485.629947 172.498899 
L 488.282353 165.877779 
L 490.934759 159.717725 
L 493.587166 154.042659 
L 496.239572 148.872459 
L 498.891979 144.222876 
L 501.544385 140.105489 
L 504.196791 136.527712 
L 506.849198 133.492843 
L 509.501604 131.000154 
L 512.154011 129.04503 
L 514.806417 127.619139 
L 517.458824 126.710633 
L 520.11123 126.304392 
L 522.763636 126.38228 
L 525.416043 126.923434 
L 528.068449 127.904564 
L 530.720856 129.300271 
L 533.373262 131.083366 
L 536.025668 133.225206 
L 538.678075 135.696015 
L 541.330481 138.46521 
L 543.982888 141.501716 
L 546.635294 144.774274 
L 549.287701 148.251721 
L 551.940107 151.903272 
L 554.592513 155.698763 
L 557.24492 159.608885 
L 559.897326 163.60539 
L 562.549733 167.661272 
L 565.202139 171.750924 
L 567.854545 175.850268 
L 570.506952 179.936863 
L 573.159358 183.989985 
L 575.811765 187.990684 
L 578.464171 191.921818 
L 581.116578 195.768066 
L 583.768984 199.515919 
L 586.42139 203.153655 
L 589.073797 206.671294 
L 591.726203 210.060542 
L 594.37861 213.314719 
L 597.031016 216.428677 
L 599.683422 219.398712 
L 602.335829 222.222463 
L 604.988235 224.898812 
L 607.640642 227.427773 
L 610.293048 229.810392 
L 612.945455 232.048629 
L 615.597861 234.145257 
L 618.250267 236.103755 
L 620.902674 237.928204 
L 623.55508 239.623192 
L 626.207487 241.193719 
L 628.859893 242.64511 
L 631.512299 243.982935 
L 634.164706 245.212931 
L 636.817112 246.340936 
L 639.469519 247.372829 
L 642.121925 248.314469 
L 644.774332 249.171651 
L 647.426738 249.950064 
L 650.079144 250.655251 
L 652.731551 251.292584 
L 655.383957 251.867233 
L 658.036364 252.384154 
L 660.68877 252.848066 
L 663.341176 253.263446 
L 665.993583 253.634521 
L 668.645989 253.965263 
L 671.298396 254.259389 
L 673.950802 254.520367 
L 676.603209 254.751414 
L 679.255615 254.95551 
L 681.908021 255.1354 
L 684.560428 255.293606 
L 687.212834 255.432439 
L 689.865241 255.554004 
L 692.517647 255.660219 
L 695.170053 255.752822 
L 697.82246 255.833384 
L 700.474866 255.90332 
L 703.127273 255.963903 
L 705.779679 256.016272 
L 708.432086 256.061444 
L 711.084492 256.100327 
L 713.736898 256.133726 
L 716.389305 256.162353 
L 719.041711 256.18684 
L 721.694118 256.207742 
" clip-path="url(#p2e333a0b87)" style="fill: none; stroke: #0000ff; stroke-width: 1.5; stroke-linecap: square"/>
   </g>
   <g id="line2d_37">
    <path d="M 532.872266 256.32 
L 532.872266 45.12 
" clip-path="url(#p2e333a0b87)" style="fill: none; stroke: #000000; stroke-width: 1.5; stroke-linecap: square"/>
   </g>
   <g id="patch_106">
    <path d="M 459.105882 256.32 
L 459.105882 34.56 
" style="fill: none; stroke: #000000; stroke-width: 0.8; stroke-linejoin: miter; stroke-linecap: square"/>
   </g>
   <g id="patch_107">
    <path d="M 721.694118 256.32 
L 721.694118 34.56 
" style="fill: none; stroke: #000000; stroke-width: 0.8; stroke-linejoin: miter; stroke-linecap: square"/>
   </g>
   <g id="patch_108">
    <path d="M 459.105882 256.32 
L 721.694118 256.32 
" style="fill: none; stroke: #000000; stroke-width: 0.8; stroke-linejoin: miter; stroke-linecap: square"/>
   </g>
   <g id="patch_109">
    <path d="M 459.105882 34.56 
L 721.694118 34.56 
" style="fill: none; stroke: #000000; stroke-width: 0.8; stroke-linejoin: miter; stroke-linecap: square"/>
   </g>
   <g id="text_33">
    <!-- &lt;E1&gt; = 0.84 -->
    <g transform="translate(642.917647 66.24) scale(0.1 -0.1)">
     <use xlink:href="#DejaVuSans-3c"/>
     <use xlink:href="#DejaVuSans-45" x="83.789062"/>
     <use xlink:href="#DejaVuSans-31" x="146.972656"/>
     <use xlink:href="#DejaVuSans-3e" x="210.595703"/>
     <use xlink:href="#DejaVuSans-20" x="294.384766"/>
     <use xlink:href="#DejaVuSans-3d" x="326.171875"/>
     <use xlink:href="#DejaVuSans-20" x="409.960938"/>
     <use xlink:href="#DejaVuSans-30" x="441.748047"/>
     <use xlink:href="#DejaVuSans-2e" x="505.371094"/>
     <use xlink:href="#DejaVuSans-38" x="537.158203"/>
     <use xlink:href="#DejaVuSans-34" x="600.78125"/>
    </g>
   </g>
   <g id="text_34">
    <!-- Conditional histograms (acentric, real data) -->
    <g transform="translate(433.355625 28.56) scale(0.144 -0.144)">
     <defs>
      <path id="DejaVuSans-43" d="M 4122 4306 
L 4122 3641 
Q 3803 3938 3442 4084 
Q 3081 4231 2675 4231 
Q 1875 4231 1450 3742 
Q 1025 3253 1025 2328 
Q 1025 1406 1450 917 
Q 1875 428 2675 428 
Q 3081 428 3442 575 
Q 3803 722 4122 1019 
L 4122 359 
Q 3791 134 3420 21 
Q 3050 -91 2638 -91 
Q 1578 -91 968 557 
Q 359 1206 359 2328 
Q 359 3453 968 4101 
Q 1578 4750 2638 4750 
Q 3056 4750 3426 4639 
Q 3797 4528 4122 4306 
z
" transform="scale(0.015625)"/>
      <path id="DejaVuSans-6f" d="M 1959 3097 
Q 1497 3097 1228 2736 
Q 959 2375 959 1747 
Q 959 1119 1226 758 
Q 1494 397 1959 397 
Q 2419 397 2687 759 
Q 2956 1122 2956 1747 
Q 2956 2369 2687 2733 
Q 2419 3097 1959 3097 
z
M 1959 3584 
Q 2709 3584 3137 3096 
Q 3566 2609 3566 1747 
Q 3566 888 3137 398 
Q 2709 -91 1959 -91 
Q 1206 -91 779 398 
Q 353 888 353 1747 
Q 353 2609 779 3096 
Q 1206 3584 1959 3584 
z
" transform="scale(0.015625)"/>
      <path id="DejaVuSans-6e" d="M 3513 2113 
L 3513 0 
L 2938 0 
L 2938 2094 
Q 2938 2591 2744 2837 
Q 2550 3084 2163 3084 
Q 1697 3084 1428 2787 
Q 1159 2491 1159 1978 
L 1159 0 
L 581 0 
L 581 3500 
L 1159 3500 
L 1159 2956 
Q 1366 3272 1645 3428 
Q 1925 3584 2291 3584 
Q 2894 3584 3203 3211 
Q 3513 2838 3513 2113 
z
" transform="scale(0.015625)"/>
      <path id="DejaVuSans-64" d="M 2906 2969 
L 2906 4863 
L 3481 4863 
L 3481 0 
L 2906 0 
L 2906 525 
Q 2725 213 2448 61 
Q 2172 -91 1784 -91 
Q 1150 -91 751 415 
Q 353 922 353 1747 
Q 353 2572 751 3078 
Q 1150 3584 1784 3584 
Q 2172 3584 2448 3432 
Q 2725 3281 2906 2969 
z
M 947 1747 
Q 947 1113 1208 752 
Q 1469 391 1925 391 
Q 2381 391 2643 752 
Q 2906 1113 2906 1747 
Q 2906 2381 2643 2742 
Q 2381 3103 1925 3103 
Q 1469 3103 1208 2742 
Q 947 2381 947 1747 
z
" transform="scale(0.015625)"/>
      <path id="DejaVuSans-69" d="M 603 3500 
L 1178 3500 
L 1178 0 
L 603 0 
L 603 3500 
z
M 603 4863 
L 1178 4863 
L 1178 4134 
L 603 4134 
L 603 4863 
z
" transform="scale(0.015625)"/>
      <path id="DejaVuSans-74" d="M 1172 4494 
L 1172 3500 
L 2356 3500 
L 2356 3053 
L 1172 3053 
L 1172 1153 
Q 1172 725 1289 603 
Q 1406 481 1766 481 
L 2356 481 
L 2356 0 
L 1766 0 
Q 1100 0 847 248 
Q 594 497 594 1153 
L 594 3053 
L 172 3053 
L 172 3500 
L 594 3500 
L 594 4494 
L 1172 4494 
z
" transform="scale(0.015625)"/>
      <path id="DejaVuSans-61" d="M 2194 1759 
Q 1497 1759 1228 1600 
Q 959 1441 959 1056 
Q 959 750 1161 570 
Q 1363 391 1709 391 
Q 2188 391 2477 730 
Q 2766 1069 2766 1631 
L 2766 1759 
L 2194 1759 
z
M 3341 1997 
L 3341 0 
L 2766 0 
L 2766 531 
Q 2569 213 2275 61 
Q 1981 -91 1556 -91 
Q 1019 -91 701 211 
Q 384 513 384 1019 
Q 384 1609 779 1909 
Q 1175 2209 1959 2209 
L 2766 2209 
L 2766 2266 
Q 2766 2663 2505 2880 
Q 2244 3097 1772 3097 
Q 1472 3097 1187 3025 
Q 903 2953 641 2809 
L 641 3341 
Q 956 3463 1253 3523 
Q 1550 3584 1831 3584 
Q 2591 3584 2966 3190 
Q 3341 2797 3341 1997 
z
" transform="scale(0.015625)"/>
      <path id="DejaVuSans-6c" d="M 603 4863 
L 1178 4863 
L 1178 0 
L 603 0 
L 603 4863 
z
" transform="scale(0.015625)"/>
      <path id="DejaVuSans-68" d="M 3513 2113 
L 3513 0 
L 2938 0 
L 2938 2094 
Q 2938 2591 2744 2837 
Q 2550 3084 2163 3084 
Q 1697 3084 1428 2787 
Q 1159 2491 1159 1978 
L 1159 0 
L 581 0 
L 581 4863 
L 1159 4863 
L 1159 2956 
Q 1366 3272 1645 3428 
Q 1925 3584 2291 3584 
Q 2894 3584 3203 3211 
Q 3513 2838 3513 2113 
z
" transform="scale(0.015625)"/>
      <path id="DejaVuSans-73" d="M 2834 3397 
L 2834 2853 
Q 2591 2978 2328 3040 
Q 2066 3103 1784 3103 
Q 1356 3103 1142 2972 
Q 928 2841 928 2578 
Q 928 2378 1081 2264 
Q 1234 2150 1697 2047 
L 1894 2003 
Q 2506 1872 2764 1633 
Q 3022 1394 3022 966 
Q 3022 478 2636 193 
Q 2250 -91 1575 -91 
Q 1294 -91 989 -36 
Q 684 19 347 128 
L 347 722 
Q 666 556 975 473 
Q 1284 391 1588 391 
Q 1994 391 2212 530 
Q 2431 669 2431 922 
Q 2431 1156 2273 1281 
Q 2116 1406 1581 1522 
L 1381 1569 
Q 847 1681 609 1914 
Q 372 2147 372 2553 
Q 372 3047 722 3315 
Q 1072 3584 1716 3584 
Q 2034 3584 2315 3537 
Q 2597 3491 2834 3397 
z
" transform="scale(0.015625)"/>
      <path id="DejaVuSans-67" d="M 2906 1791 
Q 2906 2416 2648 2759 
Q 2391 3103 1925 3103 
Q 1463 3103 1205 2759 
Q 947 2416 947 1791 
Q 947 1169 1205 825 
Q 1463 481 1925 481 
Q 2391 481 2648 825 
Q 2906 1169 2906 1791 
z
M 3481 434 
Q 3481 -459 3084 -895 
Q 2688 -1331 1869 -1331 
Q 1566 -1331 1297 -1286 
Q 1028 -1241 775 -1147 
L 775 -588 
Q 1028 -725 1275 -790 
Q 1522 -856 1778 -856 
Q 2344 -856 2625 -561 
Q 2906 -266 2906 331 
L 2906 616 
Q 2728 306 2450 153 
Q 2172 0 1784 0 
Q 1141 0 747 490 
Q 353 981 353 1791 
Q 353 2603 747 3093 
Q 1141 3584 1784 3584 
Q 2172 3584 2450 3431 
Q 2728 3278 2906 2969 
L 2906 3500 
L 3481 3500 
L 3481 434 
z
" transform="scale(0.015625)"/>
      <path id="DejaVuSans-72" d="M 2631 2963 
Q 2534 3019 2420 3045 
Q 2306 3072 2169 3072 
Q 1681 3072 1420 2755 
Q 1159 2438 1159 1844 
L 1159 0 
L 581 0 
L 581 3500 
L 1159 3500 
L 1159 2956 
Q 1341 3275 1631 3429 
Q 1922 3584 2338 3584 
Q 2397 3584 2469 3576 
Q 2541 3569 2628 3553 
L 2631 2963 
z
" transform="scale(0.015625)"/>
      <path id="DejaVuSans-6d" d="M 3328 2828 
Q 3544 3216 3844 3400 
Q 4144 3584 4550 3584 
Q 5097 3584 5394 3201 
Q 5691 2819 5691 2113 
L 5691 0 
L 5113 0 
L 5113 2094 
Q 5113 2597 4934 2840 
Q 4756 3084 4391 3084 
Q 3944 3084 3684 2787 
Q 3425 2491 3425 1978 
L 3425 0 
L 2847 0 
L 2847 2094 
Q 2847 2600 2669 2842 
Q 2491 3084 2119 3084 
Q 1678 3084 1418 2786 
Q 1159 2488 1159 1978 
L 1159 0 
L 581 0 
L 581 3500 
L 1159 3500 
L 1159 2956 
Q 1356 3278 1631 3431 
Q 1906 3584 2284 3584 
Q 2666 3584 2933 3390 
Q 3200 3197 3328 2828 
z
" transform="scale(0.015625)"/>
      <path id="DejaVuSans-28" d="M 1984 4856 
Q 1566 4138 1362 3434 
Q 1159 2731 1159 2009 
Q 1159 1288 1364 580 
Q 1569 -128 1984 -844 
L 1484 -844 
Q 1016 -109 783 600 
Q 550 1309 550 2009 
Q 550 2706 781 3412 
Q 1013 4119 1484 4856 
L 1984 4856 
z
" transform="scale(0.015625)"/>
      <path id="DejaVuSans-63" d="M 3122 3366 
L 3122 2828 
Q 2878 2963 2633 3030 
Q 2388 3097 2138 3097 
Q 1578 3097 1268 2742 
Q 959 2388 959 1747 
Q 959 1106 1268 751 
Q 1578 397 2138 397 
Q 2388 397 2633 464 
Q 2878 531 3122 666 
L 3122 134 
Q 2881 22 2623 -34 
Q 2366 -91 2075 -91 
Q 1284 -91 818 406 
Q 353 903 353 1747 
Q 353 2603 823 3093 
Q 1294 3584 2113 3584 
Q 2378 3584 2631 3529 
Q 2884 3475 3122 3366 
z
" transform="scale(0.015625)"/>
      <path id="DejaVuSans-65" d="M 3597 1894 
L 3597 1613 
L 953 1613 
Q 991 1019 1311 708 
Q 1631 397 2203 397 
Q 2534 397 2845 478 
Q 3156 559 3463 722 
L 3463 178 
Q 3153 47 2828 -22 
Q 2503 -91 2169 -91 
Q 1331 -91 842 396 
Q 353 884 353 1716 
Q 353 2575 817 3079 
Q 1281 3584 2069 3584 
Q 2775 3584 3186 3129 
Q 3597 2675 3597 1894 
z
M 3022 2063 
Q 3016 2534 2758 2815 
Q 2500 3097 2075 3097 
Q 1594 3097 1305 2825 
Q 1016 2553 972 2059 
L 3022 2063 
z
" transform="scale(0.015625)"/>
      <path id="DejaVuSans-2c" d="M 750 794 
L 1409 794 
L 1409 256 
L 897 -744 
L 494 -744 
L 750 256 
L 750 794 
z
" transform="scale(0.015625)"/>
      <path id="DejaVuSans-29" d="M 513 4856 
L 1013 4856 
Q 1481 4119 1714 3412 
Q 1947 2706 1947 2009 
Q 1947 1309 1714 600 
Q 1481 -109 1013 -844 
L 513 -844 
Q 928 -128 1133 580 
Q 1338 1288 1338 2009 
Q 1338 2731 1133 3434 
Q 928 4138 513 4856 
z
" transform="scale(0.015625)"/>
     </defs>
     <use xlink:href="#DejaVuSans-43"/>
     <use xlink:href="#DejaVuSans-6f" x="69.824219"/>
     <use xlink:href="#DejaVuSans-6e" x="131.005859"/>
     <use xlink:href="#DejaVuSans-64" x="194.384766"/>
     <use xlink:href="#DejaVuSans-69" x="257.861328"/>
     <use xlink:href="#DejaVuSans-74" x="285.644531"/>
     <use xlink:href="#DejaVuSans-69" x="324.853516"/>
     <use xlink:href="#DejaVuSans-6f" x="352.636719"/>
     <use xlink:href="#DejaVuSans-6e" x="413.818359"/>
     <use xlink:href="#DejaVuSans-61" x="477.197266"/>
     <use xlink:href="#DejaVuSans-6c" x="538.476562"/>
     <use xlink:href="#DejaVuSans-20" x="566.259766"/>
     <use xlink:href="#DejaVuSans-68" x="598.046875"/>
     <use xlink:href="#DejaVuSans-69" x="661.425781"/>
     <use xlink:href="#DejaVuSans-73" x="689.208984"/>
     <use xlink:href="#DejaVuSans-74" x="741.308594"/>
     <use xlink:href="#DejaVuSans-6f" x="780.517578"/>
     <use xlink:href="#DejaVuSans-67" x="841.699219"/>
     <use xlink:href="#DejaVuSans-72" x="905.175781"/>
     <use xlink:href="#DejaVuSans-61" x="946.289062"/>
     <use xlink:href="#DejaVuSans-6d" x="1007.568359"/>
     <use xlink:href="#DejaVuSans-73" x="1104.980469"/>
     <use xlink:href="#DejaVuSans-20" x="1157.080078"/>
     <use xlink:href="#DejaVuSans-28" x="1188.867188"/>
     <use xlink:href="#DejaVuSans-61" x="1227.880859"/>
     <use xlink:href="#DejaVuSans-63" x="1289.160156"/>
     <use xlink:href="#DejaVuSans-65" x="1344.140625"/>
     <use xlink:href="#DejaVuSans-6e" x="1405.664062"/>
     <use xlink:href="#DejaVuSans-74" x="1469.042969"/>
     <use xlink:href="#DejaVuSans-72" x="1508.251953"/>
     <use xlink:href="#DejaVuSans-69" x="1549.365234"/>
     <use xlink:href="#DejaVuSans-63" x="1577.148438"/>
     <use xlink:href="#DejaVuSans-2c" x="1632.128906"/>
     <use xlink:href="#DejaVuSans-20" x="1663.916016"/>
     <use xlink:href="#DejaVuSans-72" x="1695.703125"/>
     <use xlink:href="#DejaVuSans-65" x="1734.566406"/>
     <use xlink:href="#DejaVuSans-61" x="1796.089844"/>
     <use xlink:href="#DejaVuSans-6c" x="1857.369141"/>
     <use xlink:href="#DejaVuSans-20" x="1885.152344"/>
     <use xlink:href="#DejaVuSans-64" x="1916.939453"/>
     <use xlink:href="#DejaVuSans-61" x="1980.416016"/>
     <use xlink:href="#DejaVuSans-74" x="2041.695312"/>
     <use xlink:href="#DejaVuSans-61" x="2080.904297"/>
     <use xlink:href="#DejaVuSans-29" x="2142.183594"/>
    </g>
   </g>
  </g>
  <g id="axes_3">
   <g id="patch_110">
    <path d="M 774.211765 256.32 
L 1036.8 256.32 
L 1036.8 34.56 
L 774.211765 34.56 
z
" style="fill: #ffffff"/>
   </g>
   <g id="patch_111">
    <path d="M 774.211765 256.32 
L 783.143337 256.32 
L 783.143337 256.32 
L 774.211765 256.32 
z
" clip-path="url(#p6af1a64529)" style="fill: #1f77b4"/>
   </g>
   <g id="patch_112">
    <path d="M 783.143337 256.32 
L 792.07491 256.32 
L 792.07491 253.434113 
L 783.143337 253.434113 
z
" clip-path="url(#p6af1a64529)" style="fill: #1f77b4"/>
   </g>
   <g id="patch_113">
    <path d="M 792.07491 256.32 
L 801.006483 256.32 
L 801.006483 237.561733 
L 792.07491 237.561733 
z
" clip-path="url(#p6af1a64529)" style="fill: #1f77b4"/>
   </g>
   <g id="patch_114">
    <path d="M 801.006483 256.32 
L 809.938055 256.32 
L 809.938055 240.447621 
L 801.006483 240.447621 
z
" clip-path="url(#p6af1a64529)" style="fill: #1f77b4"/>
   </g>
   <g id="patch_115">
    <path d="M 809.938055 256.32 
L 818.869628 256.32 
L 818.869628 215.91758 
L 809.938055 215.91758 
z
" clip-path="url(#p6af1a64529)" style="fill: #1f77b4"/>
   </g>
   <g id="patch_116">
    <path d="M 818.869628 256.32 
L 827.8012 256.32 
L 827.8012 211.588749 
L 818.869628 211.588749 
z
" clip-path="url(#p6af1a64529)" style="fill: #1f77b4"/>
   </g>
   <g id="patch_117">
    <path d="M 827.8012 256.32 
L 836.732773 256.32 
L 836.732773 187.058708 
L 827.8012 187.058708 
z
" clip-path="url(#p6af1a64529)" style="fill: #1f77b4"/>
   </g>
   <g id="patch_118">
    <path d="M 836.732773 256.32 
L 845.664346 256.32 
L 845.664346 174.072216 
L 836.732773 174.072216 
z
" clip-path="url(#p6af1a64529)" style="fill: #1f77b4"/>
   </g>
   <g id="patch_119">
    <path d="M 845.664346 256.32 
L 854.595918 256.32 
L 854.595918 165.414554 
L 845.664346 165.414554 
z
" clip-path="url(#p6af1a64529)" style="fill: #1f77b4"/>
   </g>
   <g id="patch_120">
    <path d="M 854.595918 256.32 
L 863.527491 256.32 
L 863.527491 116.354472 
L 854.595918 116.354472 
z
" clip-path="url(#p6af1a64529)" style="fill: #1f77b4"/>
   </g>
   <g id="patch_121">
    <path d="M 863.527491 256.32 
L 872.459064 256.32 
L 872.459064 103.36798 
L 863.527491 103.36798 
z
" clip-path="url(#p6af1a64529)" style="fill: #1f77b4"/>
   </g>
   <g id="patch_122">
    <path d="M 872.459064 256.32 
L 881.390636 256.32 
L 881.390636 109.139755 
L 872.459064 109.139755 
z
" clip-path="url(#p6af1a64529)" style="fill: #1f77b4"/>
   </g>
   <g id="patch_123">
    <path d="M 881.390636 256.32 
L 890.322209 256.32 
L 890.322209 109.139755 
L 881.390636 109.139755 
z
" clip-path="url(#p6af1a64529)" style="fill: #1f77b4"/>
   </g>
   <g id="patch_124">
    <path d="M 890.322209 256.32 
L 899.253782 256.32 
L 899.253782 114.911529 
L 890.322209 114.911529 
z
" clip-path="url(#p6af1a64529)" style="fill: #1f77b4"/>
   </g>
   <g id="patch_125">
    <path d="M 899.253782 256.32 
L 908.185354 256.32 
L 908.185354 106.253867 
L 899.253782 106.253867 
z
" clip-path="url(#p6af1a64529)" style="fill: #1f77b4"/>
   </g>
   <g id="patch_126">
    <path d="M 908.185354 256.32 
L 917.116927 256.32 
L 917.116927 97.596206 
L 908.185354 97.596206 
z
" clip-path="url(#p6af1a64529)" style="fill: #1f77b4"/>
   </g>
   <g id="patch_127">
    <path d="M 917.116927 256.32 
L 926.048499 256.32 
L 926.048499 155.313949 
L 917.116927 155.313949 
z
" clip-path="url(#p6af1a64529)" style="fill: #1f77b4"/>
   </g>
   <g id="patch_128">
    <path d="M 926.048499 256.32 
L 934.980072 256.32 
L 934.980072 179.84399 
L 926.048499 179.84399 
z
" clip-path="url(#p6af1a64529)" style="fill: #1f77b4"/>
   </g>
   <g id="patch_129">
    <path d="M 934.980072 256.32 
L 943.911645 256.32 
L 943.911645 182.729877 
L 934.980072 182.729877 
z
" clip-path="url(#p6af1a64529)" style="fill: #1f77b4"/>
   </g>
   <g id="patch_130">
    <path d="M 943.911645 256.32 
L 952.843217 256.32 
L 952.843217 223.132298 
L 943.911645 223.132298 
z
" clip-path="url(#p6af1a64529)" style="fill: #1f77b4"/>
   </g>
   <g id="patch_131">
    <path d="M 952.843217 256.32 
L 961.77479 256.32 
L 961.77479 239.004677 
L 952.843217 239.004677 
z
" clip-path="url(#p6af1a64529)" style="fill: #1f77b4"/>
   </g>
   <g id="patch_132">
    <path d="M 961.77479 256.32 
L 970.706363 256.32 
L 970.706363 244.776451 
L 961.77479 244.776451 
z
" clip-path="url(#p6af1a64529)" style="fill: #1f77b4"/>
   </g>
   <g id="patch_133">
    <path d="M 970.706363 256.32 
L 979.637935 256.32 
L 979.637935 246.219395 
L 970.706363 246.219395 
z
" clip-path="url(#p6af1a64529)" style="fill: #1f77b4"/>
   </g>
   <g id="patch_134">
    <path d="M 979.637935 256.32 
L 988.569508 256.32 
L 988.569508 247.662339 
L 979.637935 247.662339 
z
" clip-path="url(#p6af1a64529)" style="fill: #1f77b4"/>
   </g>
   <g id="patch_135">
    <path d="M 988.569508 256.32 
L 997.50108 256.32 
L 997.50108 254.877056 
L 988.569508 254.877056 
z
" clip-path="url(#p6af1a64529)" style="fill: #1f77b4"/>
   </g>
   <g id="patch_136">
    <path d="M 997.50108 256.32 
L 1006.432653 256.32 
L 1006.432653 253.434113 
L 997.50108 253.434113 
z
" clip-path="url(#p6af1a64529)" style="fill: #1f77b4"/>
   </g>
   <g id="patch_137">
    <path d="M 1006.432653 256.32 
L 1015.364226 256.32 
L 1015.364226 256.32 
L 1006.432653 256.32 
z
" clip-path="url(#p6af1a64529)" style="fill: #1f77b4"/>
   </g>
   <g id="patch_138">
    <path d="M 1015.364226 256.32 
L 1024.295798 256.32 
L 1024.295798 256.32 
L 1015.364226 256.32 
z
" clip-path="url(#p6af1a64529)" style="fill: #1f77b4"/>
   </g>
   <g id="patch_139">
    <path d="M 1024.295798 256.32 
L 1033.227371 256.32 
L 1033.227371 256.32 
L 1024.295798 256.32 
z
" clip-path="url(#p6af1a64529)" style="fill: #1f77b4"/>
   </g>
   <g id="patch_140">
    <path d="M 1033.227371 256.32 
L 1042.158944 256.32 
L 1042.158944 256.32 
L 1033.227371 256.32 
z
" clip-path="url(#p6af1a64529)" style="fill: #1f77b4"/>
   </g>
   <g id="patch_141">
    <path d="M 1042.158944 256.32 
L 1051.090516 256.32 
L 1051.090516 256.32 
L 1042.158944 256.32 
z
" clip-path="url(#p6af1a64529)" style="fill: #1f77b4"/>
   </g>
   <g id="patch_142">
    <path d="M 1051.090516 256.32 
L 1060.022089 256.32 
L 1060.022089 256.32 
L 1051.090516 256.32 
z
" clip-path="url(#p6af1a64529)" style="fill: #1f77b4"/>
   </g>
   <g id="patch_143">
    <path d="M 1060.022089 256.32 
L 1068.953661 256.32 
L 1068.953661 256.32 
L 1060.022089 256.32 
z
" clip-path="url(#p6af1a64529)" style="fill: #1f77b4"/>
   </g>
   <g id="patch_144">
    <path d="M 1068.953661 256.32 
L 1077.885234 256.32 
L 1077.885234 256.32 
L 1068.953661 256.32 
z
" clip-path="url(#p6af1a64529)" style="fill: #1f77b4"/>
   </g>
   <g id="patch_145">
    <path d="M 1077.885234 256.32 
L 1086.816807 256.32 
L 1086.816807 256.32 
L 1077.885234 256.32 
z
" clip-path="url(#p6af1a64529)" style="fill: #1f77b4"/>
   </g>
   <g id="patch_146">
    <path d="M 1086.816807 256.32 
L 1095.748379 256.32 
L 1095.748379 256.32 
L 1086.816807 256.32 
z
" clip-path="url(#p6af1a64529)" style="fill: #1f77b4"/>
   </g>
   <g id="patch_147">
    <path d="M 1095.748379 256.32 
L 1104.679952 256.32 
L 1104.679952 256.32 
L 1095.748379 256.32 
z
" clip-path="url(#p6af1a64529)" style="fill: #1f77b4"/>
   </g>
   <g id="patch_148">
    <path d="M 1104.679952 256.32 
L 1113.611525 256.32 
L 1113.611525 256.32 
L 1104.679952 256.32 
z
" clip-path="url(#p6af1a64529)" style="fill: #1f77b4"/>
   </g>
   <g id="patch_149">
    <path d="M 1113.611525 256.32 
L 1122.543097 256.32 
L 1122.543097 256.32 
L 1113.611525 256.32 
z
" clip-path="url(#p6af1a64529)" style="fill: #1f77b4"/>
   </g>
   <g id="patch_150">
    <path d="M 1122.543097 256.32 
L 1131.47467 256.32 
L 1131.47467 256.32 
L 1122.543097 256.32 
z
" clip-path="url(#p6af1a64529)" style="fill: #1f77b4"/>
   </g>
   <g id="patch_151">
    <path d="M 1131.47467 256.32 
L 1140.406242 256.32 
L 1140.406242 256.32 
L 1131.47467 256.32 
z
" clip-path="url(#p6af1a64529)" style="fill: #1f77b4"/>
   </g>
   <g id="patch_152">
    <path d="M 1140.406242 256.32 
L 1149.337815 256.32 
L 1149.337815 256.32 
L 1140.406242 256.32 
z
" clip-path="url(#p6af1a64529)" style="fill: #1f77b4"/>
   </g>
   <g id="patch_153">
    <path d="M 1149.337815 256.32 
L 1158.269388 256.32 
L 1158.269388 256.32 
L 1149.337815 256.32 
z
" clip-path="url(#p6af1a64529)" style="fill: #1f77b4"/>
   </g>
   <g id="patch_154">
    <path d="M 1158.269388 256.32 
L 1167.20096 256.32 
L 1167.20096 256.32 
L 1158.269388 256.32 
z
" clip-path="url(#p6af1a64529)" style="fill: #1f77b4"/>
   </g>
   <g id="patch_155">
    <path d="M 1167.20096 256.32 
L 1176.132533 256.32 
L 1176.132533 256.32 
L 1167.20096 256.32 
z
" clip-path="url(#p6af1a64529)" style="fill: #1f77b4"/>
   </g>
   <g id="patch_156">
    <path d="M 1176.132533 256.32 
L 1185.064106 256.32 
L 1185.064106 256.32 
L 1176.132533 256.32 
z
" clip-path="url(#p6af1a64529)" style="fill: #1f77b4"/>
   </g>
   <g id="patch_157">
    <path d="M 1185.064106 256.32 
L 1193.995678 256.32 
L 1193.995678 256.32 
L 1185.064106 256.32 
z
" clip-path="url(#p6af1a64529)" style="fill: #1f77b4"/>
   </g>
   <g id="patch_158">
    <path d="M 1193.995678 256.32 
L 1202.927251 256.32 
L 1202.927251 256.32 
L 1193.995678 256.32 
z
" clip-path="url(#p6af1a64529)" style="fill: #1f77b4"/>
   </g>
   <g id="patch_159">
    <path d="M 1202.927251 256.32 
L 1211.858824 256.32 
L 1211.858824 256.32 
L 1202.927251 256.32 
z
" clip-path="url(#p6af1a64529)" style="fill: #1f77b4"/>
   </g>
   <g id="matplotlib.axis_5">
    <g id="xtick_15">
     <g id="line2d_38">
      <g>
       <use xlink:href="#m46c51094a4" x="774.211765" y="256.32" style="stroke: #000000; stroke-width: 0.8"/>
      </g>
     </g>
     <g id="text_35">
      <!-- 0.0 -->
      <g transform="translate(764.66989 272.438125) scale(0.12 -0.12)">
       <use xlink:href="#DejaVuSans-30"/>
       <use xlink:href="#DejaVuSans-2e" x="63.623047"/>
       <use xlink:href="#DejaVuSans-30" x="95.410156"/>
      </g>
     </g>
    </g>
    <g id="xtick_16">
     <g id="line2d_39">
      <g>
       <use xlink:href="#m46c51094a4" x="817.976471" y="256.32" style="stroke: #000000; stroke-width: 0.8"/>
      </g>
     </g>
     <g id="text_36">
      <!-- 0.5 -->
      <g transform="translate(808.434596 272.438125) scale(0.12 -0.12)">
       <use xlink:href="#DejaVuSans-30"/>
       <use xlink:href="#DejaVuSans-2e" x="63.623047"/>
       <use xlink:href="#DejaVuSans-35" x="95.410156"/>
      </g>
     </g>
    </g>
    <g id="xtick_17">
     <g id="line2d_40">
      <g>
       <use xlink:href="#m46c51094a4" x="861.741176" y="256.32" style="stroke: #000000; stroke-width: 0.8"/>
      </g>
     </g>
     <g id="text_37">
      <!-- 1.0 -->
      <g transform="translate(852.199301 272.438125) scale(0.12 -0.12)">
       <use xlink:href="#DejaVuSans-31"/>
       <use xlink:href="#DejaVuSans-2e" x="63.623047"/>
       <use xlink:href="#DejaVuSans-30" x="95.410156"/>
      </g>
     </g>
    </g>
    <g id="xtick_18">
     <g id="line2d_41">
      <g>
       <use xlink:href="#m46c51094a4" x="905.505882" y="256.32" style="stroke: #000000; stroke-width: 0.8"/>
      </g>
     </g>
     <g id="text_38">
      <!-- 1.5 -->
      <g transform="translate(895.964007 272.438125) scale(0.12 -0.12)">
       <use xlink:href="#DejaVuSans-31"/>
       <use xlink:href="#DejaVuSans-2e" x="63.623047"/>
       <use xlink:href="#DejaVuSans-35" x="95.410156"/>
      </g>
     </g>
    </g>
    <g id="xtick_19">
     <g id="line2d_42">
      <g>
       <use xlink:href="#m46c51094a4" x="949.270588" y="256.32" style="stroke: #000000; stroke-width: 0.8"/>
      </g>
     </g>
     <g id="text_39">
      <!-- 2.0 -->
      <g transform="translate(939.728713 272.438125) scale(0.12 -0.12)">
       <use xlink:href="#DejaVuSans-32"/>
       <use xlink:href="#DejaVuSans-2e" x="63.623047"/>
       <use xlink:href="#DejaVuSans-30" x="95.410156"/>
      </g>
     </g>
    </g>
    <g id="xtick_20">
     <g id="line2d_43">
      <g>
       <use xlink:href="#m46c51094a4" x="993.035294" y="256.32" style="stroke: #000000; stroke-width: 0.8"/>
      </g>
     </g>
     <g id="text_40">
      <!-- 2.5 -->
      <g transform="translate(983.493419 272.438125) scale(0.12 -0.12)">
       <use xlink:href="#DejaVuSans-32"/>
       <use xlink:href="#DejaVuSans-2e" x="63.623047"/>
       <use xlink:href="#DejaVuSans-35" x="95.410156"/>
      </g>
     </g>
    </g>
    <g id="xtick_21">
     <g id="line2d_44">
      <g>
       <use xlink:href="#m46c51094a4" x="1036.8" y="256.32" style="stroke: #000000; stroke-width: 0.8"/>
      </g>
     </g>
     <g id="text_41">
      <!-- 3.0 -->
      <g transform="translate(1027.258125 272.438125) scale(0.12 -0.12)">
       <use xlink:href="#DejaVuSans-33"/>
       <use xlink:href="#DejaVuSans-2e" x="63.623047"/>
       <use xlink:href="#DejaVuSans-30" x="95.410156"/>
      </g>
     </g>
    </g>
   </g>
   <g id="matplotlib.axis_6">
    <g id="ytick_18">
     <g id="line2d_45">
      <g>
       <use xlink:href="#me8f4e11c37" x="774.211765" y="256.32" style="stroke: #000000; stroke-width: 0.8"/>
      </g>
     </g>
     <g id="text_42">
      <!-- 0.0 -->
      <g transform="translate(748.128015 260.879063) scale(0.12 -0.12)">
       <use xlink:href="#DejaVuSans-30"/>
       <use xlink:href="#DejaVuSans-2e" x="63.623047"/>
       <use xlink:href="#DejaVuSans-30" x="95.410156"/>
      </g>
     </g>
    </g>
    <g id="ytick_19">
     <g id="line2d_46">
      <g>
       <use xlink:href="#me8f4e11c37" x="774.211765" y="220.835367" style="stroke: #000000; stroke-width: 0.8"/>
      </g>
     </g>
     <g id="text_43">
      <!-- 0.2 -->
      <g transform="translate(748.128015 225.394429) scale(0.12 -0.12)">
       <use xlink:href="#DejaVuSans-30"/>
       <use xlink:href="#DejaVuSans-2e" x="63.623047"/>
       <use xlink:href="#DejaVuSans-32" x="95.410156"/>
      </g>
     </g>
    </g>
    <g id="ytick_20">
     <g id="line2d_47">
      <g>
       <use xlink:href="#me8f4e11c37" x="774.211765" y="185.350734" style="stroke: #000000; stroke-width: 0.8"/>
      </g>
     </g>
     <g id="text_44">
      <!-- 0.4 -->
      <g transform="translate(748.128015 189.909796) scale(0.12 -0.12)">
       <use xlink:href="#DejaVuSans-30"/>
       <use xlink:href="#DejaVuSans-2e" x="63.623047"/>
       <use xlink:href="#DejaVuSans-34" x="95.410156"/>
      </g>
     </g>
    </g>
    <g id="ytick_21">
     <g id="line2d_48">
      <g>
       <use xlink:href="#me8f4e11c37" x="774.211765" y="149.866101" style="stroke: #000000; stroke-width: 0.8"/>
      </g>
     </g>
     <g id="text_45">
      <!-- 0.6 -->
      <g transform="translate(748.128015 154.425163) scale(0.12 -0.12)">
       <use xlink:href="#DejaVuSans-30"/>
       <use xlink:href="#DejaVuSans-2e" x="63.623047"/>
       <use xlink:href="#DejaVuSans-36" x="95.410156"/>
      </g>
     </g>
    </g>
    <g id="ytick_22">
     <g id="line2d_49">
      <g>
       <use xlink:href="#me8f4e11c37" x="774.211765" y="114.381468" style="stroke: #000000; stroke-width: 0.8"/>
      </g>
     </g>
     <g id="text_46">
      <!-- 0.8 -->
      <g transform="translate(748.128015 118.94053) scale(0.12 -0.12)">
       <use xlink:href="#DejaVuSans-30"/>
       <use xlink:href="#DejaVuSans-2e" x="63.623047"/>
       <use xlink:href="#DejaVuSans-38" x="95.410156"/>
      </g>
     </g>
    </g>
    <g id="ytick_23">
     <g id="line2d_50">
      <g>
       <use xlink:href="#me8f4e11c37" x="774.211765" y="78.896835" style="stroke: #000000; stroke-width: 0.8"/>
      </g>
     </g>
     <g id="text_47">
      <!-- 1.0 -->
      <g transform="translate(748.128015 83.455897) scale(0.12 -0.12)">
       <use xlink:href="#DejaVuSans-31"/>
       <use xlink:href="#DejaVuSans-2e" x="63.623047"/>
       <use xlink:href="#DejaVuSans-30" x="95.410156"/>
      </g>
     </g>
    </g>
    <g id="ytick_24">
     <g id="line2d_51">
      <g>
       <use xlink:href="#me8f4e11c37" x="774.211765" y="43.412202" style="stroke: #000000; stroke-width: 0.8"/>
      </g>
     </g>
     <g id="text_48">
      <!-- 1.2 -->
      <g transform="translate(748.128015 47.971264) scale(0.12 -0.12)">
       <use xlink:href="#DejaVuSans-31"/>
       <use xlink:href="#DejaVuSans-2e" x="63.623047"/>
       <use xlink:href="#DejaVuSans-32" x="95.410156"/>
      </g>
     </g>
    </g>
   </g>
   <g id="line2d_52">
    <path d="M 774.211765 256.32 
L 776.864171 256.251426 
L 779.516578 256.174916 
L 782.168984 256.082078 
L 784.82139 255.963614 
L 787.473797 255.80886 
L 790.126203 255.605332 
L 792.77861 255.338281 
L 795.431016 254.990254 
L 798.083422 254.540698 
L 800.735829 253.965596 
L 803.388235 253.237192 
L 806.040642 252.323799 
L 808.693048 251.189749 
L 811.345455 249.795507 
L 813.997861 248.097984 
L 816.650267 246.051084 
L 819.302674 243.606518 
L 821.95508 240.714896 
L 824.607487 237.327115 
L 827.259893 233.396035 
L 829.912299 228.878422 
L 832.564706 223.737119 
L 835.217112 217.943376 
L 837.869519 211.479267 
L 840.521925 204.340086 
L 843.174332 196.536605 
L 845.826738 188.097068 
L 848.479144 179.06879 
L 851.131551 169.519215 
L 853.783957 159.536338 
L 856.436364 149.228369 
L 859.08877 138.722579 
L 861.741176 128.163295 
L 864.393583 117.709041 
L 867.045989 107.52889 
L 869.698396 97.798122 
L 872.350802 88.693334 
L 875.003209 80.387176 
L 877.655615 73.042955 
L 880.308021 66.809302 
L 882.960428 61.815184 
L 885.612834 58.165465 
L 888.265241 55.937244 
L 890.917647 55.177143 
L 893.570053 55.899682 
L 896.22246 58.086819 
L 898.874866 61.688676 
L 901.527273 66.625402 
L 904.179679 72.790097 
L 906.832086 80.052627 
L 909.484492 88.264151 
L 912.136898 97.262146 
L 914.789305 106.875687 
L 917.441711 116.930746 
L 920.094118 127.255289 
L 922.746524 137.683974 
L 925.39893 148.062264 
L 928.051337 158.249847 
L 930.703743 168.123267 
L 933.35615 177.577727 
L 936.008556 186.528078 
L 938.660963 194.909023 
L 941.313369 202.674625 
L 943.965775 209.797218 
L 946.618182 216.265823 
L 949.270588 222.084218 
L 951.922995 227.268775 
L 954.575401 231.846175 
L 957.227807 235.851134 
L 959.880214 239.324201 
L 962.53262 242.309732 
L 965.185027 244.854062 
L 967.837433 247.003942 
L 970.48984 248.805238 
L 973.142246 250.301893 
L 975.794652 251.535163 
L 978.447059 252.543079 
L 981.099465 253.360126 
L 983.751872 254.017106 
L 986.404278 254.541144 
L 989.056684 254.95581 
L 991.709091 255.281332 
L 994.361497 255.534859 
L 997.013904 255.730766 
L 999.66631 255.880967 
L 1002.318717 255.995228 
L 1004.971123 256.081477 
L 1007.623529 256.146077 
L 1010.275936 256.194092 
L 1012.928342 256.229505 
L 1015.580749 256.255424 
L 1018.233155 256.27425 
L 1020.885561 256.28782 
L 1023.537968 256.297527 
L 1026.190374 256.304419 
L 1028.842781 256.309274 
L 1031.495187 256.31267 
L 1034.147594 256.315026 
L 1036.8 256.316649 
" clip-path="url(#p6af1a64529)" style="fill: none; stroke: #ff0000; stroke-width: 1.5; stroke-linecap: square"/>
   </g>
   <g id="line2d_53">
    <path d="M 774.211765 256.32 
L 776.864171 245.57695 
L 779.516578 234.89301 
L 782.168984 224.326745 
L 784.82139 213.935648 
L 787.473797 203.77561 
L 790.126203 193.900428 
L 792.77861 184.361325 
L 795.431016 175.20651 
L 798.083422 166.480776 
L 800.735829 158.225138 
L 803.388235 150.476517 
L 806.040642 143.267478 
L 808.693048 136.626014 
L 811.345455 130.575389 
L 813.997861 125.134036 
L 816.650267 120.315506 
L 819.302674 116.128475 
L 821.95508 112.576802 
L 824.607487 109.659638 
L 827.259893 107.371579 
L 829.912299 105.702875 
L 832.564706 104.639662 
L 835.217112 104.164242 
L 837.869519 104.255394 
L 840.521925 104.8887 
L 843.174332 106.036905 
L 845.826738 107.670284 
L 848.479144 109.75702 
L 851.131551 112.263591 
L 853.783957 115.155149 
L 856.436364 118.395906 
L 859.08877 121.949495 
L 861.741176 125.77933 
L 864.393583 129.848947 
L 867.045989 134.122314 
L 869.698396 138.564133 
L 872.350802 143.140104 
L 875.003209 147.817168 
L 877.655615 152.563719 
L 880.308021 157.349791 
L 882.960428 162.147206 
L 885.612834 166.929701 
L 888.265241 171.673022 
L 890.917647 176.354994 
L 893.570053 180.955555 
L 896.22246 185.456774 
L 898.874866 189.842843 
L 901.527273 194.100043 
L 904.179679 198.216696 
L 906.832086 202.183093 
L 909.484492 205.991418 
L 912.136898 209.635648 
L 914.789305 213.111445 
L 917.441711 216.416048 
L 920.094118 219.548148 
L 922.746524 222.507762 
L 925.39893 225.296113 
L 928.051337 227.915496 
L 930.703743 230.369156 
L 933.35615 232.661163 
L 936.008556 234.796295 
L 938.660963 236.77992 
L 941.313369 238.617889 
L 943.965775 240.316435 
L 946.618182 241.882076 
L 949.270588 243.321526 
L 951.922995 244.641617 
L 954.575401 245.849229 
L 957.227807 246.951219 
L 959.880214 247.95437 
L 962.53262 248.865337 
L 965.185027 249.69061 
L 967.837433 250.436473 
L 970.48984 251.108979 
L 973.142246 251.713925 
L 975.794652 252.256836 
L 978.447059 252.742951 
L 981.099465 253.177215 
L 983.751872 253.564279 
L 986.404278 253.908491 
L 989.056684 254.21391 
L 991.709091 254.484303 
L 994.361497 254.723154 
L 997.013904 254.933677 
L 999.66631 255.118824 
L 1002.318717 255.281297 
L 1004.971123 255.423564 
L 1007.623529 255.547866 
L 1010.275936 255.656238 
L 1012.928342 255.750519 
L 1015.580749 255.832365 
L 1018.233155 255.903264 
L 1020.885561 255.96455 
L 1023.537968 256.017415 
L 1026.190374 256.062919 
L 1028.842781 256.102005 
L 1031.495187 256.135508 
L 1034.147594 256.164165 
L 1036.8 256.188625 
" clip-path="url(#p6af1a64529)" style="fill: none; stroke: #0000ff; stroke-width: 1.5; stroke-linecap: square"/>
   </g>
   <g id="line2d_54">
    <path d="M 904.873208 256.32 
L 904.873208 45.12 
" clip-path="url(#p6af1a64529)" style="fill: none; stroke: #000000; stroke-width: 1.5; stroke-linecap: square"/>
   </g>
   <g id="patch_160">
    <path d="M 774.211765 256.32 
L 774.211765 34.56 
" style="fill: none; stroke: #000000; stroke-width: 0.8; stroke-linejoin: miter; stroke-linecap: square"/>
   </g>
   <g id="patch_161">
    <path d="M 1036.8 256.32 
L 1036.8 34.56 
" style="fill: none; stroke: #000000; stroke-width: 0.8; stroke-linejoin: miter; stroke-linecap: square"/>
   </g>
   <g id="patch_162">
    <path d="M 774.211765 256.32 
L 1036.8 256.32 
" style="fill: none; stroke: #000000; stroke-width: 0.8; stroke-linejoin: miter; stroke-linecap: square"/>
   </g>
   <g id="patch_163">
    <path d="M 774.211765 34.56 
L 1036.8 34.56 
" style="fill: none; stroke: #000000; stroke-width: 0.8; stroke-linejoin: miter; stroke-linecap: square"/>
   </g>
   <g id="text_49">
    <!-- &lt;E1&gt; = 1.49 -->
    <g transform="translate(958.023529 66.24) scale(0.1 -0.1)">
     <defs>
      <path id="DejaVuSans-39" d="M 703 97 
L 703 672 
Q 941 559 1184 500 
Q 1428 441 1663 441 
Q 2288 441 2617 861 
Q 2947 1281 2994 2138 
Q 2813 1869 2534 1725 
Q 2256 1581 1919 1581 
Q 1219 1581 811 2004 
Q 403 2428 403 3163 
Q 403 3881 828 4315 
Q 1253 4750 1959 4750 
Q 2769 4750 3195 4129 
Q 3622 3509 3622 2328 
Q 3622 1225 3098 567 
Q 2575 -91 1691 -91 
Q 1453 -91 1209 -44 
Q 966 3 703 97 
z
M 1959 2075 
Q 2384 2075 2632 2365 
Q 2881 2656 2881 3163 
Q 2881 3666 2632 3958 
Q 2384 4250 1959 4250 
Q 1534 4250 1286 3958 
Q 1038 3666 1038 3163 
Q 1038 2656 1286 2365 
Q 1534 2075 1959 2075 
z
" transform="scale(0.015625)"/>
     </defs>
     <use xlink:href="#DejaVuSans-3c"/>
     <use xlink:href="#DejaVuSans-45" x="83.789062"/>
     <use xlink:href="#DejaVuSans-31" x="146.972656"/>
     <use xlink:href="#DejaVuSans-3e" x="210.595703"/>
     <use xlink:href="#DejaVuSans-20" x="294.384766"/>
     <use xlink:href="#DejaVuSans-3d" x="326.171875"/>
     <use xlink:href="#DejaVuSans-20" x="409.960938"/>
     <use xlink:href="#DejaVuSans-31" x="441.748047"/>
     <use xlink:href="#DejaVuSans-2e" x="505.371094"/>
     <use xlink:href="#DejaVuSans-34" x="537.158203"/>
     <use xlink:href="#DejaVuSans-39" x="600.78125"/>
    </g>
   </g>
  </g>
 </g>
 <defs>
  <clipPath id="pd82cf503a7">
   <rect x="144" y="34.56" width="262.588235" height="221.76"/>
  </clipPath>
  <clipPath id="p2e333a0b87">
   <rect x="459.105882" y="34.56" width="262.588235" height="221.76"/>
  </clipPath>
  <clipPath id="p6af1a64529">
   <rect x="774.211765" y="34.56" width="262.588235" height="221.76"/>
  </clipPath>
 </defs>
</svg>
