<?xml version="1.0" encoding="utf-8" standalone="no"?>
<!DOCTYPE svg PUBLIC "-//W3C//DTD SVG 1.1//EN"
  "http://www.w3.org/Graphics/SVG/1.1/DTD/svg11.dtd">
<!-- Created with matplotlib (https://matplotlib.org/) -->
<svg height="288pt" version="1.1" viewBox="0 0 1152 288" width="1152pt" xmlns="http://www.w3.org/2000/svg" xmlns:xlink="http://www.w3.org/1999/xlink">
 <metadata>
  <rdf:RDF xmlns:cc="http://creativecommons.org/ns#" xmlns:dc="http://purl.org/dc/elements/1.1/" xmlns:rdf="http://www.w3.org/1999/02/22-rdf-syntax-ns#">
   <cc:Work>
    <dc:type rdf:resource="http://purl.org/dc/dcmitype/StillImage"/>
    <dc:date>2021-08-05T22:23:01.662157</dc:date>
    <dc:format>image/svg+xml</dc:format>
    <dc:creator>
     <cc:Agent>
      <dc:title>Matplotlib v3.3.4, https://matplotlib.org/</dc:title>
     </cc:Agent>
    </dc:creator>
   </cc:Work>
  </rdf:RDF>
 </metadata>
 <defs>
  <style type="text/css">*{stroke-linecap:butt;stroke-linejoin:round;}</style>
 </defs>
 <g id="figure_1">
  <g id="patch_1">
   <path d="M 0 288 
L 1152 288 
L 1152 0 
L 0 0 
z
" style="fill:none;"/>
  </g>
  <g id="axes_1">
   <g id="patch_2">
    <path d="M 144 252 
L 406.588235 252 
L 406.588235 34.56 
L 144 34.56 
z
" style="fill:#ffffff;"/>
   </g>
   <g id="patch_3">
    <path clip-path="url(#pb708be3d94)" d="M 155.935829 252 
L 168.499859 252 
L 168.499859 44.914286 
L 155.935829 44.914286 
z
" style="fill:#1f77b4;"/>
   </g>
   <g id="patch_4">
    <path clip-path="url(#pb708be3d94)" d="M 168.499859 252 
L 181.06389 252 
L 181.06389 103.865693 
L 168.499859 103.865693 
z
" style="fill:#1f77b4;"/>
   </g>
   <g id="patch_5">
    <path clip-path="url(#pb708be3d94)" d="M 181.06389 252 
L 193.62792 252 
L 193.62792 117.469864 
L 181.06389 117.469864 
z
" style="fill:#1f77b4;"/>
   </g>
   <g id="patch_6">
    <path clip-path="url(#pb708be3d94)" d="M 193.62792 252 
L 206.19195 252 
L 206.19195 128.050886 
L 193.62792 128.050886 
z
" style="fill:#1f77b4;"/>
   </g>
   <g id="patch_7">
    <path clip-path="url(#pb708be3d94)" d="M 206.19195 252 
L 218.755981 252 
L 218.755981 155.259228 
L 206.19195 155.259228 
z
" style="fill:#1f77b4;"/>
   </g>
   <g id="patch_8">
    <path clip-path="url(#pb708be3d94)" d="M 218.755981 252 
L 231.320011 252 
L 231.320011 171.886548 
L 218.755981 171.886548 
z
" style="fill:#1f77b4;"/>
   </g>
   <g id="patch_9">
    <path clip-path="url(#pb708be3d94)" d="M 231.320011 252 
L 243.884042 252 
L 243.884042 183.979145 
L 231.320011 183.979145 
z
" style="fill:#1f77b4;"/>
   </g>
   <g id="patch_10">
    <path clip-path="url(#pb708be3d94)" d="M 243.884042 252 
L 256.448072 252 
L 256.448072 183.979145 
L 243.884042 183.979145 
z
" style="fill:#1f77b4;"/>
   </g>
   <g id="patch_11">
    <path clip-path="url(#pb708be3d94)" d="M 256.448072 252 
L 269.012102 252 
L 269.012102 191.537018 
L 256.448072 191.537018 
z
" style="fill:#1f77b4;"/>
   </g>
   <g id="patch_12">
    <path clip-path="url(#pb708be3d94)" d="M 269.012102 252 
L 281.576133 252 
L 281.576133 173.398123 
L 269.012102 173.398123 
z
" style="fill:#1f77b4;"/>
   </g>
   <g id="patch_13">
    <path clip-path="url(#pb708be3d94)" d="M 281.576133 252 
L 294.140163 252 
L 294.140163 188.513869 
L 281.576133 188.513869 
z
" style="fill:#1f77b4;"/>
   </g>
   <g id="patch_14">
    <path clip-path="url(#pb708be3d94)" d="M 294.140163 252 
L 306.704194 252 
L 306.704194 183.979145 
L 294.140163 183.979145 
z
" style="fill:#1f77b4;"/>
   </g>
   <g id="patch_15">
    <path clip-path="url(#pb708be3d94)" d="M 306.704194 252 
L 319.268224 252 
L 319.268224 191.537018 
L 306.704194 191.537018 
z
" style="fill:#1f77b4;"/>
   </g>
   <g id="patch_16">
    <path clip-path="url(#pb708be3d94)" d="M 319.268224 252 
L 331.832254 252 
L 331.832254 156.770803 
L 319.268224 156.770803 
z
" style="fill:#1f77b4;"/>
   </g>
   <g id="patch_17">
    <path clip-path="url(#pb708be3d94)" d="M 331.832254 252 
L 344.396285 252 
L 344.396285 146.189781 
L 331.832254 146.189781 
z
" style="fill:#1f77b4;"/>
   </g>
   <g id="patch_18">
    <path clip-path="url(#pb708be3d94)" d="M 344.396285 252 
L 356.960315 252 
L 356.960315 128.050886 
L 344.396285 128.050886 
z
" style="fill:#1f77b4;"/>
   </g>
   <g id="patch_19">
    <path clip-path="url(#pb708be3d94)" d="M 356.960315 252 
L 369.524346 252 
L 369.524346 73.634202 
L 356.960315 73.634202 
z
" style="fill:#1f77b4;"/>
   </g>
   <g id="patch_20">
    <path clip-path="url(#pb708be3d94)" d="M 369.524346 252 
L 382.088376 252 
L 382.088376 72.122628 
L 369.524346 72.122628 
z
" style="fill:#1f77b4;"/>
   </g>
   <g id="patch_21">
    <path clip-path="url(#pb708be3d94)" d="M 382.088376 252 
L 394.652406 252 
L 394.652406 97.819395 
L 382.088376 97.819395 
z
" style="fill:#1f77b4;"/>
   </g>
   <g id="matplotlib.axis_1">
    <g id="xtick_1">
     <g id="line2d_1">
      <defs>
       <path d="M 0 0 
L 0 3.5 
" id="ma54cf1ad18" style="stroke:#000000;stroke-width:0.8;"/>
      </defs>
      <g>
       <use style="stroke:#000000;stroke-width:0.8;" x="155.935829" xlink:href="#ma54cf1ad18" y="252"/>
      </g>
     </g>
     <g id="text_1">
      <!-- 0 -->
      <g transform="translate(151.482079 269.637812)scale(0.14 -0.14)">
       <defs>
        <path d="M 31.78125 66.40625 
Q 24.171875 66.40625 20.328125 58.90625 
Q 16.5 51.421875 16.5 36.375 
Q 16.5 21.390625 20.328125 13.890625 
Q 24.171875 6.390625 31.78125 6.390625 
Q 39.453125 6.390625 43.28125 13.890625 
Q 47.125 21.390625 47.125 36.375 
Q 47.125 51.421875 43.28125 58.90625 
Q 39.453125 66.40625 31.78125 66.40625 
z
M 31.78125 74.21875 
Q 44.046875 74.21875 50.515625 64.515625 
Q 56.984375 54.828125 56.984375 36.375 
Q 56.984375 17.96875 50.515625 8.265625 
Q 44.046875 -1.421875 31.78125 -1.421875 
Q 19.53125 -1.421875 13.0625 8.265625 
Q 6.59375 17.96875 6.59375 36.375 
Q 6.59375 54.828125 13.0625 64.515625 
Q 19.53125 74.21875 31.78125 74.21875 
z
" id="DejaVuSans-48"/>
       </defs>
       <use xlink:href="#DejaVuSans-48"/>
      </g>
     </g>
    </g>
    <g id="xtick_2">
     <g id="line2d_2">
      <g>
       <use style="stroke:#000000;stroke-width:0.8;" x="231.921676" xlink:href="#ma54cf1ad18" y="252"/>
      </g>
     </g>
     <g id="text_2">
      <!-- 2 -->
      <g transform="translate(227.467926 269.637812)scale(0.14 -0.14)">
       <defs>
        <path d="M 19.1875 8.296875 
L 53.609375 8.296875 
L 53.609375 0 
L 7.328125 0 
L 7.328125 8.296875 
Q 12.9375 14.109375 22.625 23.890625 
Q 32.328125 33.6875 34.8125 36.53125 
Q 39.546875 41.84375 41.421875 45.53125 
Q 43.3125 49.21875 43.3125 52.78125 
Q 43.3125 58.59375 39.234375 62.25 
Q 35.15625 65.921875 28.609375 65.921875 
Q 23.96875 65.921875 18.8125 64.3125 
Q 13.671875 62.703125 7.8125 59.421875 
L 7.8125 69.390625 
Q 13.765625 71.78125 18.9375 73 
Q 24.125 74.21875 28.421875 74.21875 
Q 39.75 74.21875 46.484375 68.546875 
Q 53.21875 62.890625 53.21875 53.421875 
Q 53.21875 48.921875 51.53125 44.890625 
Q 49.859375 40.875 45.40625 35.40625 
Q 44.1875 33.984375 37.640625 27.21875 
Q 31.109375 20.453125 19.1875 8.296875 
z
" id="DejaVuSans-50"/>
       </defs>
       <use xlink:href="#DejaVuSans-50"/>
      </g>
     </g>
    </g>
    <g id="xtick_3">
     <g id="line2d_3">
      <g>
       <use style="stroke:#000000;stroke-width:0.8;" x="307.907522" xlink:href="#ma54cf1ad18" y="252"/>
      </g>
     </g>
     <g id="text_3">
      <!-- 4 -->
      <g transform="translate(303.453772 269.637812)scale(0.14 -0.14)">
       <defs>
        <path d="M 37.796875 64.3125 
L 12.890625 25.390625 
L 37.796875 25.390625 
z
M 35.203125 72.90625 
L 47.609375 72.90625 
L 47.609375 25.390625 
L 58.015625 25.390625 
L 58.015625 17.1875 
L 47.609375 17.1875 
L 47.609375 0 
L 37.796875 0 
L 37.796875 17.1875 
L 4.890625 17.1875 
L 4.890625 26.703125 
z
" id="DejaVuSans-52"/>
       </defs>
       <use xlink:href="#DejaVuSans-52"/>
      </g>
     </g>
    </g>
    <g id="xtick_4">
     <g id="line2d_4">
      <g>
       <use style="stroke:#000000;stroke-width:0.8;" x="383.893369" xlink:href="#ma54cf1ad18" y="252"/>
      </g>
     </g>
     <g id="text_4">
      <!-- 6 -->
      <g transform="translate(379.439619 269.637812)scale(0.14 -0.14)">
       <defs>
        <path d="M 33.015625 40.375 
Q 26.375 40.375 22.484375 35.828125 
Q 18.609375 31.296875 18.609375 23.390625 
Q 18.609375 15.53125 22.484375 10.953125 
Q 26.375 6.390625 33.015625 6.390625 
Q 39.65625 6.390625 43.53125 10.953125 
Q 47.40625 15.53125 47.40625 23.390625 
Q 47.40625 31.296875 43.53125 35.828125 
Q 39.65625 40.375 33.015625 40.375 
z
M 52.59375 71.296875 
L 52.59375 62.3125 
Q 48.875 64.0625 45.09375 64.984375 
Q 41.3125 65.921875 37.59375 65.921875 
Q 27.828125 65.921875 22.671875 59.328125 
Q 17.53125 52.734375 16.796875 39.40625 
Q 19.671875 43.65625 24.015625 45.921875 
Q 28.375 48.1875 33.59375 48.1875 
Q 44.578125 48.1875 50.953125 41.515625 
Q 57.328125 34.859375 57.328125 23.390625 
Q 57.328125 12.15625 50.6875 5.359375 
Q 44.046875 -1.421875 33.015625 -1.421875 
Q 20.359375 -1.421875 13.671875 8.265625 
Q 6.984375 17.96875 6.984375 36.375 
Q 6.984375 53.65625 15.1875 63.9375 
Q 23.390625 74.21875 37.203125 74.21875 
Q 40.921875 74.21875 44.703125 73.484375 
Q 48.484375 72.75 52.59375 71.296875 
z
" id="DejaVuSans-54"/>
       </defs>
       <use xlink:href="#DejaVuSans-54"/>
      </g>
     </g>
    </g>
   </g>
   <g id="matplotlib.axis_2">
    <g id="ytick_1">
     <g id="line2d_5">
      <defs>
       <path d="M 0 0 
L -3.5 0 
" id="m85d5ee7d93" style="stroke:#000000;stroke-width:0.8;"/>
      </defs>
      <g>
       <use style="stroke:#000000;stroke-width:0.8;" x="144" xlink:href="#m85d5ee7d93" y="252"/>
      </g>
     </g>
     <g id="text_5">
      <!-- 0.00 -->
      <g transform="translate(105.828125 257.318906)scale(0.14 -0.14)">
       <defs>
        <path d="M 10.6875 12.40625 
L 21 12.40625 
L 21 0 
L 10.6875 0 
z
" id="DejaVuSans-46"/>
       </defs>
       <use xlink:href="#DejaVuSans-48"/>
       <use x="63.623047" xlink:href="#DejaVuSans-46"/>
       <use x="95.410156" xlink:href="#DejaVuSans-48"/>
       <use x="159.033203" xlink:href="#DejaVuSans-48"/>
      </g>
     </g>
    </g>
    <g id="ytick_2">
     <g id="line2d_6">
      <g>
       <use style="stroke:#000000;stroke-width:0.8;" x="144" xlink:href="#m85d5ee7d93" y="217.359107"/>
      </g>
     </g>
     <g id="text_6">
      <!-- 0.05 -->
      <g transform="translate(105.828125 222.678014)scale(0.14 -0.14)">
       <defs>
        <path d="M 10.796875 72.90625 
L 49.515625 72.90625 
L 49.515625 64.59375 
L 19.828125 64.59375 
L 19.828125 46.734375 
Q 21.96875 47.46875 24.109375 47.828125 
Q 26.265625 48.1875 28.421875 48.1875 
Q 40.625 48.1875 47.75 41.5 
Q 54.890625 34.8125 54.890625 23.390625 
Q 54.890625 11.625 47.5625 5.09375 
Q 40.234375 -1.421875 26.90625 -1.421875 
Q 22.3125 -1.421875 17.546875 -0.640625 
Q 12.796875 0.140625 7.71875 1.703125 
L 7.71875 11.625 
Q 12.109375 9.234375 16.796875 8.0625 
Q 21.484375 6.890625 26.703125 6.890625 
Q 35.15625 6.890625 40.078125 11.328125 
Q 45.015625 15.765625 45.015625 23.390625 
Q 45.015625 31 40.078125 35.4375 
Q 35.15625 39.890625 26.703125 39.890625 
Q 22.75 39.890625 18.8125 39.015625 
Q 14.890625 38.140625 10.796875 36.28125 
z
" id="DejaVuSans-53"/>
       </defs>
       <use xlink:href="#DejaVuSans-48"/>
       <use x="63.623047" xlink:href="#DejaVuSans-46"/>
       <use x="95.410156" xlink:href="#DejaVuSans-48"/>
       <use x="159.033203" xlink:href="#DejaVuSans-53"/>
      </g>
     </g>
    </g>
    <g id="ytick_3">
     <g id="line2d_7">
      <g>
       <use style="stroke:#000000;stroke-width:0.8;" x="144" xlink:href="#m85d5ee7d93" y="182.718215"/>
      </g>
     </g>
     <g id="text_7">
      <!-- 0.10 -->
      <g transform="translate(105.828125 188.037121)scale(0.14 -0.14)">
       <defs>
        <path d="M 12.40625 8.296875 
L 28.515625 8.296875 
L 28.515625 63.921875 
L 10.984375 60.40625 
L 10.984375 69.390625 
L 28.421875 72.90625 
L 38.28125 72.90625 
L 38.28125 8.296875 
L 54.390625 8.296875 
L 54.390625 0 
L 12.40625 0 
z
" id="DejaVuSans-49"/>
       </defs>
       <use xlink:href="#DejaVuSans-48"/>
       <use x="63.623047" xlink:href="#DejaVuSans-46"/>
       <use x="95.410156" xlink:href="#DejaVuSans-49"/>
       <use x="159.033203" xlink:href="#DejaVuSans-48"/>
      </g>
     </g>
    </g>
    <g id="ytick_4">
     <g id="line2d_8">
      <g>
       <use style="stroke:#000000;stroke-width:0.8;" x="144" xlink:href="#m85d5ee7d93" y="148.077322"/>
      </g>
     </g>
     <g id="text_8">
      <!-- 0.15 -->
      <g transform="translate(105.828125 153.396228)scale(0.14 -0.14)">
       <use xlink:href="#DejaVuSans-48"/>
       <use x="63.623047" xlink:href="#DejaVuSans-46"/>
       <use x="95.410156" xlink:href="#DejaVuSans-49"/>
       <use x="159.033203" xlink:href="#DejaVuSans-53"/>
      </g>
     </g>
    </g>
    <g id="ytick_5">
     <g id="line2d_9">
      <g>
       <use style="stroke:#000000;stroke-width:0.8;" x="144" xlink:href="#m85d5ee7d93" y="113.436429"/>
      </g>
     </g>
     <g id="text_9">
      <!-- 0.20 -->
      <g transform="translate(105.828125 118.755335)scale(0.14 -0.14)">
       <use xlink:href="#DejaVuSans-48"/>
       <use x="63.623047" xlink:href="#DejaVuSans-46"/>
       <use x="95.410156" xlink:href="#DejaVuSans-50"/>
       <use x="159.033203" xlink:href="#DejaVuSans-48"/>
      </g>
     </g>
    </g>
    <g id="ytick_6">
     <g id="line2d_10">
      <g>
       <use style="stroke:#000000;stroke-width:0.8;" x="144" xlink:href="#m85d5ee7d93" y="78.795537"/>
      </g>
     </g>
     <g id="text_10">
      <!-- 0.25 -->
      <g transform="translate(105.828125 84.114443)scale(0.14 -0.14)">
       <use xlink:href="#DejaVuSans-48"/>
       <use x="63.623047" xlink:href="#DejaVuSans-46"/>
       <use x="95.410156" xlink:href="#DejaVuSans-50"/>
       <use x="159.033203" xlink:href="#DejaVuSans-53"/>
      </g>
     </g>
    </g>
    <g id="ytick_7">
     <g id="line2d_11">
      <g>
       <use style="stroke:#000000;stroke-width:0.8;" x="144" xlink:href="#m85d5ee7d93" y="44.154644"/>
      </g>
     </g>
     <g id="text_11">
      <!-- 0.30 -->
      <g transform="translate(105.828125 49.47355)scale(0.14 -0.14)">
       <defs>
        <path d="M 40.578125 39.3125 
Q 47.65625 37.796875 51.625 33 
Q 55.609375 28.21875 55.609375 21.1875 
Q 55.609375 10.40625 48.1875 4.484375 
Q 40.765625 -1.421875 27.09375 -1.421875 
Q 22.515625 -1.421875 17.65625 -0.515625 
Q 12.796875 0.390625 7.625 2.203125 
L 7.625 11.71875 
Q 11.71875 9.328125 16.59375 8.109375 
Q 21.484375 6.890625 26.8125 6.890625 
Q 36.078125 6.890625 40.9375 10.546875 
Q 45.796875 14.203125 45.796875 21.1875 
Q 45.796875 27.640625 41.28125 31.265625 
Q 36.765625 34.90625 28.71875 34.90625 
L 20.21875 34.90625 
L 20.21875 43.015625 
L 29.109375 43.015625 
Q 36.375 43.015625 40.234375 45.921875 
Q 44.09375 48.828125 44.09375 54.296875 
Q 44.09375 59.90625 40.109375 62.90625 
Q 36.140625 65.921875 28.71875 65.921875 
Q 24.65625 65.921875 20.015625 65.03125 
Q 15.375 64.15625 9.8125 62.3125 
L 9.8125 71.09375 
Q 15.4375 72.65625 20.34375 73.4375 
Q 25.25 74.21875 29.59375 74.21875 
Q 40.828125 74.21875 47.359375 69.109375 
Q 53.90625 64.015625 53.90625 55.328125 
Q 53.90625 49.265625 50.4375 45.09375 
Q 46.96875 40.921875 40.578125 39.3125 
z
" id="DejaVuSans-51"/>
       </defs>
       <use xlink:href="#DejaVuSans-48"/>
       <use x="63.623047" xlink:href="#DejaVuSans-46"/>
       <use x="95.410156" xlink:href="#DejaVuSans-51"/>
       <use x="159.033203" xlink:href="#DejaVuSans-48"/>
      </g>
     </g>
    </g>
   </g>
   <g id="line2d_12">
    <path clip-path="url(#pb708be3d94)" d="M 155.935829 99.252909 
L 158.345885 99.362734 
L 160.755941 99.691297 
L 163.165997 100.235869 
L 165.576053 100.991951 
L 167.98611 101.953347 
L 170.396166 103.112256 
L 172.806222 104.459399 
L 175.216278 105.984154 
L 177.626334 107.674715 
L 180.03639 109.518266 
L 182.446446 111.501155 
L 184.856503 113.609081 
L 187.266559 115.827279 
L 189.676615 118.140698 
L 192.086671 120.534183 
L 194.496727 122.992637 
L 196.906783 125.501172 
L 199.316839 128.045256 
L 201.726896 130.610828 
L 204.136952 133.18441 
L 206.547008 135.753196 
L 208.957064 138.305117 
L 211.36712 140.828903 
L 213.777176 143.314111 
L 216.187233 145.751154 
L 218.597289 148.1313 
L 221.007345 150.446673 
L 223.417401 152.690227 
L 225.827457 154.855722 
L 228.237513 156.937687 
L 230.647569 158.931377 
L 233.057626 160.832721 
L 235.467682 162.638274 
L 237.877738 164.34516 
L 240.287794 165.951017 
L 242.69785 167.45394 
L 245.107906 168.852426 
L 247.517962 170.145324 
L 249.928019 171.331775 
L 252.338075 172.411174 
L 254.748131 173.383116 
L 257.158187 174.247358 
L 259.568243 175.003784 
L 261.978299 175.652363 
L 264.388355 176.193127 
L 266.798412 176.626143 
L 269.208468 176.951487 
L 271.618524 177.169235 
L 274.02858 177.279443 
L 276.438636 177.282142 
L 278.848692 177.177333 
L 281.258748 176.964987 
L 283.668805 176.645047 
L 286.078861 176.21744 
L 288.488917 175.682087 
L 290.898973 175.038923 
L 293.309029 174.287913 
L 295.719085 173.429083 
L 298.129141 172.462544 
L 300.539198 171.388534 
L 302.949254 170.207445 
L 305.35931 168.919875 
L 307.769366 167.526665 
L 310.179422 166.028953 
L 312.589478 164.428223 
L 314.999534 162.726358 
L 317.409591 160.925696 
L 319.819647 159.029085 
L 322.229703 157.039941 
L 324.639759 154.962301 
L 327.049815 152.800876 
L 329.459871 150.561099 
L 331.869928 148.249172 
L 334.279984 145.872097 
L 336.69004 143.43771 
L 339.100096 140.954699 
L 341.510152 138.432609 
L 343.920208 135.881838 
L 346.330264 133.313618 
L 348.740321 130.739977 
L 351.150377 128.173687 
L 353.560433 125.628193 
L 355.970489 123.11753 
L 358.380545 120.656209 
L 360.790601 118.259102 
L 363.200657 115.941301 
L 365.610714 113.717962 
L 368.02077 111.604143 
L 370.430826 109.61463 
L 372.840882 107.76375 
L 375.250938 106.065193 
L 377.660994 104.531822 
L 380.07105 103.175497 
L 382.481107 102.006902 
L 384.891163 101.03539 
L 387.301219 100.268836 
L 389.711275 99.713522 
L 392.121331 99.374032 
L 394.531387 99.253186 
" style="fill:none;stroke:#ff0000;stroke-linecap:square;stroke-width:1.5;"/>
   </g>
   <g id="patch_22">
    <path d="M 144 252 
L 144 34.56 
" style="fill:none;stroke:#000000;stroke-linecap:square;stroke-linejoin:miter;stroke-width:0.8;"/>
   </g>
   <g id="patch_23">
    <path d="M 406.588235 252 
L 406.588235 34.56 
" style="fill:none;stroke:#000000;stroke-linecap:square;stroke-linejoin:miter;stroke-width:0.8;"/>
   </g>
   <g id="patch_24">
    <path d="M 144 252 
L 406.588235 252 
" style="fill:none;stroke:#000000;stroke-linecap:square;stroke-linejoin:miter;stroke-width:0.8;"/>
   </g>
   <g id="patch_25">
    <path d="M 144 34.56 
L 406.588235 34.56 
" style="fill:none;stroke:#000000;stroke-linecap:square;stroke-linejoin:miter;stroke-width:0.8;"/>
   </g>
  </g>
  <g id="axes_2">
   <g id="patch_26">
    <path d="M 459.105882 252 
L 721.694118 252 
L 721.694118 34.56 
L 459.105882 34.56 
z
" style="fill:#ffffff;"/>
   </g>
   <g id="patch_27">
    <path clip-path="url(#pfd8dc528db)" d="M 471.041711 252 
L 483.605742 252 
L 483.605742 107.450851 
L 471.041711 107.450851 
z
" style="fill:#1f77b4;"/>
   </g>
   <g id="patch_28">
    <path clip-path="url(#pfd8dc528db)" d="M 483.605742 252 
L 496.169772 252 
L 496.169772 151.88633 
L 483.605742 151.88633 
z
" style="fill:#1f77b4;"/>
   </g>
   <g id="patch_29">
    <path clip-path="url(#pfd8dc528db)" d="M 496.169772 252 
L 508.733802 252 
L 508.733802 204.887685 
L 496.169772 204.887685 
z
" style="fill:#1f77b4;"/>
   </g>
   <g id="patch_30">
    <path clip-path="url(#pfd8dc528db)" d="M 508.733802 252 
L 521.297833 252 
L 521.297833 226.302373 
L 508.733802 226.302373 
z
" style="fill:#1f77b4;"/>
   </g>
   <g id="patch_31">
    <path clip-path="url(#pfd8dc528db)" d="M 521.297833 252 
L 533.861863 252 
L 533.861863 237.009718 
L 521.297833 237.009718 
z
" style="fill:#1f77b4;"/>
   </g>
   <g id="patch_32">
    <path clip-path="url(#pfd8dc528db)" d="M 533.861863 252 
L 546.425894 252 
L 546.425894 243.969492 
L 533.861863 243.969492 
z
" style="fill:#1f77b4;"/>
   </g>
   <g id="patch_33">
    <path clip-path="url(#pfd8dc528db)" d="M 546.425894 252 
L 558.989924 252 
L 558.989924 247.181695 
L 546.425894 247.181695 
z
" style="fill:#1f77b4;"/>
   </g>
   <g id="patch_34">
    <path clip-path="url(#pfd8dc528db)" d="M 558.989924 252 
L 571.553954 252 
L 571.553954 247.717062 
L 558.989924 247.717062 
z
" style="fill:#1f77b4;"/>
   </g>
   <g id="patch_35">
    <path clip-path="url(#pfd8dc528db)" d="M 571.553954 252 
L 584.117985 252 
L 584.117985 249.858531 
L 571.553954 249.858531 
z
" style="fill:#1f77b4;"/>
   </g>
   <g id="patch_36">
    <path clip-path="url(#pfd8dc528db)" d="M 584.117985 252 
L 596.682015 252 
L 596.682015 247.717062 
L 584.117985 247.717062 
z
" style="fill:#1f77b4;"/>
   </g>
   <g id="patch_37">
    <path clip-path="url(#pfd8dc528db)" d="M 596.682015 252 
L 609.246046 252 
L 609.246046 248.252429 
L 596.682015 248.252429 
z
" style="fill:#1f77b4;"/>
   </g>
   <g id="patch_38">
    <path clip-path="url(#pfd8dc528db)" d="M 609.246046 252 
L 621.810076 252 
L 621.810076 250.929266 
L 609.246046 250.929266 
z
" style="fill:#1f77b4;"/>
   </g>
   <g id="patch_39">
    <path clip-path="url(#pfd8dc528db)" d="M 621.810076 252 
L 634.374106 252 
L 634.374106 246.110961 
L 621.810076 246.110961 
z
" style="fill:#1f77b4;"/>
   </g>
   <g id="patch_40">
    <path clip-path="url(#pfd8dc528db)" d="M 634.374106 252 
L 646.938137 252 
L 646.938137 242.898757 
L 634.374106 242.898757 
z
" style="fill:#1f77b4;"/>
   </g>
   <g id="patch_41">
    <path clip-path="url(#pfd8dc528db)" d="M 646.938137 252 
L 659.502167 252 
L 659.502167 233.262147 
L 646.938137 233.262147 
z
" style="fill:#1f77b4;"/>
   </g>
   <g id="patch_42">
    <path clip-path="url(#pfd8dc528db)" d="M 659.502167 252 
L 672.066198 252 
L 672.066198 215.595029 
L 659.502167 215.595029 
z
" style="fill:#1f77b4;"/>
   </g>
   <g id="patch_43">
    <path clip-path="url(#pfd8dc528db)" d="M 672.066198 252 
L 684.630228 252 
L 684.630228 194.18034 
L 672.066198 194.18034 
z
" style="fill:#1f77b4;"/>
   </g>
   <g id="patch_44">
    <path clip-path="url(#pfd8dc528db)" d="M 684.630228 252 
L 697.194258 252 
L 697.194258 151.350963 
L 684.630228 151.350963 
z
" style="fill:#1f77b4;"/>
   </g>
   <g id="patch_45">
    <path clip-path="url(#pfd8dc528db)" d="M 697.194258 252 
L 709.758289 252 
L 709.758289 99.420342 
L 697.194258 99.420342 
z
" style="fill:#1f77b4;"/>
   </g>
   <g id="matplotlib.axis_3">
    <g id="xtick_5">
     <g id="line2d_13">
      <g>
       <use style="stroke:#000000;stroke-width:0.8;" x="471.041711" xlink:href="#ma54cf1ad18" y="252"/>
      </g>
     </g>
     <g id="text_12">
      <!-- 0 -->
      <g transform="translate(466.587961 269.637812)scale(0.14 -0.14)">
       <use xlink:href="#DejaVuSans-48"/>
      </g>
     </g>
    </g>
    <g id="xtick_6">
     <g id="line2d_14">
      <g>
       <use style="stroke:#000000;stroke-width:0.8;" x="547.027558" xlink:href="#ma54cf1ad18" y="252"/>
      </g>
     </g>
     <g id="text_13">
      <!-- 2 -->
      <g transform="translate(542.573808 269.637812)scale(0.14 -0.14)">
       <use xlink:href="#DejaVuSans-50"/>
      </g>
     </g>
    </g>
    <g id="xtick_7">
     <g id="line2d_15">
      <g>
       <use style="stroke:#000000;stroke-width:0.8;" x="623.013404" xlink:href="#ma54cf1ad18" y="252"/>
      </g>
     </g>
     <g id="text_14">
      <!-- 4 -->
      <g transform="translate(618.559654 269.637812)scale(0.14 -0.14)">
       <use xlink:href="#DejaVuSans-52"/>
      </g>
     </g>
    </g>
    <g id="xtick_8">
     <g id="line2d_16">
      <g>
       <use style="stroke:#000000;stroke-width:0.8;" x="698.999251" xlink:href="#ma54cf1ad18" y="252"/>
      </g>
     </g>
     <g id="text_15">
      <!-- 6 -->
      <g transform="translate(694.545501 269.637812)scale(0.14 -0.14)">
       <use xlink:href="#DejaVuSans-54"/>
      </g>
     </g>
    </g>
   </g>
   <g id="matplotlib.axis_4">
    <g id="ytick_8">
     <g id="line2d_17">
      <g>
       <use style="stroke:#000000;stroke-width:0.8;" x="459.105882" xlink:href="#m85d5ee7d93" y="252"/>
      </g>
     </g>
     <g id="text_16">
      <!-- 0.0 -->
      <g transform="translate(429.841507 257.318906)scale(0.14 -0.14)">
       <use xlink:href="#DejaVuSans-48"/>
       <use x="63.623047" xlink:href="#DejaVuSans-46"/>
       <use x="95.410156" xlink:href="#DejaVuSans-48"/>
      </g>
     </g>
    </g>
    <g id="ytick_9">
     <g id="line2d_18">
      <g>
       <use style="stroke:#000000;stroke-width:0.8;" x="459.105882" xlink:href="#m85d5ee7d93" y="202.923761"/>
      </g>
     </g>
     <g id="text_17">
      <!-- 0.2 -->
      <g transform="translate(429.841507 208.242668)scale(0.14 -0.14)">
       <use xlink:href="#DejaVuSans-48"/>
       <use x="63.623047" xlink:href="#DejaVuSans-46"/>
       <use x="95.410156" xlink:href="#DejaVuSans-50"/>
      </g>
     </g>
    </g>
    <g id="ytick_10">
     <g id="line2d_19">
      <g>
       <use style="stroke:#000000;stroke-width:0.8;" x="459.105882" xlink:href="#m85d5ee7d93" y="153.847523"/>
      </g>
     </g>
     <g id="text_18">
      <!-- 0.4 -->
      <g transform="translate(429.841507 159.166429)scale(0.14 -0.14)">
       <use xlink:href="#DejaVuSans-48"/>
       <use x="63.623047" xlink:href="#DejaVuSans-46"/>
       <use x="95.410156" xlink:href="#DejaVuSans-52"/>
      </g>
     </g>
    </g>
    <g id="ytick_11">
     <g id="line2d_20">
      <g>
       <use style="stroke:#000000;stroke-width:0.8;" x="459.105882" xlink:href="#m85d5ee7d93" y="104.771284"/>
      </g>
     </g>
     <g id="text_19">
      <!-- 0.6 -->
      <g transform="translate(429.841507 110.09019)scale(0.14 -0.14)">
       <use xlink:href="#DejaVuSans-48"/>
       <use x="63.623047" xlink:href="#DejaVuSans-46"/>
       <use x="95.410156" xlink:href="#DejaVuSans-54"/>
      </g>
     </g>
    </g>
    <g id="ytick_12">
     <g id="line2d_21">
      <g>
       <use style="stroke:#000000;stroke-width:0.8;" x="459.105882" xlink:href="#m85d5ee7d93" y="55.695045"/>
      </g>
     </g>
     <g id="text_20">
      <!-- 0.8 -->
      <g transform="translate(429.841507 61.013952)scale(0.14 -0.14)">
       <defs>
        <path d="M 31.78125 34.625 
Q 24.75 34.625 20.71875 30.859375 
Q 16.703125 27.09375 16.703125 20.515625 
Q 16.703125 13.921875 20.71875 10.15625 
Q 24.75 6.390625 31.78125 6.390625 
Q 38.8125 6.390625 42.859375 10.171875 
Q 46.921875 13.96875 46.921875 20.515625 
Q 46.921875 27.09375 42.890625 30.859375 
Q 38.875 34.625 31.78125 34.625 
z
M 21.921875 38.8125 
Q 15.578125 40.375 12.03125 44.71875 
Q 8.5 49.078125 8.5 55.328125 
Q 8.5 64.0625 14.71875 69.140625 
Q 20.953125 74.21875 31.78125 74.21875 
Q 42.671875 74.21875 48.875 69.140625 
Q 55.078125 64.0625 55.078125 55.328125 
Q 55.078125 49.078125 51.53125 44.71875 
Q 48 40.375 41.703125 38.8125 
Q 48.828125 37.15625 52.796875 32.3125 
Q 56.78125 27.484375 56.78125 20.515625 
Q 56.78125 9.90625 50.3125 4.234375 
Q 43.84375 -1.421875 31.78125 -1.421875 
Q 19.734375 -1.421875 13.25 4.234375 
Q 6.78125 9.90625 6.78125 20.515625 
Q 6.78125 27.484375 10.78125 32.3125 
Q 14.796875 37.15625 21.921875 38.8125 
z
M 18.3125 54.390625 
Q 18.3125 48.734375 21.84375 45.5625 
Q 25.390625 42.390625 31.78125 42.390625 
Q 38.140625 42.390625 41.71875 45.5625 
Q 45.3125 48.734375 45.3125 54.390625 
Q 45.3125 60.0625 41.71875 63.234375 
Q 38.140625 66.40625 31.78125 66.40625 
Q 25.390625 66.40625 21.84375 63.234375 
Q 18.3125 60.0625 18.3125 54.390625 
z
" id="DejaVuSans-56"/>
       </defs>
       <use xlink:href="#DejaVuSans-48"/>
       <use x="63.623047" xlink:href="#DejaVuSans-46"/>
       <use x="95.410156" xlink:href="#DejaVuSans-56"/>
      </g>
     </g>
    </g>
   </g>
   <g id="line2d_22">
    <path clip-path="url(#pfd8dc528db)" d="M 471.041711 44.914286 
L 473.451767 46.884324 
L 475.861824 52.67504 
L 478.27188 61.940899 
L 480.681936 74.146275 
L 483.091992 88.619386 
L 485.502048 104.616241 
L 487.912104 121.385832 
L 490.32216 138.228488 
L 492.732217 154.541318 
L 495.142273 169.847334 
L 497.552329 183.807692 
L 499.962385 196.218898 
L 502.372441 206.998425 
L 504.782497 216.162937 
L 507.192553 223.803253 
L 509.60261 230.059508 
L 512.012666 235.098986 
L 514.422722 239.098088 
L 516.832778 242.228932 
L 519.242834 244.650426 
L 521.65289 246.503174 
L 524.062946 247.907404 
L 526.473003 248.963045 
L 528.883059 249.751197 
L 531.293115 250.336346 
L 533.703171 250.768882 
L 536.113227 251.087595 
L 538.523283 251.321969 
L 540.933339 251.49417 
L 543.343396 251.620715 
L 545.753452 251.713824 
L 548.163508 251.782479 
L 550.573564 251.833256 
L 552.98362 251.870955 
L 555.393676 251.899069 
L 557.803732 251.920141 
L 560.213789 251.936018 
L 562.623845 251.948047 
L 565.033901 251.95721 
L 567.443957 251.964224 
L 569.854013 251.969614 
L 572.264069 251.973765 
L 574.674125 251.976962 
L 577.084182 251.979411 
L 579.494238 251.981267 
L 581.904294 251.98264 
L 584.31435 251.98361 
L 586.724406 251.984231 
L 589.134462 251.984537 
L 591.544519 251.984544 
L 593.954575 251.984254 
L 596.364631 251.983649 
L 598.774687 251.982698 
L 601.184743 251.981347 
L 603.594799 251.979518 
L 606.004855 251.977101 
L 608.414912 251.973947 
L 610.824968 251.969849 
L 613.235024 251.96453 
L 615.64508 251.957609 
L 618.055136 251.948569 
L 620.465192 251.936704 
L 622.875248 251.921049 
L 625.285305 251.900278 
L 627.695361 251.872571 
L 630.105417 251.835428 
L 632.515473 251.785408 
L 634.925529 251.717791 
L 637.335585 251.626102 
L 639.745641 251.501495 
L 642.155698 251.33194 
L 644.565754 251.101164 
L 646.97581 250.78732 
L 649.385866 250.361337 
L 651.795922 249.784947 
L 654.205978 249.008398 
L 656.616034 247.967974 
L 659.026091 246.583467 
L 661.436147 244.755935 
L 663.846203 242.366187 
L 666.256259 239.274614 
L 668.666315 235.323135 
L 671.076371 230.340116 
L 673.486427 224.149091 
L 675.896484 216.581927 
L 678.30654 207.496627 
L 680.716596 196.799318 
L 683.126652 184.469002 
L 685.536708 170.582665 
L 687.946764 155.337305 
L 690.35682 139.064787 
L 692.766877 122.23532 
L 695.176933 105.446024 
L 697.586989 89.392666 
L 699.997045 74.824982 
L 702.407101 62.488841 
L 704.817157 53.061224 
L 707.227213 47.085998 
L 709.63727 44.919278 
" style="fill:none;stroke:#ff0000;stroke-linecap:square;stroke-width:1.5;"/>
   </g>
   <g id="patch_46">
    <path d="M 459.105882 252 
L 459.105882 34.56 
" style="fill:none;stroke:#000000;stroke-linecap:square;stroke-linejoin:miter;stroke-width:0.8;"/>
   </g>
   <g id="patch_47">
    <path d="M 721.694118 252 
L 721.694118 34.56 
" style="fill:none;stroke:#000000;stroke-linecap:square;stroke-linejoin:miter;stroke-width:0.8;"/>
   </g>
   <g id="patch_48">
    <path d="M 459.105882 252 
L 721.694118 252 
" style="fill:none;stroke:#000000;stroke-linecap:square;stroke-linejoin:miter;stroke-width:0.8;"/>
   </g>
   <g id="patch_49">
    <path d="M 459.105882 34.56 
L 721.694118 34.56 
" style="fill:none;stroke:#000000;stroke-linecap:square;stroke-linejoin:miter;stroke-width:0.8;"/>
   </g>
   <g id="text_21">
    <!-- Conditional histograms (acentric, real data) -->
    <g transform="translate(407.181563 28.56)scale(0.168 -0.168)">
     <defs>
      <path d="M 64.40625 67.28125 
L 64.40625 56.890625 
Q 59.421875 61.53125 53.78125 63.8125 
Q 48.140625 66.109375 41.796875 66.109375 
Q 29.296875 66.109375 22.65625 58.46875 
Q 16.015625 50.828125 16.015625 36.375 
Q 16.015625 21.96875 22.65625 14.328125 
Q 29.296875 6.6875 41.796875 6.6875 
Q 48.140625 6.6875 53.78125 8.984375 
Q 59.421875 11.28125 64.40625 15.921875 
L 64.40625 5.609375 
Q 59.234375 2.09375 53.4375 0.328125 
Q 47.65625 -1.421875 41.21875 -1.421875 
Q 24.65625 -1.421875 15.125 8.703125 
Q 5.609375 18.84375 5.609375 36.375 
Q 5.609375 53.953125 15.125 64.078125 
Q 24.65625 74.21875 41.21875 74.21875 
Q 47.75 74.21875 53.53125 72.484375 
Q 59.328125 70.75 64.40625 67.28125 
z
" id="DejaVuSans-67"/>
      <path d="M 30.609375 48.390625 
Q 23.390625 48.390625 19.1875 42.75 
Q 14.984375 37.109375 14.984375 27.296875 
Q 14.984375 17.484375 19.15625 11.84375 
Q 23.34375 6.203125 30.609375 6.203125 
Q 37.796875 6.203125 41.984375 11.859375 
Q 46.1875 17.53125 46.1875 27.296875 
Q 46.1875 37.015625 41.984375 42.703125 
Q 37.796875 48.390625 30.609375 48.390625 
z
M 30.609375 56 
Q 42.328125 56 49.015625 48.375 
Q 55.71875 40.765625 55.71875 27.296875 
Q 55.71875 13.875 49.015625 6.21875 
Q 42.328125 -1.421875 30.609375 -1.421875 
Q 18.84375 -1.421875 12.171875 6.21875 
Q 5.515625 13.875 5.515625 27.296875 
Q 5.515625 40.765625 12.171875 48.375 
Q 18.84375 56 30.609375 56 
z
" id="DejaVuSans-111"/>
      <path d="M 54.890625 33.015625 
L 54.890625 0 
L 45.90625 0 
L 45.90625 32.71875 
Q 45.90625 40.484375 42.875 44.328125 
Q 39.84375 48.1875 33.796875 48.1875 
Q 26.515625 48.1875 22.3125 43.546875 
Q 18.109375 38.921875 18.109375 30.90625 
L 18.109375 0 
L 9.078125 0 
L 9.078125 54.6875 
L 18.109375 54.6875 
L 18.109375 46.1875 
Q 21.34375 51.125 25.703125 53.5625 
Q 30.078125 56 35.796875 56 
Q 45.21875 56 50.046875 50.171875 
Q 54.890625 44.34375 54.890625 33.015625 
z
" id="DejaVuSans-110"/>
      <path d="M 45.40625 46.390625 
L 45.40625 75.984375 
L 54.390625 75.984375 
L 54.390625 0 
L 45.40625 0 
L 45.40625 8.203125 
Q 42.578125 3.328125 38.25 0.953125 
Q 33.9375 -1.421875 27.875 -1.421875 
Q 17.96875 -1.421875 11.734375 6.484375 
Q 5.515625 14.40625 5.515625 27.296875 
Q 5.515625 40.1875 11.734375 48.09375 
Q 17.96875 56 27.875 56 
Q 33.9375 56 38.25 53.625 
Q 42.578125 51.265625 45.40625 46.390625 
z
M 14.796875 27.296875 
Q 14.796875 17.390625 18.875 11.75 
Q 22.953125 6.109375 30.078125 6.109375 
Q 37.203125 6.109375 41.296875 11.75 
Q 45.40625 17.390625 45.40625 27.296875 
Q 45.40625 37.203125 41.296875 42.84375 
Q 37.203125 48.484375 30.078125 48.484375 
Q 22.953125 48.484375 18.875 42.84375 
Q 14.796875 37.203125 14.796875 27.296875 
z
" id="DejaVuSans-100"/>
      <path d="M 9.421875 54.6875 
L 18.40625 54.6875 
L 18.40625 0 
L 9.421875 0 
z
M 9.421875 75.984375 
L 18.40625 75.984375 
L 18.40625 64.59375 
L 9.421875 64.59375 
z
" id="DejaVuSans-105"/>
      <path d="M 18.3125 70.21875 
L 18.3125 54.6875 
L 36.8125 54.6875 
L 36.8125 47.703125 
L 18.3125 47.703125 
L 18.3125 18.015625 
Q 18.3125 11.328125 20.140625 9.421875 
Q 21.96875 7.515625 27.59375 7.515625 
L 36.8125 7.515625 
L 36.8125 0 
L 27.59375 0 
Q 17.1875 0 13.234375 3.875 
Q 9.28125 7.765625 9.28125 18.015625 
L 9.28125 47.703125 
L 2.6875 47.703125 
L 2.6875 54.6875 
L 9.28125 54.6875 
L 9.28125 70.21875 
z
" id="DejaVuSans-116"/>
      <path d="M 34.28125 27.484375 
Q 23.390625 27.484375 19.1875 25 
Q 14.984375 22.515625 14.984375 16.5 
Q 14.984375 11.71875 18.140625 8.90625 
Q 21.296875 6.109375 26.703125 6.109375 
Q 34.1875 6.109375 38.703125 11.40625 
Q 43.21875 16.703125 43.21875 25.484375 
L 43.21875 27.484375 
z
M 52.203125 31.203125 
L 52.203125 0 
L 43.21875 0 
L 43.21875 8.296875 
Q 40.140625 3.328125 35.546875 0.953125 
Q 30.953125 -1.421875 24.3125 -1.421875 
Q 15.921875 -1.421875 10.953125 3.296875 
Q 6 8.015625 6 15.921875 
Q 6 25.140625 12.171875 29.828125 
Q 18.359375 34.515625 30.609375 34.515625 
L 43.21875 34.515625 
L 43.21875 35.40625 
Q 43.21875 41.609375 39.140625 45 
Q 35.0625 48.390625 27.6875 48.390625 
Q 23 48.390625 18.546875 47.265625 
Q 14.109375 46.140625 10.015625 43.890625 
L 10.015625 52.203125 
Q 14.9375 54.109375 19.578125 55.046875 
Q 24.21875 56 28.609375 56 
Q 40.484375 56 46.34375 49.84375 
Q 52.203125 43.703125 52.203125 31.203125 
z
" id="DejaVuSans-97"/>
      <path d="M 9.421875 75.984375 
L 18.40625 75.984375 
L 18.40625 0 
L 9.421875 0 
z
" id="DejaVuSans-108"/>
      <path id="DejaVuSans-32"/>
      <path d="M 54.890625 33.015625 
L 54.890625 0 
L 45.90625 0 
L 45.90625 32.71875 
Q 45.90625 40.484375 42.875 44.328125 
Q 39.84375 48.1875 33.796875 48.1875 
Q 26.515625 48.1875 22.3125 43.546875 
Q 18.109375 38.921875 18.109375 30.90625 
L 18.109375 0 
L 9.078125 0 
L 9.078125 75.984375 
L 18.109375 75.984375 
L 18.109375 46.1875 
Q 21.34375 51.125 25.703125 53.5625 
Q 30.078125 56 35.796875 56 
Q 45.21875 56 50.046875 50.171875 
Q 54.890625 44.34375 54.890625 33.015625 
z
" id="DejaVuSans-104"/>
      <path d="M 44.28125 53.078125 
L 44.28125 44.578125 
Q 40.484375 46.53125 36.375 47.5 
Q 32.28125 48.484375 27.875 48.484375 
Q 21.1875 48.484375 17.84375 46.4375 
Q 14.5 44.390625 14.5 40.28125 
Q 14.5 37.15625 16.890625 35.375 
Q 19.28125 33.59375 26.515625 31.984375 
L 29.59375 31.296875 
Q 39.15625 29.25 43.1875 25.515625 
Q 47.21875 21.78125 47.21875 15.09375 
Q 47.21875 7.46875 41.1875 3.015625 
Q 35.15625 -1.421875 24.609375 -1.421875 
Q 20.21875 -1.421875 15.453125 -0.5625 
Q 10.6875 0.296875 5.421875 2 
L 5.421875 11.28125 
Q 10.40625 8.6875 15.234375 7.390625 
Q 20.0625 6.109375 24.8125 6.109375 
Q 31.15625 6.109375 34.5625 8.28125 
Q 37.984375 10.453125 37.984375 14.40625 
Q 37.984375 18.0625 35.515625 20.015625 
Q 33.0625 21.96875 24.703125 23.78125 
L 21.578125 24.515625 
Q 13.234375 26.265625 9.515625 29.90625 
Q 5.8125 33.546875 5.8125 39.890625 
Q 5.8125 47.609375 11.28125 51.796875 
Q 16.75 56 26.8125 56 
Q 31.78125 56 36.171875 55.265625 
Q 40.578125 54.546875 44.28125 53.078125 
z
" id="DejaVuSans-115"/>
      <path d="M 45.40625 27.984375 
Q 45.40625 37.75 41.375 43.109375 
Q 37.359375 48.484375 30.078125 48.484375 
Q 22.859375 48.484375 18.828125 43.109375 
Q 14.796875 37.75 14.796875 27.984375 
Q 14.796875 18.265625 18.828125 12.890625 
Q 22.859375 7.515625 30.078125 7.515625 
Q 37.359375 7.515625 41.375 12.890625 
Q 45.40625 18.265625 45.40625 27.984375 
z
M 54.390625 6.78125 
Q 54.390625 -7.171875 48.1875 -13.984375 
Q 42 -20.796875 29.203125 -20.796875 
Q 24.46875 -20.796875 20.265625 -20.09375 
Q 16.0625 -19.390625 12.109375 -17.921875 
L 12.109375 -9.1875 
Q 16.0625 -11.328125 19.921875 -12.34375 
Q 23.78125 -13.375 27.78125 -13.375 
Q 36.625 -13.375 41.015625 -8.765625 
Q 45.40625 -4.15625 45.40625 5.171875 
L 45.40625 9.625 
Q 42.625 4.78125 38.28125 2.390625 
Q 33.9375 0 27.875 0 
Q 17.828125 0 11.671875 7.65625 
Q 5.515625 15.328125 5.515625 27.984375 
Q 5.515625 40.671875 11.671875 48.328125 
Q 17.828125 56 27.875 56 
Q 33.9375 56 38.28125 53.609375 
Q 42.625 51.21875 45.40625 46.390625 
L 45.40625 54.6875 
L 54.390625 54.6875 
z
" id="DejaVuSans-103"/>
      <path d="M 41.109375 46.296875 
Q 39.59375 47.171875 37.8125 47.578125 
Q 36.03125 48 33.890625 48 
Q 26.265625 48 22.1875 43.046875 
Q 18.109375 38.09375 18.109375 28.8125 
L 18.109375 0 
L 9.078125 0 
L 9.078125 54.6875 
L 18.109375 54.6875 
L 18.109375 46.1875 
Q 20.953125 51.171875 25.484375 53.578125 
Q 30.03125 56 36.53125 56 
Q 37.453125 56 38.578125 55.875 
Q 39.703125 55.765625 41.0625 55.515625 
z
" id="DejaVuSans-114"/>
      <path d="M 52 44.1875 
Q 55.375 50.25 60.0625 53.125 
Q 64.75 56 71.09375 56 
Q 79.640625 56 84.28125 50.015625 
Q 88.921875 44.046875 88.921875 33.015625 
L 88.921875 0 
L 79.890625 0 
L 79.890625 32.71875 
Q 79.890625 40.578125 77.09375 44.375 
Q 74.3125 48.1875 68.609375 48.1875 
Q 61.625 48.1875 57.5625 43.546875 
Q 53.515625 38.921875 53.515625 30.90625 
L 53.515625 0 
L 44.484375 0 
L 44.484375 32.71875 
Q 44.484375 40.625 41.703125 44.40625 
Q 38.921875 48.1875 33.109375 48.1875 
Q 26.21875 48.1875 22.15625 43.53125 
Q 18.109375 38.875 18.109375 30.90625 
L 18.109375 0 
L 9.078125 0 
L 9.078125 54.6875 
L 18.109375 54.6875 
L 18.109375 46.1875 
Q 21.1875 51.21875 25.484375 53.609375 
Q 29.78125 56 35.6875 56 
Q 41.65625 56 45.828125 52.96875 
Q 50 49.953125 52 44.1875 
z
" id="DejaVuSans-109"/>
      <path d="M 31 75.875 
Q 24.46875 64.65625 21.28125 53.65625 
Q 18.109375 42.671875 18.109375 31.390625 
Q 18.109375 20.125 21.3125 9.0625 
Q 24.515625 -2 31 -13.1875 
L 23.1875 -13.1875 
Q 15.875 -1.703125 12.234375 9.375 
Q 8.59375 20.453125 8.59375 31.390625 
Q 8.59375 42.28125 12.203125 53.3125 
Q 15.828125 64.359375 23.1875 75.875 
z
" id="DejaVuSans-40"/>
      <path d="M 48.78125 52.59375 
L 48.78125 44.1875 
Q 44.96875 46.296875 41.140625 47.34375 
Q 37.3125 48.390625 33.40625 48.390625 
Q 24.65625 48.390625 19.8125 42.84375 
Q 14.984375 37.3125 14.984375 27.296875 
Q 14.984375 17.28125 19.8125 11.734375 
Q 24.65625 6.203125 33.40625 6.203125 
Q 37.3125 6.203125 41.140625 7.25 
Q 44.96875 8.296875 48.78125 10.40625 
L 48.78125 2.09375 
Q 45.015625 0.34375 40.984375 -0.53125 
Q 36.96875 -1.421875 32.421875 -1.421875 
Q 20.0625 -1.421875 12.78125 6.34375 
Q 5.515625 14.109375 5.515625 27.296875 
Q 5.515625 40.671875 12.859375 48.328125 
Q 20.21875 56 33.015625 56 
Q 37.15625 56 41.109375 55.140625 
Q 45.0625 54.296875 48.78125 52.59375 
z
" id="DejaVuSans-99"/>
      <path d="M 56.203125 29.59375 
L 56.203125 25.203125 
L 14.890625 25.203125 
Q 15.484375 15.921875 20.484375 11.0625 
Q 25.484375 6.203125 34.421875 6.203125 
Q 39.59375 6.203125 44.453125 7.46875 
Q 49.3125 8.734375 54.109375 11.28125 
L 54.109375 2.78125 
Q 49.265625 0.734375 44.1875 -0.34375 
Q 39.109375 -1.421875 33.890625 -1.421875 
Q 20.796875 -1.421875 13.15625 6.1875 
Q 5.515625 13.8125 5.515625 26.8125 
Q 5.515625 40.234375 12.765625 48.109375 
Q 20.015625 56 32.328125 56 
Q 43.359375 56 49.78125 48.890625 
Q 56.203125 41.796875 56.203125 29.59375 
z
M 47.21875 32.234375 
Q 47.125 39.59375 43.09375 43.984375 
Q 39.0625 48.390625 32.421875 48.390625 
Q 24.90625 48.390625 20.390625 44.140625 
Q 15.875 39.890625 15.1875 32.171875 
z
" id="DejaVuSans-101"/>
      <path d="M 11.71875 12.40625 
L 22.015625 12.40625 
L 22.015625 4 
L 14.015625 -11.625 
L 7.71875 -11.625 
L 11.71875 4 
z
" id="DejaVuSans-44"/>
      <path d="M 8.015625 75.875 
L 15.828125 75.875 
Q 23.140625 64.359375 26.78125 53.3125 
Q 30.421875 42.28125 30.421875 31.390625 
Q 30.421875 20.453125 26.78125 9.375 
Q 23.140625 -1.703125 15.828125 -13.1875 
L 8.015625 -13.1875 
Q 14.5 -2 17.703125 9.0625 
Q 20.90625 20.125 20.90625 31.390625 
Q 20.90625 42.671875 17.703125 53.65625 
Q 14.5 64.65625 8.015625 75.875 
z
" id="DejaVuSans-41"/>
     </defs>
     <use xlink:href="#DejaVuSans-67"/>
     <use x="69.824219" xlink:href="#DejaVuSans-111"/>
     <use x="131.005859" xlink:href="#DejaVuSans-110"/>
     <use x="194.384766" xlink:href="#DejaVuSans-100"/>
     <use x="257.861328" xlink:href="#DejaVuSans-105"/>
     <use x="285.644531" xlink:href="#DejaVuSans-116"/>
     <use x="324.853516" xlink:href="#DejaVuSans-105"/>
     <use x="352.636719" xlink:href="#DejaVuSans-111"/>
     <use x="413.818359" xlink:href="#DejaVuSans-110"/>
     <use x="477.197266" xlink:href="#DejaVuSans-97"/>
     <use x="538.476562" xlink:href="#DejaVuSans-108"/>
     <use x="566.259766" xlink:href="#DejaVuSans-32"/>
     <use x="598.046875" xlink:href="#DejaVuSans-104"/>
     <use x="661.425781" xlink:href="#DejaVuSans-105"/>
     <use x="689.208984" xlink:href="#DejaVuSans-115"/>
     <use x="741.308594" xlink:href="#DejaVuSans-116"/>
     <use x="780.517578" xlink:href="#DejaVuSans-111"/>
     <use x="841.699219" xlink:href="#DejaVuSans-103"/>
     <use x="905.175781" xlink:href="#DejaVuSans-114"/>
     <use x="946.289062" xlink:href="#DejaVuSans-97"/>
     <use x="1007.568359" xlink:href="#DejaVuSans-109"/>
     <use x="1104.980469" xlink:href="#DejaVuSans-115"/>
     <use x="1157.080078" xlink:href="#DejaVuSans-32"/>
     <use x="1188.867188" xlink:href="#DejaVuSans-40"/>
     <use x="1227.880859" xlink:href="#DejaVuSans-97"/>
     <use x="1289.160156" xlink:href="#DejaVuSans-99"/>
     <use x="1344.140625" xlink:href="#DejaVuSans-101"/>
     <use x="1405.664062" xlink:href="#DejaVuSans-110"/>
     <use x="1469.042969" xlink:href="#DejaVuSans-116"/>
     <use x="1508.251953" xlink:href="#DejaVuSans-114"/>
     <use x="1549.365234" xlink:href="#DejaVuSans-105"/>
     <use x="1577.148438" xlink:href="#DejaVuSans-99"/>
     <use x="1632.128906" xlink:href="#DejaVuSans-44"/>
     <use x="1663.916016" xlink:href="#DejaVuSans-32"/>
     <use x="1695.703125" xlink:href="#DejaVuSans-114"/>
     <use x="1734.566406" xlink:href="#DejaVuSans-101"/>
     <use x="1796.089844" xlink:href="#DejaVuSans-97"/>
     <use x="1857.369141" xlink:href="#DejaVuSans-108"/>
     <use x="1885.152344" xlink:href="#DejaVuSans-32"/>
     <use x="1916.939453" xlink:href="#DejaVuSans-100"/>
     <use x="1980.416016" xlink:href="#DejaVuSans-97"/>
     <use x="2041.695312" xlink:href="#DejaVuSans-116"/>
     <use x="2080.904297" xlink:href="#DejaVuSans-97"/>
     <use x="2142.183594" xlink:href="#DejaVuSans-41"/>
    </g>
   </g>
  </g>
  <g id="axes_3">
   <g id="patch_50">
    <path d="M 774.211765 252 
L 1036.8 252 
L 1036.8 34.56 
L 774.211765 34.56 
z
" style="fill:#ffffff;"/>
   </g>
   <g id="patch_51">
    <path clip-path="url(#p285cb05f76)" d="M 786.147594 252 
L 798.711624 252 
L 798.711624 118.147823 
L 786.147594 118.147823 
z
" style="fill:#1f77b4;"/>
   </g>
   <g id="patch_52">
    <path clip-path="url(#p285cb05f76)" d="M 798.711624 252 
L 811.275654 252 
L 811.275654 210.588648 
L 798.711624 210.588648 
z
" style="fill:#1f77b4;"/>
   </g>
   <g id="patch_53">
    <path clip-path="url(#p285cb05f76)" d="M 811.275654 252 
L 823.839685 252 
L 823.839685 243.18339 
L 811.275654 243.18339 
z
" style="fill:#1f77b4;"/>
   </g>
   <g id="patch_54">
    <path clip-path="url(#p285cb05f76)" d="M 823.839685 252 
L 836.403715 252 
L 836.403715 249.86264 
L 823.839685 249.86264 
z
" style="fill:#1f77b4;"/>
   </g>
   <g id="patch_55">
    <path clip-path="url(#p285cb05f76)" d="M 836.403715 252 
L 848.967746 252 
L 848.967746 251.73283 
L 836.403715 251.73283 
z
" style="fill:#1f77b4;"/>
   </g>
   <g id="patch_56">
    <path clip-path="url(#p285cb05f76)" d="M 848.967746 252 
L 861.531776 252 
L 861.531776 252 
L 848.967746 252 
z
" style="fill:#1f77b4;"/>
   </g>
   <g id="patch_57">
    <path clip-path="url(#p285cb05f76)" d="M 861.531776 252 
L 874.095806 252 
L 874.095806 251.73283 
L 861.531776 251.73283 
z
" style="fill:#1f77b4;"/>
   </g>
   <g id="patch_58">
    <path clip-path="url(#p285cb05f76)" d="M 874.095806 252 
L 886.659837 252 
L 886.659837 251.73283 
L 874.095806 251.73283 
z
" style="fill:#1f77b4;"/>
   </g>
   <g id="patch_59">
    <path clip-path="url(#p285cb05f76)" d="M 886.659837 252 
L 899.223867 252 
L 899.223867 251.73283 
L 886.659837 251.73283 
z
" style="fill:#1f77b4;"/>
   </g>
   <g id="patch_60">
    <path clip-path="url(#p285cb05f76)" d="M 899.223867 252 
L 911.787898 252 
L 911.787898 252 
L 899.223867 252 
z
" style="fill:#1f77b4;"/>
   </g>
   <g id="patch_61">
    <path clip-path="url(#p285cb05f76)" d="M 911.787898 252 
L 924.351928 252 
L 924.351928 252 
L 911.787898 252 
z
" style="fill:#1f77b4;"/>
   </g>
   <g id="patch_62">
    <path clip-path="url(#p285cb05f76)" d="M 924.351928 252 
L 936.915958 252 
L 936.915958 252 
L 924.351928 252 
z
" style="fill:#1f77b4;"/>
   </g>
   <g id="patch_63">
    <path clip-path="url(#p285cb05f76)" d="M 936.915958 252 
L 949.479989 252 
L 949.479989 252 
L 936.915958 252 
z
" style="fill:#1f77b4;"/>
   </g>
   <g id="patch_64">
    <path clip-path="url(#p285cb05f76)" d="M 949.479989 252 
L 962.044019 252 
L 962.044019 251.19849 
L 949.479989 251.19849 
z
" style="fill:#1f77b4;"/>
   </g>
   <g id="patch_65">
    <path clip-path="url(#p285cb05f76)" d="M 962.044019 252 
L 974.60805 252 
L 974.60805 251.73283 
L 962.044019 251.73283 
z
" style="fill:#1f77b4;"/>
   </g>
   <g id="patch_66">
    <path clip-path="url(#p285cb05f76)" d="M 974.60805 252 
L 987.17208 252 
L 987.17208 249.3283 
L 974.60805 249.3283 
z
" style="fill:#1f77b4;"/>
   </g>
   <g id="patch_67">
    <path clip-path="url(#p285cb05f76)" d="M 987.17208 252 
L 999.73611 252 
L 999.73611 244.25207 
L 987.17208 244.25207 
z
" style="fill:#1f77b4;"/>
   </g>
   <g id="patch_68">
    <path clip-path="url(#p285cb05f76)" d="M 999.73611 252 
L 1012.300141 252 
L 1012.300141 208.451288 
L 999.73611 208.451288 
z
" style="fill:#1f77b4;"/>
   </g>
   <g id="patch_69">
    <path clip-path="url(#p285cb05f76)" d="M 1012.300141 252 
L 1024.864171 252 
L 1024.864171 124.025563 
L 1012.300141 124.025563 
z
" style="fill:#1f77b4;"/>
   </g>
   <g id="matplotlib.axis_5">
    <g id="xtick_9">
     <g id="line2d_23">
      <g>
       <use style="stroke:#000000;stroke-width:0.8;" x="786.147594" xlink:href="#ma54cf1ad18" y="252"/>
      </g>
     </g>
     <g id="text_22">
      <!-- 0 -->
      <g transform="translate(781.693844 269.637812)scale(0.14 -0.14)">
       <use xlink:href="#DejaVuSans-48"/>
      </g>
     </g>
    </g>
    <g id="xtick_10">
     <g id="line2d_24">
      <g>
       <use style="stroke:#000000;stroke-width:0.8;" x="862.13344" xlink:href="#ma54cf1ad18" y="252"/>
      </g>
     </g>
     <g id="text_23">
      <!-- 2 -->
      <g transform="translate(857.67969 269.637812)scale(0.14 -0.14)">
       <use xlink:href="#DejaVuSans-50"/>
      </g>
     </g>
    </g>
    <g id="xtick_11">
     <g id="line2d_25">
      <g>
       <use style="stroke:#000000;stroke-width:0.8;" x="938.119287" xlink:href="#ma54cf1ad18" y="252"/>
      </g>
     </g>
     <g id="text_24">
      <!-- 4 -->
      <g transform="translate(933.665537 269.637812)scale(0.14 -0.14)">
       <use xlink:href="#DejaVuSans-52"/>
      </g>
     </g>
    </g>
    <g id="xtick_12">
     <g id="line2d_26">
      <g>
       <use style="stroke:#000000;stroke-width:0.8;" x="1014.105133" xlink:href="#ma54cf1ad18" y="252"/>
      </g>
     </g>
     <g id="text_25">
      <!-- 6 -->
      <g transform="translate(1009.651383 269.637812)scale(0.14 -0.14)">
       <use xlink:href="#DejaVuSans-54"/>
      </g>
     </g>
    </g>
   </g>
   <g id="matplotlib.axis_6">
    <g id="ytick_13">
     <g id="line2d_27">
      <g>
       <use style="stroke:#000000;stroke-width:0.8;" x="774.211765" xlink:href="#m85d5ee7d93" y="252"/>
      </g>
     </g>
     <g id="text_26">
      <!-- 0.0 -->
      <g transform="translate(744.94739 257.318906)scale(0.14 -0.14)">
       <use xlink:href="#DejaVuSans-48"/>
       <use x="63.623047" xlink:href="#DejaVuSans-46"/>
       <use x="95.410156" xlink:href="#DejaVuSans-48"/>
      </g>
     </g>
    </g>
    <g id="ytick_14">
     <g id="line2d_28">
      <g>
       <use style="stroke:#000000;stroke-width:0.8;" x="774.211765" xlink:href="#m85d5ee7d93" y="190.772403"/>
      </g>
     </g>
     <g id="text_27">
      <!-- 0.5 -->
      <g transform="translate(744.94739 196.091309)scale(0.14 -0.14)">
       <use xlink:href="#DejaVuSans-48"/>
       <use x="63.623047" xlink:href="#DejaVuSans-46"/>
       <use x="95.410156" xlink:href="#DejaVuSans-53"/>
      </g>
     </g>
    </g>
    <g id="ytick_15">
     <g id="line2d_29">
      <g>
       <use style="stroke:#000000;stroke-width:0.8;" x="774.211765" xlink:href="#m85d5ee7d93" y="129.544806"/>
      </g>
     </g>
     <g id="text_28">
      <!-- 1.0 -->
      <g transform="translate(744.94739 134.863712)scale(0.14 -0.14)">
       <use xlink:href="#DejaVuSans-49"/>
       <use x="63.623047" xlink:href="#DejaVuSans-46"/>
       <use x="95.410156" xlink:href="#DejaVuSans-48"/>
      </g>
     </g>
    </g>
    <g id="ytick_16">
     <g id="line2d_30">
      <g>
       <use style="stroke:#000000;stroke-width:0.8;" x="774.211765" xlink:href="#m85d5ee7d93" y="68.317208"/>
      </g>
     </g>
     <g id="text_29">
      <!-- 1.5 -->
      <g transform="translate(744.94739 73.636115)scale(0.14 -0.14)">
       <use xlink:href="#DejaVuSans-49"/>
       <use x="63.623047" xlink:href="#DejaVuSans-46"/>
       <use x="95.410156" xlink:href="#DejaVuSans-53"/>
      </g>
     </g>
    </g>
   </g>
   <g id="line2d_31">
    <path clip-path="url(#p285cb05f76)" d="M 786.147594 44.914286 
L 788.55765 52.367527 
L 790.967706 73.12965 
L 793.377762 102.9735 
L 795.787818 136.461824 
L 798.197874 168.561013 
L 800.60793 195.796591 
L 803.017987 216.633122 
L 805.428043 231.170425 
L 807.838099 240.493624 
L 810.248155 246.024036 
L 812.658211 249.074277 
L 815.068267 250.645865 
L 817.478323 251.405653 
L 819.88838 251.751798 
L 822.298436 251.901034 
L 824.708492 251.962183 
L 827.118548 251.986098 
L 829.528604 251.995063 
L 831.93866 251.9983 
L 834.348716 251.999429 
L 836.758773 251.999813 
L 839.168829 251.99994 
L 841.578885 251.999981 
L 843.988941 251.999994 
L 846.398997 251.999998 
L 848.809053 251.999999 
L 851.21911 252 
L 853.629166 252 
L 856.039222 252 
L 858.449278 252 
L 860.859334 252 
L 863.26939 252 
L 865.679446 252 
L 868.089503 252 
L 870.499559 252 
L 872.909615 252 
L 875.319671 252 
L 877.729727 252 
L 880.139783 252 
L 882.549839 252 
L 884.959896 252 
L 887.369952 252 
L 889.780008 252 
L 892.190064 252 
L 894.60012 252 
L 897.010176 252 
L 899.420232 252 
L 901.830289 252 
L 904.240345 252 
L 906.650401 252 
L 909.060457 252 
L 911.470513 252 
L 913.880569 252 
L 916.290625 252 
L 918.700682 252 
L 921.110738 252 
L 923.520794 252 
L 925.93085 252 
L 928.340906 252 
L 930.750962 252 
L 933.161018 252 
L 935.571075 252 
L 937.981131 252 
L 940.391187 252 
L 942.801243 252 
L 945.211299 252 
L 947.621355 252 
L 950.031411 252 
L 952.441468 252 
L 954.851524 252 
L 957.26158 252 
L 959.671636 252 
L 962.081692 251.999999 
L 964.491748 251.999998 
L 966.901804 251.999994 
L 969.311861 251.999982 
L 971.721917 251.999943 
L 974.131973 251.999823 
L 976.542029 251.99946 
L 978.952085 251.998389 
L 981.362141 251.995317 
L 983.772198 251.986792 
L 986.182254 251.964005 
L 988.59231 251.905609 
L 991.002366 251.762742 
L 993.412422 251.430492 
L 995.822478 250.699105 
L 998.232534 249.181592 
L 1000.642591 246.226564 
L 1003.052647 240.849848 
L 1005.462703 231.751473 
L 1007.872759 217.507078 
L 1010.282815 197.000356 
L 1012.692871 170.065272 
L 1015.102927 138.143438 
L 1017.512984 104.61434 
L 1019.92304 74.454937 
L 1022.333096 53.119164 
L 1024.743152 44.933431 
" style="fill:none;stroke:#ff0000;stroke-linecap:square;stroke-width:1.5;"/>
   </g>
   <g id="patch_70">
    <path d="M 774.211765 252 
L 774.211765 34.56 
" style="fill:none;stroke:#000000;stroke-linecap:square;stroke-linejoin:miter;stroke-width:0.8;"/>
   </g>
   <g id="patch_71">
    <path d="M 1036.8 252 
L 1036.8 34.56 
" style="fill:none;stroke:#000000;stroke-linecap:square;stroke-linejoin:miter;stroke-width:0.8;"/>
   </g>
   <g id="patch_72">
    <path d="M 774.211765 252 
L 1036.8 252 
" style="fill:none;stroke:#000000;stroke-linecap:square;stroke-linejoin:miter;stroke-width:0.8;"/>
   </g>
   <g id="patch_73">
    <path d="M 774.211765 34.56 
L 1036.8 34.56 
" style="fill:none;stroke:#000000;stroke-linecap:square;stroke-linejoin:miter;stroke-width:0.8;"/>
   </g>
  </g>
 </g>
 <defs>
  <clipPath id="pb708be3d94">
   <rect height="217.44" width="262.588235" x="144" y="34.56"/>
  </clipPath>
  <clipPath id="pfd8dc528db">
   <rect height="217.44" width="262.588235" x="459.105882" y="34.56"/>
  </clipPath>
  <clipPath id="p285cb05f76">
   <rect height="217.44" width="262.588235" x="774.211765" y="34.56"/>
  </clipPath>
 </defs>
</svg>
