<?xml version="1.0" encoding="utf-8" standalone="no"?>
<!DOCTYPE svg PUBLIC "-//W3C//DTD SVG 1.1//EN"
  "http://www.w3.org/Graphics/SVG/1.1/DTD/svg11.dtd">
<!-- Created with matplotlib (https://matplotlib.org/) -->
<svg height="288pt" version="1.1" viewBox="0 0 1152 288" width="1152pt" xmlns="http://www.w3.org/2000/svg" xmlns:xlink="http://www.w3.org/1999/xlink">
 <metadata>
  <rdf:RDF xmlns:cc="http://creativecommons.org/ns#" xmlns:dc="http://purl.org/dc/elements/1.1/" xmlns:rdf="http://www.w3.org/1999/02/22-rdf-syntax-ns#">
   <cc:Work>
    <dc:type rdf:resource="http://purl.org/dc/dcmitype/StillImage"/>
    <dc:date>2021-08-05T21:58:52.232105</dc:date>
    <dc:format>image/svg+xml</dc:format>
    <dc:creator>
     <cc:Agent>
      <dc:title>Matplotlib v3.3.4, https://matplotlib.org/</dc:title>
     </cc:Agent>
    </dc:creator>
   </cc:Work>
  </rdf:RDF>
 </metadata>
 <defs>
  <style type="text/css">*{stroke-linecap:butt;stroke-linejoin:round;}</style>
 </defs>
 <g id="figure_1">
  <g id="patch_1">
   <path d="M 0 288 
L 1152 288 
L 1152 0 
L 0 0 
z
" style="fill:none;"/>
  </g>
  <g id="axes_1">
   <g id="patch_2">
    <path d="M 144 252 
L 406.588235 252 
L 406.588235 34.56 
L 144 34.56 
z
" style="fill:#ffffff;"/>
   </g>
   <g id="patch_3">
    <path clip-path="url(#p8dc998d1a6)" d="M 144 252 
L 152.931573 252 
L 152.931573 208.905389 
L 144 208.905389 
z
" style="fill:#1f77b4;"/>
   </g>
   <g id="patch_4">
    <path clip-path="url(#p8dc998d1a6)" d="M 152.931573 252 
L 161.863145 252 
L 161.863145 137.352073 
L 152.931573 137.352073 
z
" style="fill:#1f77b4;"/>
   </g>
   <g id="patch_5">
    <path clip-path="url(#p8dc998d1a6)" d="M 161.863145 252 
L 170.794718 252 
L 170.794718 70.677392 
L 161.863145 70.677392 
z
" style="fill:#1f77b4;"/>
   </g>
   <g id="patch_6">
    <path clip-path="url(#p8dc998d1a6)" d="M 170.794718 252 
L 179.726291 252 
L 179.726291 65.798757 
L 170.794718 65.798757 
z
" style="fill:#1f77b4;"/>
   </g>
   <g id="patch_7">
    <path clip-path="url(#p8dc998d1a6)" d="M 179.726291 252 
L 188.657863 252 
L 188.657863 90.191933 
L 179.726291 90.191933 
z
" style="fill:#1f77b4;"/>
   </g>
   <g id="patch_8">
    <path clip-path="url(#p8dc998d1a6)" d="M 188.657863 252 
L 197.589436 252 
L 197.589436 90.191933 
L 188.657863 90.191933 
z
" style="fill:#1f77b4;"/>
   </g>
   <g id="patch_9">
    <path clip-path="url(#p8dc998d1a6)" d="M 197.589436 252 
L 206.521008 252 
L 206.521008 138.165179 
L 197.589436 138.165179 
z
" style="fill:#1f77b4;"/>
   </g>
   <g id="patch_10">
    <path clip-path="url(#p8dc998d1a6)" d="M 206.521008 252 
L 215.452581 252 
L 215.452581 138.978285 
L 206.521008 138.978285 
z
" style="fill:#1f77b4;"/>
   </g>
   <g id="patch_11">
    <path clip-path="url(#p8dc998d1a6)" d="M 215.452581 252 
L 224.384154 252 
L 224.384154 194.269484 
L 215.452581 194.269484 
z
" style="fill:#1f77b4;"/>
   </g>
   <g id="patch_12">
    <path clip-path="url(#p8dc998d1a6)" d="M 224.384154 252 
L 233.315726 252 
L 233.315726 212.157813 
L 224.384154 212.157813 
z
" style="fill:#1f77b4;"/>
   </g>
   <g id="patch_13">
    <path clip-path="url(#p8dc998d1a6)" d="M 233.315726 252 
L 242.247299 252 
L 242.247299 218.66266 
L 233.315726 218.66266 
z
" style="fill:#1f77b4;"/>
   </g>
   <g id="patch_14">
    <path clip-path="url(#p8dc998d1a6)" d="M 242.247299 252 
L 251.178872 252 
L 251.178872 242.24273 
L 242.247299 242.24273 
z
" style="fill:#1f77b4;"/>
   </g>
   <g id="patch_15">
    <path clip-path="url(#p8dc998d1a6)" d="M 251.178872 252 
L 260.110444 252 
L 260.110444 244.682047 
L 251.178872 244.682047 
z
" style="fill:#1f77b4;"/>
   </g>
   <g id="patch_16">
    <path clip-path="url(#p8dc998d1a6)" d="M 260.110444 252 
L 269.042017 252 
L 269.042017 247.934471 
L 260.110444 247.934471 
z
" style="fill:#1f77b4;"/>
   </g>
   <g id="patch_17">
    <path clip-path="url(#p8dc998d1a6)" d="M 269.042017 252 
L 277.973589 252 
L 277.973589 250.373788 
L 269.042017 250.373788 
z
" style="fill:#1f77b4;"/>
   </g>
   <g id="patch_18">
    <path clip-path="url(#p8dc998d1a6)" d="M 277.973589 252 
L 286.905162 252 
L 286.905162 251.186894 
L 277.973589 251.186894 
z
" style="fill:#1f77b4;"/>
   </g>
   <g id="patch_19">
    <path clip-path="url(#p8dc998d1a6)" d="M 286.905162 252 
L 295.836735 252 
L 295.836735 251.186894 
L 286.905162 251.186894 
z
" style="fill:#1f77b4;"/>
   </g>
   <g id="patch_20">
    <path clip-path="url(#p8dc998d1a6)" d="M 295.836735 252 
L 304.768307 252 
L 304.768307 252 
L 295.836735 252 
z
" style="fill:#1f77b4;"/>
   </g>
   <g id="patch_21">
    <path clip-path="url(#p8dc998d1a6)" d="M 304.768307 252 
L 313.69988 252 
L 313.69988 252 
L 304.768307 252 
z
" style="fill:#1f77b4;"/>
   </g>
   <g id="patch_22">
    <path clip-path="url(#p8dc998d1a6)" d="M 313.69988 252 
L 322.631453 252 
L 322.631453 252 
L 313.69988 252 
z
" style="fill:#1f77b4;"/>
   </g>
   <g id="patch_23">
    <path clip-path="url(#p8dc998d1a6)" d="M 322.631453 252 
L 331.563025 252 
L 331.563025 252 
L 322.631453 252 
z
" style="fill:#1f77b4;"/>
   </g>
   <g id="patch_24">
    <path clip-path="url(#p8dc998d1a6)" d="M 331.563025 252 
L 340.494598 252 
L 340.494598 252 
L 331.563025 252 
z
" style="fill:#1f77b4;"/>
   </g>
   <g id="patch_25">
    <path clip-path="url(#p8dc998d1a6)" d="M 340.494598 252 
L 349.42617 252 
L 349.42617 252 
L 340.494598 252 
z
" style="fill:#1f77b4;"/>
   </g>
   <g id="patch_26">
    <path clip-path="url(#p8dc998d1a6)" d="M 349.42617 252 
L 358.357743 252 
L 358.357743 252 
L 349.42617 252 
z
" style="fill:#1f77b4;"/>
   </g>
   <g id="patch_27">
    <path clip-path="url(#p8dc998d1a6)" d="M 358.357743 252 
L 367.289316 252 
L 367.289316 252 
L 358.357743 252 
z
" style="fill:#1f77b4;"/>
   </g>
   <g id="patch_28">
    <path clip-path="url(#p8dc998d1a6)" d="M 367.289316 252 
L 376.220888 252 
L 376.220888 252 
L 367.289316 252 
z
" style="fill:#1f77b4;"/>
   </g>
   <g id="patch_29">
    <path clip-path="url(#p8dc998d1a6)" d="M 376.220888 252 
L 385.152461 252 
L 385.152461 252 
L 376.220888 252 
z
" style="fill:#1f77b4;"/>
   </g>
   <g id="patch_30">
    <path clip-path="url(#p8dc998d1a6)" d="M 385.152461 252 
L 394.084034 252 
L 394.084034 252 
L 385.152461 252 
z
" style="fill:#1f77b4;"/>
   </g>
   <g id="patch_31">
    <path clip-path="url(#p8dc998d1a6)" d="M 394.084034 252 
L 403.015606 252 
L 403.015606 252 
L 394.084034 252 
z
" style="fill:#1f77b4;"/>
   </g>
   <g id="patch_32">
    <path clip-path="url(#p8dc998d1a6)" d="M 403.015606 252 
L 411.947179 252 
L 411.947179 252 
L 403.015606 252 
z
" style="fill:#1f77b4;"/>
   </g>
   <g id="patch_33">
    <path clip-path="url(#p8dc998d1a6)" d="M 411.947179 252 
L 420.878752 252 
L 420.878752 252 
L 411.947179 252 
z
" style="fill:#1f77b4;"/>
   </g>
   <g id="patch_34">
    <path clip-path="url(#p8dc998d1a6)" d="M 420.878752 252 
L 429.810324 252 
L 429.810324 252 
L 420.878752 252 
z
" style="fill:#1f77b4;"/>
   </g>
   <g id="patch_35">
    <path clip-path="url(#p8dc998d1a6)" d="M 429.810324 252 
L 438.741897 252 
L 438.741897 252 
L 429.810324 252 
z
" style="fill:#1f77b4;"/>
   </g>
   <g id="patch_36">
    <path clip-path="url(#p8dc998d1a6)" d="M 438.741897 252 
L 447.673469 252 
L 447.673469 252 
L 438.741897 252 
z
" style="fill:#1f77b4;"/>
   </g>
   <g id="patch_37">
    <path clip-path="url(#p8dc998d1a6)" d="M 447.673469 252 
L 456.605042 252 
L 456.605042 252 
L 447.673469 252 
z
" style="fill:#1f77b4;"/>
   </g>
   <g id="patch_38">
    <path clip-path="url(#p8dc998d1a6)" d="M 456.605042 252 
L 465.536615 252 
L 465.536615 252 
L 456.605042 252 
z
" style="fill:#1f77b4;"/>
   </g>
   <g id="patch_39">
    <path clip-path="url(#p8dc998d1a6)" d="M 465.536615 252 
L 474.468187 252 
L 474.468187 252 
L 465.536615 252 
z
" style="fill:#1f77b4;"/>
   </g>
   <g id="patch_40">
    <path clip-path="url(#p8dc998d1a6)" d="M 474.468187 252 
L 483.39976 252 
L 483.39976 252 
L 474.468187 252 
z
" style="fill:#1f77b4;"/>
   </g>
   <g id="patch_41">
    <path clip-path="url(#p8dc998d1a6)" d="M 483.39976 252 
L 492.331333 252 
L 492.331333 252 
L 483.39976 252 
z
" style="fill:#1f77b4;"/>
   </g>
   <g id="patch_42">
    <path clip-path="url(#p8dc998d1a6)" d="M 492.331333 252 
L 501.262905 252 
L 501.262905 252 
L 492.331333 252 
z
" style="fill:#1f77b4;"/>
   </g>
   <g id="patch_43">
    <path clip-path="url(#p8dc998d1a6)" d="M 501.262905 252 
L 510.194478 252 
L 510.194478 252 
L 501.262905 252 
z
" style="fill:#1f77b4;"/>
   </g>
   <g id="patch_44">
    <path clip-path="url(#p8dc998d1a6)" d="M 510.194478 252 
L 519.12605 252 
L 519.12605 252 
L 510.194478 252 
z
" style="fill:#1f77b4;"/>
   </g>
   <g id="patch_45">
    <path clip-path="url(#p8dc998d1a6)" d="M 519.12605 252 
L 528.057623 252 
L 528.057623 252 
L 519.12605 252 
z
" style="fill:#1f77b4;"/>
   </g>
   <g id="patch_46">
    <path clip-path="url(#p8dc998d1a6)" d="M 528.057623 252 
L 536.989196 252 
L 536.989196 252 
L 528.057623 252 
z
" style="fill:#1f77b4;"/>
   </g>
   <g id="patch_47">
    <path clip-path="url(#p8dc998d1a6)" d="M 536.989196 252 
L 545.920768 252 
L 545.920768 252 
L 536.989196 252 
z
" style="fill:#1f77b4;"/>
   </g>
   <g id="patch_48">
    <path clip-path="url(#p8dc998d1a6)" d="M 545.920768 252 
L 554.852341 252 
L 554.852341 252 
L 545.920768 252 
z
" style="fill:#1f77b4;"/>
   </g>
   <g id="patch_49">
    <path clip-path="url(#p8dc998d1a6)" d="M 554.852341 252 
L 563.783914 252 
L 563.783914 252 
L 554.852341 252 
z
" style="fill:#1f77b4;"/>
   </g>
   <g id="patch_50">
    <path clip-path="url(#p8dc998d1a6)" d="M 563.783914 252 
L 572.715486 252 
L 572.715486 252 
L 563.783914 252 
z
" style="fill:#1f77b4;"/>
   </g>
   <g id="patch_51">
    <path clip-path="url(#p8dc998d1a6)" d="M 572.715486 252 
L 581.647059 252 
L 581.647059 252 
L 572.715486 252 
z
" style="fill:#1f77b4;"/>
   </g>
   <g id="matplotlib.axis_1">
    <g id="xtick_1">
     <g id="line2d_1">
      <defs>
       <path d="M 0 0 
L 0 3.5 
" id="m901cf6b36d" style="stroke:#000000;stroke-width:0.8;"/>
      </defs>
      <g>
       <use style="stroke:#000000;stroke-width:0.8;" x="144" xlink:href="#m901cf6b36d" y="252"/>
      </g>
     </g>
     <g id="text_1">
      <!-- 0.0 -->
      <g transform="translate(132.867813 269.637812)scale(0.14 -0.14)">
       <defs>
        <path d="M 31.78125 66.40625 
Q 24.171875 66.40625 20.328125 58.90625 
Q 16.5 51.421875 16.5 36.375 
Q 16.5 21.390625 20.328125 13.890625 
Q 24.171875 6.390625 31.78125 6.390625 
Q 39.453125 6.390625 43.28125 13.890625 
Q 47.125 21.390625 47.125 36.375 
Q 47.125 51.421875 43.28125 58.90625 
Q 39.453125 66.40625 31.78125 66.40625 
z
M 31.78125 74.21875 
Q 44.046875 74.21875 50.515625 64.515625 
Q 56.984375 54.828125 56.984375 36.375 
Q 56.984375 17.96875 50.515625 8.265625 
Q 44.046875 -1.421875 31.78125 -1.421875 
Q 19.53125 -1.421875 13.0625 8.265625 
Q 6.59375 17.96875 6.59375 36.375 
Q 6.59375 54.828125 13.0625 64.515625 
Q 19.53125 74.21875 31.78125 74.21875 
z
" id="DejaVuSans-48"/>
        <path d="M 10.6875 12.40625 
L 21 12.40625 
L 21 0 
L 10.6875 0 
z
" id="DejaVuSans-46"/>
       </defs>
       <use xlink:href="#DejaVuSans-48"/>
       <use x="63.623047" xlink:href="#DejaVuSans-46"/>
       <use x="95.410156" xlink:href="#DejaVuSans-48"/>
      </g>
     </g>
    </g>
    <g id="xtick_2">
     <g id="line2d_2">
      <g>
       <use style="stroke:#000000;stroke-width:0.8;" x="187.764706" xlink:href="#m901cf6b36d" y="252"/>
      </g>
     </g>
     <g id="text_2">
      <!-- 0.5 -->
      <g transform="translate(176.632518 269.637812)scale(0.14 -0.14)">
       <defs>
        <path d="M 10.796875 72.90625 
L 49.515625 72.90625 
L 49.515625 64.59375 
L 19.828125 64.59375 
L 19.828125 46.734375 
Q 21.96875 47.46875 24.109375 47.828125 
Q 26.265625 48.1875 28.421875 48.1875 
Q 40.625 48.1875 47.75 41.5 
Q 54.890625 34.8125 54.890625 23.390625 
Q 54.890625 11.625 47.5625 5.09375 
Q 40.234375 -1.421875 26.90625 -1.421875 
Q 22.3125 -1.421875 17.546875 -0.640625 
Q 12.796875 0.140625 7.71875 1.703125 
L 7.71875 11.625 
Q 12.109375 9.234375 16.796875 8.0625 
Q 21.484375 6.890625 26.703125 6.890625 
Q 35.15625 6.890625 40.078125 11.328125 
Q 45.015625 15.765625 45.015625 23.390625 
Q 45.015625 31 40.078125 35.4375 
Q 35.15625 39.890625 26.703125 39.890625 
Q 22.75 39.890625 18.8125 39.015625 
Q 14.890625 38.140625 10.796875 36.28125 
z
" id="DejaVuSans-53"/>
       </defs>
       <use xlink:href="#DejaVuSans-48"/>
       <use x="63.623047" xlink:href="#DejaVuSans-46"/>
       <use x="95.410156" xlink:href="#DejaVuSans-53"/>
      </g>
     </g>
    </g>
    <g id="xtick_3">
     <g id="line2d_3">
      <g>
       <use style="stroke:#000000;stroke-width:0.8;" x="231.529412" xlink:href="#m901cf6b36d" y="252"/>
      </g>
     </g>
     <g id="text_3">
      <!-- 1.0 -->
      <g transform="translate(220.397224 269.637812)scale(0.14 -0.14)">
       <defs>
        <path d="M 12.40625 8.296875 
L 28.515625 8.296875 
L 28.515625 63.921875 
L 10.984375 60.40625 
L 10.984375 69.390625 
L 28.421875 72.90625 
L 38.28125 72.90625 
L 38.28125 8.296875 
L 54.390625 8.296875 
L 54.390625 0 
L 12.40625 0 
z
" id="DejaVuSans-49"/>
       </defs>
       <use xlink:href="#DejaVuSans-49"/>
       <use x="63.623047" xlink:href="#DejaVuSans-46"/>
       <use x="95.410156" xlink:href="#DejaVuSans-48"/>
      </g>
     </g>
    </g>
    <g id="xtick_4">
     <g id="line2d_4">
      <g>
       <use style="stroke:#000000;stroke-width:0.8;" x="275.294118" xlink:href="#m901cf6b36d" y="252"/>
      </g>
     </g>
     <g id="text_4">
      <!-- 1.5 -->
      <g transform="translate(264.16193 269.637812)scale(0.14 -0.14)">
       <use xlink:href="#DejaVuSans-49"/>
       <use x="63.623047" xlink:href="#DejaVuSans-46"/>
       <use x="95.410156" xlink:href="#DejaVuSans-53"/>
      </g>
     </g>
    </g>
    <g id="xtick_5">
     <g id="line2d_5">
      <g>
       <use style="stroke:#000000;stroke-width:0.8;" x="319.058824" xlink:href="#m901cf6b36d" y="252"/>
      </g>
     </g>
     <g id="text_5">
      <!-- 2.0 -->
      <g transform="translate(307.926636 269.637812)scale(0.14 -0.14)">
       <defs>
        <path d="M 19.1875 8.296875 
L 53.609375 8.296875 
L 53.609375 0 
L 7.328125 0 
L 7.328125 8.296875 
Q 12.9375 14.109375 22.625 23.890625 
Q 32.328125 33.6875 34.8125 36.53125 
Q 39.546875 41.84375 41.421875 45.53125 
Q 43.3125 49.21875 43.3125 52.78125 
Q 43.3125 58.59375 39.234375 62.25 
Q 35.15625 65.921875 28.609375 65.921875 
Q 23.96875 65.921875 18.8125 64.3125 
Q 13.671875 62.703125 7.8125 59.421875 
L 7.8125 69.390625 
Q 13.765625 71.78125 18.9375 73 
Q 24.125 74.21875 28.421875 74.21875 
Q 39.75 74.21875 46.484375 68.546875 
Q 53.21875 62.890625 53.21875 53.421875 
Q 53.21875 48.921875 51.53125 44.890625 
Q 49.859375 40.875 45.40625 35.40625 
Q 44.1875 33.984375 37.640625 27.21875 
Q 31.109375 20.453125 19.1875 8.296875 
z
" id="DejaVuSans-50"/>
       </defs>
       <use xlink:href="#DejaVuSans-50"/>
       <use x="63.623047" xlink:href="#DejaVuSans-46"/>
       <use x="95.410156" xlink:href="#DejaVuSans-48"/>
      </g>
     </g>
    </g>
    <g id="xtick_6">
     <g id="line2d_6">
      <g>
       <use style="stroke:#000000;stroke-width:0.8;" x="362.823529" xlink:href="#m901cf6b36d" y="252"/>
      </g>
     </g>
     <g id="text_6">
      <!-- 2.5 -->
      <g transform="translate(351.691342 269.637812)scale(0.14 -0.14)">
       <use xlink:href="#DejaVuSans-50"/>
       <use x="63.623047" xlink:href="#DejaVuSans-46"/>
       <use x="95.410156" xlink:href="#DejaVuSans-53"/>
      </g>
     </g>
    </g>
    <g id="xtick_7">
     <g id="line2d_7">
      <g>
       <use style="stroke:#000000;stroke-width:0.8;" x="406.588235" xlink:href="#m901cf6b36d" y="252"/>
      </g>
     </g>
     <g id="text_7">
      <!-- 3.0 -->
      <g transform="translate(395.456048 269.637812)scale(0.14 -0.14)">
       <defs>
        <path d="M 40.578125 39.3125 
Q 47.65625 37.796875 51.625 33 
Q 55.609375 28.21875 55.609375 21.1875 
Q 55.609375 10.40625 48.1875 4.484375 
Q 40.765625 -1.421875 27.09375 -1.421875 
Q 22.515625 -1.421875 17.65625 -0.515625 
Q 12.796875 0.390625 7.625 2.203125 
L 7.625 11.71875 
Q 11.71875 9.328125 16.59375 8.109375 
Q 21.484375 6.890625 26.8125 6.890625 
Q 36.078125 6.890625 40.9375 10.546875 
Q 45.796875 14.203125 45.796875 21.1875 
Q 45.796875 27.640625 41.28125 31.265625 
Q 36.765625 34.90625 28.71875 34.90625 
L 20.21875 34.90625 
L 20.21875 43.015625 
L 29.109375 43.015625 
Q 36.375 43.015625 40.234375 45.921875 
Q 44.09375 48.828125 44.09375 54.296875 
Q 44.09375 59.90625 40.109375 62.90625 
Q 36.140625 65.921875 28.71875 65.921875 
Q 24.65625 65.921875 20.015625 65.03125 
Q 15.375 64.15625 9.8125 62.3125 
L 9.8125 71.09375 
Q 15.4375 72.65625 20.34375 73.4375 
Q 25.25 74.21875 29.59375 74.21875 
Q 40.828125 74.21875 47.359375 69.109375 
Q 53.90625 64.015625 53.90625 55.328125 
Q 53.90625 49.265625 50.4375 45.09375 
Q 46.96875 40.921875 40.578125 39.3125 
z
" id="DejaVuSans-51"/>
       </defs>
       <use xlink:href="#DejaVuSans-51"/>
       <use x="63.623047" xlink:href="#DejaVuSans-46"/>
       <use x="95.410156" xlink:href="#DejaVuSans-48"/>
      </g>
     </g>
    </g>
   </g>
   <g id="matplotlib.axis_2">
    <g id="ytick_1">
     <g id="line2d_8">
      <defs>
       <path d="M 0 0 
L -3.5 0 
" id="mf0b39dfee7" style="stroke:#000000;stroke-width:0.8;"/>
      </defs>
      <g>
       <use style="stroke:#000000;stroke-width:0.8;" x="144" xlink:href="#mf0b39dfee7" y="252"/>
      </g>
     </g>
     <g id="text_8">
      <!-- 0.00 -->
      <g transform="translate(105.828125 257.318906)scale(0.14 -0.14)">
       <use xlink:href="#DejaVuSans-48"/>
       <use x="63.623047" xlink:href="#DejaVuSans-46"/>
       <use x="95.410156" xlink:href="#DejaVuSans-48"/>
       <use x="159.033203" xlink:href="#DejaVuSans-48"/>
      </g>
     </g>
    </g>
    <g id="ytick_2">
     <g id="line2d_9">
      <g>
       <use style="stroke:#000000;stroke-width:0.8;" x="144" xlink:href="#mf0b39dfee7" y="220.59586"/>
      </g>
     </g>
     <g id="text_9">
      <!-- 0.25 -->
      <g transform="translate(105.828125 225.914766)scale(0.14 -0.14)">
       <use xlink:href="#DejaVuSans-48"/>
       <use x="63.623047" xlink:href="#DejaVuSans-46"/>
       <use x="95.410156" xlink:href="#DejaVuSans-50"/>
       <use x="159.033203" xlink:href="#DejaVuSans-53"/>
      </g>
     </g>
    </g>
    <g id="ytick_3">
     <g id="line2d_10">
      <g>
       <use style="stroke:#000000;stroke-width:0.8;" x="144" xlink:href="#mf0b39dfee7" y="189.19172"/>
      </g>
     </g>
     <g id="text_10">
      <!-- 0.50 -->
      <g transform="translate(105.828125 194.510627)scale(0.14 -0.14)">
       <use xlink:href="#DejaVuSans-48"/>
       <use x="63.623047" xlink:href="#DejaVuSans-46"/>
       <use x="95.410156" xlink:href="#DejaVuSans-53"/>
       <use x="159.033203" xlink:href="#DejaVuSans-48"/>
      </g>
     </g>
    </g>
    <g id="ytick_4">
     <g id="line2d_11">
      <g>
       <use style="stroke:#000000;stroke-width:0.8;" x="144" xlink:href="#mf0b39dfee7" y="157.787581"/>
      </g>
     </g>
     <g id="text_11">
      <!-- 0.75 -->
      <g transform="translate(105.828125 163.106487)scale(0.14 -0.14)">
       <defs>
        <path d="M 8.203125 72.90625 
L 55.078125 72.90625 
L 55.078125 68.703125 
L 28.609375 0 
L 18.3125 0 
L 43.21875 64.59375 
L 8.203125 64.59375 
z
" id="DejaVuSans-55"/>
       </defs>
       <use xlink:href="#DejaVuSans-48"/>
       <use x="63.623047" xlink:href="#DejaVuSans-46"/>
       <use x="95.410156" xlink:href="#DejaVuSans-55"/>
       <use x="159.033203" xlink:href="#DejaVuSans-53"/>
      </g>
     </g>
    </g>
    <g id="ytick_5">
     <g id="line2d_12">
      <g>
       <use style="stroke:#000000;stroke-width:0.8;" x="144" xlink:href="#mf0b39dfee7" y="126.383441"/>
      </g>
     </g>
     <g id="text_12">
      <!-- 1.00 -->
      <g transform="translate(105.828125 131.702347)scale(0.14 -0.14)">
       <use xlink:href="#DejaVuSans-49"/>
       <use x="63.623047" xlink:href="#DejaVuSans-46"/>
       <use x="95.410156" xlink:href="#DejaVuSans-48"/>
       <use x="159.033203" xlink:href="#DejaVuSans-48"/>
      </g>
     </g>
    </g>
    <g id="ytick_6">
     <g id="line2d_13">
      <g>
       <use style="stroke:#000000;stroke-width:0.8;" x="144" xlink:href="#mf0b39dfee7" y="94.979301"/>
      </g>
     </g>
     <g id="text_13">
      <!-- 1.25 -->
      <g transform="translate(105.828125 100.298207)scale(0.14 -0.14)">
       <use xlink:href="#DejaVuSans-49"/>
       <use x="63.623047" xlink:href="#DejaVuSans-46"/>
       <use x="95.410156" xlink:href="#DejaVuSans-50"/>
       <use x="159.033203" xlink:href="#DejaVuSans-53"/>
      </g>
     </g>
    </g>
    <g id="ytick_7">
     <g id="line2d_14">
      <g>
       <use style="stroke:#000000;stroke-width:0.8;" x="144" xlink:href="#mf0b39dfee7" y="63.575161"/>
      </g>
     </g>
     <g id="text_14">
      <!-- 1.50 -->
      <g transform="translate(105.828125 68.894068)scale(0.14 -0.14)">
       <use xlink:href="#DejaVuSans-49"/>
       <use x="63.623047" xlink:href="#DejaVuSans-46"/>
       <use x="95.410156" xlink:href="#DejaVuSans-53"/>
       <use x="159.033203" xlink:href="#DejaVuSans-48"/>
      </g>
     </g>
    </g>
   </g>
   <g id="line2d_15">
    <path clip-path="url(#p8dc998d1a6)" d="M 144 252 
L 146.652406 226.608029 
L 149.304813 201.680614 
L 151.957219 177.668219 
L 154.609626 154.993722 
L 157.262032 134.04007 
L 159.914439 115.139608 
L 162.566845 98.565465 
L 165.219251 84.525322 
L 167.871658 73.157747 
L 170.524064 64.531123 
L 173.176471 58.645143 
L 175.828877 55.434643 
L 178.481283 54.77551 
L 181.13369 56.492287 
L 183.786096 60.367054 
L 186.438503 66.149128 
L 189.090909 73.565123 
L 191.743316 82.328935 
L 194.395722 92.151248 
L 197.048128 102.748228 
L 199.700535 113.849131 
L 202.352941 125.202639 
L 205.005348 136.581796 
L 207.657754 147.787534 
L 210.31016 158.650793 
L 212.962567 169.033344 
L 215.614973 178.827453 
L 218.26738 187.954554 
L 220.919786 196.363122 
L 223.572193 204.025959 
L 226.224599 210.937082 
L 228.877005 217.108396 
L 231.529412 222.566322 
L 234.181818 227.348525 
L 236.834225 231.500833 
L 239.486631 235.074457 
L 242.139037 238.123544 
L 244.791444 240.703108 
L 247.44385 242.867339 
L 250.096257 244.668278 
L 252.748663 246.154844 
L 255.40107 247.372164 
L 258.053476 248.361179 
L 260.705882 249.158465 
L 263.358289 249.796249 
L 266.010695 250.302552 
L 268.663102 250.701442 
L 271.315508 251.01335 
L 273.967914 251.255427 
L 276.620321 251.441917 
L 279.272727 251.584527 
L 281.925134 251.692785 
L 284.57754 251.774367 
L 287.229947 251.835401 
L 289.882353 251.880734 
L 292.534759 251.914162 
L 295.187166 251.938636 
L 297.839572 251.956426 
L 300.491979 251.969266 
L 303.144385 251.978468 
L 305.796791 251.985016 
L 308.449198 251.989642 
L 311.101604 251.992888 
L 313.754011 251.995149 
L 316.406417 251.996714 
L 319.058824 251.997788 
L 321.71123 251.998522 
L 324.363636 251.999018 
L 327.016043 251.999353 
L 329.668449 251.999576 
L 332.320856 251.999724 
L 334.973262 251.999822 
L 337.625668 251.999885 
L 340.278075 251.999927 
L 342.930481 251.999954 
L 345.582888 251.999971 
L 348.235294 251.999982 
L 350.887701 251.999989 
L 353.540107 251.999993 
L 356.192513 251.999996 
L 358.84492 251.999997 
L 361.497326 251.999998 
L 364.149733 251.999999 
L 366.802139 251.999999 
L 369.454545 252 
L 372.106952 252 
L 374.759358 252 
L 377.411765 252 
L 380.064171 252 
L 382.716578 252 
L 385.368984 252 
L 388.02139 252 
L 390.673797 252 
L 393.326203 252 
L 395.97861 252 
L 398.631016 252 
L 401.283422 252 
L 403.935829 252 
L 406.588235 252 
" style="fill:none;stroke:#ff0000;stroke-linecap:square;stroke-width:1.5;"/>
   </g>
   <g id="line2d_16">
    <path clip-path="url(#p8dc998d1a6)" d="M 144 252 
L 146.652406 244.393863 
L 149.304813 236.829575 
L 151.957219 229.348603 
L 154.609626 221.99165 
L 157.262032 214.798288 
L 159.914439 207.806606 
L 162.566845 201.052869 
L 165.219251 194.571211 
L 167.871658 188.393344 
L 170.524064 182.548308 
L 173.176471 177.062243 
L 175.828877 171.958204 
L 178.481283 167.256011 
L 181.13369 162.972136 
L 183.786096 159.119629 
L 186.438503 155.708084 
L 189.090909 152.743643 
L 191.743316 150.22904 
L 194.395722 148.163671 
L 197.048128 146.543714 
L 199.700535 145.362262 
L 202.352941 144.609501 
L 205.005348 144.272902 
L 207.657754 144.337437 
L 210.31016 144.785822 
L 212.962567 145.598757 
L 215.614973 146.755198 
L 218.26738 148.232619 
L 220.919786 150.007284 
L 223.572193 152.054523 
L 226.224599 154.348996 
L 228.877005 156.864956 
L 231.529412 159.576501 
L 234.181818 162.457811 
L 236.834225 165.483379 
L 239.486631 168.62821 
L 242.139037 171.868022 
L 244.791444 175.179409 
L 247.44385 178.539993 
L 250.096257 181.928558 
L 252.748663 185.325153 
L 255.40107 188.711185 
L 258.053476 192.069482 
L 260.705882 195.384344 
L 263.358289 198.641566 
L 266.010695 201.828453 
L 268.663102 204.933814 
L 271.315508 207.947935 
L 273.967914 210.862547 
L 276.620321 213.670777 
L 279.272727 216.367092 
L 281.925134 218.947226 
L 284.57754 221.40811 
L 287.229947 223.747787 
L 289.882353 225.96533 
L 292.534759 228.060753 
L 295.187166 230.03492 
L 297.839572 231.889458 
L 300.491979 233.626662 
L 303.144385 235.249416 
L 305.796791 236.761101 
L 308.449198 238.165518 
L 311.101604 239.46681 
L 313.754011 240.66939 
L 316.406417 241.777872 
L 319.058824 242.79701 
L 321.71123 243.731642 
L 324.363636 244.586638 
L 327.016043 245.366853 
L 329.668449 246.077089 
L 332.320856 246.722059 
L 334.973262 247.306356 
L 337.625668 247.834431 
L 340.278075 248.310569 
L 342.930481 248.738874 
L 345.582888 249.123258 
L 348.235294 249.46743 
L 350.887701 249.774892 
L 353.540107 250.048934 
L 356.192513 250.292639 
L 358.84492 250.508877 
L 361.497326 250.700316 
L 364.149733 250.869424 
L 366.802139 251.018476 
L 369.454545 251.149561 
L 372.106952 251.264593 
L 374.759358 251.365318 
L 377.411765 251.453325 
L 380.064171 251.530053 
L 382.716578 251.596804 
L 385.368984 251.654752 
L 388.02139 251.704949 
L 390.673797 251.74834 
L 393.326203 251.785768 
L 395.97861 251.817986 
L 398.631016 251.845659 
L 401.283422 251.869379 
L 403.935829 251.889668 
L 406.588235 251.906986 
" style="fill:none;stroke:#0000ff;stroke-linecap:square;stroke-width:1.5;"/>
   </g>
   <g id="line2d_17">
    <path clip-path="url(#p8dc998d1a6)" d="M 158.787526 252 
L 158.787526 44.914286 
" style="fill:none;stroke:#000000;stroke-linecap:square;stroke-width:1.5;"/>
   </g>
   <g id="patch_52">
    <path d="M 144 252 
L 144 34.56 
" style="fill:none;stroke:#000000;stroke-linecap:square;stroke-linejoin:miter;stroke-width:0.8;"/>
   </g>
   <g id="patch_53">
    <path d="M 406.588235 252 
L 406.588235 34.56 
" style="fill:none;stroke:#000000;stroke-linecap:square;stroke-linejoin:miter;stroke-width:0.8;"/>
   </g>
   <g id="patch_54">
    <path d="M 144 252 
L 406.588235 252 
" style="fill:none;stroke:#000000;stroke-linecap:square;stroke-linejoin:miter;stroke-width:0.8;"/>
   </g>
   <g id="patch_55">
    <path d="M 144 34.56 
L 406.588235 34.56 
" style="fill:none;stroke:#000000;stroke-linecap:square;stroke-linejoin:miter;stroke-width:0.8;"/>
   </g>
   <g id="text_15">
    <!-- &lt;E1&gt; = 0.17 -->
    <g transform="translate(327.811765 65.622857)scale(0.1 -0.1)">
     <defs>
      <path d="M 73.1875 49.21875 
L 22.796875 31.296875 
L 73.1875 13.484375 
L 73.1875 4.59375 
L 10.59375 27.296875 
L 10.59375 35.40625 
L 73.1875 58.109375 
z
" id="DejaVuSans-60"/>
      <path d="M 9.8125 72.90625 
L 55.90625 72.90625 
L 55.90625 64.59375 
L 19.671875 64.59375 
L 19.671875 43.015625 
L 54.390625 43.015625 
L 54.390625 34.71875 
L 19.671875 34.71875 
L 19.671875 8.296875 
L 56.78125 8.296875 
L 56.78125 0 
L 9.8125 0 
z
" id="DejaVuSans-69"/>
      <path d="M 10.59375 49.21875 
L 10.59375 58.109375 
L 73.1875 35.40625 
L 73.1875 27.296875 
L 10.59375 4.59375 
L 10.59375 13.484375 
L 60.890625 31.296875 
z
" id="DejaVuSans-62"/>
      <path id="DejaVuSans-32"/>
      <path d="M 10.59375 45.40625 
L 73.1875 45.40625 
L 73.1875 37.203125 
L 10.59375 37.203125 
z
M 10.59375 25.484375 
L 73.1875 25.484375 
L 73.1875 17.1875 
L 10.59375 17.1875 
z
" id="DejaVuSans-61"/>
     </defs>
     <use xlink:href="#DejaVuSans-60"/>
     <use x="83.789062" xlink:href="#DejaVuSans-69"/>
     <use x="146.972656" xlink:href="#DejaVuSans-49"/>
     <use x="210.595703" xlink:href="#DejaVuSans-62"/>
     <use x="294.384766" xlink:href="#DejaVuSans-32"/>
     <use x="326.171875" xlink:href="#DejaVuSans-61"/>
     <use x="409.960938" xlink:href="#DejaVuSans-32"/>
     <use x="441.748047" xlink:href="#DejaVuSans-48"/>
     <use x="505.371094" xlink:href="#DejaVuSans-46"/>
     <use x="537.158203" xlink:href="#DejaVuSans-49"/>
     <use x="600.78125" xlink:href="#DejaVuSans-55"/>
    </g>
   </g>
  </g>
  <g id="axes_2">
   <g id="patch_56">
    <path d="M 459.105882 252 
L 721.694118 252 
L 721.694118 34.56 
L 459.105882 34.56 
z
" style="fill:#ffffff;"/>
   </g>
   <g id="patch_57">
    <path clip-path="url(#p94a370067b)" d="M 459.105882 252 
L 468.037455 252 
L 468.037455 238.60891 
L 459.105882 238.60891 
z
" style="fill:#1f77b4;"/>
   </g>
   <g id="patch_58">
    <path clip-path="url(#p94a370067b)" d="M 468.037455 252 
L 476.969028 252 
L 476.969028 214.05858 
L 468.037455 214.05858 
z
" style="fill:#1f77b4;"/>
   </g>
   <g id="patch_59">
    <path clip-path="url(#p94a370067b)" d="M 476.969028 252 
L 485.9006 252 
L 485.9006 178.349007 
L 476.969028 178.349007 
z
" style="fill:#1f77b4;"/>
   </g>
   <g id="patch_60">
    <path clip-path="url(#p94a370067b)" d="M 485.9006 252 
L 494.832173 252 
L 494.832173 150.450904 
L 485.9006 150.450904 
z
" style="fill:#1f77b4;"/>
   </g>
   <g id="patch_61">
    <path clip-path="url(#p94a370067b)" d="M 494.832173 252 
L 503.763745 252 
L 503.763745 121.436877 
L 494.832173 121.436877 
z
" style="fill:#1f77b4;"/>
   </g>
   <g id="patch_62">
    <path clip-path="url(#p94a370067b)" d="M 503.763745 252 
L 512.695318 252 
L 512.695318 101.350242 
L 503.763745 101.350242 
z
" style="fill:#1f77b4;"/>
   </g>
   <g id="patch_63">
    <path clip-path="url(#p94a370067b)" d="M 512.695318 252 
L 521.626891 252 
L 521.626891 61.176973 
L 512.695318 61.176973 
z
" style="fill:#1f77b4;"/>
   </g>
   <g id="patch_64">
    <path clip-path="url(#p94a370067b)" d="M 521.626891 252 
L 530.558463 252 
L 530.558463 81.263608 
L 521.626891 81.263608 
z
" style="fill:#1f77b4;"/>
   </g>
   <g id="patch_65">
    <path clip-path="url(#p94a370067b)" d="M 530.558463 252 
L 539.490036 252 
L 539.490036 65.64067 
L 530.558463 65.64067 
z
" style="fill:#1f77b4;"/>
   </g>
   <g id="patch_66">
    <path clip-path="url(#p94a370067b)" d="M 539.490036 252 
L 548.421609 252 
L 548.421609 86.843229 
L 539.490036 86.843229 
z
" style="fill:#1f77b4;"/>
   </g>
   <g id="patch_67">
    <path clip-path="url(#p94a370067b)" d="M 548.421609 252 
L 557.353181 252 
L 557.353181 103.58209 
L 548.421609 103.58209 
z
" style="fill:#1f77b4;"/>
   </g>
   <g id="patch_68">
    <path clip-path="url(#p94a370067b)" d="M 557.353181 252 
L 566.284754 252 
L 566.284754 143.755359 
L 557.353181 143.755359 
z
" style="fill:#1f77b4;"/>
   </g>
   <g id="patch_69">
    <path clip-path="url(#p94a370067b)" d="M 566.284754 252 
L 575.216327 252 
L 575.216327 172.769387 
L 566.284754 172.769387 
z
" style="fill:#1f77b4;"/>
   </g>
   <g id="patch_70">
    <path clip-path="url(#p94a370067b)" d="M 575.216327 252 
L 584.147899 252 
L 584.147899 191.740097 
L 575.216327 191.740097 
z
" style="fill:#1f77b4;"/>
   </g>
   <g id="patch_71">
    <path clip-path="url(#p94a370067b)" d="M 584.147899 252 
L 593.079472 252 
L 593.079472 220.754124 
L 584.147899 220.754124 
z
" style="fill:#1f77b4;"/>
   </g>
   <g id="patch_72">
    <path clip-path="url(#p94a370067b)" d="M 593.079472 252 
L 602.011044 252 
L 602.011044 235.261138 
L 593.079472 235.261138 
z
" style="fill:#1f77b4;"/>
   </g>
   <g id="patch_73">
    <path clip-path="url(#p94a370067b)" d="M 602.011044 252 
L 610.942617 252 
L 610.942617 244.188531 
L 602.011044 244.188531 
z
" style="fill:#1f77b4;"/>
   </g>
   <g id="patch_74">
    <path clip-path="url(#p94a370067b)" d="M 610.942617 252 
L 619.87419 252 
L 619.87419 245.304455 
L 610.942617 245.304455 
z
" style="fill:#1f77b4;"/>
   </g>
   <g id="patch_75">
    <path clip-path="url(#p94a370067b)" d="M 619.87419 252 
L 628.805762 252 
L 628.805762 246.420379 
L 619.87419 246.420379 
z
" style="fill:#1f77b4;"/>
   </g>
   <g id="patch_76">
    <path clip-path="url(#p94a370067b)" d="M 628.805762 252 
L 637.737335 252 
L 637.737335 249.768152 
L 628.805762 249.768152 
z
" style="fill:#1f77b4;"/>
   </g>
   <g id="patch_77">
    <path clip-path="url(#p94a370067b)" d="M 637.737335 252 
L 646.668908 252 
L 646.668908 250.884076 
L 637.737335 250.884076 
z
" style="fill:#1f77b4;"/>
   </g>
   <g id="patch_78">
    <path clip-path="url(#p94a370067b)" d="M 646.668908 252 
L 655.60048 252 
L 655.60048 252 
L 646.668908 252 
z
" style="fill:#1f77b4;"/>
   </g>
   <g id="patch_79">
    <path clip-path="url(#p94a370067b)" d="M 655.60048 252 
L 664.532053 252 
L 664.532053 250.884076 
L 655.60048 250.884076 
z
" style="fill:#1f77b4;"/>
   </g>
   <g id="patch_80">
    <path clip-path="url(#p94a370067b)" d="M 664.532053 252 
L 673.463625 252 
L 673.463625 252 
L 664.532053 252 
z
" style="fill:#1f77b4;"/>
   </g>
   <g id="patch_81">
    <path clip-path="url(#p94a370067b)" d="M 673.463625 252 
L 682.395198 252 
L 682.395198 252 
L 673.463625 252 
z
" style="fill:#1f77b4;"/>
   </g>
   <g id="patch_82">
    <path clip-path="url(#p94a370067b)" d="M 682.395198 252 
L 691.326771 252 
L 691.326771 252 
L 682.395198 252 
z
" style="fill:#1f77b4;"/>
   </g>
   <g id="patch_83">
    <path clip-path="url(#p94a370067b)" d="M 691.326771 252 
L 700.258343 252 
L 700.258343 252 
L 691.326771 252 
z
" style="fill:#1f77b4;"/>
   </g>
   <g id="patch_84">
    <path clip-path="url(#p94a370067b)" d="M 700.258343 252 
L 709.189916 252 
L 709.189916 252 
L 700.258343 252 
z
" style="fill:#1f77b4;"/>
   </g>
   <g id="patch_85">
    <path clip-path="url(#p94a370067b)" d="M 709.189916 252 
L 718.121489 252 
L 718.121489 252 
L 709.189916 252 
z
" style="fill:#1f77b4;"/>
   </g>
   <g id="patch_86">
    <path clip-path="url(#p94a370067b)" d="M 718.121489 252 
L 727.053061 252 
L 727.053061 252 
L 718.121489 252 
z
" style="fill:#1f77b4;"/>
   </g>
   <g id="patch_87">
    <path clip-path="url(#p94a370067b)" d="M 727.053061 252 
L 735.984634 252 
L 735.984634 252 
L 727.053061 252 
z
" style="fill:#1f77b4;"/>
   </g>
   <g id="patch_88">
    <path clip-path="url(#p94a370067b)" d="M 735.984634 252 
L 744.916206 252 
L 744.916206 252 
L 735.984634 252 
z
" style="fill:#1f77b4;"/>
   </g>
   <g id="patch_89">
    <path clip-path="url(#p94a370067b)" d="M 744.916206 252 
L 753.847779 252 
L 753.847779 252 
L 744.916206 252 
z
" style="fill:#1f77b4;"/>
   </g>
   <g id="patch_90">
    <path clip-path="url(#p94a370067b)" d="M 753.847779 252 
L 762.779352 252 
L 762.779352 252 
L 753.847779 252 
z
" style="fill:#1f77b4;"/>
   </g>
   <g id="patch_91">
    <path clip-path="url(#p94a370067b)" d="M 762.779352 252 
L 771.710924 252 
L 771.710924 252 
L 762.779352 252 
z
" style="fill:#1f77b4;"/>
   </g>
   <g id="patch_92">
    <path clip-path="url(#p94a370067b)" d="M 771.710924 252 
L 780.642497 252 
L 780.642497 252 
L 771.710924 252 
z
" style="fill:#1f77b4;"/>
   </g>
   <g id="patch_93">
    <path clip-path="url(#p94a370067b)" d="M 780.642497 252 
L 789.57407 252 
L 789.57407 252 
L 780.642497 252 
z
" style="fill:#1f77b4;"/>
   </g>
   <g id="patch_94">
    <path clip-path="url(#p94a370067b)" d="M 789.57407 252 
L 798.505642 252 
L 798.505642 252 
L 789.57407 252 
z
" style="fill:#1f77b4;"/>
   </g>
   <g id="patch_95">
    <path clip-path="url(#p94a370067b)" d="M 798.505642 252 
L 807.437215 252 
L 807.437215 252 
L 798.505642 252 
z
" style="fill:#1f77b4;"/>
   </g>
   <g id="patch_96">
    <path clip-path="url(#p94a370067b)" d="M 807.437215 252 
L 816.368788 252 
L 816.368788 252 
L 807.437215 252 
z
" style="fill:#1f77b4;"/>
   </g>
   <g id="patch_97">
    <path clip-path="url(#p94a370067b)" d="M 816.368788 252 
L 825.30036 252 
L 825.30036 252 
L 816.368788 252 
z
" style="fill:#1f77b4;"/>
   </g>
   <g id="patch_98">
    <path clip-path="url(#p94a370067b)" d="M 825.30036 252 
L 834.231933 252 
L 834.231933 252 
L 825.30036 252 
z
" style="fill:#1f77b4;"/>
   </g>
   <g id="patch_99">
    <path clip-path="url(#p94a370067b)" d="M 834.231933 252 
L 843.163505 252 
L 843.163505 252 
L 834.231933 252 
z
" style="fill:#1f77b4;"/>
   </g>
   <g id="patch_100">
    <path clip-path="url(#p94a370067b)" d="M 843.163505 252 
L 852.095078 252 
L 852.095078 252 
L 843.163505 252 
z
" style="fill:#1f77b4;"/>
   </g>
   <g id="patch_101">
    <path clip-path="url(#p94a370067b)" d="M 852.095078 252 
L 861.026651 252 
L 861.026651 252 
L 852.095078 252 
z
" style="fill:#1f77b4;"/>
   </g>
   <g id="patch_102">
    <path clip-path="url(#p94a370067b)" d="M 861.026651 252 
L 869.958223 252 
L 869.958223 252 
L 861.026651 252 
z
" style="fill:#1f77b4;"/>
   </g>
   <g id="patch_103">
    <path clip-path="url(#p94a370067b)" d="M 869.958223 252 
L 878.889796 252 
L 878.889796 252 
L 869.958223 252 
z
" style="fill:#1f77b4;"/>
   </g>
   <g id="patch_104">
    <path clip-path="url(#p94a370067b)" d="M 878.889796 252 
L 887.821369 252 
L 887.821369 252 
L 878.889796 252 
z
" style="fill:#1f77b4;"/>
   </g>
   <g id="patch_105">
    <path clip-path="url(#p94a370067b)" d="M 887.821369 252 
L 896.752941 252 
L 896.752941 252 
L 887.821369 252 
z
" style="fill:#1f77b4;"/>
   </g>
   <g id="matplotlib.axis_3">
    <g id="xtick_8">
     <g id="line2d_18">
      <g>
       <use style="stroke:#000000;stroke-width:0.8;" x="459.105882" xlink:href="#m901cf6b36d" y="252"/>
      </g>
     </g>
     <g id="text_16">
      <!-- 0.0 -->
      <g transform="translate(447.973695 269.637812)scale(0.14 -0.14)">
       <use xlink:href="#DejaVuSans-48"/>
       <use x="63.623047" xlink:href="#DejaVuSans-46"/>
       <use x="95.410156" xlink:href="#DejaVuSans-48"/>
      </g>
     </g>
    </g>
    <g id="xtick_9">
     <g id="line2d_19">
      <g>
       <use style="stroke:#000000;stroke-width:0.8;" x="502.870588" xlink:href="#m901cf6b36d" y="252"/>
      </g>
     </g>
     <g id="text_17">
      <!-- 0.5 -->
      <g transform="translate(491.738401 269.637812)scale(0.14 -0.14)">
       <use xlink:href="#DejaVuSans-48"/>
       <use x="63.623047" xlink:href="#DejaVuSans-46"/>
       <use x="95.410156" xlink:href="#DejaVuSans-53"/>
      </g>
     </g>
    </g>
    <g id="xtick_10">
     <g id="line2d_20">
      <g>
       <use style="stroke:#000000;stroke-width:0.8;" x="546.635294" xlink:href="#m901cf6b36d" y="252"/>
      </g>
     </g>
     <g id="text_18">
      <!-- 1.0 -->
      <g transform="translate(535.503107 269.637812)scale(0.14 -0.14)">
       <use xlink:href="#DejaVuSans-49"/>
       <use x="63.623047" xlink:href="#DejaVuSans-46"/>
       <use x="95.410156" xlink:href="#DejaVuSans-48"/>
      </g>
     </g>
    </g>
    <g id="xtick_11">
     <g id="line2d_21">
      <g>
       <use style="stroke:#000000;stroke-width:0.8;" x="590.4" xlink:href="#m901cf6b36d" y="252"/>
      </g>
     </g>
     <g id="text_19">
      <!-- 1.5 -->
      <g transform="translate(579.267813 269.637812)scale(0.14 -0.14)">
       <use xlink:href="#DejaVuSans-49"/>
       <use x="63.623047" xlink:href="#DejaVuSans-46"/>
       <use x="95.410156" xlink:href="#DejaVuSans-53"/>
      </g>
     </g>
    </g>
    <g id="xtick_12">
     <g id="line2d_22">
      <g>
       <use style="stroke:#000000;stroke-width:0.8;" x="634.164706" xlink:href="#m901cf6b36d" y="252"/>
      </g>
     </g>
     <g id="text_20">
      <!-- 2.0 -->
      <g transform="translate(623.032518 269.637812)scale(0.14 -0.14)">
       <use xlink:href="#DejaVuSans-50"/>
       <use x="63.623047" xlink:href="#DejaVuSans-46"/>
       <use x="95.410156" xlink:href="#DejaVuSans-48"/>
      </g>
     </g>
    </g>
    <g id="xtick_13">
     <g id="line2d_23">
      <g>
       <use style="stroke:#000000;stroke-width:0.8;" x="677.929412" xlink:href="#m901cf6b36d" y="252"/>
      </g>
     </g>
     <g id="text_21">
      <!-- 2.5 -->
      <g transform="translate(666.797224 269.637812)scale(0.14 -0.14)">
       <use xlink:href="#DejaVuSans-50"/>
       <use x="63.623047" xlink:href="#DejaVuSans-46"/>
       <use x="95.410156" xlink:href="#DejaVuSans-53"/>
      </g>
     </g>
    </g>
    <g id="xtick_14">
     <g id="line2d_24">
      <g>
       <use style="stroke:#000000;stroke-width:0.8;" x="721.694118" xlink:href="#m901cf6b36d" y="252"/>
      </g>
     </g>
     <g id="text_22">
      <!-- 3.0 -->
      <g transform="translate(710.56193 269.637812)scale(0.14 -0.14)">
       <use xlink:href="#DejaVuSans-51"/>
       <use x="63.623047" xlink:href="#DejaVuSans-46"/>
       <use x="95.410156" xlink:href="#DejaVuSans-48"/>
      </g>
     </g>
    </g>
   </g>
   <g id="matplotlib.axis_4">
    <g id="ytick_8">
     <g id="line2d_25">
      <g>
       <use style="stroke:#000000;stroke-width:0.8;" x="459.105882" xlink:href="#mf0b39dfee7" y="252"/>
      </g>
     </g>
     <g id="text_23">
      <!-- 0.0 -->
      <g transform="translate(429.841507 257.318906)scale(0.14 -0.14)">
       <use xlink:href="#DejaVuSans-48"/>
       <use x="63.623047" xlink:href="#DejaVuSans-46"/>
       <use x="95.410156" xlink:href="#DejaVuSans-48"/>
      </g>
     </g>
    </g>
    <g id="ytick_9">
     <g id="line2d_26">
      <g>
       <use style="stroke:#000000;stroke-width:0.8;" x="459.105882" xlink:href="#mf0b39dfee7" y="217.520222"/>
      </g>
     </g>
     <g id="text_24">
      <!-- 0.2 -->
      <g transform="translate(429.841507 222.839128)scale(0.14 -0.14)">
       <use xlink:href="#DejaVuSans-48"/>
       <use x="63.623047" xlink:href="#DejaVuSans-46"/>
       <use x="95.410156" xlink:href="#DejaVuSans-50"/>
      </g>
     </g>
    </g>
    <g id="ytick_10">
     <g id="line2d_27">
      <g>
       <use style="stroke:#000000;stroke-width:0.8;" x="459.105882" xlink:href="#mf0b39dfee7" y="183.040443"/>
      </g>
     </g>
     <g id="text_25">
      <!-- 0.4 -->
      <g transform="translate(429.841507 188.35935)scale(0.14 -0.14)">
       <defs>
        <path d="M 37.796875 64.3125 
L 12.890625 25.390625 
L 37.796875 25.390625 
z
M 35.203125 72.90625 
L 47.609375 72.90625 
L 47.609375 25.390625 
L 58.015625 25.390625 
L 58.015625 17.1875 
L 47.609375 17.1875 
L 47.609375 0 
L 37.796875 0 
L 37.796875 17.1875 
L 4.890625 17.1875 
L 4.890625 26.703125 
z
" id="DejaVuSans-52"/>
       </defs>
       <use xlink:href="#DejaVuSans-48"/>
       <use x="63.623047" xlink:href="#DejaVuSans-46"/>
       <use x="95.410156" xlink:href="#DejaVuSans-52"/>
      </g>
     </g>
    </g>
    <g id="ytick_11">
     <g id="line2d_28">
      <g>
       <use style="stroke:#000000;stroke-width:0.8;" x="459.105882" xlink:href="#mf0b39dfee7" y="148.560665"/>
      </g>
     </g>
     <g id="text_26">
      <!-- 0.6 -->
      <g transform="translate(429.841507 153.879571)scale(0.14 -0.14)">
       <defs>
        <path d="M 33.015625 40.375 
Q 26.375 40.375 22.484375 35.828125 
Q 18.609375 31.296875 18.609375 23.390625 
Q 18.609375 15.53125 22.484375 10.953125 
Q 26.375 6.390625 33.015625 6.390625 
Q 39.65625 6.390625 43.53125 10.953125 
Q 47.40625 15.53125 47.40625 23.390625 
Q 47.40625 31.296875 43.53125 35.828125 
Q 39.65625 40.375 33.015625 40.375 
z
M 52.59375 71.296875 
L 52.59375 62.3125 
Q 48.875 64.0625 45.09375 64.984375 
Q 41.3125 65.921875 37.59375 65.921875 
Q 27.828125 65.921875 22.671875 59.328125 
Q 17.53125 52.734375 16.796875 39.40625 
Q 19.671875 43.65625 24.015625 45.921875 
Q 28.375 48.1875 33.59375 48.1875 
Q 44.578125 48.1875 50.953125 41.515625 
Q 57.328125 34.859375 57.328125 23.390625 
Q 57.328125 12.15625 50.6875 5.359375 
Q 44.046875 -1.421875 33.015625 -1.421875 
Q 20.359375 -1.421875 13.671875 8.265625 
Q 6.984375 17.96875 6.984375 36.375 
Q 6.984375 53.65625 15.1875 63.9375 
Q 23.390625 74.21875 37.203125 74.21875 
Q 40.921875 74.21875 44.703125 73.484375 
Q 48.484375 72.75 52.59375 71.296875 
z
" id="DejaVuSans-54"/>
       </defs>
       <use xlink:href="#DejaVuSans-48"/>
       <use x="63.623047" xlink:href="#DejaVuSans-46"/>
       <use x="95.410156" xlink:href="#DejaVuSans-54"/>
      </g>
     </g>
    </g>
    <g id="ytick_12">
     <g id="line2d_29">
      <g>
       <use style="stroke:#000000;stroke-width:0.8;" x="459.105882" xlink:href="#mf0b39dfee7" y="114.080887"/>
      </g>
     </g>
     <g id="text_27">
      <!-- 0.8 -->
      <g transform="translate(429.841507 119.399793)scale(0.14 -0.14)">
       <defs>
        <path d="M 31.78125 34.625 
Q 24.75 34.625 20.71875 30.859375 
Q 16.703125 27.09375 16.703125 20.515625 
Q 16.703125 13.921875 20.71875 10.15625 
Q 24.75 6.390625 31.78125 6.390625 
Q 38.8125 6.390625 42.859375 10.171875 
Q 46.921875 13.96875 46.921875 20.515625 
Q 46.921875 27.09375 42.890625 30.859375 
Q 38.875 34.625 31.78125 34.625 
z
M 21.921875 38.8125 
Q 15.578125 40.375 12.03125 44.71875 
Q 8.5 49.078125 8.5 55.328125 
Q 8.5 64.0625 14.71875 69.140625 
Q 20.953125 74.21875 31.78125 74.21875 
Q 42.671875 74.21875 48.875 69.140625 
Q 55.078125 64.0625 55.078125 55.328125 
Q 55.078125 49.078125 51.53125 44.71875 
Q 48 40.375 41.703125 38.8125 
Q 48.828125 37.15625 52.796875 32.3125 
Q 56.78125 27.484375 56.78125 20.515625 
Q 56.78125 9.90625 50.3125 4.234375 
Q 43.84375 -1.421875 31.78125 -1.421875 
Q 19.734375 -1.421875 13.25 4.234375 
Q 6.78125 9.90625 6.78125 20.515625 
Q 6.78125 27.484375 10.78125 32.3125 
Q 14.796875 37.15625 21.921875 38.8125 
z
M 18.3125 54.390625 
Q 18.3125 48.734375 21.84375 45.5625 
Q 25.390625 42.390625 31.78125 42.390625 
Q 38.140625 42.390625 41.71875 45.5625 
Q 45.3125 48.734375 45.3125 54.390625 
Q 45.3125 60.0625 41.71875 63.234375 
Q 38.140625 66.40625 31.78125 66.40625 
Q 25.390625 66.40625 21.84375 63.234375 
Q 18.3125 60.0625 18.3125 54.390625 
z
" id="DejaVuSans-56"/>
       </defs>
       <use xlink:href="#DejaVuSans-48"/>
       <use x="63.623047" xlink:href="#DejaVuSans-46"/>
       <use x="95.410156" xlink:href="#DejaVuSans-56"/>
      </g>
     </g>
    </g>
    <g id="ytick_13">
     <g id="line2d_30">
      <g>
       <use style="stroke:#000000;stroke-width:0.8;" x="459.105882" xlink:href="#mf0b39dfee7" y="79.601109"/>
      </g>
     </g>
     <g id="text_28">
      <!-- 1.0 -->
      <g transform="translate(429.841507 84.920015)scale(0.14 -0.14)">
       <use xlink:href="#DejaVuSans-49"/>
       <use x="63.623047" xlink:href="#DejaVuSans-46"/>
       <use x="95.410156" xlink:href="#DejaVuSans-48"/>
      </g>
     </g>
    </g>
    <g id="ytick_14">
     <g id="line2d_31">
      <g>
       <use style="stroke:#000000;stroke-width:0.8;" x="459.105882" xlink:href="#mf0b39dfee7" y="45.12133"/>
      </g>
     </g>
     <g id="text_29">
      <!-- 1.2 -->
      <g transform="translate(429.841507 50.440237)scale(0.14 -0.14)">
       <use xlink:href="#DejaVuSans-49"/>
       <use x="63.623047" xlink:href="#DejaVuSans-46"/>
       <use x="95.410156" xlink:href="#DejaVuSans-50"/>
      </g>
     </g>
    </g>
   </g>
   <g id="line2d_32">
    <path clip-path="url(#p94a370067b)" d="M 459.105882 252 
L 461.758289 245.996557 
L 464.410695 239.894375 
L 467.063102 233.598568 
L 469.715508 227.021868 
L 472.367914 220.088213 
L 475.020321 212.736065 
L 477.672727 204.921369 
L 480.325134 196.620059 
L 482.97754 187.830013 
L 485.629947 178.572382 
L 488.282353 168.892213 
L 490.934759 158.858292 
L 493.587166 148.562195 
L 496.239572 138.1165 
L 498.891979 127.652206 
L 501.544385 117.315385 
L 504.196791 107.263173 
L 506.849198 97.659205 
L 509.501604 88.668659 
L 512.154011 80.453077 
L 514.806417 73.165171 
L 517.458824 66.943804 
L 520.11123 61.909378 
L 522.763636 58.159795 
L 525.416043 55.767183 
L 528.068449 54.77551 
L 530.720856 55.199202 
L 533.373262 57.022797 
L 536.025668 60.201653 
L 538.678075 64.663656 
L 541.330481 70.311846 
L 543.982888 77.027814 
L 546.635294 84.675715 
L 549.287701 93.106715 
L 551.940107 102.163663 
L 554.592513 111.685785 
L 557.24492 121.513237 
L 559.897326 131.491306 
L 562.549733 141.474149 
L 565.202139 151.327946 
L 567.854545 160.933382 
L 570.506952 170.187439 
L 573.159358 179.004477 
L 575.811765 187.316638 
L 578.464171 195.073636 
L 581.116578 202.241998 
L 583.768984 208.803861 
L 586.42139 214.755419 
L 589.073797 220.105125 
L 591.726203 224.871761 
L 594.37861 229.082445 
L 597.031016 232.770682 
L 599.683422 235.974516 
L 602.335829 238.734834 
L 604.988235 241.093861 
L 607.640642 243.09388 
L 610.293048 244.776172 
L 612.945455 246.180176 
L 615.597861 247.342876 
L 618.250267 248.298368 
L 620.902674 249.077611 
L 623.55508 249.70832 
L 626.207487 250.214982 
L 628.859893 250.618962 
L 631.512299 250.938684 
L 634.164706 251.189859 
L 636.817112 251.385735 
L 639.469519 251.537373 
L 642.121925 251.653911 
L 644.774332 251.742826 
L 647.426738 251.810176 
L 650.079144 251.860826 
L 652.731551 251.898643 
L 655.383957 251.926678 
L 658.036364 251.947313 
L 660.68877 251.962394 
L 663.341176 251.973337 
L 665.993583 251.981222 
L 668.645989 251.986864 
L 671.298396 251.990871 
L 673.950802 251.993699 
L 676.603209 251.99568 
L 679.255615 251.997057 
L 681.908021 251.998009 
L 684.560428 251.998662 
L 687.212834 251.999107 
L 689.865241 251.999408 
L 692.517647 251.99961 
L 695.170053 251.999745 
L 697.82246 251.999834 
L 700.474866 251.999893 
L 703.127273 251.999931 
L 705.779679 251.999956 
L 708.432086 251.999972 
L 711.084492 251.999983 
L 713.736898 251.999989 
L 716.389305 251.999993 
L 719.041711 251.999996 
L 721.694118 251.999997 
" style="fill:none;stroke:#ff0000;stroke-linecap:square;stroke-width:1.5;"/>
   </g>
   <g id="line2d_33">
    <path clip-path="url(#p94a370067b)" d="M 459.105882 252 
L 461.758289 241.561172 
L 464.410695 231.17978 
L 467.063102 220.912731 
L 469.715508 210.815889 
L 472.367914 200.943564 
L 475.020321 191.348027 
L 477.672727 182.079052 
L 480.325134 173.183484 
L 482.97754 164.704845 
L 485.629947 156.682991 
L 488.282353 149.153796 
L 490.934759 142.148902 
L 493.587166 135.695511 
L 496.239572 129.816228 
L 498.891979 124.528963 
L 501.544385 119.846885 
L 504.196791 115.778422 
L 506.849198 112.327326 
L 509.501604 109.492769 
L 512.154011 107.269504 
L 514.806417 105.648054 
L 517.458824 104.614949 
L 520.11123 104.152993 
L 522.763636 104.241563 
L 525.416043 104.856935 
L 528.068449 105.972626 
L 530.720856 107.55975 
L 533.373262 109.587394 
L 536.025668 112.022984 
L 538.678075 114.832659 
L 541.330481 117.981644 
L 543.982888 121.434602 
L 546.635294 125.155984 
L 549.287701 129.110358 
L 551.940107 133.262712 
L 554.592513 137.578747 
L 557.24492 142.025135 
L 559.897326 146.569754 
L 562.549733 151.181892 
L 565.202139 155.832432 
L 567.854545 160.493993 
L 570.506952 165.141057 
L 573.159358 169.750057 
L 575.811765 174.299445 
L 578.464171 178.769727 
L 581.116578 183.143481 
L 583.768984 187.405345 
L 586.42139 191.54199 
L 589.073797 195.542066 
L 591.726203 199.396143 
L 594.37861 203.096624 
L 597.031016 206.637656 
L 599.683422 210.015026 
L 602.335829 213.226049 
L 604.988235 216.269454 
L 607.640642 219.145258 
L 610.293048 221.854648 
L 612.945455 224.399855 
L 615.597861 226.784032 
L 618.250267 229.011135 
L 620.902674 231.085804 
L 623.55508 233.013256 
L 626.207487 234.799178 
L 628.859893 236.449625 
L 631.512299 237.970929 
L 634.164706 239.369617 
L 636.817112 240.652326 
L 639.469519 241.825741 
L 642.121925 242.896525 
L 644.774332 243.871268 
L 647.426738 244.756439 
L 650.079144 245.558341 
L 652.731551 246.283083 
L 655.383957 246.936544 
L 658.036364 247.52436 
L 660.68877 248.051897 
L 663.341176 248.524246 
L 665.993583 248.946213 
L 668.645989 249.322315 
L 671.298396 249.65678 
L 673.950802 249.953551 
L 676.603209 250.216286 
L 679.255615 250.448373 
L 681.908021 250.652935 
L 684.560428 250.832839 
L 687.212834 250.990711 
L 689.865241 251.128949 
L 692.517647 251.249731 
L 695.170053 251.355035 
L 697.82246 251.446645 
L 700.474866 251.526173 
L 703.127273 251.595065 
L 705.779679 251.654616 
L 708.432086 251.705984 
L 711.084492 251.750199 
L 713.736898 251.788178 
L 716.389305 251.820732 
L 719.041711 251.848578 
L 721.694118 251.872346 
" style="fill:none;stroke:#0000ff;stroke-linecap:square;stroke-width:1.5;"/>
   </g>
   <g id="line2d_34">
    <path clip-path="url(#p94a370067b)" d="M 532.66491 252 
L 532.66491 44.914286 
" style="fill:none;stroke:#000000;stroke-linecap:square;stroke-width:1.5;"/>
   </g>
   <g id="patch_106">
    <path d="M 459.105882 252 
L 459.105882 34.56 
" style="fill:none;stroke:#000000;stroke-linecap:square;stroke-linejoin:miter;stroke-width:0.8;"/>
   </g>
   <g id="patch_107">
    <path d="M 721.694118 252 
L 721.694118 34.56 
" style="fill:none;stroke:#000000;stroke-linecap:square;stroke-linejoin:miter;stroke-width:0.8;"/>
   </g>
   <g id="patch_108">
    <path d="M 459.105882 252 
L 721.694118 252 
" style="fill:none;stroke:#000000;stroke-linecap:square;stroke-linejoin:miter;stroke-width:0.8;"/>
   </g>
   <g id="patch_109">
    <path d="M 459.105882 34.56 
L 721.694118 34.56 
" style="fill:none;stroke:#000000;stroke-linecap:square;stroke-linejoin:miter;stroke-width:0.8;"/>
   </g>
   <g id="text_30">
    <!-- &lt;E1&gt; = 0.84 -->
    <g transform="translate(642.917647 65.622857)scale(0.1 -0.1)">
     <use xlink:href="#DejaVuSans-60"/>
     <use x="83.789062" xlink:href="#DejaVuSans-69"/>
     <use x="146.972656" xlink:href="#DejaVuSans-49"/>
     <use x="210.595703" xlink:href="#DejaVuSans-62"/>
     <use x="294.384766" xlink:href="#DejaVuSans-32"/>
     <use x="326.171875" xlink:href="#DejaVuSans-61"/>
     <use x="409.960938" xlink:href="#DejaVuSans-32"/>
     <use x="441.748047" xlink:href="#DejaVuSans-48"/>
     <use x="505.371094" xlink:href="#DejaVuSans-46"/>
     <use x="537.158203" xlink:href="#DejaVuSans-56"/>
     <use x="600.78125" xlink:href="#DejaVuSans-52"/>
    </g>
   </g>
   <g id="text_31">
    <!-- Conditional histograms (acentric, real data) -->
    <g transform="translate(407.181563 28.56)scale(0.168 -0.168)">
     <defs>
      <path d="M 64.40625 67.28125 
L 64.40625 56.890625 
Q 59.421875 61.53125 53.78125 63.8125 
Q 48.140625 66.109375 41.796875 66.109375 
Q 29.296875 66.109375 22.65625 58.46875 
Q 16.015625 50.828125 16.015625 36.375 
Q 16.015625 21.96875 22.65625 14.328125 
Q 29.296875 6.6875 41.796875 6.6875 
Q 48.140625 6.6875 53.78125 8.984375 
Q 59.421875 11.28125 64.40625 15.921875 
L 64.40625 5.609375 
Q 59.234375 2.09375 53.4375 0.328125 
Q 47.65625 -1.421875 41.21875 -1.421875 
Q 24.65625 -1.421875 15.125 8.703125 
Q 5.609375 18.84375 5.609375 36.375 
Q 5.609375 53.953125 15.125 64.078125 
Q 24.65625 74.21875 41.21875 74.21875 
Q 47.75 74.21875 53.53125 72.484375 
Q 59.328125 70.75 64.40625 67.28125 
z
" id="DejaVuSans-67"/>
      <path d="M 30.609375 48.390625 
Q 23.390625 48.390625 19.1875 42.75 
Q 14.984375 37.109375 14.984375 27.296875 
Q 14.984375 17.484375 19.15625 11.84375 
Q 23.34375 6.203125 30.609375 6.203125 
Q 37.796875 6.203125 41.984375 11.859375 
Q 46.1875 17.53125 46.1875 27.296875 
Q 46.1875 37.015625 41.984375 42.703125 
Q 37.796875 48.390625 30.609375 48.390625 
z
M 30.609375 56 
Q 42.328125 56 49.015625 48.375 
Q 55.71875 40.765625 55.71875 27.296875 
Q 55.71875 13.875 49.015625 6.21875 
Q 42.328125 -1.421875 30.609375 -1.421875 
Q 18.84375 -1.421875 12.171875 6.21875 
Q 5.515625 13.875 5.515625 27.296875 
Q 5.515625 40.765625 12.171875 48.375 
Q 18.84375 56 30.609375 56 
z
" id="DejaVuSans-111"/>
      <path d="M 54.890625 33.015625 
L 54.890625 0 
L 45.90625 0 
L 45.90625 32.71875 
Q 45.90625 40.484375 42.875 44.328125 
Q 39.84375 48.1875 33.796875 48.1875 
Q 26.515625 48.1875 22.3125 43.546875 
Q 18.109375 38.921875 18.109375 30.90625 
L 18.109375 0 
L 9.078125 0 
L 9.078125 54.6875 
L 18.109375 54.6875 
L 18.109375 46.1875 
Q 21.34375 51.125 25.703125 53.5625 
Q 30.078125 56 35.796875 56 
Q 45.21875 56 50.046875 50.171875 
Q 54.890625 44.34375 54.890625 33.015625 
z
" id="DejaVuSans-110"/>
      <path d="M 45.40625 46.390625 
L 45.40625 75.984375 
L 54.390625 75.984375 
L 54.390625 0 
L 45.40625 0 
L 45.40625 8.203125 
Q 42.578125 3.328125 38.25 0.953125 
Q 33.9375 -1.421875 27.875 -1.421875 
Q 17.96875 -1.421875 11.734375 6.484375 
Q 5.515625 14.40625 5.515625 27.296875 
Q 5.515625 40.1875 11.734375 48.09375 
Q 17.96875 56 27.875 56 
Q 33.9375 56 38.25 53.625 
Q 42.578125 51.265625 45.40625 46.390625 
z
M 14.796875 27.296875 
Q 14.796875 17.390625 18.875 11.75 
Q 22.953125 6.109375 30.078125 6.109375 
Q 37.203125 6.109375 41.296875 11.75 
Q 45.40625 17.390625 45.40625 27.296875 
Q 45.40625 37.203125 41.296875 42.84375 
Q 37.203125 48.484375 30.078125 48.484375 
Q 22.953125 48.484375 18.875 42.84375 
Q 14.796875 37.203125 14.796875 27.296875 
z
" id="DejaVuSans-100"/>
      <path d="M 9.421875 54.6875 
L 18.40625 54.6875 
L 18.40625 0 
L 9.421875 0 
z
M 9.421875 75.984375 
L 18.40625 75.984375 
L 18.40625 64.59375 
L 9.421875 64.59375 
z
" id="DejaVuSans-105"/>
      <path d="M 18.3125 70.21875 
L 18.3125 54.6875 
L 36.8125 54.6875 
L 36.8125 47.703125 
L 18.3125 47.703125 
L 18.3125 18.015625 
Q 18.3125 11.328125 20.140625 9.421875 
Q 21.96875 7.515625 27.59375 7.515625 
L 36.8125 7.515625 
L 36.8125 0 
L 27.59375 0 
Q 17.1875 0 13.234375 3.875 
Q 9.28125 7.765625 9.28125 18.015625 
L 9.28125 47.703125 
L 2.6875 47.703125 
L 2.6875 54.6875 
L 9.28125 54.6875 
L 9.28125 70.21875 
z
" id="DejaVuSans-116"/>
      <path d="M 34.28125 27.484375 
Q 23.390625 27.484375 19.1875 25 
Q 14.984375 22.515625 14.984375 16.5 
Q 14.984375 11.71875 18.140625 8.90625 
Q 21.296875 6.109375 26.703125 6.109375 
Q 34.1875 6.109375 38.703125 11.40625 
Q 43.21875 16.703125 43.21875 25.484375 
L 43.21875 27.484375 
z
M 52.203125 31.203125 
L 52.203125 0 
L 43.21875 0 
L 43.21875 8.296875 
Q 40.140625 3.328125 35.546875 0.953125 
Q 30.953125 -1.421875 24.3125 -1.421875 
Q 15.921875 -1.421875 10.953125 3.296875 
Q 6 8.015625 6 15.921875 
Q 6 25.140625 12.171875 29.828125 
Q 18.359375 34.515625 30.609375 34.515625 
L 43.21875 34.515625 
L 43.21875 35.40625 
Q 43.21875 41.609375 39.140625 45 
Q 35.0625 48.390625 27.6875 48.390625 
Q 23 48.390625 18.546875 47.265625 
Q 14.109375 46.140625 10.015625 43.890625 
L 10.015625 52.203125 
Q 14.9375 54.109375 19.578125 55.046875 
Q 24.21875 56 28.609375 56 
Q 40.484375 56 46.34375 49.84375 
Q 52.203125 43.703125 52.203125 31.203125 
z
" id="DejaVuSans-97"/>
      <path d="M 9.421875 75.984375 
L 18.40625 75.984375 
L 18.40625 0 
L 9.421875 0 
z
" id="DejaVuSans-108"/>
      <path d="M 54.890625 33.015625 
L 54.890625 0 
L 45.90625 0 
L 45.90625 32.71875 
Q 45.90625 40.484375 42.875 44.328125 
Q 39.84375 48.1875 33.796875 48.1875 
Q 26.515625 48.1875 22.3125 43.546875 
Q 18.109375 38.921875 18.109375 30.90625 
L 18.109375 0 
L 9.078125 0 
L 9.078125 75.984375 
L 18.109375 75.984375 
L 18.109375 46.1875 
Q 21.34375 51.125 25.703125 53.5625 
Q 30.078125 56 35.796875 56 
Q 45.21875 56 50.046875 50.171875 
Q 54.890625 44.34375 54.890625 33.015625 
z
" id="DejaVuSans-104"/>
      <path d="M 44.28125 53.078125 
L 44.28125 44.578125 
Q 40.484375 46.53125 36.375 47.5 
Q 32.28125 48.484375 27.875 48.484375 
Q 21.1875 48.484375 17.84375 46.4375 
Q 14.5 44.390625 14.5 40.28125 
Q 14.5 37.15625 16.890625 35.375 
Q 19.28125 33.59375 26.515625 31.984375 
L 29.59375 31.296875 
Q 39.15625 29.25 43.1875 25.515625 
Q 47.21875 21.78125 47.21875 15.09375 
Q 47.21875 7.46875 41.1875 3.015625 
Q 35.15625 -1.421875 24.609375 -1.421875 
Q 20.21875 -1.421875 15.453125 -0.5625 
Q 10.6875 0.296875 5.421875 2 
L 5.421875 11.28125 
Q 10.40625 8.6875 15.234375 7.390625 
Q 20.0625 6.109375 24.8125 6.109375 
Q 31.15625 6.109375 34.5625 8.28125 
Q 37.984375 10.453125 37.984375 14.40625 
Q 37.984375 18.0625 35.515625 20.015625 
Q 33.0625 21.96875 24.703125 23.78125 
L 21.578125 24.515625 
Q 13.234375 26.265625 9.515625 29.90625 
Q 5.8125 33.546875 5.8125 39.890625 
Q 5.8125 47.609375 11.28125 51.796875 
Q 16.75 56 26.8125 56 
Q 31.78125 56 36.171875 55.265625 
Q 40.578125 54.546875 44.28125 53.078125 
z
" id="DejaVuSans-115"/>
      <path d="M 45.40625 27.984375 
Q 45.40625 37.75 41.375 43.109375 
Q 37.359375 48.484375 30.078125 48.484375 
Q 22.859375 48.484375 18.828125 43.109375 
Q 14.796875 37.75 14.796875 27.984375 
Q 14.796875 18.265625 18.828125 12.890625 
Q 22.859375 7.515625 30.078125 7.515625 
Q 37.359375 7.515625 41.375 12.890625 
Q 45.40625 18.265625 45.40625 27.984375 
z
M 54.390625 6.78125 
Q 54.390625 -7.171875 48.1875 -13.984375 
Q 42 -20.796875 29.203125 -20.796875 
Q 24.46875 -20.796875 20.265625 -20.09375 
Q 16.0625 -19.390625 12.109375 -17.921875 
L 12.109375 -9.1875 
Q 16.0625 -11.328125 19.921875 -12.34375 
Q 23.78125 -13.375 27.78125 -13.375 
Q 36.625 -13.375 41.015625 -8.765625 
Q 45.40625 -4.15625 45.40625 5.171875 
L 45.40625 9.625 
Q 42.625 4.78125 38.28125 2.390625 
Q 33.9375 0 27.875 0 
Q 17.828125 0 11.671875 7.65625 
Q 5.515625 15.328125 5.515625 27.984375 
Q 5.515625 40.671875 11.671875 48.328125 
Q 17.828125 56 27.875 56 
Q 33.9375 56 38.28125 53.609375 
Q 42.625 51.21875 45.40625 46.390625 
L 45.40625 54.6875 
L 54.390625 54.6875 
z
" id="DejaVuSans-103"/>
      <path d="M 41.109375 46.296875 
Q 39.59375 47.171875 37.8125 47.578125 
Q 36.03125 48 33.890625 48 
Q 26.265625 48 22.1875 43.046875 
Q 18.109375 38.09375 18.109375 28.8125 
L 18.109375 0 
L 9.078125 0 
L 9.078125 54.6875 
L 18.109375 54.6875 
L 18.109375 46.1875 
Q 20.953125 51.171875 25.484375 53.578125 
Q 30.03125 56 36.53125 56 
Q 37.453125 56 38.578125 55.875 
Q 39.703125 55.765625 41.0625 55.515625 
z
" id="DejaVuSans-114"/>
      <path d="M 52 44.1875 
Q 55.375 50.25 60.0625 53.125 
Q 64.75 56 71.09375 56 
Q 79.640625 56 84.28125 50.015625 
Q 88.921875 44.046875 88.921875 33.015625 
L 88.921875 0 
L 79.890625 0 
L 79.890625 32.71875 
Q 79.890625 40.578125 77.09375 44.375 
Q 74.3125 48.1875 68.609375 48.1875 
Q 61.625 48.1875 57.5625 43.546875 
Q 53.515625 38.921875 53.515625 30.90625 
L 53.515625 0 
L 44.484375 0 
L 44.484375 32.71875 
Q 44.484375 40.625 41.703125 44.40625 
Q 38.921875 48.1875 33.109375 48.1875 
Q 26.21875 48.1875 22.15625 43.53125 
Q 18.109375 38.875 18.109375 30.90625 
L 18.109375 0 
L 9.078125 0 
L 9.078125 54.6875 
L 18.109375 54.6875 
L 18.109375 46.1875 
Q 21.1875 51.21875 25.484375 53.609375 
Q 29.78125 56 35.6875 56 
Q 41.65625 56 45.828125 52.96875 
Q 50 49.953125 52 44.1875 
z
" id="DejaVuSans-109"/>
      <path d="M 31 75.875 
Q 24.46875 64.65625 21.28125 53.65625 
Q 18.109375 42.671875 18.109375 31.390625 
Q 18.109375 20.125 21.3125 9.0625 
Q 24.515625 -2 31 -13.1875 
L 23.1875 -13.1875 
Q 15.875 -1.703125 12.234375 9.375 
Q 8.59375 20.453125 8.59375 31.390625 
Q 8.59375 42.28125 12.203125 53.3125 
Q 15.828125 64.359375 23.1875 75.875 
z
" id="DejaVuSans-40"/>
      <path d="M 48.78125 52.59375 
L 48.78125 44.1875 
Q 44.96875 46.296875 41.140625 47.34375 
Q 37.3125 48.390625 33.40625 48.390625 
Q 24.65625 48.390625 19.8125 42.84375 
Q 14.984375 37.3125 14.984375 27.296875 
Q 14.984375 17.28125 19.8125 11.734375 
Q 24.65625 6.203125 33.40625 6.203125 
Q 37.3125 6.203125 41.140625 7.25 
Q 44.96875 8.296875 48.78125 10.40625 
L 48.78125 2.09375 
Q 45.015625 0.34375 40.984375 -0.53125 
Q 36.96875 -1.421875 32.421875 -1.421875 
Q 20.0625 -1.421875 12.78125 6.34375 
Q 5.515625 14.109375 5.515625 27.296875 
Q 5.515625 40.671875 12.859375 48.328125 
Q 20.21875 56 33.015625 56 
Q 37.15625 56 41.109375 55.140625 
Q 45.0625 54.296875 48.78125 52.59375 
z
" id="DejaVuSans-99"/>
      <path d="M 56.203125 29.59375 
L 56.203125 25.203125 
L 14.890625 25.203125 
Q 15.484375 15.921875 20.484375 11.0625 
Q 25.484375 6.203125 34.421875 6.203125 
Q 39.59375 6.203125 44.453125 7.46875 
Q 49.3125 8.734375 54.109375 11.28125 
L 54.109375 2.78125 
Q 49.265625 0.734375 44.1875 -0.34375 
Q 39.109375 -1.421875 33.890625 -1.421875 
Q 20.796875 -1.421875 13.15625 6.1875 
Q 5.515625 13.8125 5.515625 26.8125 
Q 5.515625 40.234375 12.765625 48.109375 
Q 20.015625 56 32.328125 56 
Q 43.359375 56 49.78125 48.890625 
Q 56.203125 41.796875 56.203125 29.59375 
z
M 47.21875 32.234375 
Q 47.125 39.59375 43.09375 43.984375 
Q 39.0625 48.390625 32.421875 48.390625 
Q 24.90625 48.390625 20.390625 44.140625 
Q 15.875 39.890625 15.1875 32.171875 
z
" id="DejaVuSans-101"/>
      <path d="M 11.71875 12.40625 
L 22.015625 12.40625 
L 22.015625 4 
L 14.015625 -11.625 
L 7.71875 -11.625 
L 11.71875 4 
z
" id="DejaVuSans-44"/>
      <path d="M 8.015625 75.875 
L 15.828125 75.875 
Q 23.140625 64.359375 26.78125 53.3125 
Q 30.421875 42.28125 30.421875 31.390625 
Q 30.421875 20.453125 26.78125 9.375 
Q 23.140625 -1.703125 15.828125 -13.1875 
L 8.015625 -13.1875 
Q 14.5 -2 17.703125 9.0625 
Q 20.90625 20.125 20.90625 31.390625 
Q 20.90625 42.671875 17.703125 53.65625 
Q 14.5 64.65625 8.015625 75.875 
z
" id="DejaVuSans-41"/>
     </defs>
     <use xlink:href="#DejaVuSans-67"/>
     <use x="69.824219" xlink:href="#DejaVuSans-111"/>
     <use x="131.005859" xlink:href="#DejaVuSans-110"/>
     <use x="194.384766" xlink:href="#DejaVuSans-100"/>
     <use x="257.861328" xlink:href="#DejaVuSans-105"/>
     <use x="285.644531" xlink:href="#DejaVuSans-116"/>
     <use x="324.853516" xlink:href="#DejaVuSans-105"/>
     <use x="352.636719" xlink:href="#DejaVuSans-111"/>
     <use x="413.818359" xlink:href="#DejaVuSans-110"/>
     <use x="477.197266" xlink:href="#DejaVuSans-97"/>
     <use x="538.476562" xlink:href="#DejaVuSans-108"/>
     <use x="566.259766" xlink:href="#DejaVuSans-32"/>
     <use x="598.046875" xlink:href="#DejaVuSans-104"/>
     <use x="661.425781" xlink:href="#DejaVuSans-105"/>
     <use x="689.208984" xlink:href="#DejaVuSans-115"/>
     <use x="741.308594" xlink:href="#DejaVuSans-116"/>
     <use x="780.517578" xlink:href="#DejaVuSans-111"/>
     <use x="841.699219" xlink:href="#DejaVuSans-103"/>
     <use x="905.175781" xlink:href="#DejaVuSans-114"/>
     <use x="946.289062" xlink:href="#DejaVuSans-97"/>
     <use x="1007.568359" xlink:href="#DejaVuSans-109"/>
     <use x="1104.980469" xlink:href="#DejaVuSans-115"/>
     <use x="1157.080078" xlink:href="#DejaVuSans-32"/>
     <use x="1188.867188" xlink:href="#DejaVuSans-40"/>
     <use x="1227.880859" xlink:href="#DejaVuSans-97"/>
     <use x="1289.160156" xlink:href="#DejaVuSans-99"/>
     <use x="1344.140625" xlink:href="#DejaVuSans-101"/>
     <use x="1405.664062" xlink:href="#DejaVuSans-110"/>
     <use x="1469.042969" xlink:href="#DejaVuSans-116"/>
     <use x="1508.251953" xlink:href="#DejaVuSans-114"/>
     <use x="1549.365234" xlink:href="#DejaVuSans-105"/>
     <use x="1577.148438" xlink:href="#DejaVuSans-99"/>
     <use x="1632.128906" xlink:href="#DejaVuSans-44"/>
     <use x="1663.916016" xlink:href="#DejaVuSans-32"/>
     <use x="1695.703125" xlink:href="#DejaVuSans-114"/>
     <use x="1734.566406" xlink:href="#DejaVuSans-101"/>
     <use x="1796.089844" xlink:href="#DejaVuSans-97"/>
     <use x="1857.369141" xlink:href="#DejaVuSans-108"/>
     <use x="1885.152344" xlink:href="#DejaVuSans-32"/>
     <use x="1916.939453" xlink:href="#DejaVuSans-100"/>
     <use x="1980.416016" xlink:href="#DejaVuSans-97"/>
     <use x="2041.695312" xlink:href="#DejaVuSans-116"/>
     <use x="2080.904297" xlink:href="#DejaVuSans-97"/>
     <use x="2142.183594" xlink:href="#DejaVuSans-41"/>
    </g>
   </g>
  </g>
  <g id="axes_3">
   <g id="patch_110">
    <path d="M 774.211765 252 
L 1036.8 252 
L 1036.8 34.56 
L 774.211765 34.56 
z
" style="fill:#ffffff;"/>
   </g>
   <g id="patch_111">
    <path clip-path="url(#pb019236ad3)" d="M 774.211765 252 
L 783.143337 252 
L 783.143337 252 
L 774.211765 252 
z
" style="fill:#1f77b4;"/>
   </g>
   <g id="patch_112">
    <path clip-path="url(#pb019236ad3)" d="M 783.143337 252 
L 792.07491 252 
L 792.07491 248.480013 
L 783.143337 248.480013 
z
" style="fill:#1f77b4;"/>
   </g>
   <g id="patch_113">
    <path clip-path="url(#pb019236ad3)" d="M 792.07491 252 
L 801.006483 252 
L 801.006483 247.306684 
L 792.07491 247.306684 
z
" style="fill:#1f77b4;"/>
   </g>
   <g id="patch_114">
    <path clip-path="url(#pb019236ad3)" d="M 801.006483 252 
L 809.938055 252 
L 809.938055 247.306684 
L 801.006483 247.306684 
z
" style="fill:#1f77b4;"/>
   </g>
   <g id="patch_115">
    <path clip-path="url(#pb019236ad3)" d="M 809.938055 252 
L 818.869628 252 
L 818.869628 232.053408 
L 809.938055 232.053408 
z
" style="fill:#1f77b4;"/>
   </g>
   <g id="patch_116">
    <path clip-path="url(#pb019236ad3)" d="M 818.869628 252 
L 827.8012 252 
L 827.8012 230.880079 
L 818.869628 230.880079 
z
" style="fill:#1f77b4;"/>
   </g>
   <g id="patch_117">
    <path clip-path="url(#pb019236ad3)" d="M 827.8012 252 
L 836.732773 252 
L 836.732773 217.973461 
L 827.8012 217.973461 
z
" style="fill:#1f77b4;"/>
   </g>
   <g id="patch_118">
    <path clip-path="url(#pb019236ad3)" d="M 836.732773 252 
L 845.664346 252 
L 845.664346 209.760159 
L 836.732773 209.760159 
z
" style="fill:#1f77b4;"/>
   </g>
   <g id="patch_119">
    <path clip-path="url(#pb019236ad3)" d="M 845.664346 252 
L 854.595918 252 
L 854.595918 182.773593 
L 845.664346 182.773593 
z
" style="fill:#1f77b4;"/>
   </g>
   <g id="patch_120">
    <path clip-path="url(#pb019236ad3)" d="M 854.595918 252 
L 863.527491 252 
L 863.527491 167.520317 
L 854.595918 167.520317 
z
" style="fill:#1f77b4;"/>
   </g>
   <g id="patch_121">
    <path clip-path="url(#pb019236ad3)" d="M 863.527491 252 
L 872.459064 252 
L 872.459064 148.747055 
L 863.527491 148.747055 
z
" style="fill:#1f77b4;"/>
   </g>
   <g id="patch_122">
    <path clip-path="url(#pb019236ad3)" d="M 872.459064 252 
L 881.390636 252 
L 881.390636 137.013765 
L 872.459064 137.013765 
z
" style="fill:#1f77b4;"/>
   </g>
   <g id="patch_123">
    <path clip-path="url(#pb019236ad3)" d="M 881.390636 252 
L 890.322209 252 
L 890.322209 65.440701 
L 881.390636 65.440701 
z
" style="fill:#1f77b4;"/>
   </g>
   <g id="patch_124">
    <path clip-path="url(#pb019236ad3)" d="M 890.322209 252 
L 899.253782 252 
L 899.253782 83.040635 
L 890.322209 83.040635 
z
" style="fill:#1f77b4;"/>
   </g>
   <g id="patch_125">
    <path clip-path="url(#pb019236ad3)" d="M 899.253782 252 
L 908.185354 252 
L 908.185354 72.480675 
L 899.253782 72.480675 
z
" style="fill:#1f77b4;"/>
   </g>
   <g id="patch_126">
    <path clip-path="url(#pb019236ad3)" d="M 908.185354 252 
L 917.116927 252 
L 917.116927 76.000661 
L 908.185354 76.000661 
z
" style="fill:#1f77b4;"/>
   </g>
   <g id="patch_127">
    <path clip-path="url(#pb019236ad3)" d="M 917.116927 252 
L 926.048499 252 
L 926.048499 104.160556 
L 917.116927 104.160556 
z
" style="fill:#1f77b4;"/>
   </g>
   <g id="patch_128">
    <path clip-path="url(#pb019236ad3)" d="M 926.048499 252 
L 934.980072 252 
L 934.980072 125.280476 
L 926.048499 125.280476 
z
" style="fill:#1f77b4;"/>
   </g>
   <g id="patch_129">
    <path clip-path="url(#pb019236ad3)" d="M 934.980072 252 
L 943.911645 252 
L 943.911645 147.573726 
L 934.980072 147.573726 
z
" style="fill:#1f77b4;"/>
   </g>
   <g id="patch_130">
    <path clip-path="url(#pb019236ad3)" d="M 943.911645 252 
L 952.843217 252 
L 952.843217 190.986896 
L 943.911645 190.986896 
z
" style="fill:#1f77b4;"/>
   </g>
   <g id="patch_131">
    <path clip-path="url(#pb019236ad3)" d="M 952.843217 252 
L 961.77479 252 
L 961.77479 201.546856 
L 952.843217 201.546856 
z
" style="fill:#1f77b4;"/>
   </g>
   <g id="patch_132">
    <path clip-path="url(#pb019236ad3)" d="M 961.77479 252 
L 970.706363 252 
L 970.706363 232.053408 
L 961.77479 232.053408 
z
" style="fill:#1f77b4;"/>
   </g>
   <g id="patch_133">
    <path clip-path="url(#pb019236ad3)" d="M 970.706363 252 
L 979.637935 252 
L 979.637935 232.053408 
L 970.706363 232.053408 
z
" style="fill:#1f77b4;"/>
   </g>
   <g id="patch_134">
    <path clip-path="url(#pb019236ad3)" d="M 979.637935 252 
L 988.569508 252 
L 988.569508 239.093382 
L 979.637935 239.093382 
z
" style="fill:#1f77b4;"/>
   </g>
   <g id="patch_135">
    <path clip-path="url(#pb019236ad3)" d="M 988.569508 252 
L 997.50108 252 
L 997.50108 244.960026 
L 988.569508 244.960026 
z
" style="fill:#1f77b4;"/>
   </g>
   <g id="patch_136">
    <path clip-path="url(#pb019236ad3)" d="M 997.50108 252 
L 1006.432653 252 
L 1006.432653 247.306684 
L 997.50108 247.306684 
z
" style="fill:#1f77b4;"/>
   </g>
   <g id="patch_137">
    <path clip-path="url(#pb019236ad3)" d="M 1006.432653 252 
L 1015.364226 252 
L 1015.364226 249.653342 
L 1006.432653 249.653342 
z
" style="fill:#1f77b4;"/>
   </g>
   <g id="patch_138">
    <path clip-path="url(#pb019236ad3)" d="M 1015.364226 252 
L 1024.295798 252 
L 1024.295798 249.653342 
L 1015.364226 249.653342 
z
" style="fill:#1f77b4;"/>
   </g>
   <g id="patch_139">
    <path clip-path="url(#pb019236ad3)" d="M 1024.295798 252 
L 1033.227371 252 
L 1033.227371 250.826671 
L 1024.295798 250.826671 
z
" style="fill:#1f77b4;"/>
   </g>
   <g id="patch_140">
    <path clip-path="url(#pb019236ad3)" d="M 1033.227371 252 
L 1042.158944 252 
L 1042.158944 250.826671 
L 1033.227371 250.826671 
z
" style="fill:#1f77b4;"/>
   </g>
   <g id="patch_141">
    <path clip-path="url(#pb019236ad3)" d="M 1042.158944 252 
L 1051.090516 252 
L 1051.090516 252 
L 1042.158944 252 
z
" style="fill:#1f77b4;"/>
   </g>
   <g id="patch_142">
    <path clip-path="url(#pb019236ad3)" d="M 1051.090516 252 
L 1060.022089 252 
L 1060.022089 252 
L 1051.090516 252 
z
" style="fill:#1f77b4;"/>
   </g>
   <g id="patch_143">
    <path clip-path="url(#pb019236ad3)" d="M 1060.022089 252 
L 1068.953661 252 
L 1068.953661 252 
L 1060.022089 252 
z
" style="fill:#1f77b4;"/>
   </g>
   <g id="patch_144">
    <path clip-path="url(#pb019236ad3)" d="M 1068.953661 252 
L 1077.885234 252 
L 1077.885234 252 
L 1068.953661 252 
z
" style="fill:#1f77b4;"/>
   </g>
   <g id="patch_145">
    <path clip-path="url(#pb019236ad3)" d="M 1077.885234 252 
L 1086.816807 252 
L 1086.816807 252 
L 1077.885234 252 
z
" style="fill:#1f77b4;"/>
   </g>
   <g id="patch_146">
    <path clip-path="url(#pb019236ad3)" d="M 1086.816807 252 
L 1095.748379 252 
L 1095.748379 252 
L 1086.816807 252 
z
" style="fill:#1f77b4;"/>
   </g>
   <g id="patch_147">
    <path clip-path="url(#pb019236ad3)" d="M 1095.748379 252 
L 1104.679952 252 
L 1104.679952 252 
L 1095.748379 252 
z
" style="fill:#1f77b4;"/>
   </g>
   <g id="patch_148">
    <path clip-path="url(#pb019236ad3)" d="M 1104.679952 252 
L 1113.611525 252 
L 1113.611525 252 
L 1104.679952 252 
z
" style="fill:#1f77b4;"/>
   </g>
   <g id="patch_149">
    <path clip-path="url(#pb019236ad3)" d="M 1113.611525 252 
L 1122.543097 252 
L 1122.543097 252 
L 1113.611525 252 
z
" style="fill:#1f77b4;"/>
   </g>
   <g id="patch_150">
    <path clip-path="url(#pb019236ad3)" d="M 1122.543097 252 
L 1131.47467 252 
L 1131.47467 252 
L 1122.543097 252 
z
" style="fill:#1f77b4;"/>
   </g>
   <g id="patch_151">
    <path clip-path="url(#pb019236ad3)" d="M 1131.47467 252 
L 1140.406242 252 
L 1140.406242 252 
L 1131.47467 252 
z
" style="fill:#1f77b4;"/>
   </g>
   <g id="patch_152">
    <path clip-path="url(#pb019236ad3)" d="M 1140.406242 252 
L 1149.337815 252 
L 1149.337815 252 
L 1140.406242 252 
z
" style="fill:#1f77b4;"/>
   </g>
   <g id="patch_153">
    <path clip-path="url(#pb019236ad3)" d="M 1149.337815 252 
L 1158.269388 252 
L 1158.269388 252 
L 1149.337815 252 
z
" style="fill:#1f77b4;"/>
   </g>
   <g id="patch_154">
    <path clip-path="url(#pb019236ad3)" d="M 1158.269388 252 
L 1167.20096 252 
L 1167.20096 252 
L 1158.269388 252 
z
" style="fill:#1f77b4;"/>
   </g>
   <g id="patch_155">
    <path clip-path="url(#pb019236ad3)" d="M 1167.20096 252 
L 1176.132533 252 
L 1176.132533 252 
L 1167.20096 252 
z
" style="fill:#1f77b4;"/>
   </g>
   <g id="patch_156">
    <path clip-path="url(#pb019236ad3)" d="M 1176.132533 252 
L 1185.064106 252 
L 1185.064106 252 
L 1176.132533 252 
z
" style="fill:#1f77b4;"/>
   </g>
   <g id="patch_157">
    <path clip-path="url(#pb019236ad3)" d="M 1185.064106 252 
L 1193.995678 252 
L 1193.995678 252 
L 1185.064106 252 
z
" style="fill:#1f77b4;"/>
   </g>
   <g id="patch_158">
    <path clip-path="url(#pb019236ad3)" d="M 1193.995678 252 
L 1202.927251 252 
L 1202.927251 252 
L 1193.995678 252 
z
" style="fill:#1f77b4;"/>
   </g>
   <g id="patch_159">
    <path clip-path="url(#pb019236ad3)" d="M 1202.927251 252 
L 1211.858824 252 
L 1211.858824 252 
L 1202.927251 252 
z
" style="fill:#1f77b4;"/>
   </g>
   <g id="matplotlib.axis_5">
    <g id="xtick_15">
     <g id="line2d_35">
      <g>
       <use style="stroke:#000000;stroke-width:0.8;" x="774.211765" xlink:href="#m901cf6b36d" y="252"/>
      </g>
     </g>
     <g id="text_32">
      <!-- 0.0 -->
      <g transform="translate(763.079577 269.637812)scale(0.14 -0.14)">
       <use xlink:href="#DejaVuSans-48"/>
       <use x="63.623047" xlink:href="#DejaVuSans-46"/>
       <use x="95.410156" xlink:href="#DejaVuSans-48"/>
      </g>
     </g>
    </g>
    <g id="xtick_16">
     <g id="line2d_36">
      <g>
       <use style="stroke:#000000;stroke-width:0.8;" x="817.976471" xlink:href="#m901cf6b36d" y="252"/>
      </g>
     </g>
     <g id="text_33">
      <!-- 0.5 -->
      <g transform="translate(806.844283 269.637812)scale(0.14 -0.14)">
       <use xlink:href="#DejaVuSans-48"/>
       <use x="63.623047" xlink:href="#DejaVuSans-46"/>
       <use x="95.410156" xlink:href="#DejaVuSans-53"/>
      </g>
     </g>
    </g>
    <g id="xtick_17">
     <g id="line2d_37">
      <g>
       <use style="stroke:#000000;stroke-width:0.8;" x="861.741176" xlink:href="#m901cf6b36d" y="252"/>
      </g>
     </g>
     <g id="text_34">
      <!-- 1.0 -->
      <g transform="translate(850.608989 269.637812)scale(0.14 -0.14)">
       <use xlink:href="#DejaVuSans-49"/>
       <use x="63.623047" xlink:href="#DejaVuSans-46"/>
       <use x="95.410156" xlink:href="#DejaVuSans-48"/>
      </g>
     </g>
    </g>
    <g id="xtick_18">
     <g id="line2d_38">
      <g>
       <use style="stroke:#000000;stroke-width:0.8;" x="905.505882" xlink:href="#m901cf6b36d" y="252"/>
      </g>
     </g>
     <g id="text_35">
      <!-- 1.5 -->
      <g transform="translate(894.373695 269.637812)scale(0.14 -0.14)">
       <use xlink:href="#DejaVuSans-49"/>
       <use x="63.623047" xlink:href="#DejaVuSans-46"/>
       <use x="95.410156" xlink:href="#DejaVuSans-53"/>
      </g>
     </g>
    </g>
    <g id="xtick_19">
     <g id="line2d_39">
      <g>
       <use style="stroke:#000000;stroke-width:0.8;" x="949.270588" xlink:href="#m901cf6b36d" y="252"/>
      </g>
     </g>
     <g id="text_36">
      <!-- 2.0 -->
      <g transform="translate(938.138401 269.637812)scale(0.14 -0.14)">
       <use xlink:href="#DejaVuSans-50"/>
       <use x="63.623047" xlink:href="#DejaVuSans-46"/>
       <use x="95.410156" xlink:href="#DejaVuSans-48"/>
      </g>
     </g>
    </g>
    <g id="xtick_20">
     <g id="line2d_40">
      <g>
       <use style="stroke:#000000;stroke-width:0.8;" x="993.035294" xlink:href="#m901cf6b36d" y="252"/>
      </g>
     </g>
     <g id="text_37">
      <!-- 2.5 -->
      <g transform="translate(981.903107 269.637812)scale(0.14 -0.14)">
       <use xlink:href="#DejaVuSans-50"/>
       <use x="63.623047" xlink:href="#DejaVuSans-46"/>
       <use x="95.410156" xlink:href="#DejaVuSans-53"/>
      </g>
     </g>
    </g>
    <g id="xtick_21">
     <g id="line2d_41">
      <g>
       <use style="stroke:#000000;stroke-width:0.8;" x="1036.8" xlink:href="#m901cf6b36d" y="252"/>
      </g>
     </g>
     <g id="text_38">
      <!-- 3.0 -->
      <g transform="translate(1025.667813 269.637812)scale(0.14 -0.14)">
       <use xlink:href="#DejaVuSans-51"/>
       <use x="63.623047" xlink:href="#DejaVuSans-46"/>
       <use x="95.410156" xlink:href="#DejaVuSans-48"/>
      </g>
     </g>
    </g>
   </g>
   <g id="matplotlib.axis_6">
    <g id="ytick_15">
     <g id="line2d_42">
      <g>
       <use style="stroke:#000000;stroke-width:0.8;" x="774.211765" xlink:href="#mf0b39dfee7" y="252"/>
      </g>
     </g>
     <g id="text_39">
      <!-- 0.0 -->
      <g transform="translate(744.94739 257.318906)scale(0.14 -0.14)">
       <use xlink:href="#DejaVuSans-48"/>
       <use x="63.623047" xlink:href="#DejaVuSans-46"/>
       <use x="95.410156" xlink:href="#DejaVuSans-48"/>
      </g>
     </g>
    </g>
    <g id="ytick_16">
     <g id="line2d_43">
      <g>
       <use style="stroke:#000000;stroke-width:0.8;" x="774.211765" xlink:href="#mf0b39dfee7" y="215.770476"/>
      </g>
     </g>
     <g id="text_40">
      <!-- 0.2 -->
      <g transform="translate(744.94739 221.089383)scale(0.14 -0.14)">
       <use xlink:href="#DejaVuSans-48"/>
       <use x="63.623047" xlink:href="#DejaVuSans-46"/>
       <use x="95.410156" xlink:href="#DejaVuSans-50"/>
      </g>
     </g>
    </g>
    <g id="ytick_17">
     <g id="line2d_44">
      <g>
       <use style="stroke:#000000;stroke-width:0.8;" x="774.211765" xlink:href="#mf0b39dfee7" y="179.540953"/>
      </g>
     </g>
     <g id="text_41">
      <!-- 0.4 -->
      <g transform="translate(744.94739 184.859859)scale(0.14 -0.14)">
       <use xlink:href="#DejaVuSans-48"/>
       <use x="63.623047" xlink:href="#DejaVuSans-46"/>
       <use x="95.410156" xlink:href="#DejaVuSans-52"/>
      </g>
     </g>
    </g>
    <g id="ytick_18">
     <g id="line2d_45">
      <g>
       <use style="stroke:#000000;stroke-width:0.8;" x="774.211765" xlink:href="#mf0b39dfee7" y="143.311429"/>
      </g>
     </g>
     <g id="text_42">
      <!-- 0.6 -->
      <g transform="translate(744.94739 148.630335)scale(0.14 -0.14)">
       <use xlink:href="#DejaVuSans-48"/>
       <use x="63.623047" xlink:href="#DejaVuSans-46"/>
       <use x="95.410156" xlink:href="#DejaVuSans-54"/>
      </g>
     </g>
    </g>
    <g id="ytick_19">
     <g id="line2d_46">
      <g>
       <use style="stroke:#000000;stroke-width:0.8;" x="774.211765" xlink:href="#mf0b39dfee7" y="107.081905"/>
      </g>
     </g>
     <g id="text_43">
      <!-- 0.8 -->
      <g transform="translate(744.94739 112.400811)scale(0.14 -0.14)">
       <use xlink:href="#DejaVuSans-48"/>
       <use x="63.623047" xlink:href="#DejaVuSans-46"/>
       <use x="95.410156" xlink:href="#DejaVuSans-56"/>
      </g>
     </g>
    </g>
    <g id="ytick_20">
     <g id="line2d_47">
      <g>
       <use style="stroke:#000000;stroke-width:0.8;" x="774.211765" xlink:href="#mf0b39dfee7" y="70.852381"/>
      </g>
     </g>
     <g id="text_44">
      <!-- 1.0 -->
      <g transform="translate(744.94739 76.171288)scale(0.14 -0.14)">
       <use xlink:href="#DejaVuSans-49"/>
       <use x="63.623047" xlink:href="#DejaVuSans-46"/>
       <use x="95.410156" xlink:href="#DejaVuSans-48"/>
      </g>
     </g>
    </g>
    <g id="ytick_21">
     <g id="line2d_48">
      <g>
       <use style="stroke:#000000;stroke-width:0.8;" x="774.211765" xlink:href="#mf0b39dfee7" y="34.622858"/>
      </g>
     </g>
     <g id="text_45">
      <!-- 1.2 -->
      <g transform="translate(744.94739 39.941764)scale(0.14 -0.14)">
       <use xlink:href="#DejaVuSans-49"/>
       <use x="63.623047" xlink:href="#DejaVuSans-46"/>
       <use x="95.410156" xlink:href="#DejaVuSans-50"/>
      </g>
     </g>
    </g>
   </g>
   <g id="line2d_49">
    <path clip-path="url(#pb019236ad3)" d="M 774.211765 252 
L 776.864171 251.971759 
L 779.516578 251.940018 
L 782.168984 251.901041 
L 784.82139 251.850619 
L 787.473797 251.783816 
L 790.126203 251.694716 
L 792.77861 251.576146 
L 795.431016 251.419391 
L 798.083422 251.213896 
L 800.735829 250.946969 
L 803.388235 250.603478 
L 806.040642 250.165572 
L 808.693048 249.612429 
L 811.345455 248.920051 
L 813.997861 248.061135 
L 816.650267 247.005042 
L 819.302674 245.71788 
L 821.95508 244.162743 
L 824.607487 242.300125 
L 827.259893 240.088527 
L 829.912299 237.485282 
L 832.564706 234.447602 
L 835.217112 230.933849 
L 837.869519 226.905024 
L 840.521925 222.326435 
L 843.174332 217.169525 
L 845.826738 211.413786 
L 848.479144 205.048702 
L 851.131551 198.07564 
L 853.783957 190.509591 
L 856.436364 182.380665 
L 859.08877 173.735249 
L 861.741176 164.63672 
L 864.393583 155.165637 
L 867.045989 145.419334 
L 869.698396 135.510877 
L 872.350802 125.567353 
L 875.003209 115.727505 
L 877.655615 106.138761 
L 880.308021 96.953726 
L 882.960428 88.326244 
L 885.612834 80.40718 
L 888.265241 73.340061 
L 890.917647 67.256769 
L 893.570053 62.273452 
L 896.22246 58.486839 
L 898.874866 55.971117 
L 901.527273 54.77551 
L 904.179679 54.922681 
L 906.832086 56.408008 
L 909.484492 59.199795 
L 912.136898 63.240378 
L 914.789305 68.448093 
L 917.441711 74.72 
L 920.094118 81.935246 
L 922.746524 89.958906 
L 925.39893 98.64614 
L 928.051337 107.846484 
L 930.703743 117.408097 
L 933.35615 127.181817 
L 936.008556 137.024851 
L 938.660963 146.804012 
L 941.313369 156.398384 
L 943.965775 165.701381 
L 946.618182 174.622152 
L 949.270588 183.08636 
L 951.922995 191.036352 
L 954.575401 198.430778 
L 957.227807 205.243744 
L 959.880214 211.463579 
L 962.53262 217.091304 
L 965.185027 222.138916 
L 967.837433 226.627551 
L 970.48984 230.585636 
L 973.142246 234.047084 
L 975.794652 237.049599 
L 978.447059 239.633132 
L 981.099465 241.83853 
L 983.751872 243.706379 
L 986.404278 245.276064 
L 989.056684 246.585037 
L 991.709091 247.668276 
L 994.361497 248.557926 
L 997.013904 249.283094 
L 999.66631 249.86978 
L 1002.318717 250.340907 
L 1004.971123 250.716447 
L 1007.623529 251.013596 
L 1010.275936 251.247002 
L 1012.928342 251.429006 
L 1015.580749 251.5699 
L 1018.233155 251.678185 
L 1020.885561 251.760809 
L 1023.537968 251.823403 
L 1026.190374 251.870484 
L 1028.842781 251.905644 
L 1031.495187 251.931717 
L 1034.147594 251.950914 
L 1036.8 251.964948 
" style="fill:none;stroke:#ff0000;stroke-linecap:square;stroke-width:1.5;"/>
   </g>
   <g id="line2d_50">
    <path clip-path="url(#pb019236ad3)" d="M 774.211765 252 
L 776.864171 241.031433 
L 779.516578 230.123216 
L 782.168984 219.335145 
L 784.82139 208.725919 
L 787.473797 198.352602 
L 790.126203 188.270121 
L 792.77861 178.530774 
L 795.431016 169.183781 
L 798.083422 160.274878 
L 800.735829 151.845938 
L 803.388235 143.934659 
L 806.040642 136.574288 
L 808.693048 129.793406 
L 811.345455 123.615767 
L 813.997861 118.06019 
L 816.650267 113.14051 
L 819.302674 108.865585 
L 821.95508 105.239356 
L 824.607487 102.260954 
L 827.259893 99.924865 
L 829.912299 98.221132 
L 832.564706 97.135599 
L 835.217112 96.6502 
L 837.869519 96.743265 
L 840.521925 97.389866 
L 843.174332 98.562174 
L 845.826738 100.22984 
L 848.479144 102.360381 
L 851.131551 104.919569 
L 853.783957 107.871827 
L 856.436364 111.180614 
L 859.08877 114.808799 
L 861.741176 118.719031 
L 864.393583 122.874076 
L 867.045989 127.23715 
L 869.698396 131.772211 
L 872.350802 136.44424 
L 875.003209 141.219484 
L 877.655615 146.065676 
L 880.308021 150.952216 
L 882.960428 155.850338 
L 885.612834 160.733226 
L 888.265241 165.576119 
L 890.917647 170.356374 
L 893.570053 175.05351 
L 896.22246 179.649219 
L 898.874866 184.12736 
L 901.527273 188.473927 
L 904.179679 192.676995 
L 906.832086 196.726655 
L 909.484492 200.614924 
L 912.136898 204.335653 
L 914.789305 207.884414 
L 917.441711 211.258388 
L 920.094118 214.456236 
L 922.746524 217.477978 
L 925.39893 220.324862 
L 928.051337 222.999231 
L 930.703743 225.504398 
L 933.35615 227.844519 
L 936.008556 230.024471 
L 938.660963 232.049736 
L 941.313369 233.926288 
L 943.965775 235.66049 
L 946.618182 237.258996 
L 949.270588 238.728663 
L 951.922995 240.076466 
L 954.575401 241.309428 
L 957.227807 242.434551 
L 959.880214 243.458759 
L 962.53262 244.38885 
L 965.185027 245.231446 
L 967.837433 245.992966 
L 970.48984 246.679589 
L 973.142246 247.297234 
L 975.794652 247.851542 
L 978.447059 248.347862 
L 981.099465 248.791242 
L 983.751872 249.186431 
L 986.404278 249.537869 
L 989.056684 249.849699 
L 991.709091 250.125768 
L 994.361497 250.369633 
L 997.013904 250.584575 
L 999.66631 250.773609 
L 1002.318717 250.939493 
L 1004.971123 251.084746 
L 1007.623529 251.211657 
L 1010.275936 251.322305 
L 1012.928342 251.418564 
L 1015.580749 251.502128 
L 1018.233155 251.574516 
L 1020.885561 251.637089 
L 1023.537968 251.691063 
L 1026.190374 251.737523 
L 1028.842781 251.777429 
L 1031.495187 251.811635 
L 1034.147594 251.840893 
L 1036.8 251.865868 
" style="fill:none;stroke:#0000ff;stroke-linecap:square;stroke-width:1.5;"/>
   </g>
   <g id="line2d_51">
    <path clip-path="url(#pb019236ad3)" d="M 920.428816 252 
L 920.428816 44.914286 
" style="fill:none;stroke:#000000;stroke-linecap:square;stroke-width:1.5;"/>
   </g>
   <g id="patch_160">
    <path d="M 774.211765 252 
L 774.211765 34.56 
" style="fill:none;stroke:#000000;stroke-linecap:square;stroke-linejoin:miter;stroke-width:0.8;"/>
   </g>
   <g id="patch_161">
    <path d="M 1036.8 252 
L 1036.8 34.56 
" style="fill:none;stroke:#000000;stroke-linecap:square;stroke-linejoin:miter;stroke-width:0.8;"/>
   </g>
   <g id="patch_162">
    <path d="M 774.211765 252 
L 1036.8 252 
" style="fill:none;stroke:#000000;stroke-linecap:square;stroke-linejoin:miter;stroke-width:0.8;"/>
   </g>
   <g id="patch_163">
    <path d="M 774.211765 34.56 
L 1036.8 34.56 
" style="fill:none;stroke:#000000;stroke-linecap:square;stroke-linejoin:miter;stroke-width:0.8;"/>
   </g>
   <g id="text_46">
    <!-- &lt;E1&gt; = 1.67 -->
    <g transform="translate(958.023529 65.622857)scale(0.1 -0.1)">
     <use xlink:href="#DejaVuSans-60"/>
     <use x="83.789062" xlink:href="#DejaVuSans-69"/>
     <use x="146.972656" xlink:href="#DejaVuSans-49"/>
     <use x="210.595703" xlink:href="#DejaVuSans-62"/>
     <use x="294.384766" xlink:href="#DejaVuSans-32"/>
     <use x="326.171875" xlink:href="#DejaVuSans-61"/>
     <use x="409.960938" xlink:href="#DejaVuSans-32"/>
     <use x="441.748047" xlink:href="#DejaVuSans-49"/>
     <use x="505.371094" xlink:href="#DejaVuSans-46"/>
     <use x="537.158203" xlink:href="#DejaVuSans-54"/>
     <use x="600.78125" xlink:href="#DejaVuSans-55"/>
    </g>
   </g>
  </g>
 </g>
 <defs>
  <clipPath id="p8dc998d1a6">
   <rect height="217.44" width="262.588235" x="144" y="34.56"/>
  </clipPath>
  <clipPath id="p94a370067b">
   <rect height="217.44" width="262.588235" x="459.105882" y="34.56"/>
  </clipPath>
  <clipPath id="pb019236ad3">
   <rect height="217.44" width="262.588235" x="774.211765" y="34.56"/>
  </clipPath>
 </defs>
</svg>
