<?xml version="1.0" encoding="utf-8" standalone="no"?>
<!DOCTYPE svg PUBLIC "-//W3C//DTD SVG 1.1//EN"
  "http://www.w3.org/Graphics/SVG/1.1/DTD/svg11.dtd">
<svg xmlns:xlink="http://www.w3.org/1999/xlink" width="1152pt" height="288pt" viewBox="0 0 1152 288" xmlns="http://www.w3.org/2000/svg" version="1.1">
 <metadata>
  <rdf:RDF xmlns:dc="http://purl.org/dc/elements/1.1/" xmlns:cc="http://creativecommons.org/ns#" xmlns:rdf="http://www.w3.org/1999/02/22-rdf-syntax-ns#">
   <cc:Work>
    <dc:type rdf:resource="http://purl.org/dc/dcmitype/StillImage"/>
    <dc:date>2022-10-01T00:41:04.782440</dc:date>
    <dc:format>image/svg+xml</dc:format>
    <dc:creator>
     <cc:Agent>
      <dc:title>Matplotlib v3.5.3, https://matplotlib.org/</dc:title>
     </cc:Agent>
    </dc:creator>
   </cc:Work>
  </rdf:RDF>
 </metadata>
 <defs>
  <style type="text/css">*{stroke-linejoin: round; stroke-linecap: butt}</style>
 </defs>
 <g id="figure_1">
  <g id="patch_1">
   <path d="M 0 288 
L 1152 288 
L 1152 0 
L 0 0 
z
" style="fill: #ffffff"/>
  </g>
  <g id="axes_1">
   <g id="patch_2">
    <path d="M 144 256.32 
L 406.588235 256.32 
L 406.588235 34.56 
L 144 34.56 
z
" style="fill: #ffffff"/>
   </g>
   <g id="patch_3">
    <path d="M 144.394429 256.32 
L 153.794921 256.32 
L 153.794921 118.840755 
L 144.394429 118.840755 
z
" clip-path="url(#pf5fd28f82d)" style="fill: #1f77b4; opacity: 0.5"/>
   </g>
   <g id="patch_4">
    <path d="M 153.794921 256.32 
L 163.195413 256.32 
L 163.195413 54.086038 
L 153.794921 54.086038 
z
" clip-path="url(#pf5fd28f82d)" style="fill: #1f77b4; opacity: 0.5"/>
   </g>
   <g id="patch_5">
    <path d="M 163.195413 256.32 
L 172.595905 256.32 
L 172.595905 45.12 
L 163.195413 45.12 
z
" clip-path="url(#pf5fd28f82d)" style="fill: #1f77b4; opacity: 0.5"/>
   </g>
   <g id="patch_6">
    <path d="M 172.595905 256.32 
L 181.996396 256.32 
L 181.996396 79.987925 
L 172.595905 79.987925 
z
" clip-path="url(#pf5fd28f82d)" style="fill: #1f77b4; opacity: 0.5"/>
   </g>
   <g id="patch_7">
    <path d="M 181.996396 256.32 
L 191.396888 256.32 
L 191.396888 102.901132 
L 181.996396 102.901132 
z
" clip-path="url(#pf5fd28f82d)" style="fill: #1f77b4; opacity: 0.5"/>
   </g>
   <g id="patch_8">
    <path d="M 191.396888 256.32 
L 200.79738 256.32 
L 200.79738 110.870943 
L 191.396888 110.870943 
z
" clip-path="url(#pf5fd28f82d)" style="fill: #1f77b4; opacity: 0.5"/>
   </g>
   <g id="patch_9">
    <path d="M 200.79738 256.32 
L 210.197872 256.32 
L 210.197872 144.742642 
L 200.79738 144.742642 
z
" clip-path="url(#pf5fd28f82d)" style="fill: #1f77b4; opacity: 0.5"/>
   </g>
   <g id="patch_10">
    <path d="M 210.197872 256.32 
L 219.598364 256.32 
L 219.598364 192.561509 
L 210.197872 192.561509 
z
" clip-path="url(#pf5fd28f82d)" style="fill: #1f77b4; opacity: 0.5"/>
   </g>
   <g id="patch_11">
    <path d="M 219.598364 256.32 
L 228.998856 256.32 
L 228.998856 196.546415 
L 219.598364 196.546415 
z
" clip-path="url(#pf5fd28f82d)" style="fill: #1f77b4; opacity: 0.5"/>
   </g>
   <g id="patch_12">
    <path d="M 228.998856 256.32 
L 238.399348 256.32 
L 238.399348 207.504906 
L 228.998856 207.504906 
z
" clip-path="url(#pf5fd28f82d)" style="fill: #1f77b4; opacity: 0.5"/>
   </g>
   <g id="patch_13">
    <path d="M 238.399348 256.32 
L 247.799839 256.32 
L 247.799839 231.41434 
L 238.399348 231.41434 
z
" clip-path="url(#pf5fd28f82d)" style="fill: #1f77b4; opacity: 0.5"/>
   </g>
   <g id="patch_14">
    <path d="M 247.799839 256.32 
L 257.200331 256.32 
L 257.200331 234.403019 
L 247.799839 234.403019 
z
" clip-path="url(#pf5fd28f82d)" style="fill: #1f77b4; opacity: 0.5"/>
   </g>
   <g id="patch_15">
    <path d="M 257.200331 256.32 
L 266.600823 256.32 
L 266.600823 237.391698 
L 257.200331 237.391698 
z
" clip-path="url(#pf5fd28f82d)" style="fill: #1f77b4; opacity: 0.5"/>
   </g>
   <g id="patch_16">
    <path d="M 266.600823 256.32 
L 276.001315 256.32 
L 276.001315 246.357736 
L 266.600823 246.357736 
z
" clip-path="url(#pf5fd28f82d)" style="fill: #1f77b4; opacity: 0.5"/>
   </g>
   <g id="patch_17">
    <path d="M 276.001315 256.32 
L 285.401807 256.32 
L 285.401807 244.365283 
L 276.001315 244.365283 
z
" clip-path="url(#pf5fd28f82d)" style="fill: #1f77b4; opacity: 0.5"/>
   </g>
   <g id="patch_18">
    <path d="M 285.401807 256.32 
L 294.802299 256.32 
L 294.802299 249.346415 
L 285.401807 249.346415 
z
" clip-path="url(#pf5fd28f82d)" style="fill: #1f77b4; opacity: 0.5"/>
   </g>
   <g id="patch_19">
    <path d="M 294.802299 256.32 
L 304.202791 256.32 
L 304.202791 255.323774 
L 294.802299 255.323774 
z
" clip-path="url(#pf5fd28f82d)" style="fill: #1f77b4; opacity: 0.5"/>
   </g>
   <g id="patch_20">
    <path d="M 304.202791 256.32 
L 313.603282 256.32 
L 313.603282 252.335094 
L 304.202791 252.335094 
z
" clip-path="url(#pf5fd28f82d)" style="fill: #1f77b4; opacity: 0.5"/>
   </g>
   <g id="patch_21">
    <path d="M 313.603282 256.32 
L 323.003774 256.32 
L 323.003774 256.32 
L 313.603282 256.32 
z
" clip-path="url(#pf5fd28f82d)" style="fill: #1f77b4; opacity: 0.5"/>
   </g>
   <g id="patch_22">
    <path d="M 323.003774 256.32 
L 332.404266 256.32 
L 332.404266 255.323774 
L 323.003774 255.323774 
z
" clip-path="url(#pf5fd28f82d)" style="fill: #1f77b4; opacity: 0.5"/>
   </g>
   <g id="matplotlib.axis_1">
    <g id="xtick_1">
     <g id="line2d_1">
      <defs>
       <path id="mc38db68bc4" d="M 0 0 
L 0 3.5 
" style="stroke: #000000; stroke-width: 0.8"/>
      </defs>
      <g>
       <use xlink:href="#mc38db68bc4" x="144" y="256.32" style="stroke: #000000; stroke-width: 0.8"/>
      </g>
     </g>
     <g id="text_1">
      <!-- 0 -->
      <g transform="translate(138.91 275.4775)scale(0.16 -0.16)">
       <defs>
        <path id="DejaVuSans-30" d="M 2034 4250 
Q 1547 4250 1301 3770 
Q 1056 3291 1056 2328 
Q 1056 1369 1301 889 
Q 1547 409 2034 409 
Q 2525 409 2770 889 
Q 3016 1369 3016 2328 
Q 3016 3291 2770 3770 
Q 2525 4250 2034 4250 
z
M 2034 4750 
Q 2819 4750 3233 4129 
Q 3647 3509 3647 2328 
Q 3647 1150 3233 529 
Q 2819 -91 2034 -91 
Q 1250 -91 836 529 
Q 422 1150 422 2328 
Q 422 3509 836 4129 
Q 1250 4750 2034 4750 
z
" transform="scale(0.015625)"/>
       </defs>
       <use xlink:href="#DejaVuSans-30"/>
      </g>
     </g>
    </g>
    <g id="xtick_2">
     <g id="line2d_2">
      <g>
       <use xlink:href="#mc38db68bc4" x="196.517647" y="256.32" style="stroke: #000000; stroke-width: 0.8"/>
      </g>
     </g>
     <g id="text_2">
      <!-- 1 -->
      <g transform="translate(191.427647 275.4775)scale(0.16 -0.16)">
       <defs>
        <path id="DejaVuSans-31" d="M 794 531 
L 1825 531 
L 1825 4091 
L 703 3866 
L 703 4441 
L 1819 4666 
L 2450 4666 
L 2450 531 
L 3481 531 
L 3481 0 
L 794 0 
L 794 531 
z
" transform="scale(0.015625)"/>
       </defs>
       <use xlink:href="#DejaVuSans-31"/>
      </g>
     </g>
    </g>
    <g id="xtick_3">
     <g id="line2d_3">
      <g>
       <use xlink:href="#mc38db68bc4" x="249.035294" y="256.32" style="stroke: #000000; stroke-width: 0.8"/>
      </g>
     </g>
     <g id="text_3">
      <!-- 2 -->
      <g transform="translate(243.945294 275.4775)scale(0.16 -0.16)">
       <defs>
        <path id="DejaVuSans-32" d="M 1228 531 
L 3431 531 
L 3431 0 
L 469 0 
L 469 531 
Q 828 903 1448 1529 
Q 2069 2156 2228 2338 
Q 2531 2678 2651 2914 
Q 2772 3150 2772 3378 
Q 2772 3750 2511 3984 
Q 2250 4219 1831 4219 
Q 1534 4219 1204 4116 
Q 875 4013 500 3803 
L 500 4441 
Q 881 4594 1212 4672 
Q 1544 4750 1819 4750 
Q 2544 4750 2975 4387 
Q 3406 4025 3406 3419 
Q 3406 3131 3298 2873 
Q 3191 2616 2906 2266 
Q 2828 2175 2409 1742 
Q 1991 1309 1228 531 
z
" transform="scale(0.015625)"/>
       </defs>
       <use xlink:href="#DejaVuSans-32"/>
      </g>
     </g>
    </g>
    <g id="xtick_4">
     <g id="line2d_4">
      <g>
       <use xlink:href="#mc38db68bc4" x="301.552941" y="256.32" style="stroke: #000000; stroke-width: 0.8"/>
      </g>
     </g>
     <g id="text_4">
      <!-- 3 -->
      <g transform="translate(296.462941 275.4775)scale(0.16 -0.16)">
       <defs>
        <path id="DejaVuSans-33" d="M 2597 2516 
Q 3050 2419 3304 2112 
Q 3559 1806 3559 1356 
Q 3559 666 3084 287 
Q 2609 -91 1734 -91 
Q 1441 -91 1130 -33 
Q 819 25 488 141 
L 488 750 
Q 750 597 1062 519 
Q 1375 441 1716 441 
Q 2309 441 2620 675 
Q 2931 909 2931 1356 
Q 2931 1769 2642 2001 
Q 2353 2234 1838 2234 
L 1294 2234 
L 1294 2753 
L 1863 2753 
Q 2328 2753 2575 2939 
Q 2822 3125 2822 3475 
Q 2822 3834 2567 4026 
Q 2313 4219 1838 4219 
Q 1578 4219 1281 4162 
Q 984 4106 628 3988 
L 628 4550 
Q 988 4650 1302 4700 
Q 1616 4750 1894 4750 
Q 2613 4750 3031 4423 
Q 3450 4097 3450 3541 
Q 3450 3153 3228 2886 
Q 3006 2619 2597 2516 
z
" transform="scale(0.015625)"/>
       </defs>
       <use xlink:href="#DejaVuSans-33"/>
      </g>
     </g>
    </g>
    <g id="xtick_5">
     <g id="line2d_5">
      <g>
       <use xlink:href="#mc38db68bc4" x="354.070588" y="256.32" style="stroke: #000000; stroke-width: 0.8"/>
      </g>
     </g>
     <g id="text_5">
      <!-- 4 -->
      <g transform="translate(348.980588 275.4775)scale(0.16 -0.16)">
       <defs>
        <path id="DejaVuSans-34" d="M 2419 4116 
L 825 1625 
L 2419 1625 
L 2419 4116 
z
M 2253 4666 
L 3047 4666 
L 3047 1625 
L 3713 1625 
L 3713 1100 
L 3047 1100 
L 3047 0 
L 2419 0 
L 2419 1100 
L 313 1100 
L 313 1709 
L 2253 4666 
z
" transform="scale(0.015625)"/>
       </defs>
       <use xlink:href="#DejaVuSans-34"/>
      </g>
     </g>
    </g>
    <g id="xtick_6">
     <g id="line2d_6">
      <g>
       <use xlink:href="#mc38db68bc4" x="406.588235" y="256.32" style="stroke: #000000; stroke-width: 0.8"/>
      </g>
     </g>
     <g id="text_6">
      <!-- 5 -->
      <g transform="translate(401.498235 275.4775)scale(0.16 -0.16)">
       <defs>
        <path id="DejaVuSans-35" d="M 691 4666 
L 3169 4666 
L 3169 4134 
L 1269 4134 
L 1269 2991 
Q 1406 3038 1543 3061 
Q 1681 3084 1819 3084 
Q 2600 3084 3056 2656 
Q 3513 2228 3513 1497 
Q 3513 744 3044 326 
Q 2575 -91 1722 -91 
Q 1428 -91 1123 -41 
Q 819 9 494 109 
L 494 744 
Q 775 591 1075 516 
Q 1375 441 1709 441 
Q 2250 441 2565 725 
Q 2881 1009 2881 1497 
Q 2881 1984 2565 2268 
Q 2250 2553 1709 2553 
Q 1456 2553 1204 2497 
Q 953 2441 691 2322 
L 691 4666 
z
" transform="scale(0.015625)"/>
       </defs>
       <use xlink:href="#DejaVuSans-35"/>
      </g>
     </g>
    </g>
    <g id="text_7">
     <!-- Normalized sf amplitude -->
     <g transform="translate(177.430368 294.9625)scale(0.16 -0.16)">
      <defs>
       <path id="DejaVuSans-4e" d="M 628 4666 
L 1478 4666 
L 3547 763 
L 3547 4666 
L 4159 4666 
L 4159 0 
L 3309 0 
L 1241 3903 
L 1241 0 
L 628 0 
L 628 4666 
z
" transform="scale(0.015625)"/>
       <path id="DejaVuSans-6f" d="M 1959 3097 
Q 1497 3097 1228 2736 
Q 959 2375 959 1747 
Q 959 1119 1226 758 
Q 1494 397 1959 397 
Q 2419 397 2687 759 
Q 2956 1122 2956 1747 
Q 2956 2369 2687 2733 
Q 2419 3097 1959 3097 
z
M 1959 3584 
Q 2709 3584 3137 3096 
Q 3566 2609 3566 1747 
Q 3566 888 3137 398 
Q 2709 -91 1959 -91 
Q 1206 -91 779 398 
Q 353 888 353 1747 
Q 353 2609 779 3096 
Q 1206 3584 1959 3584 
z
" transform="scale(0.015625)"/>
       <path id="DejaVuSans-72" d="M 2631 2963 
Q 2534 3019 2420 3045 
Q 2306 3072 2169 3072 
Q 1681 3072 1420 2755 
Q 1159 2438 1159 1844 
L 1159 0 
L 581 0 
L 581 3500 
L 1159 3500 
L 1159 2956 
Q 1341 3275 1631 3429 
Q 1922 3584 2338 3584 
Q 2397 3584 2469 3576 
Q 2541 3569 2628 3553 
L 2631 2963 
z
" transform="scale(0.015625)"/>
       <path id="DejaVuSans-6d" d="M 3328 2828 
Q 3544 3216 3844 3400 
Q 4144 3584 4550 3584 
Q 5097 3584 5394 3201 
Q 5691 2819 5691 2113 
L 5691 0 
L 5113 0 
L 5113 2094 
Q 5113 2597 4934 2840 
Q 4756 3084 4391 3084 
Q 3944 3084 3684 2787 
Q 3425 2491 3425 1978 
L 3425 0 
L 2847 0 
L 2847 2094 
Q 2847 2600 2669 2842 
Q 2491 3084 2119 3084 
Q 1678 3084 1418 2786 
Q 1159 2488 1159 1978 
L 1159 0 
L 581 0 
L 581 3500 
L 1159 3500 
L 1159 2956 
Q 1356 3278 1631 3431 
Q 1906 3584 2284 3584 
Q 2666 3584 2933 3390 
Q 3200 3197 3328 2828 
z
" transform="scale(0.015625)"/>
       <path id="DejaVuSans-61" d="M 2194 1759 
Q 1497 1759 1228 1600 
Q 959 1441 959 1056 
Q 959 750 1161 570 
Q 1363 391 1709 391 
Q 2188 391 2477 730 
Q 2766 1069 2766 1631 
L 2766 1759 
L 2194 1759 
z
M 3341 1997 
L 3341 0 
L 2766 0 
L 2766 531 
Q 2569 213 2275 61 
Q 1981 -91 1556 -91 
Q 1019 -91 701 211 
Q 384 513 384 1019 
Q 384 1609 779 1909 
Q 1175 2209 1959 2209 
L 2766 2209 
L 2766 2266 
Q 2766 2663 2505 2880 
Q 2244 3097 1772 3097 
Q 1472 3097 1187 3025 
Q 903 2953 641 2809 
L 641 3341 
Q 956 3463 1253 3523 
Q 1550 3584 1831 3584 
Q 2591 3584 2966 3190 
Q 3341 2797 3341 1997 
z
" transform="scale(0.015625)"/>
       <path id="DejaVuSans-6c" d="M 603 4863 
L 1178 4863 
L 1178 0 
L 603 0 
L 603 4863 
z
" transform="scale(0.015625)"/>
       <path id="DejaVuSans-69" d="M 603 3500 
L 1178 3500 
L 1178 0 
L 603 0 
L 603 3500 
z
M 603 4863 
L 1178 4863 
L 1178 4134 
L 603 4134 
L 603 4863 
z
" transform="scale(0.015625)"/>
       <path id="DejaVuSans-7a" d="M 353 3500 
L 3084 3500 
L 3084 2975 
L 922 459 
L 3084 459 
L 3084 0 
L 275 0 
L 275 525 
L 2438 3041 
L 353 3041 
L 353 3500 
z
" transform="scale(0.015625)"/>
       <path id="DejaVuSans-65" d="M 3597 1894 
L 3597 1613 
L 953 1613 
Q 991 1019 1311 708 
Q 1631 397 2203 397 
Q 2534 397 2845 478 
Q 3156 559 3463 722 
L 3463 178 
Q 3153 47 2828 -22 
Q 2503 -91 2169 -91 
Q 1331 -91 842 396 
Q 353 884 353 1716 
Q 353 2575 817 3079 
Q 1281 3584 2069 3584 
Q 2775 3584 3186 3129 
Q 3597 2675 3597 1894 
z
M 3022 2063 
Q 3016 2534 2758 2815 
Q 2500 3097 2075 3097 
Q 1594 3097 1305 2825 
Q 1016 2553 972 2059 
L 3022 2063 
z
" transform="scale(0.015625)"/>
       <path id="DejaVuSans-64" d="M 2906 2969 
L 2906 4863 
L 3481 4863 
L 3481 0 
L 2906 0 
L 2906 525 
Q 2725 213 2448 61 
Q 2172 -91 1784 -91 
Q 1150 -91 751 415 
Q 353 922 353 1747 
Q 353 2572 751 3078 
Q 1150 3584 1784 3584 
Q 2172 3584 2448 3432 
Q 2725 3281 2906 2969 
z
M 947 1747 
Q 947 1113 1208 752 
Q 1469 391 1925 391 
Q 2381 391 2643 752 
Q 2906 1113 2906 1747 
Q 2906 2381 2643 2742 
Q 2381 3103 1925 3103 
Q 1469 3103 1208 2742 
Q 947 2381 947 1747 
z
" transform="scale(0.015625)"/>
       <path id="DejaVuSans-20" transform="scale(0.015625)"/>
       <path id="DejaVuSans-73" d="M 2834 3397 
L 2834 2853 
Q 2591 2978 2328 3040 
Q 2066 3103 1784 3103 
Q 1356 3103 1142 2972 
Q 928 2841 928 2578 
Q 928 2378 1081 2264 
Q 1234 2150 1697 2047 
L 1894 2003 
Q 2506 1872 2764 1633 
Q 3022 1394 3022 966 
Q 3022 478 2636 193 
Q 2250 -91 1575 -91 
Q 1294 -91 989 -36 
Q 684 19 347 128 
L 347 722 
Q 666 556 975 473 
Q 1284 391 1588 391 
Q 1994 391 2212 530 
Q 2431 669 2431 922 
Q 2431 1156 2273 1281 
Q 2116 1406 1581 1522 
L 1381 1569 
Q 847 1681 609 1914 
Q 372 2147 372 2553 
Q 372 3047 722 3315 
Q 1072 3584 1716 3584 
Q 2034 3584 2315 3537 
Q 2597 3491 2834 3397 
z
" transform="scale(0.015625)"/>
       <path id="DejaVuSans-66" d="M 2375 4863 
L 2375 4384 
L 1825 4384 
Q 1516 4384 1395 4259 
Q 1275 4134 1275 3809 
L 1275 3500 
L 2222 3500 
L 2222 3053 
L 1275 3053 
L 1275 0 
L 697 0 
L 697 3053 
L 147 3053 
L 147 3500 
L 697 3500 
L 697 3744 
Q 697 4328 969 4595 
Q 1241 4863 1831 4863 
L 2375 4863 
z
" transform="scale(0.015625)"/>
       <path id="DejaVuSans-70" d="M 1159 525 
L 1159 -1331 
L 581 -1331 
L 581 3500 
L 1159 3500 
L 1159 2969 
Q 1341 3281 1617 3432 
Q 1894 3584 2278 3584 
Q 2916 3584 3314 3078 
Q 3713 2572 3713 1747 
Q 3713 922 3314 415 
Q 2916 -91 2278 -91 
Q 1894 -91 1617 61 
Q 1341 213 1159 525 
z
M 3116 1747 
Q 3116 2381 2855 2742 
Q 2594 3103 2138 3103 
Q 1681 3103 1420 2742 
Q 1159 2381 1159 1747 
Q 1159 1113 1420 752 
Q 1681 391 2138 391 
Q 2594 391 2855 752 
Q 3116 1113 3116 1747 
z
" transform="scale(0.015625)"/>
       <path id="DejaVuSans-74" d="M 1172 4494 
L 1172 3500 
L 2356 3500 
L 2356 3053 
L 1172 3053 
L 1172 1153 
Q 1172 725 1289 603 
Q 1406 481 1766 481 
L 2356 481 
L 2356 0 
L 1766 0 
Q 1100 0 847 248 
Q 594 497 594 1153 
L 594 3053 
L 172 3053 
L 172 3500 
L 594 3500 
L 594 4494 
L 1172 4494 
z
" transform="scale(0.015625)"/>
       <path id="DejaVuSans-75" d="M 544 1381 
L 544 3500 
L 1119 3500 
L 1119 1403 
Q 1119 906 1312 657 
Q 1506 409 1894 409 
Q 2359 409 2629 706 
Q 2900 1003 2900 1516 
L 2900 3500 
L 3475 3500 
L 3475 0 
L 2900 0 
L 2900 538 
Q 2691 219 2414 64 
Q 2138 -91 1772 -91 
Q 1169 -91 856 284 
Q 544 659 544 1381 
z
M 1991 3584 
L 1991 3584 
z
" transform="scale(0.015625)"/>
      </defs>
      <use xlink:href="#DejaVuSans-4e"/>
      <use xlink:href="#DejaVuSans-6f" x="74.804688"/>
      <use xlink:href="#DejaVuSans-72" x="135.986328"/>
      <use xlink:href="#DejaVuSans-6d" x="175.349609"/>
      <use xlink:href="#DejaVuSans-61" x="272.761719"/>
      <use xlink:href="#DejaVuSans-6c" x="334.041016"/>
      <use xlink:href="#DejaVuSans-69" x="361.824219"/>
      <use xlink:href="#DejaVuSans-7a" x="389.607422"/>
      <use xlink:href="#DejaVuSans-65" x="442.097656"/>
      <use xlink:href="#DejaVuSans-64" x="503.621094"/>
      <use xlink:href="#DejaVuSans-20" x="567.097656"/>
      <use xlink:href="#DejaVuSans-73" x="598.884766"/>
      <use xlink:href="#DejaVuSans-66" x="650.984375"/>
      <use xlink:href="#DejaVuSans-20" x="686.189453"/>
      <use xlink:href="#DejaVuSans-61" x="717.976562"/>
      <use xlink:href="#DejaVuSans-6d" x="779.255859"/>
      <use xlink:href="#DejaVuSans-70" x="876.667969"/>
      <use xlink:href="#DejaVuSans-6c" x="940.144531"/>
      <use xlink:href="#DejaVuSans-69" x="967.927734"/>
      <use xlink:href="#DejaVuSans-74" x="995.710938"/>
      <use xlink:href="#DejaVuSans-75" x="1034.919922"/>
      <use xlink:href="#DejaVuSans-64" x="1098.298828"/>
      <use xlink:href="#DejaVuSans-65" x="1161.775391"/>
     </g>
    </g>
   </g>
   <g id="matplotlib.axis_2">
    <g id="ytick_1">
     <g id="line2d_7">
      <defs>
       <path id="m3c6fbeddda" d="M 0 0 
L -3.5 0 
" style="stroke: #000000; stroke-width: 0.8"/>
      </defs>
      <g>
       <use xlink:href="#m3c6fbeddda" x="144" y="256.32" style="stroke: #000000; stroke-width: 0.8"/>
      </g>
     </g>
     <g id="text_8">
      <!-- 0.0 -->
      <g transform="translate(111.555 262.39875)scale(0.16 -0.16)">
       <defs>
        <path id="DejaVuSans-2e" d="M 684 794 
L 1344 794 
L 1344 0 
L 684 0 
L 684 794 
z
" transform="scale(0.015625)"/>
       </defs>
       <use xlink:href="#DejaVuSans-30"/>
       <use xlink:href="#DejaVuSans-2e" x="63.623047"/>
       <use xlink:href="#DejaVuSans-30" x="95.410156"/>
      </g>
     </g>
    </g>
    <g id="ytick_2">
     <g id="line2d_8">
      <g>
       <use xlink:href="#m3c6fbeddda" x="144" y="205.819391" style="stroke: #000000; stroke-width: 0.8"/>
      </g>
     </g>
     <g id="text_9">
      <!-- 0.2 -->
      <g transform="translate(111.555 211.898141)scale(0.16 -0.16)">
       <use xlink:href="#DejaVuSans-30"/>
       <use xlink:href="#DejaVuSans-2e" x="63.623047"/>
       <use xlink:href="#DejaVuSans-32" x="95.410156"/>
      </g>
     </g>
    </g>
    <g id="ytick_3">
     <g id="line2d_9">
      <g>
       <use xlink:href="#m3c6fbeddda" x="144" y="155.318781" style="stroke: #000000; stroke-width: 0.8"/>
      </g>
     </g>
     <g id="text_10">
      <!-- 0.4 -->
      <g transform="translate(111.555 161.397531)scale(0.16 -0.16)">
       <use xlink:href="#DejaVuSans-30"/>
       <use xlink:href="#DejaVuSans-2e" x="63.623047"/>
       <use xlink:href="#DejaVuSans-34" x="95.410156"/>
      </g>
     </g>
    </g>
    <g id="ytick_4">
     <g id="line2d_10">
      <g>
       <use xlink:href="#m3c6fbeddda" x="144" y="104.818172" style="stroke: #000000; stroke-width: 0.8"/>
      </g>
     </g>
     <g id="text_11">
      <!-- 0.6 -->
      <g transform="translate(111.555 110.896922)scale(0.16 -0.16)">
       <defs>
        <path id="DejaVuSans-36" d="M 2113 2584 
Q 1688 2584 1439 2293 
Q 1191 2003 1191 1497 
Q 1191 994 1439 701 
Q 1688 409 2113 409 
Q 2538 409 2786 701 
Q 3034 994 3034 1497 
Q 3034 2003 2786 2293 
Q 2538 2584 2113 2584 
z
M 3366 4563 
L 3366 3988 
Q 3128 4100 2886 4159 
Q 2644 4219 2406 4219 
Q 1781 4219 1451 3797 
Q 1122 3375 1075 2522 
Q 1259 2794 1537 2939 
Q 1816 3084 2150 3084 
Q 2853 3084 3261 2657 
Q 3669 2231 3669 1497 
Q 3669 778 3244 343 
Q 2819 -91 2113 -91 
Q 1303 -91 875 529 
Q 447 1150 447 2328 
Q 447 3434 972 4092 
Q 1497 4750 2381 4750 
Q 2619 4750 2861 4703 
Q 3103 4656 3366 4563 
z
" transform="scale(0.015625)"/>
       </defs>
       <use xlink:href="#DejaVuSans-30"/>
       <use xlink:href="#DejaVuSans-2e" x="63.623047"/>
       <use xlink:href="#DejaVuSans-36" x="95.410156"/>
      </g>
     </g>
    </g>
    <g id="ytick_5">
     <g id="line2d_11">
      <g>
       <use xlink:href="#m3c6fbeddda" x="144" y="54.317562" style="stroke: #000000; stroke-width: 0.8"/>
      </g>
     </g>
     <g id="text_12">
      <!-- 0.8 -->
      <g transform="translate(111.555 60.396312)scale(0.16 -0.16)">
       <defs>
        <path id="DejaVuSans-38" d="M 2034 2216 
Q 1584 2216 1326 1975 
Q 1069 1734 1069 1313 
Q 1069 891 1326 650 
Q 1584 409 2034 409 
Q 2484 409 2743 651 
Q 3003 894 3003 1313 
Q 3003 1734 2745 1975 
Q 2488 2216 2034 2216 
z
M 1403 2484 
Q 997 2584 770 2862 
Q 544 3141 544 3541 
Q 544 4100 942 4425 
Q 1341 4750 2034 4750 
Q 2731 4750 3128 4425 
Q 3525 4100 3525 3541 
Q 3525 3141 3298 2862 
Q 3072 2584 2669 2484 
Q 3125 2378 3379 2068 
Q 3634 1759 3634 1313 
Q 3634 634 3220 271 
Q 2806 -91 2034 -91 
Q 1263 -91 848 271 
Q 434 634 434 1313 
Q 434 1759 690 2068 
Q 947 2378 1403 2484 
z
M 1172 3481 
Q 1172 3119 1398 2916 
Q 1625 2713 2034 2713 
Q 2441 2713 2670 2916 
Q 2900 3119 2900 3481 
Q 2900 3844 2670 4047 
Q 2441 4250 2034 4250 
Q 1625 4250 1398 4047 
Q 1172 3844 1172 3481 
z
" transform="scale(0.015625)"/>
       </defs>
       <use xlink:href="#DejaVuSans-30"/>
       <use xlink:href="#DejaVuSans-2e" x="63.623047"/>
       <use xlink:href="#DejaVuSans-38" x="95.410156"/>
      </g>
     </g>
    </g>
    <g id="text_13">
     <!-- count -->
     <g transform="translate(104.2275 168.01)rotate(-90)scale(0.16 -0.16)">
      <defs>
       <path id="DejaVuSans-63" d="M 3122 3366 
L 3122 2828 
Q 2878 2963 2633 3030 
Q 2388 3097 2138 3097 
Q 1578 3097 1268 2742 
Q 959 2388 959 1747 
Q 959 1106 1268 751 
Q 1578 397 2138 397 
Q 2388 397 2633 464 
Q 2878 531 3122 666 
L 3122 134 
Q 2881 22 2623 -34 
Q 2366 -91 2075 -91 
Q 1284 -91 818 406 
Q 353 903 353 1747 
Q 353 2603 823 3093 
Q 1294 3584 2113 3584 
Q 2378 3584 2631 3529 
Q 2884 3475 3122 3366 
z
" transform="scale(0.015625)"/>
       <path id="DejaVuSans-6e" d="M 3513 2113 
L 3513 0 
L 2938 0 
L 2938 2094 
Q 2938 2591 2744 2837 
Q 2550 3084 2163 3084 
Q 1697 3084 1428 2787 
Q 1159 2491 1159 1978 
L 1159 0 
L 581 0 
L 581 3500 
L 1159 3500 
L 1159 2956 
Q 1366 3272 1645 3428 
Q 1925 3584 2291 3584 
Q 2894 3584 3203 3211 
Q 3513 2838 3513 2113 
z
" transform="scale(0.015625)"/>
      </defs>
      <use xlink:href="#DejaVuSans-63"/>
      <use xlink:href="#DejaVuSans-6f" x="54.980469"/>
      <use xlink:href="#DejaVuSans-75" x="116.162109"/>
      <use xlink:href="#DejaVuSans-6e" x="179.541016"/>
      <use xlink:href="#DejaVuSans-74" x="242.919922"/>
     </g>
    </g>
   </g>
   <g id="line2d_12">
    <path d="M 144 54.851717 
L 145.683933 54.955256 
L 147.367865 55.265554 
L 149.051798 55.781655 
L 150.73573 56.501971 
L 152.419663 57.424291 
L 154.524579 58.856902 
L 156.629494 60.593864 
L 158.73441 62.626949 
L 160.839326 64.94659 
L 163.365225 68.093072 
L 165.891123 71.615581 
L 168.417022 75.490956 
L 171.363904 80.424593 
L 174.731769 86.554207 
L 178.099635 93.142653 
L 182.309466 101.915342 
L 186.940281 112.095913 
L 193.255028 126.541844 
L 207.568455 159.478787 
L 213.041235 171.417213 
L 217.67205 181.003429 
L 221.881881 189.2298 
L 225.67073 196.193657 
L 229.459578 202.71441 
L 233.248426 208.776084 
L 236.616291 213.772626 
L 239.984157 218.400329 
L 243.352022 222.663391 
L 246.719887 226.569783 
L 250.087752 230.130698 
L 253.455617 233.36001 
L 256.823482 236.273735 
L 260.191347 238.889525 
L 263.559213 241.226187 
L 266.927078 243.303245 
L 270.294943 245.14055 
L 274.083791 246.945609 
L 277.872639 248.500027 
L 282.082471 249.9657 
L 286.292302 251.189738 
L 290.923117 252.295653 
L 295.974915 253.259346 
L 301.447695 254.068398 
L 307.762443 254.761175 
L 314.919156 255.310235 
L 323.338819 255.728385 
L 334.284381 256.035871 
L 349.860757 256.227166 
L 354.070588 256.252415 
L 354.070588 256.252415 
" clip-path="url(#pf5fd28f82d)" style="fill: none; stroke: #ff0000; stroke-width: 1.5; stroke-linecap: square"/>
   </g>
   <g id="patch_23">
    <path d="M 144 256.32 
L 144 34.56 
" style="fill: none; stroke: #000000; stroke-width: 0.8; stroke-linejoin: miter; stroke-linecap: square"/>
   </g>
   <g id="patch_24">
    <path d="M 406.588235 256.32 
L 406.588235 34.56 
" style="fill: none; stroke: #000000; stroke-width: 0.8; stroke-linejoin: miter; stroke-linecap: square"/>
   </g>
   <g id="patch_25">
    <path d="M 144 256.32 
L 406.588235 256.32 
" style="fill: none; stroke: #000000; stroke-width: 0.8; stroke-linejoin: miter; stroke-linecap: square"/>
   </g>
   <g id="patch_26">
    <path d="M 144 34.56 
L 406.588235 34.56 
" style="fill: none; stroke: #000000; stroke-width: 0.8; stroke-linejoin: miter; stroke-linecap: square"/>
   </g>
   <g id="text_14">
    <!-- Centric -->
    <g transform="translate(240.944118 28.56)scale(0.192 -0.192)">
     <defs>
      <path id="DejaVuSans-43" d="M 4122 4306 
L 4122 3641 
Q 3803 3938 3442 4084 
Q 3081 4231 2675 4231 
Q 1875 4231 1450 3742 
Q 1025 3253 1025 2328 
Q 1025 1406 1450 917 
Q 1875 428 2675 428 
Q 3081 428 3442 575 
Q 3803 722 4122 1019 
L 4122 359 
Q 3791 134 3420 21 
Q 3050 -91 2638 -91 
Q 1578 -91 968 557 
Q 359 1206 359 2328 
Q 359 3453 968 4101 
Q 1578 4750 2638 4750 
Q 3056 4750 3426 4639 
Q 3797 4528 4122 4306 
z
" transform="scale(0.015625)"/>
     </defs>
     <use xlink:href="#DejaVuSans-43"/>
     <use xlink:href="#DejaVuSans-65" x="69.824219"/>
     <use xlink:href="#DejaVuSans-6e" x="131.347656"/>
     <use xlink:href="#DejaVuSans-74" x="194.726562"/>
     <use xlink:href="#DejaVuSans-72" x="233.935547"/>
     <use xlink:href="#DejaVuSans-69" x="275.048828"/>
     <use xlink:href="#DejaVuSans-63" x="302.832031"/>
    </g>
   </g>
  </g>
  <g id="axes_2">
   <g id="patch_27">
    <path d="M 459.105882 256.32 
L 721.694118 256.32 
L 721.694118 34.56 
L 459.105882 34.56 
z
" style="fill: #ffffff"/>
   </g>
   <g id="patch_28">
    <path d="M 459.301577 256.32 
L 463.615116 256.32 
L 463.615116 244.527874 
L 459.301577 244.527874 
z
" clip-path="url(#pf611e583dd)" style="fill: #1f77b4; opacity: 0.5"/>
   </g>
   <g id="patch_29">
    <path d="M 463.615116 256.32 
L 467.928656 256.32 
L 467.928656 206.657008 
L 463.615116 206.657008 
z
" clip-path="url(#pf611e583dd)" style="fill: #1f77b4; opacity: 0.5"/>
   </g>
   <g id="patch_30">
    <path d="M 467.928656 256.32 
L 472.242196 256.32 
L 472.242196 166.140472 
L 467.928656 166.140472 
z
" clip-path="url(#pf611e583dd)" style="fill: #1f77b4; opacity: 0.5"/>
   </g>
   <g id="patch_31">
    <path d="M 472.242196 256.32 
L 476.555736 256.32 
L 476.555736 136.660157 
L 472.242196 136.660157 
z
" clip-path="url(#pf611e583dd)" style="fill: #1f77b4; opacity: 0.5"/>
   </g>
   <g id="patch_32">
    <path d="M 476.555736 256.32 
L 480.869276 256.32 
L 480.869276 98.184567 
L 476.555736 98.184567 
z
" clip-path="url(#pf611e583dd)" style="fill: #1f77b4; opacity: 0.5"/>
   </g>
   <g id="patch_33">
    <path d="M 480.869276 256.32 
L 485.182816 256.32 
L 485.182816 78.455433 
L 480.869276 78.455433 
z
" clip-path="url(#pf611e583dd)" style="fill: #1f77b4; opacity: 0.5"/>
   </g>
   <g id="patch_34">
    <path d="M 485.182816 256.32 
L 489.496356 256.32 
L 489.496356 62.581417 
L 485.182816 62.581417 
z
" clip-path="url(#pf611e583dd)" style="fill: #1f77b4; opacity: 0.5"/>
   </g>
   <g id="patch_35">
    <path d="M 489.496356 256.32 
L 493.809896 256.32 
L 493.809896 56.685354 
L 489.496356 56.685354 
z
" clip-path="url(#pf611e583dd)" style="fill: #1f77b4; opacity: 0.5"/>
   </g>
   <g id="patch_36">
    <path d="M 493.809896 256.32 
L 498.123436 256.32 
L 498.123436 47.765669 
L 493.809896 47.765669 
z
" clip-path="url(#pf611e583dd)" style="fill: #1f77b4; opacity: 0.5"/>
   </g>
   <g id="patch_37">
    <path d="M 498.123436 256.32 
L 502.436975 256.32 
L 502.436975 45.12 
L 498.123436 45.12 
z
" clip-path="url(#pf611e583dd)" style="fill: #1f77b4; opacity: 0.5"/>
   </g>
   <g id="patch_38">
    <path d="M 502.436975 256.32 
L 506.750515 256.32 
L 506.750515 59.482205 
L 502.436975 59.482205 
z
" clip-path="url(#pf611e583dd)" style="fill: #1f77b4; opacity: 0.5"/>
   </g>
   <g id="patch_39">
    <path d="M 506.750515 256.32 
L 511.064055 256.32 
L 511.064055 70.820787 
L 506.750515 70.820787 
z
" clip-path="url(#pf611e583dd)" style="fill: #1f77b4; opacity: 0.5"/>
   </g>
   <g id="patch_40">
    <path d="M 511.064055 256.32 
L 515.377595 256.32 
L 515.377595 83.444409 
L 511.064055 83.444409 
z
" clip-path="url(#pf611e583dd)" style="fill: #1f77b4; opacity: 0.5"/>
   </g>
   <g id="patch_41">
    <path d="M 515.377595 256.32 
L 519.691135 256.32 
L 519.691135 102.946772 
L 515.377595 102.946772 
z
" clip-path="url(#pf611e583dd)" style="fill: #1f77b4; opacity: 0.5"/>
   </g>
   <g id="patch_42">
    <path d="M 519.691135 256.32 
L 524.004675 256.32 
L 524.004675 114.965669 
L 519.691135 114.965669 
z
" clip-path="url(#pf611e583dd)" style="fill: #1f77b4; opacity: 0.5"/>
   </g>
   <g id="patch_43">
    <path d="M 524.004675 256.32 
L 528.318215 256.32 
L 528.318215 139.532598 
L 524.004675 139.532598 
z
" clip-path="url(#pf611e583dd)" style="fill: #1f77b4; opacity: 0.5"/>
   </g>
   <g id="patch_44">
    <path d="M 528.318215 256.32 
L 532.631755 256.32 
L 532.631755 153.138898 
L 528.318215 153.138898 
z
" clip-path="url(#pf611e583dd)" style="fill: #1f77b4; opacity: 0.5"/>
   </g>
   <g id="patch_45">
    <path d="M 532.631755 256.32 
L 536.945295 256.32 
L 536.945295 170.297953 
L 532.631755 170.297953 
z
" clip-path="url(#pf611e583dd)" style="fill: #1f77b4; opacity: 0.5"/>
   </g>
   <g id="patch_46">
    <path d="M 536.945295 256.32 
L 541.258834 256.32 
L 541.258834 185.567244 
L 536.945295 185.567244 
z
" clip-path="url(#pf611e583dd)" style="fill: #1f77b4; opacity: 0.5"/>
   </g>
   <g id="patch_47">
    <path d="M 541.258834 256.32 
L 545.572374 256.32 
L 545.572374 201.743622 
L 541.258834 201.743622 
z
" clip-path="url(#pf611e583dd)" style="fill: #1f77b4; opacity: 0.5"/>
   </g>
   <g id="patch_48">
    <path d="M 545.572374 256.32 
L 549.885914 256.32 
L 549.885914 213.460157 
L 545.572374 213.460157 
z
" clip-path="url(#pf611e583dd)" style="fill: #1f77b4; opacity: 0.5"/>
   </g>
   <g id="patch_49">
    <path d="M 549.885914 256.32 
L 554.199454 256.32 
L 554.199454 219.734173 
L 549.885914 219.734173 
z
" clip-path="url(#pf611e583dd)" style="fill: #1f77b4; opacity: 0.5"/>
   </g>
   <g id="patch_50">
    <path d="M 554.199454 256.32 
L 558.512994 256.32 
L 558.512994 228.124724 
L 554.199454 228.124724 
z
" clip-path="url(#pf611e583dd)" style="fill: #1f77b4; opacity: 0.5"/>
   </g>
   <g id="patch_51">
    <path d="M 558.512994 256.32 
L 562.826534 256.32 
L 562.826534 235.154646 
L 558.512994 235.154646 
z
" clip-path="url(#pf611e583dd)" style="fill: #1f77b4; opacity: 0.5"/>
   </g>
   <g id="patch_52">
    <path d="M 562.826534 256.32 
L 567.140074 256.32 
L 567.140074 240.219213 
L 562.826534 240.219213 
z
" clip-path="url(#pf611e583dd)" style="fill: #1f77b4; opacity: 0.5"/>
   </g>
   <g id="patch_53">
    <path d="M 567.140074 256.32 
L 571.453614 256.32 
L 571.453614 244.225512 
L 567.140074 244.225512 
z
" clip-path="url(#pf611e583dd)" style="fill: #1f77b4; opacity: 0.5"/>
   </g>
   <g id="patch_54">
    <path d="M 571.453614 256.32 
L 575.767153 256.32 
L 575.767153 247.249134 
L 571.453614 247.249134 
z
" clip-path="url(#pf611e583dd)" style="fill: #1f77b4; opacity: 0.5"/>
   </g>
   <g id="patch_55">
    <path d="M 575.767153 256.32 
L 580.080693 256.32 
L 580.080693 250.499528 
L 575.767153 250.499528 
z
" clip-path="url(#pf611e583dd)" style="fill: #1f77b4; opacity: 0.5"/>
   </g>
   <g id="patch_56">
    <path d="M 580.080693 256.32 
L 584.394233 256.32 
L 584.394233 251.557795 
L 580.080693 251.557795 
z
" clip-path="url(#pf611e583dd)" style="fill: #1f77b4; opacity: 0.5"/>
   </g>
   <g id="patch_57">
    <path d="M 584.394233 256.32 
L 588.707773 256.32 
L 588.707773 252.767244 
L 584.394233 252.767244 
z
" clip-path="url(#pf611e583dd)" style="fill: #1f77b4; opacity: 0.5"/>
   </g>
   <g id="patch_58">
    <path d="M 588.707773 256.32 
L 593.021313 256.32 
L 593.021313 253.674331 
L 588.707773 253.674331 
z
" clip-path="url(#pf611e583dd)" style="fill: #1f77b4; opacity: 0.5"/>
   </g>
   <g id="patch_59">
    <path d="M 593.021313 256.32 
L 597.334853 256.32 
L 597.334853 254.732598 
L 593.021313 254.732598 
z
" clip-path="url(#pf611e583dd)" style="fill: #1f77b4; opacity: 0.5"/>
   </g>
   <g id="patch_60">
    <path d="M 597.334853 256.32 
L 601.648393 256.32 
L 601.648393 255.337323 
L 597.334853 255.337323 
z
" clip-path="url(#pf611e583dd)" style="fill: #1f77b4; opacity: 0.5"/>
   </g>
   <g id="patch_61">
    <path d="M 601.648393 256.32 
L 605.961933 256.32 
L 605.961933 255.790866 
L 601.648393 255.790866 
z
" clip-path="url(#pf611e583dd)" style="fill: #1f77b4; opacity: 0.5"/>
   </g>
   <g id="patch_62">
    <path d="M 605.961933 256.32 
L 610.275473 256.32 
L 610.275473 255.942047 
L 605.961933 255.942047 
z
" clip-path="url(#pf611e583dd)" style="fill: #1f77b4; opacity: 0.5"/>
   </g>
   <g id="patch_63">
    <path d="M 610.275473 256.32 
L 614.589012 256.32 
L 614.589012 255.942047 
L 610.275473 255.942047 
z
" clip-path="url(#pf611e583dd)" style="fill: #1f77b4; opacity: 0.5"/>
   </g>
   <g id="patch_64">
    <path d="M 614.589012 256.32 
L 618.902552 256.32 
L 618.902552 256.017638 
L 614.589012 256.017638 
z
" clip-path="url(#pf611e583dd)" style="fill: #1f77b4; opacity: 0.5"/>
   </g>
   <g id="patch_65">
    <path d="M 618.902552 256.32 
L 623.216092 256.32 
L 623.216092 256.244409 
L 618.902552 256.244409 
z
" clip-path="url(#pf611e583dd)" style="fill: #1f77b4; opacity: 0.5"/>
   </g>
   <g id="patch_66">
    <path d="M 623.216092 256.32 
L 627.529632 256.32 
L 627.529632 256.32 
L 623.216092 256.32 
z
" clip-path="url(#pf611e583dd)" style="fill: #1f77b4; opacity: 0.5"/>
   </g>
   <g id="patch_67">
    <path d="M 627.529632 256.32 
L 631.843172 256.32 
L 631.843172 256.244409 
L 627.529632 256.244409 
z
" clip-path="url(#pf611e583dd)" style="fill: #1f77b4; opacity: 0.5"/>
   </g>
   <g id="matplotlib.axis_3">
    <g id="xtick_7">
     <g id="line2d_13">
      <g>
       <use xlink:href="#mc38db68bc4" x="459.105882" y="256.32" style="stroke: #000000; stroke-width: 0.8"/>
      </g>
     </g>
     <g id="text_15">
      <!-- 0 -->
      <g transform="translate(454.015882 275.4775)scale(0.16 -0.16)">
       <use xlink:href="#DejaVuSans-30"/>
      </g>
     </g>
    </g>
    <g id="xtick_8">
     <g id="line2d_14">
      <g>
       <use xlink:href="#mc38db68bc4" x="511.623529" y="256.32" style="stroke: #000000; stroke-width: 0.8"/>
      </g>
     </g>
     <g id="text_16">
      <!-- 1 -->
      <g transform="translate(506.533529 275.4775)scale(0.16 -0.16)">
       <use xlink:href="#DejaVuSans-31"/>
      </g>
     </g>
    </g>
    <g id="xtick_9">
     <g id="line2d_15">
      <g>
       <use xlink:href="#mc38db68bc4" x="564.141176" y="256.32" style="stroke: #000000; stroke-width: 0.8"/>
      </g>
     </g>
     <g id="text_17">
      <!-- 2 -->
      <g transform="translate(559.051176 275.4775)scale(0.16 -0.16)">
       <use xlink:href="#DejaVuSans-32"/>
      </g>
     </g>
    </g>
    <g id="xtick_10">
     <g id="line2d_16">
      <g>
       <use xlink:href="#mc38db68bc4" x="616.658824" y="256.32" style="stroke: #000000; stroke-width: 0.8"/>
      </g>
     </g>
     <g id="text_18">
      <!-- 3 -->
      <g transform="translate(611.568824 275.4775)scale(0.16 -0.16)">
       <use xlink:href="#DejaVuSans-33"/>
      </g>
     </g>
    </g>
    <g id="xtick_11">
     <g id="line2d_17">
      <g>
       <use xlink:href="#mc38db68bc4" x="669.176471" y="256.32" style="stroke: #000000; stroke-width: 0.8"/>
      </g>
     </g>
     <g id="text_19">
      <!-- 4 -->
      <g transform="translate(664.086471 275.4775)scale(0.16 -0.16)">
       <use xlink:href="#DejaVuSans-34"/>
      </g>
     </g>
    </g>
    <g id="xtick_12">
     <g id="line2d_18">
      <g>
       <use xlink:href="#mc38db68bc4" x="721.694118" y="256.32" style="stroke: #000000; stroke-width: 0.8"/>
      </g>
     </g>
     <g id="text_20">
      <!-- 5 -->
      <g transform="translate(716.604118 275.4775)scale(0.16 -0.16)">
       <use xlink:href="#DejaVuSans-35"/>
      </g>
     </g>
    </g>
    <g id="text_21">
     <!-- Normalized sf amplitude -->
     <g transform="translate(492.53625 294.9625)scale(0.16 -0.16)">
      <use xlink:href="#DejaVuSans-4e"/>
      <use xlink:href="#DejaVuSans-6f" x="74.804688"/>
      <use xlink:href="#DejaVuSans-72" x="135.986328"/>
      <use xlink:href="#DejaVuSans-6d" x="175.349609"/>
      <use xlink:href="#DejaVuSans-61" x="272.761719"/>
      <use xlink:href="#DejaVuSans-6c" x="334.041016"/>
      <use xlink:href="#DejaVuSans-69" x="361.824219"/>
      <use xlink:href="#DejaVuSans-7a" x="389.607422"/>
      <use xlink:href="#DejaVuSans-65" x="442.097656"/>
      <use xlink:href="#DejaVuSans-64" x="503.621094"/>
      <use xlink:href="#DejaVuSans-20" x="567.097656"/>
      <use xlink:href="#DejaVuSans-73" x="598.884766"/>
      <use xlink:href="#DejaVuSans-66" x="650.984375"/>
      <use xlink:href="#DejaVuSans-20" x="686.189453"/>
      <use xlink:href="#DejaVuSans-61" x="717.976562"/>
      <use xlink:href="#DejaVuSans-6d" x="779.255859"/>
      <use xlink:href="#DejaVuSans-70" x="876.667969"/>
      <use xlink:href="#DejaVuSans-6c" x="940.144531"/>
      <use xlink:href="#DejaVuSans-69" x="967.927734"/>
      <use xlink:href="#DejaVuSans-74" x="995.710938"/>
      <use xlink:href="#DejaVuSans-75" x="1034.919922"/>
      <use xlink:href="#DejaVuSans-64" x="1098.298828"/>
      <use xlink:href="#DejaVuSans-65" x="1161.775391"/>
     </g>
    </g>
   </g>
   <g id="matplotlib.axis_4">
    <g id="ytick_6">
     <g id="line2d_19">
      <g>
       <use xlink:href="#m3c6fbeddda" x="459.105882" y="256.32" style="stroke: #000000; stroke-width: 0.8"/>
      </g>
     </g>
     <g id="text_22">
      <!-- 0.0 -->
      <g transform="translate(426.660882 262.39875)scale(0.16 -0.16)">
       <use xlink:href="#DejaVuSans-30"/>
       <use xlink:href="#DejaVuSans-2e" x="63.623047"/>
       <use xlink:href="#DejaVuSans-30" x="95.410156"/>
      </g>
     </g>
    </g>
    <g id="ytick_7">
     <g id="line2d_20">
      <g>
       <use xlink:href="#m3c6fbeddda" x="459.105882" y="208.864926" style="stroke: #000000; stroke-width: 0.8"/>
      </g>
     </g>
     <g id="text_23">
      <!-- 0.2 -->
      <g transform="translate(426.660882 214.943676)scale(0.16 -0.16)">
       <use xlink:href="#DejaVuSans-30"/>
       <use xlink:href="#DejaVuSans-2e" x="63.623047"/>
       <use xlink:href="#DejaVuSans-32" x="95.410156"/>
      </g>
     </g>
    </g>
    <g id="ytick_8">
     <g id="line2d_21">
      <g>
       <use xlink:href="#m3c6fbeddda" x="459.105882" y="161.409851" style="stroke: #000000; stroke-width: 0.8"/>
      </g>
     </g>
     <g id="text_24">
      <!-- 0.4 -->
      <g transform="translate(426.660882 167.488601)scale(0.16 -0.16)">
       <use xlink:href="#DejaVuSans-30"/>
       <use xlink:href="#DejaVuSans-2e" x="63.623047"/>
       <use xlink:href="#DejaVuSans-34" x="95.410156"/>
      </g>
     </g>
    </g>
    <g id="ytick_9">
     <g id="line2d_22">
      <g>
       <use xlink:href="#m3c6fbeddda" x="459.105882" y="113.954777" style="stroke: #000000; stroke-width: 0.8"/>
      </g>
     </g>
     <g id="text_25">
      <!-- 0.6 -->
      <g transform="translate(426.660882 120.033527)scale(0.16 -0.16)">
       <use xlink:href="#DejaVuSans-30"/>
       <use xlink:href="#DejaVuSans-2e" x="63.623047"/>
       <use xlink:href="#DejaVuSans-36" x="95.410156"/>
      </g>
     </g>
    </g>
    <g id="ytick_10">
     <g id="line2d_23">
      <g>
       <use xlink:href="#m3c6fbeddda" x="459.105882" y="66.499703" style="stroke: #000000; stroke-width: 0.8"/>
      </g>
     </g>
     <g id="text_26">
      <!-- 0.8 -->
      <g transform="translate(426.660882 72.578453)scale(0.16 -0.16)">
       <use xlink:href="#DejaVuSans-30"/>
       <use xlink:href="#DejaVuSans-2e" x="63.623047"/>
       <use xlink:href="#DejaVuSans-38" x="95.410156"/>
      </g>
     </g>
    </g>
    <g id="text_27">
     <!-- count -->
     <g transform="translate(419.333382 168.01)rotate(-90)scale(0.16 -0.16)">
      <use xlink:href="#DejaVuSans-63"/>
      <use xlink:href="#DejaVuSans-6f" x="54.980469"/>
      <use xlink:href="#DejaVuSans-75" x="116.162109"/>
      <use xlink:href="#DejaVuSans-6e" x="179.541016"/>
      <use xlink:href="#DejaVuSans-74" x="242.919922"/>
     </g>
    </g>
   </g>
   <g id="line2d_24">
    <path d="M 459.105882 256.32 
L 465.841613 196.448787 
L 469.209478 168.340947 
L 472.15636 145.457215 
L 474.682259 127.423828 
L 477.208157 111.071486 
L 479.313073 98.853895 
L 481.417989 88.002603 
L 483.101921 80.345721 
L 484.785854 73.622598 
L 486.469787 67.846157 
L 488.153719 63.021265 
L 489.416669 60.025547 
L 490.679618 57.559496 
L 491.942567 55.616749 
L 493.205517 54.188737 
L 494.047483 53.517513 
L 494.889449 53.066715 
L 495.731416 52.832324 
L 496.573382 52.809966 
L 497.415348 52.994933 
L 498.257315 53.382204 
L 499.099281 53.966461 
L 500.36223 55.199893 
L 501.62518 56.843981 
L 502.888129 58.87768 
L 504.151079 61.278981 
L 505.835011 65.013021 
L 507.518944 69.304189 
L 509.623859 75.364513 
L 511.728775 82.093091 
L 514.254674 90.890734 
L 517.622539 103.535918 
L 522.253354 121.907318 
L 530.252033 153.732312 
L 534.040882 167.91497 
L 537.408747 179.706272 
L 540.355629 189.282874 
L 543.302511 198.107309 
L 545.82841 205.04862 
L 548.354309 211.408817 
L 550.880207 217.192985 
L 553.406106 222.415248 
L 555.932005 227.09709 
L 558.457904 231.265748 
L 560.983803 234.952714 
L 563.509702 238.192372 
L 566.035601 241.020788 
L 568.561499 243.474664 
L 571.087398 245.590455 
L 573.613297 247.403656 
L 576.139196 248.948231 
L 578.665095 250.256198 
L 581.611977 251.522703 
L 584.558859 252.550689 
L 587.926724 253.482581 
L 591.715572 254.280405 
L 595.925404 254.925187 
L 600.977201 255.45189 
L 606.870965 255.83308 
L 614.869645 256.107155 
L 626.657173 256.262503 
L 651.916162 256.31756 
L 669.176471 256.319786 
L 669.176471 256.319786 
" clip-path="url(#pf611e583dd)" style="fill: none; stroke: #ff0000; stroke-width: 1.5; stroke-linecap: square"/>
   </g>
   <g id="patch_68">
    <path d="M 459.105882 256.32 
L 459.105882 34.56 
" style="fill: none; stroke: #000000; stroke-width: 0.8; stroke-linejoin: miter; stroke-linecap: square"/>
   </g>
   <g id="patch_69">
    <path d="M 721.694118 256.32 
L 721.694118 34.56 
" style="fill: none; stroke: #000000; stroke-width: 0.8; stroke-linejoin: miter; stroke-linecap: square"/>
   </g>
   <g id="patch_70">
    <path d="M 459.105882 256.32 
L 721.694118 256.32 
" style="fill: none; stroke: #000000; stroke-width: 0.8; stroke-linejoin: miter; stroke-linecap: square"/>
   </g>
   <g id="patch_71">
    <path d="M 459.105882 34.56 
L 721.694118 34.56 
" style="fill: none; stroke: #000000; stroke-width: 0.8; stroke-linejoin: miter; stroke-linecap: square"/>
   </g>
   <g id="text_28">
    <!-- Acentric -->
    <g transform="translate(551.076 28.56)scale(0.192 -0.192)">
     <defs>
      <path id="DejaVuSans-41" d="M 2188 4044 
L 1331 1722 
L 3047 1722 
L 2188 4044 
z
M 1831 4666 
L 2547 4666 
L 4325 0 
L 3669 0 
L 3244 1197 
L 1141 1197 
L 716 0 
L 50 0 
L 1831 4666 
z
" transform="scale(0.015625)"/>
     </defs>
     <use xlink:href="#DejaVuSans-41"/>
     <use xlink:href="#DejaVuSans-63" x="66.658203"/>
     <use xlink:href="#DejaVuSans-65" x="121.638672"/>
     <use xlink:href="#DejaVuSans-6e" x="183.162109"/>
     <use xlink:href="#DejaVuSans-74" x="246.541016"/>
     <use xlink:href="#DejaVuSans-72" x="285.75"/>
     <use xlink:href="#DejaVuSans-69" x="326.863281"/>
     <use xlink:href="#DejaVuSans-63" x="354.646484"/>
    </g>
   </g>
  </g>
  <g id="axes_3">
   <g id="patch_72">
    <path d="M 774.211765 256.32 
L 1036.8 256.32 
L 1036.8 34.56 
L 774.211765 34.56 
z
" style="fill: #ffffff"/>
   </g>
   <g id="patch_73">
    <path d="M 786.147594 256.32 
L 788.534759 256.32 
L 788.534759 255.738182 
L 786.147594 255.738182 
z
" clip-path="url(#p5b13c0d7fc)" style="fill: #1f77b4"/>
   </g>
   <g id="patch_74">
    <path d="M 788.534759 256.32 
L 790.921925 256.32 
L 790.921925 255.932121 
L 788.534759 255.932121 
z
" clip-path="url(#p5b13c0d7fc)" style="fill: #1f77b4"/>
   </g>
   <g id="patch_75">
    <path d="M 790.921925 256.32 
L 793.309091 256.32 
L 793.309091 256.126061 
L 790.921925 256.126061 
z
" clip-path="url(#p5b13c0d7fc)" style="fill: #1f77b4"/>
   </g>
   <g id="patch_76">
    <path d="M 793.309091 256.32 
L 795.696257 256.32 
L 795.696257 256.32 
L 793.309091 256.32 
z
" clip-path="url(#p5b13c0d7fc)" style="fill: #1f77b4"/>
   </g>
   <g id="patch_77">
    <path d="M 795.696257 256.32 
L 798.083422 256.32 
L 798.083422 256.126061 
L 795.696257 256.126061 
z
" clip-path="url(#p5b13c0d7fc)" style="fill: #1f77b4"/>
   </g>
   <g id="patch_78">
    <path d="M 798.083422 256.32 
L 800.470588 256.32 
L 800.470588 256.32 
L 798.083422 256.32 
z
" clip-path="url(#p5b13c0d7fc)" style="fill: #1f77b4"/>
   </g>
   <g id="patch_79">
    <path d="M 800.470588 256.32 
L 802.857754 256.32 
L 802.857754 256.126061 
L 800.470588 256.126061 
z
" clip-path="url(#p5b13c0d7fc)" style="fill: #1f77b4"/>
   </g>
   <g id="patch_80">
    <path d="M 802.857754 256.32 
L 805.24492 256.32 
L 805.24492 255.156364 
L 802.857754 255.156364 
z
" clip-path="url(#p5b13c0d7fc)" style="fill: #1f77b4"/>
   </g>
   <g id="patch_81">
    <path d="M 805.24492 256.32 
L 807.632086 256.32 
L 807.632086 255.544242 
L 805.24492 255.544242 
z
" clip-path="url(#p5b13c0d7fc)" style="fill: #1f77b4"/>
   </g>
   <g id="patch_82">
    <path d="M 807.632086 256.32 
L 810.019251 256.32 
L 810.019251 256.32 
L 807.632086 256.32 
z
" clip-path="url(#p5b13c0d7fc)" style="fill: #1f77b4"/>
   </g>
   <g id="patch_83">
    <path d="M 810.019251 256.32 
L 812.406417 256.32 
L 812.406417 255.544242 
L 810.019251 255.544242 
z
" clip-path="url(#p5b13c0d7fc)" style="fill: #1f77b4"/>
   </g>
   <g id="patch_84">
    <path d="M 812.406417 256.32 
L 814.793583 256.32 
L 814.793583 252.635152 
L 812.406417 252.635152 
z
" clip-path="url(#p5b13c0d7fc)" style="fill: #1f77b4"/>
   </g>
   <g id="patch_85">
    <path d="M 814.793583 256.32 
L 817.180749 256.32 
L 817.180749 247.204848 
L 814.793583 247.204848 
z
" clip-path="url(#p5b13c0d7fc)" style="fill: #1f77b4"/>
   </g>
   <g id="patch_86">
    <path d="M 817.180749 256.32 
L 819.567914 256.32 
L 819.567914 236.150303 
L 817.180749 236.150303 
z
" clip-path="url(#p5b13c0d7fc)" style="fill: #1f77b4"/>
   </g>
   <g id="patch_87">
    <path d="M 819.567914 256.32 
L 821.95508 256.32 
L 821.95508 225.289697 
L 819.567914 225.289697 
z
" clip-path="url(#p5b13c0d7fc)" style="fill: #1f77b4"/>
   </g>
   <g id="patch_88">
    <path d="M 821.95508 256.32 
L 824.342246 256.32 
L 824.342246 215.786667 
L 821.95508 215.786667 
z
" clip-path="url(#p5b13c0d7fc)" style="fill: #1f77b4"/>
   </g>
   <g id="patch_89">
    <path d="M 824.342246 256.32 
L 826.729412 256.32 
L 826.729412 215.398788 
L 824.342246 215.398788 
z
" clip-path="url(#p5b13c0d7fc)" style="fill: #1f77b4"/>
   </g>
   <g id="patch_90">
    <path d="M 826.729412 256.32 
L 829.116578 256.32 
L 829.116578 221.604848 
L 826.729412 221.604848 
z
" clip-path="url(#p5b13c0d7fc)" style="fill: #1f77b4"/>
   </g>
   <g id="patch_91">
    <path d="M 829.116578 256.32 
L 831.503743 256.32 
L 831.503743 220.053333 
L 829.116578 220.053333 
z
" clip-path="url(#p5b13c0d7fc)" style="fill: #1f77b4"/>
   </g>
   <g id="patch_92">
    <path d="M 831.503743 256.32 
L 833.890909 256.32 
L 833.890909 216.950303 
L 831.503743 216.950303 
z
" clip-path="url(#p5b13c0d7fc)" style="fill: #1f77b4"/>
   </g>
   <g id="patch_93">
    <path d="M 833.890909 256.32 
L 836.278075 256.32 
L 836.278075 209.386667 
L 833.890909 209.386667 
z
" clip-path="url(#p5b13c0d7fc)" style="fill: #1f77b4"/>
   </g>
   <g id="patch_94">
    <path d="M 836.278075 256.32 
L 838.665241 256.32 
L 838.665241 205.313939 
L 836.278075 205.313939 
z
" clip-path="url(#p5b13c0d7fc)" style="fill: #1f77b4"/>
   </g>
   <g id="patch_95">
    <path d="M 838.665241 256.32 
L 841.052406 256.32 
L 841.052406 197.944242 
L 838.665241 197.944242 
z
" clip-path="url(#p5b13c0d7fc)" style="fill: #1f77b4"/>
   </g>
   <g id="patch_96">
    <path d="M 841.052406 256.32 
L 843.439572 256.32 
L 843.439572 194.065455 
L 841.052406 194.065455 
z
" clip-path="url(#p5b13c0d7fc)" style="fill: #1f77b4"/>
   </g>
   <g id="patch_97">
    <path d="M 843.439572 256.32 
L 845.826738 256.32 
L 845.826738 181.071515 
L 843.439572 181.071515 
z
" clip-path="url(#p5b13c0d7fc)" style="fill: #1f77b4"/>
   </g>
   <g id="patch_98">
    <path d="M 845.826738 256.32 
L 848.213904 256.32 
L 848.213904 180.877576 
L 845.826738 180.877576 
z
" clip-path="url(#p5b13c0d7fc)" style="fill: #1f77b4"/>
   </g>
   <g id="patch_99">
    <path d="M 848.213904 256.32 
L 850.60107 256.32 
L 850.60107 165.944242 
L 848.213904 165.944242 
z
" clip-path="url(#p5b13c0d7fc)" style="fill: #1f77b4"/>
   </g>
   <g id="patch_100">
    <path d="M 850.60107 256.32 
L 852.988235 256.32 
L 852.988235 161.677576 
L 850.60107 161.677576 
z
" clip-path="url(#p5b13c0d7fc)" style="fill: #1f77b4"/>
   </g>
   <g id="patch_101">
    <path d="M 852.988235 256.32 
L 855.375401 256.32 
L 855.375401 149.071515 
L 852.988235 149.071515 
z
" clip-path="url(#p5b13c0d7fc)" style="fill: #1f77b4"/>
   </g>
   <g id="patch_102">
    <path d="M 855.375401 256.32 
L 857.762567 256.32 
L 857.762567 139.568485 
L 855.375401 139.568485 
z
" clip-path="url(#p5b13c0d7fc)" style="fill: #1f77b4"/>
   </g>
   <g id="patch_103">
    <path d="M 857.762567 256.32 
L 860.149733 256.32 
L 860.149733 112.41697 
L 857.762567 112.41697 
z
" clip-path="url(#p5b13c0d7fc)" style="fill: #1f77b4"/>
   </g>
   <g id="patch_104">
    <path d="M 860.149733 256.32 
L 862.536898 256.32 
L 862.536898 106.598788 
L 860.149733 106.598788 
z
" clip-path="url(#p5b13c0d7fc)" style="fill: #1f77b4"/>
   </g>
   <g id="patch_105">
    <path d="M 862.536898 256.32 
L 864.924064 256.32 
L 864.924064 82.550303 
L 862.536898 82.550303 
z
" clip-path="url(#p5b13c0d7fc)" style="fill: #1f77b4"/>
   </g>
   <g id="patch_106">
    <path d="M 864.924064 256.32 
L 867.31123 256.32 
L 867.31123 89.532121 
L 864.924064 89.532121 
z
" clip-path="url(#p5b13c0d7fc)" style="fill: #1f77b4"/>
   </g>
   <g id="patch_107">
    <path d="M 867.31123 256.32 
L 869.698396 256.32 
L 869.698396 75.762424 
L 867.31123 75.762424 
z
" clip-path="url(#p5b13c0d7fc)" style="fill: #1f77b4"/>
   </g>
   <g id="patch_108">
    <path d="M 869.698396 256.32 
L 872.085561 256.32 
L 872.085561 85.847273 
L 869.698396 85.847273 
z
" clip-path="url(#p5b13c0d7fc)" style="fill: #1f77b4"/>
   </g>
   <g id="patch_109">
    <path d="M 872.085561 256.32 
L 874.472727 256.32 
L 874.472727 91.083636 
L 872.085561 91.083636 
z
" clip-path="url(#p5b13c0d7fc)" style="fill: #1f77b4"/>
   </g>
   <g id="patch_110">
    <path d="M 874.472727 256.32 
L 876.859893 256.32 
L 876.859893 85.459394 
L 874.472727 85.459394 
z
" clip-path="url(#p5b13c0d7fc)" style="fill: #1f77b4"/>
   </g>
   <g id="patch_111">
    <path d="M 876.859893 256.32 
L 879.247059 256.32 
L 879.247059 78.671515 
L 876.859893 78.671515 
z
" clip-path="url(#p5b13c0d7fc)" style="fill: #1f77b4"/>
   </g>
   <g id="patch_112">
    <path d="M 879.247059 256.32 
L 881.634225 256.32 
L 881.634225 68.198788 
L 879.247059 68.198788 
z
" clip-path="url(#p5b13c0d7fc)" style="fill: #1f77b4"/>
   </g>
   <g id="patch_113">
    <path d="M 881.634225 256.32 
L 884.02139 256.32 
L 884.02139 65.095758 
L 881.634225 65.095758 
z
" clip-path="url(#p5b13c0d7fc)" style="fill: #1f77b4"/>
   </g>
   <g id="patch_114">
    <path d="M 884.02139 256.32 
L 886.408556 256.32 
L 886.408556 52.101818 
L 884.02139 52.101818 
z
" clip-path="url(#p5b13c0d7fc)" style="fill: #1f77b4"/>
   </g>
   <g id="patch_115">
    <path d="M 886.408556 256.32 
L 888.795722 256.32 
L 888.795722 49.386667 
L 886.408556 49.386667 
z
" clip-path="url(#p5b13c0d7fc)" style="fill: #1f77b4"/>
   </g>
   <g id="patch_116">
    <path d="M 888.795722 256.32 
L 891.182888 256.32 
L 891.182888 45.12 
L 888.795722 45.12 
z
" clip-path="url(#p5b13c0d7fc)" style="fill: #1f77b4"/>
   </g>
   <g id="patch_117">
    <path d="M 891.182888 256.32 
L 893.570053 256.32 
L 893.570053 60.053333 
L 891.182888 60.053333 
z
" clip-path="url(#p5b13c0d7fc)" style="fill: #1f77b4"/>
   </g>
   <g id="patch_118">
    <path d="M 893.570053 256.32 
L 895.957219 256.32 
L 895.957219 66.259394 
L 893.570053 66.259394 
z
" clip-path="url(#p5b13c0d7fc)" style="fill: #1f77b4"/>
   </g>
   <g id="patch_119">
    <path d="M 895.957219 256.32 
L 898.344385 256.32 
L 898.344385 65.095758 
L 895.957219 65.095758 
z
" clip-path="url(#p5b13c0d7fc)" style="fill: #1f77b4"/>
   </g>
   <g id="patch_120">
    <path d="M 898.344385 256.32 
L 900.731551 256.32 
L 900.731551 75.180606 
L 898.344385 75.180606 
z
" clip-path="url(#p5b13c0d7fc)" style="fill: #1f77b4"/>
   </g>
   <g id="patch_121">
    <path d="M 900.731551 256.32 
L 903.118717 256.32 
L 903.118717 86.81697 
L 900.731551 86.81697 
z
" clip-path="url(#p5b13c0d7fc)" style="fill: #1f77b4"/>
   </g>
   <g id="patch_122">
    <path d="M 903.118717 256.32 
L 905.505882 256.32 
L 905.505882 102.526061 
L 903.118717 102.526061 
z
" clip-path="url(#p5b13c0d7fc)" style="fill: #1f77b4"/>
   </g>
   <g id="patch_123">
    <path d="M 905.505882 256.32 
L 907.893048 256.32 
L 907.893048 95.544242 
L 905.505882 95.544242 
z
" clip-path="url(#p5b13c0d7fc)" style="fill: #1f77b4"/>
   </g>
   <g id="patch_124">
    <path d="M 907.893048 256.32 
L 910.280214 256.32 
L 910.280214 116.683636 
L 907.893048 116.683636 
z
" clip-path="url(#p5b13c0d7fc)" style="fill: #1f77b4"/>
   </g>
   <g id="patch_125">
    <path d="M 910.280214 256.32 
L 912.66738 256.32 
L 912.66738 115.326061 
L 910.280214 115.326061 
z
" clip-path="url(#p5b13c0d7fc)" style="fill: #1f77b4"/>
   </g>
   <g id="patch_126">
    <path d="M 912.66738 256.32 
L 915.054545 256.32 
L 915.054545 107.180606 
L 912.66738 107.180606 
z
" clip-path="url(#p5b13c0d7fc)" style="fill: #1f77b4"/>
   </g>
   <g id="patch_127">
    <path d="M 915.054545 256.32 
L 917.441711 256.32 
L 917.441711 109.895758 
L 915.054545 109.895758 
z
" clip-path="url(#p5b13c0d7fc)" style="fill: #1f77b4"/>
   </g>
   <g id="patch_128">
    <path d="M 917.441711 256.32 
L 919.828877 256.32 
L 919.828877 105.82303 
L 917.441711 105.82303 
z
" clip-path="url(#p5b13c0d7fc)" style="fill: #1f77b4"/>
   </g>
   <g id="patch_129">
    <path d="M 919.828877 256.32 
L 922.216043 256.32 
L 922.216043 109.701818 
L 919.828877 109.701818 
z
" clip-path="url(#p5b13c0d7fc)" style="fill: #1f77b4"/>
   </g>
   <g id="patch_130">
    <path d="M 922.216043 256.32 
L 924.603209 256.32 
L 924.603209 122.307879 
L 922.216043 122.307879 
z
" clip-path="url(#p5b13c0d7fc)" style="fill: #1f77b4"/>
   </g>
   <g id="patch_131">
    <path d="M 924.603209 256.32 
L 926.990374 256.32 
L 926.990374 128.513939 
L 924.603209 128.513939 
z
" clip-path="url(#p5b13c0d7fc)" style="fill: #1f77b4"/>
   </g>
   <g id="patch_132">
    <path d="M 926.990374 256.32 
L 929.37754 256.32 
L 929.37754 130.841212 
L 926.990374 130.841212 
z
" clip-path="url(#p5b13c0d7fc)" style="fill: #1f77b4"/>
   </g>
   <g id="patch_133">
    <path d="M 929.37754 256.32 
L 931.764706 256.32 
L 931.764706 129.095758 
L 929.37754 129.095758 
z
" clip-path="url(#p5b13c0d7fc)" style="fill: #1f77b4"/>
   </g>
   <g id="patch_134">
    <path d="M 931.764706 256.32 
L 934.151872 256.32 
L 934.151872 127.544242 
L 931.764706 127.544242 
z
" clip-path="url(#p5b13c0d7fc)" style="fill: #1f77b4"/>
   </g>
   <g id="patch_135">
    <path d="M 934.151872 256.32 
L 936.539037 256.32 
L 936.539037 136.271515 
L 934.151872 136.271515 
z
" clip-path="url(#p5b13c0d7fc)" style="fill: #1f77b4"/>
   </g>
   <g id="patch_136">
    <path d="M 936.539037 256.32 
L 938.926203 256.32 
L 938.926203 138.210909 
L 936.539037 138.210909 
z
" clip-path="url(#p5b13c0d7fc)" style="fill: #1f77b4"/>
   </g>
   <g id="patch_137">
    <path d="M 938.926203 256.32 
L 941.313369 256.32 
L 941.313369 141.701818 
L 938.926203 141.701818 
z
" clip-path="url(#p5b13c0d7fc)" style="fill: #1f77b4"/>
   </g>
   <g id="patch_138">
    <path d="M 941.313369 256.32 
L 943.700535 256.32 
L 943.700535 149.847273 
L 941.313369 149.847273 
z
" clip-path="url(#p5b13c0d7fc)" style="fill: #1f77b4"/>
   </g>
   <g id="patch_139">
    <path d="M 943.700535 256.32 
L 946.087701 256.32 
L 946.087701 156.829091 
L 943.700535 156.829091 
z
" clip-path="url(#p5b13c0d7fc)" style="fill: #1f77b4"/>
   </g>
   <g id="patch_140">
    <path d="M 946.087701 256.32 
L 948.474866 256.32 
L 948.474866 157.604848 
L 946.087701 157.604848 
z
" clip-path="url(#p5b13c0d7fc)" style="fill: #1f77b4"/>
   </g>
   <g id="patch_141">
    <path d="M 948.474866 256.32 
L 950.862032 256.32 
L 950.862032 156.441212 
L 948.474866 156.441212 
z
" clip-path="url(#p5b13c0d7fc)" style="fill: #1f77b4"/>
   </g>
   <g id="patch_142">
    <path d="M 950.862032 256.32 
L 953.249198 256.32 
L 953.249198 155.665455 
L 950.862032 155.665455 
z
" clip-path="url(#p5b13c0d7fc)" style="fill: #1f77b4"/>
   </g>
   <g id="patch_143">
    <path d="M 953.249198 256.32 
L 955.636364 256.32 
L 955.636364 167.495758 
L 953.249198 167.495758 
z
" clip-path="url(#p5b13c0d7fc)" style="fill: #1f77b4"/>
   </g>
   <g id="patch_144">
    <path d="M 955.636364 256.32 
L 958.023529 256.32 
L 958.023529 181.653333 
L 955.636364 181.653333 
z
" clip-path="url(#p5b13c0d7fc)" style="fill: #1f77b4"/>
   </g>
   <g id="patch_145">
    <path d="M 958.023529 256.32 
L 960.410695 256.32 
L 960.410695 188.053333 
L 958.023529 188.053333 
z
" clip-path="url(#p5b13c0d7fc)" style="fill: #1f77b4"/>
   </g>
   <g id="patch_146">
    <path d="M 960.410695 256.32 
L 962.797861 256.32 
L 962.797861 202.210909 
L 960.410695 202.210909 
z
" clip-path="url(#p5b13c0d7fc)" style="fill: #1f77b4"/>
   </g>
   <g id="patch_147">
    <path d="M 962.797861 256.32 
L 965.185027 256.32 
L 965.185027 211.713939 
L 962.797861 211.713939 
z
" clip-path="url(#p5b13c0d7fc)" style="fill: #1f77b4"/>
   </g>
   <g id="patch_148">
    <path d="M 965.185027 256.32 
L 967.572193 256.32 
L 967.572193 218.695758 
L 965.185027 218.695758 
z
" clip-path="url(#p5b13c0d7fc)" style="fill: #1f77b4"/>
   </g>
   <g id="patch_149">
    <path d="M 967.572193 256.32 
L 969.959358 256.32 
L 969.959358 218.695758 
L 967.572193 218.695758 
z
" clip-path="url(#p5b13c0d7fc)" style="fill: #1f77b4"/>
   </g>
   <g id="patch_150">
    <path d="M 969.959358 256.32 
L 972.346524 256.32 
L 972.346524 227.035152 
L 969.959358 227.035152 
z
" clip-path="url(#p5b13c0d7fc)" style="fill: #1f77b4"/>
   </g>
   <g id="patch_151">
    <path d="M 972.346524 256.32 
L 974.73369 256.32 
L 974.73369 235.568485 
L 972.346524 235.568485 
z
" clip-path="url(#p5b13c0d7fc)" style="fill: #1f77b4"/>
   </g>
   <g id="patch_152">
    <path d="M 974.73369 256.32 
L 977.120856 256.32 
L 977.120856 233.82303 
L 974.73369 233.82303 
z
" clip-path="url(#p5b13c0d7fc)" style="fill: #1f77b4"/>
   </g>
   <g id="patch_153">
    <path d="M 977.120856 256.32 
L 979.508021 256.32 
L 979.508021 235.374545 
L 977.120856 235.374545 
z
" clip-path="url(#p5b13c0d7fc)" style="fill: #1f77b4"/>
   </g>
   <g id="patch_154">
    <path d="M 979.508021 256.32 
L 981.895187 256.32 
L 981.895187 239.253333 
L 979.508021 239.253333 
z
" clip-path="url(#p5b13c0d7fc)" style="fill: #1f77b4"/>
   </g>
   <g id="patch_155">
    <path d="M 981.895187 256.32 
L 984.282353 256.32 
L 984.282353 235.956364 
L 981.895187 235.956364 
z
" clip-path="url(#p5b13c0d7fc)" style="fill: #1f77b4"/>
   </g>
   <g id="patch_156">
    <path d="M 984.282353 256.32 
L 986.669519 256.32 
L 986.669519 239.059394 
L 984.282353 239.059394 
z
" clip-path="url(#p5b13c0d7fc)" style="fill: #1f77b4"/>
   </g>
   <g id="patch_157">
    <path d="M 986.669519 256.32 
L 989.056684 256.32 
L 989.056684 242.744242 
L 986.669519 242.744242 
z
" clip-path="url(#p5b13c0d7fc)" style="fill: #1f77b4"/>
   </g>
   <g id="patch_158">
    <path d="M 989.056684 256.32 
L 991.44385 256.32 
L 991.44385 247.204848 
L 989.056684 247.204848 
z
" clip-path="url(#p5b13c0d7fc)" style="fill: #1f77b4"/>
   </g>
   <g id="patch_159">
    <path d="M 991.44385 256.32 
L 993.831016 256.32 
L 993.831016 247.010909 
L 991.44385 247.010909 
z
" clip-path="url(#p5b13c0d7fc)" style="fill: #1f77b4"/>
   </g>
   <g id="patch_160">
    <path d="M 993.831016 256.32 
L 996.218182 256.32 
L 996.218182 248.950303 
L 993.831016 248.950303 
z
" clip-path="url(#p5b13c0d7fc)" style="fill: #1f77b4"/>
   </g>
   <g id="patch_161">
    <path d="M 996.218182 256.32 
L 998.605348 256.32 
L 998.605348 253.02303 
L 996.218182 253.02303 
z
" clip-path="url(#p5b13c0d7fc)" style="fill: #1f77b4"/>
   </g>
   <g id="patch_162">
    <path d="M 998.605348 256.32 
L 1000.992513 256.32 
L 1000.992513 251.665455 
L 998.605348 251.665455 
z
" clip-path="url(#p5b13c0d7fc)" style="fill: #1f77b4"/>
   </g>
   <g id="patch_163">
    <path d="M 1000.992513 256.32 
L 1003.379679 256.32 
L 1003.379679 252.829091 
L 1000.992513 252.829091 
z
" clip-path="url(#p5b13c0d7fc)" style="fill: #1f77b4"/>
   </g>
   <g id="patch_164">
    <path d="M 1003.379679 256.32 
L 1005.766845 256.32 
L 1005.766845 253.604848 
L 1003.379679 253.604848 
z
" clip-path="url(#p5b13c0d7fc)" style="fill: #1f77b4"/>
   </g>
   <g id="patch_165">
    <path d="M 1005.766845 256.32 
L 1008.154011 256.32 
L 1008.154011 255.544242 
L 1005.766845 255.544242 
z
" clip-path="url(#p5b13c0d7fc)" style="fill: #1f77b4"/>
   </g>
   <g id="patch_166">
    <path d="M 1008.154011 256.32 
L 1010.541176 256.32 
L 1010.541176 254.962424 
L 1008.154011 254.962424 
z
" clip-path="url(#p5b13c0d7fc)" style="fill: #1f77b4"/>
   </g>
   <g id="patch_167">
    <path d="M 1010.541176 256.32 
L 1012.928342 256.32 
L 1012.928342 254.186667 
L 1010.541176 254.186667 
z
" clip-path="url(#p5b13c0d7fc)" style="fill: #1f77b4"/>
   </g>
   <g id="patch_168">
    <path d="M 1012.928342 256.32 
L 1015.315508 256.32 
L 1015.315508 255.350303 
L 1012.928342 255.350303 
z
" clip-path="url(#p5b13c0d7fc)" style="fill: #1f77b4"/>
   </g>
   <g id="patch_169">
    <path d="M 1015.315508 256.32 
L 1017.702674 256.32 
L 1017.702674 254.962424 
L 1015.315508 254.962424 
z
" clip-path="url(#p5b13c0d7fc)" style="fill: #1f77b4"/>
   </g>
   <g id="patch_170">
    <path d="M 1017.702674 256.32 
L 1020.08984 256.32 
L 1020.08984 255.738182 
L 1017.702674 255.738182 
z
" clip-path="url(#p5b13c0d7fc)" style="fill: #1f77b4"/>
   </g>
   <g id="patch_171">
    <path d="M 1020.08984 256.32 
L 1022.477005 256.32 
L 1022.477005 255.932121 
L 1020.08984 255.932121 
z
" clip-path="url(#p5b13c0d7fc)" style="fill: #1f77b4"/>
   </g>
   <g id="patch_172">
    <path d="M 1022.477005 256.32 
L 1024.864171 256.32 
L 1024.864171 255.544242 
L 1022.477005 255.544242 
z
" clip-path="url(#p5b13c0d7fc)" style="fill: #1f77b4"/>
   </g>
   <g id="matplotlib.axis_5">
    <g id="xtick_13">
     <g id="line2d_25">
      <path d="M 809.537987 256.32 
L 809.537987 34.56 
" clip-path="url(#p5b13c0d7fc)" style="fill: none; stroke: #b0b0b0; stroke-width: 0.8; stroke-linecap: square"/>
     </g>
     <g id="line2d_26">
      <g>
       <use xlink:href="#mc38db68bc4" x="809.537987" y="256.32" style="stroke: #000000; stroke-width: 0.8"/>
      </g>
     </g>
     <g id="text_29">
      <!-- 0.5 -->
      <g transform="translate(796.815487 275.4775)scale(0.16 -0.16)">
       <use xlink:href="#DejaVuSans-30"/>
       <use xlink:href="#DejaVuSans-2e" x="63.623047"/>
       <use xlink:href="#DejaVuSans-35" x="95.410156"/>
      </g>
     </g>
    </g>
    <g id="xtick_14">
     <g id="line2d_27">
      <path d="M 882.961026 256.32 
L 882.961026 34.56 
" clip-path="url(#p5b13c0d7fc)" style="fill: none; stroke: #b0b0b0; stroke-width: 0.8; stroke-linecap: square"/>
     </g>
     <g id="line2d_28">
      <g>
       <use xlink:href="#mc38db68bc4" x="882.961026" y="256.32" style="stroke: #000000; stroke-width: 0.8"/>
      </g>
     </g>
     <g id="text_30">
      <!-- 1.0 -->
      <g transform="translate(870.238526 275.4775)scale(0.16 -0.16)">
       <use xlink:href="#DejaVuSans-31"/>
       <use xlink:href="#DejaVuSans-2e" x="63.623047"/>
       <use xlink:href="#DejaVuSans-30" x="95.410156"/>
      </g>
     </g>
    </g>
    <g id="xtick_15">
     <g id="line2d_29">
      <path d="M 956.384066 256.32 
L 956.384066 34.56 
" clip-path="url(#p5b13c0d7fc)" style="fill: none; stroke: #b0b0b0; stroke-width: 0.8; stroke-linecap: square"/>
     </g>
     <g id="line2d_30">
      <g>
       <use xlink:href="#mc38db68bc4" x="956.384066" y="256.32" style="stroke: #000000; stroke-width: 0.8"/>
      </g>
     </g>
     <g id="text_31">
      <!-- 1.5 -->
      <g transform="translate(943.661566 275.4775)scale(0.16 -0.16)">
       <use xlink:href="#DejaVuSans-31"/>
       <use xlink:href="#DejaVuSans-2e" x="63.623047"/>
       <use xlink:href="#DejaVuSans-35" x="95.410156"/>
      </g>
     </g>
    </g>
    <g id="xtick_16">
     <g id="line2d_31">
      <path d="M 1029.807105 256.32 
L 1029.807105 34.56 
" clip-path="url(#p5b13c0d7fc)" style="fill: none; stroke: #b0b0b0; stroke-width: 0.8; stroke-linecap: square"/>
     </g>
     <g id="line2d_32">
      <g>
       <use xlink:href="#mc38db68bc4" x="1029.807105" y="256.32" style="stroke: #000000; stroke-width: 0.8"/>
      </g>
     </g>
     <g id="text_32">
      <!-- 2.0 -->
      <g transform="translate(1017.084605 275.4775)scale(0.16 -0.16)">
       <use xlink:href="#DejaVuSans-32"/>
       <use xlink:href="#DejaVuSans-2e" x="63.623047"/>
       <use xlink:href="#DejaVuSans-30" x="95.410156"/>
      </g>
     </g>
    </g>
   </g>
   <g id="matplotlib.axis_6">
    <g id="ytick_11">
     <g id="line2d_33">
      <path d="M 774.211765 256.32 
L 1036.8 256.32 
" clip-path="url(#p5b13c0d7fc)" style="fill: none; stroke: #b0b0b0; stroke-width: 0.8; stroke-linecap: square"/>
     </g>
     <g id="line2d_34">
      <g>
       <use xlink:href="#m3c6fbeddda" x="774.211765" y="256.32" style="stroke: #000000; stroke-width: 0.8"/>
      </g>
     </g>
     <g id="text_33">
      <!-- 0 -->
      <g transform="translate(757.031765 262.39875)scale(0.16 -0.16)">
       <use xlink:href="#DejaVuSans-30"/>
      </g>
     </g>
    </g>
    <g id="ytick_12">
     <g id="line2d_35">
      <path d="M 774.211765 217.532121 
L 1036.8 217.532121 
" clip-path="url(#p5b13c0d7fc)" style="fill: none; stroke: #b0b0b0; stroke-width: 0.8; stroke-linecap: square"/>
     </g>
     <g id="line2d_36">
      <g>
       <use xlink:href="#m3c6fbeddda" x="774.211765" y="217.532121" style="stroke: #000000; stroke-width: 0.8"/>
      </g>
     </g>
     <g id="text_34">
      <!-- 200 -->
      <g transform="translate(736.671765 223.610871)scale(0.16 -0.16)">
       <use xlink:href="#DejaVuSans-32"/>
       <use xlink:href="#DejaVuSans-30" x="63.623047"/>
       <use xlink:href="#DejaVuSans-30" x="127.246094"/>
      </g>
     </g>
    </g>
    <g id="ytick_13">
     <g id="line2d_37">
      <path d="M 774.211765 178.744242 
L 1036.8 178.744242 
" clip-path="url(#p5b13c0d7fc)" style="fill: none; stroke: #b0b0b0; stroke-width: 0.8; stroke-linecap: square"/>
     </g>
     <g id="line2d_38">
      <g>
       <use xlink:href="#m3c6fbeddda" x="774.211765" y="178.744242" style="stroke: #000000; stroke-width: 0.8"/>
      </g>
     </g>
     <g id="text_35">
      <!-- 400 -->
      <g transform="translate(736.671765 184.822992)scale(0.16 -0.16)">
       <use xlink:href="#DejaVuSans-34"/>
       <use xlink:href="#DejaVuSans-30" x="63.623047"/>
       <use xlink:href="#DejaVuSans-30" x="127.246094"/>
      </g>
     </g>
    </g>
    <g id="ytick_14">
     <g id="line2d_39">
      <path d="M 774.211765 139.956364 
L 1036.8 139.956364 
" clip-path="url(#p5b13c0d7fc)" style="fill: none; stroke: #b0b0b0; stroke-width: 0.8; stroke-linecap: square"/>
     </g>
     <g id="line2d_40">
      <g>
       <use xlink:href="#m3c6fbeddda" x="774.211765" y="139.956364" style="stroke: #000000; stroke-width: 0.8"/>
      </g>
     </g>
     <g id="text_36">
      <!-- 600 -->
      <g transform="translate(736.671765 146.035114)scale(0.16 -0.16)">
       <use xlink:href="#DejaVuSans-36"/>
       <use xlink:href="#DejaVuSans-30" x="63.623047"/>
       <use xlink:href="#DejaVuSans-30" x="127.246094"/>
      </g>
     </g>
    </g>
    <g id="ytick_15">
     <g id="line2d_41">
      <path d="M 774.211765 101.168485 
L 1036.8 101.168485 
" clip-path="url(#p5b13c0d7fc)" style="fill: none; stroke: #b0b0b0; stroke-width: 0.8; stroke-linecap: square"/>
     </g>
     <g id="line2d_42">
      <g>
       <use xlink:href="#m3c6fbeddda" x="774.211765" y="101.168485" style="stroke: #000000; stroke-width: 0.8"/>
      </g>
     </g>
     <g id="text_37">
      <!-- 800 -->
      <g transform="translate(736.671765 107.247235)scale(0.16 -0.16)">
       <use xlink:href="#DejaVuSans-38"/>
       <use xlink:href="#DejaVuSans-30" x="63.623047"/>
       <use xlink:href="#DejaVuSans-30" x="127.246094"/>
      </g>
     </g>
    </g>
    <g id="ytick_16">
     <g id="line2d_43">
      <path d="M 774.211765 62.380606 
L 1036.8 62.380606 
" clip-path="url(#p5b13c0d7fc)" style="fill: none; stroke: #b0b0b0; stroke-width: 0.8; stroke-linecap: square"/>
     </g>
     <g id="line2d_44">
      <g>
       <use xlink:href="#m3c6fbeddda" x="774.211765" y="62.380606" style="stroke: #000000; stroke-width: 0.8"/>
      </g>
     </g>
     <g id="text_38">
      <!-- 1000 -->
      <g transform="translate(726.491765 68.459356)scale(0.16 -0.16)">
       <use xlink:href="#DejaVuSans-31"/>
       <use xlink:href="#DejaVuSans-30" x="63.623047"/>
       <use xlink:href="#DejaVuSans-30" x="127.246094"/>
       <use xlink:href="#DejaVuSans-30" x="190.869141"/>
      </g>
     </g>
    </g>
   </g>
   <g id="patch_173">
    <path d="M 774.211765 256.32 
L 774.211765 34.56 
" style="fill: none; stroke: #000000; stroke-width: 0.8; stroke-linejoin: miter; stroke-linecap: square"/>
   </g>
   <g id="patch_174">
    <path d="M 1036.8 256.32 
L 1036.8 34.56 
" style="fill: none; stroke: #000000; stroke-width: 0.8; stroke-linejoin: miter; stroke-linecap: square"/>
   </g>
   <g id="patch_175">
    <path d="M 774.211765 256.32 
L 1036.8 256.32 
" style="fill: none; stroke: #000000; stroke-width: 0.8; stroke-linejoin: miter; stroke-linecap: square"/>
   </g>
   <g id="patch_176">
    <path d="M 774.211765 34.56 
L 1036.8 34.56 
" style="fill: none; stroke: #000000; stroke-width: 0.8; stroke-linejoin: miter; stroke-linecap: square"/>
   </g>
   <g id="text_39">
    <!-- Scale factors v. naive aniso scaling -->
    <g transform="translate(737.898882 28.56)scale(0.192 -0.192)">
     <defs>
      <path id="DejaVuSans-53" d="M 3425 4513 
L 3425 3897 
Q 3066 4069 2747 4153 
Q 2428 4238 2131 4238 
Q 1616 4238 1336 4038 
Q 1056 3838 1056 3469 
Q 1056 3159 1242 3001 
Q 1428 2844 1947 2747 
L 2328 2669 
Q 3034 2534 3370 2195 
Q 3706 1856 3706 1288 
Q 3706 609 3251 259 
Q 2797 -91 1919 -91 
Q 1588 -91 1214 -16 
Q 841 59 441 206 
L 441 856 
Q 825 641 1194 531 
Q 1563 422 1919 422 
Q 2459 422 2753 634 
Q 3047 847 3047 1241 
Q 3047 1584 2836 1778 
Q 2625 1972 2144 2069 
L 1759 2144 
Q 1053 2284 737 2584 
Q 422 2884 422 3419 
Q 422 4038 858 4394 
Q 1294 4750 2059 4750 
Q 2388 4750 2728 4690 
Q 3069 4631 3425 4513 
z
" transform="scale(0.015625)"/>
      <path id="DejaVuSans-76" d="M 191 3500 
L 800 3500 
L 1894 563 
L 2988 3500 
L 3597 3500 
L 2284 0 
L 1503 0 
L 191 3500 
z
" transform="scale(0.015625)"/>
      <path id="DejaVuSans-67" d="M 2906 1791 
Q 2906 2416 2648 2759 
Q 2391 3103 1925 3103 
Q 1463 3103 1205 2759 
Q 947 2416 947 1791 
Q 947 1169 1205 825 
Q 1463 481 1925 481 
Q 2391 481 2648 825 
Q 2906 1169 2906 1791 
z
M 3481 434 
Q 3481 -459 3084 -895 
Q 2688 -1331 1869 -1331 
Q 1566 -1331 1297 -1286 
Q 1028 -1241 775 -1147 
L 775 -588 
Q 1028 -725 1275 -790 
Q 1522 -856 1778 -856 
Q 2344 -856 2625 -561 
Q 2906 -266 2906 331 
L 2906 616 
Q 2728 306 2450 153 
Q 2172 0 1784 0 
Q 1141 0 747 490 
Q 353 981 353 1791 
Q 353 2603 747 3093 
Q 1141 3584 1784 3584 
Q 2172 3584 2450 3431 
Q 2728 3278 2906 2969 
L 2906 3500 
L 3481 3500 
L 3481 434 
z
" transform="scale(0.015625)"/>
     </defs>
     <use xlink:href="#DejaVuSans-53"/>
     <use xlink:href="#DejaVuSans-63" x="63.476562"/>
     <use xlink:href="#DejaVuSans-61" x="118.457031"/>
     <use xlink:href="#DejaVuSans-6c" x="179.736328"/>
     <use xlink:href="#DejaVuSans-65" x="207.519531"/>
     <use xlink:href="#DejaVuSans-20" x="269.042969"/>
     <use xlink:href="#DejaVuSans-66" x="300.830078"/>
     <use xlink:href="#DejaVuSans-61" x="336.035156"/>
     <use xlink:href="#DejaVuSans-63" x="397.314453"/>
     <use xlink:href="#DejaVuSans-74" x="452.294922"/>
     <use xlink:href="#DejaVuSans-6f" x="491.503906"/>
     <use xlink:href="#DejaVuSans-72" x="552.685547"/>
     <use xlink:href="#DejaVuSans-73" x="593.798828"/>
     <use xlink:href="#DejaVuSans-20" x="645.898438"/>
     <use xlink:href="#DejaVuSans-76" x="677.685547"/>
     <use xlink:href="#DejaVuSans-2e" x="729.115234"/>
     <use xlink:href="#DejaVuSans-20" x="760.902344"/>
     <use xlink:href="#DejaVuSans-6e" x="792.689453"/>
     <use xlink:href="#DejaVuSans-61" x="856.068359"/>
     <use xlink:href="#DejaVuSans-69" x="917.347656"/>
     <use xlink:href="#DejaVuSans-76" x="945.130859"/>
     <use xlink:href="#DejaVuSans-65" x="1004.310547"/>
     <use xlink:href="#DejaVuSans-20" x="1065.833984"/>
     <use xlink:href="#DejaVuSans-61" x="1097.621094"/>
     <use xlink:href="#DejaVuSans-6e" x="1158.900391"/>
     <use xlink:href="#DejaVuSans-69" x="1222.279297"/>
     <use xlink:href="#DejaVuSans-73" x="1250.0625"/>
     <use xlink:href="#DejaVuSans-6f" x="1302.162109"/>
     <use xlink:href="#DejaVuSans-20" x="1363.34375"/>
     <use xlink:href="#DejaVuSans-73" x="1395.130859"/>
     <use xlink:href="#DejaVuSans-63" x="1447.230469"/>
     <use xlink:href="#DejaVuSans-61" x="1502.210938"/>
     <use xlink:href="#DejaVuSans-6c" x="1563.490234"/>
     <use xlink:href="#DejaVuSans-69" x="1591.273438"/>
     <use xlink:href="#DejaVuSans-6e" x="1619.056641"/>
     <use xlink:href="#DejaVuSans-67" x="1682.435547"/>
    </g>
   </g>
  </g>
 </g>
 <defs>
  <clipPath id="pf5fd28f82d">
   <rect x="144" y="34.56" width="262.588235" height="221.76"/>
  </clipPath>
  <clipPath id="pf611e583dd">
   <rect x="459.105882" y="34.56" width="262.588235" height="221.76"/>
  </clipPath>
  <clipPath id="p5b13c0d7fc">
   <rect x="774.211765" y="34.56" width="262.588235" height="221.76"/>
  </clipPath>
 </defs>
</svg>
