<?xml version="1.0" encoding="utf-8" standalone="no"?>
<!DOCTYPE svg PUBLIC "-//W3C//DTD SVG 1.1//EN"
  "http://www.w3.org/Graphics/SVG/1.1/DTD/svg11.dtd">
<svg xmlns:xlink="http://www.w3.org/1999/xlink" width="1152pt" height="288pt" viewBox="0 0 1152 288" xmlns="http://www.w3.org/2000/svg" version="1.1">
 <metadata>
  <rdf:RDF xmlns:dc="http://purl.org/dc/elements/1.1/" xmlns:cc="http://creativecommons.org/ns#" xmlns:rdf="http://www.w3.org/1999/02/22-rdf-syntax-ns#">
   <cc:Work>
    <dc:type rdf:resource="http://purl.org/dc/dcmitype/StillImage"/>
    <dc:date>2024-03-19T15:56:42.903459</dc:date>
    <dc:format>image/svg+xml</dc:format>
    <dc:creator>
     <cc:Agent>
      <dc:title>Matplotlib v3.8.2, https://matplotlib.org/</dc:title>
     </cc:Agent>
    </dc:creator>
   </cc:Work>
  </rdf:RDF>
 </metadata>
 <defs>
  <style type="text/css">*{stroke-linejoin: round; stroke-linecap: butt}</style>
 </defs>
 <g id="figure_1">
  <g id="patch_1">
   <path d="M 0 288 
L 1152 288 
L 1152 0 
L 0 0 
z
" style="fill: #ffffff"/>
  </g>
  <g id="axes_1">
   <g id="patch_2">
    <path d="M 144 256.32 
L 406.588235 256.32 
L 406.588235 34.56 
L 144 34.56 
z
" style="fill: #ffffff"/>
   </g>
   <g id="patch_3">
    <path d="M 144 256.32 
L 167.034056 256.32 
L 167.034056 62.016721 
L 144 62.016721 
z
" clip-path="url(#p8fffad11fd)" style="fill: #1f77b4"/>
   </g>
   <g id="patch_4">
    <path d="M 167.034056 256.32 
L 190.068111 256.32 
L 190.068111 131.965901 
L 167.034056 131.965901 
z
" clip-path="url(#p8fffad11fd)" style="fill: #1f77b4"/>
   </g>
   <g id="patch_5">
    <path d="M 190.068111 256.32 
L 213.102167 256.32 
L 213.102167 209.687213 
L 190.068111 209.687213 
z
" clip-path="url(#p8fffad11fd)" style="fill: #1f77b4"/>
   </g>
   <g id="patch_6">
    <path d="M 213.102167 256.32 
L 236.136223 256.32 
L 236.136223 253.72929 
L 213.102167 253.72929 
z
" clip-path="url(#p8fffad11fd)" style="fill: #1f77b4"/>
   </g>
   <g id="patch_7">
    <path d="M 236.136223 256.32 
L 259.170279 256.32 
L 259.170279 251.138579 
L 236.136223 251.138579 
z
" clip-path="url(#p8fffad11fd)" style="fill: #1f77b4"/>
   </g>
   <g id="patch_8">
    <path d="M 259.170279 256.32 
L 282.204334 256.32 
L 282.204334 251.138579 
L 259.170279 251.138579 
z
" clip-path="url(#p8fffad11fd)" style="fill: #1f77b4"/>
   </g>
   <g id="patch_9">
    <path d="M 282.204334 256.32 
L 305.23839 256.32 
L 305.23839 256.32 
L 282.204334 256.32 
z
" clip-path="url(#p8fffad11fd)" style="fill: #1f77b4"/>
   </g>
   <g id="patch_10">
    <path d="M 305.23839 256.32 
L 328.272446 256.32 
L 328.272446 256.32 
L 305.23839 256.32 
z
" clip-path="url(#p8fffad11fd)" style="fill: #1f77b4"/>
   </g>
   <g id="patch_11">
    <path d="M 328.272446 256.32 
L 351.306502 256.32 
L 351.306502 256.32 
L 328.272446 256.32 
z
" clip-path="url(#p8fffad11fd)" style="fill: #1f77b4"/>
   </g>
   <g id="patch_12">
    <path d="M 351.306502 256.32 
L 374.340557 256.32 
L 374.340557 256.32 
L 351.306502 256.32 
z
" clip-path="url(#p8fffad11fd)" style="fill: #1f77b4"/>
   </g>
   <g id="patch_13">
    <path d="M 374.340557 256.32 
L 397.374613 256.32 
L 397.374613 256.32 
L 374.340557 256.32 
z
" clip-path="url(#p8fffad11fd)" style="fill: #1f77b4"/>
   </g>
   <g id="patch_14">
    <path d="M 397.374613 256.32 
L 420.408669 256.32 
L 420.408669 256.32 
L 397.374613 256.32 
z
" clip-path="url(#p8fffad11fd)" style="fill: #1f77b4"/>
   </g>
   <g id="patch_15">
    <path d="M 420.408669 256.32 
L 443.442724 256.32 
L 443.442724 256.32 
L 420.408669 256.32 
z
" clip-path="url(#p8fffad11fd)" style="fill: #1f77b4"/>
   </g>
   <g id="patch_16">
    <path d="M 443.442724 256.32 
L 466.47678 256.32 
L 466.47678 256.32 
L 443.442724 256.32 
z
" clip-path="url(#p8fffad11fd)" style="fill: #1f77b4"/>
   </g>
   <g id="patch_17">
    <path d="M 466.47678 256.32 
L 489.510836 256.32 
L 489.510836 256.32 
L 466.47678 256.32 
z
" clip-path="url(#p8fffad11fd)" style="fill: #1f77b4"/>
   </g>
   <g id="patch_18">
    <path d="M 489.510836 256.32 
L 512.544892 256.32 
L 512.544892 256.32 
L 489.510836 256.32 
z
" clip-path="url(#p8fffad11fd)" style="fill: #1f77b4"/>
   </g>
   <g id="patch_19">
    <path d="M 512.544892 256.32 
L 535.578947 256.32 
L 535.578947 256.32 
L 512.544892 256.32 
z
" clip-path="url(#p8fffad11fd)" style="fill: #1f77b4"/>
   </g>
   <g id="patch_20">
    <path d="M 535.578947 256.32 
L 558.613003 256.32 
L 558.613003 256.32 
L 535.578947 256.32 
z
" clip-path="url(#p8fffad11fd)" style="fill: #1f77b4"/>
   </g>
   <g id="patch_21">
    <path d="M 558.613003 256.32 
L 581.647059 256.32 
L 581.647059 256.32 
L 558.613003 256.32 
z
" clip-path="url(#p8fffad11fd)" style="fill: #1f77b4"/>
   </g>
   <g id="matplotlib.axis_1">
    <g id="xtick_1">
     <g id="line2d_1">
      <defs>
       <path id="mb6b1ae76bc" d="M 0 0 
L 0 3.5 
" style="stroke: #000000; stroke-width: 0.8"/>
      </defs>
      <g>
       <use xlink:href="#mb6b1ae76bc" x="144" y="256.32" style="stroke: #000000; stroke-width: 0.8"/>
      </g>
     </g>
     <g id="text_1">
      <!-- 0.0 -->
      <g transform="translate(134.458125 272.438125) scale(0.12 -0.12)">
       <defs>
        <path id="DejaVuSans-30" d="M 2034 4250 
Q 1547 4250 1301 3770 
Q 1056 3291 1056 2328 
Q 1056 1369 1301 889 
Q 1547 409 2034 409 
Q 2525 409 2770 889 
Q 3016 1369 3016 2328 
Q 3016 3291 2770 3770 
Q 2525 4250 2034 4250 
z
M 2034 4750 
Q 2819 4750 3233 4129 
Q 3647 3509 3647 2328 
Q 3647 1150 3233 529 
Q 2819 -91 2034 -91 
Q 1250 -91 836 529 
Q 422 1150 422 2328 
Q 422 3509 836 4129 
Q 1250 4750 2034 4750 
z
" transform="scale(0.015625)"/>
        <path id="DejaVuSans-2e" d="M 684 794 
L 1344 794 
L 1344 0 
L 684 0 
L 684 794 
z
" transform="scale(0.015625)"/>
       </defs>
       <use xlink:href="#DejaVuSans-30"/>
       <use xlink:href="#DejaVuSans-2e" x="63.623047"/>
       <use xlink:href="#DejaVuSans-30" x="95.410156"/>
      </g>
     </g>
    </g>
    <g id="xtick_2">
     <g id="line2d_2">
      <g>
       <use xlink:href="#mb6b1ae76bc" x="187.764706" y="256.32" style="stroke: #000000; stroke-width: 0.8"/>
      </g>
     </g>
     <g id="text_2">
      <!-- 0.5 -->
      <g transform="translate(178.222831 272.438125) scale(0.12 -0.12)">
       <defs>
        <path id="DejaVuSans-35" d="M 691 4666 
L 3169 4666 
L 3169 4134 
L 1269 4134 
L 1269 2991 
Q 1406 3038 1543 3061 
Q 1681 3084 1819 3084 
Q 2600 3084 3056 2656 
Q 3513 2228 3513 1497 
Q 3513 744 3044 326 
Q 2575 -91 1722 -91 
Q 1428 -91 1123 -41 
Q 819 9 494 109 
L 494 744 
Q 775 591 1075 516 
Q 1375 441 1709 441 
Q 2250 441 2565 725 
Q 2881 1009 2881 1497 
Q 2881 1984 2565 2268 
Q 2250 2553 1709 2553 
Q 1456 2553 1204 2497 
Q 953 2441 691 2322 
L 691 4666 
z
" transform="scale(0.015625)"/>
       </defs>
       <use xlink:href="#DejaVuSans-30"/>
       <use xlink:href="#DejaVuSans-2e" x="63.623047"/>
       <use xlink:href="#DejaVuSans-35" x="95.410156"/>
      </g>
     </g>
    </g>
    <g id="xtick_3">
     <g id="line2d_3">
      <g>
       <use xlink:href="#mb6b1ae76bc" x="231.529412" y="256.32" style="stroke: #000000; stroke-width: 0.8"/>
      </g>
     </g>
     <g id="text_3">
      <!-- 1.0 -->
      <g transform="translate(221.987537 272.438125) scale(0.12 -0.12)">
       <defs>
        <path id="DejaVuSans-31" d="M 794 531 
L 1825 531 
L 1825 4091 
L 703 3866 
L 703 4441 
L 1819 4666 
L 2450 4666 
L 2450 531 
L 3481 531 
L 3481 0 
L 794 0 
L 794 531 
z
" transform="scale(0.015625)"/>
       </defs>
       <use xlink:href="#DejaVuSans-31"/>
       <use xlink:href="#DejaVuSans-2e" x="63.623047"/>
       <use xlink:href="#DejaVuSans-30" x="95.410156"/>
      </g>
     </g>
    </g>
    <g id="xtick_4">
     <g id="line2d_4">
      <g>
       <use xlink:href="#mb6b1ae76bc" x="275.294118" y="256.32" style="stroke: #000000; stroke-width: 0.8"/>
      </g>
     </g>
     <g id="text_4">
      <!-- 1.5 -->
      <g transform="translate(265.752243 272.438125) scale(0.12 -0.12)">
       <use xlink:href="#DejaVuSans-31"/>
       <use xlink:href="#DejaVuSans-2e" x="63.623047"/>
       <use xlink:href="#DejaVuSans-35" x="95.410156"/>
      </g>
     </g>
    </g>
    <g id="xtick_5">
     <g id="line2d_5">
      <g>
       <use xlink:href="#mb6b1ae76bc" x="319.058824" y="256.32" style="stroke: #000000; stroke-width: 0.8"/>
      </g>
     </g>
     <g id="text_5">
      <!-- 2.0 -->
      <g transform="translate(309.516949 272.438125) scale(0.12 -0.12)">
       <defs>
        <path id="DejaVuSans-32" d="M 1228 531 
L 3431 531 
L 3431 0 
L 469 0 
L 469 531 
Q 828 903 1448 1529 
Q 2069 2156 2228 2338 
Q 2531 2678 2651 2914 
Q 2772 3150 2772 3378 
Q 2772 3750 2511 3984 
Q 2250 4219 1831 4219 
Q 1534 4219 1204 4116 
Q 875 4013 500 3803 
L 500 4441 
Q 881 4594 1212 4672 
Q 1544 4750 1819 4750 
Q 2544 4750 2975 4387 
Q 3406 4025 3406 3419 
Q 3406 3131 3298 2873 
Q 3191 2616 2906 2266 
Q 2828 2175 2409 1742 
Q 1991 1309 1228 531 
z
" transform="scale(0.015625)"/>
       </defs>
       <use xlink:href="#DejaVuSans-32"/>
       <use xlink:href="#DejaVuSans-2e" x="63.623047"/>
       <use xlink:href="#DejaVuSans-30" x="95.410156"/>
      </g>
     </g>
    </g>
    <g id="xtick_6">
     <g id="line2d_6">
      <g>
       <use xlink:href="#mb6b1ae76bc" x="362.823529" y="256.32" style="stroke: #000000; stroke-width: 0.8"/>
      </g>
     </g>
     <g id="text_6">
      <!-- 2.5 -->
      <g transform="translate(353.281654 272.438125) scale(0.12 -0.12)">
       <use xlink:href="#DejaVuSans-32"/>
       <use xlink:href="#DejaVuSans-2e" x="63.623047"/>
       <use xlink:href="#DejaVuSans-35" x="95.410156"/>
      </g>
     </g>
    </g>
    <g id="xtick_7">
     <g id="line2d_7">
      <g>
       <use xlink:href="#mb6b1ae76bc" x="406.588235" y="256.32" style="stroke: #000000; stroke-width: 0.8"/>
      </g>
     </g>
     <g id="text_7">
      <!-- 3.0 -->
      <g transform="translate(397.04636 272.438125) scale(0.12 -0.12)">
       <defs>
        <path id="DejaVuSans-33" d="M 2597 2516 
Q 3050 2419 3304 2112 
Q 3559 1806 3559 1356 
Q 3559 666 3084 287 
Q 2609 -91 1734 -91 
Q 1441 -91 1130 -33 
Q 819 25 488 141 
L 488 750 
Q 750 597 1062 519 
Q 1375 441 1716 441 
Q 2309 441 2620 675 
Q 2931 909 2931 1356 
Q 2931 1769 2642 2001 
Q 2353 2234 1838 2234 
L 1294 2234 
L 1294 2753 
L 1863 2753 
Q 2328 2753 2575 2939 
Q 2822 3125 2822 3475 
Q 2822 3834 2567 4026 
Q 2313 4219 1838 4219 
Q 1578 4219 1281 4162 
Q 984 4106 628 3988 
L 628 4550 
Q 988 4650 1302 4700 
Q 1616 4750 1894 4750 
Q 2613 4750 3031 4423 
Q 3450 4097 3450 3541 
Q 3450 3153 3228 2886 
Q 3006 2619 2597 2516 
z
" transform="scale(0.015625)"/>
       </defs>
       <use xlink:href="#DejaVuSans-33"/>
       <use xlink:href="#DejaVuSans-2e" x="63.623047"/>
       <use xlink:href="#DejaVuSans-30" x="95.410156"/>
      </g>
     </g>
    </g>
   </g>
   <g id="matplotlib.axis_2">
    <g id="ytick_1">
     <g id="line2d_8">
      <defs>
       <path id="m2324fbf40d" d="M 0 0 
L -3.5 0 
" style="stroke: #000000; stroke-width: 0.8"/>
      </defs>
      <g>
       <use xlink:href="#m2324fbf40d" x="144" y="256.32" style="stroke: #000000; stroke-width: 0.8"/>
      </g>
     </g>
     <g id="text_8">
      <!-- 0.00 -->
      <g transform="translate(110.28125 260.879063) scale(0.12 -0.12)">
       <use xlink:href="#DejaVuSans-30"/>
       <use xlink:href="#DejaVuSans-2e" x="63.623047"/>
       <use xlink:href="#DejaVuSans-30" x="95.410156"/>
       <use xlink:href="#DejaVuSans-30" x="159.033203"/>
      </g>
     </g>
    </g>
    <g id="ytick_2">
     <g id="line2d_9">
      <g>
       <use xlink:href="#m2324fbf40d" x="144" y="231.435545" style="stroke: #000000; stroke-width: 0.8"/>
      </g>
     </g>
     <g id="text_9">
      <!-- 0.25 -->
      <g transform="translate(110.28125 235.994607) scale(0.12 -0.12)">
       <use xlink:href="#DejaVuSans-30"/>
       <use xlink:href="#DejaVuSans-2e" x="63.623047"/>
       <use xlink:href="#DejaVuSans-32" x="95.410156"/>
       <use xlink:href="#DejaVuSans-35" x="159.033203"/>
      </g>
     </g>
    </g>
    <g id="ytick_3">
     <g id="line2d_10">
      <g>
       <use xlink:href="#m2324fbf40d" x="144" y="206.55109" style="stroke: #000000; stroke-width: 0.8"/>
      </g>
     </g>
     <g id="text_10">
      <!-- 0.50 -->
      <g transform="translate(110.28125 211.110152) scale(0.12 -0.12)">
       <use xlink:href="#DejaVuSans-30"/>
       <use xlink:href="#DejaVuSans-2e" x="63.623047"/>
       <use xlink:href="#DejaVuSans-35" x="95.410156"/>
       <use xlink:href="#DejaVuSans-30" x="159.033203"/>
      </g>
     </g>
    </g>
    <g id="ytick_4">
     <g id="line2d_11">
      <g>
       <use xlink:href="#m2324fbf40d" x="144" y="181.666635" style="stroke: #000000; stroke-width: 0.8"/>
      </g>
     </g>
     <g id="text_11">
      <!-- 0.75 -->
      <g transform="translate(110.28125 186.225697) scale(0.12 -0.12)">
       <defs>
        <path id="DejaVuSans-37" d="M 525 4666 
L 3525 4666 
L 3525 4397 
L 1831 0 
L 1172 0 
L 2766 4134 
L 525 4134 
L 525 4666 
z
" transform="scale(0.015625)"/>
       </defs>
       <use xlink:href="#DejaVuSans-30"/>
       <use xlink:href="#DejaVuSans-2e" x="63.623047"/>
       <use xlink:href="#DejaVuSans-37" x="95.410156"/>
       <use xlink:href="#DejaVuSans-35" x="159.033203"/>
      </g>
     </g>
    </g>
    <g id="ytick_5">
     <g id="line2d_12">
      <g>
       <use xlink:href="#m2324fbf40d" x="144" y="156.78218" style="stroke: #000000; stroke-width: 0.8"/>
      </g>
     </g>
     <g id="text_12">
      <!-- 1.00 -->
      <g transform="translate(110.28125 161.341242) scale(0.12 -0.12)">
       <use xlink:href="#DejaVuSans-31"/>
       <use xlink:href="#DejaVuSans-2e" x="63.623047"/>
       <use xlink:href="#DejaVuSans-30" x="95.410156"/>
       <use xlink:href="#DejaVuSans-30" x="159.033203"/>
      </g>
     </g>
    </g>
    <g id="ytick_6">
     <g id="line2d_13">
      <g>
       <use xlink:href="#m2324fbf40d" x="144" y="131.897725" style="stroke: #000000; stroke-width: 0.8"/>
      </g>
     </g>
     <g id="text_13">
      <!-- 1.25 -->
      <g transform="translate(110.28125 136.456787) scale(0.12 -0.12)">
       <use xlink:href="#DejaVuSans-31"/>
       <use xlink:href="#DejaVuSans-2e" x="63.623047"/>
       <use xlink:href="#DejaVuSans-32" x="95.410156"/>
       <use xlink:href="#DejaVuSans-35" x="159.033203"/>
      </g>
     </g>
    </g>
    <g id="ytick_7">
     <g id="line2d_14">
      <g>
       <use xlink:href="#m2324fbf40d" x="144" y="107.01327" style="stroke: #000000; stroke-width: 0.8"/>
      </g>
     </g>
     <g id="text_14">
      <!-- 1.50 -->
      <g transform="translate(110.28125 111.572332) scale(0.12 -0.12)">
       <use xlink:href="#DejaVuSans-31"/>
       <use xlink:href="#DejaVuSans-2e" x="63.623047"/>
       <use xlink:href="#DejaVuSans-35" x="95.410156"/>
       <use xlink:href="#DejaVuSans-30" x="159.033203"/>
      </g>
     </g>
    </g>
    <g id="ytick_8">
     <g id="line2d_15">
      <g>
       <use xlink:href="#m2324fbf40d" x="144" y="82.128815" style="stroke: #000000; stroke-width: 0.8"/>
      </g>
     </g>
     <g id="text_15">
      <!-- 1.75 -->
      <g transform="translate(110.28125 86.687877) scale(0.12 -0.12)">
       <use xlink:href="#DejaVuSans-31"/>
       <use xlink:href="#DejaVuSans-2e" x="63.623047"/>
       <use xlink:href="#DejaVuSans-37" x="95.410156"/>
       <use xlink:href="#DejaVuSans-35" x="159.033203"/>
      </g>
     </g>
    </g>
    <g id="ytick_9">
     <g id="line2d_16">
      <g>
       <use xlink:href="#m2324fbf40d" x="144" y="57.24436" style="stroke: #000000; stroke-width: 0.8"/>
      </g>
     </g>
     <g id="text_16">
      <!-- 2.00 -->
      <g transform="translate(110.28125 61.803422) scale(0.12 -0.12)">
       <use xlink:href="#DejaVuSans-32"/>
       <use xlink:href="#DejaVuSans-2e" x="63.623047"/>
       <use xlink:href="#DejaVuSans-30" x="95.410156"/>
       <use xlink:href="#DejaVuSans-30" x="159.033203"/>
      </g>
     </g>
    </g>
   </g>
   <g id="line2d_17">
    <path d="M 144 45.12 
L 146.652406 45.804078 
L 149.304813 47.843061 
L 151.957219 51.197626 
L 154.609626 55.803631 
L 157.262032 61.574159 
L 159.914439 68.402241 
L 162.566845 76.164141 
L 165.219251 84.723085 
L 167.871658 93.933241 
L 170.524064 103.643822 
L 173.176471 113.703136 
L 175.828877 123.962431 
L 178.481283 134.279415 
L 181.13369 144.521334 
L 183.786096 154.567521 
L 186.438503 164.311371 
L 189.090909 173.661714 
L 191.743316 182.543585 
L 194.395722 190.898421 
L 197.048128 198.683743 
L 199.700535 205.872377 
L 202.352941 212.451306 
L 205.005348 218.420227 
L 207.657754 223.789914 
L 210.31016 228.580458 
L 212.962567 232.819476 
L 215.614973 236.540344 
L 218.26738 239.780534 
L 220.919786 242.580071 
L 223.572193 244.980175 
L 226.224599 247.022082 
L 228.877005 248.746073 
L 231.529412 250.190695 
L 234.181818 251.392184 
L 236.834225 252.384051 
L 239.486631 253.196836 
L 242.139037 253.857995 
L 244.791444 254.391897 
L 247.44385 254.819909 
L 250.096257 255.160557 
L 252.748663 255.429726 
L 255.40107 255.640891 
L 258.053476 255.80537 
L 260.705882 255.932573 
L 263.358289 256.030252 
L 266.010695 256.104728 
L 268.663102 256.161113 
L 271.315508 256.203501 
L 273.967914 256.235144 
L 276.620321 256.258599 
L 279.272727 256.275863 
L 281.925134 256.288483 
L 284.57754 256.297642 
L 287.229947 256.304245 
L 289.882353 256.308971 
L 292.534759 256.31233 
L 295.187166 256.314702 
L 297.839572 256.316364 
L 300.491979 256.317521 
L 303.144385 256.318321 
L 305.796791 256.318871 
L 308.449198 256.319245 
L 311.101604 256.319499 
L 313.754011 256.31967 
L 316.406417 256.319784 
L 319.058824 256.319859 
L 321.71123 256.319909 
L 324.363636 256.319942 
L 327.016043 256.319963 
L 329.668449 256.319976 
L 332.320856 256.319985 
L 334.973262 256.319991 
L 337.625668 256.319994 
L 340.278075 256.319996 
L 342.930481 256.319998 
L 345.582888 256.319999 
L 348.235294 256.319999 
L 350.887701 256.32 
L 353.540107 256.32 
L 356.192513 256.32 
L 358.84492 256.32 
L 361.497326 256.32 
L 364.149733 256.32 
L 366.802139 256.32 
L 369.454545 256.32 
L 372.106952 256.32 
L 374.759358 256.32 
L 377.411765 256.32 
L 380.064171 256.32 
L 382.716578 256.32 
L 385.368984 256.32 
L 388.02139 256.32 
L 390.673797 256.32 
L 393.326203 256.32 
L 395.97861 256.32 
L 398.631016 256.32 
L 401.283422 256.32 
L 403.935829 256.32 
L 406.588235 256.32 
" clip-path="url(#p8fffad11fd)" style="fill: none; stroke: #ff0000; stroke-width: 1.5; stroke-linecap: square"/>
   </g>
   <g id="patch_22">
    <path d="M 144 256.32 
L 144 34.56 
" style="fill: none; stroke: #000000; stroke-width: 0.8; stroke-linejoin: miter; stroke-linecap: square"/>
   </g>
   <g id="patch_23">
    <path d="M 406.588235 256.32 
L 406.588235 34.56 
" style="fill: none; stroke: #000000; stroke-width: 0.8; stroke-linejoin: miter; stroke-linecap: square"/>
   </g>
   <g id="patch_24">
    <path d="M 144 256.32 
L 406.588235 256.32 
" style="fill: none; stroke: #000000; stroke-width: 0.8; stroke-linejoin: miter; stroke-linecap: square"/>
   </g>
   <g id="patch_25">
    <path d="M 144 34.56 
L 406.588235 34.56 
" style="fill: none; stroke: #000000; stroke-width: 0.8; stroke-linejoin: miter; stroke-linecap: square"/>
   </g>
  </g>
  <g id="axes_2">
   <g id="patch_26">
    <path d="M 459.105882 256.32 
L 721.694118 256.32 
L 721.694118 34.56 
L 459.105882 34.56 
z
" style="fill: #ffffff"/>
   </g>
   <g id="patch_27">
    <path d="M 459.105882 256.32 
L 482.139938 256.32 
L 482.139938 195.396923 
L 459.105882 195.396923 
z
" clip-path="url(#pc8fe5601b3)" style="fill: #1f77b4"/>
   </g>
   <g id="patch_28">
    <path d="M 482.139938 256.32 
L 505.173994 256.32 
L 505.173994 45.12 
L 482.139938 45.12 
z
" clip-path="url(#pc8fe5601b3)" style="fill: #1f77b4"/>
   </g>
   <g id="patch_29">
    <path d="M 505.173994 256.32 
L 528.20805 256.32 
L 528.20805 73.550769 
L 505.173994 73.550769 
z
" clip-path="url(#pc8fe5601b3)" style="fill: #1f77b4"/>
   </g>
   <g id="patch_30">
    <path d="M 528.20805 256.32 
L 551.242105 256.32 
L 551.242105 183.212308 
L 528.20805 183.212308 
z
" clip-path="url(#pc8fe5601b3)" style="fill: #1f77b4"/>
   </g>
   <g id="patch_31">
    <path d="M 551.242105 256.32 
L 574.276161 256.32 
L 574.276161 223.827692 
L 551.242105 223.827692 
z
" clip-path="url(#pc8fe5601b3)" style="fill: #1f77b4"/>
   </g>
   <g id="patch_32">
    <path d="M 574.276161 256.32 
L 597.310217 256.32 
L 597.310217 244.135385 
L 574.276161 244.135385 
z
" clip-path="url(#pc8fe5601b3)" style="fill: #1f77b4"/>
   </g>
   <g id="patch_33">
    <path d="M 597.310217 256.32 
L 620.344272 256.32 
L 620.344272 248.196923 
L 597.310217 248.196923 
z
" clip-path="url(#pc8fe5601b3)" style="fill: #1f77b4"/>
   </g>
   <g id="patch_34">
    <path d="M 620.344272 256.32 
L 643.378328 256.32 
L 643.378328 248.196923 
L 620.344272 248.196923 
z
" clip-path="url(#pc8fe5601b3)" style="fill: #1f77b4"/>
   </g>
   <g id="patch_35">
    <path d="M 643.378328 256.32 
L 666.412384 256.32 
L 666.412384 256.32 
L 643.378328 256.32 
z
" clip-path="url(#pc8fe5601b3)" style="fill: #1f77b4"/>
   </g>
   <g id="patch_36">
    <path d="M 666.412384 256.32 
L 689.44644 256.32 
L 689.44644 256.32 
L 666.412384 256.32 
z
" clip-path="url(#pc8fe5601b3)" style="fill: #1f77b4"/>
   </g>
   <g id="patch_37">
    <path d="M 689.44644 256.32 
L 712.480495 256.32 
L 712.480495 256.32 
L 689.44644 256.32 
z
" clip-path="url(#pc8fe5601b3)" style="fill: #1f77b4"/>
   </g>
   <g id="patch_38">
    <path d="M 712.480495 256.32 
L 735.514551 256.32 
L 735.514551 256.32 
L 712.480495 256.32 
z
" clip-path="url(#pc8fe5601b3)" style="fill: #1f77b4"/>
   </g>
   <g id="patch_39">
    <path d="M 735.514551 256.32 
L 758.548607 256.32 
L 758.548607 256.32 
L 735.514551 256.32 
z
" clip-path="url(#pc8fe5601b3)" style="fill: #1f77b4"/>
   </g>
   <g id="patch_40">
    <path d="M 758.548607 256.32 
L 781.582663 256.32 
L 781.582663 256.32 
L 758.548607 256.32 
z
" clip-path="url(#pc8fe5601b3)" style="fill: #1f77b4"/>
   </g>
   <g id="patch_41">
    <path d="M 781.582663 256.32 
L 804.616718 256.32 
L 804.616718 256.32 
L 781.582663 256.32 
z
" clip-path="url(#pc8fe5601b3)" style="fill: #1f77b4"/>
   </g>
   <g id="patch_42">
    <path d="M 804.616718 256.32 
L 827.650774 256.32 
L 827.650774 256.32 
L 804.616718 256.32 
z
" clip-path="url(#pc8fe5601b3)" style="fill: #1f77b4"/>
   </g>
   <g id="patch_43">
    <path d="M 827.650774 256.32 
L 850.68483 256.32 
L 850.68483 256.32 
L 827.650774 256.32 
z
" clip-path="url(#pc8fe5601b3)" style="fill: #1f77b4"/>
   </g>
   <g id="patch_44">
    <path d="M 850.68483 256.32 
L 873.718885 256.32 
L 873.718885 256.32 
L 850.68483 256.32 
z
" clip-path="url(#pc8fe5601b3)" style="fill: #1f77b4"/>
   </g>
   <g id="patch_45">
    <path d="M 873.718885 256.32 
L 896.752941 256.32 
L 896.752941 256.32 
L 873.718885 256.32 
z
" clip-path="url(#pc8fe5601b3)" style="fill: #1f77b4"/>
   </g>
   <g id="matplotlib.axis_3">
    <g id="xtick_8">
     <g id="line2d_18">
      <g>
       <use xlink:href="#mb6b1ae76bc" x="459.105882" y="256.32" style="stroke: #000000; stroke-width: 0.8"/>
      </g>
     </g>
     <g id="text_17">
      <!-- 0.0 -->
      <g transform="translate(449.564007 272.438125) scale(0.12 -0.12)">
       <use xlink:href="#DejaVuSans-30"/>
       <use xlink:href="#DejaVuSans-2e" x="63.623047"/>
       <use xlink:href="#DejaVuSans-30" x="95.410156"/>
      </g>
     </g>
    </g>
    <g id="xtick_9">
     <g id="line2d_19">
      <g>
       <use xlink:href="#mb6b1ae76bc" x="502.870588" y="256.32" style="stroke: #000000; stroke-width: 0.8"/>
      </g>
     </g>
     <g id="text_18">
      <!-- 0.5 -->
      <g transform="translate(493.328713 272.438125) scale(0.12 -0.12)">
       <use xlink:href="#DejaVuSans-30"/>
       <use xlink:href="#DejaVuSans-2e" x="63.623047"/>
       <use xlink:href="#DejaVuSans-35" x="95.410156"/>
      </g>
     </g>
    </g>
    <g id="xtick_10">
     <g id="line2d_20">
      <g>
       <use xlink:href="#mb6b1ae76bc" x="546.635294" y="256.32" style="stroke: #000000; stroke-width: 0.8"/>
      </g>
     </g>
     <g id="text_19">
      <!-- 1.0 -->
      <g transform="translate(537.093419 272.438125) scale(0.12 -0.12)">
       <use xlink:href="#DejaVuSans-31"/>
       <use xlink:href="#DejaVuSans-2e" x="63.623047"/>
       <use xlink:href="#DejaVuSans-30" x="95.410156"/>
      </g>
     </g>
    </g>
    <g id="xtick_11">
     <g id="line2d_21">
      <g>
       <use xlink:href="#mb6b1ae76bc" x="590.4" y="256.32" style="stroke: #000000; stroke-width: 0.8"/>
      </g>
     </g>
     <g id="text_20">
      <!-- 1.5 -->
      <g transform="translate(580.858125 272.438125) scale(0.12 -0.12)">
       <use xlink:href="#DejaVuSans-31"/>
       <use xlink:href="#DejaVuSans-2e" x="63.623047"/>
       <use xlink:href="#DejaVuSans-35" x="95.410156"/>
      </g>
     </g>
    </g>
    <g id="xtick_12">
     <g id="line2d_22">
      <g>
       <use xlink:href="#mb6b1ae76bc" x="634.164706" y="256.32" style="stroke: #000000; stroke-width: 0.8"/>
      </g>
     </g>
     <g id="text_21">
      <!-- 2.0 -->
      <g transform="translate(624.622831 272.438125) scale(0.12 -0.12)">
       <use xlink:href="#DejaVuSans-32"/>
       <use xlink:href="#DejaVuSans-2e" x="63.623047"/>
       <use xlink:href="#DejaVuSans-30" x="95.410156"/>
      </g>
     </g>
    </g>
    <g id="xtick_13">
     <g id="line2d_23">
      <g>
       <use xlink:href="#mb6b1ae76bc" x="677.929412" y="256.32" style="stroke: #000000; stroke-width: 0.8"/>
      </g>
     </g>
     <g id="text_22">
      <!-- 2.5 -->
      <g transform="translate(668.387537 272.438125) scale(0.12 -0.12)">
       <use xlink:href="#DejaVuSans-32"/>
       <use xlink:href="#DejaVuSans-2e" x="63.623047"/>
       <use xlink:href="#DejaVuSans-35" x="95.410156"/>
      </g>
     </g>
    </g>
    <g id="xtick_14">
     <g id="line2d_24">
      <g>
       <use xlink:href="#mb6b1ae76bc" x="721.694118" y="256.32" style="stroke: #000000; stroke-width: 0.8"/>
      </g>
     </g>
     <g id="text_23">
      <!-- 3.0 -->
      <g transform="translate(712.152243 272.438125) scale(0.12 -0.12)">
       <use xlink:href="#DejaVuSans-33"/>
       <use xlink:href="#DejaVuSans-2e" x="63.623047"/>
       <use xlink:href="#DejaVuSans-30" x="95.410156"/>
      </g>
     </g>
    </g>
   </g>
   <g id="matplotlib.axis_4">
    <g id="ytick_10">
     <g id="line2d_25">
      <g>
       <use xlink:href="#m2324fbf40d" x="459.105882" y="256.32" style="stroke: #000000; stroke-width: 0.8"/>
      </g>
     </g>
     <g id="text_24">
      <!-- 0.0 -->
      <g transform="translate(433.022132 260.879063) scale(0.12 -0.12)">
       <use xlink:href="#DejaVuSans-30"/>
       <use xlink:href="#DejaVuSans-2e" x="63.623047"/>
       <use xlink:href="#DejaVuSans-30" x="95.410156"/>
      </g>
     </g>
    </g>
    <g id="ytick_11">
     <g id="line2d_26">
      <g>
       <use xlink:href="#m2324fbf40d" x="459.105882" y="225.324049" style="stroke: #000000; stroke-width: 0.8"/>
      </g>
     </g>
     <g id="text_25">
      <!-- 0.2 -->
      <g transform="translate(433.022132 229.883111) scale(0.12 -0.12)">
       <use xlink:href="#DejaVuSans-30"/>
       <use xlink:href="#DejaVuSans-2e" x="63.623047"/>
       <use xlink:href="#DejaVuSans-32" x="95.410156"/>
      </g>
     </g>
    </g>
    <g id="ytick_12">
     <g id="line2d_27">
      <g>
       <use xlink:href="#m2324fbf40d" x="459.105882" y="194.328097" style="stroke: #000000; stroke-width: 0.8"/>
      </g>
     </g>
     <g id="text_26">
      <!-- 0.4 -->
      <g transform="translate(433.022132 198.88716) scale(0.12 -0.12)">
       <defs>
        <path id="DejaVuSans-34" d="M 2419 4116 
L 825 1625 
L 2419 1625 
L 2419 4116 
z
M 2253 4666 
L 3047 4666 
L 3047 1625 
L 3713 1625 
L 3713 1100 
L 3047 1100 
L 3047 0 
L 2419 0 
L 2419 1100 
L 313 1100 
L 313 1709 
L 2253 4666 
z
" transform="scale(0.015625)"/>
       </defs>
       <use xlink:href="#DejaVuSans-30"/>
       <use xlink:href="#DejaVuSans-2e" x="63.623047"/>
       <use xlink:href="#DejaVuSans-34" x="95.410156"/>
      </g>
     </g>
    </g>
    <g id="ytick_13">
     <g id="line2d_28">
      <g>
       <use xlink:href="#m2324fbf40d" x="459.105882" y="163.332146" style="stroke: #000000; stroke-width: 0.8"/>
      </g>
     </g>
     <g id="text_27">
      <!-- 0.6 -->
      <g transform="translate(433.022132 167.891208) scale(0.12 -0.12)">
       <defs>
        <path id="DejaVuSans-36" d="M 2113 2584 
Q 1688 2584 1439 2293 
Q 1191 2003 1191 1497 
Q 1191 994 1439 701 
Q 1688 409 2113 409 
Q 2538 409 2786 701 
Q 3034 994 3034 1497 
Q 3034 2003 2786 2293 
Q 2538 2584 2113 2584 
z
M 3366 4563 
L 3366 3988 
Q 3128 4100 2886 4159 
Q 2644 4219 2406 4219 
Q 1781 4219 1451 3797 
Q 1122 3375 1075 2522 
Q 1259 2794 1537 2939 
Q 1816 3084 2150 3084 
Q 2853 3084 3261 2657 
Q 3669 2231 3669 1497 
Q 3669 778 3244 343 
Q 2819 -91 2113 -91 
Q 1303 -91 875 529 
Q 447 1150 447 2328 
Q 447 3434 972 4092 
Q 1497 4750 2381 4750 
Q 2619 4750 2861 4703 
Q 3103 4656 3366 4563 
z
" transform="scale(0.015625)"/>
       </defs>
       <use xlink:href="#DejaVuSans-30"/>
       <use xlink:href="#DejaVuSans-2e" x="63.623047"/>
       <use xlink:href="#DejaVuSans-36" x="95.410156"/>
      </g>
     </g>
    </g>
    <g id="ytick_14">
     <g id="line2d_29">
      <g>
       <use xlink:href="#m2324fbf40d" x="459.105882" y="132.336194" style="stroke: #000000; stroke-width: 0.8"/>
      </g>
     </g>
     <g id="text_28">
      <!-- 0.8 -->
      <g transform="translate(433.022132 136.895257) scale(0.12 -0.12)">
       <defs>
        <path id="DejaVuSans-38" d="M 2034 2216 
Q 1584 2216 1326 1975 
Q 1069 1734 1069 1313 
Q 1069 891 1326 650 
Q 1584 409 2034 409 
Q 2484 409 2743 651 
Q 3003 894 3003 1313 
Q 3003 1734 2745 1975 
Q 2488 2216 2034 2216 
z
M 1403 2484 
Q 997 2584 770 2862 
Q 544 3141 544 3541 
Q 544 4100 942 4425 
Q 1341 4750 2034 4750 
Q 2731 4750 3128 4425 
Q 3525 4100 3525 3541 
Q 3525 3141 3298 2862 
Q 3072 2584 2669 2484 
Q 3125 2378 3379 2068 
Q 3634 1759 3634 1313 
Q 3634 634 3220 271 
Q 2806 -91 2034 -91 
Q 1263 -91 848 271 
Q 434 634 434 1313 
Q 434 1759 690 2068 
Q 947 2378 1403 2484 
z
M 1172 3481 
Q 1172 3119 1398 2916 
Q 1625 2713 2034 2713 
Q 2441 2713 2670 2916 
Q 2900 3119 2900 3481 
Q 2900 3844 2670 4047 
Q 2441 4250 2034 4250 
Q 1625 4250 1398 4047 
Q 1172 3844 1172 3481 
z
" transform="scale(0.015625)"/>
       </defs>
       <use xlink:href="#DejaVuSans-30"/>
       <use xlink:href="#DejaVuSans-2e" x="63.623047"/>
       <use xlink:href="#DejaVuSans-38" x="95.410156"/>
      </g>
     </g>
    </g>
    <g id="ytick_15">
     <g id="line2d_30">
      <g>
       <use xlink:href="#m2324fbf40d" x="459.105882" y="101.340243" style="stroke: #000000; stroke-width: 0.8"/>
      </g>
     </g>
     <g id="text_29">
      <!-- 1.0 -->
      <g transform="translate(433.022132 105.899305) scale(0.12 -0.12)">
       <use xlink:href="#DejaVuSans-31"/>
       <use xlink:href="#DejaVuSans-2e" x="63.623047"/>
       <use xlink:href="#DejaVuSans-30" x="95.410156"/>
      </g>
     </g>
    </g>
    <g id="ytick_16">
     <g id="line2d_31">
      <g>
       <use xlink:href="#m2324fbf40d" x="459.105882" y="70.344291" style="stroke: #000000; stroke-width: 0.8"/>
      </g>
     </g>
     <g id="text_30">
      <!-- 1.2 -->
      <g transform="translate(433.022132 74.903354) scale(0.12 -0.12)">
       <use xlink:href="#DejaVuSans-31"/>
       <use xlink:href="#DejaVuSans-2e" x="63.623047"/>
       <use xlink:href="#DejaVuSans-32" x="95.410156"/>
      </g>
     </g>
    </g>
    <g id="ytick_17">
     <g id="line2d_32">
      <g>
       <use xlink:href="#m2324fbf40d" x="459.105882" y="39.34834" style="stroke: #000000; stroke-width: 0.8"/>
      </g>
     </g>
     <g id="text_31">
      <!-- 1.4 -->
      <g transform="translate(433.022132 43.907403) scale(0.12 -0.12)">
       <use xlink:href="#DejaVuSans-31"/>
       <use xlink:href="#DejaVuSans-2e" x="63.623047"/>
       <use xlink:href="#DejaVuSans-34" x="95.410156"/>
      </g>
     </g>
    </g>
   </g>
   <g id="line2d_33">
    <path d="M 459.105882 176.438231 
L 461.758289 175.934254 
L 464.410695 174.433211 
L 467.063102 171.967595 
L 469.715508 168.590967 
L 472.367914 164.377065 
L 475.020321 159.418537 
L 477.672727 153.82529 
L 480.325134 147.722453 
L 482.97754 141.247954 
L 485.629947 134.549734 
L 488.282353 127.782614 
L 490.934759 121.104888 
L 493.587166 114.674695 
L 496.239572 108.646265 
L 498.891979 103.166155 
L 501.544385 98.369575 
L 504.196791 94.376953 
L 506.849198 91.290843 
L 509.501604 89.193326 
L 512.154011 88.143976 
L 514.806417 88.17851 
L 517.458824 89.308168 
L 520.11123 91.519844 
L 522.763636 94.776981 
L 525.416043 99.02119 
L 528.068449 104.174505 
L 530.720856 110.142206 
L 533.373262 116.816059 
L 536.025668 124.077863 
L 538.678075 131.803137 
L 541.330481 139.864806 
L 543.982888 148.136756 
L 546.635294 156.497115 
L 549.287701 164.831163 
L 551.940107 173.033784 
L 554.592513 181.011404 
L 557.24492 188.683381 
L 559.897326 195.982851 
L 562.549733 202.857046 
L 565.202139 209.267122 
L 567.854545 215.187572 
L 570.506952 220.605277 
L 573.159358 225.518283 
L 575.811765 229.934386 
L 578.464171 233.869601 
L 581.116578 237.346586 
L 583.768984 240.393095 
L 586.42139 243.040498 
L 589.073797 245.322431 
L 591.726203 247.273595 
L 594.37861 248.928717 
L 597.031016 250.321702 
L 599.683422 251.484953 
L 602.335829 252.448869 
L 604.988235 253.241499 
L 607.640642 253.888326 
L 610.293048 254.412187 
L 612.945455 254.833275 
L 615.597861 255.169227 
L 618.250267 255.435265 
L 620.902674 255.644381 
L 623.55508 255.807547 
L 626.207487 255.933926 
L 628.859893 256.031097 
L 631.512299 256.105267 
L 634.164706 256.161471 
L 636.817112 256.203753 
L 639.469519 256.235331 
L 642.121925 256.258747 
L 644.774332 256.275986 
L 647.426738 256.288586 
L 650.079144 256.29773 
L 652.731551 256.304319 
L 655.383957 256.309032 
L 658.036364 256.312381 
L 660.68877 256.314743 
L 663.341176 256.316397 
L 665.993583 256.317547 
L 668.645989 256.318342 
L 671.298396 256.318886 
L 673.950802 256.319257 
L 676.603209 256.319508 
L 679.255615 256.319676 
L 681.908021 256.319788 
L 684.560428 256.319862 
L 687.212834 256.319911 
L 689.865241 256.319943 
L 692.517647 256.319964 
L 695.170053 256.319977 
L 697.82246 256.319986 
L 700.474866 256.319991 
L 703.127273 256.319994 
L 705.779679 256.319997 
L 708.432086 256.319998 
L 711.084492 256.319999 
L 713.736898 256.319999 
L 716.389305 256.32 
L 719.041711 256.32 
L 721.694118 256.32 
" clip-path="url(#pc8fe5601b3)" style="fill: none; stroke: #ff0000; stroke-width: 1.5; stroke-linecap: square"/>
   </g>
   <g id="patch_46">
    <path d="M 459.105882 256.32 
L 459.105882 34.56 
" style="fill: none; stroke: #000000; stroke-width: 0.8; stroke-linejoin: miter; stroke-linecap: square"/>
   </g>
   <g id="patch_47">
    <path d="M 721.694118 256.32 
L 721.694118 34.56 
" style="fill: none; stroke: #000000; stroke-width: 0.8; stroke-linejoin: miter; stroke-linecap: square"/>
   </g>
   <g id="patch_48">
    <path d="M 459.105882 256.32 
L 721.694118 256.32 
" style="fill: none; stroke: #000000; stroke-width: 0.8; stroke-linejoin: miter; stroke-linecap: square"/>
   </g>
   <g id="patch_49">
    <path d="M 459.105882 34.56 
L 721.694118 34.56 
" style="fill: none; stroke: #000000; stroke-width: 0.8; stroke-linejoin: miter; stroke-linecap: square"/>
   </g>
  </g>
  <g id="axes_3">
   <g id="patch_50">
    <path d="M 774.211765 256.32 
L 1036.8 256.32 
L 1036.8 34.56 
L 774.211765 34.56 
z
" style="fill: #ffffff"/>
   </g>
   <g id="patch_51">
    <path d="M 774.211765 256.32 
L 797.24582 256.32 
L 797.24582 256.32 
L 774.211765 256.32 
z
" clip-path="url(#p18110f17ce)" style="fill: #1f77b4"/>
   </g>
   <g id="patch_52">
    <path d="M 797.24582 256.32 
L 820.279876 256.32 
L 820.279876 241.082642 
L 797.24582 241.082642 
z
" clip-path="url(#p18110f17ce)" style="fill: #1f77b4"/>
   </g>
   <g id="patch_53">
    <path d="M 820.279876 256.32 
L 843.313932 256.32 
L 843.313932 190.291449 
L 820.279876 190.291449 
z
" clip-path="url(#p18110f17ce)" style="fill: #1f77b4"/>
   </g>
   <g id="patch_54">
    <path d="M 843.313932 256.32 
L 866.347988 256.32 
L 866.347988 169.974972 
L 843.313932 169.974972 
z
" clip-path="url(#p18110f17ce)" style="fill: #1f77b4"/>
   </g>
   <g id="patch_55">
    <path d="M 866.347988 256.32 
L 889.382043 256.32 
L 889.382043 164.895852 
L 866.347988 164.895852 
z
" clip-path="url(#p18110f17ce)" style="fill: #1f77b4"/>
   </g>
   <g id="patch_56">
    <path d="M 889.382043 256.32 
L 912.416099 256.32 
L 912.416099 73.471705 
L 889.382043 73.471705 
z
" clip-path="url(#p18110f17ce)" style="fill: #1f77b4"/>
   </g>
   <g id="patch_57">
    <path d="M 912.416099 256.32 
L 935.450155 256.32 
L 935.450155 109.02554 
L 912.416099 109.02554 
z
" clip-path="url(#p18110f17ce)" style="fill: #1f77b4"/>
   </g>
   <g id="patch_58">
    <path d="M 935.450155 256.32 
L 958.484211 256.32 
L 958.484211 164.895852 
L 935.450155 164.895852 
z
" clip-path="url(#p18110f17ce)" style="fill: #1f77b4"/>
   </g>
   <g id="patch_59">
    <path d="M 958.484211 256.32 
L 981.518266 256.32 
L 981.518266 215.687045 
L 958.484211 215.687045 
z
" clip-path="url(#p18110f17ce)" style="fill: #1f77b4"/>
   </g>
   <g id="patch_60">
    <path d="M 981.518266 256.32 
L 1004.552322 256.32 
L 1004.552322 246.161761 
L 981.518266 246.161761 
z
" clip-path="url(#p18110f17ce)" style="fill: #1f77b4"/>
   </g>
   <g id="patch_61">
    <path d="M 1004.552322 256.32 
L 1027.586378 256.32 
L 1027.586378 246.161761 
L 1004.552322 246.161761 
z
" clip-path="url(#p18110f17ce)" style="fill: #1f77b4"/>
   </g>
   <g id="patch_62">
    <path d="M 1027.586378 256.32 
L 1050.620433 256.32 
L 1050.620433 256.32 
L 1027.586378 256.32 
z
" clip-path="url(#p18110f17ce)" style="fill: #1f77b4"/>
   </g>
   <g id="patch_63">
    <path d="M 1050.620433 256.32 
L 1073.654489 256.32 
L 1073.654489 256.32 
L 1050.620433 256.32 
z
" clip-path="url(#p18110f17ce)" style="fill: #1f77b4"/>
   </g>
   <g id="patch_64">
    <path d="M 1073.654489 256.32 
L 1096.688545 256.32 
L 1096.688545 256.32 
L 1073.654489 256.32 
z
" clip-path="url(#p18110f17ce)" style="fill: #1f77b4"/>
   </g>
   <g id="patch_65">
    <path d="M 1096.688545 256.32 
L 1119.722601 256.32 
L 1119.722601 256.32 
L 1096.688545 256.32 
z
" clip-path="url(#p18110f17ce)" style="fill: #1f77b4"/>
   </g>
   <g id="patch_66">
    <path d="M 1119.722601 256.32 
L 1142.756656 256.32 
L 1142.756656 256.32 
L 1119.722601 256.32 
z
" clip-path="url(#p18110f17ce)" style="fill: #1f77b4"/>
   </g>
   <g id="patch_67">
    <path d="M 1142.756656 256.32 
L 1165.790712 256.32 
L 1165.790712 256.32 
L 1142.756656 256.32 
z
" clip-path="url(#p18110f17ce)" style="fill: #1f77b4"/>
   </g>
   <g id="patch_68">
    <path d="M 1165.790712 256.32 
L 1188.824768 256.32 
L 1188.824768 256.32 
L 1165.790712 256.32 
z
" clip-path="url(#p18110f17ce)" style="fill: #1f77b4"/>
   </g>
   <g id="patch_69">
    <path d="M 1188.824768 256.32 
L 1211.858824 256.32 
L 1211.858824 256.32 
L 1188.824768 256.32 
z
" clip-path="url(#p18110f17ce)" style="fill: #1f77b4"/>
   </g>
   <g id="matplotlib.axis_5">
    <g id="xtick_15">
     <g id="line2d_34">
      <g>
       <use xlink:href="#mb6b1ae76bc" x="774.211765" y="256.32" style="stroke: #000000; stroke-width: 0.8"/>
      </g>
     </g>
     <g id="text_32">
      <!-- 0.0 -->
      <g transform="translate(764.66989 272.438125) scale(0.12 -0.12)">
       <use xlink:href="#DejaVuSans-30"/>
       <use xlink:href="#DejaVuSans-2e" x="63.623047"/>
       <use xlink:href="#DejaVuSans-30" x="95.410156"/>
      </g>
     </g>
    </g>
    <g id="xtick_16">
     <g id="line2d_35">
      <g>
       <use xlink:href="#mb6b1ae76bc" x="817.976471" y="256.32" style="stroke: #000000; stroke-width: 0.8"/>
      </g>
     </g>
     <g id="text_33">
      <!-- 0.5 -->
      <g transform="translate(808.434596 272.438125) scale(0.12 -0.12)">
       <use xlink:href="#DejaVuSans-30"/>
       <use xlink:href="#DejaVuSans-2e" x="63.623047"/>
       <use xlink:href="#DejaVuSans-35" x="95.410156"/>
      </g>
     </g>
    </g>
    <g id="xtick_17">
     <g id="line2d_36">
      <g>
       <use xlink:href="#mb6b1ae76bc" x="861.741176" y="256.32" style="stroke: #000000; stroke-width: 0.8"/>
      </g>
     </g>
     <g id="text_34">
      <!-- 1.0 -->
      <g transform="translate(852.199301 272.438125) scale(0.12 -0.12)">
       <use xlink:href="#DejaVuSans-31"/>
       <use xlink:href="#DejaVuSans-2e" x="63.623047"/>
       <use xlink:href="#DejaVuSans-30" x="95.410156"/>
      </g>
     </g>
    </g>
    <g id="xtick_18">
     <g id="line2d_37">
      <g>
       <use xlink:href="#mb6b1ae76bc" x="905.505882" y="256.32" style="stroke: #000000; stroke-width: 0.8"/>
      </g>
     </g>
     <g id="text_35">
      <!-- 1.5 -->
      <g transform="translate(895.964007 272.438125) scale(0.12 -0.12)">
       <use xlink:href="#DejaVuSans-31"/>
       <use xlink:href="#DejaVuSans-2e" x="63.623047"/>
       <use xlink:href="#DejaVuSans-35" x="95.410156"/>
      </g>
     </g>
    </g>
    <g id="xtick_19">
     <g id="line2d_38">
      <g>
       <use xlink:href="#mb6b1ae76bc" x="949.270588" y="256.32" style="stroke: #000000; stroke-width: 0.8"/>
      </g>
     </g>
     <g id="text_36">
      <!-- 2.0 -->
      <g transform="translate(939.728713 272.438125) scale(0.12 -0.12)">
       <use xlink:href="#DejaVuSans-32"/>
       <use xlink:href="#DejaVuSans-2e" x="63.623047"/>
       <use xlink:href="#DejaVuSans-30" x="95.410156"/>
      </g>
     </g>
    </g>
    <g id="xtick_20">
     <g id="line2d_39">
      <g>
       <use xlink:href="#mb6b1ae76bc" x="993.035294" y="256.32" style="stroke: #000000; stroke-width: 0.8"/>
      </g>
     </g>
     <g id="text_37">
      <!-- 2.5 -->
      <g transform="translate(983.493419 272.438125) scale(0.12 -0.12)">
       <use xlink:href="#DejaVuSans-32"/>
       <use xlink:href="#DejaVuSans-2e" x="63.623047"/>
       <use xlink:href="#DejaVuSans-35" x="95.410156"/>
      </g>
     </g>
    </g>
    <g id="xtick_21">
     <g id="line2d_40">
      <g>
       <use xlink:href="#mb6b1ae76bc" x="1036.8" y="256.32" style="stroke: #000000; stroke-width: 0.8"/>
      </g>
     </g>
     <g id="text_38">
      <!-- 3.0 -->
      <g transform="translate(1027.258125 272.438125) scale(0.12 -0.12)">
       <use xlink:href="#DejaVuSans-33"/>
       <use xlink:href="#DejaVuSans-2e" x="63.623047"/>
       <use xlink:href="#DejaVuSans-30" x="95.410156"/>
      </g>
     </g>
    </g>
   </g>
   <g id="matplotlib.axis_6">
    <g id="ytick_18">
     <g id="line2d_41">
      <g>
       <use xlink:href="#m2324fbf40d" x="774.211765" y="256.32" style="stroke: #000000; stroke-width: 0.8"/>
      </g>
     </g>
     <g id="text_39">
      <!-- 0.0 -->
      <g transform="translate(748.128015 260.879063) scale(0.12 -0.12)">
       <use xlink:href="#DejaVuSans-30"/>
       <use xlink:href="#DejaVuSans-2e" x="63.623047"/>
       <use xlink:href="#DejaVuSans-30" x="95.410156"/>
      </g>
     </g>
    </g>
    <g id="ytick_19">
     <g id="line2d_42">
      <g>
       <use xlink:href="#m2324fbf40d" x="774.211765" y="217.290978" style="stroke: #000000; stroke-width: 0.8"/>
      </g>
     </g>
     <g id="text_40">
      <!-- 0.2 -->
      <g transform="translate(748.128015 221.85004) scale(0.12 -0.12)">
       <use xlink:href="#DejaVuSans-30"/>
       <use xlink:href="#DejaVuSans-2e" x="63.623047"/>
       <use xlink:href="#DejaVuSans-32" x="95.410156"/>
      </g>
     </g>
    </g>
    <g id="ytick_20">
     <g id="line2d_43">
      <g>
       <use xlink:href="#m2324fbf40d" x="774.211765" y="178.261956" style="stroke: #000000; stroke-width: 0.8"/>
      </g>
     </g>
     <g id="text_41">
      <!-- 0.4 -->
      <g transform="translate(748.128015 182.821018) scale(0.12 -0.12)">
       <use xlink:href="#DejaVuSans-30"/>
       <use xlink:href="#DejaVuSans-2e" x="63.623047"/>
       <use xlink:href="#DejaVuSans-34" x="95.410156"/>
      </g>
     </g>
    </g>
    <g id="ytick_21">
     <g id="line2d_44">
      <g>
       <use xlink:href="#m2324fbf40d" x="774.211765" y="139.232934" style="stroke: #000000; stroke-width: 0.8"/>
      </g>
     </g>
     <g id="text_42">
      <!-- 0.6 -->
      <g transform="translate(748.128015 143.791996) scale(0.12 -0.12)">
       <use xlink:href="#DejaVuSans-30"/>
       <use xlink:href="#DejaVuSans-2e" x="63.623047"/>
       <use xlink:href="#DejaVuSans-36" x="95.410156"/>
      </g>
     </g>
    </g>
    <g id="ytick_22">
     <g id="line2d_45">
      <g>
       <use xlink:href="#m2324fbf40d" x="774.211765" y="100.203912" style="stroke: #000000; stroke-width: 0.8"/>
      </g>
     </g>
     <g id="text_43">
      <!-- 0.8 -->
      <g transform="translate(748.128015 104.762974) scale(0.12 -0.12)">
       <use xlink:href="#DejaVuSans-30"/>
       <use xlink:href="#DejaVuSans-2e" x="63.623047"/>
       <use xlink:href="#DejaVuSans-38" x="95.410156"/>
      </g>
     </g>
    </g>
    <g id="ytick_23">
     <g id="line2d_46">
      <g>
       <use xlink:href="#m2324fbf40d" x="774.211765" y="61.17489" style="stroke: #000000; stroke-width: 0.8"/>
      </g>
     </g>
     <g id="text_44">
      <!-- 1.0 -->
      <g transform="translate(748.128015 65.733952) scale(0.12 -0.12)">
       <use xlink:href="#DejaVuSans-31"/>
       <use xlink:href="#DejaVuSans-2e" x="63.623047"/>
       <use xlink:href="#DejaVuSans-30" x="95.410156"/>
      </g>
     </g>
    </g>
   </g>
   <g id="line2d_47">
    <path d="M 774.211765 256.251847 
L 776.864171 256.248028 
L 779.516578 256.236253 
L 782.168984 256.215548 
L 784.82139 256.184238 
L 787.473797 256.139865 
L 790.126203 256.079075 
L 792.77861 255.997477 
L 795.431016 255.889462 
L 798.083422 255.748005 
L 800.735829 255.56443 
L 803.388235 255.328158 
L 806.040642 255.026443 
L 808.693048 254.644096 
L 811.345455 254.163223 
L 813.997861 253.56298 
L 816.650267 252.81937 
L 819.302674 251.905105 
L 821.95508 250.789545 
L 824.607487 249.438761 
L 827.259893 247.815725 
L 829.912299 245.880671 
L 832.564706 243.591641 
L 835.217112 240.905241 
L 837.869519 237.777619 
L 840.521925 234.165666 
L 843.174332 230.028442 
L 845.826738 225.328801 
L 848.479144 220.03519 
L 851.131551 214.123566 
L 853.783957 207.579378 
L 856.436364 200.399531 
L 859.08877 192.594249 
L 861.741176 184.188736 
L 864.393583 175.224539 
L 867.045989 165.760511 
L 869.698396 155.873269 
L 872.350802 145.657094 
L 875.003209 135.223176 
L 877.655615 124.698191 
L 880.308021 114.222191 
L 882.960428 103.94584 
L 885.612834 94.027036 
L 888.265241 84.627044 
L 890.917647 75.906229 
L 893.570053 68.01957 
L 896.22246 61.112113 
L 898.874866 55.314551 
L 901.527273 50.73912 
L 904.179679 47.475987 
L 906.832086 45.590294 
L 909.484492 45.12 
L 912.136898 46.074608 
L 914.789305 48.434844 
L 917.441711 52.153307 
L 920.094118 57.156051 
L 922.746524 63.345029 
L 925.39893 70.601289 
L 928.051337 78.788772 
L 930.703743 87.758544 
L 933.35615 97.35328 
L 936.008556 107.411815 
L 938.660963 117.773566 
L 941.313369 128.282687 
L 943.965775 138.791776 
L 946.618182 149.165056 
L 949.270588 159.280919 
L 951.922995 169.033806 
L 954.575401 178.335398 
L 957.227807 187.115141 
L 959.880214 195.320155 
L 962.53262 202.914585 
L 965.185027 209.878495 
L 967.837433 216.206395 
L 970.48984 221.905496 
L 973.142246 226.993802 
L 975.794652 231.498133 
L 978.447059 235.452159 
L 981.099465 238.894508 
L 983.751872 241.867034 
L 986.404278 244.413248 
L 989.056684 246.576969 
L 991.709091 248.401202 
L 994.361497 249.927233 
L 997.013904 251.193949 
L 999.66631 252.237357 
L 1002.318717 253.090285 
L 1004.971123 253.782234 
L 1007.623529 254.33937 
L 1010.275936 254.784607 
L 1012.928342 255.137775 
L 1015.580749 255.415841 
L 1018.233155 255.633162 
L 1020.885561 255.801763 
L 1023.537968 255.931611 
L 1026.190374 256.030886 
L 1028.842781 256.106235 
L 1031.495187 256.163012 
L 1034.147594 256.205485 
L 1036.8 256.237029 
" clip-path="url(#p18110f17ce)" style="fill: none; stroke: #ff0000; stroke-width: 1.5; stroke-linecap: square"/>
   </g>
   <g id="patch_70">
    <path d="M 774.211765 256.32 
L 774.211765 34.56 
" style="fill: none; stroke: #000000; stroke-width: 0.8; stroke-linejoin: miter; stroke-linecap: square"/>
   </g>
   <g id="patch_71">
    <path d="M 1036.8 256.32 
L 1036.8 34.56 
" style="fill: none; stroke: #000000; stroke-width: 0.8; stroke-linejoin: miter; stroke-linecap: square"/>
   </g>
   <g id="patch_72">
    <path d="M 774.211765 256.32 
L 1036.8 256.32 
" style="fill: none; stroke: #000000; stroke-width: 0.8; stroke-linejoin: miter; stroke-linecap: square"/>
   </g>
   <g id="patch_73">
    <path d="M 774.211765 34.56 
L 1036.8 34.56 
" style="fill: none; stroke: #000000; stroke-width: 0.8; stroke-linejoin: miter; stroke-linecap: square"/>
   </g>
   <g id="text_45">
    <!-- Conditional histograms for E1 given E2 (centric, real data) -->
    <g transform="translate(695.733882 28.56) scale(0.144 -0.144)">
     <defs>
      <path id="DejaVuSans-43" d="M 4122 4306 
L 4122 3641 
Q 3803 3938 3442 4084 
Q 3081 4231 2675 4231 
Q 1875 4231 1450 3742 
Q 1025 3253 1025 2328 
Q 1025 1406 1450 917 
Q 1875 428 2675 428 
Q 3081 428 3442 575 
Q 3803 722 4122 1019 
L 4122 359 
Q 3791 134 3420 21 
Q 3050 -91 2638 -91 
Q 1578 -91 968 557 
Q 359 1206 359 2328 
Q 359 3453 968 4101 
Q 1578 4750 2638 4750 
Q 3056 4750 3426 4639 
Q 3797 4528 4122 4306 
z
" transform="scale(0.015625)"/>
      <path id="DejaVuSans-6f" d="M 1959 3097 
Q 1497 3097 1228 2736 
Q 959 2375 959 1747 
Q 959 1119 1226 758 
Q 1494 397 1959 397 
Q 2419 397 2687 759 
Q 2956 1122 2956 1747 
Q 2956 2369 2687 2733 
Q 2419 3097 1959 3097 
z
M 1959 3584 
Q 2709 3584 3137 3096 
Q 3566 2609 3566 1747 
Q 3566 888 3137 398 
Q 2709 -91 1959 -91 
Q 1206 -91 779 398 
Q 353 888 353 1747 
Q 353 2609 779 3096 
Q 1206 3584 1959 3584 
z
" transform="scale(0.015625)"/>
      <path id="DejaVuSans-6e" d="M 3513 2113 
L 3513 0 
L 2938 0 
L 2938 2094 
Q 2938 2591 2744 2837 
Q 2550 3084 2163 3084 
Q 1697 3084 1428 2787 
Q 1159 2491 1159 1978 
L 1159 0 
L 581 0 
L 581 3500 
L 1159 3500 
L 1159 2956 
Q 1366 3272 1645 3428 
Q 1925 3584 2291 3584 
Q 2894 3584 3203 3211 
Q 3513 2838 3513 2113 
z
" transform="scale(0.015625)"/>
      <path id="DejaVuSans-64" d="M 2906 2969 
L 2906 4863 
L 3481 4863 
L 3481 0 
L 2906 0 
L 2906 525 
Q 2725 213 2448 61 
Q 2172 -91 1784 -91 
Q 1150 -91 751 415 
Q 353 922 353 1747 
Q 353 2572 751 3078 
Q 1150 3584 1784 3584 
Q 2172 3584 2448 3432 
Q 2725 3281 2906 2969 
z
M 947 1747 
Q 947 1113 1208 752 
Q 1469 391 1925 391 
Q 2381 391 2643 752 
Q 2906 1113 2906 1747 
Q 2906 2381 2643 2742 
Q 2381 3103 1925 3103 
Q 1469 3103 1208 2742 
Q 947 2381 947 1747 
z
" transform="scale(0.015625)"/>
      <path id="DejaVuSans-69" d="M 603 3500 
L 1178 3500 
L 1178 0 
L 603 0 
L 603 3500 
z
M 603 4863 
L 1178 4863 
L 1178 4134 
L 603 4134 
L 603 4863 
z
" transform="scale(0.015625)"/>
      <path id="DejaVuSans-74" d="M 1172 4494 
L 1172 3500 
L 2356 3500 
L 2356 3053 
L 1172 3053 
L 1172 1153 
Q 1172 725 1289 603 
Q 1406 481 1766 481 
L 2356 481 
L 2356 0 
L 1766 0 
Q 1100 0 847 248 
Q 594 497 594 1153 
L 594 3053 
L 172 3053 
L 172 3500 
L 594 3500 
L 594 4494 
L 1172 4494 
z
" transform="scale(0.015625)"/>
      <path id="DejaVuSans-61" d="M 2194 1759 
Q 1497 1759 1228 1600 
Q 959 1441 959 1056 
Q 959 750 1161 570 
Q 1363 391 1709 391 
Q 2188 391 2477 730 
Q 2766 1069 2766 1631 
L 2766 1759 
L 2194 1759 
z
M 3341 1997 
L 3341 0 
L 2766 0 
L 2766 531 
Q 2569 213 2275 61 
Q 1981 -91 1556 -91 
Q 1019 -91 701 211 
Q 384 513 384 1019 
Q 384 1609 779 1909 
Q 1175 2209 1959 2209 
L 2766 2209 
L 2766 2266 
Q 2766 2663 2505 2880 
Q 2244 3097 1772 3097 
Q 1472 3097 1187 3025 
Q 903 2953 641 2809 
L 641 3341 
Q 956 3463 1253 3523 
Q 1550 3584 1831 3584 
Q 2591 3584 2966 3190 
Q 3341 2797 3341 1997 
z
" transform="scale(0.015625)"/>
      <path id="DejaVuSans-6c" d="M 603 4863 
L 1178 4863 
L 1178 0 
L 603 0 
L 603 4863 
z
" transform="scale(0.015625)"/>
      <path id="DejaVuSans-20" transform="scale(0.015625)"/>
      <path id="DejaVuSans-68" d="M 3513 2113 
L 3513 0 
L 2938 0 
L 2938 2094 
Q 2938 2591 2744 2837 
Q 2550 3084 2163 3084 
Q 1697 3084 1428 2787 
Q 1159 2491 1159 1978 
L 1159 0 
L 581 0 
L 581 4863 
L 1159 4863 
L 1159 2956 
Q 1366 3272 1645 3428 
Q 1925 3584 2291 3584 
Q 2894 3584 3203 3211 
Q 3513 2838 3513 2113 
z
" transform="scale(0.015625)"/>
      <path id="DejaVuSans-73" d="M 2834 3397 
L 2834 2853 
Q 2591 2978 2328 3040 
Q 2066 3103 1784 3103 
Q 1356 3103 1142 2972 
Q 928 2841 928 2578 
Q 928 2378 1081 2264 
Q 1234 2150 1697 2047 
L 1894 2003 
Q 2506 1872 2764 1633 
Q 3022 1394 3022 966 
Q 3022 478 2636 193 
Q 2250 -91 1575 -91 
Q 1294 -91 989 -36 
Q 684 19 347 128 
L 347 722 
Q 666 556 975 473 
Q 1284 391 1588 391 
Q 1994 391 2212 530 
Q 2431 669 2431 922 
Q 2431 1156 2273 1281 
Q 2116 1406 1581 1522 
L 1381 1569 
Q 847 1681 609 1914 
Q 372 2147 372 2553 
Q 372 3047 722 3315 
Q 1072 3584 1716 3584 
Q 2034 3584 2315 3537 
Q 2597 3491 2834 3397 
z
" transform="scale(0.015625)"/>
      <path id="DejaVuSans-67" d="M 2906 1791 
Q 2906 2416 2648 2759 
Q 2391 3103 1925 3103 
Q 1463 3103 1205 2759 
Q 947 2416 947 1791 
Q 947 1169 1205 825 
Q 1463 481 1925 481 
Q 2391 481 2648 825 
Q 2906 1169 2906 1791 
z
M 3481 434 
Q 3481 -459 3084 -895 
Q 2688 -1331 1869 -1331 
Q 1566 -1331 1297 -1286 
Q 1028 -1241 775 -1147 
L 775 -588 
Q 1028 -725 1275 -790 
Q 1522 -856 1778 -856 
Q 2344 -856 2625 -561 
Q 2906 -266 2906 331 
L 2906 616 
Q 2728 306 2450 153 
Q 2172 0 1784 0 
Q 1141 0 747 490 
Q 353 981 353 1791 
Q 353 2603 747 3093 
Q 1141 3584 1784 3584 
Q 2172 3584 2450 3431 
Q 2728 3278 2906 2969 
L 2906 3500 
L 3481 3500 
L 3481 434 
z
" transform="scale(0.015625)"/>
      <path id="DejaVuSans-72" d="M 2631 2963 
Q 2534 3019 2420 3045 
Q 2306 3072 2169 3072 
Q 1681 3072 1420 2755 
Q 1159 2438 1159 1844 
L 1159 0 
L 581 0 
L 581 3500 
L 1159 3500 
L 1159 2956 
Q 1341 3275 1631 3429 
Q 1922 3584 2338 3584 
Q 2397 3584 2469 3576 
Q 2541 3569 2628 3553 
L 2631 2963 
z
" transform="scale(0.015625)"/>
      <path id="DejaVuSans-6d" d="M 3328 2828 
Q 3544 3216 3844 3400 
Q 4144 3584 4550 3584 
Q 5097 3584 5394 3201 
Q 5691 2819 5691 2113 
L 5691 0 
L 5113 0 
L 5113 2094 
Q 5113 2597 4934 2840 
Q 4756 3084 4391 3084 
Q 3944 3084 3684 2787 
Q 3425 2491 3425 1978 
L 3425 0 
L 2847 0 
L 2847 2094 
Q 2847 2600 2669 2842 
Q 2491 3084 2119 3084 
Q 1678 3084 1418 2786 
Q 1159 2488 1159 1978 
L 1159 0 
L 581 0 
L 581 3500 
L 1159 3500 
L 1159 2956 
Q 1356 3278 1631 3431 
Q 1906 3584 2284 3584 
Q 2666 3584 2933 3390 
Q 3200 3197 3328 2828 
z
" transform="scale(0.015625)"/>
      <path id="DejaVuSans-66" d="M 2375 4863 
L 2375 4384 
L 1825 4384 
Q 1516 4384 1395 4259 
Q 1275 4134 1275 3809 
L 1275 3500 
L 2222 3500 
L 2222 3053 
L 1275 3053 
L 1275 0 
L 697 0 
L 697 3053 
L 147 3053 
L 147 3500 
L 697 3500 
L 697 3744 
Q 697 4328 969 4595 
Q 1241 4863 1831 4863 
L 2375 4863 
z
" transform="scale(0.015625)"/>
      <path id="DejaVuSans-45" d="M 628 4666 
L 3578 4666 
L 3578 4134 
L 1259 4134 
L 1259 2753 
L 3481 2753 
L 3481 2222 
L 1259 2222 
L 1259 531 
L 3634 531 
L 3634 0 
L 628 0 
L 628 4666 
z
" transform="scale(0.015625)"/>
      <path id="DejaVuSans-76" d="M 191 3500 
L 800 3500 
L 1894 563 
L 2988 3500 
L 3597 3500 
L 2284 0 
L 1503 0 
L 191 3500 
z
" transform="scale(0.015625)"/>
      <path id="DejaVuSans-65" d="M 3597 1894 
L 3597 1613 
L 953 1613 
Q 991 1019 1311 708 
Q 1631 397 2203 397 
Q 2534 397 2845 478 
Q 3156 559 3463 722 
L 3463 178 
Q 3153 47 2828 -22 
Q 2503 -91 2169 -91 
Q 1331 -91 842 396 
Q 353 884 353 1716 
Q 353 2575 817 3079 
Q 1281 3584 2069 3584 
Q 2775 3584 3186 3129 
Q 3597 2675 3597 1894 
z
M 3022 2063 
Q 3016 2534 2758 2815 
Q 2500 3097 2075 3097 
Q 1594 3097 1305 2825 
Q 1016 2553 972 2059 
L 3022 2063 
z
" transform="scale(0.015625)"/>
      <path id="DejaVuSans-28" d="M 1984 4856 
Q 1566 4138 1362 3434 
Q 1159 2731 1159 2009 
Q 1159 1288 1364 580 
Q 1569 -128 1984 -844 
L 1484 -844 
Q 1016 -109 783 600 
Q 550 1309 550 2009 
Q 550 2706 781 3412 
Q 1013 4119 1484 4856 
L 1984 4856 
z
" transform="scale(0.015625)"/>
      <path id="DejaVuSans-63" d="M 3122 3366 
L 3122 2828 
Q 2878 2963 2633 3030 
Q 2388 3097 2138 3097 
Q 1578 3097 1268 2742 
Q 959 2388 959 1747 
Q 959 1106 1268 751 
Q 1578 397 2138 397 
Q 2388 397 2633 464 
Q 2878 531 3122 666 
L 3122 134 
Q 2881 22 2623 -34 
Q 2366 -91 2075 -91 
Q 1284 -91 818 406 
Q 353 903 353 1747 
Q 353 2603 823 3093 
Q 1294 3584 2113 3584 
Q 2378 3584 2631 3529 
Q 2884 3475 3122 3366 
z
" transform="scale(0.015625)"/>
      <path id="DejaVuSans-2c" d="M 750 794 
L 1409 794 
L 1409 256 
L 897 -744 
L 494 -744 
L 750 256 
L 750 794 
z
" transform="scale(0.015625)"/>
      <path id="DejaVuSans-29" d="M 513 4856 
L 1013 4856 
Q 1481 4119 1714 3412 
Q 1947 2706 1947 2009 
Q 1947 1309 1714 600 
Q 1481 -109 1013 -844 
L 513 -844 
Q 928 -128 1133 580 
Q 1338 1288 1338 2009 
Q 1338 2731 1133 3434 
Q 928 4138 513 4856 
z
" transform="scale(0.015625)"/>
     </defs>
     <use xlink:href="#DejaVuSans-43"/>
     <use xlink:href="#DejaVuSans-6f" x="69.824219"/>
     <use xlink:href="#DejaVuSans-6e" x="131.005859"/>
     <use xlink:href="#DejaVuSans-64" x="194.384766"/>
     <use xlink:href="#DejaVuSans-69" x="257.861328"/>
     <use xlink:href="#DejaVuSans-74" x="285.644531"/>
     <use xlink:href="#DejaVuSans-69" x="324.853516"/>
     <use xlink:href="#DejaVuSans-6f" x="352.636719"/>
     <use xlink:href="#DejaVuSans-6e" x="413.818359"/>
     <use xlink:href="#DejaVuSans-61" x="477.197266"/>
     <use xlink:href="#DejaVuSans-6c" x="538.476562"/>
     <use xlink:href="#DejaVuSans-20" x="566.259766"/>
     <use xlink:href="#DejaVuSans-68" x="598.046875"/>
     <use xlink:href="#DejaVuSans-69" x="661.425781"/>
     <use xlink:href="#DejaVuSans-73" x="689.208984"/>
     <use xlink:href="#DejaVuSans-74" x="741.308594"/>
     <use xlink:href="#DejaVuSans-6f" x="780.517578"/>
     <use xlink:href="#DejaVuSans-67" x="841.699219"/>
     <use xlink:href="#DejaVuSans-72" x="905.175781"/>
     <use xlink:href="#DejaVuSans-61" x="946.289062"/>
     <use xlink:href="#DejaVuSans-6d" x="1007.568359"/>
     <use xlink:href="#DejaVuSans-73" x="1104.980469"/>
     <use xlink:href="#DejaVuSans-20" x="1157.080078"/>
     <use xlink:href="#DejaVuSans-66" x="1188.867188"/>
     <use xlink:href="#DejaVuSans-6f" x="1224.072266"/>
     <use xlink:href="#DejaVuSans-72" x="1285.253906"/>
     <use xlink:href="#DejaVuSans-20" x="1326.367188"/>
     <use xlink:href="#DejaVuSans-45" x="1358.154297"/>
     <use xlink:href="#DejaVuSans-31" x="1421.337891"/>
     <use xlink:href="#DejaVuSans-20" x="1484.960938"/>
     <use xlink:href="#DejaVuSans-67" x="1516.748047"/>
     <use xlink:href="#DejaVuSans-69" x="1580.224609"/>
     <use xlink:href="#DejaVuSans-76" x="1608.007812"/>
     <use xlink:href="#DejaVuSans-65" x="1667.1875"/>
     <use xlink:href="#DejaVuSans-6e" x="1728.710938"/>
     <use xlink:href="#DejaVuSans-20" x="1792.089844"/>
     <use xlink:href="#DejaVuSans-45" x="1823.876953"/>
     <use xlink:href="#DejaVuSans-32" x="1887.060547"/>
     <use xlink:href="#DejaVuSans-20" x="1950.683594"/>
     <use xlink:href="#DejaVuSans-28" x="1982.470703"/>
     <use xlink:href="#DejaVuSans-63" x="2021.484375"/>
     <use xlink:href="#DejaVuSans-65" x="2076.464844"/>
     <use xlink:href="#DejaVuSans-6e" x="2137.988281"/>
     <use xlink:href="#DejaVuSans-74" x="2201.367188"/>
     <use xlink:href="#DejaVuSans-72" x="2240.576172"/>
     <use xlink:href="#DejaVuSans-69" x="2281.689453"/>
     <use xlink:href="#DejaVuSans-63" x="2309.472656"/>
     <use xlink:href="#DejaVuSans-2c" x="2364.453125"/>
     <use xlink:href="#DejaVuSans-20" x="2396.240234"/>
     <use xlink:href="#DejaVuSans-72" x="2428.027344"/>
     <use xlink:href="#DejaVuSans-65" x="2466.890625"/>
     <use xlink:href="#DejaVuSans-61" x="2528.414062"/>
     <use xlink:href="#DejaVuSans-6c" x="2589.693359"/>
     <use xlink:href="#DejaVuSans-20" x="2617.476562"/>
     <use xlink:href="#DejaVuSans-64" x="2649.263672"/>
     <use xlink:href="#DejaVuSans-61" x="2712.740234"/>
     <use xlink:href="#DejaVuSans-74" x="2774.019531"/>
     <use xlink:href="#DejaVuSans-61" x="2813.228516"/>
     <use xlink:href="#DejaVuSans-29" x="2874.507812"/>
    </g>
   </g>
  </g>
 </g>
 <defs>
  <clipPath id="p8fffad11fd">
   <rect x="144" y="34.56" width="262.588235" height="221.76"/>
  </clipPath>
  <clipPath id="pc8fe5601b3">
   <rect x="459.105882" y="34.56" width="262.588235" height="221.76"/>
  </clipPath>
  <clipPath id="p18110f17ce">
   <rect x="774.211765" y="34.56" width="262.588235" height="221.76"/>
  </clipPath>
 </defs>
</svg>
