<?xml version="1.0" encoding="utf-8" standalone="no"?>
<!DOCTYPE svg PUBLIC "-//W3C//DTD SVG 1.1//EN"
  "http://www.w3.org/Graphics/SVG/1.1/DTD/svg11.dtd">
<svg xmlns:xlink="http://www.w3.org/1999/xlink" width="1152pt" height="288pt" viewBox="0 0 1152 288" xmlns="http://www.w3.org/2000/svg" version="1.1">
 <metadata>
  <rdf:RDF xmlns:dc="http://purl.org/dc/elements/1.1/" xmlns:cc="http://creativecommons.org/ns#" xmlns:rdf="http://www.w3.org/1999/02/22-rdf-syntax-ns#">
   <cc:Work>
    <dc:type rdf:resource="http://purl.org/dc/dcmitype/StillImage"/>
    <dc:date>2024-02-22T10:50:09.182586</dc:date>
    <dc:format>image/svg+xml</dc:format>
    <dc:creator>
     <cc:Agent>
      <dc:title>Matplotlib v3.8.2, https://matplotlib.org/</dc:title>
     </cc:Agent>
    </dc:creator>
   </cc:Work>
  </rdf:RDF>
 </metadata>
 <defs>
  <style type="text/css">*{stroke-linejoin: round; stroke-linecap: butt}</style>
 </defs>
 <g id="figure_1">
  <g id="patch_1">
   <path d="M 0 288 
L 1152 288 
L 1152 0 
L 0 0 
z
" style="fill: #ffffff"/>
  </g>
  <g id="axes_1">
   <g id="patch_2">
    <path d="M 144 256.32 
L 406.588235 256.32 
L 406.588235 34.56 
L 144 34.56 
z
" style="fill: #ffffff"/>
   </g>
   <g id="patch_3">
    <path d="M 144.653995 256.32 
L 154.409138 256.32 
L 154.409138 113.092414 
L 144.653995 113.092414 
z
" clip-path="url(#pf11372a0a5)" style="fill: #1f77b4; opacity: 0.5"/>
   </g>
   <g id="patch_4">
    <path d="M 154.409138 256.32 
L 164.164281 256.32 
L 164.164281 47.304828 
L 154.409138 47.304828 
z
" clip-path="url(#pf11372a0a5)" style="fill: #1f77b4; opacity: 0.5"/>
   </g>
   <g id="patch_5">
    <path d="M 164.164281 256.32 
L 173.919423 256.32 
L 173.919423 45.12 
L 164.164281 45.12 
z
" clip-path="url(#pf11372a0a5)" style="fill: #1f77b4; opacity: 0.5"/>
   </g>
   <g id="patch_6">
    <path d="M 173.919423 256.32 
L 183.674566 256.32 
L 183.674566 62.355862 
L 173.919423 62.355862 
z
" clip-path="url(#pf11372a0a5)" style="fill: #1f77b4; opacity: 0.5"/>
   </g>
   <g id="patch_7">
    <path d="M 183.674566 256.32 
L 193.429709 256.32 
L 193.429709 103.382069 
L 183.674566 103.382069 
z
" clip-path="url(#pf11372a0a5)" style="fill: #1f77b4; opacity: 0.5"/>
   </g>
   <g id="patch_8">
    <path d="M 193.429709 256.32 
L 203.184852 256.32 
L 203.184852 128.628966 
L 193.429709 128.628966 
z
" clip-path="url(#pf11372a0a5)" style="fill: #1f77b4; opacity: 0.5"/>
   </g>
   <g id="patch_9">
    <path d="M 203.184852 256.32 
L 212.939994 256.32 
L 212.939994 149.506207 
L 203.184852 149.506207 
z
" clip-path="url(#pf11372a0a5)" style="fill: #1f77b4; opacity: 0.5"/>
   </g>
   <g id="patch_10">
    <path d="M 212.939994 256.32 
L 222.695137 256.32 
L 222.695137 171.84 
L 212.939994 171.84 
z
" clip-path="url(#pf11372a0a5)" style="fill: #1f77b4; opacity: 0.5"/>
   </g>
   <g id="patch_11">
    <path d="M 222.695137 256.32 
L 232.45028 256.32 
L 232.45028 196.115862 
L 222.695137 196.115862 
z
" clip-path="url(#pf11372a0a5)" style="fill: #1f77b4; opacity: 0.5"/>
   </g>
   <g id="patch_12">
    <path d="M 232.45028 256.32 
L 242.205422 256.32 
L 242.205422 213.108966 
L 232.45028 213.108966 
z
" clip-path="url(#pf11372a0a5)" style="fill: #1f77b4; opacity: 0.5"/>
   </g>
   <g id="patch_13">
    <path d="M 242.205422 256.32 
L 251.960565 256.32 
L 251.960565 225.489655 
L 242.205422 225.489655 
z
" clip-path="url(#pf11372a0a5)" style="fill: #1f77b4; opacity: 0.5"/>
   </g>
   <g id="patch_14">
    <path d="M 251.960565 256.32 
L 261.715708 256.32 
L 261.715708 235.685517 
L 251.960565 235.685517 
z
" clip-path="url(#pf11372a0a5)" style="fill: #1f77b4; opacity: 0.5"/>
   </g>
   <g id="patch_15">
    <path d="M 261.715708 256.32 
L 271.470851 256.32 
L 271.470851 245.153103 
L 261.715708 245.153103 
z
" clip-path="url(#pf11372a0a5)" style="fill: #1f77b4; opacity: 0.5"/>
   </g>
   <g id="patch_16">
    <path d="M 271.470851 256.32 
L 281.225993 256.32 
L 281.225993 246.366897 
L 271.470851 246.366897 
z
" clip-path="url(#pf11372a0a5)" style="fill: #1f77b4; opacity: 0.5"/>
   </g>
   <g id="patch_17">
    <path d="M 281.225993 256.32 
L 290.981136 256.32 
L 290.981136 249.522759 
L 281.225993 249.522759 
z
" clip-path="url(#pf11372a0a5)" style="fill: #1f77b4; opacity: 0.5"/>
   </g>
   <g id="patch_18">
    <path d="M 290.981136 256.32 
L 300.736279 256.32 
L 300.736279 253.406897 
L 290.981136 253.406897 
z
" clip-path="url(#pf11372a0a5)" style="fill: #1f77b4; opacity: 0.5"/>
   </g>
   <g id="patch_19">
    <path d="M 300.736279 256.32 
L 310.491421 256.32 
L 310.491421 254.863448 
L 300.736279 254.863448 
z
" clip-path="url(#pf11372a0a5)" style="fill: #1f77b4; opacity: 0.5"/>
   </g>
   <g id="patch_20">
    <path d="M 310.491421 256.32 
L 320.246564 256.32 
L 320.246564 254.863448 
L 310.491421 254.863448 
z
" clip-path="url(#pf11372a0a5)" style="fill: #1f77b4; opacity: 0.5"/>
   </g>
   <g id="patch_21">
    <path d="M 320.246564 256.32 
L 330.001707 256.32 
L 330.001707 255.591724 
L 320.246564 255.591724 
z
" clip-path="url(#pf11372a0a5)" style="fill: #1f77b4; opacity: 0.5"/>
   </g>
   <g id="patch_22">
    <path d="M 330.001707 256.32 
L 339.75685 256.32 
L 339.75685 255.591724 
L 330.001707 255.591724 
z
" clip-path="url(#pf11372a0a5)" style="fill: #1f77b4; opacity: 0.5"/>
   </g>
   <g id="matplotlib.axis_1">
    <g id="xtick_1">
     <g id="line2d_1">
      <defs>
       <path id="m2ba0ec3017" d="M 0 0 
L 0 3.5 
" style="stroke: #000000; stroke-width: 0.8"/>
      </defs>
      <g>
       <use xlink:href="#m2ba0ec3017" x="144" y="256.32" style="stroke: #000000; stroke-width: 0.8"/>
      </g>
     </g>
     <g id="text_1">
      <!-- 0 -->
      <g transform="translate(140.81875 270.918437) scale(0.1 -0.1)">
       <defs>
        <path id="DejaVuSans-30" d="M 2034 4250 
Q 1547 4250 1301 3770 
Q 1056 3291 1056 2328 
Q 1056 1369 1301 889 
Q 1547 409 2034 409 
Q 2525 409 2770 889 
Q 3016 1369 3016 2328 
Q 3016 3291 2770 3770 
Q 2525 4250 2034 4250 
z
M 2034 4750 
Q 2819 4750 3233 4129 
Q 3647 3509 3647 2328 
Q 3647 1150 3233 529 
Q 2819 -91 2034 -91 
Q 1250 -91 836 529 
Q 422 1150 422 2328 
Q 422 3509 836 4129 
Q 1250 4750 2034 4750 
z
" transform="scale(0.015625)"/>
       </defs>
       <use xlink:href="#DejaVuSans-30"/>
      </g>
     </g>
    </g>
    <g id="xtick_2">
     <g id="line2d_2">
      <g>
       <use xlink:href="#m2ba0ec3017" x="196.517647" y="256.32" style="stroke: #000000; stroke-width: 0.8"/>
      </g>
     </g>
     <g id="text_2">
      <!-- 1 -->
      <g transform="translate(193.336397 270.918437) scale(0.1 -0.1)">
       <defs>
        <path id="DejaVuSans-31" d="M 794 531 
L 1825 531 
L 1825 4091 
L 703 3866 
L 703 4441 
L 1819 4666 
L 2450 4666 
L 2450 531 
L 3481 531 
L 3481 0 
L 794 0 
L 794 531 
z
" transform="scale(0.015625)"/>
       </defs>
       <use xlink:href="#DejaVuSans-31"/>
      </g>
     </g>
    </g>
    <g id="xtick_3">
     <g id="line2d_3">
      <g>
       <use xlink:href="#m2ba0ec3017" x="249.035294" y="256.32" style="stroke: #000000; stroke-width: 0.8"/>
      </g>
     </g>
     <g id="text_3">
      <!-- 2 -->
      <g transform="translate(245.854044 270.918437) scale(0.1 -0.1)">
       <defs>
        <path id="DejaVuSans-32" d="M 1228 531 
L 3431 531 
L 3431 0 
L 469 0 
L 469 531 
Q 828 903 1448 1529 
Q 2069 2156 2228 2338 
Q 2531 2678 2651 2914 
Q 2772 3150 2772 3378 
Q 2772 3750 2511 3984 
Q 2250 4219 1831 4219 
Q 1534 4219 1204 4116 
Q 875 4013 500 3803 
L 500 4441 
Q 881 4594 1212 4672 
Q 1544 4750 1819 4750 
Q 2544 4750 2975 4387 
Q 3406 4025 3406 3419 
Q 3406 3131 3298 2873 
Q 3191 2616 2906 2266 
Q 2828 2175 2409 1742 
Q 1991 1309 1228 531 
z
" transform="scale(0.015625)"/>
       </defs>
       <use xlink:href="#DejaVuSans-32"/>
      </g>
     </g>
    </g>
    <g id="xtick_4">
     <g id="line2d_4">
      <g>
       <use xlink:href="#m2ba0ec3017" x="301.552941" y="256.32" style="stroke: #000000; stroke-width: 0.8"/>
      </g>
     </g>
     <g id="text_4">
      <!-- 3 -->
      <g transform="translate(298.371691 270.918437) scale(0.1 -0.1)">
       <defs>
        <path id="DejaVuSans-33" d="M 2597 2516 
Q 3050 2419 3304 2112 
Q 3559 1806 3559 1356 
Q 3559 666 3084 287 
Q 2609 -91 1734 -91 
Q 1441 -91 1130 -33 
Q 819 25 488 141 
L 488 750 
Q 750 597 1062 519 
Q 1375 441 1716 441 
Q 2309 441 2620 675 
Q 2931 909 2931 1356 
Q 2931 1769 2642 2001 
Q 2353 2234 1838 2234 
L 1294 2234 
L 1294 2753 
L 1863 2753 
Q 2328 2753 2575 2939 
Q 2822 3125 2822 3475 
Q 2822 3834 2567 4026 
Q 2313 4219 1838 4219 
Q 1578 4219 1281 4162 
Q 984 4106 628 3988 
L 628 4550 
Q 988 4650 1302 4700 
Q 1616 4750 1894 4750 
Q 2613 4750 3031 4423 
Q 3450 4097 3450 3541 
Q 3450 3153 3228 2886 
Q 3006 2619 2597 2516 
z
" transform="scale(0.015625)"/>
       </defs>
       <use xlink:href="#DejaVuSans-33"/>
      </g>
     </g>
    </g>
    <g id="xtick_5">
     <g id="line2d_5">
      <g>
       <use xlink:href="#m2ba0ec3017" x="354.070588" y="256.32" style="stroke: #000000; stroke-width: 0.8"/>
      </g>
     </g>
     <g id="text_5">
      <!-- 4 -->
      <g transform="translate(350.889338 270.918437) scale(0.1 -0.1)">
       <defs>
        <path id="DejaVuSans-34" d="M 2419 4116 
L 825 1625 
L 2419 1625 
L 2419 4116 
z
M 2253 4666 
L 3047 4666 
L 3047 1625 
L 3713 1625 
L 3713 1100 
L 3047 1100 
L 3047 0 
L 2419 0 
L 2419 1100 
L 313 1100 
L 313 1709 
L 2253 4666 
z
" transform="scale(0.015625)"/>
       </defs>
       <use xlink:href="#DejaVuSans-34"/>
      </g>
     </g>
    </g>
    <g id="xtick_6">
     <g id="line2d_6">
      <g>
       <use xlink:href="#m2ba0ec3017" x="406.588235" y="256.32" style="stroke: #000000; stroke-width: 0.8"/>
      </g>
     </g>
     <g id="text_6">
      <!-- 5 -->
      <g transform="translate(403.406985 270.918437) scale(0.1 -0.1)">
       <defs>
        <path id="DejaVuSans-35" d="M 691 4666 
L 3169 4666 
L 3169 4134 
L 1269 4134 
L 1269 2991 
Q 1406 3038 1543 3061 
Q 1681 3084 1819 3084 
Q 2600 3084 3056 2656 
Q 3513 2228 3513 1497 
Q 3513 744 3044 326 
Q 2575 -91 1722 -91 
Q 1428 -91 1123 -41 
Q 819 9 494 109 
L 494 744 
Q 775 591 1075 516 
Q 1375 441 1709 441 
Q 2250 441 2565 725 
Q 2881 1009 2881 1497 
Q 2881 1984 2565 2268 
Q 2250 2553 1709 2553 
Q 1456 2553 1204 2497 
Q 953 2441 691 2322 
L 691 4666 
z
" transform="scale(0.015625)"/>
       </defs>
       <use xlink:href="#DejaVuSans-35"/>
      </g>
     </g>
    </g>
    <g id="text_7">
     <!-- Normalized sf amplitude -->
     <g transform="translate(214.129274 284.596563) scale(0.1 -0.1)">
      <defs>
       <path id="DejaVuSans-4e" d="M 628 4666 
L 1478 4666 
L 3547 763 
L 3547 4666 
L 4159 4666 
L 4159 0 
L 3309 0 
L 1241 3903 
L 1241 0 
L 628 0 
L 628 4666 
z
" transform="scale(0.015625)"/>
       <path id="DejaVuSans-6f" d="M 1959 3097 
Q 1497 3097 1228 2736 
Q 959 2375 959 1747 
Q 959 1119 1226 758 
Q 1494 397 1959 397 
Q 2419 397 2687 759 
Q 2956 1122 2956 1747 
Q 2956 2369 2687 2733 
Q 2419 3097 1959 3097 
z
M 1959 3584 
Q 2709 3584 3137 3096 
Q 3566 2609 3566 1747 
Q 3566 888 3137 398 
Q 2709 -91 1959 -91 
Q 1206 -91 779 398 
Q 353 888 353 1747 
Q 353 2609 779 3096 
Q 1206 3584 1959 3584 
z
" transform="scale(0.015625)"/>
       <path id="DejaVuSans-72" d="M 2631 2963 
Q 2534 3019 2420 3045 
Q 2306 3072 2169 3072 
Q 1681 3072 1420 2755 
Q 1159 2438 1159 1844 
L 1159 0 
L 581 0 
L 581 3500 
L 1159 3500 
L 1159 2956 
Q 1341 3275 1631 3429 
Q 1922 3584 2338 3584 
Q 2397 3584 2469 3576 
Q 2541 3569 2628 3553 
L 2631 2963 
z
" transform="scale(0.015625)"/>
       <path id="DejaVuSans-6d" d="M 3328 2828 
Q 3544 3216 3844 3400 
Q 4144 3584 4550 3584 
Q 5097 3584 5394 3201 
Q 5691 2819 5691 2113 
L 5691 0 
L 5113 0 
L 5113 2094 
Q 5113 2597 4934 2840 
Q 4756 3084 4391 3084 
Q 3944 3084 3684 2787 
Q 3425 2491 3425 1978 
L 3425 0 
L 2847 0 
L 2847 2094 
Q 2847 2600 2669 2842 
Q 2491 3084 2119 3084 
Q 1678 3084 1418 2786 
Q 1159 2488 1159 1978 
L 1159 0 
L 581 0 
L 581 3500 
L 1159 3500 
L 1159 2956 
Q 1356 3278 1631 3431 
Q 1906 3584 2284 3584 
Q 2666 3584 2933 3390 
Q 3200 3197 3328 2828 
z
" transform="scale(0.015625)"/>
       <path id="DejaVuSans-61" d="M 2194 1759 
Q 1497 1759 1228 1600 
Q 959 1441 959 1056 
Q 959 750 1161 570 
Q 1363 391 1709 391 
Q 2188 391 2477 730 
Q 2766 1069 2766 1631 
L 2766 1759 
L 2194 1759 
z
M 3341 1997 
L 3341 0 
L 2766 0 
L 2766 531 
Q 2569 213 2275 61 
Q 1981 -91 1556 -91 
Q 1019 -91 701 211 
Q 384 513 384 1019 
Q 384 1609 779 1909 
Q 1175 2209 1959 2209 
L 2766 2209 
L 2766 2266 
Q 2766 2663 2505 2880 
Q 2244 3097 1772 3097 
Q 1472 3097 1187 3025 
Q 903 2953 641 2809 
L 641 3341 
Q 956 3463 1253 3523 
Q 1550 3584 1831 3584 
Q 2591 3584 2966 3190 
Q 3341 2797 3341 1997 
z
" transform="scale(0.015625)"/>
       <path id="DejaVuSans-6c" d="M 603 4863 
L 1178 4863 
L 1178 0 
L 603 0 
L 603 4863 
z
" transform="scale(0.015625)"/>
       <path id="DejaVuSans-69" d="M 603 3500 
L 1178 3500 
L 1178 0 
L 603 0 
L 603 3500 
z
M 603 4863 
L 1178 4863 
L 1178 4134 
L 603 4134 
L 603 4863 
z
" transform="scale(0.015625)"/>
       <path id="DejaVuSans-7a" d="M 353 3500 
L 3084 3500 
L 3084 2975 
L 922 459 
L 3084 459 
L 3084 0 
L 275 0 
L 275 525 
L 2438 3041 
L 353 3041 
L 353 3500 
z
" transform="scale(0.015625)"/>
       <path id="DejaVuSans-65" d="M 3597 1894 
L 3597 1613 
L 953 1613 
Q 991 1019 1311 708 
Q 1631 397 2203 397 
Q 2534 397 2845 478 
Q 3156 559 3463 722 
L 3463 178 
Q 3153 47 2828 -22 
Q 2503 -91 2169 -91 
Q 1331 -91 842 396 
Q 353 884 353 1716 
Q 353 2575 817 3079 
Q 1281 3584 2069 3584 
Q 2775 3584 3186 3129 
Q 3597 2675 3597 1894 
z
M 3022 2063 
Q 3016 2534 2758 2815 
Q 2500 3097 2075 3097 
Q 1594 3097 1305 2825 
Q 1016 2553 972 2059 
L 3022 2063 
z
" transform="scale(0.015625)"/>
       <path id="DejaVuSans-64" d="M 2906 2969 
L 2906 4863 
L 3481 4863 
L 3481 0 
L 2906 0 
L 2906 525 
Q 2725 213 2448 61 
Q 2172 -91 1784 -91 
Q 1150 -91 751 415 
Q 353 922 353 1747 
Q 353 2572 751 3078 
Q 1150 3584 1784 3584 
Q 2172 3584 2448 3432 
Q 2725 3281 2906 2969 
z
M 947 1747 
Q 947 1113 1208 752 
Q 1469 391 1925 391 
Q 2381 391 2643 752 
Q 2906 1113 2906 1747 
Q 2906 2381 2643 2742 
Q 2381 3103 1925 3103 
Q 1469 3103 1208 2742 
Q 947 2381 947 1747 
z
" transform="scale(0.015625)"/>
       <path id="DejaVuSans-20" transform="scale(0.015625)"/>
       <path id="DejaVuSans-73" d="M 2834 3397 
L 2834 2853 
Q 2591 2978 2328 3040 
Q 2066 3103 1784 3103 
Q 1356 3103 1142 2972 
Q 928 2841 928 2578 
Q 928 2378 1081 2264 
Q 1234 2150 1697 2047 
L 1894 2003 
Q 2506 1872 2764 1633 
Q 3022 1394 3022 966 
Q 3022 478 2636 193 
Q 2250 -91 1575 -91 
Q 1294 -91 989 -36 
Q 684 19 347 128 
L 347 722 
Q 666 556 975 473 
Q 1284 391 1588 391 
Q 1994 391 2212 530 
Q 2431 669 2431 922 
Q 2431 1156 2273 1281 
Q 2116 1406 1581 1522 
L 1381 1569 
Q 847 1681 609 1914 
Q 372 2147 372 2553 
Q 372 3047 722 3315 
Q 1072 3584 1716 3584 
Q 2034 3584 2315 3537 
Q 2597 3491 2834 3397 
z
" transform="scale(0.015625)"/>
       <path id="DejaVuSans-66" d="M 2375 4863 
L 2375 4384 
L 1825 4384 
Q 1516 4384 1395 4259 
Q 1275 4134 1275 3809 
L 1275 3500 
L 2222 3500 
L 2222 3053 
L 1275 3053 
L 1275 0 
L 697 0 
L 697 3053 
L 147 3053 
L 147 3500 
L 697 3500 
L 697 3744 
Q 697 4328 969 4595 
Q 1241 4863 1831 4863 
L 2375 4863 
z
" transform="scale(0.015625)"/>
       <path id="DejaVuSans-70" d="M 1159 525 
L 1159 -1331 
L 581 -1331 
L 581 3500 
L 1159 3500 
L 1159 2969 
Q 1341 3281 1617 3432 
Q 1894 3584 2278 3584 
Q 2916 3584 3314 3078 
Q 3713 2572 3713 1747 
Q 3713 922 3314 415 
Q 2916 -91 2278 -91 
Q 1894 -91 1617 61 
Q 1341 213 1159 525 
z
M 3116 1747 
Q 3116 2381 2855 2742 
Q 2594 3103 2138 3103 
Q 1681 3103 1420 2742 
Q 1159 2381 1159 1747 
Q 1159 1113 1420 752 
Q 1681 391 2138 391 
Q 2594 391 2855 752 
Q 3116 1113 3116 1747 
z
" transform="scale(0.015625)"/>
       <path id="DejaVuSans-74" d="M 1172 4494 
L 1172 3500 
L 2356 3500 
L 2356 3053 
L 1172 3053 
L 1172 1153 
Q 1172 725 1289 603 
Q 1406 481 1766 481 
L 2356 481 
L 2356 0 
L 1766 0 
Q 1100 0 847 248 
Q 594 497 594 1153 
L 594 3053 
L 172 3053 
L 172 3500 
L 594 3500 
L 594 4494 
L 1172 4494 
z
" transform="scale(0.015625)"/>
       <path id="DejaVuSans-75" d="M 544 1381 
L 544 3500 
L 1119 3500 
L 1119 1403 
Q 1119 906 1312 657 
Q 1506 409 1894 409 
Q 2359 409 2629 706 
Q 2900 1003 2900 1516 
L 2900 3500 
L 3475 3500 
L 3475 0 
L 2900 0 
L 2900 538 
Q 2691 219 2414 64 
Q 2138 -91 1772 -91 
Q 1169 -91 856 284 
Q 544 659 544 1381 
z
M 1991 3584 
L 1991 3584 
z
" transform="scale(0.015625)"/>
      </defs>
      <use xlink:href="#DejaVuSans-4e"/>
      <use xlink:href="#DejaVuSans-6f" x="74.804688"/>
      <use xlink:href="#DejaVuSans-72" x="135.986328"/>
      <use xlink:href="#DejaVuSans-6d" x="175.349609"/>
      <use xlink:href="#DejaVuSans-61" x="272.761719"/>
      <use xlink:href="#DejaVuSans-6c" x="334.041016"/>
      <use xlink:href="#DejaVuSans-69" x="361.824219"/>
      <use xlink:href="#DejaVuSans-7a" x="389.607422"/>
      <use xlink:href="#DejaVuSans-65" x="442.097656"/>
      <use xlink:href="#DejaVuSans-64" x="503.621094"/>
      <use xlink:href="#DejaVuSans-20" x="567.097656"/>
      <use xlink:href="#DejaVuSans-73" x="598.884766"/>
      <use xlink:href="#DejaVuSans-66" x="650.984375"/>
      <use xlink:href="#DejaVuSans-20" x="686.189453"/>
      <use xlink:href="#DejaVuSans-61" x="717.976562"/>
      <use xlink:href="#DejaVuSans-6d" x="779.255859"/>
      <use xlink:href="#DejaVuSans-70" x="876.667969"/>
      <use xlink:href="#DejaVuSans-6c" x="940.144531"/>
      <use xlink:href="#DejaVuSans-69" x="967.927734"/>
      <use xlink:href="#DejaVuSans-74" x="995.710938"/>
      <use xlink:href="#DejaVuSans-75" x="1034.919922"/>
      <use xlink:href="#DejaVuSans-64" x="1098.298828"/>
      <use xlink:href="#DejaVuSans-65" x="1161.775391"/>
     </g>
    </g>
   </g>
   <g id="matplotlib.axis_2">
    <g id="ytick_1">
     <g id="line2d_7">
      <defs>
       <path id="m4c14022766" d="M 0 0 
L -3.5 0 
" style="stroke: #000000; stroke-width: 0.8"/>
      </defs>
      <g>
       <use xlink:href="#m4c14022766" x="144" y="256.32" style="stroke: #000000; stroke-width: 0.8"/>
      </g>
     </g>
     <g id="text_8">
      <!-- 0.0 -->
      <g transform="translate(121.096875 260.119219) scale(0.1 -0.1)">
       <defs>
        <path id="DejaVuSans-2e" d="M 684 794 
L 1344 794 
L 1344 0 
L 684 0 
L 684 794 
z
" transform="scale(0.015625)"/>
       </defs>
       <use xlink:href="#DejaVuSans-30"/>
       <use xlink:href="#DejaVuSans-2e" x="63.623047"/>
       <use xlink:href="#DejaVuSans-30" x="95.410156"/>
      </g>
     </g>
    </g>
    <g id="ytick_2">
     <g id="line2d_8">
      <g>
       <use xlink:href="#m4c14022766" x="144" y="229.954493" style="stroke: #000000; stroke-width: 0.8"/>
      </g>
     </g>
     <g id="text_9">
      <!-- 0.1 -->
      <g transform="translate(121.096875 233.753712) scale(0.1 -0.1)">
       <use xlink:href="#DejaVuSans-30"/>
       <use xlink:href="#DejaVuSans-2e" x="63.623047"/>
       <use xlink:href="#DejaVuSans-31" x="95.410156"/>
      </g>
     </g>
    </g>
    <g id="ytick_3">
     <g id="line2d_9">
      <g>
       <use xlink:href="#m4c14022766" x="144" y="203.588987" style="stroke: #000000; stroke-width: 0.8"/>
      </g>
     </g>
     <g id="text_10">
      <!-- 0.2 -->
      <g transform="translate(121.096875 207.388205) scale(0.1 -0.1)">
       <use xlink:href="#DejaVuSans-30"/>
       <use xlink:href="#DejaVuSans-2e" x="63.623047"/>
       <use xlink:href="#DejaVuSans-32" x="95.410156"/>
      </g>
     </g>
    </g>
    <g id="ytick_4">
     <g id="line2d_10">
      <g>
       <use xlink:href="#m4c14022766" x="144" y="177.22348" style="stroke: #000000; stroke-width: 0.8"/>
      </g>
     </g>
     <g id="text_11">
      <!-- 0.3 -->
      <g transform="translate(121.096875 181.022699) scale(0.1 -0.1)">
       <use xlink:href="#DejaVuSans-30"/>
       <use xlink:href="#DejaVuSans-2e" x="63.623047"/>
       <use xlink:href="#DejaVuSans-33" x="95.410156"/>
      </g>
     </g>
    </g>
    <g id="ytick_5">
     <g id="line2d_11">
      <g>
       <use xlink:href="#m4c14022766" x="144" y="150.857973" style="stroke: #000000; stroke-width: 0.8"/>
      </g>
     </g>
     <g id="text_12">
      <!-- 0.4 -->
      <g transform="translate(121.096875 154.657192) scale(0.1 -0.1)">
       <use xlink:href="#DejaVuSans-30"/>
       <use xlink:href="#DejaVuSans-2e" x="63.623047"/>
       <use xlink:href="#DejaVuSans-34" x="95.410156"/>
      </g>
     </g>
    </g>
    <g id="ytick_6">
     <g id="line2d_12">
      <g>
       <use xlink:href="#m4c14022766" x="144" y="124.492467" style="stroke: #000000; stroke-width: 0.8"/>
      </g>
     </g>
     <g id="text_13">
      <!-- 0.5 -->
      <g transform="translate(121.096875 128.291685) scale(0.1 -0.1)">
       <use xlink:href="#DejaVuSans-30"/>
       <use xlink:href="#DejaVuSans-2e" x="63.623047"/>
       <use xlink:href="#DejaVuSans-35" x="95.410156"/>
      </g>
     </g>
    </g>
    <g id="ytick_7">
     <g id="line2d_13">
      <g>
       <use xlink:href="#m4c14022766" x="144" y="98.12696" style="stroke: #000000; stroke-width: 0.8"/>
      </g>
     </g>
     <g id="text_14">
      <!-- 0.6 -->
      <g transform="translate(121.096875 101.926179) scale(0.1 -0.1)">
       <defs>
        <path id="DejaVuSans-36" d="M 2113 2584 
Q 1688 2584 1439 2293 
Q 1191 2003 1191 1497 
Q 1191 994 1439 701 
Q 1688 409 2113 409 
Q 2538 409 2786 701 
Q 3034 994 3034 1497 
Q 3034 2003 2786 2293 
Q 2538 2584 2113 2584 
z
M 3366 4563 
L 3366 3988 
Q 3128 4100 2886 4159 
Q 2644 4219 2406 4219 
Q 1781 4219 1451 3797 
Q 1122 3375 1075 2522 
Q 1259 2794 1537 2939 
Q 1816 3084 2150 3084 
Q 2853 3084 3261 2657 
Q 3669 2231 3669 1497 
Q 3669 778 3244 343 
Q 2819 -91 2113 -91 
Q 1303 -91 875 529 
Q 447 1150 447 2328 
Q 447 3434 972 4092 
Q 1497 4750 2381 4750 
Q 2619 4750 2861 4703 
Q 3103 4656 3366 4563 
z
" transform="scale(0.015625)"/>
       </defs>
       <use xlink:href="#DejaVuSans-30"/>
       <use xlink:href="#DejaVuSans-2e" x="63.623047"/>
       <use xlink:href="#DejaVuSans-36" x="95.410156"/>
      </g>
     </g>
    </g>
    <g id="ytick_8">
     <g id="line2d_14">
      <g>
       <use xlink:href="#m4c14022766" x="144" y="71.761453" style="stroke: #000000; stroke-width: 0.8"/>
      </g>
     </g>
     <g id="text_15">
      <!-- 0.7 -->
      <g transform="translate(121.096875 75.560672) scale(0.1 -0.1)">
       <defs>
        <path id="DejaVuSans-37" d="M 525 4666 
L 3525 4666 
L 3525 4397 
L 1831 0 
L 1172 0 
L 2766 4134 
L 525 4134 
L 525 4666 
z
" transform="scale(0.015625)"/>
       </defs>
       <use xlink:href="#DejaVuSans-30"/>
       <use xlink:href="#DejaVuSans-2e" x="63.623047"/>
       <use xlink:href="#DejaVuSans-37" x="95.410156"/>
      </g>
     </g>
    </g>
    <g id="ytick_9">
     <g id="line2d_15">
      <g>
       <use xlink:href="#m4c14022766" x="144" y="45.395946" style="stroke: #000000; stroke-width: 0.8"/>
      </g>
     </g>
     <g id="text_16">
      <!-- 0.8 -->
      <g transform="translate(121.096875 49.195165) scale(0.1 -0.1)">
       <defs>
        <path id="DejaVuSans-38" d="M 2034 2216 
Q 1584 2216 1326 1975 
Q 1069 1734 1069 1313 
Q 1069 891 1326 650 
Q 1584 409 2034 409 
Q 2484 409 2743 651 
Q 3003 894 3003 1313 
Q 3003 1734 2745 1975 
Q 2488 2216 2034 2216 
z
M 1403 2484 
Q 997 2584 770 2862 
Q 544 3141 544 3541 
Q 544 4100 942 4425 
Q 1341 4750 2034 4750 
Q 2731 4750 3128 4425 
Q 3525 4100 3525 3541 
Q 3525 3141 3298 2862 
Q 3072 2584 2669 2484 
Q 3125 2378 3379 2068 
Q 3634 1759 3634 1313 
Q 3634 634 3220 271 
Q 2806 -91 2034 -91 
Q 1263 -91 848 271 
Q 434 634 434 1313 
Q 434 1759 690 2068 
Q 947 2378 1403 2484 
z
M 1172 3481 
Q 1172 3119 1398 2916 
Q 1625 2713 2034 2713 
Q 2441 2713 2670 2916 
Q 2900 3119 2900 3481 
Q 2900 3844 2670 4047 
Q 2441 4250 2034 4250 
Q 1625 4250 1398 4047 
Q 1172 3844 1172 3481 
z
" transform="scale(0.015625)"/>
       </defs>
       <use xlink:href="#DejaVuSans-30"/>
       <use xlink:href="#DejaVuSans-2e" x="63.623047"/>
       <use xlink:href="#DejaVuSans-38" x="95.410156"/>
      </g>
     </g>
    </g>
    <g id="text_17">
     <!-- count -->
     <g transform="translate(115.017187 159.54625) rotate(-90) scale(0.1 -0.1)">
      <defs>
       <path id="DejaVuSans-63" d="M 3122 3366 
L 3122 2828 
Q 2878 2963 2633 3030 
Q 2388 3097 2138 3097 
Q 1578 3097 1268 2742 
Q 959 2388 959 1747 
Q 959 1106 1268 751 
Q 1578 397 2138 397 
Q 2388 397 2633 464 
Q 2878 531 3122 666 
L 3122 134 
Q 2881 22 2623 -34 
Q 2366 -91 2075 -91 
Q 1284 -91 818 406 
Q 353 903 353 1747 
Q 353 2603 823 3093 
Q 1294 3584 2113 3584 
Q 2378 3584 2631 3529 
Q 2884 3475 3122 3366 
z
" transform="scale(0.015625)"/>
       <path id="DejaVuSans-6e" d="M 3513 2113 
L 3513 0 
L 2938 0 
L 2938 2094 
Q 2938 2591 2744 2837 
Q 2550 3084 2163 3084 
Q 1697 3084 1428 2787 
Q 1159 2491 1159 1978 
L 1159 0 
L 581 0 
L 581 3500 
L 1159 3500 
L 1159 2956 
Q 1366 3272 1645 3428 
Q 1925 3584 2291 3584 
Q 2894 3584 3203 3211 
Q 3513 2838 3513 2113 
z
" transform="scale(0.015625)"/>
      </defs>
      <use xlink:href="#DejaVuSans-63"/>
      <use xlink:href="#DejaVuSans-6f" x="54.980469"/>
      <use xlink:href="#DejaVuSans-75" x="116.162109"/>
      <use xlink:href="#DejaVuSans-6e" x="179.541016"/>
      <use xlink:href="#DejaVuSans-74" x="242.919922"/>
     </g>
    </g>
   </g>
   <g id="line2d_16">
    <path d="M 144 45.953693 
L 145.683933 46.061805 
L 147.367865 46.385807 
L 149.051798 46.924702 
L 150.73573 47.676832 
L 152.419663 48.639887 
L 154.524579 50.13577 
L 156.629494 51.949446 
L 158.73441 54.072325 
L 160.839326 56.494414 
L 163.365225 59.779863 
L 165.891123 63.457948 
L 168.417022 67.504482 
L 171.363904 72.656018 
L 174.731769 79.056351 
L 178.099635 85.935781 
L 181.888483 94.155636 
L 186.519297 104.740737 
L 192.834045 119.791855 
L 207.989438 156.18131 
L 213.462219 168.59955 
L 218.093033 178.558887 
L 222.302865 187.096755 
L 226.091713 194.317885 
L 229.880561 201.074026 
L 233.669409 207.349522 
L 237.037275 212.518508 
L 240.40514 217.302678 
L 243.773005 221.70694 
L 247.14087 225.740067 
L 250.508735 229.414128 
L 253.8766 232.743921 
L 257.244465 235.746409 
L 260.612331 238.440202 
L 263.980196 240.845055 
L 267.348061 242.98142 
L 270.715926 244.870037 
L 274.504774 246.724324 
L 278.293623 248.320062 
L 282.082471 249.685056 
L 286.292302 250.963155 
L 290.923117 252.117915 
L 295.974915 253.124169 
L 301.447695 253.968954 
L 307.341459 254.651183 
L 314.07719 255.209307 
L 322.075869 255.649579 
L 332.179465 255.977228 
L 346.071909 256.191719 
L 354.070588 256.24943 
L 354.070588 256.24943 
" clip-path="url(#pf11372a0a5)" style="fill: none; stroke: #ff0000; stroke-width: 1.5; stroke-linecap: square"/>
   </g>
   <g id="patch_23">
    <path d="M 144 256.32 
L 144 34.56 
" style="fill: none; stroke: #000000; stroke-width: 0.8; stroke-linejoin: miter; stroke-linecap: square"/>
   </g>
   <g id="patch_24">
    <path d="M 406.588235 256.32 
L 406.588235 34.56 
" style="fill: none; stroke: #000000; stroke-width: 0.8; stroke-linejoin: miter; stroke-linecap: square"/>
   </g>
   <g id="patch_25">
    <path d="M 144 256.32 
L 406.588235 256.32 
" style="fill: none; stroke: #000000; stroke-width: 0.8; stroke-linejoin: miter; stroke-linecap: square"/>
   </g>
   <g id="patch_26">
    <path d="M 144 34.56 
L 406.588235 34.56 
" style="fill: none; stroke: #000000; stroke-width: 0.8; stroke-linejoin: miter; stroke-linecap: square"/>
   </g>
   <g id="text_18">
    <!-- Centric -->
    <g transform="translate(253.825368 28.56) scale(0.12 -0.12)">
     <defs>
      <path id="DejaVuSans-43" d="M 4122 4306 
L 4122 3641 
Q 3803 3938 3442 4084 
Q 3081 4231 2675 4231 
Q 1875 4231 1450 3742 
Q 1025 3253 1025 2328 
Q 1025 1406 1450 917 
Q 1875 428 2675 428 
Q 3081 428 3442 575 
Q 3803 722 4122 1019 
L 4122 359 
Q 3791 134 3420 21 
Q 3050 -91 2638 -91 
Q 1578 -91 968 557 
Q 359 1206 359 2328 
Q 359 3453 968 4101 
Q 1578 4750 2638 4750 
Q 3056 4750 3426 4639 
Q 3797 4528 4122 4306 
z
" transform="scale(0.015625)"/>
     </defs>
     <use xlink:href="#DejaVuSans-43"/>
     <use xlink:href="#DejaVuSans-65" x="69.824219"/>
     <use xlink:href="#DejaVuSans-6e" x="131.347656"/>
     <use xlink:href="#DejaVuSans-74" x="194.726562"/>
     <use xlink:href="#DejaVuSans-72" x="233.935547"/>
     <use xlink:href="#DejaVuSans-69" x="275.048828"/>
     <use xlink:href="#DejaVuSans-63" x="302.832031"/>
    </g>
   </g>
  </g>
  <g id="axes_2">
   <g id="patch_27">
    <path d="M 459.105882 256.32 
L 721.694118 256.32 
L 721.694118 34.56 
L 459.105882 34.56 
z
" style="fill: #ffffff"/>
   </g>
   <g id="patch_28">
    <path d="M 460.332833 256.32 
L 464.646593 256.32 
L 464.646593 242.679624 
L 460.332833 242.679624 
z
" clip-path="url(#p3b0664542b)" style="fill: #1f77b4; opacity: 0.5"/>
   </g>
   <g id="patch_29">
    <path d="M 464.646593 256.32 
L 468.960353 256.32 
L 468.960353 205.733174 
L 464.646593 205.733174 
z
" clip-path="url(#p3b0664542b)" style="fill: #1f77b4; opacity: 0.5"/>
   </g>
   <g id="patch_30">
    <path d="M 468.960353 256.32 
L 473.274113 256.32 
L 473.274113 166.076715 
L 468.960353 166.076715 
z
" clip-path="url(#p3b0664542b)" style="fill: #1f77b4; opacity: 0.5"/>
   </g>
   <g id="patch_31">
    <path d="M 473.274113 256.32 
L 477.587874 256.32 
L 477.587874 126.781591 
L 473.274113 126.781591 
z
" clip-path="url(#p3b0664542b)" style="fill: #1f77b4; opacity: 0.5"/>
   </g>
   <g id="patch_32">
    <path d="M 477.587874 256.32 
L 481.901634 256.32 
L 481.901634 91.144979 
L 477.587874 91.144979 
z
" clip-path="url(#p3b0664542b)" style="fill: #1f77b4; opacity: 0.5"/>
   </g>
   <g id="patch_33">
    <path d="M 481.901634 256.32 
L 486.215394 256.32 
L 486.215394 70.368246 
L 481.901634 70.368246 
z
" clip-path="url(#p3b0664542b)" style="fill: #1f77b4; opacity: 0.5"/>
   </g>
   <g id="patch_34">
    <path d="M 486.215394 256.32 
L 490.529154 256.32 
L 490.529154 51.48852 
L 486.215394 51.48852 
z
" clip-path="url(#p3b0664542b)" style="fill: #1f77b4; opacity: 0.5"/>
   </g>
   <g id="patch_35">
    <path d="M 490.529154 256.32 
L 494.842915 256.32 
L 494.842915 46.294337 
L 490.529154 46.294337 
z
" clip-path="url(#p3b0664542b)" style="fill: #1f77b4; opacity: 0.5"/>
   </g>
   <g id="patch_36">
    <path d="M 494.842915 256.32 
L 499.156675 256.32 
L 499.156675 45.12 
L 494.842915 45.12 
z
" clip-path="url(#p3b0664542b)" style="fill: #1f77b4; opacity: 0.5"/>
   </g>
   <g id="patch_37">
    <path d="M 499.156675 256.32 
L 503.470435 256.32 
L 503.470435 48.597844 
L 499.156675 48.597844 
z
" clip-path="url(#p3b0664542b)" style="fill: #1f77b4; opacity: 0.5"/>
   </g>
   <g id="patch_38">
    <path d="M 503.470435 256.32 
L 507.784195 256.32 
L 507.784195 61.696219 
L 503.470435 61.696219 
z
" clip-path="url(#p3b0664542b)" style="fill: #1f77b4; opacity: 0.5"/>
   </g>
   <g id="patch_39">
    <path d="M 507.784195 256.32 
L 512.097956 256.32 
L 512.097956 72.174919 
L 507.784195 72.174919 
z
" clip-path="url(#p3b0664542b)" style="fill: #1f77b4; opacity: 0.5"/>
   </g>
   <g id="patch_40">
    <path d="M 512.097956 256.32 
L 516.411716 256.32 
L 516.411716 90.55781 
L 512.097956 90.55781 
z
" clip-path="url(#p3b0664542b)" style="fill: #1f77b4; opacity: 0.5"/>
   </g>
   <g id="patch_41">
    <path d="M 516.411716 256.32 
L 520.725476 256.32 
L 520.725476 105.914525 
L 516.411716 105.914525 
z
" clip-path="url(#p3b0664542b)" style="fill: #1f77b4; opacity: 0.5"/>
   </g>
   <g id="patch_42">
    <path d="M 520.725476 256.32 
L 525.039236 256.32 
L 525.039236 123.845749 
L 520.725476 123.845749 
z
" clip-path="url(#p3b0664542b)" style="fill: #1f77b4; opacity: 0.5"/>
   </g>
   <g id="patch_43">
    <path d="M 525.039236 256.32 
L 529.352997 256.32 
L 529.352997 138.479795 
L 525.039236 138.479795 
z
" clip-path="url(#p3b0664542b)" style="fill: #1f77b4; opacity: 0.5"/>
   </g>
   <g id="patch_44">
    <path d="M 529.352997 256.32 
L 533.666757 256.32 
L 533.666757 156.546518 
L 529.352997 156.546518 
z
" clip-path="url(#p3b0664542b)" style="fill: #1f77b4; opacity: 0.5"/>
   </g>
   <g id="patch_45">
    <path d="M 533.666757 256.32 
L 537.980517 256.32 
L 537.980517 178.678255 
L 533.666757 178.678255 
z
" clip-path="url(#p3b0664542b)" style="fill: #1f77b4; opacity: 0.5"/>
   </g>
   <g id="patch_46">
    <path d="M 537.980517 256.32 
L 542.294277 256.32 
L 542.294277 188.434286 
L 537.980517 188.434286 
z
" clip-path="url(#p3b0664542b)" style="fill: #1f77b4; opacity: 0.5"/>
   </g>
   <g id="patch_47">
    <path d="M 542.294277 256.32 
L 546.608038 256.32 
L 546.608038 201.216493 
L 542.294277 201.216493 
z
" clip-path="url(#p3b0664542b)" style="fill: #1f77b4; opacity: 0.5"/>
   </g>
   <g id="patch_48">
    <path d="M 546.608038 256.32 
L 550.921798 256.32 
L 550.921798 214.856869 
L 546.608038 214.856869 
z
" clip-path="url(#p3b0664542b)" style="fill: #1f77b4; opacity: 0.5"/>
   </g>
   <g id="patch_49">
    <path d="M 550.921798 256.32 
L 555.235558 256.32 
L 555.235558 222.896561 
L 550.921798 222.896561 
z
" clip-path="url(#p3b0664542b)" style="fill: #1f77b4; opacity: 0.5"/>
   </g>
   <g id="patch_50">
    <path d="M 555.235558 256.32 
L 559.549318 256.32 
L 559.549318 228.632746 
L 555.235558 228.632746 
z
" clip-path="url(#p3b0664542b)" style="fill: #1f77b4; opacity: 0.5"/>
   </g>
   <g id="patch_51">
    <path d="M 559.549318 256.32 
L 563.863079 256.32 
L 563.863079 237.846775 
L 559.549318 237.846775 
z
" clip-path="url(#p3b0664542b)" style="fill: #1f77b4; opacity: 0.5"/>
   </g>
   <g id="patch_52">
    <path d="M 563.863079 256.32 
L 568.176839 256.32 
L 568.176839 240.918118 
L 563.863079 240.918118 
z
" clip-path="url(#p3b0664542b)" style="fill: #1f77b4; opacity: 0.5"/>
   </g>
   <g id="patch_53">
    <path d="M 568.176839 256.32 
L 572.490599 256.32 
L 572.490599 245.796133 
L 568.176839 245.796133 
z
" clip-path="url(#p3b0664542b)" style="fill: #1f77b4; opacity: 0.5"/>
   </g>
   <g id="patch_54">
    <path d="M 572.490599 256.32 
L 576.804359 256.32 
L 576.804359 249.273978 
L 572.490599 249.273978 
z
" clip-path="url(#p3b0664542b)" style="fill: #1f77b4; opacity: 0.5"/>
   </g>
   <g id="patch_55">
    <path d="M 576.804359 256.32 
L 581.11812 256.32 
L 581.11812 251.487151 
L 576.804359 251.487151 
z
" clip-path="url(#p3b0664542b)" style="fill: #1f77b4; opacity: 0.5"/>
   </g>
   <g id="patch_56">
    <path d="M 581.11812 256.32 
L 585.43188 256.32 
L 585.43188 252.751822 
L 581.11812 252.751822 
z
" clip-path="url(#p3b0664542b)" style="fill: #1f77b4; opacity: 0.5"/>
   </g>
   <g id="patch_57">
    <path d="M 585.43188 256.32 
L 589.74564 256.32 
L 589.74564 253.474491 
L 585.43188 253.474491 
z
" clip-path="url(#p3b0664542b)" style="fill: #1f77b4; opacity: 0.5"/>
   </g>
   <g id="patch_58">
    <path d="M 589.74564 256.32 
L 594.059401 256.32 
L 594.059401 254.874662 
L 589.74564 254.874662 
z
" clip-path="url(#p3b0664542b)" style="fill: #1f77b4; opacity: 0.5"/>
   </g>
   <g id="patch_59">
    <path d="M 594.059401 256.32 
L 598.373161 256.32 
L 598.373161 255.145663 
L 594.059401 255.145663 
z
" clip-path="url(#p3b0664542b)" style="fill: #1f77b4; opacity: 0.5"/>
   </g>
   <g id="patch_60">
    <path d="M 598.373161 256.32 
L 602.686921 256.32 
L 602.686921 255.777998 
L 598.373161 255.777998 
z
" clip-path="url(#p3b0664542b)" style="fill: #1f77b4; opacity: 0.5"/>
   </g>
   <g id="patch_61">
    <path d="M 602.686921 256.32 
L 607.000681 256.32 
L 607.000681 255.913499 
L 602.686921 255.913499 
z
" clip-path="url(#p3b0664542b)" style="fill: #1f77b4; opacity: 0.5"/>
   </g>
   <g id="patch_62">
    <path d="M 607.000681 256.32 
L 611.314442 256.32 
L 611.314442 256.094166 
L 607.000681 256.094166 
z
" clip-path="url(#p3b0664542b)" style="fill: #1f77b4; opacity: 0.5"/>
   </g>
   <g id="patch_63">
    <path d="M 611.314442 256.32 
L 615.628202 256.32 
L 615.628202 256.1845 
L 611.314442 256.1845 
z
" clip-path="url(#p3b0664542b)" style="fill: #1f77b4; opacity: 0.5"/>
   </g>
   <g id="patch_64">
    <path d="M 615.628202 256.32 
L 619.941962 256.32 
L 619.941962 256.1845 
L 615.628202 256.1845 
z
" clip-path="url(#p3b0664542b)" style="fill: #1f77b4; opacity: 0.5"/>
   </g>
   <g id="patch_65">
    <path d="M 619.941962 256.32 
L 624.255722 256.32 
L 624.255722 256.229666 
L 619.941962 256.229666 
z
" clip-path="url(#p3b0664542b)" style="fill: #1f77b4; opacity: 0.5"/>
   </g>
   <g id="patch_66">
    <path d="M 624.255722 256.32 
L 628.569483 256.32 
L 628.569483 256.229666 
L 624.255722 256.229666 
z
" clip-path="url(#p3b0664542b)" style="fill: #1f77b4; opacity: 0.5"/>
   </g>
   <g id="patch_67">
    <path d="M 628.569483 256.32 
L 632.883243 256.32 
L 632.883243 256.229666 
L 628.569483 256.229666 
z
" clip-path="url(#p3b0664542b)" style="fill: #1f77b4; opacity: 0.5"/>
   </g>
   <g id="matplotlib.axis_3">
    <g id="xtick_7">
     <g id="line2d_17">
      <g>
       <use xlink:href="#m2ba0ec3017" x="459.105882" y="256.32" style="stroke: #000000; stroke-width: 0.8"/>
      </g>
     </g>
     <g id="text_19">
      <!-- 0 -->
      <g transform="translate(455.924632 270.918437) scale(0.1 -0.1)">
       <use xlink:href="#DejaVuSans-30"/>
      </g>
     </g>
    </g>
    <g id="xtick_8">
     <g id="line2d_18">
      <g>
       <use xlink:href="#m2ba0ec3017" x="511.623529" y="256.32" style="stroke: #000000; stroke-width: 0.8"/>
      </g>
     </g>
     <g id="text_20">
      <!-- 1 -->
      <g transform="translate(508.442279 270.918437) scale(0.1 -0.1)">
       <use xlink:href="#DejaVuSans-31"/>
      </g>
     </g>
    </g>
    <g id="xtick_9">
     <g id="line2d_19">
      <g>
       <use xlink:href="#m2ba0ec3017" x="564.141176" y="256.32" style="stroke: #000000; stroke-width: 0.8"/>
      </g>
     </g>
     <g id="text_21">
      <!-- 2 -->
      <g transform="translate(560.959926 270.918437) scale(0.1 -0.1)">
       <use xlink:href="#DejaVuSans-32"/>
      </g>
     </g>
    </g>
    <g id="xtick_10">
     <g id="line2d_20">
      <g>
       <use xlink:href="#m2ba0ec3017" x="616.658824" y="256.32" style="stroke: #000000; stroke-width: 0.8"/>
      </g>
     </g>
     <g id="text_22">
      <!-- 3 -->
      <g transform="translate(613.477574 270.918437) scale(0.1 -0.1)">
       <use xlink:href="#DejaVuSans-33"/>
      </g>
     </g>
    </g>
    <g id="xtick_11">
     <g id="line2d_21">
      <g>
       <use xlink:href="#m2ba0ec3017" x="669.176471" y="256.32" style="stroke: #000000; stroke-width: 0.8"/>
      </g>
     </g>
     <g id="text_23">
      <!-- 4 -->
      <g transform="translate(665.995221 270.918437) scale(0.1 -0.1)">
       <use xlink:href="#DejaVuSans-34"/>
      </g>
     </g>
    </g>
    <g id="xtick_12">
     <g id="line2d_22">
      <g>
       <use xlink:href="#m2ba0ec3017" x="721.694118" y="256.32" style="stroke: #000000; stroke-width: 0.8"/>
      </g>
     </g>
     <g id="text_24">
      <!-- 5 -->
      <g transform="translate(718.512868 270.918437) scale(0.1 -0.1)">
       <use xlink:href="#DejaVuSans-35"/>
      </g>
     </g>
    </g>
    <g id="text_25">
     <!-- Normalized sf amplitude -->
     <g transform="translate(529.235156 284.596563) scale(0.1 -0.1)">
      <use xlink:href="#DejaVuSans-4e"/>
      <use xlink:href="#DejaVuSans-6f" x="74.804688"/>
      <use xlink:href="#DejaVuSans-72" x="135.986328"/>
      <use xlink:href="#DejaVuSans-6d" x="175.349609"/>
      <use xlink:href="#DejaVuSans-61" x="272.761719"/>
      <use xlink:href="#DejaVuSans-6c" x="334.041016"/>
      <use xlink:href="#DejaVuSans-69" x="361.824219"/>
      <use xlink:href="#DejaVuSans-7a" x="389.607422"/>
      <use xlink:href="#DejaVuSans-65" x="442.097656"/>
      <use xlink:href="#DejaVuSans-64" x="503.621094"/>
      <use xlink:href="#DejaVuSans-20" x="567.097656"/>
      <use xlink:href="#DejaVuSans-73" x="598.884766"/>
      <use xlink:href="#DejaVuSans-66" x="650.984375"/>
      <use xlink:href="#DejaVuSans-20" x="686.189453"/>
      <use xlink:href="#DejaVuSans-61" x="717.976562"/>
      <use xlink:href="#DejaVuSans-6d" x="779.255859"/>
      <use xlink:href="#DejaVuSans-70" x="876.667969"/>
      <use xlink:href="#DejaVuSans-6c" x="940.144531"/>
      <use xlink:href="#DejaVuSans-69" x="967.927734"/>
      <use xlink:href="#DejaVuSans-74" x="995.710938"/>
      <use xlink:href="#DejaVuSans-75" x="1034.919922"/>
      <use xlink:href="#DejaVuSans-64" x="1098.298828"/>
      <use xlink:href="#DejaVuSans-65" x="1161.775391"/>
     </g>
    </g>
   </g>
   <g id="matplotlib.axis_4">
    <g id="ytick_10">
     <g id="line2d_23">
      <g>
       <use xlink:href="#m4c14022766" x="459.105882" y="256.32" style="stroke: #000000; stroke-width: 0.8"/>
      </g>
     </g>
     <g id="text_26">
      <!-- 0.0 -->
      <g transform="translate(436.202757 260.119219) scale(0.1 -0.1)">
       <use xlink:href="#DejaVuSans-30"/>
       <use xlink:href="#DejaVuSans-2e" x="63.623047"/>
       <use xlink:href="#DejaVuSans-30" x="95.410156"/>
      </g>
     </g>
    </g>
    <g id="ytick_11">
     <g id="line2d_24">
      <g>
       <use xlink:href="#m4c14022766" x="459.105882" y="208.939257" style="stroke: #000000; stroke-width: 0.8"/>
      </g>
     </g>
     <g id="text_27">
      <!-- 0.2 -->
      <g transform="translate(436.202757 212.738476) scale(0.1 -0.1)">
       <use xlink:href="#DejaVuSans-30"/>
       <use xlink:href="#DejaVuSans-2e" x="63.623047"/>
       <use xlink:href="#DejaVuSans-32" x="95.410156"/>
      </g>
     </g>
    </g>
    <g id="ytick_12">
     <g id="line2d_25">
      <g>
       <use xlink:href="#m4c14022766" x="459.105882" y="161.558515" style="stroke: #000000; stroke-width: 0.8"/>
      </g>
     </g>
     <g id="text_28">
      <!-- 0.4 -->
      <g transform="translate(436.202757 165.357734) scale(0.1 -0.1)">
       <use xlink:href="#DejaVuSans-30"/>
       <use xlink:href="#DejaVuSans-2e" x="63.623047"/>
       <use xlink:href="#DejaVuSans-34" x="95.410156"/>
      </g>
     </g>
    </g>
    <g id="ytick_13">
     <g id="line2d_26">
      <g>
       <use xlink:href="#m4c14022766" x="459.105882" y="114.177772" style="stroke: #000000; stroke-width: 0.8"/>
      </g>
     </g>
     <g id="text_29">
      <!-- 0.6 -->
      <g transform="translate(436.202757 117.976991) scale(0.1 -0.1)">
       <use xlink:href="#DejaVuSans-30"/>
       <use xlink:href="#DejaVuSans-2e" x="63.623047"/>
       <use xlink:href="#DejaVuSans-36" x="95.410156"/>
      </g>
     </g>
    </g>
    <g id="ytick_14">
     <g id="line2d_27">
      <g>
       <use xlink:href="#m4c14022766" x="459.105882" y="66.79703" style="stroke: #000000; stroke-width: 0.8"/>
      </g>
     </g>
     <g id="text_30">
      <!-- 0.8 -->
      <g transform="translate(436.202757 70.596249) scale(0.1 -0.1)">
       <use xlink:href="#DejaVuSans-30"/>
       <use xlink:href="#DejaVuSans-2e" x="63.623047"/>
       <use xlink:href="#DejaVuSans-38" x="95.410156"/>
      </g>
     </g>
    </g>
    <g id="text_31">
     <!-- count -->
     <g transform="translate(430.12307 159.54625) rotate(-90) scale(0.1 -0.1)">
      <use xlink:href="#DejaVuSans-63"/>
      <use xlink:href="#DejaVuSans-6f" x="54.980469"/>
      <use xlink:href="#DejaVuSans-75" x="116.162109"/>
      <use xlink:href="#DejaVuSans-6e" x="179.541016"/>
      <use xlink:href="#DejaVuSans-74" x="242.919922"/>
     </g>
    </g>
   </g>
   <g id="line2d_28">
    <path d="M 459.105882 256.32 
L 465.841613 196.542567 
L 469.209478 168.478754 
L 472.15636 145.630866 
L 474.682259 127.625726 
L 477.208157 111.298998 
L 479.313073 99.100544 
L 481.417989 88.266249 
L 483.101921 80.621361 
L 484.785854 73.908769 
L 486.469787 68.141375 
L 488.153719 63.324041 
L 489.416669 60.333016 
L 490.679618 57.870827 
L 491.942567 55.931123 
L 493.205517 54.505347 
L 494.047483 53.835175 
L 494.889449 53.385083 
L 495.731416 53.151059 
L 496.573382 53.128736 
L 497.415348 53.313414 
L 498.257315 53.700078 
L 499.099281 54.28342 
L 500.36223 55.51492 
L 501.62518 57.156433 
L 502.888129 59.186946 
L 504.151079 61.584485 
L 505.835011 65.312677 
L 507.518944 69.597124 
L 509.623859 75.647955 
L 511.728775 82.365994 
L 514.254674 91.149856 
L 517.622539 103.775233 
L 522.253354 122.117857 
L 530.252033 153.893002 
L 534.040882 168.053444 
L 537.408747 179.826277 
L 540.355629 189.387879 
L 543.302511 198.198492 
L 545.82841 205.12893 
L 548.354309 211.479165 
L 550.880207 217.254272 
L 553.406106 222.468355 
L 555.932005 227.142864 
L 558.457904 231.304992 
L 560.983803 234.986183 
L 563.509702 238.220767 
L 566.035601 241.044752 
L 568.561499 243.494784 
L 571.087398 245.607262 
L 573.613297 247.417622 
L 576.139196 248.959778 
L 578.665095 250.265696 
L 581.611977 251.530218 
L 584.558859 252.556594 
L 587.926724 253.487025 
L 591.715572 254.283599 
L 595.925404 254.927371 
L 600.977201 255.45325 
L 606.870965 255.833843 
L 614.869645 256.107489 
L 626.657173 256.262593 
L 651.916162 256.317564 
L 669.176471 256.319787 
L 669.176471 256.319787 
" clip-path="url(#p3b0664542b)" style="fill: none; stroke: #ff0000; stroke-width: 1.5; stroke-linecap: square"/>
   </g>
   <g id="patch_68">
    <path d="M 459.105882 256.32 
L 459.105882 34.56 
" style="fill: none; stroke: #000000; stroke-width: 0.8; stroke-linejoin: miter; stroke-linecap: square"/>
   </g>
   <g id="patch_69">
    <path d="M 721.694118 256.32 
L 721.694118 34.56 
" style="fill: none; stroke: #000000; stroke-width: 0.8; stroke-linejoin: miter; stroke-linecap: square"/>
   </g>
   <g id="patch_70">
    <path d="M 459.105882 256.32 
L 721.694118 256.32 
" style="fill: none; stroke: #000000; stroke-width: 0.8; stroke-linejoin: miter; stroke-linecap: square"/>
   </g>
   <g id="patch_71">
    <path d="M 459.105882 34.56 
L 721.694118 34.56 
" style="fill: none; stroke: #000000; stroke-width: 0.8; stroke-linejoin: miter; stroke-linecap: square"/>
   </g>
   <g id="text_32">
    <!-- Acentric -->
    <g transform="translate(565.8225 28.56) scale(0.12 -0.12)">
     <defs>
      <path id="DejaVuSans-41" d="M 2188 4044 
L 1331 1722 
L 3047 1722 
L 2188 4044 
z
M 1831 4666 
L 2547 4666 
L 4325 0 
L 3669 0 
L 3244 1197 
L 1141 1197 
L 716 0 
L 50 0 
L 1831 4666 
z
" transform="scale(0.015625)"/>
     </defs>
     <use xlink:href="#DejaVuSans-41"/>
     <use xlink:href="#DejaVuSans-63" x="66.658203"/>
     <use xlink:href="#DejaVuSans-65" x="121.638672"/>
     <use xlink:href="#DejaVuSans-6e" x="183.162109"/>
     <use xlink:href="#DejaVuSans-74" x="246.541016"/>
     <use xlink:href="#DejaVuSans-72" x="285.75"/>
     <use xlink:href="#DejaVuSans-69" x="326.863281"/>
     <use xlink:href="#DejaVuSans-63" x="354.646484"/>
    </g>
   </g>
  </g>
  <g id="axes_3">
   <g id="patch_72">
    <path d="M 774.211765 256.32 
L 1036.8 256.32 
L 1036.8 34.56 
L 774.211765 34.56 
z
" style="fill: #ffffff"/>
   </g>
   <g id="patch_73">
    <path d="M 786.147594 256.32 
L 788.534759 256.32 
L 788.534759 254.383231 
L 786.147594 254.383231 
z
" clip-path="url(#p5c97901f03)" style="fill: #1f77b4"/>
   </g>
   <g id="patch_74">
    <path d="M 788.534759 256.32 
L 790.921925 256.32 
L 790.921925 253.184279 
L 788.534759 253.184279 
z
" clip-path="url(#p5c97901f03)" style="fill: #1f77b4"/>
   </g>
   <g id="patch_75">
    <path d="M 790.921925 256.32 
L 793.309091 256.32 
L 793.309091 251.155284 
L 790.921925 251.155284 
z
" clip-path="url(#p5c97901f03)" style="fill: #1f77b4"/>
   </g>
   <g id="patch_76">
    <path d="M 793.309091 256.32 
L 795.696257 256.32 
L 795.696257 251.155284 
L 793.309091 251.155284 
z
" clip-path="url(#p5c97901f03)" style="fill: #1f77b4"/>
   </g>
   <g id="patch_77">
    <path d="M 795.696257 256.32 
L 798.083422 256.32 
L 798.083422 249.034061 
L 795.696257 249.034061 
z
" clip-path="url(#p5c97901f03)" style="fill: #1f77b4"/>
   </g>
   <g id="patch_78">
    <path d="M 798.083422 256.32 
L 800.470588 256.32 
L 800.470588 247.742882 
L 798.083422 247.742882 
z
" clip-path="url(#p5c97901f03)" style="fill: #1f77b4"/>
   </g>
   <g id="patch_79">
    <path d="M 800.470588 256.32 
L 802.857754 256.32 
L 802.857754 246.820611 
L 800.470588 246.820611 
z
" clip-path="url(#p5c97901f03)" style="fill: #1f77b4"/>
   </g>
   <g id="patch_80">
    <path d="M 802.857754 256.32 
L 805.24492 256.32 
L 805.24492 246.728384 
L 802.857754 246.728384 
z
" clip-path="url(#p5c97901f03)" style="fill: #1f77b4"/>
   </g>
   <g id="patch_81">
    <path d="M 805.24492 256.32 
L 807.632086 256.32 
L 807.632086 245.160524 
L 805.24492 245.160524 
z
" clip-path="url(#p5c97901f03)" style="fill: #1f77b4"/>
   </g>
   <g id="patch_82">
    <path d="M 807.632086 256.32 
L 810.019251 256.32 
L 810.019251 244.97607 
L 807.632086 244.97607 
z
" clip-path="url(#p5c97901f03)" style="fill: #1f77b4"/>
   </g>
   <g id="patch_83">
    <path d="M 810.019251 256.32 
L 812.406417 256.32 
L 812.406417 246.082795 
L 810.019251 246.082795 
z
" clip-path="url(#p5c97901f03)" style="fill: #1f77b4"/>
   </g>
   <g id="patch_84">
    <path d="M 812.406417 256.32 
L 814.793583 256.32 
L 814.793583 245.898341 
L 812.406417 245.898341 
z
" clip-path="url(#p5c97901f03)" style="fill: #1f77b4"/>
   </g>
   <g id="patch_85">
    <path d="M 814.793583 256.32 
L 817.180749 256.32 
L 817.180749 244.33048 
L 814.793583 244.33048 
z
" clip-path="url(#p5c97901f03)" style="fill: #1f77b4"/>
   </g>
   <g id="patch_86">
    <path d="M 817.180749 256.32 
L 819.567914 256.32 
L 819.567914 243.500437 
L 817.180749 243.500437 
z
" clip-path="url(#p5c97901f03)" style="fill: #1f77b4"/>
   </g>
   <g id="patch_87">
    <path d="M 819.567914 256.32 
L 821.95508 256.32 
L 821.95508 245.990568 
L 819.567914 245.990568 
z
" clip-path="url(#p5c97901f03)" style="fill: #1f77b4"/>
   </g>
   <g id="patch_88">
    <path d="M 821.95508 256.32 
L 824.342246 256.32 
L 824.342246 242.209258 
L 821.95508 242.209258 
z
" clip-path="url(#p5c97901f03)" style="fill: #1f77b4"/>
   </g>
   <g id="patch_89">
    <path d="M 824.342246 256.32 
L 826.729412 256.32 
L 826.729412 241.748122 
L 824.342246 241.748122 
z
" clip-path="url(#p5c97901f03)" style="fill: #1f77b4"/>
   </g>
   <g id="patch_90">
    <path d="M 826.729412 256.32 
L 829.116578 256.32 
L 829.116578 240.088035 
L 826.729412 240.088035 
z
" clip-path="url(#p5c97901f03)" style="fill: #1f77b4"/>
   </g>
   <g id="patch_91">
    <path d="M 829.116578 256.32 
L 831.503743 256.32 
L 831.503743 235.84559 
L 829.116578 235.84559 
z
" clip-path="url(#p5c97901f03)" style="fill: #1f77b4"/>
   </g>
   <g id="patch_92">
    <path d="M 831.503743 256.32 
L 833.890909 256.32 
L 833.890909 234.923319 
L 831.503743 234.923319 
z
" clip-path="url(#p5c97901f03)" style="fill: #1f77b4"/>
   </g>
   <g id="patch_93">
    <path d="M 833.890909 256.32 
L 836.278075 256.32 
L 836.278075 235.384454 
L 833.890909 235.384454 
z
" clip-path="url(#p5c97901f03)" style="fill: #1f77b4"/>
   </g>
   <g id="patch_94">
    <path d="M 836.278075 256.32 
L 838.665241 256.32 
L 838.665241 230.865328 
L 836.278075 230.865328 
z
" clip-path="url(#p5c97901f03)" style="fill: #1f77b4"/>
   </g>
   <g id="patch_95">
    <path d="M 838.665241 256.32 
L 841.052406 256.32 
L 841.052406 224.224978 
L 838.665241 224.224978 
z
" clip-path="url(#p5c97901f03)" style="fill: #1f77b4"/>
   </g>
   <g id="patch_96">
    <path d="M 841.052406 256.32 
L 843.439572 256.32 
L 843.439572 220.535895 
L 841.052406 220.535895 
z
" clip-path="url(#p5c97901f03)" style="fill: #1f77b4"/>
   </g>
   <g id="patch_97">
    <path d="M 843.439572 256.32 
L 845.826738 256.32 
L 845.826738 216.662358 
L 843.439572 216.662358 
z
" clip-path="url(#p5c97901f03)" style="fill: #1f77b4"/>
   </g>
   <g id="patch_98">
    <path d="M 845.826738 256.32 
L 848.213904 256.32 
L 848.213904 210.390917 
L 845.826738 210.390917 
z
" clip-path="url(#p5c97901f03)" style="fill: #1f77b4"/>
   </g>
   <g id="patch_99">
    <path d="M 848.213904 256.32 
L 850.60107 256.32 
L 850.60107 199.877031 
L 848.213904 199.877031 
z
" clip-path="url(#p5c97901f03)" style="fill: #1f77b4"/>
   </g>
   <g id="patch_100">
    <path d="M 850.60107 256.32 
L 852.988235 256.32 
L 852.988235 182.999476 
L 850.60107 182.999476 
z
" clip-path="url(#p5c97901f03)" style="fill: #1f77b4"/>
   </g>
   <g id="patch_101">
    <path d="M 852.988235 256.32 
L 855.375401 256.32 
L 855.375401 173.592314 
L 852.988235 173.592314 
z
" clip-path="url(#p5c97901f03)" style="fill: #1f77b4"/>
   </g>
   <g id="patch_102">
    <path d="M 855.375401 256.32 
L 857.762567 256.32 
L 857.762567 155.331354 
L 855.375401 155.331354 
z
" clip-path="url(#p5c97901f03)" style="fill: #1f77b4"/>
   </g>
   <g id="patch_103">
    <path d="M 857.762567 256.32 
L 860.149733 256.32 
L 860.149733 145.739738 
L 857.762567 145.739738 
z
" clip-path="url(#p5c97901f03)" style="fill: #1f77b4"/>
   </g>
   <g id="patch_104">
    <path d="M 860.149733 256.32 
L 862.536898 256.32 
L 862.536898 101.378515 
L 860.149733 101.378515 
z
" clip-path="url(#p5c97901f03)" style="fill: #1f77b4"/>
   </g>
   <g id="patch_105">
    <path d="M 862.536898 256.32 
L 864.924064 256.32 
L 864.924064 88.92786 
L 862.536898 88.92786 
z
" clip-path="url(#p5c97901f03)" style="fill: #1f77b4"/>
   </g>
   <g id="patch_106">
    <path d="M 864.924064 256.32 
L 867.31123 256.32 
L 867.31123 64.118777 
L 864.924064 64.118777 
z
" clip-path="url(#p5c97901f03)" style="fill: #1f77b4"/>
   </g>
   <g id="patch_107">
    <path d="M 867.31123 256.32 
L 869.698396 256.32 
L 869.698396 45.12 
L 867.31123 45.12 
z
" clip-path="url(#p5c97901f03)" style="fill: #1f77b4"/>
   </g>
   <g id="patch_108">
    <path d="M 869.698396 256.32 
L 872.085561 256.32 
L 872.085561 50.653624 
L 869.698396 50.653624 
z
" clip-path="url(#p5c97901f03)" style="fill: #1f77b4"/>
   </g>
   <g id="patch_109">
    <path d="M 872.085561 256.32 
L 874.472727 256.32 
L 874.472727 64.118777 
L 872.085561 64.118777 
z
" clip-path="url(#p5c97901f03)" style="fill: #1f77b4"/>
   </g>
   <g id="patch_110">
    <path d="M 874.472727 256.32 
L 876.859893 256.32 
L 876.859893 90.772402 
L 874.472727 90.772402 
z
" clip-path="url(#p5c97901f03)" style="fill: #1f77b4"/>
   </g>
   <g id="patch_111">
    <path d="M 876.859893 256.32 
L 879.247059 256.32 
L 879.247059 111.062358 
L 876.859893 111.062358 
z
" clip-path="url(#p5c97901f03)" style="fill: #1f77b4"/>
   </g>
   <g id="patch_112">
    <path d="M 879.247059 256.32 
L 881.634225 256.32 
L 881.634225 119.547249 
L 879.247059 119.547249 
z
" clip-path="url(#p5c97901f03)" style="fill: #1f77b4"/>
   </g>
   <g id="patch_113">
    <path d="M 881.634225 256.32 
L 884.02139 256.32 
L 884.02139 130.24559 
L 881.634225 130.24559 
z
" clip-path="url(#p5c97901f03)" style="fill: #1f77b4"/>
   </g>
   <g id="patch_114">
    <path d="M 884.02139 256.32 
L 886.408556 256.32 
L 886.408556 139.283843 
L 884.02139 139.283843 
z
" clip-path="url(#p5c97901f03)" style="fill: #1f77b4"/>
   </g>
   <g id="patch_115">
    <path d="M 886.408556 256.32 
L 888.795722 256.32 
L 888.795722 146.200873 
L 886.408556 146.200873 
z
" clip-path="url(#p5c97901f03)" style="fill: #1f77b4"/>
   </g>
   <g id="patch_116">
    <path d="M 888.795722 256.32 
L 891.182888 256.32 
L 891.182888 147.215371 
L 888.795722 147.215371 
z
" clip-path="url(#p5c97901f03)" style="fill: #1f77b4"/>
   </g>
   <g id="patch_117">
    <path d="M 891.182888 256.32 
L 893.570053 256.32 
L 893.570053 154.224629 
L 891.182888 154.224629 
z
" clip-path="url(#p5c97901f03)" style="fill: #1f77b4"/>
   </g>
   <g id="patch_118">
    <path d="M 893.570053 256.32 
L 895.957219 256.32 
L 895.957219 156.991441 
L 893.570053 156.991441 
z
" clip-path="url(#p5c97901f03)" style="fill: #1f77b4"/>
   </g>
   <g id="patch_119">
    <path d="M 895.957219 256.32 
L 898.344385 256.32 
L 898.344385 163.355109 
L 895.957219 163.355109 
z
" clip-path="url(#p5c97901f03)" style="fill: #1f77b4"/>
   </g>
   <g id="patch_120">
    <path d="M 898.344385 256.32 
L 900.731551 256.32 
L 900.731551 158.559301 
L 898.344385 158.559301 
z
" clip-path="url(#p5c97901f03)" style="fill: #1f77b4"/>
   </g>
   <g id="patch_121">
    <path d="M 900.731551 256.32 
L 903.118717 256.32 
L 903.118717 164.369607 
L 900.731551 164.369607 
z
" clip-path="url(#p5c97901f03)" style="fill: #1f77b4"/>
   </g>
   <g id="patch_122">
    <path d="M 903.118717 256.32 
L 905.505882 256.32 
L 905.505882 164.738515 
L 903.118717 164.738515 
z
" clip-path="url(#p5c97901f03)" style="fill: #1f77b4"/>
   </g>
   <g id="patch_123">
    <path d="M 905.505882 256.32 
L 907.893048 256.32 
L 907.893048 168.243144 
L 905.505882 168.243144 
z
" clip-path="url(#p5c97901f03)" style="fill: #1f77b4"/>
   </g>
   <g id="patch_124">
    <path d="M 907.893048 256.32 
L 910.280214 256.32 
L 910.280214 167.4131 
L 907.893048 167.4131 
z
" clip-path="url(#p5c97901f03)" style="fill: #1f77b4"/>
   </g>
   <g id="patch_125">
    <path d="M 910.280214 256.32 
L 912.66738 256.32 
L 912.66738 166.398603 
L 910.280214 166.398603 
z
" clip-path="url(#p5c97901f03)" style="fill: #1f77b4"/>
   </g>
   <g id="patch_126">
    <path d="M 912.66738 256.32 
L 915.054545 256.32 
L 915.054545 167.874236 
L 912.66738 167.874236 
z
" clip-path="url(#p5c97901f03)" style="fill: #1f77b4"/>
   </g>
   <g id="patch_127">
    <path d="M 915.054545 256.32 
L 917.441711 256.32 
L 917.441711 169.811004 
L 915.054545 169.811004 
z
" clip-path="url(#p5c97901f03)" style="fill: #1f77b4"/>
   </g>
   <g id="patch_128">
    <path d="M 917.441711 256.32 
L 919.828877 256.32 
L 919.828877 175.252402 
L 917.441711 175.252402 
z
" clip-path="url(#p5c97901f03)" style="fill: #1f77b4"/>
   </g>
   <g id="patch_129">
    <path d="M 919.828877 256.32 
L 922.216043 256.32 
L 922.216043 176.451354 
L 919.828877 176.451354 
z
" clip-path="url(#p5c97901f03)" style="fill: #1f77b4"/>
   </g>
   <g id="patch_130">
    <path d="M 922.216043 256.32 
L 924.603209 256.32 
L 924.603209 166.49083 
L 922.216043 166.49083 
z
" clip-path="url(#p5c97901f03)" style="fill: #1f77b4"/>
   </g>
   <g id="patch_131">
    <path d="M 924.603209 256.32 
L 926.990374 256.32 
L 926.990374 169.257642 
L 924.603209 169.257642 
z
" clip-path="url(#p5c97901f03)" style="fill: #1f77b4"/>
   </g>
   <g id="patch_132">
    <path d="M 926.990374 256.32 
L 929.37754 256.32 
L 929.37754 167.689782 
L 926.990374 167.689782 
z
" clip-path="url(#p5c97901f03)" style="fill: #1f77b4"/>
   </g>
   <g id="patch_133">
    <path d="M 929.37754 256.32 
L 931.764706 256.32 
L 931.764706 170.179913 
L 929.37754 170.179913 
z
" clip-path="url(#p5c97901f03)" style="fill: #1f77b4"/>
   </g>
   <g id="patch_134">
    <path d="M 931.764706 256.32 
L 934.151872 256.32 
L 934.151872 154.132402 
L 931.764706 154.132402 
z
" clip-path="url(#p5c97901f03)" style="fill: #1f77b4"/>
   </g>
   <g id="patch_135">
    <path d="M 934.151872 256.32 
L 936.539037 256.32 
L 936.539037 149.521048 
L 934.151872 149.521048 
z
" clip-path="url(#p5c97901f03)" style="fill: #1f77b4"/>
   </g>
   <g id="patch_136">
    <path d="M 936.539037 256.32 
L 938.926203 256.32 
L 938.926203 142.419563 
L 936.539037 142.419563 
z
" clip-path="url(#p5c97901f03)" style="fill: #1f77b4"/>
   </g>
   <g id="patch_137">
    <path d="M 938.926203 256.32 
L 941.313369 256.32 
L 941.313369 142.880699 
L 938.926203 142.880699 
z
" clip-path="url(#p5c97901f03)" style="fill: #1f77b4"/>
   </g>
   <g id="patch_138">
    <path d="M 941.313369 256.32 
L 943.700535 256.32 
L 943.700535 128.95441 
L 941.313369 128.95441 
z
" clip-path="url(#p5c97901f03)" style="fill: #1f77b4"/>
   </g>
   <g id="patch_139">
    <path d="M 943.700535 256.32 
L 946.087701 256.32 
L 946.087701 123.513013 
L 943.700535 123.513013 
z
" clip-path="url(#p5c97901f03)" style="fill: #1f77b4"/>
   </g>
   <g id="patch_140">
    <path d="M 946.087701 256.32 
L 948.474866 256.32 
L 948.474866 125.726463 
L 946.087701 125.726463 
z
" clip-path="url(#p5c97901f03)" style="fill: #1f77b4"/>
   </g>
   <g id="patch_141">
    <path d="M 948.474866 256.32 
L 950.862032 256.32 
L 950.862032 128.03214 
L 948.474866 128.03214 
z
" clip-path="url(#p5c97901f03)" style="fill: #1f77b4"/>
   </g>
   <g id="patch_142">
    <path d="M 950.862032 256.32 
L 953.249198 256.32 
L 953.249198 122.959651 
L 950.862032 122.959651 
z
" clip-path="url(#p5c97901f03)" style="fill: #1f77b4"/>
   </g>
   <g id="patch_143">
    <path d="M 953.249198 256.32 
L 955.636364 256.32 
L 955.636364 131.352314 
L 953.249198 131.352314 
z
" clip-path="url(#p5c97901f03)" style="fill: #1f77b4"/>
   </g>
   <g id="patch_144">
    <path d="M 955.636364 256.32 
L 958.023529 256.32 
L 958.023529 141.497293 
L 955.636364 141.497293 
z
" clip-path="url(#p5c97901f03)" style="fill: #1f77b4"/>
   </g>
   <g id="patch_145">
    <path d="M 958.023529 256.32 
L 960.410695 256.32 
L 960.410695 153.117904 
L 958.023529 153.117904 
z
" clip-path="url(#p5c97901f03)" style="fill: #1f77b4"/>
   </g>
   <g id="patch_146">
    <path d="M 960.410695 256.32 
L 962.797861 256.32 
L 962.797861 161.695022 
L 960.410695 161.695022 
z
" clip-path="url(#p5c97901f03)" style="fill: #1f77b4"/>
   </g>
   <g id="patch_147">
    <path d="M 962.797861 256.32 
L 965.185027 256.32 
L 965.185027 169.165415 
L 962.797861 169.165415 
z
" clip-path="url(#p5c97901f03)" style="fill: #1f77b4"/>
   </g>
   <g id="patch_148">
    <path d="M 965.185027 256.32 
L 967.572193 256.32 
L 967.572193 177.650306 
L 965.185027 177.650306 
z
" clip-path="url(#p5c97901f03)" style="fill: #1f77b4"/>
   </g>
   <g id="patch_149">
    <path d="M 967.572193 256.32 
L 969.959358 256.32 
L 969.959358 185.212926 
L 967.572193 185.212926 
z
" clip-path="url(#p5c97901f03)" style="fill: #1f77b4"/>
   </g>
   <g id="patch_150">
    <path d="M 969.959358 256.32 
L 972.346524 256.32 
L 972.346524 196.925764 
L 969.959358 196.925764 
z
" clip-path="url(#p5c97901f03)" style="fill: #1f77b4"/>
   </g>
   <g id="patch_151">
    <path d="M 972.346524 256.32 
L 974.73369 256.32 
L 974.73369 210.390917 
L 972.346524 210.390917 
z
" clip-path="url(#p5c97901f03)" style="fill: #1f77b4"/>
   </g>
   <g id="patch_152">
    <path d="M 974.73369 256.32 
L 977.120856 256.32 
L 977.120856 216.201223 
L 974.73369 216.201223 
z
" clip-path="url(#p5c97901f03)" style="fill: #1f77b4"/>
   </g>
   <g id="patch_153">
    <path d="M 977.120856 256.32 
L 979.508021 256.32 
L 979.508021 227.821834 
L 977.120856 227.821834 
z
" clip-path="url(#p5c97901f03)" style="fill: #1f77b4"/>
   </g>
   <g id="patch_154">
    <path d="M 979.508021 256.32 
L 981.895187 256.32 
L 981.895187 236.76786 
L 979.508021 236.76786 
z
" clip-path="url(#p5c97901f03)" style="fill: #1f77b4"/>
   </g>
   <g id="patch_155">
    <path d="M 981.895187 256.32 
L 984.282353 256.32 
L 984.282353 242.854847 
L 981.895187 242.854847 
z
" clip-path="url(#p5c97901f03)" style="fill: #1f77b4"/>
   </g>
   <g id="patch_156">
    <path d="M 984.282353 256.32 
L 986.669519 256.32 
L 986.669519 245.529432 
L 984.282353 245.529432 
z
" clip-path="url(#p5c97901f03)" style="fill: #1f77b4"/>
   </g>
   <g id="patch_157">
    <path d="M 986.669519 256.32 
L 989.056684 256.32 
L 989.056684 246.54393 
L 986.669519 246.54393 
z
" clip-path="url(#p5c97901f03)" style="fill: #1f77b4"/>
   </g>
   <g id="patch_158">
    <path d="M 989.056684 256.32 
L 991.44385 256.32 
L 991.44385 249.126288 
L 989.056684 249.126288 
z
" clip-path="url(#p5c97901f03)" style="fill: #1f77b4"/>
   </g>
   <g id="patch_159">
    <path d="M 991.44385 256.32 
L 993.831016 256.32 
L 993.831016 249.679651 
L 991.44385 249.679651 
z
" clip-path="url(#p5c97901f03)" style="fill: #1f77b4"/>
   </g>
   <g id="patch_160">
    <path d="M 993.831016 256.32 
L 996.218182 256.32 
L 996.218182 250.509694 
L 993.831016 250.509694 
z
" clip-path="url(#p5c97901f03)" style="fill: #1f77b4"/>
   </g>
   <g id="patch_161">
    <path d="M 996.218182 256.32 
L 998.605348 256.32 
L 998.605348 252.907598 
L 996.218182 252.907598 
z
" clip-path="url(#p5c97901f03)" style="fill: #1f77b4"/>
   </g>
   <g id="patch_162">
    <path d="M 998.605348 256.32 
L 1000.992513 256.32 
L 1000.992513 254.10655 
L 998.605348 254.10655 
z
" clip-path="url(#p5c97901f03)" style="fill: #1f77b4"/>
   </g>
   <g id="patch_163">
    <path d="M 1000.992513 256.32 
L 1003.379679 256.32 
L 1003.379679 254.291004 
L 1000.992513 254.291004 
z
" clip-path="url(#p5c97901f03)" style="fill: #1f77b4"/>
   </g>
   <g id="patch_164">
    <path d="M 1003.379679 256.32 
L 1005.766845 256.32 
L 1005.766845 254.014323 
L 1003.379679 254.014323 
z
" clip-path="url(#p5c97901f03)" style="fill: #1f77b4"/>
   </g>
   <g id="patch_165">
    <path d="M 1005.766845 256.32 
L 1008.154011 256.32 
L 1008.154011 254.567686 
L 1005.766845 254.567686 
z
" clip-path="url(#p5c97901f03)" style="fill: #1f77b4"/>
   </g>
   <g id="patch_166">
    <path d="M 1008.154011 256.32 
L 1010.541176 256.32 
L 1010.541176 255.305502 
L 1008.154011 255.305502 
z
" clip-path="url(#p5c97901f03)" style="fill: #1f77b4"/>
   </g>
   <g id="patch_167">
    <path d="M 1010.541176 256.32 
L 1012.928342 256.32 
L 1012.928342 255.582183 
L 1010.541176 255.582183 
z
" clip-path="url(#p5c97901f03)" style="fill: #1f77b4"/>
   </g>
   <g id="patch_168">
    <path d="M 1012.928342 256.32 
L 1015.315508 256.32 
L 1015.315508 255.766638 
L 1012.928342 255.766638 
z
" clip-path="url(#p5c97901f03)" style="fill: #1f77b4"/>
   </g>
   <g id="patch_169">
    <path d="M 1015.315508 256.32 
L 1017.702674 256.32 
L 1017.702674 256.135546 
L 1015.315508 256.135546 
z
" clip-path="url(#p5c97901f03)" style="fill: #1f77b4"/>
   </g>
   <g id="patch_170">
    <path d="M 1017.702674 256.32 
L 1020.08984 256.32 
L 1020.08984 255.858865 
L 1017.702674 255.858865 
z
" clip-path="url(#p5c97901f03)" style="fill: #1f77b4"/>
   </g>
   <g id="patch_171">
    <path d="M 1020.08984 256.32 
L 1022.477005 256.32 
L 1022.477005 256.135546 
L 1020.08984 256.135546 
z
" clip-path="url(#p5c97901f03)" style="fill: #1f77b4"/>
   </g>
   <g id="patch_172">
    <path d="M 1022.477005 256.32 
L 1024.864171 256.32 
L 1024.864171 256.043319 
L 1022.477005 256.043319 
z
" clip-path="url(#p5c97901f03)" style="fill: #1f77b4"/>
   </g>
   <g id="matplotlib.axis_5">
    <g id="xtick_13">
     <g id="line2d_29">
      <path d="M 804.490114 256.32 
L 804.490114 34.56 
" clip-path="url(#p5c97901f03)" style="fill: none; stroke: #b0b0b0; stroke-width: 0.8; stroke-linecap: square"/>
     </g>
     <g id="line2d_30">
      <g>
       <use xlink:href="#m2ba0ec3017" x="804.490114" y="256.32" style="stroke: #000000; stroke-width: 0.8"/>
      </g>
     </g>
     <g id="text_33">
      <!-- 0.6 -->
      <g transform="translate(796.538552 270.918437) scale(0.1 -0.1)">
       <use xlink:href="#DejaVuSans-30"/>
       <use xlink:href="#DejaVuSans-2e" x="63.623047"/>
       <use xlink:href="#DejaVuSans-36" x="95.410156"/>
      </g>
     </g>
    </g>
    <g id="xtick_14">
     <g id="line2d_31">
      <path d="M 849.373396 256.32 
L 849.373396 34.56 
" clip-path="url(#p5c97901f03)" style="fill: none; stroke: #b0b0b0; stroke-width: 0.8; stroke-linecap: square"/>
     </g>
     <g id="line2d_32">
      <g>
       <use xlink:href="#m2ba0ec3017" x="849.373396" y="256.32" style="stroke: #000000; stroke-width: 0.8"/>
      </g>
     </g>
     <g id="text_34">
      <!-- 0.8 -->
      <g transform="translate(841.421833 270.918437) scale(0.1 -0.1)">
       <use xlink:href="#DejaVuSans-30"/>
       <use xlink:href="#DejaVuSans-2e" x="63.623047"/>
       <use xlink:href="#DejaVuSans-38" x="95.410156"/>
      </g>
     </g>
    </g>
    <g id="xtick_15">
     <g id="line2d_33">
      <path d="M 894.256677 256.32 
L 894.256677 34.56 
" clip-path="url(#p5c97901f03)" style="fill: none; stroke: #b0b0b0; stroke-width: 0.8; stroke-linecap: square"/>
     </g>
     <g id="line2d_34">
      <g>
       <use xlink:href="#m2ba0ec3017" x="894.256677" y="256.32" style="stroke: #000000; stroke-width: 0.8"/>
      </g>
     </g>
     <g id="text_35">
      <!-- 1.0 -->
      <g transform="translate(886.305114 270.918437) scale(0.1 -0.1)">
       <use xlink:href="#DejaVuSans-31"/>
       <use xlink:href="#DejaVuSans-2e" x="63.623047"/>
       <use xlink:href="#DejaVuSans-30" x="95.410156"/>
      </g>
     </g>
    </g>
    <g id="xtick_16">
     <g id="line2d_35">
      <path d="M 939.139958 256.32 
L 939.139958 34.56 
" clip-path="url(#p5c97901f03)" style="fill: none; stroke: #b0b0b0; stroke-width: 0.8; stroke-linecap: square"/>
     </g>
     <g id="line2d_36">
      <g>
       <use xlink:href="#m2ba0ec3017" x="939.139958" y="256.32" style="stroke: #000000; stroke-width: 0.8"/>
      </g>
     </g>
     <g id="text_36">
      <!-- 1.2 -->
      <g transform="translate(931.188396 270.918437) scale(0.1 -0.1)">
       <use xlink:href="#DejaVuSans-31"/>
       <use xlink:href="#DejaVuSans-2e" x="63.623047"/>
       <use xlink:href="#DejaVuSans-32" x="95.410156"/>
      </g>
     </g>
    </g>
    <g id="xtick_17">
     <g id="line2d_37">
      <path d="M 984.02324 256.32 
L 984.02324 34.56 
" clip-path="url(#p5c97901f03)" style="fill: none; stroke: #b0b0b0; stroke-width: 0.8; stroke-linecap: square"/>
     </g>
     <g id="line2d_38">
      <g>
       <use xlink:href="#m2ba0ec3017" x="984.02324" y="256.32" style="stroke: #000000; stroke-width: 0.8"/>
      </g>
     </g>
     <g id="text_37">
      <!-- 1.4 -->
      <g transform="translate(976.071677 270.918437) scale(0.1 -0.1)">
       <use xlink:href="#DejaVuSans-31"/>
       <use xlink:href="#DejaVuSans-2e" x="63.623047"/>
       <use xlink:href="#DejaVuSans-34" x="95.410156"/>
      </g>
     </g>
    </g>
    <g id="xtick_18">
     <g id="line2d_39">
      <path d="M 1028.906521 256.32 
L 1028.906521 34.56 
" clip-path="url(#p5c97901f03)" style="fill: none; stroke: #b0b0b0; stroke-width: 0.8; stroke-linecap: square"/>
     </g>
     <g id="line2d_40">
      <g>
       <use xlink:href="#m2ba0ec3017" x="1028.906521" y="256.32" style="stroke: #000000; stroke-width: 0.8"/>
      </g>
     </g>
     <g id="text_38">
      <!-- 1.6 -->
      <g transform="translate(1020.954959 270.918437) scale(0.1 -0.1)">
       <use xlink:href="#DejaVuSans-31"/>
       <use xlink:href="#DejaVuSans-2e" x="63.623047"/>
       <use xlink:href="#DejaVuSans-36" x="95.410156"/>
      </g>
     </g>
    </g>
   </g>
   <g id="matplotlib.axis_6">
    <g id="ytick_15">
     <g id="line2d_41">
      <path d="M 774.211765 256.32 
L 1036.8 256.32 
" clip-path="url(#p5c97901f03)" style="fill: none; stroke: #b0b0b0; stroke-width: 0.8; stroke-linecap: square"/>
     </g>
     <g id="line2d_42">
      <g>
       <use xlink:href="#m4c14022766" x="774.211765" y="256.32" style="stroke: #000000; stroke-width: 0.8"/>
      </g>
     </g>
     <g id="text_39">
      <!-- 0 -->
      <g transform="translate(760.849265 260.119219) scale(0.1 -0.1)">
       <use xlink:href="#DejaVuSans-30"/>
      </g>
     </g>
    </g>
    <g id="ytick_16">
     <g id="line2d_43">
      <path d="M 774.211765 210.206463 
L 1036.8 210.206463 
" clip-path="url(#p5c97901f03)" style="fill: none; stroke: #b0b0b0; stroke-width: 0.8; stroke-linecap: square"/>
     </g>
     <g id="line2d_44">
      <g>
       <use xlink:href="#m4c14022766" x="774.211765" y="210.206463" style="stroke: #000000; stroke-width: 0.8"/>
      </g>
     </g>
     <g id="text_40">
      <!-- 500 -->
      <g transform="translate(748.124265 214.005682) scale(0.1 -0.1)">
       <use xlink:href="#DejaVuSans-35"/>
       <use xlink:href="#DejaVuSans-30" x="63.623047"/>
       <use xlink:href="#DejaVuSans-30" x="127.246094"/>
      </g>
     </g>
    </g>
    <g id="ytick_17">
     <g id="line2d_45">
      <path d="M 774.211765 164.092926 
L 1036.8 164.092926 
" clip-path="url(#p5c97901f03)" style="fill: none; stroke: #b0b0b0; stroke-width: 0.8; stroke-linecap: square"/>
     </g>
     <g id="line2d_46">
      <g>
       <use xlink:href="#m4c14022766" x="774.211765" y="164.092926" style="stroke: #000000; stroke-width: 0.8"/>
      </g>
     </g>
     <g id="text_41">
      <!-- 1000 -->
      <g transform="translate(741.761765 167.892145) scale(0.1 -0.1)">
       <use xlink:href="#DejaVuSans-31"/>
       <use xlink:href="#DejaVuSans-30" x="63.623047"/>
       <use xlink:href="#DejaVuSans-30" x="127.246094"/>
       <use xlink:href="#DejaVuSans-30" x="190.869141"/>
      </g>
     </g>
    </g>
    <g id="ytick_18">
     <g id="line2d_47">
      <path d="M 774.211765 117.979389 
L 1036.8 117.979389 
" clip-path="url(#p5c97901f03)" style="fill: none; stroke: #b0b0b0; stroke-width: 0.8; stroke-linecap: square"/>
     </g>
     <g id="line2d_48">
      <g>
       <use xlink:href="#m4c14022766" x="774.211765" y="117.979389" style="stroke: #000000; stroke-width: 0.8"/>
      </g>
     </g>
     <g id="text_42">
      <!-- 1500 -->
      <g transform="translate(741.761765 121.778607) scale(0.1 -0.1)">
       <use xlink:href="#DejaVuSans-31"/>
       <use xlink:href="#DejaVuSans-35" x="63.623047"/>
       <use xlink:href="#DejaVuSans-30" x="127.246094"/>
       <use xlink:href="#DejaVuSans-30" x="190.869141"/>
      </g>
     </g>
    </g>
    <g id="ytick_19">
     <g id="line2d_49">
      <path d="M 774.211765 71.865852 
L 1036.8 71.865852 
" clip-path="url(#p5c97901f03)" style="fill: none; stroke: #b0b0b0; stroke-width: 0.8; stroke-linecap: square"/>
     </g>
     <g id="line2d_50">
      <g>
       <use xlink:href="#m4c14022766" x="774.211765" y="71.865852" style="stroke: #000000; stroke-width: 0.8"/>
      </g>
     </g>
     <g id="text_43">
      <!-- 2000 -->
      <g transform="translate(741.761765 75.66507) scale(0.1 -0.1)">
       <use xlink:href="#DejaVuSans-32"/>
       <use xlink:href="#DejaVuSans-30" x="63.623047"/>
       <use xlink:href="#DejaVuSans-30" x="127.246094"/>
       <use xlink:href="#DejaVuSans-30" x="190.869141"/>
      </g>
     </g>
    </g>
   </g>
   <g id="patch_173">
    <path d="M 774.211765 256.32 
L 774.211765 34.56 
" style="fill: none; stroke: #000000; stroke-width: 0.8; stroke-linejoin: miter; stroke-linecap: square"/>
   </g>
   <g id="patch_174">
    <path d="M 1036.8 256.32 
L 1036.8 34.56 
" style="fill: none; stroke: #000000; stroke-width: 0.8; stroke-linejoin: miter; stroke-linecap: square"/>
   </g>
   <g id="patch_175">
    <path d="M 774.211765 256.32 
L 1036.8 256.32 
" style="fill: none; stroke: #000000; stroke-width: 0.8; stroke-linejoin: miter; stroke-linecap: square"/>
   </g>
   <g id="patch_176">
    <path d="M 774.211765 34.56 
L 1036.8 34.56 
" style="fill: none; stroke: #000000; stroke-width: 0.8; stroke-linejoin: miter; stroke-linecap: square"/>
   </g>
   <g id="text_44">
    <!-- Scale factors v. naive aniso scaling -->
    <g transform="translate(800.751507 28.56) scale(0.12 -0.12)">
     <defs>
      <path id="DejaVuSans-53" d="M 3425 4513 
L 3425 3897 
Q 3066 4069 2747 4153 
Q 2428 4238 2131 4238 
Q 1616 4238 1336 4038 
Q 1056 3838 1056 3469 
Q 1056 3159 1242 3001 
Q 1428 2844 1947 2747 
L 2328 2669 
Q 3034 2534 3370 2195 
Q 3706 1856 3706 1288 
Q 3706 609 3251 259 
Q 2797 -91 1919 -91 
Q 1588 -91 1214 -16 
Q 841 59 441 206 
L 441 856 
Q 825 641 1194 531 
Q 1563 422 1919 422 
Q 2459 422 2753 634 
Q 3047 847 3047 1241 
Q 3047 1584 2836 1778 
Q 2625 1972 2144 2069 
L 1759 2144 
Q 1053 2284 737 2584 
Q 422 2884 422 3419 
Q 422 4038 858 4394 
Q 1294 4750 2059 4750 
Q 2388 4750 2728 4690 
Q 3069 4631 3425 4513 
z
" transform="scale(0.015625)"/>
      <path id="DejaVuSans-76" d="M 191 3500 
L 800 3500 
L 1894 563 
L 2988 3500 
L 3597 3500 
L 2284 0 
L 1503 0 
L 191 3500 
z
" transform="scale(0.015625)"/>
      <path id="DejaVuSans-67" d="M 2906 1791 
Q 2906 2416 2648 2759 
Q 2391 3103 1925 3103 
Q 1463 3103 1205 2759 
Q 947 2416 947 1791 
Q 947 1169 1205 825 
Q 1463 481 1925 481 
Q 2391 481 2648 825 
Q 2906 1169 2906 1791 
z
M 3481 434 
Q 3481 -459 3084 -895 
Q 2688 -1331 1869 -1331 
Q 1566 -1331 1297 -1286 
Q 1028 -1241 775 -1147 
L 775 -588 
Q 1028 -725 1275 -790 
Q 1522 -856 1778 -856 
Q 2344 -856 2625 -561 
Q 2906 -266 2906 331 
L 2906 616 
Q 2728 306 2450 153 
Q 2172 0 1784 0 
Q 1141 0 747 490 
Q 353 981 353 1791 
Q 353 2603 747 3093 
Q 1141 3584 1784 3584 
Q 2172 3584 2450 3431 
Q 2728 3278 2906 2969 
L 2906 3500 
L 3481 3500 
L 3481 434 
z
" transform="scale(0.015625)"/>
     </defs>
     <use xlink:href="#DejaVuSans-53"/>
     <use xlink:href="#DejaVuSans-63" x="63.476562"/>
     <use xlink:href="#DejaVuSans-61" x="118.457031"/>
     <use xlink:href="#DejaVuSans-6c" x="179.736328"/>
     <use xlink:href="#DejaVuSans-65" x="207.519531"/>
     <use xlink:href="#DejaVuSans-20" x="269.042969"/>
     <use xlink:href="#DejaVuSans-66" x="300.830078"/>
     <use xlink:href="#DejaVuSans-61" x="336.035156"/>
     <use xlink:href="#DejaVuSans-63" x="397.314453"/>
     <use xlink:href="#DejaVuSans-74" x="452.294922"/>
     <use xlink:href="#DejaVuSans-6f" x="491.503906"/>
     <use xlink:href="#DejaVuSans-72" x="552.685547"/>
     <use xlink:href="#DejaVuSans-73" x="593.798828"/>
     <use xlink:href="#DejaVuSans-20" x="645.898438"/>
     <use xlink:href="#DejaVuSans-76" x="677.685547"/>
     <use xlink:href="#DejaVuSans-2e" x="729.115234"/>
     <use xlink:href="#DejaVuSans-20" x="760.902344"/>
     <use xlink:href="#DejaVuSans-6e" x="792.689453"/>
     <use xlink:href="#DejaVuSans-61" x="856.068359"/>
     <use xlink:href="#DejaVuSans-69" x="917.347656"/>
     <use xlink:href="#DejaVuSans-76" x="945.130859"/>
     <use xlink:href="#DejaVuSans-65" x="1004.310547"/>
     <use xlink:href="#DejaVuSans-20" x="1065.833984"/>
     <use xlink:href="#DejaVuSans-61" x="1097.621094"/>
     <use xlink:href="#DejaVuSans-6e" x="1158.900391"/>
     <use xlink:href="#DejaVuSans-69" x="1222.279297"/>
     <use xlink:href="#DejaVuSans-73" x="1250.0625"/>
     <use xlink:href="#DejaVuSans-6f" x="1302.162109"/>
     <use xlink:href="#DejaVuSans-20" x="1363.34375"/>
     <use xlink:href="#DejaVuSans-73" x="1395.130859"/>
     <use xlink:href="#DejaVuSans-63" x="1447.230469"/>
     <use xlink:href="#DejaVuSans-61" x="1502.210938"/>
     <use xlink:href="#DejaVuSans-6c" x="1563.490234"/>
     <use xlink:href="#DejaVuSans-69" x="1591.273438"/>
     <use xlink:href="#DejaVuSans-6e" x="1619.056641"/>
     <use xlink:href="#DejaVuSans-67" x="1682.435547"/>
    </g>
   </g>
  </g>
 </g>
 <defs>
  <clipPath id="pf11372a0a5">
   <rect x="144" y="34.56" width="262.588235" height="221.76"/>
  </clipPath>
  <clipPath id="p3b0664542b">
   <rect x="459.105882" y="34.56" width="262.588235" height="221.76"/>
  </clipPath>
  <clipPath id="p5c97901f03">
   <rect x="774.211765" y="34.56" width="262.588235" height="221.76"/>
  </clipPath>
 </defs>
</svg>
