<?xml version="1.0" encoding="utf-8" standalone="no"?>
<!DOCTYPE svg PUBLIC "-//W3C//DTD SVG 1.1//EN"
  "http://www.w3.org/Graphics/SVG/1.1/DTD/svg11.dtd">
<svg xmlns:xlink="http://www.w3.org/1999/xlink" width="1152pt" height="288pt" viewBox="0 0 1152 288" xmlns="http://www.w3.org/2000/svg" version="1.1">
 <metadata>
  <rdf:RDF xmlns:dc="http://purl.org/dc/elements/1.1/" xmlns:cc="http://creativecommons.org/ns#" xmlns:rdf="http://www.w3.org/1999/02/22-rdf-syntax-ns#">
   <cc:Work>
    <dc:type rdf:resource="http://purl.org/dc/dcmitype/StillImage"/>
    <dc:date>2024-03-19T12:39:02.314807</dc:date>
    <dc:format>image/svg+xml</dc:format>
    <dc:creator>
     <cc:Agent>
      <dc:title>Matplotlib v3.8.2, https://matplotlib.org/</dc:title>
     </cc:Agent>
    </dc:creator>
   </cc:Work>
  </rdf:RDF>
 </metadata>
 <defs>
  <style type="text/css">*{stroke-linejoin: round; stroke-linecap: butt}</style>
 </defs>
 <g id="figure_1">
  <g id="patch_1">
   <path d="M 0 288 
L 1152 288 
L 1152 0 
L 0 0 
z
" style="fill: #ffffff"/>
  </g>
  <g id="axes_1">
   <g id="patch_2">
    <path d="M 144 256.32 
L 406.588235 256.32 
L 406.588235 34.56 
L 144 34.56 
z
" style="fill: #ffffff"/>
   </g>
   <g id="patch_3">
    <path d="M 144.868151 256.32 
L 153.885401 256.32 
L 153.885401 89.680051 
L 144.868151 89.680051 
z
" clip-path="url(#p8ad72501b3)" style="fill: #1f77b4; opacity: 0.5"/>
   </g>
   <g id="patch_4">
    <path d="M 153.885401 256.32 
L 162.902652 256.32 
L 162.902652 49.613615 
L 153.885401 49.613615 
z
" clip-path="url(#p8ad72501b3)" style="fill: #1f77b4; opacity: 0.5"/>
   </g>
   <g id="patch_5">
    <path d="M 162.902652 256.32 
L 171.919902 256.32 
L 171.919902 50.979516 
L 162.902652 50.979516 
z
" clip-path="url(#p8ad72501b3)" style="fill: #1f77b4; opacity: 0.5"/>
   </g>
   <g id="patch_6">
    <path d="M 171.919902 256.32 
L 180.937152 256.32 
L 180.937152 81.029343 
L 171.919902 81.029343 
z
" clip-path="url(#p8ad72501b3)" style="fill: #1f77b4; opacity: 0.5"/>
   </g>
   <g id="patch_7">
    <path d="M 180.937152 256.32 
L 189.954402 256.32 
L 189.954402 92.411853 
L 180.937152 92.411853 
z
" clip-path="url(#p8ad72501b3)" style="fill: #1f77b4; opacity: 0.5"/>
   </g>
   <g id="patch_8">
    <path d="M 189.954402 256.32 
L 198.971652 256.32 
L 198.971652 106.981466 
L 189.954402 106.981466 
z
" clip-path="url(#p8ad72501b3)" style="fill: #1f77b4; opacity: 0.5"/>
   </g>
   <g id="patch_9">
    <path d="M 198.971652 256.32 
L 207.988903 256.32 
L 207.988903 142.039598 
L 198.971652 142.039598 
z
" clip-path="url(#p8ad72501b3)" style="fill: #1f77b4; opacity: 0.5"/>
   </g>
   <g id="patch_10">
    <path d="M 207.988903 256.32 
L 217.006153 256.32 
L 217.006153 157.975112 
L 207.988903 157.975112 
z
" clip-path="url(#p8ad72501b3)" style="fill: #1f77b4; opacity: 0.5"/>
   </g>
   <g id="patch_11">
    <path d="M 217.006153 256.32 
L 226.023403 256.32 
L 226.023403 171.178824 
L 217.006153 171.178824 
z
" clip-path="url(#p8ad72501b3)" style="fill: #1f77b4; opacity: 0.5"/>
   </g>
   <g id="patch_12">
    <path d="M 226.023403 256.32 
L 235.040653 256.32 
L 235.040653 200.31805 
L 226.023403 200.31805 
z
" clip-path="url(#p8ad72501b3)" style="fill: #1f77b4; opacity: 0.5"/>
   </g>
   <g id="patch_13">
    <path d="M 235.040653 256.32 
L 244.057903 256.32 
L 244.057903 218.985367 
L 235.040653 218.985367 
z
" clip-path="url(#p8ad72501b3)" style="fill: #1f77b4; opacity: 0.5"/>
   </g>
   <g id="patch_14">
    <path d="M 244.057903 256.32 
L 253.075154 256.32 
L 253.075154 230.823177 
L 244.057903 230.823177 
z
" clip-path="url(#p8ad72501b3)" style="fill: #1f77b4; opacity: 0.5"/>
   </g>
   <g id="patch_15">
    <path d="M 253.075154 256.32 
L 262.092404 256.32 
L 262.092404 236.742082 
L 253.075154 236.742082 
z
" clip-path="url(#p8ad72501b3)" style="fill: #1f77b4; opacity: 0.5"/>
   </g>
   <g id="patch_16">
    <path d="M 262.092404 256.32 
L 271.109654 256.32 
L 271.109654 239.018585 
L 262.092404 239.018585 
z
" clip-path="url(#p8ad72501b3)" style="fill: #1f77b4; opacity: 0.5"/>
   </g>
   <g id="patch_17">
    <path d="M 271.109654 256.32 
L 280.126904 256.32 
L 280.126904 246.758691 
L 271.109654 246.758691 
z
" clip-path="url(#p8ad72501b3)" style="fill: #1f77b4; opacity: 0.5"/>
   </g>
   <g id="patch_18">
    <path d="M 280.126904 256.32 
L 289.144154 256.32 
L 289.144154 252.222296 
L 280.126904 252.222296 
z
" clip-path="url(#p8ad72501b3)" style="fill: #1f77b4; opacity: 0.5"/>
   </g>
   <g id="patch_19">
    <path d="M 289.144154 256.32 
L 298.161405 256.32 
L 298.161405 251.311696 
L 289.144154 251.311696 
z
" clip-path="url(#p8ad72501b3)" style="fill: #1f77b4; opacity: 0.5"/>
   </g>
   <g id="patch_20">
    <path d="M 298.161405 256.32 
L 307.178655 256.32 
L 307.178655 254.954099 
L 298.161405 254.954099 
z
" clip-path="url(#p8ad72501b3)" style="fill: #1f77b4; opacity: 0.5"/>
   </g>
   <g id="patch_21">
    <path d="M 307.178655 256.32 
L 316.195905 256.32 
L 316.195905 255.8647 
L 307.178655 255.8647 
z
" clip-path="url(#p8ad72501b3)" style="fill: #1f77b4; opacity: 0.5"/>
   </g>
   <g id="patch_22">
    <path d="M 316.195905 256.32 
L 325.213155 256.32 
L 325.213155 255.8647 
L 316.195905 255.8647 
z
" clip-path="url(#p8ad72501b3)" style="fill: #1f77b4; opacity: 0.5"/>
   </g>
   <g id="matplotlib.axis_1">
    <g id="xtick_1">
     <g id="line2d_1">
      <defs>
       <path id="m05885192c5" d="M 0 0 
L 0 3.5 
" style="stroke: #000000; stroke-width: 0.8"/>
      </defs>
      <g>
       <use xlink:href="#m05885192c5" x="144" y="256.32" style="stroke: #000000; stroke-width: 0.8"/>
      </g>
     </g>
     <g id="text_1">
      <!-- 0 -->
      <g transform="translate(140.81875 270.918437) scale(0.1 -0.1)">
       <defs>
        <path id="DejaVuSans-30" d="M 2034 4250 
Q 1547 4250 1301 3770 
Q 1056 3291 1056 2328 
Q 1056 1369 1301 889 
Q 1547 409 2034 409 
Q 2525 409 2770 889 
Q 3016 1369 3016 2328 
Q 3016 3291 2770 3770 
Q 2525 4250 2034 4250 
z
M 2034 4750 
Q 2819 4750 3233 4129 
Q 3647 3509 3647 2328 
Q 3647 1150 3233 529 
Q 2819 -91 2034 -91 
Q 1250 -91 836 529 
Q 422 1150 422 2328 
Q 422 3509 836 4129 
Q 1250 4750 2034 4750 
z
" transform="scale(0.015625)"/>
       </defs>
       <use xlink:href="#DejaVuSans-30"/>
      </g>
     </g>
    </g>
    <g id="xtick_2">
     <g id="line2d_2">
      <g>
       <use xlink:href="#m05885192c5" x="196.517647" y="256.32" style="stroke: #000000; stroke-width: 0.8"/>
      </g>
     </g>
     <g id="text_2">
      <!-- 1 -->
      <g transform="translate(193.336397 270.918437) scale(0.1 -0.1)">
       <defs>
        <path id="DejaVuSans-31" d="M 794 531 
L 1825 531 
L 1825 4091 
L 703 3866 
L 703 4441 
L 1819 4666 
L 2450 4666 
L 2450 531 
L 3481 531 
L 3481 0 
L 794 0 
L 794 531 
z
" transform="scale(0.015625)"/>
       </defs>
       <use xlink:href="#DejaVuSans-31"/>
      </g>
     </g>
    </g>
    <g id="xtick_3">
     <g id="line2d_3">
      <g>
       <use xlink:href="#m05885192c5" x="249.035294" y="256.32" style="stroke: #000000; stroke-width: 0.8"/>
      </g>
     </g>
     <g id="text_3">
      <!-- 2 -->
      <g transform="translate(245.854044 270.918437) scale(0.1 -0.1)">
       <defs>
        <path id="DejaVuSans-32" d="M 1228 531 
L 3431 531 
L 3431 0 
L 469 0 
L 469 531 
Q 828 903 1448 1529 
Q 2069 2156 2228 2338 
Q 2531 2678 2651 2914 
Q 2772 3150 2772 3378 
Q 2772 3750 2511 3984 
Q 2250 4219 1831 4219 
Q 1534 4219 1204 4116 
Q 875 4013 500 3803 
L 500 4441 
Q 881 4594 1212 4672 
Q 1544 4750 1819 4750 
Q 2544 4750 2975 4387 
Q 3406 4025 3406 3419 
Q 3406 3131 3298 2873 
Q 3191 2616 2906 2266 
Q 2828 2175 2409 1742 
Q 1991 1309 1228 531 
z
" transform="scale(0.015625)"/>
       </defs>
       <use xlink:href="#DejaVuSans-32"/>
      </g>
     </g>
    </g>
    <g id="xtick_4">
     <g id="line2d_4">
      <g>
       <use xlink:href="#m05885192c5" x="301.552941" y="256.32" style="stroke: #000000; stroke-width: 0.8"/>
      </g>
     </g>
     <g id="text_4">
      <!-- 3 -->
      <g transform="translate(298.371691 270.918437) scale(0.1 -0.1)">
       <defs>
        <path id="DejaVuSans-33" d="M 2597 2516 
Q 3050 2419 3304 2112 
Q 3559 1806 3559 1356 
Q 3559 666 3084 287 
Q 2609 -91 1734 -91 
Q 1441 -91 1130 -33 
Q 819 25 488 141 
L 488 750 
Q 750 597 1062 519 
Q 1375 441 1716 441 
Q 2309 441 2620 675 
Q 2931 909 2931 1356 
Q 2931 1769 2642 2001 
Q 2353 2234 1838 2234 
L 1294 2234 
L 1294 2753 
L 1863 2753 
Q 2328 2753 2575 2939 
Q 2822 3125 2822 3475 
Q 2822 3834 2567 4026 
Q 2313 4219 1838 4219 
Q 1578 4219 1281 4162 
Q 984 4106 628 3988 
L 628 4550 
Q 988 4650 1302 4700 
Q 1616 4750 1894 4750 
Q 2613 4750 3031 4423 
Q 3450 4097 3450 3541 
Q 3450 3153 3228 2886 
Q 3006 2619 2597 2516 
z
" transform="scale(0.015625)"/>
       </defs>
       <use xlink:href="#DejaVuSans-33"/>
      </g>
     </g>
    </g>
    <g id="xtick_5">
     <g id="line2d_5">
      <g>
       <use xlink:href="#m05885192c5" x="354.070588" y="256.32" style="stroke: #000000; stroke-width: 0.8"/>
      </g>
     </g>
     <g id="text_5">
      <!-- 4 -->
      <g transform="translate(350.889338 270.918437) scale(0.1 -0.1)">
       <defs>
        <path id="DejaVuSans-34" d="M 2419 4116 
L 825 1625 
L 2419 1625 
L 2419 4116 
z
M 2253 4666 
L 3047 4666 
L 3047 1625 
L 3713 1625 
L 3713 1100 
L 3047 1100 
L 3047 0 
L 2419 0 
L 2419 1100 
L 313 1100 
L 313 1709 
L 2253 4666 
z
" transform="scale(0.015625)"/>
       </defs>
       <use xlink:href="#DejaVuSans-34"/>
      </g>
     </g>
    </g>
    <g id="xtick_6">
     <g id="line2d_6">
      <g>
       <use xlink:href="#m05885192c5" x="406.588235" y="256.32" style="stroke: #000000; stroke-width: 0.8"/>
      </g>
     </g>
     <g id="text_6">
      <!-- 5 -->
      <g transform="translate(403.406985 270.918437) scale(0.1 -0.1)">
       <defs>
        <path id="DejaVuSans-35" d="M 691 4666 
L 3169 4666 
L 3169 4134 
L 1269 4134 
L 1269 2991 
Q 1406 3038 1543 3061 
Q 1681 3084 1819 3084 
Q 2600 3084 3056 2656 
Q 3513 2228 3513 1497 
Q 3513 744 3044 326 
Q 2575 -91 1722 -91 
Q 1428 -91 1123 -41 
Q 819 9 494 109 
L 494 744 
Q 775 591 1075 516 
Q 1375 441 1709 441 
Q 2250 441 2565 725 
Q 2881 1009 2881 1497 
Q 2881 1984 2565 2268 
Q 2250 2553 1709 2553 
Q 1456 2553 1204 2497 
Q 953 2441 691 2322 
L 691 4666 
z
" transform="scale(0.015625)"/>
       </defs>
       <use xlink:href="#DejaVuSans-35"/>
      </g>
     </g>
    </g>
    <g id="text_7">
     <!-- Normalized sf amplitude -->
     <g transform="translate(214.129274 284.596563) scale(0.1 -0.1)">
      <defs>
       <path id="DejaVuSans-4e" d="M 628 4666 
L 1478 4666 
L 3547 763 
L 3547 4666 
L 4159 4666 
L 4159 0 
L 3309 0 
L 1241 3903 
L 1241 0 
L 628 0 
L 628 4666 
z
" transform="scale(0.015625)"/>
       <path id="DejaVuSans-6f" d="M 1959 3097 
Q 1497 3097 1228 2736 
Q 959 2375 959 1747 
Q 959 1119 1226 758 
Q 1494 397 1959 397 
Q 2419 397 2687 759 
Q 2956 1122 2956 1747 
Q 2956 2369 2687 2733 
Q 2419 3097 1959 3097 
z
M 1959 3584 
Q 2709 3584 3137 3096 
Q 3566 2609 3566 1747 
Q 3566 888 3137 398 
Q 2709 -91 1959 -91 
Q 1206 -91 779 398 
Q 353 888 353 1747 
Q 353 2609 779 3096 
Q 1206 3584 1959 3584 
z
" transform="scale(0.015625)"/>
       <path id="DejaVuSans-72" d="M 2631 2963 
Q 2534 3019 2420 3045 
Q 2306 3072 2169 3072 
Q 1681 3072 1420 2755 
Q 1159 2438 1159 1844 
L 1159 0 
L 581 0 
L 581 3500 
L 1159 3500 
L 1159 2956 
Q 1341 3275 1631 3429 
Q 1922 3584 2338 3584 
Q 2397 3584 2469 3576 
Q 2541 3569 2628 3553 
L 2631 2963 
z
" transform="scale(0.015625)"/>
       <path id="DejaVuSans-6d" d="M 3328 2828 
Q 3544 3216 3844 3400 
Q 4144 3584 4550 3584 
Q 5097 3584 5394 3201 
Q 5691 2819 5691 2113 
L 5691 0 
L 5113 0 
L 5113 2094 
Q 5113 2597 4934 2840 
Q 4756 3084 4391 3084 
Q 3944 3084 3684 2787 
Q 3425 2491 3425 1978 
L 3425 0 
L 2847 0 
L 2847 2094 
Q 2847 2600 2669 2842 
Q 2491 3084 2119 3084 
Q 1678 3084 1418 2786 
Q 1159 2488 1159 1978 
L 1159 0 
L 581 0 
L 581 3500 
L 1159 3500 
L 1159 2956 
Q 1356 3278 1631 3431 
Q 1906 3584 2284 3584 
Q 2666 3584 2933 3390 
Q 3200 3197 3328 2828 
z
" transform="scale(0.015625)"/>
       <path id="DejaVuSans-61" d="M 2194 1759 
Q 1497 1759 1228 1600 
Q 959 1441 959 1056 
Q 959 750 1161 570 
Q 1363 391 1709 391 
Q 2188 391 2477 730 
Q 2766 1069 2766 1631 
L 2766 1759 
L 2194 1759 
z
M 3341 1997 
L 3341 0 
L 2766 0 
L 2766 531 
Q 2569 213 2275 61 
Q 1981 -91 1556 -91 
Q 1019 -91 701 211 
Q 384 513 384 1019 
Q 384 1609 779 1909 
Q 1175 2209 1959 2209 
L 2766 2209 
L 2766 2266 
Q 2766 2663 2505 2880 
Q 2244 3097 1772 3097 
Q 1472 3097 1187 3025 
Q 903 2953 641 2809 
L 641 3341 
Q 956 3463 1253 3523 
Q 1550 3584 1831 3584 
Q 2591 3584 2966 3190 
Q 3341 2797 3341 1997 
z
" transform="scale(0.015625)"/>
       <path id="DejaVuSans-6c" d="M 603 4863 
L 1178 4863 
L 1178 0 
L 603 0 
L 603 4863 
z
" transform="scale(0.015625)"/>
       <path id="DejaVuSans-69" d="M 603 3500 
L 1178 3500 
L 1178 0 
L 603 0 
L 603 3500 
z
M 603 4863 
L 1178 4863 
L 1178 4134 
L 603 4134 
L 603 4863 
z
" transform="scale(0.015625)"/>
       <path id="DejaVuSans-7a" d="M 353 3500 
L 3084 3500 
L 3084 2975 
L 922 459 
L 3084 459 
L 3084 0 
L 275 0 
L 275 525 
L 2438 3041 
L 353 3041 
L 353 3500 
z
" transform="scale(0.015625)"/>
       <path id="DejaVuSans-65" d="M 3597 1894 
L 3597 1613 
L 953 1613 
Q 991 1019 1311 708 
Q 1631 397 2203 397 
Q 2534 397 2845 478 
Q 3156 559 3463 722 
L 3463 178 
Q 3153 47 2828 -22 
Q 2503 -91 2169 -91 
Q 1331 -91 842 396 
Q 353 884 353 1716 
Q 353 2575 817 3079 
Q 1281 3584 2069 3584 
Q 2775 3584 3186 3129 
Q 3597 2675 3597 1894 
z
M 3022 2063 
Q 3016 2534 2758 2815 
Q 2500 3097 2075 3097 
Q 1594 3097 1305 2825 
Q 1016 2553 972 2059 
L 3022 2063 
z
" transform="scale(0.015625)"/>
       <path id="DejaVuSans-64" d="M 2906 2969 
L 2906 4863 
L 3481 4863 
L 3481 0 
L 2906 0 
L 2906 525 
Q 2725 213 2448 61 
Q 2172 -91 1784 -91 
Q 1150 -91 751 415 
Q 353 922 353 1747 
Q 353 2572 751 3078 
Q 1150 3584 1784 3584 
Q 2172 3584 2448 3432 
Q 2725 3281 2906 2969 
z
M 947 1747 
Q 947 1113 1208 752 
Q 1469 391 1925 391 
Q 2381 391 2643 752 
Q 2906 1113 2906 1747 
Q 2906 2381 2643 2742 
Q 2381 3103 1925 3103 
Q 1469 3103 1208 2742 
Q 947 2381 947 1747 
z
" transform="scale(0.015625)"/>
       <path id="DejaVuSans-20" transform="scale(0.015625)"/>
       <path id="DejaVuSans-73" d="M 2834 3397 
L 2834 2853 
Q 2591 2978 2328 3040 
Q 2066 3103 1784 3103 
Q 1356 3103 1142 2972 
Q 928 2841 928 2578 
Q 928 2378 1081 2264 
Q 1234 2150 1697 2047 
L 1894 2003 
Q 2506 1872 2764 1633 
Q 3022 1394 3022 966 
Q 3022 478 2636 193 
Q 2250 -91 1575 -91 
Q 1294 -91 989 -36 
Q 684 19 347 128 
L 347 722 
Q 666 556 975 473 
Q 1284 391 1588 391 
Q 1994 391 2212 530 
Q 2431 669 2431 922 
Q 2431 1156 2273 1281 
Q 2116 1406 1581 1522 
L 1381 1569 
Q 847 1681 609 1914 
Q 372 2147 372 2553 
Q 372 3047 722 3315 
Q 1072 3584 1716 3584 
Q 2034 3584 2315 3537 
Q 2597 3491 2834 3397 
z
" transform="scale(0.015625)"/>
       <path id="DejaVuSans-66" d="M 2375 4863 
L 2375 4384 
L 1825 4384 
Q 1516 4384 1395 4259 
Q 1275 4134 1275 3809 
L 1275 3500 
L 2222 3500 
L 2222 3053 
L 1275 3053 
L 1275 0 
L 697 0 
L 697 3053 
L 147 3053 
L 147 3500 
L 697 3500 
L 697 3744 
Q 697 4328 969 4595 
Q 1241 4863 1831 4863 
L 2375 4863 
z
" transform="scale(0.015625)"/>
       <path id="DejaVuSans-70" d="M 1159 525 
L 1159 -1331 
L 581 -1331 
L 581 3500 
L 1159 3500 
L 1159 2969 
Q 1341 3281 1617 3432 
Q 1894 3584 2278 3584 
Q 2916 3584 3314 3078 
Q 3713 2572 3713 1747 
Q 3713 922 3314 415 
Q 2916 -91 2278 -91 
Q 1894 -91 1617 61 
Q 1341 213 1159 525 
z
M 3116 1747 
Q 3116 2381 2855 2742 
Q 2594 3103 2138 3103 
Q 1681 3103 1420 2742 
Q 1159 2381 1159 1747 
Q 1159 1113 1420 752 
Q 1681 391 2138 391 
Q 2594 391 2855 752 
Q 3116 1113 3116 1747 
z
" transform="scale(0.015625)"/>
       <path id="DejaVuSans-74" d="M 1172 4494 
L 1172 3500 
L 2356 3500 
L 2356 3053 
L 1172 3053 
L 1172 1153 
Q 1172 725 1289 603 
Q 1406 481 1766 481 
L 2356 481 
L 2356 0 
L 1766 0 
Q 1100 0 847 248 
Q 594 497 594 1153 
L 594 3053 
L 172 3053 
L 172 3500 
L 594 3500 
L 594 4494 
L 1172 4494 
z
" transform="scale(0.015625)"/>
       <path id="DejaVuSans-75" d="M 544 1381 
L 544 3500 
L 1119 3500 
L 1119 1403 
Q 1119 906 1312 657 
Q 1506 409 1894 409 
Q 2359 409 2629 706 
Q 2900 1003 2900 1516 
L 2900 3500 
L 3475 3500 
L 3475 0 
L 2900 0 
L 2900 538 
Q 2691 219 2414 64 
Q 2138 -91 1772 -91 
Q 1169 -91 856 284 
Q 544 659 544 1381 
z
M 1991 3584 
L 1991 3584 
z
" transform="scale(0.015625)"/>
      </defs>
      <use xlink:href="#DejaVuSans-4e"/>
      <use xlink:href="#DejaVuSans-6f" x="74.804688"/>
      <use xlink:href="#DejaVuSans-72" x="135.986328"/>
      <use xlink:href="#DejaVuSans-6d" x="175.349609"/>
      <use xlink:href="#DejaVuSans-61" x="272.761719"/>
      <use xlink:href="#DejaVuSans-6c" x="334.041016"/>
      <use xlink:href="#DejaVuSans-69" x="361.824219"/>
      <use xlink:href="#DejaVuSans-7a" x="389.607422"/>
      <use xlink:href="#DejaVuSans-65" x="442.097656"/>
      <use xlink:href="#DejaVuSans-64" x="503.621094"/>
      <use xlink:href="#DejaVuSans-20" x="567.097656"/>
      <use xlink:href="#DejaVuSans-73" x="598.884766"/>
      <use xlink:href="#DejaVuSans-66" x="650.984375"/>
      <use xlink:href="#DejaVuSans-20" x="686.189453"/>
      <use xlink:href="#DejaVuSans-61" x="717.976562"/>
      <use xlink:href="#DejaVuSans-6d" x="779.255859"/>
      <use xlink:href="#DejaVuSans-70" x="876.667969"/>
      <use xlink:href="#DejaVuSans-6c" x="940.144531"/>
      <use xlink:href="#DejaVuSans-69" x="967.927734"/>
      <use xlink:href="#DejaVuSans-74" x="995.710938"/>
      <use xlink:href="#DejaVuSans-75" x="1034.919922"/>
      <use xlink:href="#DejaVuSans-64" x="1098.298828"/>
      <use xlink:href="#DejaVuSans-65" x="1161.775391"/>
     </g>
    </g>
   </g>
   <g id="matplotlib.axis_2">
    <g id="ytick_1">
     <g id="line2d_7">
      <defs>
       <path id="m409cb9cf63" d="M 0 0 
L -3.5 0 
" style="stroke: #000000; stroke-width: 0.8"/>
      </defs>
      <g>
       <use xlink:href="#m409cb9cf63" x="144" y="256.32" style="stroke: #000000; stroke-width: 0.8"/>
      </g>
     </g>
     <g id="text_8">
      <!-- 0.0 -->
      <g transform="translate(121.096875 260.119219) scale(0.1 -0.1)">
       <defs>
        <path id="DejaVuSans-2e" d="M 684 794 
L 1344 794 
L 1344 0 
L 684 0 
L 684 794 
z
" transform="scale(0.015625)"/>
       </defs>
       <use xlink:href="#DejaVuSans-30"/>
       <use xlink:href="#DejaVuSans-2e" x="63.623047"/>
       <use xlink:href="#DejaVuSans-30" x="95.410156"/>
      </g>
     </g>
    </g>
    <g id="ytick_2">
     <g id="line2d_8">
      <g>
       <use xlink:href="#m409cb9cf63" x="144" y="229.850005" style="stroke: #000000; stroke-width: 0.8"/>
      </g>
     </g>
     <g id="text_9">
      <!-- 0.1 -->
      <g transform="translate(121.096875 233.649224) scale(0.1 -0.1)">
       <use xlink:href="#DejaVuSans-30"/>
       <use xlink:href="#DejaVuSans-2e" x="63.623047"/>
       <use xlink:href="#DejaVuSans-31" x="95.410156"/>
      </g>
     </g>
    </g>
    <g id="ytick_3">
     <g id="line2d_9">
      <g>
       <use xlink:href="#m409cb9cf63" x="144" y="203.380011" style="stroke: #000000; stroke-width: 0.8"/>
      </g>
     </g>
     <g id="text_10">
      <!-- 0.2 -->
      <g transform="translate(121.096875 207.17923) scale(0.1 -0.1)">
       <use xlink:href="#DejaVuSans-30"/>
       <use xlink:href="#DejaVuSans-2e" x="63.623047"/>
       <use xlink:href="#DejaVuSans-32" x="95.410156"/>
      </g>
     </g>
    </g>
    <g id="ytick_4">
     <g id="line2d_10">
      <g>
       <use xlink:href="#m409cb9cf63" x="144" y="176.910016" style="stroke: #000000; stroke-width: 0.8"/>
      </g>
     </g>
     <g id="text_11">
      <!-- 0.3 -->
      <g transform="translate(121.096875 180.709235) scale(0.1 -0.1)">
       <use xlink:href="#DejaVuSans-30"/>
       <use xlink:href="#DejaVuSans-2e" x="63.623047"/>
       <use xlink:href="#DejaVuSans-33" x="95.410156"/>
      </g>
     </g>
    </g>
    <g id="ytick_5">
     <g id="line2d_11">
      <g>
       <use xlink:href="#m409cb9cf63" x="144" y="150.440022" style="stroke: #000000; stroke-width: 0.8"/>
      </g>
     </g>
     <g id="text_12">
      <!-- 0.4 -->
      <g transform="translate(121.096875 154.23924) scale(0.1 -0.1)">
       <use xlink:href="#DejaVuSans-30"/>
       <use xlink:href="#DejaVuSans-2e" x="63.623047"/>
       <use xlink:href="#DejaVuSans-34" x="95.410156"/>
      </g>
     </g>
    </g>
    <g id="ytick_6">
     <g id="line2d_12">
      <g>
       <use xlink:href="#m409cb9cf63" x="144" y="123.970027" style="stroke: #000000; stroke-width: 0.8"/>
      </g>
     </g>
     <g id="text_13">
      <!-- 0.5 -->
      <g transform="translate(121.096875 127.769246) scale(0.1 -0.1)">
       <use xlink:href="#DejaVuSans-30"/>
       <use xlink:href="#DejaVuSans-2e" x="63.623047"/>
       <use xlink:href="#DejaVuSans-35" x="95.410156"/>
      </g>
     </g>
    </g>
    <g id="ytick_7">
     <g id="line2d_13">
      <g>
       <use xlink:href="#m409cb9cf63" x="144" y="97.500033" style="stroke: #000000; stroke-width: 0.8"/>
      </g>
     </g>
     <g id="text_14">
      <!-- 0.6 -->
      <g transform="translate(121.096875 101.299251) scale(0.1 -0.1)">
       <defs>
        <path id="DejaVuSans-36" d="M 2113 2584 
Q 1688 2584 1439 2293 
Q 1191 2003 1191 1497 
Q 1191 994 1439 701 
Q 1688 409 2113 409 
Q 2538 409 2786 701 
Q 3034 994 3034 1497 
Q 3034 2003 2786 2293 
Q 2538 2584 2113 2584 
z
M 3366 4563 
L 3366 3988 
Q 3128 4100 2886 4159 
Q 2644 4219 2406 4219 
Q 1781 4219 1451 3797 
Q 1122 3375 1075 2522 
Q 1259 2794 1537 2939 
Q 1816 3084 2150 3084 
Q 2853 3084 3261 2657 
Q 3669 2231 3669 1497 
Q 3669 778 3244 343 
Q 2819 -91 2113 -91 
Q 1303 -91 875 529 
Q 447 1150 447 2328 
Q 447 3434 972 4092 
Q 1497 4750 2381 4750 
Q 2619 4750 2861 4703 
Q 3103 4656 3366 4563 
z
" transform="scale(0.015625)"/>
       </defs>
       <use xlink:href="#DejaVuSans-30"/>
       <use xlink:href="#DejaVuSans-2e" x="63.623047"/>
       <use xlink:href="#DejaVuSans-36" x="95.410156"/>
      </g>
     </g>
    </g>
    <g id="ytick_8">
     <g id="line2d_14">
      <g>
       <use xlink:href="#m409cb9cf63" x="144" y="71.030038" style="stroke: #000000; stroke-width: 0.8"/>
      </g>
     </g>
     <g id="text_15">
      <!-- 0.7 -->
      <g transform="translate(121.096875 74.829257) scale(0.1 -0.1)">
       <defs>
        <path id="DejaVuSans-37" d="M 525 4666 
L 3525 4666 
L 3525 4397 
L 1831 0 
L 1172 0 
L 2766 4134 
L 525 4134 
L 525 4666 
z
" transform="scale(0.015625)"/>
       </defs>
       <use xlink:href="#DejaVuSans-30"/>
       <use xlink:href="#DejaVuSans-2e" x="63.623047"/>
       <use xlink:href="#DejaVuSans-37" x="95.410156"/>
      </g>
     </g>
    </g>
    <g id="ytick_9">
     <g id="line2d_15">
      <g>
       <use xlink:href="#m409cb9cf63" x="144" y="44.560043" style="stroke: #000000; stroke-width: 0.8"/>
      </g>
     </g>
     <g id="text_16">
      <!-- 0.8 -->
      <g transform="translate(121.096875 48.359262) scale(0.1 -0.1)">
       <defs>
        <path id="DejaVuSans-38" d="M 2034 2216 
Q 1584 2216 1326 1975 
Q 1069 1734 1069 1313 
Q 1069 891 1326 650 
Q 1584 409 2034 409 
Q 2484 409 2743 651 
Q 3003 894 3003 1313 
Q 3003 1734 2745 1975 
Q 2488 2216 2034 2216 
z
M 1403 2484 
Q 997 2584 770 2862 
Q 544 3141 544 3541 
Q 544 4100 942 4425 
Q 1341 4750 2034 4750 
Q 2731 4750 3128 4425 
Q 3525 4100 3525 3541 
Q 3525 3141 3298 2862 
Q 3072 2584 2669 2484 
Q 3125 2378 3379 2068 
Q 3634 1759 3634 1313 
Q 3634 634 3220 271 
Q 2806 -91 2034 -91 
Q 1263 -91 848 271 
Q 434 634 434 1313 
Q 434 1759 690 2068 
Q 947 2378 1403 2484 
z
M 1172 3481 
Q 1172 3119 1398 2916 
Q 1625 2713 2034 2713 
Q 2441 2713 2670 2916 
Q 2900 3119 2900 3481 
Q 2900 3844 2670 4047 
Q 2441 4250 2034 4250 
Q 1625 4250 1398 4047 
Q 1172 3844 1172 3481 
z
" transform="scale(0.015625)"/>
       </defs>
       <use xlink:href="#DejaVuSans-30"/>
       <use xlink:href="#DejaVuSans-2e" x="63.623047"/>
       <use xlink:href="#DejaVuSans-38" x="95.410156"/>
      </g>
     </g>
    </g>
    <g id="text_17">
     <!-- count -->
     <g transform="translate(115.017187 159.54625) rotate(-90) scale(0.1 -0.1)">
      <defs>
       <path id="DejaVuSans-63" d="M 3122 3366 
L 3122 2828 
Q 2878 2963 2633 3030 
Q 2388 3097 2138 3097 
Q 1578 3097 1268 2742 
Q 959 2388 959 1747 
Q 959 1106 1268 751 
Q 1578 397 2138 397 
Q 2388 397 2633 464 
Q 2878 531 3122 666 
L 3122 134 
Q 2881 22 2623 -34 
Q 2366 -91 2075 -91 
Q 1284 -91 818 406 
Q 353 903 353 1747 
Q 353 2603 823 3093 
Q 1294 3584 2113 3584 
Q 2378 3584 2631 3529 
Q 2884 3475 3122 3366 
z
" transform="scale(0.015625)"/>
       <path id="DejaVuSans-6e" d="M 3513 2113 
L 3513 0 
L 2938 0 
L 2938 2094 
Q 2938 2591 2744 2837 
Q 2550 3084 2163 3084 
Q 1697 3084 1428 2787 
Q 1159 2491 1159 1978 
L 1159 0 
L 581 0 
L 581 3500 
L 1159 3500 
L 1159 2956 
Q 1366 3272 1645 3428 
Q 1925 3584 2291 3584 
Q 2894 3584 3203 3211 
Q 3513 2838 3513 2113 
z
" transform="scale(0.015625)"/>
      </defs>
      <use xlink:href="#DejaVuSans-63"/>
      <use xlink:href="#DejaVuSans-6f" x="54.980469"/>
      <use xlink:href="#DejaVuSans-75" x="116.162109"/>
      <use xlink:href="#DejaVuSans-6e" x="179.541016"/>
      <use xlink:href="#DejaVuSans-74" x="242.919922"/>
     </g>
    </g>
   </g>
   <g id="line2d_16">
    <path d="M 144 45.12 
L 145.683933 45.22854 
L 147.367865 45.553827 
L 149.051798 46.094857 
L 150.73573 46.849968 
L 152.419663 47.81684 
L 154.524579 49.318651 
L 156.629494 51.139515 
L 158.73441 53.270807 
L 160.839326 55.702495 
L 163.365225 59.000964 
L 165.891123 62.693625 
L 168.417022 66.756196 
L 171.363904 71.928148 
L 174.731769 78.353846 
L 178.099635 85.26054 
L 181.888483 93.51297 
L 186.519297 104.14002 
L 192.834045 119.250787 
L 207.989438 155.784455 
L 213.462219 168.25191 
L 218.093033 178.250715 
L 222.302865 186.822419 
L 226.091713 194.072168 
L 229.880561 200.855084 
L 233.669409 207.155449 
L 237.037275 212.34492 
L 240.40514 217.148051 
L 243.773005 221.569766 
L 247.14087 225.618877 
L 250.508735 229.307499 
L 253.8766 232.650487 
L 257.244465 235.664875 
L 260.612331 238.369343 
L 263.980196 240.783727 
L 267.348061 242.928558 
L 270.715926 244.82466 
L 274.504774 246.686296 
L 278.293623 248.288358 
L 282.082471 249.658762 
L 286.292302 250.941926 
L 290.923117 252.101262 
L 295.553931 253.036313 
L 301.026712 253.902303 
L 306.920476 254.602329 
L 313.656207 255.175616 
L 321.654886 255.628399 
L 331.758482 255.965853 
L 345.650925 256.18718 
L 354.070588 256.24915 
L 354.070588 256.24915 
" clip-path="url(#p8ad72501b3)" style="fill: none; stroke: #ff0000; stroke-width: 1.5; stroke-linecap: square"/>
   </g>
   <g id="patch_23">
    <path d="M 144 256.32 
L 144 34.56 
" style="fill: none; stroke: #000000; stroke-width: 0.8; stroke-linejoin: miter; stroke-linecap: square"/>
   </g>
   <g id="patch_24">
    <path d="M 406.588235 256.32 
L 406.588235 34.56 
" style="fill: none; stroke: #000000; stroke-width: 0.8; stroke-linejoin: miter; stroke-linecap: square"/>
   </g>
   <g id="patch_25">
    <path d="M 144 256.32 
L 406.588235 256.32 
" style="fill: none; stroke: #000000; stroke-width: 0.8; stroke-linejoin: miter; stroke-linecap: square"/>
   </g>
   <g id="patch_26">
    <path d="M 144 34.56 
L 406.588235 34.56 
" style="fill: none; stroke: #000000; stroke-width: 0.8; stroke-linejoin: miter; stroke-linecap: square"/>
   </g>
   <g id="text_18">
    <!-- Centric -->
    <g transform="translate(253.825368 28.56) scale(0.12 -0.12)">
     <defs>
      <path id="DejaVuSans-43" d="M 4122 4306 
L 4122 3641 
Q 3803 3938 3442 4084 
Q 3081 4231 2675 4231 
Q 1875 4231 1450 3742 
Q 1025 3253 1025 2328 
Q 1025 1406 1450 917 
Q 1875 428 2675 428 
Q 3081 428 3442 575 
Q 3803 722 4122 1019 
L 4122 359 
Q 3791 134 3420 21 
Q 3050 -91 2638 -91 
Q 1578 -91 968 557 
Q 359 1206 359 2328 
Q 359 3453 968 4101 
Q 1578 4750 2638 4750 
Q 3056 4750 3426 4639 
Q 3797 4528 4122 4306 
z
" transform="scale(0.015625)"/>
     </defs>
     <use xlink:href="#DejaVuSans-43"/>
     <use xlink:href="#DejaVuSans-65" x="69.824219"/>
     <use xlink:href="#DejaVuSans-6e" x="131.347656"/>
     <use xlink:href="#DejaVuSans-74" x="194.726562"/>
     <use xlink:href="#DejaVuSans-72" x="233.935547"/>
     <use xlink:href="#DejaVuSans-69" x="275.048828"/>
     <use xlink:href="#DejaVuSans-63" x="302.832031"/>
    </g>
   </g>
  </g>
  <g id="axes_2">
   <g id="patch_27">
    <path d="M 459.105882 256.32 
L 721.694118 256.32 
L 721.694118 34.56 
L 459.105882 34.56 
z
" style="fill: #ffffff"/>
   </g>
   <g id="patch_28">
    <path d="M 460.695356 256.32 
L 465.185264 256.32 
L 465.185264 237.420836 
L 460.695356 237.420836 
z
" clip-path="url(#pb23509a0f3)" style="fill: #1f77b4; opacity: 0.5"/>
   </g>
   <g id="patch_29">
    <path d="M 465.185264 256.32 
L 469.675171 256.32 
L 469.675171 197.269304 
L 465.185264 197.269304 
z
" clip-path="url(#pb23509a0f3)" style="fill: #1f77b4; opacity: 0.5"/>
   </g>
   <g id="patch_30">
    <path d="M 469.675171 256.32 
L 474.165079 256.32 
L 474.165079 157.191309 
L 469.675171 157.191309 
z
" clip-path="url(#pb23509a0f3)" style="fill: #1f77b4; opacity: 0.5"/>
   </g>
   <g id="patch_31">
    <path d="M 474.165079 256.32 
L 478.654987 256.32 
L 478.654987 124.981838 
L 474.165079 124.981838 
z
" clip-path="url(#pb23509a0f3)" style="fill: #1f77b4; opacity: 0.5"/>
   </g>
   <g id="patch_32">
    <path d="M 478.654987 256.32 
L 483.144895 256.32 
L 483.144895 89.536713 
L 478.654987 89.536713 
z
" clip-path="url(#pb23509a0f3)" style="fill: #1f77b4; opacity: 0.5"/>
   </g>
   <g id="patch_33">
    <path d="M 483.144895 256.32 
L 487.634802 256.32 
L 487.634802 69.608022 
L 483.144895 69.608022 
z
" clip-path="url(#pb23509a0f3)" style="fill: #1f77b4; opacity: 0.5"/>
   </g>
   <g id="patch_34">
    <path d="M 487.634802 256.32 
L 492.12471 256.32 
L 492.12471 52.400223 
L 487.634802 52.400223 
z
" clip-path="url(#pb23509a0f3)" style="fill: #1f77b4; opacity: 0.5"/>
   </g>
   <g id="patch_35">
    <path d="M 492.12471 256.32 
L 496.614618 256.32 
L 496.614618 49.164568 
L 492.12471 49.164568 
z
" clip-path="url(#pb23509a0f3)" style="fill: #1f77b4; opacity: 0.5"/>
   </g>
   <g id="patch_36">
    <path d="M 496.614618 256.32 
L 501.104526 256.32 
L 501.104526 45.12 
L 496.614618 45.12 
z
" clip-path="url(#pb23509a0f3)" style="fill: #1f77b4; opacity: 0.5"/>
   </g>
   <g id="patch_37">
    <path d="M 501.104526 256.32 
L 505.594434 256.32 
L 505.594434 56.371253 
L 501.104526 56.371253 
z
" clip-path="url(#pb23509a0f3)" style="fill: #1f77b4; opacity: 0.5"/>
   </g>
   <g id="patch_38">
    <path d="M 505.594434 256.32 
L 510.084341 256.32 
L 510.084341 65.563454 
L 505.594434 65.563454 
z
" clip-path="url(#pb23509a0f3)" style="fill: #1f77b4; opacity: 0.5"/>
   </g>
   <g id="patch_39">
    <path d="M 510.084341 256.32 
L 514.574249 256.32 
L 514.574249 82.182953 
L 510.084341 82.182953 
z
" clip-path="url(#pb23509a0f3)" style="fill: #1f77b4; opacity: 0.5"/>
   </g>
   <g id="patch_40">
    <path d="M 514.574249 256.32 
L 519.064157 256.32 
L 519.064157 99.979053 
L 514.574249 99.979053 
z
" clip-path="url(#pb23509a0f3)" style="fill: #1f77b4; opacity: 0.5"/>
   </g>
   <g id="patch_41">
    <path d="M 519.064157 256.32 
L 523.554065 256.32 
L 523.554065 117.55454 
L 519.064157 117.55454 
z
" clip-path="url(#pb23509a0f3)" style="fill: #1f77b4; opacity: 0.5"/>
   </g>
   <g id="patch_42">
    <path d="M 523.554065 256.32 
L 528.043972 256.32 
L 528.043972 133.806351 
L 523.554065 133.806351 
z
" clip-path="url(#pb23509a0f3)" style="fill: #1f77b4; opacity: 0.5"/>
   </g>
   <g id="patch_43">
    <path d="M 528.043972 256.32 
L 532.53388 256.32 
L 532.53388 154.249805 
L 528.043972 154.249805 
z
" clip-path="url(#pb23509a0f3)" style="fill: #1f77b4; opacity: 0.5"/>
   </g>
   <g id="patch_44">
    <path d="M 532.53388 256.32 
L 537.023788 256.32 
L 537.023788 169.986852 
L 532.53388 169.986852 
z
" clip-path="url(#pb23509a0f3)" style="fill: #1f77b4; opacity: 0.5"/>
   </g>
   <g id="patch_45">
    <path d="M 537.023788 256.32 
L 541.513696 256.32 
L 541.513696 186.900501 
L 537.023788 186.900501 
z
" clip-path="url(#pb23509a0f3)" style="fill: #1f77b4; opacity: 0.5"/>
   </g>
   <g id="patch_46">
    <path d="M 541.513696 256.32 
L 546.003603 256.32 
L 546.003603 200.578496 
L 541.513696 200.578496 
z
" clip-path="url(#pb23509a0f3)" style="fill: #1f77b4; opacity: 0.5"/>
   </g>
   <g id="patch_47">
    <path d="M 546.003603 256.32 
L 550.493511 256.32 
L 550.493511 211.682674 
L 546.003603 211.682674 
z
" clip-path="url(#pb23509a0f3)" style="fill: #1f77b4; opacity: 0.5"/>
   </g>
   <g id="patch_48">
    <path d="M 550.493511 256.32 
L 554.983419 256.32 
L 554.983419 223.007465 
L 550.493511 223.007465 
z
" clip-path="url(#pb23509a0f3)" style="fill: #1f77b4; opacity: 0.5"/>
   </g>
   <g id="patch_49">
    <path d="M 554.983419 256.32 
L 559.473327 256.32 
L 559.473327 231.75844 
L 554.983419 231.75844 
z
" clip-path="url(#pb23509a0f3)" style="fill: #1f77b4; opacity: 0.5"/>
   </g>
   <g id="patch_50">
    <path d="M 559.473327 256.32 
L 563.963234 256.32 
L 563.963234 236.758997 
L 559.473327 236.758997 
z
" clip-path="url(#pb23509a0f3)" style="fill: #1f77b4; opacity: 0.5"/>
   </g>
   <g id="patch_51">
    <path d="M 563.963234 256.32 
L 568.453142 256.32 
L 568.453142 242.936156 
L 563.963234 242.936156 
z
" clip-path="url(#pb23509a0f3)" style="fill: #1f77b4; opacity: 0.5"/>
   </g>
   <g id="patch_52">
    <path d="M 568.453142 256.32 
L 572.94305 256.32 
L 572.94305 247.495487 
L 568.453142 247.495487 
z
" clip-path="url(#pb23509a0f3)" style="fill: #1f77b4; opacity: 0.5"/>
   </g>
   <g id="patch_53">
    <path d="M 572.94305 256.32 
L 577.432958 256.32 
L 577.432958 249.186852 
L 572.94305 249.186852 
z
" clip-path="url(#pb23509a0f3)" style="fill: #1f77b4; opacity: 0.5"/>
   </g>
   <g id="patch_54">
    <path d="M 577.432958 256.32 
L 581.922866 256.32 
L 581.922866 250.951755 
L 577.432958 250.951755 
z
" clip-path="url(#pb23509a0f3)" style="fill: #1f77b4; opacity: 0.5"/>
   </g>
   <g id="patch_55">
    <path d="M 581.922866 256.32 
L 586.412773 256.32 
L 586.412773 253.084345 
L 581.922866 253.084345 
z
" clip-path="url(#pb23509a0f3)" style="fill: #1f77b4; opacity: 0.5"/>
   </g>
   <g id="patch_56">
    <path d="M 586.412773 256.32 
L 590.902681 256.32 
L 590.902681 253.672646 
L 586.412773 253.672646 
z
" clip-path="url(#pb23509a0f3)" style="fill: #1f77b4; opacity: 0.5"/>
   </g>
   <g id="patch_57">
    <path d="M 590.902681 256.32 
L 595.392589 256.32 
L 595.392589 254.77571 
L 590.902681 254.77571 
z
" clip-path="url(#pb23509a0f3)" style="fill: #1f77b4; opacity: 0.5"/>
   </g>
   <g id="patch_58">
    <path d="M 595.392589 256.32 
L 599.882497 256.32 
L 599.882497 255.584624 
L 595.392589 255.584624 
z
" clip-path="url(#pb23509a0f3)" style="fill: #1f77b4; opacity: 0.5"/>
   </g>
   <g id="patch_59">
    <path d="M 599.882497 256.32 
L 604.372404 256.32 
L 604.372404 255.878774 
L 599.882497 255.878774 
z
" clip-path="url(#pb23509a0f3)" style="fill: #1f77b4; opacity: 0.5"/>
   </g>
   <g id="patch_60">
    <path d="M 604.372404 256.32 
L 608.862312 256.32 
L 608.862312 255.731699 
L 604.372404 255.731699 
z
" clip-path="url(#pb23509a0f3)" style="fill: #1f77b4; opacity: 0.5"/>
   </g>
   <g id="patch_61">
    <path d="M 608.862312 256.32 
L 613.35222 256.32 
L 613.35222 256.172925 
L 608.862312 256.172925 
z
" clip-path="url(#pb23509a0f3)" style="fill: #1f77b4; opacity: 0.5"/>
   </g>
   <g id="patch_62">
    <path d="M 613.35222 256.32 
L 617.842128 256.32 
L 617.842128 256.02585 
L 613.35222 256.02585 
z
" clip-path="url(#pb23509a0f3)" style="fill: #1f77b4; opacity: 0.5"/>
   </g>
   <g id="patch_63">
    <path d="M 617.842128 256.32 
L 622.332035 256.32 
L 622.332035 256.099387 
L 617.842128 256.099387 
z
" clip-path="url(#pb23509a0f3)" style="fill: #1f77b4; opacity: 0.5"/>
   </g>
   <g id="patch_64">
    <path d="M 622.332035 256.32 
L 626.821943 256.32 
L 626.821943 256.32 
L 622.332035 256.32 
z
" clip-path="url(#pb23509a0f3)" style="fill: #1f77b4; opacity: 0.5"/>
   </g>
   <g id="patch_65">
    <path d="M 626.821943 256.32 
L 631.311851 256.32 
L 631.311851 256.32 
L 626.821943 256.32 
z
" clip-path="url(#pb23509a0f3)" style="fill: #1f77b4; opacity: 0.5"/>
   </g>
   <g id="patch_66">
    <path d="M 631.311851 256.32 
L 635.801759 256.32 
L 635.801759 256.32 
L 631.311851 256.32 
z
" clip-path="url(#pb23509a0f3)" style="fill: #1f77b4; opacity: 0.5"/>
   </g>
   <g id="patch_67">
    <path d="M 635.801759 256.32 
L 640.291666 256.32 
L 640.291666 256.246462 
L 635.801759 256.246462 
z
" clip-path="url(#pb23509a0f3)" style="fill: #1f77b4; opacity: 0.5"/>
   </g>
   <g id="matplotlib.axis_3">
    <g id="xtick_7">
     <g id="line2d_17">
      <g>
       <use xlink:href="#m05885192c5" x="459.105882" y="256.32" style="stroke: #000000; stroke-width: 0.8"/>
      </g>
     </g>
     <g id="text_19">
      <!-- 0 -->
      <g transform="translate(455.924632 270.918437) scale(0.1 -0.1)">
       <use xlink:href="#DejaVuSans-30"/>
      </g>
     </g>
    </g>
    <g id="xtick_8">
     <g id="line2d_18">
      <g>
       <use xlink:href="#m05885192c5" x="511.623529" y="256.32" style="stroke: #000000; stroke-width: 0.8"/>
      </g>
     </g>
     <g id="text_20">
      <!-- 1 -->
      <g transform="translate(508.442279 270.918437) scale(0.1 -0.1)">
       <use xlink:href="#DejaVuSans-31"/>
      </g>
     </g>
    </g>
    <g id="xtick_9">
     <g id="line2d_19">
      <g>
       <use xlink:href="#m05885192c5" x="564.141176" y="256.32" style="stroke: #000000; stroke-width: 0.8"/>
      </g>
     </g>
     <g id="text_21">
      <!-- 2 -->
      <g transform="translate(560.959926 270.918437) scale(0.1 -0.1)">
       <use xlink:href="#DejaVuSans-32"/>
      </g>
     </g>
    </g>
    <g id="xtick_10">
     <g id="line2d_20">
      <g>
       <use xlink:href="#m05885192c5" x="616.658824" y="256.32" style="stroke: #000000; stroke-width: 0.8"/>
      </g>
     </g>
     <g id="text_22">
      <!-- 3 -->
      <g transform="translate(613.477574 270.918437) scale(0.1 -0.1)">
       <use xlink:href="#DejaVuSans-33"/>
      </g>
     </g>
    </g>
    <g id="xtick_11">
     <g id="line2d_21">
      <g>
       <use xlink:href="#m05885192c5" x="669.176471" y="256.32" style="stroke: #000000; stroke-width: 0.8"/>
      </g>
     </g>
     <g id="text_23">
      <!-- 4 -->
      <g transform="translate(665.995221 270.918437) scale(0.1 -0.1)">
       <use xlink:href="#DejaVuSans-34"/>
      </g>
     </g>
    </g>
    <g id="xtick_12">
     <g id="line2d_22">
      <g>
       <use xlink:href="#m05885192c5" x="721.694118" y="256.32" style="stroke: #000000; stroke-width: 0.8"/>
      </g>
     </g>
     <g id="text_24">
      <!-- 5 -->
      <g transform="translate(718.512868 270.918437) scale(0.1 -0.1)">
       <use xlink:href="#DejaVuSans-35"/>
      </g>
     </g>
    </g>
    <g id="text_25">
     <!-- Normalized sf amplitude -->
     <g transform="translate(529.235156 284.596563) scale(0.1 -0.1)">
      <use xlink:href="#DejaVuSans-4e"/>
      <use xlink:href="#DejaVuSans-6f" x="74.804688"/>
      <use xlink:href="#DejaVuSans-72" x="135.986328"/>
      <use xlink:href="#DejaVuSans-6d" x="175.349609"/>
      <use xlink:href="#DejaVuSans-61" x="272.761719"/>
      <use xlink:href="#DejaVuSans-6c" x="334.041016"/>
      <use xlink:href="#DejaVuSans-69" x="361.824219"/>
      <use xlink:href="#DejaVuSans-7a" x="389.607422"/>
      <use xlink:href="#DejaVuSans-65" x="442.097656"/>
      <use xlink:href="#DejaVuSans-64" x="503.621094"/>
      <use xlink:href="#DejaVuSans-20" x="567.097656"/>
      <use xlink:href="#DejaVuSans-73" x="598.884766"/>
      <use xlink:href="#DejaVuSans-66" x="650.984375"/>
      <use xlink:href="#DejaVuSans-20" x="686.189453"/>
      <use xlink:href="#DejaVuSans-61" x="717.976562"/>
      <use xlink:href="#DejaVuSans-6d" x="779.255859"/>
      <use xlink:href="#DejaVuSans-70" x="876.667969"/>
      <use xlink:href="#DejaVuSans-6c" x="940.144531"/>
      <use xlink:href="#DejaVuSans-69" x="967.927734"/>
      <use xlink:href="#DejaVuSans-74" x="995.710938"/>
      <use xlink:href="#DejaVuSans-75" x="1034.919922"/>
      <use xlink:href="#DejaVuSans-64" x="1098.298828"/>
      <use xlink:href="#DejaVuSans-65" x="1161.775391"/>
     </g>
    </g>
   </g>
   <g id="matplotlib.axis_4">
    <g id="ytick_10">
     <g id="line2d_23">
      <g>
       <use xlink:href="#m409cb9cf63" x="459.105882" y="256.32" style="stroke: #000000; stroke-width: 0.8"/>
      </g>
     </g>
     <g id="text_26">
      <!-- 0.0 -->
      <g transform="translate(436.202757 260.119219) scale(0.1 -0.1)">
       <use xlink:href="#DejaVuSans-30"/>
       <use xlink:href="#DejaVuSans-2e" x="63.623047"/>
       <use xlink:href="#DejaVuSans-30" x="95.410156"/>
      </g>
     </g>
    </g>
    <g id="ytick_11">
     <g id="line2d_24">
      <g>
       <use xlink:href="#m409cb9cf63" x="459.105882" y="209.351278" style="stroke: #000000; stroke-width: 0.8"/>
      </g>
     </g>
     <g id="text_27">
      <!-- 0.2 -->
      <g transform="translate(436.202757 213.150496) scale(0.1 -0.1)">
       <use xlink:href="#DejaVuSans-30"/>
       <use xlink:href="#DejaVuSans-2e" x="63.623047"/>
       <use xlink:href="#DejaVuSans-32" x="95.410156"/>
      </g>
     </g>
    </g>
    <g id="ytick_12">
     <g id="line2d_25">
      <g>
       <use xlink:href="#m409cb9cf63" x="459.105882" y="162.382555" style="stroke: #000000; stroke-width: 0.8"/>
      </g>
     </g>
     <g id="text_28">
      <!-- 0.4 -->
      <g transform="translate(436.202757 166.181774) scale(0.1 -0.1)">
       <use xlink:href="#DejaVuSans-30"/>
       <use xlink:href="#DejaVuSans-2e" x="63.623047"/>
       <use xlink:href="#DejaVuSans-34" x="95.410156"/>
      </g>
     </g>
    </g>
    <g id="ytick_13">
     <g id="line2d_26">
      <g>
       <use xlink:href="#m409cb9cf63" x="459.105882" y="115.413833" style="stroke: #000000; stroke-width: 0.8"/>
      </g>
     </g>
     <g id="text_29">
      <!-- 0.6 -->
      <g transform="translate(436.202757 119.213051) scale(0.1 -0.1)">
       <use xlink:href="#DejaVuSans-30"/>
       <use xlink:href="#DejaVuSans-2e" x="63.623047"/>
       <use xlink:href="#DejaVuSans-36" x="95.410156"/>
      </g>
     </g>
    </g>
    <g id="ytick_14">
     <g id="line2d_27">
      <g>
       <use xlink:href="#m409cb9cf63" x="459.105882" y="68.44511" style="stroke: #000000; stroke-width: 0.8"/>
      </g>
     </g>
     <g id="text_30">
      <!-- 0.8 -->
      <g transform="translate(436.202757 72.244329) scale(0.1 -0.1)">
       <use xlink:href="#DejaVuSans-30"/>
       <use xlink:href="#DejaVuSans-2e" x="63.623047"/>
       <use xlink:href="#DejaVuSans-38" x="95.410156"/>
      </g>
     </g>
    </g>
    <g id="text_31">
     <!-- count -->
     <g transform="translate(430.12307 159.54625) rotate(-90) scale(0.1 -0.1)">
      <use xlink:href="#DejaVuSans-63"/>
      <use xlink:href="#DejaVuSans-6f" x="54.980469"/>
      <use xlink:href="#DejaVuSans-75" x="116.162109"/>
      <use xlink:href="#DejaVuSans-6e" x="179.541016"/>
      <use xlink:href="#DejaVuSans-74" x="242.919922"/>
     </g>
    </g>
   </g>
   <g id="line2d_28">
    <path d="M 459.105882 256.32 
L 465.841613 197.062388 
L 469.209478 169.242616 
L 472.15636 146.593412 
L 474.682259 128.744844 
L 477.208157 112.560091 
L 479.313073 100.467714 
L 481.417989 89.727634 
L 483.101921 82.149225 
L 484.785854 75.495006 
L 486.469787 69.777765 
L 488.153719 65.002322 
L 489.416669 62.037306 
L 490.679618 59.596529 
L 491.942567 57.673692 
L 493.205517 56.260315 
L 494.047483 55.59597 
L 494.889449 55.149793 
L 495.731416 54.917804 
L 496.573382 54.895675 
L 497.415348 55.078747 
L 498.257315 55.462049 
L 499.099281 56.040318 
L 500.36223 57.261108 
L 501.62518 58.888347 
L 502.888129 60.901203 
L 504.151079 63.277894 
L 505.835011 66.973665 
L 507.518944 71.220854 
L 509.623859 77.219068 
L 511.728775 83.878687 
L 514.254674 92.586165 
L 517.622539 105.101753 
L 522.253354 123.28487 
L 530.252033 154.783701 
L 534.040882 168.821005 
L 537.408747 180.491462 
L 540.355629 189.969916 
L 543.302511 198.703913 
L 545.82841 205.574084 
L 548.354309 211.869098 
L 550.880207 217.593986 
L 553.406106 222.762727 
L 555.932005 227.396586 
L 558.457904 231.522521 
L 560.983803 235.1717 
L 563.509702 238.378156 
L 566.035601 241.177585 
L 568.561499 243.606312 
L 571.087398 245.700419 
L 573.613297 247.495037 
L 576.139196 249.023782 
L 578.665095 250.318344 
L 581.611977 251.571869 
L 584.558859 252.58932 
L 587.926724 253.51166 
L 591.715572 254.301308 
L 595.925404 254.939482 
L 600.977201 255.460787 
L 606.870965 255.83807 
L 614.869645 256.109337 
L 626.657173 256.263092 
L 652.337145 256.317718 
L 669.176471 256.319789 
L 669.176471 256.319789 
" clip-path="url(#pb23509a0f3)" style="fill: none; stroke: #ff0000; stroke-width: 1.5; stroke-linecap: square"/>
   </g>
   <g id="patch_68">
    <path d="M 459.105882 256.32 
L 459.105882 34.56 
" style="fill: none; stroke: #000000; stroke-width: 0.8; stroke-linejoin: miter; stroke-linecap: square"/>
   </g>
   <g id="patch_69">
    <path d="M 721.694118 256.32 
L 721.694118 34.56 
" style="fill: none; stroke: #000000; stroke-width: 0.8; stroke-linejoin: miter; stroke-linecap: square"/>
   </g>
   <g id="patch_70">
    <path d="M 459.105882 256.32 
L 721.694118 256.32 
" style="fill: none; stroke: #000000; stroke-width: 0.8; stroke-linejoin: miter; stroke-linecap: square"/>
   </g>
   <g id="patch_71">
    <path d="M 459.105882 34.56 
L 721.694118 34.56 
" style="fill: none; stroke: #000000; stroke-width: 0.8; stroke-linejoin: miter; stroke-linecap: square"/>
   </g>
   <g id="text_32">
    <!-- Acentric -->
    <g transform="translate(565.8225 28.56) scale(0.12 -0.12)">
     <defs>
      <path id="DejaVuSans-41" d="M 2188 4044 
L 1331 1722 
L 3047 1722 
L 2188 4044 
z
M 1831 4666 
L 2547 4666 
L 4325 0 
L 3669 0 
L 3244 1197 
L 1141 1197 
L 716 0 
L 50 0 
L 1831 4666 
z
" transform="scale(0.015625)"/>
     </defs>
     <use xlink:href="#DejaVuSans-41"/>
     <use xlink:href="#DejaVuSans-63" x="66.658203"/>
     <use xlink:href="#DejaVuSans-65" x="121.638672"/>
     <use xlink:href="#DejaVuSans-6e" x="183.162109"/>
     <use xlink:href="#DejaVuSans-74" x="246.541016"/>
     <use xlink:href="#DejaVuSans-72" x="285.75"/>
     <use xlink:href="#DejaVuSans-69" x="326.863281"/>
     <use xlink:href="#DejaVuSans-63" x="354.646484"/>
    </g>
   </g>
  </g>
  <g id="axes_3">
   <g id="patch_72">
    <path d="M 774.211765 256.32 
L 1036.8 256.32 
L 1036.8 34.56 
L 774.211765 34.56 
z
" style="fill: #ffffff"/>
   </g>
   <g id="patch_73">
    <path d="M 786.147594 256.32 
L 788.534759 256.32 
L 788.534759 255.472375 
L 786.147594 255.472375 
z
" clip-path="url(#p32b07f3286)" style="fill: #1f77b4"/>
   </g>
   <g id="patch_74">
    <path d="M 788.534759 256.32 
L 790.921925 256.32 
L 790.921925 256.037458 
L 788.534759 256.037458 
z
" clip-path="url(#p32b07f3286)" style="fill: #1f77b4"/>
   </g>
   <g id="patch_75">
    <path d="M 790.921925 256.32 
L 793.309091 256.32 
L 793.309091 255.613645 
L 790.921925 255.613645 
z
" clip-path="url(#p32b07f3286)" style="fill: #1f77b4"/>
   </g>
   <g id="patch_76">
    <path d="M 793.309091 256.32 
L 795.696257 256.32 
L 795.696257 255.472375 
L 793.309091 255.472375 
z
" clip-path="url(#p32b07f3286)" style="fill: #1f77b4"/>
   </g>
   <g id="patch_77">
    <path d="M 795.696257 256.32 
L 798.083422 256.32 
L 798.083422 256.037458 
L 795.696257 256.037458 
z
" clip-path="url(#p32b07f3286)" style="fill: #1f77b4"/>
   </g>
   <g id="patch_78">
    <path d="M 798.083422 256.32 
L 800.470588 256.32 
L 800.470588 255.331104 
L 798.083422 255.331104 
z
" clip-path="url(#p32b07f3286)" style="fill: #1f77b4"/>
   </g>
   <g id="patch_79">
    <path d="M 800.470588 256.32 
L 802.857754 256.32 
L 802.857754 254.76602 
L 800.470588 254.76602 
z
" clip-path="url(#p32b07f3286)" style="fill: #1f77b4"/>
   </g>
   <g id="patch_80">
    <path d="M 802.857754 256.32 
L 805.24492 256.32 
L 805.24492 255.331104 
L 802.857754 255.331104 
z
" clip-path="url(#p32b07f3286)" style="fill: #1f77b4"/>
   </g>
   <g id="patch_81">
    <path d="M 805.24492 256.32 
L 807.632086 256.32 
L 807.632086 253.494582 
L 805.24492 253.494582 
z
" clip-path="url(#p32b07f3286)" style="fill: #1f77b4"/>
   </g>
   <g id="patch_82">
    <path d="M 807.632086 256.32 
L 810.019251 256.32 
L 810.019251 253.070769 
L 807.632086 253.070769 
z
" clip-path="url(#p32b07f3286)" style="fill: #1f77b4"/>
   </g>
   <g id="patch_83">
    <path d="M 810.019251 256.32 
L 812.406417 256.32 
L 812.406417 250.527893 
L 810.019251 250.527893 
z
" clip-path="url(#p32b07f3286)" style="fill: #1f77b4"/>
   </g>
   <g id="patch_84">
    <path d="M 812.406417 256.32 
L 814.793583 256.32 
L 814.793583 250.810435 
L 812.406417 250.810435 
z
" clip-path="url(#p32b07f3286)" style="fill: #1f77b4"/>
   </g>
   <g id="patch_85">
    <path d="M 814.793583 256.32 
L 817.180749 256.32 
L 817.180749 247.985017 
L 814.793583 247.985017 
z
" clip-path="url(#p32b07f3286)" style="fill: #1f77b4"/>
   </g>
   <g id="patch_86">
    <path d="M 817.180749 256.32 
L 819.567914 256.32 
L 819.567914 246.007224 
L 817.180749 246.007224 
z
" clip-path="url(#p32b07f3286)" style="fill: #1f77b4"/>
   </g>
   <g id="patch_87">
    <path d="M 819.567914 256.32 
L 821.95508 256.32 
L 821.95508 242.475452 
L 819.567914 242.475452 
z
" clip-path="url(#p32b07f3286)" style="fill: #1f77b4"/>
   </g>
   <g id="patch_88">
    <path d="M 821.95508 256.32 
L 824.342246 256.32 
L 824.342246 239.508763 
L 821.95508 239.508763 
z
" clip-path="url(#p32b07f3286)" style="fill: #1f77b4"/>
   </g>
   <g id="patch_89">
    <path d="M 824.342246 256.32 
L 826.729412 256.32 
L 826.729412 238.661137 
L 824.342246 238.661137 
z
" clip-path="url(#p32b07f3286)" style="fill: #1f77b4"/>
   </g>
   <g id="patch_90">
    <path d="M 826.729412 256.32 
L 829.116578 256.32 
L 829.116578 237.672241 
L 826.729412 237.672241 
z
" clip-path="url(#p32b07f3286)" style="fill: #1f77b4"/>
   </g>
   <g id="patch_91">
    <path d="M 829.116578 256.32 
L 831.503743 256.32 
L 831.503743 234.281739 
L 829.116578 234.281739 
z
" clip-path="url(#p32b07f3286)" style="fill: #1f77b4"/>
   </g>
   <g id="patch_92">
    <path d="M 831.503743 256.32 
L 833.890909 256.32 
L 833.890909 232.021405 
L 831.503743 232.021405 
z
" clip-path="url(#p32b07f3286)" style="fill: #1f77b4"/>
   </g>
   <g id="patch_93">
    <path d="M 833.890909 256.32 
L 836.278075 256.32 
L 836.278075 228.348361 
L 833.890909 228.348361 
z
" clip-path="url(#p32b07f3286)" style="fill: #1f77b4"/>
   </g>
   <g id="patch_94">
    <path d="M 836.278075 256.32 
L 838.665241 256.32 
L 838.665241 219.730836 
L 836.278075 219.730836 
z
" clip-path="url(#p32b07f3286)" style="fill: #1f77b4"/>
   </g>
   <g id="patch_95">
    <path d="M 838.665241 256.32 
L 841.052406 256.32 
L 841.052406 213.797458 
L 838.665241 213.797458 
z
" clip-path="url(#p32b07f3286)" style="fill: #1f77b4"/>
   </g>
   <g id="patch_96">
    <path d="M 841.052406 256.32 
L 843.439572 256.32 
L 843.439572 213.232375 
L 841.052406 213.232375 
z
" clip-path="url(#p32b07f3286)" style="fill: #1f77b4"/>
   </g>
   <g id="patch_97">
    <path d="M 843.439572 256.32 
L 845.826738 256.32 
L 845.826738 205.745017 
L 843.439572 205.745017 
z
" clip-path="url(#p32b07f3286)" style="fill: #1f77b4"/>
   </g>
   <g id="patch_98">
    <path d="M 845.826738 256.32 
L 848.213904 256.32 
L 848.213904 201.930702 
L 845.826738 201.930702 
z
" clip-path="url(#p32b07f3286)" style="fill: #1f77b4"/>
   </g>
   <g id="patch_99">
    <path d="M 848.213904 256.32 
L 850.60107 256.32 
L 850.60107 194.443344 
L 848.213904 194.443344 
z
" clip-path="url(#p32b07f3286)" style="fill: #1f77b4"/>
   </g>
   <g id="patch_100">
    <path d="M 850.60107 256.32 
L 852.988235 256.32 
L 852.988235 191.759197 
L 850.60107 191.759197 
z
" clip-path="url(#p32b07f3286)" style="fill: #1f77b4"/>
   </g>
   <g id="patch_101">
    <path d="M 852.988235 256.32 
L 855.375401 256.32 
L 855.375401 178.762274 
L 852.988235 178.762274 
z
" clip-path="url(#p32b07f3286)" style="fill: #1f77b4"/>
   </g>
   <g id="patch_102">
    <path d="M 855.375401 256.32 
L 857.762567 256.32 
L 857.762567 176.360669 
L 855.375401 176.360669 
z
" clip-path="url(#p32b07f3286)" style="fill: #1f77b4"/>
   </g>
   <g id="patch_103">
    <path d="M 857.762567 256.32 
L 860.149733 256.32 
L 860.149733 173.535251 
L 857.762567 173.535251 
z
" clip-path="url(#p32b07f3286)" style="fill: #1f77b4"/>
   </g>
   <g id="patch_104">
    <path d="M 860.149733 256.32 
L 862.536898 256.32 
L 862.536898 173.535251 
L 860.149733 173.535251 
z
" clip-path="url(#p32b07f3286)" style="fill: #1f77b4"/>
   </g>
   <g id="patch_105">
    <path d="M 862.536898 256.32 
L 864.924064 256.32 
L 864.924064 158.419264 
L 862.536898 158.419264 
z
" clip-path="url(#p32b07f3286)" style="fill: #1f77b4"/>
   </g>
   <g id="patch_106">
    <path d="M 864.924064 256.32 
L 867.31123 256.32 
L 867.31123 145.704883 
L 864.924064 145.704883 
z
" clip-path="url(#p32b07f3286)" style="fill: #1f77b4"/>
   </g>
   <g id="patch_107">
    <path d="M 867.31123 256.32 
L 869.698396 256.32 
L 869.698396 128.752375 
L 867.31123 128.752375 
z
" clip-path="url(#p32b07f3286)" style="fill: #1f77b4"/>
   </g>
   <g id="patch_108">
    <path d="M 869.698396 256.32 
L 872.085561 256.32 
L 872.085561 122.253913 
L 869.698396 122.253913 
z
" clip-path="url(#p32b07f3286)" style="fill: #1f77b4"/>
   </g>
   <g id="patch_109">
    <path d="M 872.085561 256.32 
L 874.472727 256.32 
L 874.472727 108.409365 
L 872.085561 108.409365 
z
" clip-path="url(#p32b07f3286)" style="fill: #1f77b4"/>
   </g>
   <g id="patch_110">
    <path d="M 874.472727 256.32 
L 876.859893 256.32 
L 876.859893 101.48709 
L 874.472727 101.48709 
z
" clip-path="url(#p32b07f3286)" style="fill: #1f77b4"/>
   </g>
   <g id="patch_111">
    <path d="M 876.859893 256.32 
L 879.247059 256.32 
L 879.247059 103.04107 
L 876.859893 103.04107 
z
" clip-path="url(#p32b07f3286)" style="fill: #1f77b4"/>
   </g>
   <g id="patch_112">
    <path d="M 879.247059 256.32 
L 881.634225 256.32 
L 881.634225 91.598127 
L 879.247059 91.598127 
z
" clip-path="url(#p32b07f3286)" style="fill: #1f77b4"/>
   </g>
   <g id="patch_113">
    <path d="M 881.634225 256.32 
L 884.02139 256.32 
L 884.02139 86.653645 
L 881.634225 86.653645 
z
" clip-path="url(#p32b07f3286)" style="fill: #1f77b4"/>
   </g>
   <g id="patch_114">
    <path d="M 884.02139 256.32 
L 886.408556 256.32 
L 886.408556 73.374181 
L 884.02139 73.374181 
z
" clip-path="url(#p32b07f3286)" style="fill: #1f77b4"/>
   </g>
   <g id="patch_115">
    <path d="M 886.408556 256.32 
L 888.795722 256.32 
L 888.795722 73.656722 
L 886.408556 73.656722 
z
" clip-path="url(#p32b07f3286)" style="fill: #1f77b4"/>
   </g>
   <g id="patch_116">
    <path d="M 888.795722 256.32 
L 891.182888 256.32 
L 891.182888 74.080535 
L 888.795722 74.080535 
z
" clip-path="url(#p32b07f3286)" style="fill: #1f77b4"/>
   </g>
   <g id="patch_117">
    <path d="M 891.182888 256.32 
L 893.570053 256.32 
L 893.570053 60.80107 
L 891.182888 60.80107 
z
" clip-path="url(#p32b07f3286)" style="fill: #1f77b4"/>
   </g>
   <g id="patch_118">
    <path d="M 893.570053 256.32 
L 895.957219 256.32 
L 895.957219 45.12 
L 893.570053 45.12 
z
" clip-path="url(#p32b07f3286)" style="fill: #1f77b4"/>
   </g>
   <g id="patch_119">
    <path d="M 895.957219 256.32 
L 898.344385 256.32 
L 898.344385 52.042274 
L 895.957219 52.042274 
z
" clip-path="url(#p32b07f3286)" style="fill: #1f77b4"/>
   </g>
   <g id="patch_120">
    <path d="M 898.344385 256.32 
L 900.731551 256.32 
L 900.731551 53.454983 
L 898.344385 53.454983 
z
" clip-path="url(#p32b07f3286)" style="fill: #1f77b4"/>
   </g>
   <g id="patch_121">
    <path d="M 900.731551 256.32 
L 903.118717 256.32 
L 903.118717 62.35505 
L 900.731551 62.35505 
z
" clip-path="url(#p32b07f3286)" style="fill: #1f77b4"/>
   </g>
   <g id="patch_122">
    <path d="M 903.118717 256.32 
L 905.505882 256.32 
L 905.505882 80.437726 
L 903.118717 80.437726 
z
" clip-path="url(#p32b07f3286)" style="fill: #1f77b4"/>
   </g>
   <g id="patch_123">
    <path d="M 905.505882 256.32 
L 907.893048 256.32 
L 907.893048 83.263144 
L 905.505882 83.263144 
z
" clip-path="url(#p32b07f3286)" style="fill: #1f77b4"/>
   </g>
   <g id="patch_124">
    <path d="M 907.893048 256.32 
L 910.280214 256.32 
L 910.280214 96.68388 
L 907.893048 96.68388 
z
" clip-path="url(#p32b07f3286)" style="fill: #1f77b4"/>
   </g>
   <g id="patch_125">
    <path d="M 910.280214 256.32 
L 912.66738 256.32 
L 912.66738 101.48709 
L 910.280214 101.48709 
z
" clip-path="url(#p32b07f3286)" style="fill: #1f77b4"/>
   </g>
   <g id="patch_126">
    <path d="M 912.66738 256.32 
L 915.054545 256.32 
L 915.054545 120.417391 
L 912.66738 120.417391 
z
" clip-path="url(#p32b07f3286)" style="fill: #1f77b4"/>
   </g>
   <g id="patch_127">
    <path d="M 915.054545 256.32 
L 917.441711 256.32 
L 917.441711 119.145953 
L 915.054545 119.145953 
z
" clip-path="url(#p32b07f3286)" style="fill: #1f77b4"/>
   </g>
   <g id="patch_128">
    <path d="M 917.441711 256.32 
L 919.828877 256.32 
L 919.828877 136.522274 
L 917.441711 136.522274 
z
" clip-path="url(#p32b07f3286)" style="fill: #1f77b4"/>
   </g>
   <g id="patch_129">
    <path d="M 919.828877 256.32 
L 922.216043 256.32 
L 922.216043 147.541405 
L 919.828877 147.541405 
z
" clip-path="url(#p32b07f3286)" style="fill: #1f77b4"/>
   </g>
   <g id="patch_130">
    <path d="M 922.216043 256.32 
L 924.603209 256.32 
L 924.603209 155.170033 
L 922.216043 155.170033 
z
" clip-path="url(#p32b07f3286)" style="fill: #1f77b4"/>
   </g>
   <g id="patch_131">
    <path d="M 924.603209 256.32 
L 926.990374 256.32 
L 926.990374 170.427291 
L 924.603209 170.427291 
z
" clip-path="url(#p32b07f3286)" style="fill: #1f77b4"/>
   </g>
   <g id="patch_132">
    <path d="M 926.990374 256.32 
L 929.37754 256.32 
L 929.37754 170.427291 
L 926.990374 170.427291 
z
" clip-path="url(#p32b07f3286)" style="fill: #1f77b4"/>
   </g>
   <g id="patch_133">
    <path d="M 929.37754 256.32 
L 931.764706 256.32 
L 931.764706 174.100334 
L 929.37754 174.100334 
z
" clip-path="url(#p32b07f3286)" style="fill: #1f77b4"/>
   </g>
   <g id="patch_134">
    <path d="M 931.764706 256.32 
L 934.151872 256.32 
L 934.151872 179.6099 
L 931.764706 179.6099 
z
" clip-path="url(#p32b07f3286)" style="fill: #1f77b4"/>
   </g>
   <g id="patch_135">
    <path d="M 934.151872 256.32 
L 936.539037 256.32 
L 936.539037 192.324281 
L 934.151872 192.324281 
z
" clip-path="url(#p32b07f3286)" style="fill: #1f77b4"/>
   </g>
   <g id="patch_136">
    <path d="M 936.539037 256.32 
L 938.926203 256.32 
L 938.926203 194.443344 
L 936.539037 194.443344 
z
" clip-path="url(#p32b07f3286)" style="fill: #1f77b4"/>
   </g>
   <g id="patch_137">
    <path d="M 938.926203 256.32 
L 941.313369 256.32 
L 941.313369 196.986221 
L 938.926203 196.986221 
z
" clip-path="url(#p32b07f3286)" style="fill: #1f77b4"/>
   </g>
   <g id="patch_138">
    <path d="M 941.313369 256.32 
L 943.700535 256.32 
L 943.700535 206.875184 
L 941.313369 206.875184 
z
" clip-path="url(#p32b07f3286)" style="fill: #1f77b4"/>
   </g>
   <g id="patch_139">
    <path d="M 943.700535 256.32 
L 946.087701 256.32 
L 946.087701 217.329231 
L 943.700535 217.329231 
z
" clip-path="url(#p32b07f3286)" style="fill: #1f77b4"/>
   </g>
   <g id="patch_140">
    <path d="M 946.087701 256.32 
L 948.474866 256.32 
L 948.474866 227.924548 
L 946.087701 227.924548 
z
" clip-path="url(#p32b07f3286)" style="fill: #1f77b4"/>
   </g>
   <g id="patch_141">
    <path d="M 948.474866 256.32 
L 950.862032 256.32 
L 950.862032 229.902341 
L 948.474866 229.902341 
z
" clip-path="url(#p32b07f3286)" style="fill: #1f77b4"/>
   </g>
   <g id="patch_142">
    <path d="M 950.862032 256.32 
L 953.249198 256.32 
L 953.249198 235.694448 
L 950.862032 235.694448 
z
" clip-path="url(#p32b07f3286)" style="fill: #1f77b4"/>
   </g>
   <g id="patch_143">
    <path d="M 953.249198 256.32 
L 955.636364 256.32 
L 955.636364 242.334181 
L 953.249198 242.334181 
z
" clip-path="url(#p32b07f3286)" style="fill: #1f77b4"/>
   </g>
   <g id="patch_144">
    <path d="M 955.636364 256.32 
L 958.023529 256.32 
L 958.023529 245.30087 
L 955.636364 245.30087 
z
" clip-path="url(#p32b07f3286)" style="fill: #1f77b4"/>
   </g>
   <g id="patch_145">
    <path d="M 958.023529 256.32 
L 960.410695 256.32 
L 960.410695 245.018328 
L 958.023529 245.018328 
z
" clip-path="url(#p32b07f3286)" style="fill: #1f77b4"/>
   </g>
   <g id="patch_146">
    <path d="M 960.410695 256.32 
L 962.797861 256.32 
L 962.797861 247.702475 
L 960.410695 247.702475 
z
" clip-path="url(#p32b07f3286)" style="fill: #1f77b4"/>
   </g>
   <g id="patch_147">
    <path d="M 962.797861 256.32 
L 965.185027 256.32 
L 965.185027 244.877057 
L 962.797861 244.877057 
z
" clip-path="url(#p32b07f3286)" style="fill: #1f77b4"/>
   </g>
   <g id="patch_148">
    <path d="M 965.185027 256.32 
L 967.572193 256.32 
L 967.572193 247.702475 
L 965.185027 247.702475 
z
" clip-path="url(#p32b07f3286)" style="fill: #1f77b4"/>
   </g>
   <g id="patch_149">
    <path d="M 967.572193 256.32 
L 969.959358 256.32 
L 969.959358 247.137391 
L 967.572193 247.137391 
z
" clip-path="url(#p32b07f3286)" style="fill: #1f77b4"/>
   </g>
   <g id="patch_150">
    <path d="M 969.959358 256.32 
L 972.346524 256.32 
L 972.346524 247.137391 
L 969.959358 247.137391 
z
" clip-path="url(#p32b07f3286)" style="fill: #1f77b4"/>
   </g>
   <g id="patch_151">
    <path d="M 972.346524 256.32 
L 974.73369 256.32 
L 974.73369 248.691371 
L 972.346524 248.691371 
z
" clip-path="url(#p32b07f3286)" style="fill: #1f77b4"/>
   </g>
   <g id="patch_152">
    <path d="M 974.73369 256.32 
L 977.120856 256.32 
L 977.120856 248.691371 
L 974.73369 248.691371 
z
" clip-path="url(#p32b07f3286)" style="fill: #1f77b4"/>
   </g>
   <g id="patch_153">
    <path d="M 977.120856 256.32 
L 979.508021 256.32 
L 979.508021 248.126288 
L 977.120856 248.126288 
z
" clip-path="url(#p32b07f3286)" style="fill: #1f77b4"/>
   </g>
   <g id="patch_154">
    <path d="M 979.508021 256.32 
L 981.895187 256.32 
L 981.895187 249.397726 
L 979.508021 249.397726 
z
" clip-path="url(#p32b07f3286)" style="fill: #1f77b4"/>
   </g>
   <g id="patch_155">
    <path d="M 981.895187 256.32 
L 984.282353 256.32 
L 984.282353 250.386622 
L 981.895187 250.386622 
z
" clip-path="url(#p32b07f3286)" style="fill: #1f77b4"/>
   </g>
   <g id="patch_156">
    <path d="M 984.282353 256.32 
L 986.669519 256.32 
L 986.669519 251.65806 
L 984.282353 251.65806 
z
" clip-path="url(#p32b07f3286)" style="fill: #1f77b4"/>
   </g>
   <g id="patch_157">
    <path d="M 986.669519 256.32 
L 989.056684 256.32 
L 989.056684 251.516789 
L 986.669519 251.516789 
z
" clip-path="url(#p32b07f3286)" style="fill: #1f77b4"/>
   </g>
   <g id="patch_158">
    <path d="M 989.056684 256.32 
L 991.44385 256.32 
L 991.44385 250.386622 
L 989.056684 250.386622 
z
" clip-path="url(#p32b07f3286)" style="fill: #1f77b4"/>
   </g>
   <g id="patch_159">
    <path d="M 991.44385 256.32 
L 993.831016 256.32 
L 993.831016 250.951706 
L 991.44385 250.951706 
z
" clip-path="url(#p32b07f3286)" style="fill: #1f77b4"/>
   </g>
   <g id="patch_160">
    <path d="M 993.831016 256.32 
L 996.218182 256.32 
L 996.218182 253.070769 
L 993.831016 253.070769 
z
" clip-path="url(#p32b07f3286)" style="fill: #1f77b4"/>
   </g>
   <g id="patch_161">
    <path d="M 996.218182 256.32 
L 998.605348 256.32 
L 998.605348 253.353311 
L 996.218182 253.353311 
z
" clip-path="url(#p32b07f3286)" style="fill: #1f77b4"/>
   </g>
   <g id="patch_162">
    <path d="M 998.605348 256.32 
L 1000.992513 256.32 
L 1000.992513 253.353311 
L 998.605348 253.353311 
z
" clip-path="url(#p32b07f3286)" style="fill: #1f77b4"/>
   </g>
   <g id="patch_163">
    <path d="M 1000.992513 256.32 
L 1003.379679 256.32 
L 1003.379679 253.635853 
L 1000.992513 253.635853 
z
" clip-path="url(#p32b07f3286)" style="fill: #1f77b4"/>
   </g>
   <g id="patch_164">
    <path d="M 1003.379679 256.32 
L 1005.766845 256.32 
L 1005.766845 253.777124 
L 1003.379679 253.777124 
z
" clip-path="url(#p32b07f3286)" style="fill: #1f77b4"/>
   </g>
   <g id="patch_165">
    <path d="M 1005.766845 256.32 
L 1008.154011 256.32 
L 1008.154011 254.624749 
L 1005.766845 254.624749 
z
" clip-path="url(#p32b07f3286)" style="fill: #1f77b4"/>
   </g>
   <g id="patch_166">
    <path d="M 1008.154011 256.32 
L 1010.541176 256.32 
L 1010.541176 254.059666 
L 1008.154011 254.059666 
z
" clip-path="url(#p32b07f3286)" style="fill: #1f77b4"/>
   </g>
   <g id="patch_167">
    <path d="M 1010.541176 256.32 
L 1012.928342 256.32 
L 1012.928342 255.048562 
L 1010.541176 255.048562 
z
" clip-path="url(#p32b07f3286)" style="fill: #1f77b4"/>
   </g>
   <g id="patch_168">
    <path d="M 1012.928342 256.32 
L 1015.315508 256.32 
L 1015.315508 255.331104 
L 1012.928342 255.331104 
z
" clip-path="url(#p32b07f3286)" style="fill: #1f77b4"/>
   </g>
   <g id="patch_169">
    <path d="M 1015.315508 256.32 
L 1017.702674 256.32 
L 1017.702674 255.613645 
L 1015.315508 255.613645 
z
" clip-path="url(#p32b07f3286)" style="fill: #1f77b4"/>
   </g>
   <g id="patch_170">
    <path d="M 1017.702674 256.32 
L 1020.08984 256.32 
L 1020.08984 255.896187 
L 1017.702674 255.896187 
z
" clip-path="url(#p32b07f3286)" style="fill: #1f77b4"/>
   </g>
   <g id="patch_171">
    <path d="M 1020.08984 256.32 
L 1022.477005 256.32 
L 1022.477005 255.896187 
L 1020.08984 255.896187 
z
" clip-path="url(#p32b07f3286)" style="fill: #1f77b4"/>
   </g>
   <g id="patch_172">
    <path d="M 1022.477005 256.32 
L 1024.864171 256.32 
L 1024.864171 256.178729 
L 1022.477005 256.178729 
z
" clip-path="url(#p32b07f3286)" style="fill: #1f77b4"/>
   </g>
   <g id="matplotlib.axis_5">
    <g id="xtick_13">
     <g id="line2d_29">
      <path d="M 824.751645 256.32 
L 824.751645 34.56 
" clip-path="url(#p32b07f3286)" style="fill: none; stroke: #b0b0b0; stroke-width: 0.8; stroke-linecap: square"/>
     </g>
     <g id="line2d_30">
      <g>
       <use xlink:href="#m05885192c5" x="824.751645" y="256.32" style="stroke: #000000; stroke-width: 0.8"/>
      </g>
     </g>
     <g id="text_33">
      <!-- 0.8 -->
      <g transform="translate(816.800082 270.918437) scale(0.1 -0.1)">
       <use xlink:href="#DejaVuSans-30"/>
       <use xlink:href="#DejaVuSans-2e" x="63.623047"/>
       <use xlink:href="#DejaVuSans-38" x="95.410156"/>
      </g>
     </g>
    </g>
    <g id="xtick_14">
     <g id="line2d_31">
      <path d="M 890.393076 256.32 
L 890.393076 34.56 
" clip-path="url(#p32b07f3286)" style="fill: none; stroke: #b0b0b0; stroke-width: 0.8; stroke-linecap: square"/>
     </g>
     <g id="line2d_32">
      <g>
       <use xlink:href="#m05885192c5" x="890.393076" y="256.32" style="stroke: #000000; stroke-width: 0.8"/>
      </g>
     </g>
     <g id="text_34">
      <!-- 1.0 -->
      <g transform="translate(882.441513 270.918437) scale(0.1 -0.1)">
       <use xlink:href="#DejaVuSans-31"/>
       <use xlink:href="#DejaVuSans-2e" x="63.623047"/>
       <use xlink:href="#DejaVuSans-30" x="95.410156"/>
      </g>
     </g>
    </g>
    <g id="xtick_15">
     <g id="line2d_33">
      <path d="M 956.034507 256.32 
L 956.034507 34.56 
" clip-path="url(#p32b07f3286)" style="fill: none; stroke: #b0b0b0; stroke-width: 0.8; stroke-linecap: square"/>
     </g>
     <g id="line2d_34">
      <g>
       <use xlink:href="#m05885192c5" x="956.034507" y="256.32" style="stroke: #000000; stroke-width: 0.8"/>
      </g>
     </g>
     <g id="text_35">
      <!-- 1.2 -->
      <g transform="translate(948.082944 270.918437) scale(0.1 -0.1)">
       <use xlink:href="#DejaVuSans-31"/>
       <use xlink:href="#DejaVuSans-2e" x="63.623047"/>
       <use xlink:href="#DejaVuSans-32" x="95.410156"/>
      </g>
     </g>
    </g>
    <g id="xtick_16">
     <g id="line2d_35">
      <path d="M 1021.675938 256.32 
L 1021.675938 34.56 
" clip-path="url(#p32b07f3286)" style="fill: none; stroke: #b0b0b0; stroke-width: 0.8; stroke-linecap: square"/>
     </g>
     <g id="line2d_36">
      <g>
       <use xlink:href="#m05885192c5" x="1021.675938" y="256.32" style="stroke: #000000; stroke-width: 0.8"/>
      </g>
     </g>
     <g id="text_36">
      <!-- 1.4 -->
      <g transform="translate(1013.724375 270.918437) scale(0.1 -0.1)">
       <use xlink:href="#DejaVuSans-31"/>
       <use xlink:href="#DejaVuSans-2e" x="63.623047"/>
       <use xlink:href="#DejaVuSans-34" x="95.410156"/>
      </g>
     </g>
    </g>
   </g>
   <g id="matplotlib.axis_6">
    <g id="ytick_15">
     <g id="line2d_37">
      <path d="M 774.211765 256.32 
L 1036.8 256.32 
" clip-path="url(#p32b07f3286)" style="fill: none; stroke: #b0b0b0; stroke-width: 0.8; stroke-linecap: square"/>
     </g>
     <g id="line2d_38">
      <g>
       <use xlink:href="#m409cb9cf63" x="774.211765" y="256.32" style="stroke: #000000; stroke-width: 0.8"/>
      </g>
     </g>
     <g id="text_37">
      <!-- 0 -->
      <g transform="translate(760.849265 260.119219) scale(0.1 -0.1)">
       <use xlink:href="#DejaVuSans-30"/>
      </g>
     </g>
    </g>
    <g id="ytick_16">
     <g id="line2d_39">
      <path d="M 774.211765 228.065819 
L 1036.8 228.065819 
" clip-path="url(#p32b07f3286)" style="fill: none; stroke: #b0b0b0; stroke-width: 0.8; stroke-linecap: square"/>
     </g>
     <g id="line2d_40">
      <g>
       <use xlink:href="#m409cb9cf63" x="774.211765" y="228.065819" style="stroke: #000000; stroke-width: 0.8"/>
      </g>
     </g>
     <g id="text_38">
      <!-- 200 -->
      <g transform="translate(748.124265 231.865038) scale(0.1 -0.1)">
       <use xlink:href="#DejaVuSans-32"/>
       <use xlink:href="#DejaVuSans-30" x="63.623047"/>
       <use xlink:href="#DejaVuSans-30" x="127.246094"/>
      </g>
     </g>
    </g>
    <g id="ytick_17">
     <g id="line2d_41">
      <path d="M 774.211765 199.811639 
L 1036.8 199.811639 
" clip-path="url(#p32b07f3286)" style="fill: none; stroke: #b0b0b0; stroke-width: 0.8; stroke-linecap: square"/>
     </g>
     <g id="line2d_42">
      <g>
       <use xlink:href="#m409cb9cf63" x="774.211765" y="199.811639" style="stroke: #000000; stroke-width: 0.8"/>
      </g>
     </g>
     <g id="text_39">
      <!-- 400 -->
      <g transform="translate(748.124265 203.610858) scale(0.1 -0.1)">
       <use xlink:href="#DejaVuSans-34"/>
       <use xlink:href="#DejaVuSans-30" x="63.623047"/>
       <use xlink:href="#DejaVuSans-30" x="127.246094"/>
      </g>
     </g>
    </g>
    <g id="ytick_18">
     <g id="line2d_43">
      <path d="M 774.211765 171.557458 
L 1036.8 171.557458 
" clip-path="url(#p32b07f3286)" style="fill: none; stroke: #b0b0b0; stroke-width: 0.8; stroke-linecap: square"/>
     </g>
     <g id="line2d_44">
      <g>
       <use xlink:href="#m409cb9cf63" x="774.211765" y="171.557458" style="stroke: #000000; stroke-width: 0.8"/>
      </g>
     </g>
     <g id="text_40">
      <!-- 600 -->
      <g transform="translate(748.124265 175.356677) scale(0.1 -0.1)">
       <use xlink:href="#DejaVuSans-36"/>
       <use xlink:href="#DejaVuSans-30" x="63.623047"/>
       <use xlink:href="#DejaVuSans-30" x="127.246094"/>
      </g>
     </g>
    </g>
    <g id="ytick_19">
     <g id="line2d_45">
      <path d="M 774.211765 143.303278 
L 1036.8 143.303278 
" clip-path="url(#p32b07f3286)" style="fill: none; stroke: #b0b0b0; stroke-width: 0.8; stroke-linecap: square"/>
     </g>
     <g id="line2d_46">
      <g>
       <use xlink:href="#m409cb9cf63" x="774.211765" y="143.303278" style="stroke: #000000; stroke-width: 0.8"/>
      </g>
     </g>
     <g id="text_41">
      <!-- 800 -->
      <g transform="translate(748.124265 147.102496) scale(0.1 -0.1)">
       <use xlink:href="#DejaVuSans-38"/>
       <use xlink:href="#DejaVuSans-30" x="63.623047"/>
       <use xlink:href="#DejaVuSans-30" x="127.246094"/>
      </g>
     </g>
    </g>
    <g id="ytick_20">
     <g id="line2d_47">
      <path d="M 774.211765 115.049097 
L 1036.8 115.049097 
" clip-path="url(#p32b07f3286)" style="fill: none; stroke: #b0b0b0; stroke-width: 0.8; stroke-linecap: square"/>
     </g>
     <g id="line2d_48">
      <g>
       <use xlink:href="#m409cb9cf63" x="774.211765" y="115.049097" style="stroke: #000000; stroke-width: 0.8"/>
      </g>
     </g>
     <g id="text_42">
      <!-- 1000 -->
      <g transform="translate(741.761765 118.848316) scale(0.1 -0.1)">
       <use xlink:href="#DejaVuSans-31"/>
       <use xlink:href="#DejaVuSans-30" x="63.623047"/>
       <use xlink:href="#DejaVuSans-30" x="127.246094"/>
       <use xlink:href="#DejaVuSans-30" x="190.869141"/>
      </g>
     </g>
    </g>
    <g id="ytick_21">
     <g id="line2d_49">
      <path d="M 774.211765 86.794916 
L 1036.8 86.794916 
" clip-path="url(#p32b07f3286)" style="fill: none; stroke: #b0b0b0; stroke-width: 0.8; stroke-linecap: square"/>
     </g>
     <g id="line2d_50">
      <g>
       <use xlink:href="#m409cb9cf63" x="774.211765" y="86.794916" style="stroke: #000000; stroke-width: 0.8"/>
      </g>
     </g>
     <g id="text_43">
      <!-- 1200 -->
      <g transform="translate(741.761765 90.594135) scale(0.1 -0.1)">
       <use xlink:href="#DejaVuSans-31"/>
       <use xlink:href="#DejaVuSans-32" x="63.623047"/>
       <use xlink:href="#DejaVuSans-30" x="127.246094"/>
       <use xlink:href="#DejaVuSans-30" x="190.869141"/>
      </g>
     </g>
    </g>
    <g id="ytick_22">
     <g id="line2d_51">
      <path d="M 774.211765 58.540736 
L 1036.8 58.540736 
" clip-path="url(#p32b07f3286)" style="fill: none; stroke: #b0b0b0; stroke-width: 0.8; stroke-linecap: square"/>
     </g>
     <g id="line2d_52">
      <g>
       <use xlink:href="#m409cb9cf63" x="774.211765" y="58.540736" style="stroke: #000000; stroke-width: 0.8"/>
      </g>
     </g>
     <g id="text_44">
      <!-- 1400 -->
      <g transform="translate(741.761765 62.339955) scale(0.1 -0.1)">
       <use xlink:href="#DejaVuSans-31"/>
       <use xlink:href="#DejaVuSans-34" x="63.623047"/>
       <use xlink:href="#DejaVuSans-30" x="127.246094"/>
       <use xlink:href="#DejaVuSans-30" x="190.869141"/>
      </g>
     </g>
    </g>
   </g>
   <g id="patch_173">
    <path d="M 774.211765 256.32 
L 774.211765 34.56 
" style="fill: none; stroke: #000000; stroke-width: 0.8; stroke-linejoin: miter; stroke-linecap: square"/>
   </g>
   <g id="patch_174">
    <path d="M 1036.8 256.32 
L 1036.8 34.56 
" style="fill: none; stroke: #000000; stroke-width: 0.8; stroke-linejoin: miter; stroke-linecap: square"/>
   </g>
   <g id="patch_175">
    <path d="M 774.211765 256.32 
L 1036.8 256.32 
" style="fill: none; stroke: #000000; stroke-width: 0.8; stroke-linejoin: miter; stroke-linecap: square"/>
   </g>
   <g id="patch_176">
    <path d="M 774.211765 34.56 
L 1036.8 34.56 
" style="fill: none; stroke: #000000; stroke-width: 0.8; stroke-linejoin: miter; stroke-linecap: square"/>
   </g>
   <g id="text_45">
    <!-- Scale factors v. naive aniso scaling -->
    <g transform="translate(800.751507 28.56) scale(0.12 -0.12)">
     <defs>
      <path id="DejaVuSans-53" d="M 3425 4513 
L 3425 3897 
Q 3066 4069 2747 4153 
Q 2428 4238 2131 4238 
Q 1616 4238 1336 4038 
Q 1056 3838 1056 3469 
Q 1056 3159 1242 3001 
Q 1428 2844 1947 2747 
L 2328 2669 
Q 3034 2534 3370 2195 
Q 3706 1856 3706 1288 
Q 3706 609 3251 259 
Q 2797 -91 1919 -91 
Q 1588 -91 1214 -16 
Q 841 59 441 206 
L 441 856 
Q 825 641 1194 531 
Q 1563 422 1919 422 
Q 2459 422 2753 634 
Q 3047 847 3047 1241 
Q 3047 1584 2836 1778 
Q 2625 1972 2144 2069 
L 1759 2144 
Q 1053 2284 737 2584 
Q 422 2884 422 3419 
Q 422 4038 858 4394 
Q 1294 4750 2059 4750 
Q 2388 4750 2728 4690 
Q 3069 4631 3425 4513 
z
" transform="scale(0.015625)"/>
      <path id="DejaVuSans-76" d="M 191 3500 
L 800 3500 
L 1894 563 
L 2988 3500 
L 3597 3500 
L 2284 0 
L 1503 0 
L 191 3500 
z
" transform="scale(0.015625)"/>
      <path id="DejaVuSans-67" d="M 2906 1791 
Q 2906 2416 2648 2759 
Q 2391 3103 1925 3103 
Q 1463 3103 1205 2759 
Q 947 2416 947 1791 
Q 947 1169 1205 825 
Q 1463 481 1925 481 
Q 2391 481 2648 825 
Q 2906 1169 2906 1791 
z
M 3481 434 
Q 3481 -459 3084 -895 
Q 2688 -1331 1869 -1331 
Q 1566 -1331 1297 -1286 
Q 1028 -1241 775 -1147 
L 775 -588 
Q 1028 -725 1275 -790 
Q 1522 -856 1778 -856 
Q 2344 -856 2625 -561 
Q 2906 -266 2906 331 
L 2906 616 
Q 2728 306 2450 153 
Q 2172 0 1784 0 
Q 1141 0 747 490 
Q 353 981 353 1791 
Q 353 2603 747 3093 
Q 1141 3584 1784 3584 
Q 2172 3584 2450 3431 
Q 2728 3278 2906 2969 
L 2906 3500 
L 3481 3500 
L 3481 434 
z
" transform="scale(0.015625)"/>
     </defs>
     <use xlink:href="#DejaVuSans-53"/>
     <use xlink:href="#DejaVuSans-63" x="63.476562"/>
     <use xlink:href="#DejaVuSans-61" x="118.457031"/>
     <use xlink:href="#DejaVuSans-6c" x="179.736328"/>
     <use xlink:href="#DejaVuSans-65" x="207.519531"/>
     <use xlink:href="#DejaVuSans-20" x="269.042969"/>
     <use xlink:href="#DejaVuSans-66" x="300.830078"/>
     <use xlink:href="#DejaVuSans-61" x="336.035156"/>
     <use xlink:href="#DejaVuSans-63" x="397.314453"/>
     <use xlink:href="#DejaVuSans-74" x="452.294922"/>
     <use xlink:href="#DejaVuSans-6f" x="491.503906"/>
     <use xlink:href="#DejaVuSans-72" x="552.685547"/>
     <use xlink:href="#DejaVuSans-73" x="593.798828"/>
     <use xlink:href="#DejaVuSans-20" x="645.898438"/>
     <use xlink:href="#DejaVuSans-76" x="677.685547"/>
     <use xlink:href="#DejaVuSans-2e" x="729.115234"/>
     <use xlink:href="#DejaVuSans-20" x="760.902344"/>
     <use xlink:href="#DejaVuSans-6e" x="792.689453"/>
     <use xlink:href="#DejaVuSans-61" x="856.068359"/>
     <use xlink:href="#DejaVuSans-69" x="917.347656"/>
     <use xlink:href="#DejaVuSans-76" x="945.130859"/>
     <use xlink:href="#DejaVuSans-65" x="1004.310547"/>
     <use xlink:href="#DejaVuSans-20" x="1065.833984"/>
     <use xlink:href="#DejaVuSans-61" x="1097.621094"/>
     <use xlink:href="#DejaVuSans-6e" x="1158.900391"/>
     <use xlink:href="#DejaVuSans-69" x="1222.279297"/>
     <use xlink:href="#DejaVuSans-73" x="1250.0625"/>
     <use xlink:href="#DejaVuSans-6f" x="1302.162109"/>
     <use xlink:href="#DejaVuSans-20" x="1363.34375"/>
     <use xlink:href="#DejaVuSans-73" x="1395.130859"/>
     <use xlink:href="#DejaVuSans-63" x="1447.230469"/>
     <use xlink:href="#DejaVuSans-61" x="1502.210938"/>
     <use xlink:href="#DejaVuSans-6c" x="1563.490234"/>
     <use xlink:href="#DejaVuSans-69" x="1591.273438"/>
     <use xlink:href="#DejaVuSans-6e" x="1619.056641"/>
     <use xlink:href="#DejaVuSans-67" x="1682.435547"/>
    </g>
   </g>
  </g>
 </g>
 <defs>
  <clipPath id="p8ad72501b3">
   <rect x="144" y="34.56" width="262.588235" height="221.76"/>
  </clipPath>
  <clipPath id="pb23509a0f3">
   <rect x="459.105882" y="34.56" width="262.588235" height="221.76"/>
  </clipPath>
  <clipPath id="p32b07f3286">
   <rect x="774.211765" y="34.56" width="262.588235" height="221.76"/>
  </clipPath>
 </defs>
</svg>
