<?xml version="1.0" encoding="utf-8" standalone="no"?>
<!DOCTYPE svg PUBLIC "-//W3C//DTD SVG 1.1//EN"
  "http://www.w3.org/Graphics/SVG/1.1/DTD/svg11.dtd">
<svg xmlns:xlink="http://www.w3.org/1999/xlink" width="1152pt" height="288pt" viewBox="0 0 1152 288" xmlns="http://www.w3.org/2000/svg" version="1.1">
 <metadata>
  <rdf:RDF xmlns:dc="http://purl.org/dc/elements/1.1/" xmlns:cc="http://creativecommons.org/ns#" xmlns:rdf="http://www.w3.org/1999/02/22-rdf-syntax-ns#">
   <cc:Work>
    <dc:type rdf:resource="http://purl.org/dc/dcmitype/StillImage"/>
    <dc:date>2024-02-22T10:28:24.621834</dc:date>
    <dc:format>image/svg+xml</dc:format>
    <dc:creator>
     <cc:Agent>
      <dc:title>Matplotlib v3.8.2, https://matplotlib.org/</dc:title>
     </cc:Agent>
    </dc:creator>
   </cc:Work>
  </rdf:RDF>
 </metadata>
 <defs>
  <style type="text/css">*{stroke-linejoin: round; stroke-linecap: butt}</style>
 </defs>
 <g id="figure_1">
  <g id="patch_1">
   <path d="M 0 288 
L 1152 288 
L 1152 0 
L 0 0 
z
" style="fill: #ffffff"/>
  </g>
  <g id="axes_1">
   <g id="patch_2">
    <path d="M 144 256.32 
L 406.588235 256.32 
L 406.588235 34.56 
L 144 34.56 
z
" style="fill: #ffffff"/>
   </g>
   <g id="patch_3">
    <path d="M 144 256.32 
L 152.931573 256.32 
L 152.931573 212.332675 
L 144 212.332675 
z
" clip-path="url(#pf8037a24d9)" style="fill: #1f77b4"/>
   </g>
   <g id="patch_4">
    <path d="M 152.931573 256.32 
L 161.863145 256.32 
L 161.863145 136.925832 
L 152.931573 136.925832 
z
" clip-path="url(#pf8037a24d9)" style="fill: #1f77b4"/>
   </g>
   <g id="patch_5">
    <path d="M 161.863145 256.32 
L 170.794718 256.32 
L 170.794718 75.657773 
L 161.863145 75.657773 
z
" clip-path="url(#pf8037a24d9)" style="fill: #1f77b4"/>
   </g>
   <g id="patch_6">
    <path d="M 170.794718 256.32 
L 179.726291 256.32 
L 179.726291 71.730333 
L 170.794718 71.730333 
z
" clip-path="url(#pf8037a24d9)" style="fill: #1f77b4"/>
   </g>
   <g id="patch_7">
    <path d="M 179.726291 256.32 
L 188.657863 256.32 
L 188.657863 88.22558 
L 179.726291 88.22558 
z
" clip-path="url(#pf8037a24d9)" style="fill: #1f77b4"/>
   </g>
   <g id="patch_8">
    <path d="M 188.657863 256.32 
L 197.589436 256.32 
L 197.589436 89.011068 
L 188.657863 89.011068 
z
" clip-path="url(#pf8037a24d9)" style="fill: #1f77b4"/>
   </g>
   <g id="patch_9">
    <path d="M 197.589436 256.32 
L 206.521008 256.32 
L 206.521008 139.282296 
L 197.589436 139.282296 
z
" clip-path="url(#pf8037a24d9)" style="fill: #1f77b4"/>
   </g>
   <g id="patch_10">
    <path d="M 206.521008 256.32 
L 215.452581 256.32 
L 215.452581 140.067784 
L 206.521008 140.067784 
z
" clip-path="url(#pf8037a24d9)" style="fill: #1f77b4"/>
   </g>
   <g id="patch_11">
    <path d="M 215.452581 256.32 
L 224.384154 256.32 
L 224.384154 195.05194 
L 215.452581 195.05194 
z
" clip-path="url(#pf8037a24d9)" style="fill: #1f77b4"/>
   </g>
   <g id="patch_12">
    <path d="M 224.384154 256.32 
L 233.315726 256.32 
L 233.315726 217.045603 
L 224.384154 217.045603 
z
" clip-path="url(#pf8037a24d9)" style="fill: #1f77b4"/>
   </g>
   <g id="patch_13">
    <path d="M 233.315726 256.32 
L 242.247299 256.32 
L 242.247299 221.75853 
L 233.315726 221.75853 
z
" clip-path="url(#pf8037a24d9)" style="fill: #1f77b4"/>
   </g>
   <g id="patch_14">
    <path d="M 242.247299 256.32 
L 251.178872 256.32 
L 251.178872 246.894145 
L 242.247299 246.894145 
z
" clip-path="url(#pf8037a24d9)" style="fill: #1f77b4"/>
   </g>
   <g id="patch_15">
    <path d="M 251.178872 256.32 
L 260.110444 256.32 
L 260.110444 246.894145 
L 251.178872 246.894145 
z
" clip-path="url(#pf8037a24d9)" style="fill: #1f77b4"/>
   </g>
   <g id="patch_16">
    <path d="M 260.110444 256.32 
L 269.042017 256.32 
L 269.042017 252.39256 
L 260.110444 252.39256 
z
" clip-path="url(#pf8037a24d9)" style="fill: #1f77b4"/>
   </g>
   <g id="patch_17">
    <path d="M 269.042017 256.32 
L 277.973589 256.32 
L 277.973589 254.749024 
L 269.042017 254.749024 
z
" clip-path="url(#pf8037a24d9)" style="fill: #1f77b4"/>
   </g>
   <g id="patch_18">
    <path d="M 277.973589 256.32 
L 286.905162 256.32 
L 286.905162 253.963536 
L 277.973589 253.963536 
z
" clip-path="url(#pf8037a24d9)" style="fill: #1f77b4"/>
   </g>
   <g id="patch_19">
    <path d="M 286.905162 256.32 
L 295.836735 256.32 
L 295.836735 255.534512 
L 286.905162 255.534512 
z
" clip-path="url(#pf8037a24d9)" style="fill: #1f77b4"/>
   </g>
   <g id="patch_20">
    <path d="M 295.836735 256.32 
L 304.768307 256.32 
L 304.768307 256.32 
L 295.836735 256.32 
z
" clip-path="url(#pf8037a24d9)" style="fill: #1f77b4"/>
   </g>
   <g id="patch_21">
    <path d="M 304.768307 256.32 
L 313.69988 256.32 
L 313.69988 256.32 
L 304.768307 256.32 
z
" clip-path="url(#pf8037a24d9)" style="fill: #1f77b4"/>
   </g>
   <g id="patch_22">
    <path d="M 313.69988 256.32 
L 322.631453 256.32 
L 322.631453 255.534512 
L 313.69988 255.534512 
z
" clip-path="url(#pf8037a24d9)" style="fill: #1f77b4"/>
   </g>
   <g id="patch_23">
    <path d="M 322.631453 256.32 
L 331.563025 256.32 
L 331.563025 256.32 
L 322.631453 256.32 
z
" clip-path="url(#pf8037a24d9)" style="fill: #1f77b4"/>
   </g>
   <g id="patch_24">
    <path d="M 331.563025 256.32 
L 340.494598 256.32 
L 340.494598 256.32 
L 331.563025 256.32 
z
" clip-path="url(#pf8037a24d9)" style="fill: #1f77b4"/>
   </g>
   <g id="patch_25">
    <path d="M 340.494598 256.32 
L 349.42617 256.32 
L 349.42617 256.32 
L 340.494598 256.32 
z
" clip-path="url(#pf8037a24d9)" style="fill: #1f77b4"/>
   </g>
   <g id="patch_26">
    <path d="M 349.42617 256.32 
L 358.357743 256.32 
L 358.357743 256.32 
L 349.42617 256.32 
z
" clip-path="url(#pf8037a24d9)" style="fill: #1f77b4"/>
   </g>
   <g id="patch_27">
    <path d="M 358.357743 256.32 
L 367.289316 256.32 
L 367.289316 256.32 
L 358.357743 256.32 
z
" clip-path="url(#pf8037a24d9)" style="fill: #1f77b4"/>
   </g>
   <g id="patch_28">
    <path d="M 367.289316 256.32 
L 376.220888 256.32 
L 376.220888 256.32 
L 367.289316 256.32 
z
" clip-path="url(#pf8037a24d9)" style="fill: #1f77b4"/>
   </g>
   <g id="patch_29">
    <path d="M 376.220888 256.32 
L 385.152461 256.32 
L 385.152461 256.32 
L 376.220888 256.32 
z
" clip-path="url(#pf8037a24d9)" style="fill: #1f77b4"/>
   </g>
   <g id="patch_30">
    <path d="M 385.152461 256.32 
L 394.084034 256.32 
L 394.084034 256.32 
L 385.152461 256.32 
z
" clip-path="url(#pf8037a24d9)" style="fill: #1f77b4"/>
   </g>
   <g id="patch_31">
    <path d="M 394.084034 256.32 
L 403.015606 256.32 
L 403.015606 256.32 
L 394.084034 256.32 
z
" clip-path="url(#pf8037a24d9)" style="fill: #1f77b4"/>
   </g>
   <g id="patch_32">
    <path d="M 403.015606 256.32 
L 411.947179 256.32 
L 411.947179 256.32 
L 403.015606 256.32 
z
" clip-path="url(#pf8037a24d9)" style="fill: #1f77b4"/>
   </g>
   <g id="patch_33">
    <path d="M 411.947179 256.32 
L 420.878752 256.32 
L 420.878752 256.32 
L 411.947179 256.32 
z
" clip-path="url(#pf8037a24d9)" style="fill: #1f77b4"/>
   </g>
   <g id="patch_34">
    <path d="M 420.878752 256.32 
L 429.810324 256.32 
L 429.810324 256.32 
L 420.878752 256.32 
z
" clip-path="url(#pf8037a24d9)" style="fill: #1f77b4"/>
   </g>
   <g id="patch_35">
    <path d="M 429.810324 256.32 
L 438.741897 256.32 
L 438.741897 256.32 
L 429.810324 256.32 
z
" clip-path="url(#pf8037a24d9)" style="fill: #1f77b4"/>
   </g>
   <g id="patch_36">
    <path d="M 438.741897 256.32 
L 447.673469 256.32 
L 447.673469 256.32 
L 438.741897 256.32 
z
" clip-path="url(#pf8037a24d9)" style="fill: #1f77b4"/>
   </g>
   <g id="patch_37">
    <path d="M 447.673469 256.32 
L 456.605042 256.32 
L 456.605042 256.32 
L 447.673469 256.32 
z
" clip-path="url(#pf8037a24d9)" style="fill: #1f77b4"/>
   </g>
   <g id="patch_38">
    <path d="M 456.605042 256.32 
L 465.536615 256.32 
L 465.536615 256.32 
L 456.605042 256.32 
z
" clip-path="url(#pf8037a24d9)" style="fill: #1f77b4"/>
   </g>
   <g id="patch_39">
    <path d="M 465.536615 256.32 
L 474.468187 256.32 
L 474.468187 256.32 
L 465.536615 256.32 
z
" clip-path="url(#pf8037a24d9)" style="fill: #1f77b4"/>
   </g>
   <g id="patch_40">
    <path d="M 474.468187 256.32 
L 483.39976 256.32 
L 483.39976 256.32 
L 474.468187 256.32 
z
" clip-path="url(#pf8037a24d9)" style="fill: #1f77b4"/>
   </g>
   <g id="patch_41">
    <path d="M 483.39976 256.32 
L 492.331333 256.32 
L 492.331333 256.32 
L 483.39976 256.32 
z
" clip-path="url(#pf8037a24d9)" style="fill: #1f77b4"/>
   </g>
   <g id="patch_42">
    <path d="M 492.331333 256.32 
L 501.262905 256.32 
L 501.262905 256.32 
L 492.331333 256.32 
z
" clip-path="url(#pf8037a24d9)" style="fill: #1f77b4"/>
   </g>
   <g id="patch_43">
    <path d="M 501.262905 256.32 
L 510.194478 256.32 
L 510.194478 256.32 
L 501.262905 256.32 
z
" clip-path="url(#pf8037a24d9)" style="fill: #1f77b4"/>
   </g>
   <g id="patch_44">
    <path d="M 510.194478 256.32 
L 519.12605 256.32 
L 519.12605 256.32 
L 510.194478 256.32 
z
" clip-path="url(#pf8037a24d9)" style="fill: #1f77b4"/>
   </g>
   <g id="patch_45">
    <path d="M 519.12605 256.32 
L 528.057623 256.32 
L 528.057623 256.32 
L 519.12605 256.32 
z
" clip-path="url(#pf8037a24d9)" style="fill: #1f77b4"/>
   </g>
   <g id="patch_46">
    <path d="M 528.057623 256.32 
L 536.989196 256.32 
L 536.989196 256.32 
L 528.057623 256.32 
z
" clip-path="url(#pf8037a24d9)" style="fill: #1f77b4"/>
   </g>
   <g id="patch_47">
    <path d="M 536.989196 256.32 
L 545.920768 256.32 
L 545.920768 256.32 
L 536.989196 256.32 
z
" clip-path="url(#pf8037a24d9)" style="fill: #1f77b4"/>
   </g>
   <g id="patch_48">
    <path d="M 545.920768 256.32 
L 554.852341 256.32 
L 554.852341 256.32 
L 545.920768 256.32 
z
" clip-path="url(#pf8037a24d9)" style="fill: #1f77b4"/>
   </g>
   <g id="patch_49">
    <path d="M 554.852341 256.32 
L 563.783914 256.32 
L 563.783914 256.32 
L 554.852341 256.32 
z
" clip-path="url(#pf8037a24d9)" style="fill: #1f77b4"/>
   </g>
   <g id="patch_50">
    <path d="M 563.783914 256.32 
L 572.715486 256.32 
L 572.715486 256.32 
L 563.783914 256.32 
z
" clip-path="url(#pf8037a24d9)" style="fill: #1f77b4"/>
   </g>
   <g id="patch_51">
    <path d="M 572.715486 256.32 
L 581.647059 256.32 
L 581.647059 256.32 
L 572.715486 256.32 
z
" clip-path="url(#pf8037a24d9)" style="fill: #1f77b4"/>
   </g>
   <g id="matplotlib.axis_1">
    <g id="xtick_1">
     <g id="line2d_1">
      <defs>
       <path id="m4a1b2d1a37" d="M 0 0 
L 0 3.5 
" style="stroke: #000000; stroke-width: 0.8"/>
      </defs>
      <g>
       <use xlink:href="#m4a1b2d1a37" x="144" y="256.32" style="stroke: #000000; stroke-width: 0.8"/>
      </g>
     </g>
     <g id="text_1">
      <!-- 0.0 -->
      <g transform="translate(134.458125 272.438125) scale(0.12 -0.12)">
       <defs>
        <path id="DejaVuSans-30" d="M 2034 4250 
Q 1547 4250 1301 3770 
Q 1056 3291 1056 2328 
Q 1056 1369 1301 889 
Q 1547 409 2034 409 
Q 2525 409 2770 889 
Q 3016 1369 3016 2328 
Q 3016 3291 2770 3770 
Q 2525 4250 2034 4250 
z
M 2034 4750 
Q 2819 4750 3233 4129 
Q 3647 3509 3647 2328 
Q 3647 1150 3233 529 
Q 2819 -91 2034 -91 
Q 1250 -91 836 529 
Q 422 1150 422 2328 
Q 422 3509 836 4129 
Q 1250 4750 2034 4750 
z
" transform="scale(0.015625)"/>
        <path id="DejaVuSans-2e" d="M 684 794 
L 1344 794 
L 1344 0 
L 684 0 
L 684 794 
z
" transform="scale(0.015625)"/>
       </defs>
       <use xlink:href="#DejaVuSans-30"/>
       <use xlink:href="#DejaVuSans-2e" x="63.623047"/>
       <use xlink:href="#DejaVuSans-30" x="95.410156"/>
      </g>
     </g>
    </g>
    <g id="xtick_2">
     <g id="line2d_2">
      <g>
       <use xlink:href="#m4a1b2d1a37" x="187.764706" y="256.32" style="stroke: #000000; stroke-width: 0.8"/>
      </g>
     </g>
     <g id="text_2">
      <!-- 0.5 -->
      <g transform="translate(178.222831 272.438125) scale(0.12 -0.12)">
       <defs>
        <path id="DejaVuSans-35" d="M 691 4666 
L 3169 4666 
L 3169 4134 
L 1269 4134 
L 1269 2991 
Q 1406 3038 1543 3061 
Q 1681 3084 1819 3084 
Q 2600 3084 3056 2656 
Q 3513 2228 3513 1497 
Q 3513 744 3044 326 
Q 2575 -91 1722 -91 
Q 1428 -91 1123 -41 
Q 819 9 494 109 
L 494 744 
Q 775 591 1075 516 
Q 1375 441 1709 441 
Q 2250 441 2565 725 
Q 2881 1009 2881 1497 
Q 2881 1984 2565 2268 
Q 2250 2553 1709 2553 
Q 1456 2553 1204 2497 
Q 953 2441 691 2322 
L 691 4666 
z
" transform="scale(0.015625)"/>
       </defs>
       <use xlink:href="#DejaVuSans-30"/>
       <use xlink:href="#DejaVuSans-2e" x="63.623047"/>
       <use xlink:href="#DejaVuSans-35" x="95.410156"/>
      </g>
     </g>
    </g>
    <g id="xtick_3">
     <g id="line2d_3">
      <g>
       <use xlink:href="#m4a1b2d1a37" x="231.529412" y="256.32" style="stroke: #000000; stroke-width: 0.8"/>
      </g>
     </g>
     <g id="text_3">
      <!-- 1.0 -->
      <g transform="translate(221.987537 272.438125) scale(0.12 -0.12)">
       <defs>
        <path id="DejaVuSans-31" d="M 794 531 
L 1825 531 
L 1825 4091 
L 703 3866 
L 703 4441 
L 1819 4666 
L 2450 4666 
L 2450 531 
L 3481 531 
L 3481 0 
L 794 0 
L 794 531 
z
" transform="scale(0.015625)"/>
       </defs>
       <use xlink:href="#DejaVuSans-31"/>
       <use xlink:href="#DejaVuSans-2e" x="63.623047"/>
       <use xlink:href="#DejaVuSans-30" x="95.410156"/>
      </g>
     </g>
    </g>
    <g id="xtick_4">
     <g id="line2d_4">
      <g>
       <use xlink:href="#m4a1b2d1a37" x="275.294118" y="256.32" style="stroke: #000000; stroke-width: 0.8"/>
      </g>
     </g>
     <g id="text_4">
      <!-- 1.5 -->
      <g transform="translate(265.752243 272.438125) scale(0.12 -0.12)">
       <use xlink:href="#DejaVuSans-31"/>
       <use xlink:href="#DejaVuSans-2e" x="63.623047"/>
       <use xlink:href="#DejaVuSans-35" x="95.410156"/>
      </g>
     </g>
    </g>
    <g id="xtick_5">
     <g id="line2d_5">
      <g>
       <use xlink:href="#m4a1b2d1a37" x="319.058824" y="256.32" style="stroke: #000000; stroke-width: 0.8"/>
      </g>
     </g>
     <g id="text_5">
      <!-- 2.0 -->
      <g transform="translate(309.516949 272.438125) scale(0.12 -0.12)">
       <defs>
        <path id="DejaVuSans-32" d="M 1228 531 
L 3431 531 
L 3431 0 
L 469 0 
L 469 531 
Q 828 903 1448 1529 
Q 2069 2156 2228 2338 
Q 2531 2678 2651 2914 
Q 2772 3150 2772 3378 
Q 2772 3750 2511 3984 
Q 2250 4219 1831 4219 
Q 1534 4219 1204 4116 
Q 875 4013 500 3803 
L 500 4441 
Q 881 4594 1212 4672 
Q 1544 4750 1819 4750 
Q 2544 4750 2975 4387 
Q 3406 4025 3406 3419 
Q 3406 3131 3298 2873 
Q 3191 2616 2906 2266 
Q 2828 2175 2409 1742 
Q 1991 1309 1228 531 
z
" transform="scale(0.015625)"/>
       </defs>
       <use xlink:href="#DejaVuSans-32"/>
       <use xlink:href="#DejaVuSans-2e" x="63.623047"/>
       <use xlink:href="#DejaVuSans-30" x="95.410156"/>
      </g>
     </g>
    </g>
    <g id="xtick_6">
     <g id="line2d_6">
      <g>
       <use xlink:href="#m4a1b2d1a37" x="362.823529" y="256.32" style="stroke: #000000; stroke-width: 0.8"/>
      </g>
     </g>
     <g id="text_6">
      <!-- 2.5 -->
      <g transform="translate(353.281654 272.438125) scale(0.12 -0.12)">
       <use xlink:href="#DejaVuSans-32"/>
       <use xlink:href="#DejaVuSans-2e" x="63.623047"/>
       <use xlink:href="#DejaVuSans-35" x="95.410156"/>
      </g>
     </g>
    </g>
    <g id="xtick_7">
     <g id="line2d_7">
      <g>
       <use xlink:href="#m4a1b2d1a37" x="406.588235" y="256.32" style="stroke: #000000; stroke-width: 0.8"/>
      </g>
     </g>
     <g id="text_7">
      <!-- 3.0 -->
      <g transform="translate(397.04636 272.438125) scale(0.12 -0.12)">
       <defs>
        <path id="DejaVuSans-33" d="M 2597 2516 
Q 3050 2419 3304 2112 
Q 3559 1806 3559 1356 
Q 3559 666 3084 287 
Q 2609 -91 1734 -91 
Q 1441 -91 1130 -33 
Q 819 25 488 141 
L 488 750 
Q 750 597 1062 519 
Q 1375 441 1716 441 
Q 2309 441 2620 675 
Q 2931 909 2931 1356 
Q 2931 1769 2642 2001 
Q 2353 2234 1838 2234 
L 1294 2234 
L 1294 2753 
L 1863 2753 
Q 2328 2753 2575 2939 
Q 2822 3125 2822 3475 
Q 2822 3834 2567 4026 
Q 2313 4219 1838 4219 
Q 1578 4219 1281 4162 
Q 984 4106 628 3988 
L 628 4550 
Q 988 4650 1302 4700 
Q 1616 4750 1894 4750 
Q 2613 4750 3031 4423 
Q 3450 4097 3450 3541 
Q 3450 3153 3228 2886 
Q 3006 2619 2597 2516 
z
" transform="scale(0.015625)"/>
       </defs>
       <use xlink:href="#DejaVuSans-33"/>
       <use xlink:href="#DejaVuSans-2e" x="63.623047"/>
       <use xlink:href="#DejaVuSans-30" x="95.410156"/>
      </g>
     </g>
    </g>
   </g>
   <g id="matplotlib.axis_2">
    <g id="ytick_1">
     <g id="line2d_8">
      <defs>
       <path id="m9920f5b3fb" d="M 0 0 
L -3.5 0 
" style="stroke: #000000; stroke-width: 0.8"/>
      </defs>
      <g>
       <use xlink:href="#m9920f5b3fb" x="144" y="256.32" style="stroke: #000000; stroke-width: 0.8"/>
      </g>
     </g>
     <g id="text_8">
      <!-- 0.0 -->
      <g transform="translate(117.91625 260.879063) scale(0.12 -0.12)">
       <use xlink:href="#DejaVuSans-30"/>
       <use xlink:href="#DejaVuSans-2e" x="63.623047"/>
       <use xlink:href="#DejaVuSans-30" x="95.410156"/>
      </g>
     </g>
    </g>
    <g id="ytick_2">
     <g id="line2d_9">
      <g>
       <use xlink:href="#m9920f5b3fb" x="144" y="230.591262" style="stroke: #000000; stroke-width: 0.8"/>
      </g>
     </g>
     <g id="text_9">
      <!-- 0.2 -->
      <g transform="translate(117.91625 235.150325) scale(0.12 -0.12)">
       <use xlink:href="#DejaVuSans-30"/>
       <use xlink:href="#DejaVuSans-2e" x="63.623047"/>
       <use xlink:href="#DejaVuSans-32" x="95.410156"/>
      </g>
     </g>
    </g>
    <g id="ytick_3">
     <g id="line2d_10">
      <g>
       <use xlink:href="#m9920f5b3fb" x="144" y="204.862524" style="stroke: #000000; stroke-width: 0.8"/>
      </g>
     </g>
     <g id="text_10">
      <!-- 0.4 -->
      <g transform="translate(117.91625 209.421587) scale(0.12 -0.12)">
       <defs>
        <path id="DejaVuSans-34" d="M 2419 4116 
L 825 1625 
L 2419 1625 
L 2419 4116 
z
M 2253 4666 
L 3047 4666 
L 3047 1625 
L 3713 1625 
L 3713 1100 
L 3047 1100 
L 3047 0 
L 2419 0 
L 2419 1100 
L 313 1100 
L 313 1709 
L 2253 4666 
z
" transform="scale(0.015625)"/>
       </defs>
       <use xlink:href="#DejaVuSans-30"/>
       <use xlink:href="#DejaVuSans-2e" x="63.623047"/>
       <use xlink:href="#DejaVuSans-34" x="95.410156"/>
      </g>
     </g>
    </g>
    <g id="ytick_4">
     <g id="line2d_11">
      <g>
       <use xlink:href="#m9920f5b3fb" x="144" y="179.133787" style="stroke: #000000; stroke-width: 0.8"/>
      </g>
     </g>
     <g id="text_11">
      <!-- 0.6 -->
      <g transform="translate(117.91625 183.692849) scale(0.12 -0.12)">
       <defs>
        <path id="DejaVuSans-36" d="M 2113 2584 
Q 1688 2584 1439 2293 
Q 1191 2003 1191 1497 
Q 1191 994 1439 701 
Q 1688 409 2113 409 
Q 2538 409 2786 701 
Q 3034 994 3034 1497 
Q 3034 2003 2786 2293 
Q 2538 2584 2113 2584 
z
M 3366 4563 
L 3366 3988 
Q 3128 4100 2886 4159 
Q 2644 4219 2406 4219 
Q 1781 4219 1451 3797 
Q 1122 3375 1075 2522 
Q 1259 2794 1537 2939 
Q 1816 3084 2150 3084 
Q 2853 3084 3261 2657 
Q 3669 2231 3669 1497 
Q 3669 778 3244 343 
Q 2819 -91 2113 -91 
Q 1303 -91 875 529 
Q 447 1150 447 2328 
Q 447 3434 972 4092 
Q 1497 4750 2381 4750 
Q 2619 4750 2861 4703 
Q 3103 4656 3366 4563 
z
" transform="scale(0.015625)"/>
       </defs>
       <use xlink:href="#DejaVuSans-30"/>
       <use xlink:href="#DejaVuSans-2e" x="63.623047"/>
       <use xlink:href="#DejaVuSans-36" x="95.410156"/>
      </g>
     </g>
    </g>
    <g id="ytick_5">
     <g id="line2d_12">
      <g>
       <use xlink:href="#m9920f5b3fb" x="144" y="153.405049" style="stroke: #000000; stroke-width: 0.8"/>
      </g>
     </g>
     <g id="text_12">
      <!-- 0.8 -->
      <g transform="translate(117.91625 157.964111) scale(0.12 -0.12)">
       <defs>
        <path id="DejaVuSans-38" d="M 2034 2216 
Q 1584 2216 1326 1975 
Q 1069 1734 1069 1313 
Q 1069 891 1326 650 
Q 1584 409 2034 409 
Q 2484 409 2743 651 
Q 3003 894 3003 1313 
Q 3003 1734 2745 1975 
Q 2488 2216 2034 2216 
z
M 1403 2484 
Q 997 2584 770 2862 
Q 544 3141 544 3541 
Q 544 4100 942 4425 
Q 1341 4750 2034 4750 
Q 2731 4750 3128 4425 
Q 3525 4100 3525 3541 
Q 3525 3141 3298 2862 
Q 3072 2584 2669 2484 
Q 3125 2378 3379 2068 
Q 3634 1759 3634 1313 
Q 3634 634 3220 271 
Q 2806 -91 2034 -91 
Q 1263 -91 848 271 
Q 434 634 434 1313 
Q 434 1759 690 2068 
Q 947 2378 1403 2484 
z
M 1172 3481 
Q 1172 3119 1398 2916 
Q 1625 2713 2034 2713 
Q 2441 2713 2670 2916 
Q 2900 3119 2900 3481 
Q 2900 3844 2670 4047 
Q 2441 4250 2034 4250 
Q 1625 4250 1398 4047 
Q 1172 3844 1172 3481 
z
" transform="scale(0.015625)"/>
       </defs>
       <use xlink:href="#DejaVuSans-30"/>
       <use xlink:href="#DejaVuSans-2e" x="63.623047"/>
       <use xlink:href="#DejaVuSans-38" x="95.410156"/>
      </g>
     </g>
    </g>
    <g id="ytick_6">
     <g id="line2d_13">
      <g>
       <use xlink:href="#m9920f5b3fb" x="144" y="127.676311" style="stroke: #000000; stroke-width: 0.8"/>
      </g>
     </g>
     <g id="text_13">
      <!-- 1.0 -->
      <g transform="translate(117.91625 132.235374) scale(0.12 -0.12)">
       <use xlink:href="#DejaVuSans-31"/>
       <use xlink:href="#DejaVuSans-2e" x="63.623047"/>
       <use xlink:href="#DejaVuSans-30" x="95.410156"/>
      </g>
     </g>
    </g>
    <g id="ytick_7">
     <g id="line2d_14">
      <g>
       <use xlink:href="#m9920f5b3fb" x="144" y="101.947573" style="stroke: #000000; stroke-width: 0.8"/>
      </g>
     </g>
     <g id="text_14">
      <!-- 1.2 -->
      <g transform="translate(117.91625 106.506636) scale(0.12 -0.12)">
       <use xlink:href="#DejaVuSans-31"/>
       <use xlink:href="#DejaVuSans-2e" x="63.623047"/>
       <use xlink:href="#DejaVuSans-32" x="95.410156"/>
      </g>
     </g>
    </g>
    <g id="ytick_8">
     <g id="line2d_15">
      <g>
       <use xlink:href="#m9920f5b3fb" x="144" y="76.218836" style="stroke: #000000; stroke-width: 0.8"/>
      </g>
     </g>
     <g id="text_15">
      <!-- 1.4 -->
      <g transform="translate(117.91625 80.777898) scale(0.12 -0.12)">
       <use xlink:href="#DejaVuSans-31"/>
       <use xlink:href="#DejaVuSans-2e" x="63.623047"/>
       <use xlink:href="#DejaVuSans-34" x="95.410156"/>
      </g>
     </g>
    </g>
    <g id="ytick_9">
     <g id="line2d_16">
      <g>
       <use xlink:href="#m9920f5b3fb" x="144" y="50.490098" style="stroke: #000000; stroke-width: 0.8"/>
      </g>
     </g>
     <g id="text_16">
      <!-- 1.6 -->
      <g transform="translate(117.91625 55.04916) scale(0.12 -0.12)">
       <use xlink:href="#DejaVuSans-31"/>
       <use xlink:href="#DejaVuSans-2e" x="63.623047"/>
       <use xlink:href="#DejaVuSans-36" x="95.410156"/>
      </g>
     </g>
    </g>
   </g>
   <g id="line2d_17">
    <path d="M 144 256.32 
L 146.652406 230.537249 
L 149.304813 205.222194 
L 151.957219 180.828465 
L 154.609626 157.782146 
L 157.262032 136.469449 
L 159.914439 117.226022 
L 162.566845 100.328315 
L 165.219251 85.987302 
L 167.871658 74.344742 
L 170.524064 65.472038 
L 173.176471 59.371629 
L 175.828877 55.98073 
L 178.481283 55.177143 
L 181.13369 56.786775 
L 183.786096 60.592448 
L 186.438503 66.343539 
L 189.090909 73.766021 
L 191.743316 82.572445 
L 194.395722 92.471471 
L 197.048128 103.176621 
L 199.700535 114.413966 
L 202.352941 125.92856 
L 205.005348 137.489494 
L 207.657754 148.893543 
L 210.31016 159.967415 
L 212.962567 170.568699 
L 215.614973 180.585639 
L 218.26738 189.935907 
L 220.919786 198.564569 
L 223.572193 206.441423 
L 226.224599 213.557938 
L 228.877005 219.923947 
L 231.529412 225.564283 
L 234.181818 230.515485 
L 236.834225 234.822696 
L 239.486631 238.53684 
L 242.139037 241.712126 
L 244.791444 244.403928 
L 247.44385 246.667032 
L 250.096257 248.554265 
L 252.748663 250.115462 
L 255.40107 251.396752 
L 258.053476 252.440117 
L 260.705882 253.283181 
L 263.358289 253.959195 
L 266.010695 254.497155 
L 268.663102 254.922043 
L 271.315508 255.255125 
L 273.967914 255.514306 
L 276.620321 255.714502 
L 279.272727 255.868008 
L 281.925134 255.984857 
L 284.57754 256.073162 
L 287.229947 256.139414 
L 289.882353 256.188766 
L 292.534759 256.225267 
L 295.187166 256.252071 
L 297.839572 256.271615 
L 300.491979 256.285766 
L 303.144385 256.295939 
L 305.796791 256.303201 
L 308.449198 256.308349 
L 311.101604 256.311973 
L 313.754011 256.314507 
L 316.406417 256.316265 
L 319.058824 256.317478 
L 321.71123 256.318308 
L 324.363636 256.318872 
L 327.016043 256.319253 
L 329.668449 256.319509 
L 332.320856 256.319679 
L 334.973262 256.319792 
L 337.625668 256.319866 
L 340.278075 256.319914 
L 342.930481 256.319945 
L 345.582888 256.319965 
L 348.235294 256.319978 
L 350.887701 256.319986 
L 353.540107 256.319992 
L 356.192513 256.319995 
L 358.84492 256.319997 
L 361.497326 256.319998 
L 364.149733 256.319999 
L 366.802139 256.319999 
L 369.454545 256.32 
L 372.106952 256.32 
L 374.759358 256.32 
L 377.411765 256.32 
L 380.064171 256.32 
L 382.716578 256.32 
L 385.368984 256.32 
L 388.02139 256.32 
L 390.673797 256.32 
L 393.326203 256.32 
L 395.97861 256.32 
L 398.631016 256.32 
L 401.283422 256.32 
L 403.935829 256.32 
L 406.588235 256.32 
" clip-path="url(#pf8037a24d9)" style="fill: none; stroke: #ff0000; stroke-width: 1.5; stroke-linecap: square"/>
   </g>
   <g id="line2d_18">
    <path d="M 144 256.32 
L 146.652406 248.530569 
L 149.304813 240.783996 
L 151.957219 233.122746 
L 154.609626 225.588503 
L 157.262032 218.221795 
L 159.914439 211.061626 
L 162.566845 204.145136 
L 165.219251 197.507282 
L 167.871658 191.18054 
L 170.524064 185.194649 
L 173.176471 179.57638 
L 175.828877 174.349343 
L 178.481283 169.533836 
L 181.13369 165.146727 
L 183.786096 161.201381 
L 186.438503 157.707624 
L 189.090909 154.671746 
L 191.743316 152.096545 
L 194.395722 149.981405 
L 197.048128 148.32241 
L 199.700535 147.112487 
L 202.352941 146.341586 
L 205.005348 145.996875 
L 207.657754 146.062966 
L 210.31016 146.522156 
L 212.962567 147.354681 
L 215.614973 148.538991 
L 218.26738 150.052014 
L 220.919786 151.869446 
L 223.572193 153.96602 
L 226.224599 156.315785 
L 228.877005 158.892375 
L 231.529412 161.669263 
L 234.181818 164.620008 
L 236.834225 167.718486 
L 239.486631 170.939102 
L 242.139037 174.256988 
L 244.791444 177.648173 
L 247.44385 181.089741 
L 250.096257 184.559964 
L 252.748663 188.038411 
L 255.40107 191.50604 
L 258.053476 194.945266 
L 260.705882 198.34001 
L 263.358289 201.675725 
L 266.010695 204.939411 
L 268.663102 208.119605 
L 271.315508 211.20636 
L 273.967914 214.191209 
L 276.620321 217.067113 
L 279.272727 219.828404 
L 281.925134 222.470715 
L 284.57754 224.990901 
L 287.229947 227.38696 
L 289.882353 229.657942 
L 292.534759 231.803861 
L 295.187166 233.825602 
L 297.839572 235.72483 
L 300.491979 237.503898 
L 303.144385 239.165757 
L 305.796791 240.713871 
L 308.449198 242.152132 
L 311.101604 243.484783 
L 313.754011 244.716343 
L 316.406417 245.851537 
L 319.058824 246.895235 
L 321.71123 247.85239 
L 324.363636 248.727989 
L 327.016043 249.527006 
L 329.668449 250.254357 
L 332.320856 250.91487 
L 334.973262 251.513248 
L 337.625668 252.054048 
L 340.278075 252.54166 
L 342.930481 252.980287 
L 345.582888 253.373934 
L 348.235294 253.726399 
L 350.887701 254.04127 
L 353.540107 254.321917 
L 356.192513 254.571495 
L 358.84492 254.792944 
L 361.497326 254.988996 
L 364.149733 255.162179 
L 366.802139 255.314823 
L 369.454545 255.449067 
L 372.106952 255.566871 
L 374.759358 255.670023 
L 377.411765 255.760151 
L 380.064171 255.838728 
L 382.716578 255.907088 
L 385.368984 255.966432 
L 388.02139 256.017838 
L 390.673797 256.062275 
L 393.326203 256.100606 
L 395.97861 256.133599 
L 398.631016 256.161939 
L 401.283422 256.186231 
L 403.935829 256.207009 
L 406.588235 256.224745 
" clip-path="url(#pf8037a24d9)" style="fill: none; stroke: #0000ff; stroke-width: 1.5; stroke-linecap: square"/>
   </g>
   <g id="line2d_19">
    <path d="M 158.886858 256.32 
L 158.886858 45.12 
" clip-path="url(#pf8037a24d9)" style="fill: none; stroke: #000000; stroke-width: 1.5; stroke-linecap: square"/>
   </g>
   <g id="patch_52">
    <path d="M 144 256.32 
L 144 34.56 
" style="fill: none; stroke: #000000; stroke-width: 0.8; stroke-linejoin: miter; stroke-linecap: square"/>
   </g>
   <g id="patch_53">
    <path d="M 406.588235 256.32 
L 406.588235 34.56 
" style="fill: none; stroke: #000000; stroke-width: 0.8; stroke-linejoin: miter; stroke-linecap: square"/>
   </g>
   <g id="patch_54">
    <path d="M 144 256.32 
L 406.588235 256.32 
" style="fill: none; stroke: #000000; stroke-width: 0.8; stroke-linejoin: miter; stroke-linecap: square"/>
   </g>
   <g id="patch_55">
    <path d="M 144 34.56 
L 406.588235 34.56 
" style="fill: none; stroke: #000000; stroke-width: 0.8; stroke-linejoin: miter; stroke-linecap: square"/>
   </g>
   <g id="text_17">
    <!-- &lt;E1&gt; = 0.17 -->
    <g transform="translate(327.811765 66.24) scale(0.1 -0.1)">
     <defs>
      <path id="DejaVuSans-3c" d="M 4684 3150 
L 1459 2003 
L 4684 863 
L 4684 294 
L 678 1747 
L 678 2266 
L 4684 3719 
L 4684 3150 
z
" transform="scale(0.015625)"/>
      <path id="DejaVuSans-45" d="M 628 4666 
L 3578 4666 
L 3578 4134 
L 1259 4134 
L 1259 2753 
L 3481 2753 
L 3481 2222 
L 1259 2222 
L 1259 531 
L 3634 531 
L 3634 0 
L 628 0 
L 628 4666 
z
" transform="scale(0.015625)"/>
      <path id="DejaVuSans-3e" d="M 678 3150 
L 678 3719 
L 4684 2266 
L 4684 1747 
L 678 294 
L 678 863 
L 3897 2003 
L 678 3150 
z
" transform="scale(0.015625)"/>
      <path id="DejaVuSans-20" transform="scale(0.015625)"/>
      <path id="DejaVuSans-3d" d="M 678 2906 
L 4684 2906 
L 4684 2381 
L 678 2381 
L 678 2906 
z
M 678 1631 
L 4684 1631 
L 4684 1100 
L 678 1100 
L 678 1631 
z
" transform="scale(0.015625)"/>
      <path id="DejaVuSans-37" d="M 525 4666 
L 3525 4666 
L 3525 4397 
L 1831 0 
L 1172 0 
L 2766 4134 
L 525 4134 
L 525 4666 
z
" transform="scale(0.015625)"/>
     </defs>
     <use xlink:href="#DejaVuSans-3c"/>
     <use xlink:href="#DejaVuSans-45" x="83.789062"/>
     <use xlink:href="#DejaVuSans-31" x="146.972656"/>
     <use xlink:href="#DejaVuSans-3e" x="210.595703"/>
     <use xlink:href="#DejaVuSans-20" x="294.384766"/>
     <use xlink:href="#DejaVuSans-3d" x="326.171875"/>
     <use xlink:href="#DejaVuSans-20" x="409.960938"/>
     <use xlink:href="#DejaVuSans-30" x="441.748047"/>
     <use xlink:href="#DejaVuSans-2e" x="505.371094"/>
     <use xlink:href="#DejaVuSans-31" x="537.158203"/>
     <use xlink:href="#DejaVuSans-37" x="600.78125"/>
    </g>
   </g>
  </g>
  <g id="axes_2">
   <g id="patch_56">
    <path d="M 459.105882 256.32 
L 721.694118 256.32 
L 721.694118 34.56 
L 459.105882 34.56 
z
" style="fill: #ffffff"/>
   </g>
   <g id="patch_57">
    <path d="M 459.105882 256.32 
L 468.037455 256.32 
L 468.037455 245.544348 
L 459.105882 245.544348 
z
" clip-path="url(#p51b5ac434c)" style="fill: #1f77b4"/>
   </g>
   <g id="patch_58">
    <path d="M 468.037455 256.32 
L 476.969028 256.32 
L 476.969028 218.605219 
L 468.037455 218.605219 
z
" clip-path="url(#p51b5ac434c)" style="fill: #1f77b4"/>
   </g>
   <g id="patch_59">
    <path d="M 476.969028 256.32 
L 485.9006 256.32 
L 485.9006 181.968003 
L 476.969028 181.968003 
z
" clip-path="url(#p51b5ac434c)" style="fill: #1f77b4"/>
   </g>
   <g id="patch_60">
    <path d="M 485.9006 256.32 
L 494.832173 256.32 
L 494.832173 148.563483 
L 485.9006 148.563483 
z
" clip-path="url(#p51b5ac434c)" style="fill: #1f77b4"/>
   </g>
   <g id="patch_61">
    <path d="M 494.832173 256.32 
L 503.763745 256.32 
L 503.763745 123.779484 
L 494.832173 123.779484 
z
" clip-path="url(#p51b5ac434c)" style="fill: #1f77b4"/>
   </g>
   <g id="patch_62">
    <path d="M 503.763745 256.32 
L 512.695318 256.32 
L 512.695318 107.616007 
L 503.763745 107.616007 
z
" clip-path="url(#p51b5ac434c)" style="fill: #1f77b4"/>
   </g>
   <g id="patch_63">
    <path d="M 512.695318 256.32 
L 521.626891 256.32 
L 521.626891 64.5134 
L 512.695318 64.5134 
z
" clip-path="url(#p51b5ac434c)" style="fill: #1f77b4"/>
   </g>
   <g id="patch_64">
    <path d="M 521.626891 256.32 
L 530.558463 256.32 
L 530.558463 81.754443 
L 521.626891 81.754443 
z
" clip-path="url(#p51b5ac434c)" style="fill: #1f77b4"/>
   </g>
   <g id="patch_65">
    <path d="M 530.558463 256.32 
L 539.490036 256.32 
L 539.490036 64.5134 
L 530.558463 64.5134 
z
" clip-path="url(#p51b5ac434c)" style="fill: #1f77b4"/>
   </g>
   <g id="patch_66">
    <path d="M 539.490036 256.32 
L 548.421609 256.32 
L 548.421609 84.987138 
L 539.490036 84.987138 
z
" clip-path="url(#p51b5ac434c)" style="fill: #1f77b4"/>
   </g>
   <g id="patch_67">
    <path d="M 548.421609 256.32 
L 557.353181 256.32 
L 557.353181 100.073051 
L 548.421609 100.073051 
z
" clip-path="url(#p51b5ac434c)" style="fill: #1f77b4"/>
   </g>
   <g id="patch_68">
    <path d="M 557.353181 256.32 
L 566.284754 256.32 
L 566.284754 143.175657 
L 557.353181 143.175657 
z
" clip-path="url(#p51b5ac434c)" style="fill: #1f77b4"/>
   </g>
   <g id="patch_69">
    <path d="M 566.284754 256.32 
L 575.216327 256.32 
L 575.216327 175.502612 
L 566.284754 175.502612 
z
" clip-path="url(#p51b5ac434c)" style="fill: #1f77b4"/>
   </g>
   <g id="patch_70">
    <path d="M 575.216327 256.32 
L 584.147899 256.32 
L 584.147899 199.209046 
L 575.216327 199.209046 
z
" clip-path="url(#p51b5ac434c)" style="fill: #1f77b4"/>
   </g>
   <g id="patch_71">
    <path d="M 584.147899 256.32 
L 593.079472 256.32 
L 593.079472 220.760349 
L 584.147899 220.760349 
z
" clip-path="url(#p51b5ac434c)" style="fill: #1f77b4"/>
   </g>
   <g id="patch_72">
    <path d="M 593.079472 256.32 
L 602.011044 256.32 
L 602.011044 235.846262 
L 593.079472 235.846262 
z
" clip-path="url(#p51b5ac434c)" style="fill: #1f77b4"/>
   </g>
   <g id="patch_73">
    <path d="M 602.011044 256.32 
L 610.942617 256.32 
L 610.942617 247.699479 
L 602.011044 247.699479 
z
" clip-path="url(#p51b5ac434c)" style="fill: #1f77b4"/>
   </g>
   <g id="patch_74">
    <path d="M 610.942617 256.32 
L 619.87419 256.32 
L 619.87419 249.854609 
L 610.942617 249.854609 
z
" clip-path="url(#p51b5ac434c)" style="fill: #1f77b4"/>
   </g>
   <g id="patch_75">
    <path d="M 619.87419 256.32 
L 628.805762 256.32 
L 628.805762 252.009739 
L 619.87419 252.009739 
z
" clip-path="url(#p51b5ac434c)" style="fill: #1f77b4"/>
   </g>
   <g id="patch_76">
    <path d="M 628.805762 256.32 
L 637.737335 256.32 
L 637.737335 254.16487 
L 628.805762 254.16487 
z
" clip-path="url(#p51b5ac434c)" style="fill: #1f77b4"/>
   </g>
   <g id="patch_77">
    <path d="M 637.737335 256.32 
L 646.668908 256.32 
L 646.668908 255.242435 
L 637.737335 255.242435 
z
" clip-path="url(#p51b5ac434c)" style="fill: #1f77b4"/>
   </g>
   <g id="patch_78">
    <path d="M 646.668908 256.32 
L 655.60048 256.32 
L 655.60048 256.32 
L 646.668908 256.32 
z
" clip-path="url(#p51b5ac434c)" style="fill: #1f77b4"/>
   </g>
   <g id="patch_79">
    <path d="M 655.60048 256.32 
L 664.532053 256.32 
L 664.532053 254.16487 
L 655.60048 254.16487 
z
" clip-path="url(#p51b5ac434c)" style="fill: #1f77b4"/>
   </g>
   <g id="patch_80">
    <path d="M 664.532053 256.32 
L 673.463625 256.32 
L 673.463625 256.32 
L 664.532053 256.32 
z
" clip-path="url(#p51b5ac434c)" style="fill: #1f77b4"/>
   </g>
   <g id="patch_81">
    <path d="M 673.463625 256.32 
L 682.395198 256.32 
L 682.395198 256.32 
L 673.463625 256.32 
z
" clip-path="url(#p51b5ac434c)" style="fill: #1f77b4"/>
   </g>
   <g id="patch_82">
    <path d="M 682.395198 256.32 
L 691.326771 256.32 
L 691.326771 256.32 
L 682.395198 256.32 
z
" clip-path="url(#p51b5ac434c)" style="fill: #1f77b4"/>
   </g>
   <g id="patch_83">
    <path d="M 691.326771 256.32 
L 700.258343 256.32 
L 700.258343 256.32 
L 691.326771 256.32 
z
" clip-path="url(#p51b5ac434c)" style="fill: #1f77b4"/>
   </g>
   <g id="patch_84">
    <path d="M 700.258343 256.32 
L 709.189916 256.32 
L 709.189916 256.32 
L 700.258343 256.32 
z
" clip-path="url(#p51b5ac434c)" style="fill: #1f77b4"/>
   </g>
   <g id="patch_85">
    <path d="M 709.189916 256.32 
L 718.121489 256.32 
L 718.121489 256.32 
L 709.189916 256.32 
z
" clip-path="url(#p51b5ac434c)" style="fill: #1f77b4"/>
   </g>
   <g id="patch_86">
    <path d="M 718.121489 256.32 
L 727.053061 256.32 
L 727.053061 256.32 
L 718.121489 256.32 
z
" clip-path="url(#p51b5ac434c)" style="fill: #1f77b4"/>
   </g>
   <g id="patch_87">
    <path d="M 727.053061 256.32 
L 735.984634 256.32 
L 735.984634 256.32 
L 727.053061 256.32 
z
" clip-path="url(#p51b5ac434c)" style="fill: #1f77b4"/>
   </g>
   <g id="patch_88">
    <path d="M 735.984634 256.32 
L 744.916206 256.32 
L 744.916206 256.32 
L 735.984634 256.32 
z
" clip-path="url(#p51b5ac434c)" style="fill: #1f77b4"/>
   </g>
   <g id="patch_89">
    <path d="M 744.916206 256.32 
L 753.847779 256.32 
L 753.847779 256.32 
L 744.916206 256.32 
z
" clip-path="url(#p51b5ac434c)" style="fill: #1f77b4"/>
   </g>
   <g id="patch_90">
    <path d="M 753.847779 256.32 
L 762.779352 256.32 
L 762.779352 256.32 
L 753.847779 256.32 
z
" clip-path="url(#p51b5ac434c)" style="fill: #1f77b4"/>
   </g>
   <g id="patch_91">
    <path d="M 762.779352 256.32 
L 771.710924 256.32 
L 771.710924 256.32 
L 762.779352 256.32 
z
" clip-path="url(#p51b5ac434c)" style="fill: #1f77b4"/>
   </g>
   <g id="patch_92">
    <path d="M 771.710924 256.32 
L 780.642497 256.32 
L 780.642497 256.32 
L 771.710924 256.32 
z
" clip-path="url(#p51b5ac434c)" style="fill: #1f77b4"/>
   </g>
   <g id="patch_93">
    <path d="M 780.642497 256.32 
L 789.57407 256.32 
L 789.57407 256.32 
L 780.642497 256.32 
z
" clip-path="url(#p51b5ac434c)" style="fill: #1f77b4"/>
   </g>
   <g id="patch_94">
    <path d="M 789.57407 256.32 
L 798.505642 256.32 
L 798.505642 256.32 
L 789.57407 256.32 
z
" clip-path="url(#p51b5ac434c)" style="fill: #1f77b4"/>
   </g>
   <g id="patch_95">
    <path d="M 798.505642 256.32 
L 807.437215 256.32 
L 807.437215 256.32 
L 798.505642 256.32 
z
" clip-path="url(#p51b5ac434c)" style="fill: #1f77b4"/>
   </g>
   <g id="patch_96">
    <path d="M 807.437215 256.32 
L 816.368788 256.32 
L 816.368788 256.32 
L 807.437215 256.32 
z
" clip-path="url(#p51b5ac434c)" style="fill: #1f77b4"/>
   </g>
   <g id="patch_97">
    <path d="M 816.368788 256.32 
L 825.30036 256.32 
L 825.30036 256.32 
L 816.368788 256.32 
z
" clip-path="url(#p51b5ac434c)" style="fill: #1f77b4"/>
   </g>
   <g id="patch_98">
    <path d="M 825.30036 256.32 
L 834.231933 256.32 
L 834.231933 256.32 
L 825.30036 256.32 
z
" clip-path="url(#p51b5ac434c)" style="fill: #1f77b4"/>
   </g>
   <g id="patch_99">
    <path d="M 834.231933 256.32 
L 843.163505 256.32 
L 843.163505 256.32 
L 834.231933 256.32 
z
" clip-path="url(#p51b5ac434c)" style="fill: #1f77b4"/>
   </g>
   <g id="patch_100">
    <path d="M 843.163505 256.32 
L 852.095078 256.32 
L 852.095078 256.32 
L 843.163505 256.32 
z
" clip-path="url(#p51b5ac434c)" style="fill: #1f77b4"/>
   </g>
   <g id="patch_101">
    <path d="M 852.095078 256.32 
L 861.026651 256.32 
L 861.026651 256.32 
L 852.095078 256.32 
z
" clip-path="url(#p51b5ac434c)" style="fill: #1f77b4"/>
   </g>
   <g id="patch_102">
    <path d="M 861.026651 256.32 
L 869.958223 256.32 
L 869.958223 256.32 
L 861.026651 256.32 
z
" clip-path="url(#p51b5ac434c)" style="fill: #1f77b4"/>
   </g>
   <g id="patch_103">
    <path d="M 869.958223 256.32 
L 878.889796 256.32 
L 878.889796 256.32 
L 869.958223 256.32 
z
" clip-path="url(#p51b5ac434c)" style="fill: #1f77b4"/>
   </g>
   <g id="patch_104">
    <path d="M 878.889796 256.32 
L 887.821369 256.32 
L 887.821369 256.32 
L 878.889796 256.32 
z
" clip-path="url(#p51b5ac434c)" style="fill: #1f77b4"/>
   </g>
   <g id="patch_105">
    <path d="M 887.821369 256.32 
L 896.752941 256.32 
L 896.752941 256.32 
L 887.821369 256.32 
z
" clip-path="url(#p51b5ac434c)" style="fill: #1f77b4"/>
   </g>
   <g id="matplotlib.axis_3">
    <g id="xtick_8">
     <g id="line2d_20">
      <g>
       <use xlink:href="#m4a1b2d1a37" x="459.105882" y="256.32" style="stroke: #000000; stroke-width: 0.8"/>
      </g>
     </g>
     <g id="text_18">
      <!-- 0.0 -->
      <g transform="translate(449.564007 272.438125) scale(0.12 -0.12)">
       <use xlink:href="#DejaVuSans-30"/>
       <use xlink:href="#DejaVuSans-2e" x="63.623047"/>
       <use xlink:href="#DejaVuSans-30" x="95.410156"/>
      </g>
     </g>
    </g>
    <g id="xtick_9">
     <g id="line2d_21">
      <g>
       <use xlink:href="#m4a1b2d1a37" x="502.870588" y="256.32" style="stroke: #000000; stroke-width: 0.8"/>
      </g>
     </g>
     <g id="text_19">
      <!-- 0.5 -->
      <g transform="translate(493.328713 272.438125) scale(0.12 -0.12)">
       <use xlink:href="#DejaVuSans-30"/>
       <use xlink:href="#DejaVuSans-2e" x="63.623047"/>
       <use xlink:href="#DejaVuSans-35" x="95.410156"/>
      </g>
     </g>
    </g>
    <g id="xtick_10">
     <g id="line2d_22">
      <g>
       <use xlink:href="#m4a1b2d1a37" x="546.635294" y="256.32" style="stroke: #000000; stroke-width: 0.8"/>
      </g>
     </g>
     <g id="text_20">
      <!-- 1.0 -->
      <g transform="translate(537.093419 272.438125) scale(0.12 -0.12)">
       <use xlink:href="#DejaVuSans-31"/>
       <use xlink:href="#DejaVuSans-2e" x="63.623047"/>
       <use xlink:href="#DejaVuSans-30" x="95.410156"/>
      </g>
     </g>
    </g>
    <g id="xtick_11">
     <g id="line2d_23">
      <g>
       <use xlink:href="#m4a1b2d1a37" x="590.4" y="256.32" style="stroke: #000000; stroke-width: 0.8"/>
      </g>
     </g>
     <g id="text_21">
      <!-- 1.5 -->
      <g transform="translate(580.858125 272.438125) scale(0.12 -0.12)">
       <use xlink:href="#DejaVuSans-31"/>
       <use xlink:href="#DejaVuSans-2e" x="63.623047"/>
       <use xlink:href="#DejaVuSans-35" x="95.410156"/>
      </g>
     </g>
    </g>
    <g id="xtick_12">
     <g id="line2d_24">
      <g>
       <use xlink:href="#m4a1b2d1a37" x="634.164706" y="256.32" style="stroke: #000000; stroke-width: 0.8"/>
      </g>
     </g>
     <g id="text_22">
      <!-- 2.0 -->
      <g transform="translate(624.622831 272.438125) scale(0.12 -0.12)">
       <use xlink:href="#DejaVuSans-32"/>
       <use xlink:href="#DejaVuSans-2e" x="63.623047"/>
       <use xlink:href="#DejaVuSans-30" x="95.410156"/>
      </g>
     </g>
    </g>
    <g id="xtick_13">
     <g id="line2d_25">
      <g>
       <use xlink:href="#m4a1b2d1a37" x="677.929412" y="256.32" style="stroke: #000000; stroke-width: 0.8"/>
      </g>
     </g>
     <g id="text_23">
      <!-- 2.5 -->
      <g transform="translate(668.387537 272.438125) scale(0.12 -0.12)">
       <use xlink:href="#DejaVuSans-32"/>
       <use xlink:href="#DejaVuSans-2e" x="63.623047"/>
       <use xlink:href="#DejaVuSans-35" x="95.410156"/>
      </g>
     </g>
    </g>
    <g id="xtick_14">
     <g id="line2d_26">
      <g>
       <use xlink:href="#m4a1b2d1a37" x="721.694118" y="256.32" style="stroke: #000000; stroke-width: 0.8"/>
      </g>
     </g>
     <g id="text_24">
      <!-- 3.0 -->
      <g transform="translate(712.152243 272.438125) scale(0.12 -0.12)">
       <use xlink:href="#DejaVuSans-33"/>
       <use xlink:href="#DejaVuSans-2e" x="63.623047"/>
       <use xlink:href="#DejaVuSans-30" x="95.410156"/>
      </g>
     </g>
    </g>
   </g>
   <g id="matplotlib.axis_4">
    <g id="ytick_10">
     <g id="line2d_27">
      <g>
       <use xlink:href="#m9920f5b3fb" x="459.105882" y="256.32" style="stroke: #000000; stroke-width: 0.8"/>
      </g>
     </g>
     <g id="text_25">
      <!-- 0.0 -->
      <g transform="translate(433.022132 260.879063) scale(0.12 -0.12)">
       <use xlink:href="#DejaVuSans-30"/>
       <use xlink:href="#DejaVuSans-2e" x="63.623047"/>
       <use xlink:href="#DejaVuSans-30" x="95.410156"/>
      </g>
     </g>
    </g>
    <g id="ytick_11">
     <g id="line2d_28">
      <g>
       <use xlink:href="#m9920f5b3fb" x="459.105882" y="221.024243" style="stroke: #000000; stroke-width: 0.8"/>
      </g>
     </g>
     <g id="text_26">
      <!-- 0.2 -->
      <g transform="translate(433.022132 225.583305) scale(0.12 -0.12)">
       <use xlink:href="#DejaVuSans-30"/>
       <use xlink:href="#DejaVuSans-2e" x="63.623047"/>
       <use xlink:href="#DejaVuSans-32" x="95.410156"/>
      </g>
     </g>
    </g>
    <g id="ytick_12">
     <g id="line2d_29">
      <g>
       <use xlink:href="#m9920f5b3fb" x="459.105882" y="185.728486" style="stroke: #000000; stroke-width: 0.8"/>
      </g>
     </g>
     <g id="text_27">
      <!-- 0.4 -->
      <g transform="translate(433.022132 190.287548) scale(0.12 -0.12)">
       <use xlink:href="#DejaVuSans-30"/>
       <use xlink:href="#DejaVuSans-2e" x="63.623047"/>
       <use xlink:href="#DejaVuSans-34" x="95.410156"/>
      </g>
     </g>
    </g>
    <g id="ytick_13">
     <g id="line2d_30">
      <g>
       <use xlink:href="#m9920f5b3fb" x="459.105882" y="150.432729" style="stroke: #000000; stroke-width: 0.8"/>
      </g>
     </g>
     <g id="text_28">
      <!-- 0.6 -->
      <g transform="translate(433.022132 154.991791) scale(0.12 -0.12)">
       <use xlink:href="#DejaVuSans-30"/>
       <use xlink:href="#DejaVuSans-2e" x="63.623047"/>
       <use xlink:href="#DejaVuSans-36" x="95.410156"/>
      </g>
     </g>
    </g>
    <g id="ytick_14">
     <g id="line2d_31">
      <g>
       <use xlink:href="#m9920f5b3fb" x="459.105882" y="115.136972" style="stroke: #000000; stroke-width: 0.8"/>
      </g>
     </g>
     <g id="text_29">
      <!-- 0.8 -->
      <g transform="translate(433.022132 119.696034) scale(0.12 -0.12)">
       <use xlink:href="#DejaVuSans-30"/>
       <use xlink:href="#DejaVuSans-2e" x="63.623047"/>
       <use xlink:href="#DejaVuSans-38" x="95.410156"/>
      </g>
     </g>
    </g>
    <g id="ytick_15">
     <g id="line2d_32">
      <g>
       <use xlink:href="#m9920f5b3fb" x="459.105882" y="79.841215" style="stroke: #000000; stroke-width: 0.8"/>
      </g>
     </g>
     <g id="text_30">
      <!-- 1.0 -->
      <g transform="translate(433.022132 84.400277) scale(0.12 -0.12)">
       <use xlink:href="#DejaVuSans-31"/>
       <use xlink:href="#DejaVuSans-2e" x="63.623047"/>
       <use xlink:href="#DejaVuSans-30" x="95.410156"/>
      </g>
     </g>
    </g>
    <g id="ytick_16">
     <g id="line2d_33">
      <g>
       <use xlink:href="#m9920f5b3fb" x="459.105882" y="44.545458" style="stroke: #000000; stroke-width: 0.8"/>
      </g>
     </g>
     <g id="text_31">
      <!-- 1.2 -->
      <g transform="translate(433.022132 49.10452) scale(0.12 -0.12)">
       <use xlink:href="#DejaVuSans-31"/>
       <use xlink:href="#DejaVuSans-2e" x="63.623047"/>
       <use xlink:href="#DejaVuSans-32" x="95.410156"/>
      </g>
     </g>
    </g>
   </g>
   <g id="line2d_34">
    <path d="M 459.105882 256.32 
L 461.758289 250.137285 
L 464.410695 243.855485 
L 467.063102 237.379406 
L 469.715508 230.621549 
L 472.367914 223.505726 
L 475.020321 215.970403 
L 477.672727 207.97168 
L 480.325134 199.485802 
L 482.97754 190.511112 
L 485.629947 181.06938 
L 488.282353 171.206397 
L 490.934759 160.991815 
L 493.587166 150.518159 
L 496.239572 139.899023 
L 498.891979 129.266463 
L 501.544385 118.767627 
L 504.196791 108.560729 
L 506.849198 98.810469 
L 509.501604 89.68307 
L 512.154011 81.341088 
L 514.806417 73.938217 
L 517.458824 67.614273 
L 520.11123 62.490569 
L 522.763636 58.665883 
L 525.416043 56.213163 
L 528.068449 55.177143 
L 530.720856 55.572931 
L 533.373262 57.385649 
L 536.025668 60.571111 
L 538.678075 65.057508 
L 541.330481 70.747997 
L 543.982888 77.524072 
L 546.635294 85.249563 
L 549.287701 93.775049 
L 551.940107 102.94253 
L 554.592513 112.590123 
L 557.24492 122.556614 
L 559.897326 132.68569 
L 562.549733 142.829707 
L 565.202139 152.852878 
L 567.854545 162.633809 
L 570.506952 172.067339 
L 573.159358 181.065679 
L 575.811765 189.558871 
L 578.464171 197.494626 
L 581.116578 204.83762 
L 583.768984 211.568323 
L 586.42139 217.681484 
L 589.073797 223.184353 
L 591.726203 228.094763 
L 594.37861 232.43914 
L 597.031016 236.25055 
L 599.683422 239.566835 
L 602.335829 242.428895 
L 604.988235 244.879165 
L 607.640642 246.960299 
L 610.293048 248.714078 
L 612.945455 250.18055 
L 615.597861 251.397374 
L 618.250267 252.39937 
L 620.902674 253.218238 
L 623.55508 253.882434 
L 626.207487 254.417165 
L 628.859893 254.844482 
L 631.512299 255.183451 
L 634.164706 255.450373 
L 636.817112 255.659031 
L 639.469519 255.820962 
L 642.121925 255.945725 
L 644.774332 256.041159 
L 647.426738 256.113638 
L 650.079144 256.168291 
L 652.731551 256.209209 
L 655.383957 256.239628 
L 658.036364 256.262081 
L 660.68877 256.278538 
L 663.341176 256.290516 
L 665.993583 256.299172 
L 668.645989 256.305384 
L 671.298396 256.309811 
L 673.950802 256.312945 
L 676.603209 256.315147 
L 679.255615 256.316683 
L 681.908021 256.317749 
L 684.560428 256.318482 
L 687.212834 256.318983 
L 689.865241 256.319323 
L 692.517647 256.319553 
L 695.170053 256.319706 
L 697.82246 256.319808 
L 700.474866 256.319876 
L 703.127273 256.31992 
L 705.779679 256.319949 
L 708.432086 256.319968 
L 711.084492 256.319979 
L 713.736898 256.319987 
L 716.389305 256.319992 
L 719.041711 256.319995 
L 721.694118 256.319997 
" clip-path="url(#p51b5ac434c)" style="fill: none; stroke: #ff0000; stroke-width: 1.5; stroke-linecap: square"/>
   </g>
   <g id="line2d_35">
    <path d="M 459.105882 256.32 
L 461.758289 245.634133 
L 464.410695 235.00706 
L 467.063102 224.497038 
L 469.715508 214.161249 
L 472.367914 204.055291 
L 475.020321 194.232672 
L 477.672727 184.744343 
L 480.325134 175.638257 
L 482.97754 166.958968 
L 485.629947 158.747273 
L 488.282353 151.039896 
L 490.934759 143.869229 
L 493.587166 137.263115 
L 496.239572 131.244696 
L 498.891979 125.832306 
L 501.544385 121.039424 
L 504.196791 116.87468 
L 506.849198 113.341912 
L 509.501604 110.440274 
L 512.154011 108.164395 
L 514.806417 106.504573 
L 517.458824 105.447019 
L 520.11123 104.97413 
L 522.763636 105.064796 
L 525.416043 105.694731 
L 528.068449 106.836825 
L 530.720856 108.46151 
L 533.373262 110.537139 
L 536.025668 113.030367 
L 538.678075 115.906535 
L 541.330481 119.130042 
L 543.982888 122.664716 
L 546.635294 126.474166 
L 549.287701 130.522121 
L 551.940107 134.772743 
L 554.592513 139.190919 
L 557.24492 143.742533 
L 559.897326 148.394701 
L 562.549733 153.115989 
L 565.202139 157.876585 
L 567.854545 162.648464 
L 570.506952 167.405503 
L 573.159358 172.123577 
L 575.811765 176.780628 
L 578.464171 181.356701 
L 581.116578 185.833962 
L 583.768984 190.196685 
L 586.42139 194.431225 
L 589.073797 198.525965 
L 591.726203 202.47125 
L 594.37861 206.259305 
L 597.031016 209.884137 
L 599.683422 213.341434 
L 602.335829 216.628447 
L 604.988235 219.743875 
L 607.640642 222.687736 
L 610.293048 225.461246 
L 612.945455 228.066686 
L 615.597861 230.507286 
L 618.250267 232.787093 
L 620.902674 234.91086 
L 623.55508 236.883927 
L 626.207487 238.712113 
L 628.859893 240.401618 
L 631.512299 241.958925 
L 634.164706 243.390713 
L 636.817112 244.703779 
L 639.469519 245.904963 
L 642.121925 247.001087 
L 644.774332 247.998898 
L 647.426738 248.905017 
L 650.079144 249.725897 
L 652.731551 250.467789 
L 655.383957 251.136716 
L 658.036364 251.738442 
L 660.68877 252.278463 
L 663.341176 252.76199 
L 665.993583 253.193944 
L 668.645989 253.578947 
L 671.298396 253.921327 
L 673.950802 254.22512 
L 676.603209 254.494073 
L 679.255615 254.731653 
L 681.908021 254.941056 
L 684.560428 255.125217 
L 687.212834 255.286826 
L 689.865241 255.428335 
L 692.517647 255.551976 
L 695.170053 255.659771 
L 697.82246 255.75355 
L 700.474866 255.83496 
L 703.127273 255.905482 
L 705.779679 255.966442 
L 708.432086 256.019026 
L 711.084492 256.064288 
L 713.736898 256.103166 
L 716.389305 256.13649 
L 719.041711 256.164994 
L 721.694118 256.189325 
" clip-path="url(#p51b5ac434c)" style="fill: none; stroke: #0000ff; stroke-width: 1.5; stroke-linecap: square"/>
   </g>
   <g id="line2d_36">
    <path d="M 532.803305 256.32 
L 532.803305 45.12 
" clip-path="url(#p51b5ac434c)" style="fill: none; stroke: #000000; stroke-width: 1.5; stroke-linecap: square"/>
   </g>
   <g id="patch_106">
    <path d="M 459.105882 256.32 
L 459.105882 34.56 
" style="fill: none; stroke: #000000; stroke-width: 0.8; stroke-linejoin: miter; stroke-linecap: square"/>
   </g>
   <g id="patch_107">
    <path d="M 721.694118 256.32 
L 721.694118 34.56 
" style="fill: none; stroke: #000000; stroke-width: 0.8; stroke-linejoin: miter; stroke-linecap: square"/>
   </g>
   <g id="patch_108">
    <path d="M 459.105882 256.32 
L 721.694118 256.32 
" style="fill: none; stroke: #000000; stroke-width: 0.8; stroke-linejoin: miter; stroke-linecap: square"/>
   </g>
   <g id="patch_109">
    <path d="M 459.105882 34.56 
L 721.694118 34.56 
" style="fill: none; stroke: #000000; stroke-width: 0.8; stroke-linejoin: miter; stroke-linecap: square"/>
   </g>
   <g id="text_32">
    <!-- &lt;E1&gt; = 0.84 -->
    <g transform="translate(642.917647 66.24) scale(0.1 -0.1)">
     <use xlink:href="#DejaVuSans-3c"/>
     <use xlink:href="#DejaVuSans-45" x="83.789062"/>
     <use xlink:href="#DejaVuSans-31" x="146.972656"/>
     <use xlink:href="#DejaVuSans-3e" x="210.595703"/>
     <use xlink:href="#DejaVuSans-20" x="294.384766"/>
     <use xlink:href="#DejaVuSans-3d" x="326.171875"/>
     <use xlink:href="#DejaVuSans-20" x="409.960938"/>
     <use xlink:href="#DejaVuSans-30" x="441.748047"/>
     <use xlink:href="#DejaVuSans-2e" x="505.371094"/>
     <use xlink:href="#DejaVuSans-38" x="537.158203"/>
     <use xlink:href="#DejaVuSans-34" x="600.78125"/>
    </g>
   </g>
   <g id="text_33">
    <!-- Conditional histograms (acentric, real data) -->
    <g transform="translate(433.355625 28.56) scale(0.144 -0.144)">
     <defs>
      <path id="DejaVuSans-43" d="M 4122 4306 
L 4122 3641 
Q 3803 3938 3442 4084 
Q 3081 4231 2675 4231 
Q 1875 4231 1450 3742 
Q 1025 3253 1025 2328 
Q 1025 1406 1450 917 
Q 1875 428 2675 428 
Q 3081 428 3442 575 
Q 3803 722 4122 1019 
L 4122 359 
Q 3791 134 3420 21 
Q 3050 -91 2638 -91 
Q 1578 -91 968 557 
Q 359 1206 359 2328 
Q 359 3453 968 4101 
Q 1578 4750 2638 4750 
Q 3056 4750 3426 4639 
Q 3797 4528 4122 4306 
z
" transform="scale(0.015625)"/>
      <path id="DejaVuSans-6f" d="M 1959 3097 
Q 1497 3097 1228 2736 
Q 959 2375 959 1747 
Q 959 1119 1226 758 
Q 1494 397 1959 397 
Q 2419 397 2687 759 
Q 2956 1122 2956 1747 
Q 2956 2369 2687 2733 
Q 2419 3097 1959 3097 
z
M 1959 3584 
Q 2709 3584 3137 3096 
Q 3566 2609 3566 1747 
Q 3566 888 3137 398 
Q 2709 -91 1959 -91 
Q 1206 -91 779 398 
Q 353 888 353 1747 
Q 353 2609 779 3096 
Q 1206 3584 1959 3584 
z
" transform="scale(0.015625)"/>
      <path id="DejaVuSans-6e" d="M 3513 2113 
L 3513 0 
L 2938 0 
L 2938 2094 
Q 2938 2591 2744 2837 
Q 2550 3084 2163 3084 
Q 1697 3084 1428 2787 
Q 1159 2491 1159 1978 
L 1159 0 
L 581 0 
L 581 3500 
L 1159 3500 
L 1159 2956 
Q 1366 3272 1645 3428 
Q 1925 3584 2291 3584 
Q 2894 3584 3203 3211 
Q 3513 2838 3513 2113 
z
" transform="scale(0.015625)"/>
      <path id="DejaVuSans-64" d="M 2906 2969 
L 2906 4863 
L 3481 4863 
L 3481 0 
L 2906 0 
L 2906 525 
Q 2725 213 2448 61 
Q 2172 -91 1784 -91 
Q 1150 -91 751 415 
Q 353 922 353 1747 
Q 353 2572 751 3078 
Q 1150 3584 1784 3584 
Q 2172 3584 2448 3432 
Q 2725 3281 2906 2969 
z
M 947 1747 
Q 947 1113 1208 752 
Q 1469 391 1925 391 
Q 2381 391 2643 752 
Q 2906 1113 2906 1747 
Q 2906 2381 2643 2742 
Q 2381 3103 1925 3103 
Q 1469 3103 1208 2742 
Q 947 2381 947 1747 
z
" transform="scale(0.015625)"/>
      <path id="DejaVuSans-69" d="M 603 3500 
L 1178 3500 
L 1178 0 
L 603 0 
L 603 3500 
z
M 603 4863 
L 1178 4863 
L 1178 4134 
L 603 4134 
L 603 4863 
z
" transform="scale(0.015625)"/>
      <path id="DejaVuSans-74" d="M 1172 4494 
L 1172 3500 
L 2356 3500 
L 2356 3053 
L 1172 3053 
L 1172 1153 
Q 1172 725 1289 603 
Q 1406 481 1766 481 
L 2356 481 
L 2356 0 
L 1766 0 
Q 1100 0 847 248 
Q 594 497 594 1153 
L 594 3053 
L 172 3053 
L 172 3500 
L 594 3500 
L 594 4494 
L 1172 4494 
z
" transform="scale(0.015625)"/>
      <path id="DejaVuSans-61" d="M 2194 1759 
Q 1497 1759 1228 1600 
Q 959 1441 959 1056 
Q 959 750 1161 570 
Q 1363 391 1709 391 
Q 2188 391 2477 730 
Q 2766 1069 2766 1631 
L 2766 1759 
L 2194 1759 
z
M 3341 1997 
L 3341 0 
L 2766 0 
L 2766 531 
Q 2569 213 2275 61 
Q 1981 -91 1556 -91 
Q 1019 -91 701 211 
Q 384 513 384 1019 
Q 384 1609 779 1909 
Q 1175 2209 1959 2209 
L 2766 2209 
L 2766 2266 
Q 2766 2663 2505 2880 
Q 2244 3097 1772 3097 
Q 1472 3097 1187 3025 
Q 903 2953 641 2809 
L 641 3341 
Q 956 3463 1253 3523 
Q 1550 3584 1831 3584 
Q 2591 3584 2966 3190 
Q 3341 2797 3341 1997 
z
" transform="scale(0.015625)"/>
      <path id="DejaVuSans-6c" d="M 603 4863 
L 1178 4863 
L 1178 0 
L 603 0 
L 603 4863 
z
" transform="scale(0.015625)"/>
      <path id="DejaVuSans-68" d="M 3513 2113 
L 3513 0 
L 2938 0 
L 2938 2094 
Q 2938 2591 2744 2837 
Q 2550 3084 2163 3084 
Q 1697 3084 1428 2787 
Q 1159 2491 1159 1978 
L 1159 0 
L 581 0 
L 581 4863 
L 1159 4863 
L 1159 2956 
Q 1366 3272 1645 3428 
Q 1925 3584 2291 3584 
Q 2894 3584 3203 3211 
Q 3513 2838 3513 2113 
z
" transform="scale(0.015625)"/>
      <path id="DejaVuSans-73" d="M 2834 3397 
L 2834 2853 
Q 2591 2978 2328 3040 
Q 2066 3103 1784 3103 
Q 1356 3103 1142 2972 
Q 928 2841 928 2578 
Q 928 2378 1081 2264 
Q 1234 2150 1697 2047 
L 1894 2003 
Q 2506 1872 2764 1633 
Q 3022 1394 3022 966 
Q 3022 478 2636 193 
Q 2250 -91 1575 -91 
Q 1294 -91 989 -36 
Q 684 19 347 128 
L 347 722 
Q 666 556 975 473 
Q 1284 391 1588 391 
Q 1994 391 2212 530 
Q 2431 669 2431 922 
Q 2431 1156 2273 1281 
Q 2116 1406 1581 1522 
L 1381 1569 
Q 847 1681 609 1914 
Q 372 2147 372 2553 
Q 372 3047 722 3315 
Q 1072 3584 1716 3584 
Q 2034 3584 2315 3537 
Q 2597 3491 2834 3397 
z
" transform="scale(0.015625)"/>
      <path id="DejaVuSans-67" d="M 2906 1791 
Q 2906 2416 2648 2759 
Q 2391 3103 1925 3103 
Q 1463 3103 1205 2759 
Q 947 2416 947 1791 
Q 947 1169 1205 825 
Q 1463 481 1925 481 
Q 2391 481 2648 825 
Q 2906 1169 2906 1791 
z
M 3481 434 
Q 3481 -459 3084 -895 
Q 2688 -1331 1869 -1331 
Q 1566 -1331 1297 -1286 
Q 1028 -1241 775 -1147 
L 775 -588 
Q 1028 -725 1275 -790 
Q 1522 -856 1778 -856 
Q 2344 -856 2625 -561 
Q 2906 -266 2906 331 
L 2906 616 
Q 2728 306 2450 153 
Q 2172 0 1784 0 
Q 1141 0 747 490 
Q 353 981 353 1791 
Q 353 2603 747 3093 
Q 1141 3584 1784 3584 
Q 2172 3584 2450 3431 
Q 2728 3278 2906 2969 
L 2906 3500 
L 3481 3500 
L 3481 434 
z
" transform="scale(0.015625)"/>
      <path id="DejaVuSans-72" d="M 2631 2963 
Q 2534 3019 2420 3045 
Q 2306 3072 2169 3072 
Q 1681 3072 1420 2755 
Q 1159 2438 1159 1844 
L 1159 0 
L 581 0 
L 581 3500 
L 1159 3500 
L 1159 2956 
Q 1341 3275 1631 3429 
Q 1922 3584 2338 3584 
Q 2397 3584 2469 3576 
Q 2541 3569 2628 3553 
L 2631 2963 
z
" transform="scale(0.015625)"/>
      <path id="DejaVuSans-6d" d="M 3328 2828 
Q 3544 3216 3844 3400 
Q 4144 3584 4550 3584 
Q 5097 3584 5394 3201 
Q 5691 2819 5691 2113 
L 5691 0 
L 5113 0 
L 5113 2094 
Q 5113 2597 4934 2840 
Q 4756 3084 4391 3084 
Q 3944 3084 3684 2787 
Q 3425 2491 3425 1978 
L 3425 0 
L 2847 0 
L 2847 2094 
Q 2847 2600 2669 2842 
Q 2491 3084 2119 3084 
Q 1678 3084 1418 2786 
Q 1159 2488 1159 1978 
L 1159 0 
L 581 0 
L 581 3500 
L 1159 3500 
L 1159 2956 
Q 1356 3278 1631 3431 
Q 1906 3584 2284 3584 
Q 2666 3584 2933 3390 
Q 3200 3197 3328 2828 
z
" transform="scale(0.015625)"/>
      <path id="DejaVuSans-28" d="M 1984 4856 
Q 1566 4138 1362 3434 
Q 1159 2731 1159 2009 
Q 1159 1288 1364 580 
Q 1569 -128 1984 -844 
L 1484 -844 
Q 1016 -109 783 600 
Q 550 1309 550 2009 
Q 550 2706 781 3412 
Q 1013 4119 1484 4856 
L 1984 4856 
z
" transform="scale(0.015625)"/>
      <path id="DejaVuSans-63" d="M 3122 3366 
L 3122 2828 
Q 2878 2963 2633 3030 
Q 2388 3097 2138 3097 
Q 1578 3097 1268 2742 
Q 959 2388 959 1747 
Q 959 1106 1268 751 
Q 1578 397 2138 397 
Q 2388 397 2633 464 
Q 2878 531 3122 666 
L 3122 134 
Q 2881 22 2623 -34 
Q 2366 -91 2075 -91 
Q 1284 -91 818 406 
Q 353 903 353 1747 
Q 353 2603 823 3093 
Q 1294 3584 2113 3584 
Q 2378 3584 2631 3529 
Q 2884 3475 3122 3366 
z
" transform="scale(0.015625)"/>
      <path id="DejaVuSans-65" d="M 3597 1894 
L 3597 1613 
L 953 1613 
Q 991 1019 1311 708 
Q 1631 397 2203 397 
Q 2534 397 2845 478 
Q 3156 559 3463 722 
L 3463 178 
Q 3153 47 2828 -22 
Q 2503 -91 2169 -91 
Q 1331 -91 842 396 
Q 353 884 353 1716 
Q 353 2575 817 3079 
Q 1281 3584 2069 3584 
Q 2775 3584 3186 3129 
Q 3597 2675 3597 1894 
z
M 3022 2063 
Q 3016 2534 2758 2815 
Q 2500 3097 2075 3097 
Q 1594 3097 1305 2825 
Q 1016 2553 972 2059 
L 3022 2063 
z
" transform="scale(0.015625)"/>
      <path id="DejaVuSans-2c" d="M 750 794 
L 1409 794 
L 1409 256 
L 897 -744 
L 494 -744 
L 750 256 
L 750 794 
z
" transform="scale(0.015625)"/>
      <path id="DejaVuSans-29" d="M 513 4856 
L 1013 4856 
Q 1481 4119 1714 3412 
Q 1947 2706 1947 2009 
Q 1947 1309 1714 600 
Q 1481 -109 1013 -844 
L 513 -844 
Q 928 -128 1133 580 
Q 1338 1288 1338 2009 
Q 1338 2731 1133 3434 
Q 928 4138 513 4856 
z
" transform="scale(0.015625)"/>
     </defs>
     <use xlink:href="#DejaVuSans-43"/>
     <use xlink:href="#DejaVuSans-6f" x="69.824219"/>
     <use xlink:href="#DejaVuSans-6e" x="131.005859"/>
     <use xlink:href="#DejaVuSans-64" x="194.384766"/>
     <use xlink:href="#DejaVuSans-69" x="257.861328"/>
     <use xlink:href="#DejaVuSans-74" x="285.644531"/>
     <use xlink:href="#DejaVuSans-69" x="324.853516"/>
     <use xlink:href="#DejaVuSans-6f" x="352.636719"/>
     <use xlink:href="#DejaVuSans-6e" x="413.818359"/>
     <use xlink:href="#DejaVuSans-61" x="477.197266"/>
     <use xlink:href="#DejaVuSans-6c" x="538.476562"/>
     <use xlink:href="#DejaVuSans-20" x="566.259766"/>
     <use xlink:href="#DejaVuSans-68" x="598.046875"/>
     <use xlink:href="#DejaVuSans-69" x="661.425781"/>
     <use xlink:href="#DejaVuSans-73" x="689.208984"/>
     <use xlink:href="#DejaVuSans-74" x="741.308594"/>
     <use xlink:href="#DejaVuSans-6f" x="780.517578"/>
     <use xlink:href="#DejaVuSans-67" x="841.699219"/>
     <use xlink:href="#DejaVuSans-72" x="905.175781"/>
     <use xlink:href="#DejaVuSans-61" x="946.289062"/>
     <use xlink:href="#DejaVuSans-6d" x="1007.568359"/>
     <use xlink:href="#DejaVuSans-73" x="1104.980469"/>
     <use xlink:href="#DejaVuSans-20" x="1157.080078"/>
     <use xlink:href="#DejaVuSans-28" x="1188.867188"/>
     <use xlink:href="#DejaVuSans-61" x="1227.880859"/>
     <use xlink:href="#DejaVuSans-63" x="1289.160156"/>
     <use xlink:href="#DejaVuSans-65" x="1344.140625"/>
     <use xlink:href="#DejaVuSans-6e" x="1405.664062"/>
     <use xlink:href="#DejaVuSans-74" x="1469.042969"/>
     <use xlink:href="#DejaVuSans-72" x="1508.251953"/>
     <use xlink:href="#DejaVuSans-69" x="1549.365234"/>
     <use xlink:href="#DejaVuSans-63" x="1577.148438"/>
     <use xlink:href="#DejaVuSans-2c" x="1632.128906"/>
     <use xlink:href="#DejaVuSans-20" x="1663.916016"/>
     <use xlink:href="#DejaVuSans-72" x="1695.703125"/>
     <use xlink:href="#DejaVuSans-65" x="1734.566406"/>
     <use xlink:href="#DejaVuSans-61" x="1796.089844"/>
     <use xlink:href="#DejaVuSans-6c" x="1857.369141"/>
     <use xlink:href="#DejaVuSans-20" x="1885.152344"/>
     <use xlink:href="#DejaVuSans-64" x="1916.939453"/>
     <use xlink:href="#DejaVuSans-61" x="1980.416016"/>
     <use xlink:href="#DejaVuSans-74" x="2041.695312"/>
     <use xlink:href="#DejaVuSans-61" x="2080.904297"/>
     <use xlink:href="#DejaVuSans-29" x="2142.183594"/>
    </g>
   </g>
  </g>
  <g id="axes_3">
   <g id="patch_110">
    <path d="M 774.211765 256.32 
L 1036.8 256.32 
L 1036.8 34.56 
L 774.211765 34.56 
z
" style="fill: #ffffff"/>
   </g>
   <g id="patch_111">
    <path d="M 774.211765 256.32 
L 783.143337 256.32 
L 783.143337 255.190878 
L 774.211765 255.190878 
z
" clip-path="url(#p7a944ae3f6)" style="fill: #1f77b4"/>
   </g>
   <g id="patch_112">
    <path d="M 783.143337 256.32 
L 792.07491 256.32 
L 792.07491 251.803512 
L 783.143337 251.803512 
z
" clip-path="url(#p7a944ae3f6)" style="fill: #1f77b4"/>
   </g>
   <g id="patch_113">
    <path d="M 792.07491 256.32 
L 801.006483 256.32 
L 801.006483 243.899659 
L 792.07491 243.899659 
z
" clip-path="url(#p7a944ae3f6)" style="fill: #1f77b4"/>
   </g>
   <g id="patch_114">
    <path d="M 801.006483 256.32 
L 809.938055 256.32 
L 809.938055 234.866684 
L 801.006483 234.866684 
z
" clip-path="url(#p7a944ae3f6)" style="fill: #1f77b4"/>
   </g>
   <g id="patch_115">
    <path d="M 809.938055 256.32 
L 818.869628 256.32 
L 818.869628 231.479318 
L 809.938055 231.479318 
z
" clip-path="url(#p7a944ae3f6)" style="fill: #1f77b4"/>
   </g>
   <g id="patch_116">
    <path d="M 818.869628 256.32 
L 827.8012 256.32 
L 827.8012 215.671611 
L 818.869628 215.671611 
z
" clip-path="url(#p7a944ae3f6)" style="fill: #1f77b4"/>
   </g>
   <g id="patch_117">
    <path d="M 827.8012 256.32 
L 836.732773 256.32 
L 836.732773 214.542489 
L 827.8012 214.542489 
z
" clip-path="url(#p7a944ae3f6)" style="fill: #1f77b4"/>
   </g>
   <g id="patch_118">
    <path d="M 836.732773 256.32 
L 845.664346 256.32 
L 845.664346 178.410588 
L 836.732773 178.410588 
z
" clip-path="url(#p7a944ae3f6)" style="fill: #1f77b4"/>
   </g>
   <g id="patch_119">
    <path d="M 845.664346 256.32 
L 854.595918 256.32 
L 854.595918 173.894101 
L 845.664346 173.894101 
z
" clip-path="url(#p7a944ae3f6)" style="fill: #1f77b4"/>
   </g>
   <g id="patch_120">
    <path d="M 854.595918 256.32 
L 863.527491 256.32 
L 863.527491 124.212737 
L 854.595918 124.212737 
z
" clip-path="url(#p7a944ae3f6)" style="fill: #1f77b4"/>
   </g>
   <g id="patch_121">
    <path d="M 863.527491 256.32 
L 872.459064 256.32 
L 872.459064 81.306104 
L 863.527491 81.306104 
z
" clip-path="url(#p7a944ae3f6)" style="fill: #1f77b4"/>
   </g>
   <g id="patch_122">
    <path d="M 872.459064 256.32 
L 881.390636 256.32 
L 881.390636 86.951714 
L 872.459064 86.951714 
z
" clip-path="url(#p7a944ae3f6)" style="fill: #1f77b4"/>
   </g>
   <g id="patch_123">
    <path d="M 881.390636 256.32 
L 890.322209 256.32 
L 890.322209 97.113811 
L 881.390636 97.113811 
z
" clip-path="url(#p7a944ae3f6)" style="fill: #1f77b4"/>
   </g>
   <g id="patch_124">
    <path d="M 890.322209 256.32 
L 899.253782 256.32 
L 899.253782 74.531373 
L 890.322209 74.531373 
z
" clip-path="url(#p7a944ae3f6)" style="fill: #1f77b4"/>
   </g>
   <g id="patch_125">
    <path d="M 899.253782 256.32 
L 908.185354 256.32 
L 908.185354 92.597323 
L 899.253782 92.597323 
z
" clip-path="url(#p7a944ae3f6)" style="fill: #1f77b4"/>
   </g>
   <g id="patch_126">
    <path d="M 908.185354 256.32 
L 917.116927 256.32 
L 917.116927 95.984689 
L 908.185354 95.984689 
z
" clip-path="url(#p7a944ae3f6)" style="fill: #1f77b4"/>
   </g>
   <g id="patch_127">
    <path d="M 917.116927 256.32 
L 926.048499 256.32 
L 926.048499 144.536931 
L 917.116927 144.536931 
z
" clip-path="url(#p7a944ae3f6)" style="fill: #1f77b4"/>
   </g>
   <g id="patch_128">
    <path d="M 926.048499 256.32 
L 934.980072 256.32 
L 934.980072 165.990247 
L 926.048499 165.990247 
z
" clip-path="url(#p7a944ae3f6)" style="fill: #1f77b4"/>
   </g>
   <g id="patch_129">
    <path d="M 934.980072 256.32 
L 943.911645 256.32 
L 943.911645 193.089173 
L 934.980072 193.089173 
z
" clip-path="url(#p7a944ae3f6)" style="fill: #1f77b4"/>
   </g>
   <g id="patch_130">
    <path d="M 943.911645 256.32 
L 952.843217 256.32 
L 952.843217 208.89688 
L 943.911645 208.89688 
z
" clip-path="url(#p7a944ae3f6)" style="fill: #1f77b4"/>
   </g>
   <g id="patch_131">
    <path d="M 952.843217 256.32 
L 961.77479 256.32 
L 961.77479 234.866684 
L 952.843217 234.866684 
z
" clip-path="url(#p7a944ae3f6)" style="fill: #1f77b4"/>
   </g>
   <g id="patch_132">
    <path d="M 961.77479 256.32 
L 970.706363 256.32 
L 970.706363 248.416147 
L 961.77479 248.416147 
z
" clip-path="url(#p7a944ae3f6)" style="fill: #1f77b4"/>
   </g>
   <g id="patch_133">
    <path d="M 970.706363 256.32 
L 979.637935 256.32 
L 979.637935 246.157903 
L 970.706363 246.157903 
z
" clip-path="url(#p7a944ae3f6)" style="fill: #1f77b4"/>
   </g>
   <g id="patch_134">
    <path d="M 979.637935 256.32 
L 988.569508 256.32 
L 988.569508 252.932634 
L 979.637935 252.932634 
z
" clip-path="url(#p7a944ae3f6)" style="fill: #1f77b4"/>
   </g>
   <g id="patch_135">
    <path d="M 988.569508 256.32 
L 997.50108 256.32 
L 997.50108 254.061756 
L 988.569508 254.061756 
z
" clip-path="url(#p7a944ae3f6)" style="fill: #1f77b4"/>
   </g>
   <g id="patch_136">
    <path d="M 997.50108 256.32 
L 1006.432653 256.32 
L 1006.432653 256.32 
L 997.50108 256.32 
z
" clip-path="url(#p7a944ae3f6)" style="fill: #1f77b4"/>
   </g>
   <g id="patch_137">
    <path d="M 1006.432653 256.32 
L 1015.364226 256.32 
L 1015.364226 256.32 
L 1006.432653 256.32 
z
" clip-path="url(#p7a944ae3f6)" style="fill: #1f77b4"/>
   </g>
   <g id="patch_138">
    <path d="M 1015.364226 256.32 
L 1024.295798 256.32 
L 1024.295798 256.32 
L 1015.364226 256.32 
z
" clip-path="url(#p7a944ae3f6)" style="fill: #1f77b4"/>
   </g>
   <g id="patch_139">
    <path d="M 1024.295798 256.32 
L 1033.227371 256.32 
L 1033.227371 256.32 
L 1024.295798 256.32 
z
" clip-path="url(#p7a944ae3f6)" style="fill: #1f77b4"/>
   </g>
   <g id="patch_140">
    <path d="M 1033.227371 256.32 
L 1042.158944 256.32 
L 1042.158944 255.190878 
L 1033.227371 255.190878 
z
" clip-path="url(#p7a944ae3f6)" style="fill: #1f77b4"/>
   </g>
   <g id="patch_141">
    <path d="M 1042.158944 256.32 
L 1051.090516 256.32 
L 1051.090516 254.061756 
L 1042.158944 254.061756 
z
" clip-path="url(#p7a944ae3f6)" style="fill: #1f77b4"/>
   </g>
   <g id="patch_142">
    <path d="M 1051.090516 256.32 
L 1060.022089 256.32 
L 1060.022089 256.32 
L 1051.090516 256.32 
z
" clip-path="url(#p7a944ae3f6)" style="fill: #1f77b4"/>
   </g>
   <g id="patch_143">
    <path d="M 1060.022089 256.32 
L 1068.953661 256.32 
L 1068.953661 256.32 
L 1060.022089 256.32 
z
" clip-path="url(#p7a944ae3f6)" style="fill: #1f77b4"/>
   </g>
   <g id="patch_144">
    <path d="M 1068.953661 256.32 
L 1077.885234 256.32 
L 1077.885234 256.32 
L 1068.953661 256.32 
z
" clip-path="url(#p7a944ae3f6)" style="fill: #1f77b4"/>
   </g>
   <g id="patch_145">
    <path d="M 1077.885234 256.32 
L 1086.816807 256.32 
L 1086.816807 256.32 
L 1077.885234 256.32 
z
" clip-path="url(#p7a944ae3f6)" style="fill: #1f77b4"/>
   </g>
   <g id="patch_146">
    <path d="M 1086.816807 256.32 
L 1095.748379 256.32 
L 1095.748379 256.32 
L 1086.816807 256.32 
z
" clip-path="url(#p7a944ae3f6)" style="fill: #1f77b4"/>
   </g>
   <g id="patch_147">
    <path d="M 1095.748379 256.32 
L 1104.679952 256.32 
L 1104.679952 256.32 
L 1095.748379 256.32 
z
" clip-path="url(#p7a944ae3f6)" style="fill: #1f77b4"/>
   </g>
   <g id="patch_148">
    <path d="M 1104.679952 256.32 
L 1113.611525 256.32 
L 1113.611525 256.32 
L 1104.679952 256.32 
z
" clip-path="url(#p7a944ae3f6)" style="fill: #1f77b4"/>
   </g>
   <g id="patch_149">
    <path d="M 1113.611525 256.32 
L 1122.543097 256.32 
L 1122.543097 256.32 
L 1113.611525 256.32 
z
" clip-path="url(#p7a944ae3f6)" style="fill: #1f77b4"/>
   </g>
   <g id="patch_150">
    <path d="M 1122.543097 256.32 
L 1131.47467 256.32 
L 1131.47467 256.32 
L 1122.543097 256.32 
z
" clip-path="url(#p7a944ae3f6)" style="fill: #1f77b4"/>
   </g>
   <g id="patch_151">
    <path d="M 1131.47467 256.32 
L 1140.406242 256.32 
L 1140.406242 256.32 
L 1131.47467 256.32 
z
" clip-path="url(#p7a944ae3f6)" style="fill: #1f77b4"/>
   </g>
   <g id="patch_152">
    <path d="M 1140.406242 256.32 
L 1149.337815 256.32 
L 1149.337815 256.32 
L 1140.406242 256.32 
z
" clip-path="url(#p7a944ae3f6)" style="fill: #1f77b4"/>
   </g>
   <g id="patch_153">
    <path d="M 1149.337815 256.32 
L 1158.269388 256.32 
L 1158.269388 256.32 
L 1149.337815 256.32 
z
" clip-path="url(#p7a944ae3f6)" style="fill: #1f77b4"/>
   </g>
   <g id="patch_154">
    <path d="M 1158.269388 256.32 
L 1167.20096 256.32 
L 1167.20096 256.32 
L 1158.269388 256.32 
z
" clip-path="url(#p7a944ae3f6)" style="fill: #1f77b4"/>
   </g>
   <g id="patch_155">
    <path d="M 1167.20096 256.32 
L 1176.132533 256.32 
L 1176.132533 256.32 
L 1167.20096 256.32 
z
" clip-path="url(#p7a944ae3f6)" style="fill: #1f77b4"/>
   </g>
   <g id="patch_156">
    <path d="M 1176.132533 256.32 
L 1185.064106 256.32 
L 1185.064106 256.32 
L 1176.132533 256.32 
z
" clip-path="url(#p7a944ae3f6)" style="fill: #1f77b4"/>
   </g>
   <g id="patch_157">
    <path d="M 1185.064106 256.32 
L 1193.995678 256.32 
L 1193.995678 256.32 
L 1185.064106 256.32 
z
" clip-path="url(#p7a944ae3f6)" style="fill: #1f77b4"/>
   </g>
   <g id="patch_158">
    <path d="M 1193.995678 256.32 
L 1202.927251 256.32 
L 1202.927251 256.32 
L 1193.995678 256.32 
z
" clip-path="url(#p7a944ae3f6)" style="fill: #1f77b4"/>
   </g>
   <g id="patch_159">
    <path d="M 1202.927251 256.32 
L 1211.858824 256.32 
L 1211.858824 256.32 
L 1202.927251 256.32 
z
" clip-path="url(#p7a944ae3f6)" style="fill: #1f77b4"/>
   </g>
   <g id="matplotlib.axis_5">
    <g id="xtick_15">
     <g id="line2d_37">
      <g>
       <use xlink:href="#m4a1b2d1a37" x="774.211765" y="256.32" style="stroke: #000000; stroke-width: 0.8"/>
      </g>
     </g>
     <g id="text_34">
      <!-- 0.0 -->
      <g transform="translate(764.66989 272.438125) scale(0.12 -0.12)">
       <use xlink:href="#DejaVuSans-30"/>
       <use xlink:href="#DejaVuSans-2e" x="63.623047"/>
       <use xlink:href="#DejaVuSans-30" x="95.410156"/>
      </g>
     </g>
    </g>
    <g id="xtick_16">
     <g id="line2d_38">
      <g>
       <use xlink:href="#m4a1b2d1a37" x="817.976471" y="256.32" style="stroke: #000000; stroke-width: 0.8"/>
      </g>
     </g>
     <g id="text_35">
      <!-- 0.5 -->
      <g transform="translate(808.434596 272.438125) scale(0.12 -0.12)">
       <use xlink:href="#DejaVuSans-30"/>
       <use xlink:href="#DejaVuSans-2e" x="63.623047"/>
       <use xlink:href="#DejaVuSans-35" x="95.410156"/>
      </g>
     </g>
    </g>
    <g id="xtick_17">
     <g id="line2d_39">
      <g>
       <use xlink:href="#m4a1b2d1a37" x="861.741176" y="256.32" style="stroke: #000000; stroke-width: 0.8"/>
      </g>
     </g>
     <g id="text_36">
      <!-- 1.0 -->
      <g transform="translate(852.199301 272.438125) scale(0.12 -0.12)">
       <use xlink:href="#DejaVuSans-31"/>
       <use xlink:href="#DejaVuSans-2e" x="63.623047"/>
       <use xlink:href="#DejaVuSans-30" x="95.410156"/>
      </g>
     </g>
    </g>
    <g id="xtick_18">
     <g id="line2d_40">
      <g>
       <use xlink:href="#m4a1b2d1a37" x="905.505882" y="256.32" style="stroke: #000000; stroke-width: 0.8"/>
      </g>
     </g>
     <g id="text_37">
      <!-- 1.5 -->
      <g transform="translate(895.964007 272.438125) scale(0.12 -0.12)">
       <use xlink:href="#DejaVuSans-31"/>
       <use xlink:href="#DejaVuSans-2e" x="63.623047"/>
       <use xlink:href="#DejaVuSans-35" x="95.410156"/>
      </g>
     </g>
    </g>
    <g id="xtick_19">
     <g id="line2d_41">
      <g>
       <use xlink:href="#m4a1b2d1a37" x="949.270588" y="256.32" style="stroke: #000000; stroke-width: 0.8"/>
      </g>
     </g>
     <g id="text_38">
      <!-- 2.0 -->
      <g transform="translate(939.728713 272.438125) scale(0.12 -0.12)">
       <use xlink:href="#DejaVuSans-32"/>
       <use xlink:href="#DejaVuSans-2e" x="63.623047"/>
       <use xlink:href="#DejaVuSans-30" x="95.410156"/>
      </g>
     </g>
    </g>
    <g id="xtick_20">
     <g id="line2d_42">
      <g>
       <use xlink:href="#m4a1b2d1a37" x="993.035294" y="256.32" style="stroke: #000000; stroke-width: 0.8"/>
      </g>
     </g>
     <g id="text_39">
      <!-- 2.5 -->
      <g transform="translate(983.493419 272.438125) scale(0.12 -0.12)">
       <use xlink:href="#DejaVuSans-32"/>
       <use xlink:href="#DejaVuSans-2e" x="63.623047"/>
       <use xlink:href="#DejaVuSans-35" x="95.410156"/>
      </g>
     </g>
    </g>
    <g id="xtick_21">
     <g id="line2d_43">
      <g>
       <use xlink:href="#m4a1b2d1a37" x="1036.8" y="256.32" style="stroke: #000000; stroke-width: 0.8"/>
      </g>
     </g>
     <g id="text_40">
      <!-- 3.0 -->
      <g transform="translate(1027.258125 272.438125) scale(0.12 -0.12)">
       <use xlink:href="#DejaVuSans-33"/>
       <use xlink:href="#DejaVuSans-2e" x="63.623047"/>
       <use xlink:href="#DejaVuSans-30" x="95.410156"/>
      </g>
     </g>
    </g>
   </g>
   <g id="matplotlib.axis_6">
    <g id="ytick_17">
     <g id="line2d_44">
      <g>
       <use xlink:href="#m9920f5b3fb" x="774.211765" y="256.32" style="stroke: #000000; stroke-width: 0.8"/>
      </g>
     </g>
     <g id="text_41">
      <!-- 0.0 -->
      <g transform="translate(748.128015 260.879063) scale(0.12 -0.12)">
       <use xlink:href="#DejaVuSans-30"/>
       <use xlink:href="#DejaVuSans-2e" x="63.623047"/>
       <use xlink:href="#DejaVuSans-30" x="95.410156"/>
      </g>
     </g>
    </g>
    <g id="ytick_18">
     <g id="line2d_45">
      <g>
       <use xlink:href="#m9920f5b3fb" x="774.211765" y="219.381583" style="stroke: #000000; stroke-width: 0.8"/>
      </g>
     </g>
     <g id="text_42">
      <!-- 0.2 -->
      <g transform="translate(748.128015 223.940646) scale(0.12 -0.12)">
       <use xlink:href="#DejaVuSans-30"/>
       <use xlink:href="#DejaVuSans-2e" x="63.623047"/>
       <use xlink:href="#DejaVuSans-32" x="95.410156"/>
      </g>
     </g>
    </g>
    <g id="ytick_19">
     <g id="line2d_46">
      <g>
       <use xlink:href="#m9920f5b3fb" x="774.211765" y="182.443167" style="stroke: #000000; stroke-width: 0.8"/>
      </g>
     </g>
     <g id="text_43">
      <!-- 0.4 -->
      <g transform="translate(748.128015 187.002229) scale(0.12 -0.12)">
       <use xlink:href="#DejaVuSans-30"/>
       <use xlink:href="#DejaVuSans-2e" x="63.623047"/>
       <use xlink:href="#DejaVuSans-34" x="95.410156"/>
      </g>
     </g>
    </g>
    <g id="ytick_20">
     <g id="line2d_47">
      <g>
       <use xlink:href="#m9920f5b3fb" x="774.211765" y="145.50475" style="stroke: #000000; stroke-width: 0.8"/>
      </g>
     </g>
     <g id="text_44">
      <!-- 0.6 -->
      <g transform="translate(748.128015 150.063812) scale(0.12 -0.12)">
       <use xlink:href="#DejaVuSans-30"/>
       <use xlink:href="#DejaVuSans-2e" x="63.623047"/>
       <use xlink:href="#DejaVuSans-36" x="95.410156"/>
      </g>
     </g>
    </g>
    <g id="ytick_21">
     <g id="line2d_48">
      <g>
       <use xlink:href="#m9920f5b3fb" x="774.211765" y="108.566333" style="stroke: #000000; stroke-width: 0.8"/>
      </g>
     </g>
     <g id="text_45">
      <!-- 0.8 -->
      <g transform="translate(748.128015 113.125396) scale(0.12 -0.12)">
       <use xlink:href="#DejaVuSans-30"/>
       <use xlink:href="#DejaVuSans-2e" x="63.623047"/>
       <use xlink:href="#DejaVuSans-38" x="95.410156"/>
      </g>
     </g>
    </g>
    <g id="ytick_22">
     <g id="line2d_49">
      <g>
       <use xlink:href="#m9920f5b3fb" x="774.211765" y="71.627916" style="stroke: #000000; stroke-width: 0.8"/>
      </g>
     </g>
     <g id="text_46">
      <!-- 1.0 -->
      <g transform="translate(748.128015 76.186979) scale(0.12 -0.12)">
       <use xlink:href="#DejaVuSans-31"/>
       <use xlink:href="#DejaVuSans-2e" x="63.623047"/>
       <use xlink:href="#DejaVuSans-30" x="95.410156"/>
      </g>
     </g>
    </g>
    <g id="ytick_23">
     <g id="line2d_50">
      <g>
       <use xlink:href="#m9920f5b3fb" x="774.211765" y="34.6895" style="stroke: #000000; stroke-width: 0.8"/>
      </g>
     </g>
     <g id="text_47">
      <!-- 1.2 -->
      <g transform="translate(748.128015 39.248562) scale(0.12 -0.12)">
       <use xlink:href="#DejaVuSans-31"/>
       <use xlink:href="#DejaVuSans-2e" x="63.623047"/>
       <use xlink:href="#DejaVuSans-32" x="95.410156"/>
      </g>
     </g>
    </g>
   </g>
   <g id="line2d_51">
    <path d="M 774.211765 256.32 
L 776.864171 256.204207 
L 779.516578 256.077389 
L 782.168984 255.928047 
L 784.82139 255.743741 
L 787.473797 255.510631 
L 790.126203 255.213041 
L 792.77861 254.833043 
L 795.431016 254.350094 
L 798.083422 253.740723 
L 800.735829 252.978293 
L 803.388235 252.032866 
L 806.040642 250.87119 
L 808.693048 249.456834 
L 811.345455 247.750492 
L 813.997861 245.710491 
L 816.650267 243.29351 
L 819.302674 240.455531 
L 821.95508 237.153016 
L 824.607487 233.344321 
L 827.259893 228.991311 
L 829.912299 224.061147 
L 832.564706 218.528204 
L 835.217112 212.37605 
L 837.869519 205.599409 
L 840.521925 198.206024 
L 843.174332 190.218315 
L 845.826738 181.674749 
L 848.479144 172.630794 
L 851.131551 163.159398 
L 853.783957 153.350884 
L 856.436364 143.312222 
L 859.08877 133.165633 
L 861.741176 123.04652 
L 864.393583 113.10076 
L 867.045989 103.481404 
L 869.698396 94.344893 
L 872.350802 85.846909 
L 875.003209 78.138006 
L 877.655615 71.359194 
L 880.308021 65.637664 
L 882.960428 61.082818 
L 885.612834 57.782792 
L 888.265241 55.801615 
L 890.917647 55.177143 
L 893.570053 55.919849 
L 896.22246 58.01254 
L 898.874866 61.410985 
L 901.527273 66.045458 
L 904.179679 71.823084 
L 906.832086 78.630913 
L 909.484492 86.339549 
L 912.136898 94.807205 
L 914.789305 103.883977 
L 917.441711 113.416183 
L 920.094118 123.250581 
L 922.746524 133.238315 
L 925.39893 143.238451 
L 928.051337 153.121002 
L 930.703743 162.769354 
L 933.35615 172.082061 
L 936.008556 180.97399 
L 938.660963 189.376835 
L 941.313369 197.239053 
L 943.965775 204.525271 
L 946.618182 211.215256 
L 949.270588 217.302544 
L 951.922995 222.792805 
L 954.575401 227.702055 
L 957.227807 232.054794 
L 959.880214 235.882154 
L 962.53262 239.220119 
L 965.185027 242.107873 
L 967.837433 244.58632 
L 970.48984 246.696797 
L 973.142246 248.479995 
L 975.794652 249.975092 
L 978.447059 251.21909 
L 981.099465 252.246346 
L 983.751872 253.088265 
L 986.404278 253.77315 
L 989.056684 254.326172 
L 991.709091 254.769436 
L 994.361497 255.122129 
L 997.013904 255.400716 
L 999.66631 255.619176 
L 1002.318717 255.789251 
L 1004.971123 255.920709 
L 1007.623529 256.02159 
L 1010.275936 256.098457 
L 1012.928342 256.156609 
L 1015.580749 256.200293 
L 1018.233155 256.232876 
L 1020.885561 256.257009 
L 1023.537968 256.274758 
L 1026.190374 256.28772 
L 1028.842781 256.29712 
L 1031.495187 256.30389 
L 1034.147594 256.308731 
L 1036.8 256.31217 
" clip-path="url(#p7a944ae3f6)" style="fill: none; stroke: #ff0000; stroke-width: 1.5; stroke-linecap: square"/>
   </g>
   <g id="line2d_52">
    <path d="M 774.211765 256.32 
L 776.864171 245.136814 
L 779.516578 234.015159 
L 782.168984 223.016001 
L 784.82139 212.199187 
L 787.473797 201.622899 
L 790.126203 191.343136 
L 792.77861 181.413222 
L 795.431016 171.88334 
L 798.083422 162.800118 
L 800.735829 154.206252 
L 803.388235 146.140175 
L 806.040642 138.635785 
L 808.693048 131.722224 
L 811.345455 125.423709 
L 813.997861 119.759427 
L 816.650267 114.743485 
L 819.302674 110.384914 
L 821.95508 106.687731 
L 824.607487 103.651052 
L 827.259893 101.269254 
L 829.912299 99.532183 
L 832.564706 98.425411 
L 835.217112 97.930514 
L 837.869519 98.0254 
L 840.521925 98.684652 
L 843.174332 99.879899 
L 845.826738 101.580196 
L 848.479144 103.752424 
L 851.131551 106.361688 
L 853.783957 109.371712 
L 856.436364 112.74524 
L 859.08877 116.444417 
L 861.741176 120.431159 
L 864.393583 124.667505 
L 867.045989 129.11595 
L 869.698396 133.739747 
L 872.350802 138.503193 
L 875.003209 143.371873 
L 877.655615 148.312888 
L 880.308021 153.295042 
L 882.960428 158.289004 
L 885.612834 163.267435 
L 888.265241 168.205087 
L 890.917647 173.078876 
L 893.570053 177.867919 
L 896.22246 182.553551 
L 898.874866 187.119315 
L 901.527273 191.55093 
L 904.179679 195.836239 
L 906.832086 199.965137 
L 909.484492 203.929487 
L 912.136898 207.723018 
L 914.789305 211.341217 
L 917.441711 214.781208 
L 920.094118 218.041627 
L 922.746524 221.122496 
L 925.39893 224.025083 
L 928.051337 226.751781 
L 930.703743 229.305965 
L 933.35615 231.691875 
L 936.008556 233.914482 
L 938.660963 235.979375 
L 941.313369 237.892645 
L 943.965775 239.660779 
L 946.618182 241.290563 
L 949.270588 242.788986 
L 951.922995 244.163161 
L 954.575401 245.420248 
L 957.227807 246.567386 
L 959.880214 247.611635 
L 962.53262 248.559924 
L 965.185027 249.419008 
L 967.837433 250.195428 
L 970.48984 250.895486 
L 973.142246 251.525217 
L 975.794652 252.09037 
L 978.447059 252.596401 
L 981.099465 253.048457 
L 983.751872 253.451378 
L 986.404278 253.809693 
L 989.056684 254.127625 
L 991.709091 254.409095 
L 994.361497 254.657732 
L 997.013904 254.87688 
L 999.66631 255.069612 
L 1002.318717 255.238742 
L 1004.971123 255.386837 
L 1007.623529 255.516232 
L 1010.275936 255.629044 
L 1012.928342 255.727188 
L 1015.580749 255.812386 
L 1018.233155 255.886191 
L 1020.885561 255.949988 
L 1023.537968 256.005019 
L 1026.190374 256.052387 
L 1028.842781 256.093074 
L 1031.495187 256.127949 
L 1034.147594 256.15778 
L 1036.8 256.183243 
" clip-path="url(#p7a944ae3f6)" style="fill: none; stroke: #0000ff; stroke-width: 1.5; stroke-linecap: square"/>
   </g>
   <g id="line2d_53">
    <path d="M 906.304713 256.32 
L 906.304713 45.12 
" clip-path="url(#p7a944ae3f6)" style="fill: none; stroke: #000000; stroke-width: 1.5; stroke-linecap: square"/>
   </g>
   <g id="patch_160">
    <path d="M 774.211765 256.32 
L 774.211765 34.56 
" style="fill: none; stroke: #000000; stroke-width: 0.8; stroke-linejoin: miter; stroke-linecap: square"/>
   </g>
   <g id="patch_161">
    <path d="M 1036.8 256.32 
L 1036.8 34.56 
" style="fill: none; stroke: #000000; stroke-width: 0.8; stroke-linejoin: miter; stroke-linecap: square"/>
   </g>
   <g id="patch_162">
    <path d="M 774.211765 256.32 
L 1036.8 256.32 
" style="fill: none; stroke: #000000; stroke-width: 0.8; stroke-linejoin: miter; stroke-linecap: square"/>
   </g>
   <g id="patch_163">
    <path d="M 774.211765 34.56 
L 1036.8 34.56 
" style="fill: none; stroke: #000000; stroke-width: 0.8; stroke-linejoin: miter; stroke-linecap: square"/>
   </g>
   <g id="text_48">
    <!-- &lt;E1&gt; = 1.51 -->
    <g transform="translate(958.023529 66.24) scale(0.1 -0.1)">
     <use xlink:href="#DejaVuSans-3c"/>
     <use xlink:href="#DejaVuSans-45" x="83.789062"/>
     <use xlink:href="#DejaVuSans-31" x="146.972656"/>
     <use xlink:href="#DejaVuSans-3e" x="210.595703"/>
     <use xlink:href="#DejaVuSans-20" x="294.384766"/>
     <use xlink:href="#DejaVuSans-3d" x="326.171875"/>
     <use xlink:href="#DejaVuSans-20" x="409.960938"/>
     <use xlink:href="#DejaVuSans-31" x="441.748047"/>
     <use xlink:href="#DejaVuSans-2e" x="505.371094"/>
     <use xlink:href="#DejaVuSans-35" x="537.158203"/>
     <use xlink:href="#DejaVuSans-31" x="600.78125"/>
    </g>
   </g>
  </g>
 </g>
 <defs>
  <clipPath id="pf8037a24d9">
   <rect x="144" y="34.56" width="262.588235" height="221.76"/>
  </clipPath>
  <clipPath id="p51b5ac434c">
   <rect x="459.105882" y="34.56" width="262.588235" height="221.76"/>
  </clipPath>
  <clipPath id="p7a944ae3f6">
   <rect x="774.211765" y="34.56" width="262.588235" height="221.76"/>
  </clipPath>
 </defs>
</svg>
