<?xml version="1.0" encoding="utf-8" standalone="no"?>
<!DOCTYPE svg PUBLIC "-//W3C//DTD SVG 1.1//EN"
  "http://www.w3.org/Graphics/SVG/1.1/DTD/svg11.dtd">
<!-- Created with matplotlib (https://matplotlib.org/) -->
<svg height="288pt" version="1.1" viewBox="0 0 1152 288" width="1152pt" xmlns="http://www.w3.org/2000/svg" xmlns:xlink="http://www.w3.org/1999/xlink">
 <metadata>
  <rdf:RDF xmlns:cc="http://creativecommons.org/ns#" xmlns:dc="http://purl.org/dc/elements/1.1/" xmlns:rdf="http://www.w3.org/1999/02/22-rdf-syntax-ns#">
   <cc:Work>
    <dc:type rdf:resource="http://purl.org/dc/dcmitype/StillImage"/>
    <dc:date>2021-08-03T14:25:47.842604</dc:date>
    <dc:format>image/svg+xml</dc:format>
    <dc:creator>
     <cc:Agent>
      <dc:title>Matplotlib v3.3.4, https://matplotlib.org/</dc:title>
     </cc:Agent>
    </dc:creator>
   </cc:Work>
  </rdf:RDF>
 </metadata>
 <defs>
  <style type="text/css">*{stroke-linecap:butt;stroke-linejoin:round;}</style>
 </defs>
 <g id="figure_1">
  <g id="patch_1">
   <path d="M 0 288 
L 1152 288 
L 1152 0 
L 0 0 
z
" style="fill:none;"/>
  </g>
  <g id="axes_1">
   <g id="patch_2">
    <path d="M 144 252 
L 406.588235 252 
L 406.588235 34.56 
L 144 34.56 
z
" style="fill:#ffffff;"/>
   </g>
   <g id="patch_3">
    <path clip-path="url(#p39de724eb3)" d="M 144.924665 252 
L 154.98512 252 
L 154.98512 97.742325 
L 144.924665 97.742325 
z
" style="fill:#1f77b4;opacity:0.5;"/>
   </g>
   <g id="patch_4">
    <path clip-path="url(#p39de724eb3)" d="M 154.98512 252 
L 165.045574 252 
L 165.045574 45.798414 
L 154.98512 45.798414 
z
" style="fill:#1f77b4;opacity:0.5;"/>
   </g>
   <g id="patch_5">
    <path clip-path="url(#p39de724eb3)" d="M 165.045574 252 
L 175.106029 252 
L 175.106029 49.340044 
L 165.045574 49.340044 
z
" style="fill:#1f77b4;opacity:0.5;"/>
   </g>
   <g id="patch_6">
    <path clip-path="url(#p39de724eb3)" d="M 175.106029 252 
L 185.166483 252 
L 185.166483 67.44171 
L 175.106029 67.44171 
z
" style="fill:#1f77b4;opacity:0.5;"/>
   </g>
   <g id="patch_7">
    <path clip-path="url(#p39de724eb3)" d="M 185.166483 252 
L 195.226938 252 
L 195.226938 91.839608 
L 185.166483 91.839608 
z
" style="fill:#1f77b4;opacity:0.5;"/>
   </g>
   <g id="patch_8">
    <path clip-path="url(#p39de724eb3)" d="M 195.226938 252 
L 205.287392 252 
L 205.287392 130.010512 
L 195.226938 130.010512 
z
" style="fill:#1f77b4;opacity:0.5;"/>
   </g>
   <g id="patch_9">
    <path clip-path="url(#p39de724eb3)" d="M 205.287392 252 
L 215.347847 252 
L 215.347847 157.95004 
L 205.287392 157.95004 
z
" style="fill:#1f77b4;opacity:0.5;"/>
   </g>
   <g id="patch_10">
    <path clip-path="url(#p39de724eb3)" d="M 215.347847 252 
L 225.408301 252 
L 225.408301 177.232249 
L 215.347847 177.232249 
z
" style="fill:#1f77b4;opacity:0.5;"/>
   </g>
   <g id="patch_11">
    <path clip-path="url(#p39de724eb3)" d="M 225.408301 252 
L 235.468756 252 
L 235.468756 200.449603 
L 225.408301 200.449603 
z
" style="fill:#1f77b4;opacity:0.5;"/>
   </g>
   <g id="patch_12">
    <path clip-path="url(#p39de724eb3)" d="M 235.468756 252 
L 245.529211 252 
L 245.529211 214.22261 
L 235.468756 214.22261 
z
" style="fill:#1f77b4;opacity:0.5;"/>
   </g>
   <g id="patch_13">
    <path clip-path="url(#p39de724eb3)" d="M 245.529211 252 
L 255.589665 252 
L 255.589665 226.028045 
L 245.529211 226.028045 
z
" style="fill:#1f77b4;opacity:0.5;"/>
   </g>
   <g id="patch_14">
    <path clip-path="url(#p39de724eb3)" d="M 255.589665 252 
L 265.65012 252 
L 265.65012 233.111305 
L 255.589665 233.111305 
z
" style="fill:#1f77b4;opacity:0.5;"/>
   </g>
   <g id="patch_15">
    <path clip-path="url(#p39de724eb3)" d="M 265.65012 252 
L 275.710574 252 
L 275.710574 241.375109 
L 265.65012 241.375109 
z
" style="fill:#1f77b4;opacity:0.5;"/>
   </g>
   <g id="patch_16">
    <path clip-path="url(#p39de724eb3)" d="M 275.710574 252 
L 285.771029 252 
L 285.771029 246.490797 
L 275.710574 246.490797 
z
" style="fill:#1f77b4;opacity:0.5;"/>
   </g>
   <g id="patch_17">
    <path clip-path="url(#p39de724eb3)" d="M 285.771029 252 
L 295.831483 252 
L 295.831483 248.064855 
L 285.771029 248.064855 
z
" style="fill:#1f77b4;opacity:0.5;"/>
   </g>
   <g id="patch_18">
    <path clip-path="url(#p39de724eb3)" d="M 295.831483 252 
L 305.891938 252 
L 305.891938 250.819457 
L 295.831483 250.819457 
z
" style="fill:#1f77b4;opacity:0.5;"/>
   </g>
   <g id="patch_19">
    <path clip-path="url(#p39de724eb3)" d="M 305.891938 252 
L 315.952392 252 
L 315.952392 252 
L 305.891938 252 
z
" style="fill:#1f77b4;opacity:0.5;"/>
   </g>
   <g id="patch_20">
    <path clip-path="url(#p39de724eb3)" d="M 315.952392 252 
L 326.012847 252 
L 326.012847 251.606486 
L 315.952392 251.606486 
z
" style="fill:#1f77b4;opacity:0.5;"/>
   </g>
   <g id="patch_21">
    <path clip-path="url(#p39de724eb3)" d="M 326.012847 252 
L 336.073301 252 
L 336.073301 252 
L 326.012847 252 
z
" style="fill:#1f77b4;opacity:0.5;"/>
   </g>
   <g id="patch_22">
    <path clip-path="url(#p39de724eb3)" d="M 336.073301 252 
L 346.133756 252 
L 346.133756 251.606486 
L 336.073301 251.606486 
z
" style="fill:#1f77b4;opacity:0.5;"/>
   </g>
   <g id="matplotlib.axis_1">
    <g id="xtick_1">
     <g id="line2d_1">
      <defs>
       <path d="M 0 0 
L 0 3.5 
" id="ma013905605" style="stroke:#000000;stroke-width:0.8;"/>
      </defs>
      <g>
       <use style="stroke:#000000;stroke-width:0.8;" x="144" xlink:href="#ma013905605" y="252"/>
      </g>
     </g>
     <g id="text_1">
      <!-- 0 -->
      <g transform="translate(138.91 271.1575)scale(0.16 -0.16)">
       <defs>
        <path d="M 31.78125 66.40625 
Q 24.171875 66.40625 20.328125 58.90625 
Q 16.5 51.421875 16.5 36.375 
Q 16.5 21.390625 20.328125 13.890625 
Q 24.171875 6.390625 31.78125 6.390625 
Q 39.453125 6.390625 43.28125 13.890625 
Q 47.125 21.390625 47.125 36.375 
Q 47.125 51.421875 43.28125 58.90625 
Q 39.453125 66.40625 31.78125 66.40625 
z
M 31.78125 74.21875 
Q 44.046875 74.21875 50.515625 64.515625 
Q 56.984375 54.828125 56.984375 36.375 
Q 56.984375 17.96875 50.515625 8.265625 
Q 44.046875 -1.421875 31.78125 -1.421875 
Q 19.53125 -1.421875 13.0625 8.265625 
Q 6.59375 17.96875 6.59375 36.375 
Q 6.59375 54.828125 13.0625 64.515625 
Q 19.53125 74.21875 31.78125 74.21875 
z
" id="DejaVuSans-48"/>
       </defs>
       <use xlink:href="#DejaVuSans-48"/>
      </g>
     </g>
    </g>
    <g id="xtick_2">
     <g id="line2d_2">
      <g>
       <use style="stroke:#000000;stroke-width:0.8;" x="196.517647" xlink:href="#ma013905605" y="252"/>
      </g>
     </g>
     <g id="text_2">
      <!-- 1 -->
      <g transform="translate(191.427647 271.1575)scale(0.16 -0.16)">
       <defs>
        <path d="M 12.40625 8.296875 
L 28.515625 8.296875 
L 28.515625 63.921875 
L 10.984375 60.40625 
L 10.984375 69.390625 
L 28.421875 72.90625 
L 38.28125 72.90625 
L 38.28125 8.296875 
L 54.390625 8.296875 
L 54.390625 0 
L 12.40625 0 
z
" id="DejaVuSans-49"/>
       </defs>
       <use xlink:href="#DejaVuSans-49"/>
      </g>
     </g>
    </g>
    <g id="xtick_3">
     <g id="line2d_3">
      <g>
       <use style="stroke:#000000;stroke-width:0.8;" x="249.035294" xlink:href="#ma013905605" y="252"/>
      </g>
     </g>
     <g id="text_3">
      <!-- 2 -->
      <g transform="translate(243.945294 271.1575)scale(0.16 -0.16)">
       <defs>
        <path d="M 19.1875 8.296875 
L 53.609375 8.296875 
L 53.609375 0 
L 7.328125 0 
L 7.328125 8.296875 
Q 12.9375 14.109375 22.625 23.890625 
Q 32.328125 33.6875 34.8125 36.53125 
Q 39.546875 41.84375 41.421875 45.53125 
Q 43.3125 49.21875 43.3125 52.78125 
Q 43.3125 58.59375 39.234375 62.25 
Q 35.15625 65.921875 28.609375 65.921875 
Q 23.96875 65.921875 18.8125 64.3125 
Q 13.671875 62.703125 7.8125 59.421875 
L 7.8125 69.390625 
Q 13.765625 71.78125 18.9375 73 
Q 24.125 74.21875 28.421875 74.21875 
Q 39.75 74.21875 46.484375 68.546875 
Q 53.21875 62.890625 53.21875 53.421875 
Q 53.21875 48.921875 51.53125 44.890625 
Q 49.859375 40.875 45.40625 35.40625 
Q 44.1875 33.984375 37.640625 27.21875 
Q 31.109375 20.453125 19.1875 8.296875 
z
" id="DejaVuSans-50"/>
       </defs>
       <use xlink:href="#DejaVuSans-50"/>
      </g>
     </g>
    </g>
    <g id="xtick_4">
     <g id="line2d_4">
      <g>
       <use style="stroke:#000000;stroke-width:0.8;" x="301.552941" xlink:href="#ma013905605" y="252"/>
      </g>
     </g>
     <g id="text_4">
      <!-- 3 -->
      <g transform="translate(296.462941 271.1575)scale(0.16 -0.16)">
       <defs>
        <path d="M 40.578125 39.3125 
Q 47.65625 37.796875 51.625 33 
Q 55.609375 28.21875 55.609375 21.1875 
Q 55.609375 10.40625 48.1875 4.484375 
Q 40.765625 -1.421875 27.09375 -1.421875 
Q 22.515625 -1.421875 17.65625 -0.515625 
Q 12.796875 0.390625 7.625 2.203125 
L 7.625 11.71875 
Q 11.71875 9.328125 16.59375 8.109375 
Q 21.484375 6.890625 26.8125 6.890625 
Q 36.078125 6.890625 40.9375 10.546875 
Q 45.796875 14.203125 45.796875 21.1875 
Q 45.796875 27.640625 41.28125 31.265625 
Q 36.765625 34.90625 28.71875 34.90625 
L 20.21875 34.90625 
L 20.21875 43.015625 
L 29.109375 43.015625 
Q 36.375 43.015625 40.234375 45.921875 
Q 44.09375 48.828125 44.09375 54.296875 
Q 44.09375 59.90625 40.109375 62.90625 
Q 36.140625 65.921875 28.71875 65.921875 
Q 24.65625 65.921875 20.015625 65.03125 
Q 15.375 64.15625 9.8125 62.3125 
L 9.8125 71.09375 
Q 15.4375 72.65625 20.34375 73.4375 
Q 25.25 74.21875 29.59375 74.21875 
Q 40.828125 74.21875 47.359375 69.109375 
Q 53.90625 64.015625 53.90625 55.328125 
Q 53.90625 49.265625 50.4375 45.09375 
Q 46.96875 40.921875 40.578125 39.3125 
z
" id="DejaVuSans-51"/>
       </defs>
       <use xlink:href="#DejaVuSans-51"/>
      </g>
     </g>
    </g>
    <g id="xtick_5">
     <g id="line2d_5">
      <g>
       <use style="stroke:#000000;stroke-width:0.8;" x="354.070588" xlink:href="#ma013905605" y="252"/>
      </g>
     </g>
     <g id="text_5">
      <!-- 4 -->
      <g transform="translate(348.980588 271.1575)scale(0.16 -0.16)">
       <defs>
        <path d="M 37.796875 64.3125 
L 12.890625 25.390625 
L 37.796875 25.390625 
z
M 35.203125 72.90625 
L 47.609375 72.90625 
L 47.609375 25.390625 
L 58.015625 25.390625 
L 58.015625 17.1875 
L 47.609375 17.1875 
L 47.609375 0 
L 37.796875 0 
L 37.796875 17.1875 
L 4.890625 17.1875 
L 4.890625 26.703125 
z
" id="DejaVuSans-52"/>
       </defs>
       <use xlink:href="#DejaVuSans-52"/>
      </g>
     </g>
    </g>
    <g id="xtick_6">
     <g id="line2d_6">
      <g>
       <use style="stroke:#000000;stroke-width:0.8;" x="406.588235" xlink:href="#ma013905605" y="252"/>
      </g>
     </g>
     <g id="text_6">
      <!-- 5 -->
      <g transform="translate(401.498235 271.1575)scale(0.16 -0.16)">
       <defs>
        <path d="M 10.796875 72.90625 
L 49.515625 72.90625 
L 49.515625 64.59375 
L 19.828125 64.59375 
L 19.828125 46.734375 
Q 21.96875 47.46875 24.109375 47.828125 
Q 26.265625 48.1875 28.421875 48.1875 
Q 40.625 48.1875 47.75 41.5 
Q 54.890625 34.8125 54.890625 23.390625 
Q 54.890625 11.625 47.5625 5.09375 
Q 40.234375 -1.421875 26.90625 -1.421875 
Q 22.3125 -1.421875 17.546875 -0.640625 
Q 12.796875 0.140625 7.71875 1.703125 
L 7.71875 11.625 
Q 12.109375 9.234375 16.796875 8.0625 
Q 21.484375 6.890625 26.703125 6.890625 
Q 35.15625 6.890625 40.078125 11.328125 
Q 45.015625 15.765625 45.015625 23.390625 
Q 45.015625 31 40.078125 35.4375 
Q 35.15625 39.890625 26.703125 39.890625 
Q 22.75 39.890625 18.8125 39.015625 
Q 14.890625 38.140625 10.796875 36.28125 
z
" id="DejaVuSans-53"/>
       </defs>
       <use xlink:href="#DejaVuSans-53"/>
      </g>
     </g>
    </g>
    <g id="text_7">
     <!-- Normalized sf amplitude -->
     <g transform="translate(177.430368 290.6425)scale(0.16 -0.16)">
      <defs>
       <path d="M 9.8125 72.90625 
L 23.09375 72.90625 
L 55.421875 11.921875 
L 55.421875 72.90625 
L 64.984375 72.90625 
L 64.984375 0 
L 51.703125 0 
L 19.390625 60.984375 
L 19.390625 0 
L 9.8125 0 
z
" id="DejaVuSans-78"/>
       <path d="M 30.609375 48.390625 
Q 23.390625 48.390625 19.1875 42.75 
Q 14.984375 37.109375 14.984375 27.296875 
Q 14.984375 17.484375 19.15625 11.84375 
Q 23.34375 6.203125 30.609375 6.203125 
Q 37.796875 6.203125 41.984375 11.859375 
Q 46.1875 17.53125 46.1875 27.296875 
Q 46.1875 37.015625 41.984375 42.703125 
Q 37.796875 48.390625 30.609375 48.390625 
z
M 30.609375 56 
Q 42.328125 56 49.015625 48.375 
Q 55.71875 40.765625 55.71875 27.296875 
Q 55.71875 13.875 49.015625 6.21875 
Q 42.328125 -1.421875 30.609375 -1.421875 
Q 18.84375 -1.421875 12.171875 6.21875 
Q 5.515625 13.875 5.515625 27.296875 
Q 5.515625 40.765625 12.171875 48.375 
Q 18.84375 56 30.609375 56 
z
" id="DejaVuSans-111"/>
       <path d="M 41.109375 46.296875 
Q 39.59375 47.171875 37.8125 47.578125 
Q 36.03125 48 33.890625 48 
Q 26.265625 48 22.1875 43.046875 
Q 18.109375 38.09375 18.109375 28.8125 
L 18.109375 0 
L 9.078125 0 
L 9.078125 54.6875 
L 18.109375 54.6875 
L 18.109375 46.1875 
Q 20.953125 51.171875 25.484375 53.578125 
Q 30.03125 56 36.53125 56 
Q 37.453125 56 38.578125 55.875 
Q 39.703125 55.765625 41.0625 55.515625 
z
" id="DejaVuSans-114"/>
       <path d="M 52 44.1875 
Q 55.375 50.25 60.0625 53.125 
Q 64.75 56 71.09375 56 
Q 79.640625 56 84.28125 50.015625 
Q 88.921875 44.046875 88.921875 33.015625 
L 88.921875 0 
L 79.890625 0 
L 79.890625 32.71875 
Q 79.890625 40.578125 77.09375 44.375 
Q 74.3125 48.1875 68.609375 48.1875 
Q 61.625 48.1875 57.5625 43.546875 
Q 53.515625 38.921875 53.515625 30.90625 
L 53.515625 0 
L 44.484375 0 
L 44.484375 32.71875 
Q 44.484375 40.625 41.703125 44.40625 
Q 38.921875 48.1875 33.109375 48.1875 
Q 26.21875 48.1875 22.15625 43.53125 
Q 18.109375 38.875 18.109375 30.90625 
L 18.109375 0 
L 9.078125 0 
L 9.078125 54.6875 
L 18.109375 54.6875 
L 18.109375 46.1875 
Q 21.1875 51.21875 25.484375 53.609375 
Q 29.78125 56 35.6875 56 
Q 41.65625 56 45.828125 52.96875 
Q 50 49.953125 52 44.1875 
z
" id="DejaVuSans-109"/>
       <path d="M 34.28125 27.484375 
Q 23.390625 27.484375 19.1875 25 
Q 14.984375 22.515625 14.984375 16.5 
Q 14.984375 11.71875 18.140625 8.90625 
Q 21.296875 6.109375 26.703125 6.109375 
Q 34.1875 6.109375 38.703125 11.40625 
Q 43.21875 16.703125 43.21875 25.484375 
L 43.21875 27.484375 
z
M 52.203125 31.203125 
L 52.203125 0 
L 43.21875 0 
L 43.21875 8.296875 
Q 40.140625 3.328125 35.546875 0.953125 
Q 30.953125 -1.421875 24.3125 -1.421875 
Q 15.921875 -1.421875 10.953125 3.296875 
Q 6 8.015625 6 15.921875 
Q 6 25.140625 12.171875 29.828125 
Q 18.359375 34.515625 30.609375 34.515625 
L 43.21875 34.515625 
L 43.21875 35.40625 
Q 43.21875 41.609375 39.140625 45 
Q 35.0625 48.390625 27.6875 48.390625 
Q 23 48.390625 18.546875 47.265625 
Q 14.109375 46.140625 10.015625 43.890625 
L 10.015625 52.203125 
Q 14.9375 54.109375 19.578125 55.046875 
Q 24.21875 56 28.609375 56 
Q 40.484375 56 46.34375 49.84375 
Q 52.203125 43.703125 52.203125 31.203125 
z
" id="DejaVuSans-97"/>
       <path d="M 9.421875 75.984375 
L 18.40625 75.984375 
L 18.40625 0 
L 9.421875 0 
z
" id="DejaVuSans-108"/>
       <path d="M 9.421875 54.6875 
L 18.40625 54.6875 
L 18.40625 0 
L 9.421875 0 
z
M 9.421875 75.984375 
L 18.40625 75.984375 
L 18.40625 64.59375 
L 9.421875 64.59375 
z
" id="DejaVuSans-105"/>
       <path d="M 5.515625 54.6875 
L 48.1875 54.6875 
L 48.1875 46.484375 
L 14.40625 7.171875 
L 48.1875 7.171875 
L 48.1875 0 
L 4.296875 0 
L 4.296875 8.203125 
L 38.09375 47.515625 
L 5.515625 47.515625 
z
" id="DejaVuSans-122"/>
       <path d="M 56.203125 29.59375 
L 56.203125 25.203125 
L 14.890625 25.203125 
Q 15.484375 15.921875 20.484375 11.0625 
Q 25.484375 6.203125 34.421875 6.203125 
Q 39.59375 6.203125 44.453125 7.46875 
Q 49.3125 8.734375 54.109375 11.28125 
L 54.109375 2.78125 
Q 49.265625 0.734375 44.1875 -0.34375 
Q 39.109375 -1.421875 33.890625 -1.421875 
Q 20.796875 -1.421875 13.15625 6.1875 
Q 5.515625 13.8125 5.515625 26.8125 
Q 5.515625 40.234375 12.765625 48.109375 
Q 20.015625 56 32.328125 56 
Q 43.359375 56 49.78125 48.890625 
Q 56.203125 41.796875 56.203125 29.59375 
z
M 47.21875 32.234375 
Q 47.125 39.59375 43.09375 43.984375 
Q 39.0625 48.390625 32.421875 48.390625 
Q 24.90625 48.390625 20.390625 44.140625 
Q 15.875 39.890625 15.1875 32.171875 
z
" id="DejaVuSans-101"/>
       <path d="M 45.40625 46.390625 
L 45.40625 75.984375 
L 54.390625 75.984375 
L 54.390625 0 
L 45.40625 0 
L 45.40625 8.203125 
Q 42.578125 3.328125 38.25 0.953125 
Q 33.9375 -1.421875 27.875 -1.421875 
Q 17.96875 -1.421875 11.734375 6.484375 
Q 5.515625 14.40625 5.515625 27.296875 
Q 5.515625 40.1875 11.734375 48.09375 
Q 17.96875 56 27.875 56 
Q 33.9375 56 38.25 53.625 
Q 42.578125 51.265625 45.40625 46.390625 
z
M 14.796875 27.296875 
Q 14.796875 17.390625 18.875 11.75 
Q 22.953125 6.109375 30.078125 6.109375 
Q 37.203125 6.109375 41.296875 11.75 
Q 45.40625 17.390625 45.40625 27.296875 
Q 45.40625 37.203125 41.296875 42.84375 
Q 37.203125 48.484375 30.078125 48.484375 
Q 22.953125 48.484375 18.875 42.84375 
Q 14.796875 37.203125 14.796875 27.296875 
z
" id="DejaVuSans-100"/>
       <path id="DejaVuSans-32"/>
       <path d="M 44.28125 53.078125 
L 44.28125 44.578125 
Q 40.484375 46.53125 36.375 47.5 
Q 32.28125 48.484375 27.875 48.484375 
Q 21.1875 48.484375 17.84375 46.4375 
Q 14.5 44.390625 14.5 40.28125 
Q 14.5 37.15625 16.890625 35.375 
Q 19.28125 33.59375 26.515625 31.984375 
L 29.59375 31.296875 
Q 39.15625 29.25 43.1875 25.515625 
Q 47.21875 21.78125 47.21875 15.09375 
Q 47.21875 7.46875 41.1875 3.015625 
Q 35.15625 -1.421875 24.609375 -1.421875 
Q 20.21875 -1.421875 15.453125 -0.5625 
Q 10.6875 0.296875 5.421875 2 
L 5.421875 11.28125 
Q 10.40625 8.6875 15.234375 7.390625 
Q 20.0625 6.109375 24.8125 6.109375 
Q 31.15625 6.109375 34.5625 8.28125 
Q 37.984375 10.453125 37.984375 14.40625 
Q 37.984375 18.0625 35.515625 20.015625 
Q 33.0625 21.96875 24.703125 23.78125 
L 21.578125 24.515625 
Q 13.234375 26.265625 9.515625 29.90625 
Q 5.8125 33.546875 5.8125 39.890625 
Q 5.8125 47.609375 11.28125 51.796875 
Q 16.75 56 26.8125 56 
Q 31.78125 56 36.171875 55.265625 
Q 40.578125 54.546875 44.28125 53.078125 
z
" id="DejaVuSans-115"/>
       <path d="M 37.109375 75.984375 
L 37.109375 68.5 
L 28.515625 68.5 
Q 23.6875 68.5 21.796875 66.546875 
Q 19.921875 64.59375 19.921875 59.515625 
L 19.921875 54.6875 
L 34.71875 54.6875 
L 34.71875 47.703125 
L 19.921875 47.703125 
L 19.921875 0 
L 10.890625 0 
L 10.890625 47.703125 
L 2.296875 47.703125 
L 2.296875 54.6875 
L 10.890625 54.6875 
L 10.890625 58.5 
Q 10.890625 67.625 15.140625 71.796875 
Q 19.390625 75.984375 28.609375 75.984375 
z
" id="DejaVuSans-102"/>
       <path d="M 18.109375 8.203125 
L 18.109375 -20.796875 
L 9.078125 -20.796875 
L 9.078125 54.6875 
L 18.109375 54.6875 
L 18.109375 46.390625 
Q 20.953125 51.265625 25.265625 53.625 
Q 29.59375 56 35.59375 56 
Q 45.5625 56 51.78125 48.09375 
Q 58.015625 40.1875 58.015625 27.296875 
Q 58.015625 14.40625 51.78125 6.484375 
Q 45.5625 -1.421875 35.59375 -1.421875 
Q 29.59375 -1.421875 25.265625 0.953125 
Q 20.953125 3.328125 18.109375 8.203125 
z
M 48.6875 27.296875 
Q 48.6875 37.203125 44.609375 42.84375 
Q 40.53125 48.484375 33.40625 48.484375 
Q 26.265625 48.484375 22.1875 42.84375 
Q 18.109375 37.203125 18.109375 27.296875 
Q 18.109375 17.390625 22.1875 11.75 
Q 26.265625 6.109375 33.40625 6.109375 
Q 40.53125 6.109375 44.609375 11.75 
Q 48.6875 17.390625 48.6875 27.296875 
z
" id="DejaVuSans-112"/>
       <path d="M 18.3125 70.21875 
L 18.3125 54.6875 
L 36.8125 54.6875 
L 36.8125 47.703125 
L 18.3125 47.703125 
L 18.3125 18.015625 
Q 18.3125 11.328125 20.140625 9.421875 
Q 21.96875 7.515625 27.59375 7.515625 
L 36.8125 7.515625 
L 36.8125 0 
L 27.59375 0 
Q 17.1875 0 13.234375 3.875 
Q 9.28125 7.765625 9.28125 18.015625 
L 9.28125 47.703125 
L 2.6875 47.703125 
L 2.6875 54.6875 
L 9.28125 54.6875 
L 9.28125 70.21875 
z
" id="DejaVuSans-116"/>
       <path d="M 8.5 21.578125 
L 8.5 54.6875 
L 17.484375 54.6875 
L 17.484375 21.921875 
Q 17.484375 14.15625 20.5 10.265625 
Q 23.53125 6.390625 29.59375 6.390625 
Q 36.859375 6.390625 41.078125 11.03125 
Q 45.3125 15.671875 45.3125 23.6875 
L 45.3125 54.6875 
L 54.296875 54.6875 
L 54.296875 0 
L 45.3125 0 
L 45.3125 8.40625 
Q 42.046875 3.421875 37.71875 1 
Q 33.40625 -1.421875 27.6875 -1.421875 
Q 18.265625 -1.421875 13.375 4.4375 
Q 8.5 10.296875 8.5 21.578125 
z
M 31.109375 56 
z
" id="DejaVuSans-117"/>
      </defs>
      <use xlink:href="#DejaVuSans-78"/>
      <use x="74.804688" xlink:href="#DejaVuSans-111"/>
      <use x="135.986328" xlink:href="#DejaVuSans-114"/>
      <use x="175.349609" xlink:href="#DejaVuSans-109"/>
      <use x="272.761719" xlink:href="#DejaVuSans-97"/>
      <use x="334.041016" xlink:href="#DejaVuSans-108"/>
      <use x="361.824219" xlink:href="#DejaVuSans-105"/>
      <use x="389.607422" xlink:href="#DejaVuSans-122"/>
      <use x="442.097656" xlink:href="#DejaVuSans-101"/>
      <use x="503.621094" xlink:href="#DejaVuSans-100"/>
      <use x="567.097656" xlink:href="#DejaVuSans-32"/>
      <use x="598.884766" xlink:href="#DejaVuSans-115"/>
      <use x="650.984375" xlink:href="#DejaVuSans-102"/>
      <use x="686.189453" xlink:href="#DejaVuSans-32"/>
      <use x="717.976562" xlink:href="#DejaVuSans-97"/>
      <use x="779.255859" xlink:href="#DejaVuSans-109"/>
      <use x="876.667969" xlink:href="#DejaVuSans-112"/>
      <use x="940.144531" xlink:href="#DejaVuSans-108"/>
      <use x="967.927734" xlink:href="#DejaVuSans-105"/>
      <use x="995.710938" xlink:href="#DejaVuSans-116"/>
      <use x="1034.919922" xlink:href="#DejaVuSans-117"/>
      <use x="1098.298828" xlink:href="#DejaVuSans-100"/>
      <use x="1161.775391" xlink:href="#DejaVuSans-101"/>
     </g>
    </g>
   </g>
   <g id="matplotlib.axis_2">
    <g id="ytick_1">
     <g id="line2d_7">
      <defs>
       <path d="M 0 0 
L -3.5 0 
" id="m645e5eec5a" style="stroke:#000000;stroke-width:0.8;"/>
      </defs>
      <g>
       <use style="stroke:#000000;stroke-width:0.8;" x="144" xlink:href="#m645e5eec5a" y="252"/>
      </g>
     </g>
     <g id="text_8">
      <!-- 0.0 -->
      <g transform="translate(111.555 258.07875)scale(0.16 -0.16)">
       <defs>
        <path d="M 10.6875 12.40625 
L 21 12.40625 
L 21 0 
L 10.6875 0 
z
" id="DejaVuSans-46"/>
       </defs>
       <use xlink:href="#DejaVuSans-48"/>
       <use x="63.623047" xlink:href="#DejaVuSans-46"/>
       <use x="95.410156" xlink:href="#DejaVuSans-48"/>
      </g>
     </g>
    </g>
    <g id="ytick_2">
     <g id="line2d_8">
      <g>
       <use style="stroke:#000000;stroke-width:0.8;" x="144" xlink:href="#m645e5eec5a" y="200.091309"/>
      </g>
     </g>
     <g id="text_9">
      <!-- 0.2 -->
      <g transform="translate(111.555 206.170059)scale(0.16 -0.16)">
       <use xlink:href="#DejaVuSans-48"/>
       <use x="63.623047" xlink:href="#DejaVuSans-46"/>
       <use x="95.410156" xlink:href="#DejaVuSans-50"/>
      </g>
     </g>
    </g>
    <g id="ytick_3">
     <g id="line2d_9">
      <g>
       <use style="stroke:#000000;stroke-width:0.8;" x="144" xlink:href="#m645e5eec5a" y="148.182619"/>
      </g>
     </g>
     <g id="text_10">
      <!-- 0.4 -->
      <g transform="translate(111.555 154.261369)scale(0.16 -0.16)">
       <use xlink:href="#DejaVuSans-48"/>
       <use x="63.623047" xlink:href="#DejaVuSans-46"/>
       <use x="95.410156" xlink:href="#DejaVuSans-52"/>
      </g>
     </g>
    </g>
    <g id="ytick_4">
     <g id="line2d_10">
      <g>
       <use style="stroke:#000000;stroke-width:0.8;" x="144" xlink:href="#m645e5eec5a" y="96.273928"/>
      </g>
     </g>
     <g id="text_11">
      <!-- 0.6 -->
      <g transform="translate(111.555 102.352678)scale(0.16 -0.16)">
       <defs>
        <path d="M 33.015625 40.375 
Q 26.375 40.375 22.484375 35.828125 
Q 18.609375 31.296875 18.609375 23.390625 
Q 18.609375 15.53125 22.484375 10.953125 
Q 26.375 6.390625 33.015625 6.390625 
Q 39.65625 6.390625 43.53125 10.953125 
Q 47.40625 15.53125 47.40625 23.390625 
Q 47.40625 31.296875 43.53125 35.828125 
Q 39.65625 40.375 33.015625 40.375 
z
M 52.59375 71.296875 
L 52.59375 62.3125 
Q 48.875 64.0625 45.09375 64.984375 
Q 41.3125 65.921875 37.59375 65.921875 
Q 27.828125 65.921875 22.671875 59.328125 
Q 17.53125 52.734375 16.796875 39.40625 
Q 19.671875 43.65625 24.015625 45.921875 
Q 28.375 48.1875 33.59375 48.1875 
Q 44.578125 48.1875 50.953125 41.515625 
Q 57.328125 34.859375 57.328125 23.390625 
Q 57.328125 12.15625 50.6875 5.359375 
Q 44.046875 -1.421875 33.015625 -1.421875 
Q 20.359375 -1.421875 13.671875 8.265625 
Q 6.984375 17.96875 6.984375 36.375 
Q 6.984375 53.65625 15.1875 63.9375 
Q 23.390625 74.21875 37.203125 74.21875 
Q 40.921875 74.21875 44.703125 73.484375 
Q 48.484375 72.75 52.59375 71.296875 
z
" id="DejaVuSans-54"/>
       </defs>
       <use xlink:href="#DejaVuSans-48"/>
       <use x="63.623047" xlink:href="#DejaVuSans-46"/>
       <use x="95.410156" xlink:href="#DejaVuSans-54"/>
      </g>
     </g>
    </g>
    <g id="ytick_5">
     <g id="line2d_11">
      <g>
       <use style="stroke:#000000;stroke-width:0.8;" x="144" xlink:href="#m645e5eec5a" y="44.365237"/>
      </g>
     </g>
     <g id="text_12">
      <!-- 0.8 -->
      <g transform="translate(111.555 50.443987)scale(0.16 -0.16)">
       <defs>
        <path d="M 31.78125 34.625 
Q 24.75 34.625 20.71875 30.859375 
Q 16.703125 27.09375 16.703125 20.515625 
Q 16.703125 13.921875 20.71875 10.15625 
Q 24.75 6.390625 31.78125 6.390625 
Q 38.8125 6.390625 42.859375 10.171875 
Q 46.921875 13.96875 46.921875 20.515625 
Q 46.921875 27.09375 42.890625 30.859375 
Q 38.875 34.625 31.78125 34.625 
z
M 21.921875 38.8125 
Q 15.578125 40.375 12.03125 44.71875 
Q 8.5 49.078125 8.5 55.328125 
Q 8.5 64.0625 14.71875 69.140625 
Q 20.953125 74.21875 31.78125 74.21875 
Q 42.671875 74.21875 48.875 69.140625 
Q 55.078125 64.0625 55.078125 55.328125 
Q 55.078125 49.078125 51.53125 44.71875 
Q 48 40.375 41.703125 38.8125 
Q 48.828125 37.15625 52.796875 32.3125 
Q 56.78125 27.484375 56.78125 20.515625 
Q 56.78125 9.90625 50.3125 4.234375 
Q 43.84375 -1.421875 31.78125 -1.421875 
Q 19.734375 -1.421875 13.25 4.234375 
Q 6.78125 9.90625 6.78125 20.515625 
Q 6.78125 27.484375 10.78125 32.3125 
Q 14.796875 37.15625 21.921875 38.8125 
z
M 18.3125 54.390625 
Q 18.3125 48.734375 21.84375 45.5625 
Q 25.390625 42.390625 31.78125 42.390625 
Q 38.140625 42.390625 41.71875 45.5625 
Q 45.3125 48.734375 45.3125 54.390625 
Q 45.3125 60.0625 41.71875 63.234375 
Q 38.140625 66.40625 31.78125 66.40625 
Q 25.390625 66.40625 21.84375 63.234375 
Q 18.3125 60.0625 18.3125 54.390625 
z
" id="DejaVuSans-56"/>
       </defs>
       <use xlink:href="#DejaVuSans-48"/>
       <use x="63.623047" xlink:href="#DejaVuSans-46"/>
       <use x="95.410156" xlink:href="#DejaVuSans-56"/>
      </g>
     </g>
    </g>
    <g id="text_13">
     <!-- count -->
     <g transform="translate(104.2275 165.85)rotate(-90)scale(0.16 -0.16)">
      <defs>
       <path d="M 48.78125 52.59375 
L 48.78125 44.1875 
Q 44.96875 46.296875 41.140625 47.34375 
Q 37.3125 48.390625 33.40625 48.390625 
Q 24.65625 48.390625 19.8125 42.84375 
Q 14.984375 37.3125 14.984375 27.296875 
Q 14.984375 17.28125 19.8125 11.734375 
Q 24.65625 6.203125 33.40625 6.203125 
Q 37.3125 6.203125 41.140625 7.25 
Q 44.96875 8.296875 48.78125 10.40625 
L 48.78125 2.09375 
Q 45.015625 0.34375 40.984375 -0.53125 
Q 36.96875 -1.421875 32.421875 -1.421875 
Q 20.0625 -1.421875 12.78125 6.34375 
Q 5.515625 14.109375 5.515625 27.296875 
Q 5.515625 40.671875 12.859375 48.328125 
Q 20.21875 56 33.015625 56 
Q 37.15625 56 41.109375 55.140625 
Q 45.0625 54.296875 48.78125 52.59375 
z
" id="DejaVuSans-99"/>
       <path d="M 54.890625 33.015625 
L 54.890625 0 
L 45.90625 0 
L 45.90625 32.71875 
Q 45.90625 40.484375 42.875 44.328125 
Q 39.84375 48.1875 33.796875 48.1875 
Q 26.515625 48.1875 22.3125 43.546875 
Q 18.109375 38.921875 18.109375 30.90625 
L 18.109375 0 
L 9.078125 0 
L 9.078125 54.6875 
L 18.109375 54.6875 
L 18.109375 46.1875 
Q 21.34375 51.125 25.703125 53.5625 
Q 30.078125 56 35.796875 56 
Q 45.21875 56 50.046875 50.171875 
Q 54.890625 44.34375 54.890625 33.015625 
z
" id="DejaVuSans-110"/>
      </defs>
      <use xlink:href="#DejaVuSans-99"/>
      <use x="54.980469" xlink:href="#DejaVuSans-111"/>
      <use x="116.162109" xlink:href="#DejaVuSans-117"/>
      <use x="179.541016" xlink:href="#DejaVuSans-110"/>
      <use x="242.919922" xlink:href="#DejaVuSans-116"/>
     </g>
    </g>
   </g>
   <g id="line2d_12">
    <path clip-path="url(#p39de724eb3)" d="M 144 44.914286 
L 145.683933 45.020712 
L 147.367865 45.339661 
L 149.051798 45.870152 
L 150.73573 46.610553 
L 152.419663 47.55859 
L 154.524579 49.031145 
L 156.629494 50.816538 
L 158.73441 52.906311 
L 160.839326 55.290628 
L 163.365225 58.524842 
L 165.891123 62.145568 
L 168.417022 66.128997 
L 171.363904 71.200197 
L 174.731769 77.500719 
L 178.099635 84.272867 
L 182.309466 93.29016 
L 186.940281 103.754591 
L 193.255028 118.60331 
L 207.568455 152.458616 
L 213.041235 164.729914 
L 217.67205 174.583418 
L 221.881881 183.03916 
L 225.67073 190.197187 
L 229.459578 196.899755 
L 233.248426 203.130443 
L 236.616291 208.266301 
L 239.984157 213.023035 
L 243.352022 217.404962 
L 246.719887 221.420274 
L 250.087752 225.080476 
L 253.455617 228.399829 
L 256.823482 231.394796 
L 260.191347 234.083521 
L 263.559213 236.485334 
L 266.927078 238.620306 
L 270.294943 240.508839 
L 274.083791 242.364228 
L 277.872639 243.961986 
L 281.661488 245.329621 
L 285.871319 246.611084 
L 290.502134 247.769768 
L 295.553931 248.780281 
L 301.026712 249.629401 
L 306.920476 250.31579 
L 313.656207 250.877909 
L 321.654886 251.321872 
L 331.758482 251.652752 
L 345.650925 251.869768 
L 354.070588 251.93053 
L 354.070588 251.93053 
" style="fill:none;stroke:#ff0000;stroke-linecap:square;stroke-width:1.5;"/>
   </g>
   <g id="patch_23">
    <path d="M 144 252 
L 144 34.56 
" style="fill:none;stroke:#000000;stroke-linecap:square;stroke-linejoin:miter;stroke-width:0.8;"/>
   </g>
   <g id="patch_24">
    <path d="M 406.588235 252 
L 406.588235 34.56 
" style="fill:none;stroke:#000000;stroke-linecap:square;stroke-linejoin:miter;stroke-width:0.8;"/>
   </g>
   <g id="patch_25">
    <path d="M 144 252 
L 406.588235 252 
" style="fill:none;stroke:#000000;stroke-linecap:square;stroke-linejoin:miter;stroke-width:0.8;"/>
   </g>
   <g id="patch_26">
    <path d="M 144 34.56 
L 406.588235 34.56 
" style="fill:none;stroke:#000000;stroke-linecap:square;stroke-linejoin:miter;stroke-width:0.8;"/>
   </g>
   <g id="text_14">
    <!-- Centric -->
    <g transform="translate(240.944118 28.56)scale(0.192 -0.192)">
     <defs>
      <path d="M 64.40625 67.28125 
L 64.40625 56.890625 
Q 59.421875 61.53125 53.78125 63.8125 
Q 48.140625 66.109375 41.796875 66.109375 
Q 29.296875 66.109375 22.65625 58.46875 
Q 16.015625 50.828125 16.015625 36.375 
Q 16.015625 21.96875 22.65625 14.328125 
Q 29.296875 6.6875 41.796875 6.6875 
Q 48.140625 6.6875 53.78125 8.984375 
Q 59.421875 11.28125 64.40625 15.921875 
L 64.40625 5.609375 
Q 59.234375 2.09375 53.4375 0.328125 
Q 47.65625 -1.421875 41.21875 -1.421875 
Q 24.65625 -1.421875 15.125 8.703125 
Q 5.609375 18.84375 5.609375 36.375 
Q 5.609375 53.953125 15.125 64.078125 
Q 24.65625 74.21875 41.21875 74.21875 
Q 47.75 74.21875 53.53125 72.484375 
Q 59.328125 70.75 64.40625 67.28125 
z
" id="DejaVuSans-67"/>
     </defs>
     <use xlink:href="#DejaVuSans-67"/>
     <use x="69.824219" xlink:href="#DejaVuSans-101"/>
     <use x="131.347656" xlink:href="#DejaVuSans-110"/>
     <use x="194.726562" xlink:href="#DejaVuSans-116"/>
     <use x="233.935547" xlink:href="#DejaVuSans-114"/>
     <use x="275.048828" xlink:href="#DejaVuSans-105"/>
     <use x="302.832031" xlink:href="#DejaVuSans-99"/>
    </g>
   </g>
  </g>
  <g id="axes_2">
   <g id="patch_27">
    <path d="M 459.105882 252 
L 721.694118 252 
L 721.694118 34.56 
L 459.105882 34.56 
z
" style="fill:#ffffff;"/>
   </g>
   <g id="patch_28">
    <path clip-path="url(#p691cc4b9d4)" d="M 459.969181 252 
L 463.915418 252 
L 463.915418 244.361912 
L 459.969181 244.361912 
z
" style="fill:#1f77b4;opacity:0.5;"/>
   </g>
   <g id="patch_29">
    <path clip-path="url(#p691cc4b9d4)" d="M 463.915418 252 
L 467.861656 252 
L 467.861656 219.966794 
L 463.915418 219.966794 
z
" style="fill:#1f77b4;opacity:0.5;"/>
   </g>
   <g id="patch_30">
    <path clip-path="url(#p691cc4b9d4)" d="M 467.861656 252 
L 471.807894 252 
L 471.807894 180.996957 
L 467.861656 180.996957 
z
" style="fill:#1f77b4;opacity:0.5;"/>
   </g>
   <g id="patch_31">
    <path clip-path="url(#p691cc4b9d4)" d="M 471.807894 252 
L 475.754131 252 
L 475.754131 144.521189 
L 471.807894 144.521189 
z
" style="fill:#1f77b4;opacity:0.5;"/>
   </g>
   <g id="patch_32">
    <path clip-path="url(#p691cc4b9d4)" d="M 475.754131 252 
L 479.700369 252 
L 479.700369 122.464262 
L 475.754131 122.464262 
z
" style="fill:#1f77b4;opacity:0.5;"/>
   </g>
   <g id="patch_33">
    <path clip-path="url(#p691cc4b9d4)" d="M 479.700369 252 
L 483.646607 252 
L 483.646607 95.808893 
L 479.700369 95.808893 
z
" style="fill:#1f77b4;opacity:0.5;"/>
   </g>
   <g id="patch_34">
    <path clip-path="url(#p691cc4b9d4)" d="M 483.646607 252 
L 487.592845 252 
L 487.592845 75.544578 
L 483.646607 75.544578 
z
" style="fill:#1f77b4;opacity:0.5;"/>
   </g>
   <g id="patch_35">
    <path clip-path="url(#p691cc4b9d4)" d="M 487.592845 252 
L 491.539082 252 
L 491.539082 61.905135 
L 487.592845 61.905135 
z
" style="fill:#1f77b4;opacity:0.5;"/>
   </g>
   <g id="patch_36">
    <path clip-path="url(#p691cc4b9d4)" d="M 491.539082 252 
L 495.48532 252 
L 495.48532 55.669961 
L 491.539082 55.669961 
z
" style="fill:#1f77b4;opacity:0.5;"/>
   </g>
   <g id="patch_37">
    <path clip-path="url(#p691cc4b9d4)" d="M 495.48532 252 
L 499.431558 252 
L 499.431558 44.914286 
L 495.48532 44.914286 
z
" style="fill:#1f77b4;opacity:0.5;"/>
   </g>
   <g id="patch_38">
    <path clip-path="url(#p691cc4b9d4)" d="M 499.431558 252 
L 503.377795 252 
L 503.377795 56.293478 
L 499.431558 56.293478 
z
" style="fill:#1f77b4;opacity:0.5;"/>
   </g>
   <g id="patch_39">
    <path clip-path="url(#p691cc4b9d4)" d="M 503.377795 252 
L 507.324033 252 
L 507.324033 64.009506 
L 503.377795 64.009506 
z
" style="fill:#1f77b4;opacity:0.5;"/>
   </g>
   <g id="patch_40">
    <path clip-path="url(#p691cc4b9d4)" d="M 507.324033 252 
L 511.270271 252 
L 511.270271 71.257896 
L 507.324033 71.257896 
z
" style="fill:#1f77b4;opacity:0.5;"/>
   </g>
   <g id="patch_41">
    <path clip-path="url(#p691cc4b9d4)" d="M 511.270271 252 
L 515.216509 252 
L 515.216509 94.639798 
L 511.270271 94.639798 
z
" style="fill:#1f77b4;opacity:0.5;"/>
   </g>
   <g id="patch_42">
    <path clip-path="url(#p691cc4b9d4)" d="M 515.216509 252 
L 519.162746 252 
L 519.162746 103.057283 
L 515.216509 103.057283 
z
" style="fill:#1f77b4;opacity:0.5;"/>
   </g>
   <g id="patch_43">
    <path clip-path="url(#p691cc4b9d4)" d="M 519.162746 252 
L 523.108984 252 
L 523.108984 117.865821 
L 519.162746 117.865821 
z
" style="fill:#1f77b4;opacity:0.5;"/>
   </g>
   <g id="patch_44">
    <path clip-path="url(#p691cc4b9d4)" d="M 523.108984 252 
L 527.055222 252 
L 527.055222 136.649282 
L 523.108984 136.649282 
z
" style="fill:#1f77b4;opacity:0.5;"/>
   </g>
   <g id="patch_45">
    <path clip-path="url(#p691cc4b9d4)" d="M 527.055222 252 
L 531.00146 252 
L 531.00146 157.459175 
L 527.055222 157.459175 
z
" style="fill:#1f77b4;opacity:0.5;"/>
   </g>
   <g id="patch_46">
    <path clip-path="url(#p691cc4b9d4)" d="M 531.00146 252 
L 534.947697 252 
L 534.947697 164.161987 
L 531.00146 164.161987 
z
" style="fill:#1f77b4;opacity:0.5;"/>
   </g>
   <g id="patch_47">
    <path clip-path="url(#p691cc4b9d4)" d="M 534.947697 252 
L 538.893935 252 
L 538.893935 182.088112 
L 534.947697 182.088112 
z
" style="fill:#1f77b4;opacity:0.5;"/>
   </g>
   <g id="patch_48">
    <path clip-path="url(#p691cc4b9d4)" d="M 538.893935 252 
L 542.840173 252 
L 542.840173 190.505597 
L 538.893935 190.505597 
z
" style="fill:#1f77b4;opacity:0.5;"/>
   </g>
   <g id="patch_49">
    <path clip-path="url(#p691cc4b9d4)" d="M 542.840173 252 
L 546.78641 252 
L 546.78641 204.534738 
L 542.840173 204.534738 
z
" style="fill:#1f77b4;opacity:0.5;"/>
   </g>
   <g id="patch_50">
    <path clip-path="url(#p691cc4b9d4)" d="M 546.78641 252 
L 550.732648 252 
L 550.732648 210.614033 
L 546.78641 210.614033 
z
" style="fill:#1f77b4;opacity:0.5;"/>
   </g>
   <g id="patch_51">
    <path clip-path="url(#p691cc4b9d4)" d="M 550.732648 252 
L 554.678886 252 
L 554.678886 219.577096 
L 550.732648 219.577096 
z
" style="fill:#1f77b4;opacity:0.5;"/>
   </g>
   <g id="patch_52">
    <path clip-path="url(#p691cc4b9d4)" d="M 554.678886 252 
L 558.625124 252 
L 558.625124 227.449003 
L 554.678886 227.449003 
z
" style="fill:#1f77b4;opacity:0.5;"/>
   </g>
   <g id="patch_53">
    <path clip-path="url(#p691cc4b9d4)" d="M 558.625124 252 
L 562.571361 252 
L 562.571361 231.112167 
L 558.625124 231.112167 
z
" style="fill:#1f77b4;opacity:0.5;"/>
   </g>
   <g id="patch_54">
    <path clip-path="url(#p691cc4b9d4)" d="M 562.571361 252 
L 566.517599 252 
L 566.517599 238.906135 
L 562.571361 238.906135 
z
" style="fill:#1f77b4;opacity:0.5;"/>
   </g>
   <g id="patch_55">
    <path clip-path="url(#p691cc4b9d4)" d="M 566.517599 252 
L 570.463837 252 
L 570.463837 242.101661 
L 566.517599 242.101661 
z
" style="fill:#1f77b4;opacity:0.5;"/>
   </g>
   <g id="patch_56">
    <path clip-path="url(#p691cc4b9d4)" d="M 570.463837 252 
L 574.410074 252 
L 574.410074 242.41342 
L 570.463837 242.41342 
z
" style="fill:#1f77b4;opacity:0.5;"/>
   </g>
   <g id="patch_57">
    <path clip-path="url(#p691cc4b9d4)" d="M 574.410074 252 
L 578.356312 252 
L 578.356312 246.076585 
L 574.410074 246.076585 
z
" style="fill:#1f77b4;opacity:0.5;"/>
   </g>
   <g id="patch_58">
    <path clip-path="url(#p691cc4b9d4)" d="M 578.356312 252 
L 582.30255 252 
L 582.30255 247.24568 
L 578.356312 247.24568 
z
" style="fill:#1f77b4;opacity:0.5;"/>
   </g>
   <g id="patch_59">
    <path clip-path="url(#p691cc4b9d4)" d="M 582.30255 252 
L 586.248788 252 
L 586.248788 248.648594 
L 582.30255 248.648594 
z
" style="fill:#1f77b4;opacity:0.5;"/>
   </g>
   <g id="patch_60">
    <path clip-path="url(#p691cc4b9d4)" d="M 586.248788 252 
L 590.195025 252 
L 590.195025 250.051508 
L 586.248788 250.051508 
z
" style="fill:#1f77b4;opacity:0.5;"/>
   </g>
   <g id="patch_61">
    <path clip-path="url(#p691cc4b9d4)" d="M 590.195025 252 
L 594.141263 252 
L 594.141263 250.675026 
L 590.195025 250.675026 
z
" style="fill:#1f77b4;opacity:0.5;"/>
   </g>
   <g id="patch_62">
    <path clip-path="url(#p691cc4b9d4)" d="M 594.141263 252 
L 598.087501 252 
L 598.087501 251.142664 
L 594.141263 251.142664 
z
" style="fill:#1f77b4;opacity:0.5;"/>
   </g>
   <g id="patch_63">
    <path clip-path="url(#p691cc4b9d4)" d="M 598.087501 252 
L 602.033738 252 
L 602.033738 251.298543 
L 598.087501 251.298543 
z
" style="fill:#1f77b4;opacity:0.5;"/>
   </g>
   <g id="patch_64">
    <path clip-path="url(#p691cc4b9d4)" d="M 602.033738 252 
L 605.979976 252 
L 605.979976 251.688241 
L 602.033738 251.688241 
z
" style="fill:#1f77b4;opacity:0.5;"/>
   </g>
   <g id="patch_65">
    <path clip-path="url(#p691cc4b9d4)" d="M 605.979976 252 
L 609.926214 252 
L 609.926214 251.610302 
L 605.979976 251.610302 
z
" style="fill:#1f77b4;opacity:0.5;"/>
   </g>
   <g id="patch_66">
    <path clip-path="url(#p691cc4b9d4)" d="M 609.926214 252 
L 613.872452 252 
L 613.872452 251.766181 
L 609.926214 251.766181 
z
" style="fill:#1f77b4;opacity:0.5;"/>
   </g>
   <g id="patch_67">
    <path clip-path="url(#p691cc4b9d4)" d="M 613.872452 252 
L 617.818689 252 
L 617.818689 251.92206 
L 613.872452 251.92206 
z
" style="fill:#1f77b4;opacity:0.5;"/>
   </g>
   <g id="matplotlib.axis_3">
    <g id="xtick_7">
     <g id="line2d_13">
      <g>
       <use style="stroke:#000000;stroke-width:0.8;" x="459.105882" xlink:href="#ma013905605" y="252"/>
      </g>
     </g>
     <g id="text_15">
      <!-- 0 -->
      <g transform="translate(454.015882 271.1575)scale(0.16 -0.16)">
       <use xlink:href="#DejaVuSans-48"/>
      </g>
     </g>
    </g>
    <g id="xtick_8">
     <g id="line2d_14">
      <g>
       <use style="stroke:#000000;stroke-width:0.8;" x="511.623529" xlink:href="#ma013905605" y="252"/>
      </g>
     </g>
     <g id="text_16">
      <!-- 1 -->
      <g transform="translate(506.533529 271.1575)scale(0.16 -0.16)">
       <use xlink:href="#DejaVuSans-49"/>
      </g>
     </g>
    </g>
    <g id="xtick_9">
     <g id="line2d_15">
      <g>
       <use style="stroke:#000000;stroke-width:0.8;" x="564.141176" xlink:href="#ma013905605" y="252"/>
      </g>
     </g>
     <g id="text_17">
      <!-- 2 -->
      <g transform="translate(559.051176 271.1575)scale(0.16 -0.16)">
       <use xlink:href="#DejaVuSans-50"/>
      </g>
     </g>
    </g>
    <g id="xtick_10">
     <g id="line2d_16">
      <g>
       <use style="stroke:#000000;stroke-width:0.8;" x="616.658824" xlink:href="#ma013905605" y="252"/>
      </g>
     </g>
     <g id="text_18">
      <!-- 3 -->
      <g transform="translate(611.568824 271.1575)scale(0.16 -0.16)">
       <use xlink:href="#DejaVuSans-51"/>
      </g>
     </g>
    </g>
    <g id="xtick_11">
     <g id="line2d_17">
      <g>
       <use style="stroke:#000000;stroke-width:0.8;" x="669.176471" xlink:href="#ma013905605" y="252"/>
      </g>
     </g>
     <g id="text_19">
      <!-- 4 -->
      <g transform="translate(664.086471 271.1575)scale(0.16 -0.16)">
       <use xlink:href="#DejaVuSans-52"/>
      </g>
     </g>
    </g>
    <g id="xtick_12">
     <g id="line2d_18">
      <g>
       <use style="stroke:#000000;stroke-width:0.8;" x="721.694118" xlink:href="#ma013905605" y="252"/>
      </g>
     </g>
     <g id="text_20">
      <!-- 5 -->
      <g transform="translate(716.604118 271.1575)scale(0.16 -0.16)">
       <use xlink:href="#DejaVuSans-53"/>
      </g>
     </g>
    </g>
    <g id="text_21">
     <!-- Normalized sf amplitude -->
     <g transform="translate(492.53625 290.6425)scale(0.16 -0.16)">
      <use xlink:href="#DejaVuSans-78"/>
      <use x="74.804688" xlink:href="#DejaVuSans-111"/>
      <use x="135.986328" xlink:href="#DejaVuSans-114"/>
      <use x="175.349609" xlink:href="#DejaVuSans-109"/>
      <use x="272.761719" xlink:href="#DejaVuSans-97"/>
      <use x="334.041016" xlink:href="#DejaVuSans-108"/>
      <use x="361.824219" xlink:href="#DejaVuSans-105"/>
      <use x="389.607422" xlink:href="#DejaVuSans-122"/>
      <use x="442.097656" xlink:href="#DejaVuSans-101"/>
      <use x="503.621094" xlink:href="#DejaVuSans-100"/>
      <use x="567.097656" xlink:href="#DejaVuSans-32"/>
      <use x="598.884766" xlink:href="#DejaVuSans-115"/>
      <use x="650.984375" xlink:href="#DejaVuSans-102"/>
      <use x="686.189453" xlink:href="#DejaVuSans-32"/>
      <use x="717.976562" xlink:href="#DejaVuSans-97"/>
      <use x="779.255859" xlink:href="#DejaVuSans-109"/>
      <use x="876.667969" xlink:href="#DejaVuSans-112"/>
      <use x="940.144531" xlink:href="#DejaVuSans-108"/>
      <use x="967.927734" xlink:href="#DejaVuSans-105"/>
      <use x="995.710938" xlink:href="#DejaVuSans-116"/>
      <use x="1034.919922" xlink:href="#DejaVuSans-117"/>
      <use x="1098.298828" xlink:href="#DejaVuSans-100"/>
      <use x="1161.775391" xlink:href="#DejaVuSans-101"/>
     </g>
    </g>
   </g>
   <g id="matplotlib.axis_4">
    <g id="ytick_6">
     <g id="line2d_19">
      <g>
       <use style="stroke:#000000;stroke-width:0.8;" x="459.105882" xlink:href="#m645e5eec5a" y="252"/>
      </g>
     </g>
     <g id="text_22">
      <!-- 0.0 -->
      <g transform="translate(426.660882 258.07875)scale(0.16 -0.16)">
       <use xlink:href="#DejaVuSans-48"/>
       <use x="63.623047" xlink:href="#DejaVuSans-46"/>
       <use x="95.410156" xlink:href="#DejaVuSans-48"/>
      </g>
     </g>
    </g>
    <g id="ytick_7">
     <g id="line2d_20">
      <g>
       <use style="stroke:#000000;stroke-width:0.8;" x="459.105882" xlink:href="#m645e5eec5a" y="208.011988"/>
      </g>
     </g>
     <g id="text_23">
      <!-- 0.2 -->
      <g transform="translate(426.660882 214.090738)scale(0.16 -0.16)">
       <use xlink:href="#DejaVuSans-48"/>
       <use x="63.623047" xlink:href="#DejaVuSans-46"/>
       <use x="95.410156" xlink:href="#DejaVuSans-50"/>
      </g>
     </g>
    </g>
    <g id="ytick_8">
     <g id="line2d_21">
      <g>
       <use style="stroke:#000000;stroke-width:0.8;" x="459.105882" xlink:href="#m645e5eec5a" y="164.023977"/>
      </g>
     </g>
     <g id="text_24">
      <!-- 0.4 -->
      <g transform="translate(426.660882 170.102727)scale(0.16 -0.16)">
       <use xlink:href="#DejaVuSans-48"/>
       <use x="63.623047" xlink:href="#DejaVuSans-46"/>
       <use x="95.410156" xlink:href="#DejaVuSans-52"/>
      </g>
     </g>
    </g>
    <g id="ytick_9">
     <g id="line2d_22">
      <g>
       <use style="stroke:#000000;stroke-width:0.8;" x="459.105882" xlink:href="#m645e5eec5a" y="120.035965"/>
      </g>
     </g>
     <g id="text_25">
      <!-- 0.6 -->
      <g transform="translate(426.660882 126.114715)scale(0.16 -0.16)">
       <use xlink:href="#DejaVuSans-48"/>
       <use x="63.623047" xlink:href="#DejaVuSans-46"/>
       <use x="95.410156" xlink:href="#DejaVuSans-54"/>
      </g>
     </g>
    </g>
    <g id="ytick_10">
     <g id="line2d_23">
      <g>
       <use style="stroke:#000000;stroke-width:0.8;" x="459.105882" xlink:href="#m645e5eec5a" y="76.047954"/>
      </g>
     </g>
     <g id="text_26">
      <!-- 0.8 -->
      <g transform="translate(426.660882 82.126704)scale(0.16 -0.16)">
       <use xlink:href="#DejaVuSans-48"/>
       <use x="63.623047" xlink:href="#DejaVuSans-46"/>
       <use x="95.410156" xlink:href="#DejaVuSans-56"/>
      </g>
     </g>
    </g>
    <g id="text_27">
     <!-- count -->
     <g transform="translate(419.333382 165.85)rotate(-90)scale(0.16 -0.16)">
      <use xlink:href="#DejaVuSans-99"/>
      <use x="54.980469" xlink:href="#DejaVuSans-111"/>
      <use x="116.162109" xlink:href="#DejaVuSans-117"/>
      <use x="179.541016" xlink:href="#DejaVuSans-110"/>
      <use x="242.919922" xlink:href="#DejaVuSans-116"/>
     </g>
    </g>
   </g>
   <g id="line2d_24">
    <path clip-path="url(#p691cc4b9d4)" d="M 459.105882 252 
L 465.841613 196.502971 
L 469.209478 170.448688 
L 472.15636 149.236838 
L 474.682259 132.520969 
L 477.208157 117.363327 
L 479.313073 106.038352 
L 481.417989 95.979854 
L 483.101921 88.882384 
L 484.785854 82.650451 
L 486.469787 77.296036 
L 488.153719 72.82365 
L 489.416669 70.046799 
L 490.679618 67.760918 
L 491.942567 65.960107 
L 493.205517 64.636425 
L 494.047483 64.014241 
L 494.889449 63.596378 
L 495.731416 63.379112 
L 496.573382 63.358387 
L 497.415348 63.529841 
L 498.257315 63.888818 
L 499.099281 64.430389 
L 500.36223 65.573707 
L 501.62518 67.097678 
L 502.888129 68.982795 
L 504.151079 71.208657 
L 505.835011 74.669889 
L 507.518944 78.647545 
L 509.623859 84.265102 
L 511.728775 90.502091 
L 514.254674 98.656978 
L 517.622539 110.378307 
L 522.674337 128.979413 
L 530.252033 156.907358 
L 534.040882 170.053832 
L 537.408747 180.983663 
L 540.355629 189.8606 
L 543.302511 198.040322 
L 545.82841 204.474502 
L 548.354309 210.370024 
L 550.880207 215.731601 
L 553.406106 220.572326 
L 555.932005 224.912113 
L 558.457904 228.776209 
L 560.983803 232.193806 
L 563.509702 235.196775 
L 566.035601 237.818547 
L 568.561499 240.093143 
L 571.087398 242.054355 
L 573.613297 243.735083 
L 576.139196 245.166812 
L 579.086078 246.561934 
L 582.03296 247.701977 
L 585.400825 248.742814 
L 588.76869 249.553555 
L 592.557539 250.245834 
L 597.188353 250.849492 
L 602.661134 251.31598 
L 609.396864 251.650599 
L 618.658493 251.86895 
L 634.23487 251.978272 
L 669.176471 251.999802 
L 669.176471 251.999802 
" style="fill:none;stroke:#ff0000;stroke-linecap:square;stroke-width:1.5;"/>
   </g>
   <g id="patch_68">
    <path d="M 459.105882 252 
L 459.105882 34.56 
" style="fill:none;stroke:#000000;stroke-linecap:square;stroke-linejoin:miter;stroke-width:0.8;"/>
   </g>
   <g id="patch_69">
    <path d="M 721.694118 252 
L 721.694118 34.56 
" style="fill:none;stroke:#000000;stroke-linecap:square;stroke-linejoin:miter;stroke-width:0.8;"/>
   </g>
   <g id="patch_70">
    <path d="M 459.105882 252 
L 721.694118 252 
" style="fill:none;stroke:#000000;stroke-linecap:square;stroke-linejoin:miter;stroke-width:0.8;"/>
   </g>
   <g id="patch_71">
    <path d="M 459.105882 34.56 
L 721.694118 34.56 
" style="fill:none;stroke:#000000;stroke-linecap:square;stroke-linejoin:miter;stroke-width:0.8;"/>
   </g>
   <g id="text_28">
    <!-- Acentric -->
    <g transform="translate(551.076 28.56)scale(0.192 -0.192)">
     <defs>
      <path d="M 34.1875 63.1875 
L 20.796875 26.90625 
L 47.609375 26.90625 
z
M 28.609375 72.90625 
L 39.796875 72.90625 
L 67.578125 0 
L 57.328125 0 
L 50.6875 18.703125 
L 17.828125 18.703125 
L 11.1875 0 
L 0.78125 0 
z
" id="DejaVuSans-65"/>
     </defs>
     <use xlink:href="#DejaVuSans-65"/>
     <use x="66.658203" xlink:href="#DejaVuSans-99"/>
     <use x="121.638672" xlink:href="#DejaVuSans-101"/>
     <use x="183.162109" xlink:href="#DejaVuSans-110"/>
     <use x="246.541016" xlink:href="#DejaVuSans-116"/>
     <use x="285.75" xlink:href="#DejaVuSans-114"/>
     <use x="326.863281" xlink:href="#DejaVuSans-105"/>
     <use x="354.646484" xlink:href="#DejaVuSans-99"/>
    </g>
   </g>
  </g>
  <g id="axes_3">
   <g id="patch_72">
    <path d="M 774.211765 252 
L 1036.8 252 
L 1036.8 34.56 
L 774.211765 34.56 
z
" style="fill:#ffffff;"/>
   </g>
   <g id="patch_73">
    <path clip-path="url(#p71f149ec28)" d="M 786.147594 252 
L 788.534759 252 
L 788.534759 251.382448 
L 786.147594 251.382448 
z
" style="fill:#1f77b4;"/>
   </g>
   <g id="patch_74">
    <path clip-path="url(#p71f149ec28)" d="M 788.534759 252 
L 790.921925 252 
L 790.921925 251.588299 
L 788.534759 251.588299 
z
" style="fill:#1f77b4;"/>
   </g>
   <g id="patch_75">
    <path clip-path="url(#p71f149ec28)" d="M 790.921925 252 
L 793.309091 252 
L 793.309091 251.794149 
L 790.921925 251.794149 
z
" style="fill:#1f77b4;"/>
   </g>
   <g id="patch_76">
    <path clip-path="url(#p71f149ec28)" d="M 793.309091 252 
L 795.696257 252 
L 795.696257 251.176598 
L 793.309091 251.176598 
z
" style="fill:#1f77b4;"/>
   </g>
   <g id="patch_77">
    <path clip-path="url(#p71f149ec28)" d="M 795.696257 252 
L 798.083422 252 
L 798.083422 251.176598 
L 795.696257 251.176598 
z
" style="fill:#1f77b4;"/>
   </g>
   <g id="patch_78">
    <path clip-path="url(#p71f149ec28)" d="M 798.083422 252 
L 800.470588 252 
L 800.470588 248.912241 
L 798.083422 248.912241 
z
" style="fill:#1f77b4;"/>
   </g>
   <g id="patch_79">
    <path clip-path="url(#p71f149ec28)" d="M 800.470588 252 
L 802.857754 252 
L 802.857754 238.41386 
L 800.470588 238.41386 
z
" style="fill:#1f77b4;"/>
   </g>
   <g id="patch_80">
    <path clip-path="url(#p71f149ec28)" d="M 802.857754 252 
L 805.24492 252 
L 805.24492 236.972905 
L 802.857754 236.972905 
z
" style="fill:#1f77b4;"/>
   </g>
   <g id="patch_81">
    <path clip-path="url(#p71f149ec28)" d="M 805.24492 252 
L 807.632086 252 
L 807.632086 230.385686 
L 805.24492 230.385686 
z
" style="fill:#1f77b4;"/>
   </g>
   <g id="patch_82">
    <path clip-path="url(#p71f149ec28)" d="M 807.632086 252 
L 810.019251 252 
L 810.019251 225.03357 
L 807.632086 225.03357 
z
" style="fill:#1f77b4;"/>
   </g>
   <g id="patch_83">
    <path clip-path="url(#p71f149ec28)" d="M 810.019251 252 
L 812.406417 252 
L 812.406417 215.770293 
L 810.019251 215.770293 
z
" style="fill:#1f77b4;"/>
   </g>
   <g id="patch_84">
    <path clip-path="url(#p71f149ec28)" d="M 812.406417 252 
L 814.793583 252 
L 814.793583 207.947969 
L 812.406417 207.947969 
z
" style="fill:#1f77b4;"/>
   </g>
   <g id="patch_85">
    <path clip-path="url(#p71f149ec28)" d="M 814.793583 252 
L 817.180749 252 
L 817.180749 208.977222 
L 814.793583 208.977222 
z
" style="fill:#1f77b4;"/>
   </g>
   <g id="patch_86">
    <path clip-path="url(#p71f149ec28)" d="M 817.180749 252 
L 819.567914 252 
L 819.567914 206.301164 
L 817.180749 206.301164 
z
" style="fill:#1f77b4;"/>
   </g>
   <g id="patch_87">
    <path clip-path="url(#p71f149ec28)" d="M 819.567914 252 
L 821.95508 252 
L 821.95508 209.594774 
L 819.567914 209.594774 
z
" style="fill:#1f77b4;"/>
   </g>
   <g id="patch_88">
    <path clip-path="url(#p71f149ec28)" d="M 821.95508 252 
L 824.342246 252 
L 824.342246 206.095314 
L 821.95508 206.095314 
z
" style="fill:#1f77b4;"/>
   </g>
   <g id="patch_89">
    <path clip-path="url(#p71f149ec28)" d="M 824.342246 252 
L 826.729412 252 
L 826.729412 201.36075 
L 824.342246 201.36075 
z
" style="fill:#1f77b4;"/>
   </g>
   <g id="patch_90">
    <path clip-path="url(#p71f149ec28)" d="M 826.729412 252 
L 829.116578 252 
L 829.116578 188.803863 
L 826.729412 188.803863 
z
" style="fill:#1f77b4;"/>
   </g>
   <g id="patch_91">
    <path clip-path="url(#p71f149ec28)" d="M 829.116578 252 
L 831.503743 252 
L 831.503743 186.127805 
L 829.116578 186.127805 
z
" style="fill:#1f77b4;"/>
   </g>
   <g id="patch_92">
    <path clip-path="url(#p71f149ec28)" d="M 831.503743 252 
L 833.890909 252 
L 833.890909 187.98046 
L 831.503743 187.98046 
z
" style="fill:#1f77b4;"/>
   </g>
   <g id="patch_93">
    <path clip-path="url(#p71f149ec28)" d="M 833.890909 252 
L 836.278075 252 
L 836.278075 186.951207 
L 833.890909 186.951207 
z
" style="fill:#1f77b4;"/>
   </g>
   <g id="patch_94">
    <path clip-path="url(#p71f149ec28)" d="M 836.278075 252 
L 838.665241 252 
L 838.665241 180.363988 
L 836.278075 180.363988 
z
" style="fill:#1f77b4;"/>
   </g>
   <g id="patch_95">
    <path clip-path="url(#p71f149ec28)" d="M 838.665241 252 
L 841.052406 252 
L 841.052406 172.541664 
L 838.665241 172.541664 
z
" style="fill:#1f77b4;"/>
   </g>
   <g id="patch_96">
    <path clip-path="url(#p71f149ec28)" d="M 841.052406 252 
L 843.439572 252 
L 843.439572 162.454984 
L 841.052406 162.454984 
z
" style="fill:#1f77b4;"/>
   </g>
   <g id="patch_97">
    <path clip-path="url(#p71f149ec28)" d="M 843.439572 252 
L 845.826738 252 
L 845.826738 151.956603 
L 843.439572 151.956603 
z
" style="fill:#1f77b4;"/>
   </g>
   <g id="patch_98">
    <path clip-path="url(#p71f149ec28)" d="M 845.826738 252 
L 848.213904 252 
L 848.213904 135.076853 
L 845.826738 135.076853 
z
" style="fill:#1f77b4;"/>
   </g>
   <g id="patch_99">
    <path clip-path="url(#p71f149ec28)" d="M 848.213904 252 
L 850.60107 252 
L 850.60107 137.752911 
L 848.213904 137.752911 
z
" style="fill:#1f77b4;"/>
   </g>
   <g id="patch_100">
    <path clip-path="url(#p71f149ec28)" d="M 850.60107 252 
L 852.988235 252 
L 852.988235 129.724737 
L 850.60107 129.724737 
z
" style="fill:#1f77b4;"/>
   </g>
   <g id="patch_101">
    <path clip-path="url(#p71f149ec28)" d="M 852.988235 252 
L 855.375401 252 
L 855.375401 135.694405 
L 852.988235 135.694405 
z
" style="fill:#1f77b4;"/>
   </g>
   <g id="patch_102">
    <path clip-path="url(#p71f149ec28)" d="M 855.375401 252 
L 857.762567 252 
L 857.762567 113.66839 
L 855.375401 113.66839 
z
" style="fill:#1f77b4;"/>
   </g>
   <g id="patch_103">
    <path clip-path="url(#p71f149ec28)" d="M 857.762567 252 
L 860.149733 252 
L 860.149733 111.815734 
L 857.762567 111.815734 
z
" style="fill:#1f77b4;"/>
   </g>
   <g id="patch_104">
    <path clip-path="url(#p71f149ec28)" d="M 860.149733 252 
L 862.536898 252 
L 862.536898 114.903493 
L 860.149733 114.903493 
z
" style="fill:#1f77b4;"/>
   </g>
   <g id="patch_105">
    <path clip-path="url(#p71f149ec28)" d="M 862.536898 252 
L 864.924064 252 
L 864.924064 92.054076 
L 862.536898 92.054076 
z
" style="fill:#1f77b4;"/>
   </g>
   <g id="patch_106">
    <path clip-path="url(#p71f149ec28)" d="M 864.924064 252 
L 867.31123 252 
L 867.31123 90.20142 
L 864.924064 90.20142 
z
" style="fill:#1f77b4;"/>
   </g>
   <g id="patch_107">
    <path clip-path="url(#p71f149ec28)" d="M 867.31123 252 
L 869.698396 252 
L 869.698396 73.32167 
L 867.31123 73.32167 
z
" style="fill:#1f77b4;"/>
   </g>
   <g id="patch_108">
    <path clip-path="url(#p71f149ec28)" d="M 869.698396 252 
L 872.085561 252 
L 872.085561 70.645612 
L 869.698396 70.645612 
z
" style="fill:#1f77b4;"/>
   </g>
   <g id="patch_109">
    <path clip-path="url(#p71f149ec28)" d="M 872.085561 252 
L 874.472727 252 
L 874.472727 64.470094 
L 872.085561 64.470094 
z
" style="fill:#1f77b4;"/>
   </g>
   <g id="patch_110">
    <path clip-path="url(#p71f149ec28)" d="M 874.472727 252 
L 876.859893 252 
L 876.859893 58.912127 
L 874.472727 58.912127 
z
" style="fill:#1f77b4;"/>
   </g>
   <g id="patch_111">
    <path clip-path="url(#p71f149ec28)" d="M 876.859893 252 
L 879.247059 252 
L 879.247059 56.236069 
L 876.859893 56.236069 
z
" style="fill:#1f77b4;"/>
   </g>
   <g id="patch_112">
    <path clip-path="url(#p71f149ec28)" d="M 879.247059 252 
L 881.634225 252 
L 881.634225 44.914286 
L 879.247059 44.914286 
z
" style="fill:#1f77b4;"/>
   </g>
   <g id="patch_113">
    <path clip-path="url(#p71f149ec28)" d="M 881.634225 252 
L 884.02139 252 
L 884.02139 50.678103 
L 881.634225 50.678103 
z
" style="fill:#1f77b4;"/>
   </g>
   <g id="patch_114">
    <path clip-path="url(#p71f149ec28)" d="M 884.02139 252 
L 886.408556 252 
L 886.408556 56.030219 
L 884.02139 56.030219 
z
" style="fill:#1f77b4;"/>
   </g>
   <g id="patch_115">
    <path clip-path="url(#p71f149ec28)" d="M 886.408556 252 
L 888.795722 252 
L 888.795722 50.266402 
L 886.408556 50.266402 
z
" style="fill:#1f77b4;"/>
   </g>
   <g id="patch_116">
    <path clip-path="url(#p71f149ec28)" d="M 888.795722 252 
L 891.182888 252 
L 891.182888 54.177563 
L 888.795722 54.177563 
z
" style="fill:#1f77b4;"/>
   </g>
   <g id="patch_117">
    <path clip-path="url(#p71f149ec28)" d="M 891.182888 252 
L 893.570053 252 
L 893.570053 60.353082 
L 891.182888 60.353082 
z
" style="fill:#1f77b4;"/>
   </g>
   <g id="patch_118">
    <path clip-path="url(#p71f149ec28)" d="M 893.570053 252 
L 895.957219 252 
L 895.957219 60.970633 
L 893.570053 60.970633 
z
" style="fill:#1f77b4;"/>
   </g>
   <g id="patch_119">
    <path clip-path="url(#p71f149ec28)" d="M 895.957219 252 
L 898.344385 252 
L 898.344385 60.353082 
L 895.957219 60.353082 
z
" style="fill:#1f77b4;"/>
   </g>
   <g id="patch_120">
    <path clip-path="url(#p71f149ec28)" d="M 898.344385 252 
L 900.731551 252 
L 900.731551 58.500426 
L 898.344385 58.500426 
z
" style="fill:#1f77b4;"/>
   </g>
   <g id="patch_121">
    <path clip-path="url(#p71f149ec28)" d="M 900.731551 252 
L 903.118717 252 
L 903.118717 47.178642 
L 900.731551 47.178642 
z
" style="fill:#1f77b4;"/>
   </g>
   <g id="patch_122">
    <path clip-path="url(#p71f149ec28)" d="M 903.118717 252 
L 905.505882 252 
L 905.505882 55.824368 
L 903.118717 55.824368 
z
" style="fill:#1f77b4;"/>
   </g>
   <g id="patch_123">
    <path clip-path="url(#p71f149ec28)" d="M 905.505882 252 
L 907.893048 252 
L 907.893048 56.853621 
L 905.505882 56.853621 
z
" style="fill:#1f77b4;"/>
   </g>
   <g id="patch_124">
    <path clip-path="url(#p71f149ec28)" d="M 907.893048 252 
L 910.280214 252 
L 910.280214 45.531838 
L 907.893048 45.531838 
z
" style="fill:#1f77b4;"/>
   </g>
   <g id="patch_125">
    <path clip-path="url(#p71f149ec28)" d="M 910.280214 252 
L 912.66738 252 
L 912.66738 46.35524 
L 910.280214 46.35524 
z
" style="fill:#1f77b4;"/>
   </g>
   <g id="patch_126">
    <path clip-path="url(#p71f149ec28)" d="M 912.66738 252 
L 915.054545 252 
L 915.054545 57.882874 
L 912.66738 57.882874 
z
" style="fill:#1f77b4;"/>
   </g>
   <g id="patch_127">
    <path clip-path="url(#p71f149ec28)" d="M 915.054545 252 
L 917.441711 252 
L 917.441711 69.410508 
L 915.054545 69.410508 
z
" style="fill:#1f77b4;"/>
   </g>
   <g id="patch_128">
    <path clip-path="url(#p71f149ec28)" d="M 917.441711 252 
L 919.828877 252 
L 919.828877 79.90889 
L 917.441711 79.90889 
z
" style="fill:#1f77b4;"/>
   </g>
   <g id="patch_129">
    <path clip-path="url(#p71f149ec28)" d="M 919.828877 252 
L 922.216043 252 
L 922.216043 96.99449 
L 919.828877 96.99449 
z
" style="fill:#1f77b4;"/>
   </g>
   <g id="patch_130">
    <path clip-path="url(#p71f149ec28)" d="M 922.216043 252 
L 924.603209 252 
L 924.603209 100.082249 
L 922.216043 100.082249 
z
" style="fill:#1f77b4;"/>
   </g>
   <g id="patch_131">
    <path clip-path="url(#p71f149ec28)" d="M 924.603209 252 
L 926.990374 252 
L 926.990374 119.226356 
L 924.603209 119.226356 
z
" style="fill:#1f77b4;"/>
   </g>
   <g id="patch_132">
    <path clip-path="url(#p71f149ec28)" d="M 926.990374 252 
L 929.37754 252 
L 929.37754 118.197103 
L 926.990374 118.197103 
z
" style="fill:#1f77b4;"/>
   </g>
   <g id="patch_133">
    <path clip-path="url(#p71f149ec28)" d="M 929.37754 252 
L 931.764706 252 
L 931.764706 125.607725 
L 929.37754 125.607725 
z
" style="fill:#1f77b4;"/>
   </g>
   <g id="patch_134">
    <path clip-path="url(#p71f149ec28)" d="M 931.764706 252 
L 934.151872 252 
L 934.151872 124.784323 
L 931.764706 124.784323 
z
" style="fill:#1f77b4;"/>
   </g>
   <g id="patch_135">
    <path clip-path="url(#p71f149ec28)" d="M 934.151872 252 
L 936.539037 252 
L 936.539037 134.665152 
L 934.151872 134.665152 
z
" style="fill:#1f77b4;"/>
   </g>
   <g id="patch_136">
    <path clip-path="url(#p71f149ec28)" d="M 936.539037 252 
L 938.926203 252 
L 938.926203 136.311957 
L 936.539037 136.311957 
z
" style="fill:#1f77b4;"/>
   </g>
   <g id="patch_137">
    <path clip-path="url(#p71f149ec28)" d="M 938.926203 252 
L 941.313369 252 
L 941.313369 140.223118 
L 938.926203 140.223118 
z
" style="fill:#1f77b4;"/>
   </g>
   <g id="patch_138">
    <path clip-path="url(#p71f149ec28)" d="M 941.313369 252 
L 943.700535 252 
L 943.700535 150.92735 
L 941.313369 150.92735 
z
" style="fill:#1f77b4;"/>
   </g>
   <g id="patch_139">
    <path clip-path="url(#p71f149ec28)" d="M 943.700535 252 
L 946.087701 252 
L 946.087701 159.161375 
L 943.700535 159.161375 
z
" style="fill:#1f77b4;"/>
   </g>
   <g id="patch_140">
    <path clip-path="url(#p71f149ec28)" d="M 946.087701 252 
L 948.474866 252 
L 948.474866 170.894859 
L 946.087701 170.894859 
z
" style="fill:#1f77b4;"/>
   </g>
   <g id="patch_141">
    <path clip-path="url(#p71f149ec28)" d="M 948.474866 252 
L 950.862032 252 
L 950.862032 175.835274 
L 948.474866 175.835274 
z
" style="fill:#1f77b4;"/>
   </g>
   <g id="patch_142">
    <path clip-path="url(#p71f149ec28)" d="M 950.862032 252 
L 953.249198 252 
L 953.249198 172.541664 
L 950.862032 172.541664 
z
" style="fill:#1f77b4;"/>
   </g>
   <g id="patch_143">
    <path clip-path="url(#p71f149ec28)" d="M 953.249198 252 
L 955.636364 252 
L 955.636364 196.214485 
L 953.249198 196.214485 
z
" style="fill:#1f77b4;"/>
   </g>
   <g id="patch_144">
    <path clip-path="url(#p71f149ec28)" d="M 955.636364 252 
L 958.023529 252 
L 958.023529 197.037887 
L 955.636364 197.037887 
z
" style="fill:#1f77b4;"/>
   </g>
   <g id="patch_145">
    <path clip-path="url(#p71f149ec28)" d="M 958.023529 252 
L 960.410695 252 
L 960.410695 205.066061 
L 958.023529 205.066061 
z
" style="fill:#1f77b4;"/>
   </g>
   <g id="patch_146">
    <path clip-path="url(#p71f149ec28)" d="M 960.410695 252 
L 962.797861 252 
L 962.797861 211.65328 
L 960.410695 211.65328 
z
" style="fill:#1f77b4;"/>
   </g>
   <g id="patch_147">
    <path clip-path="url(#p71f149ec28)" d="M 962.797861 252 
L 965.185027 252 
L 965.185027 219.269753 
L 962.797861 219.269753 
z
" style="fill:#1f77b4;"/>
   </g>
   <g id="patch_148">
    <path clip-path="url(#p71f149ec28)" d="M 965.185027 252 
L 967.572193 252 
L 967.572193 225.03357 
L 965.185027 225.03357 
z
" style="fill:#1f77b4;"/>
   </g>
   <g id="patch_149">
    <path clip-path="url(#p71f149ec28)" d="M 967.572193 252 
L 969.959358 252 
L 969.959358 238.61971 
L 967.572193 238.61971 
z
" style="fill:#1f77b4;"/>
   </g>
   <g id="patch_150">
    <path clip-path="url(#p71f149ec28)" d="M 969.959358 252 
L 972.346524 252 
L 972.346524 243.765976 
L 969.959358 243.765976 
z
" style="fill:#1f77b4;"/>
   </g>
   <g id="patch_151">
    <path clip-path="url(#p71f149ec28)" d="M 972.346524 252 
L 974.73369 252 
L 974.73369 243.765976 
L 972.346524 243.765976 
z
" style="fill:#1f77b4;"/>
   </g>
   <g id="patch_152">
    <path clip-path="url(#p71f149ec28)" d="M 974.73369 252 
L 977.120856 252 
L 977.120856 241.91332 
L 974.73369 241.91332 
z
" style="fill:#1f77b4;"/>
   </g>
   <g id="patch_153">
    <path clip-path="url(#p71f149ec28)" d="M 977.120856 252 
L 979.508021 252 
L 979.508021 243.354274 
L 977.120856 243.354274 
z
" style="fill:#1f77b4;"/>
   </g>
   <g id="patch_154">
    <path clip-path="url(#p71f149ec28)" d="M 979.508021 252 
L 981.895187 252 
L 981.895187 243.354274 
L 979.508021 243.354274 
z
" style="fill:#1f77b4;"/>
   </g>
   <g id="patch_155">
    <path clip-path="url(#p71f149ec28)" d="M 981.895187 252 
L 984.282353 252 
L 984.282353 241.91332 
L 981.895187 241.91332 
z
" style="fill:#1f77b4;"/>
   </g>
   <g id="patch_156">
    <path clip-path="url(#p71f149ec28)" d="M 984.282353 252 
L 986.669519 252 
L 986.669519 243.148424 
L 984.282353 243.148424 
z
" style="fill:#1f77b4;"/>
   </g>
   <g id="patch_157">
    <path clip-path="url(#p71f149ec28)" d="M 986.669519 252 
L 989.056684 252 
L 989.056684 244.383527 
L 986.669519 244.383527 
z
" style="fill:#1f77b4;"/>
   </g>
   <g id="patch_158">
    <path clip-path="url(#p71f149ec28)" d="M 989.056684 252 
L 991.44385 252 
L 991.44385 244.177677 
L 989.056684 244.177677 
z
" style="fill:#1f77b4;"/>
   </g>
   <g id="patch_159">
    <path clip-path="url(#p71f149ec28)" d="M 991.44385 252 
L 993.831016 252 
L 993.831016 242.736723 
L 991.44385 242.736723 
z
" style="fill:#1f77b4;"/>
   </g>
   <g id="patch_160">
    <path clip-path="url(#p71f149ec28)" d="M 993.831016 252 
L 996.218182 252 
L 996.218182 245.001079 
L 993.831016 245.001079 
z
" style="fill:#1f77b4;"/>
   </g>
   <g id="patch_161">
    <path clip-path="url(#p71f149ec28)" d="M 996.218182 252 
L 998.605348 252 
L 998.605348 243.354274 
L 996.218182 243.354274 
z
" style="fill:#1f77b4;"/>
   </g>
   <g id="patch_162">
    <path clip-path="url(#p71f149ec28)" d="M 998.605348 252 
L 1000.992513 252 
L 1000.992513 241.91332 
L 998.605348 241.91332 
z
" style="fill:#1f77b4;"/>
   </g>
   <g id="patch_163">
    <path clip-path="url(#p71f149ec28)" d="M 1000.992513 252 
L 1003.379679 252 
L 1003.379679 241.707469 
L 1000.992513 241.707469 
z
" style="fill:#1f77b4;"/>
   </g>
   <g id="patch_164">
    <path clip-path="url(#p71f149ec28)" d="M 1003.379679 252 
L 1005.766845 252 
L 1005.766845 243.765976 
L 1003.379679 243.765976 
z
" style="fill:#1f77b4;"/>
   </g>
   <g id="patch_165">
    <path clip-path="url(#p71f149ec28)" d="M 1005.766845 252 
L 1008.154011 252 
L 1008.154011 241.295768 
L 1005.766845 241.295768 
z
" style="fill:#1f77b4;"/>
   </g>
   <g id="patch_166">
    <path clip-path="url(#p71f149ec28)" d="M 1008.154011 252 
L 1010.541176 252 
L 1010.541176 245.001079 
L 1008.154011 245.001079 
z
" style="fill:#1f77b4;"/>
   </g>
   <g id="patch_167">
    <path clip-path="url(#p71f149ec28)" d="M 1010.541176 252 
L 1012.928342 252 
L 1012.928342 245.824482 
L 1010.541176 245.824482 
z
" style="fill:#1f77b4;"/>
   </g>
   <g id="patch_168">
    <path clip-path="url(#p71f149ec28)" d="M 1012.928342 252 
L 1015.315508 252 
L 1015.315508 246.236183 
L 1012.928342 246.236183 
z
" style="fill:#1f77b4;"/>
   </g>
   <g id="patch_169">
    <path clip-path="url(#p71f149ec28)" d="M 1015.315508 252 
L 1017.702674 252 
L 1017.702674 246.030332 
L 1015.315508 246.030332 
z
" style="fill:#1f77b4;"/>
   </g>
   <g id="patch_170">
    <path clip-path="url(#p71f149ec28)" d="M 1017.702674 252 
L 1020.08984 252 
L 1020.08984 247.677137 
L 1017.702674 247.677137 
z
" style="fill:#1f77b4;"/>
   </g>
   <g id="patch_171">
    <path clip-path="url(#p71f149ec28)" d="M 1020.08984 252 
L 1022.477005 252 
L 1022.477005 248.912241 
L 1020.08984 248.912241 
z
" style="fill:#1f77b4;"/>
   </g>
   <g id="patch_172">
    <path clip-path="url(#p71f149ec28)" d="M 1022.477005 252 
L 1024.864171 252 
L 1024.864171 249.735643 
L 1022.477005 249.735643 
z
" style="fill:#1f77b4;"/>
   </g>
   <g id="matplotlib.axis_5">
    <g id="xtick_13">
     <g id="line2d_25">
      <path clip-path="url(#p71f149ec28)" d="M 801.578969 252 
L 801.578969 34.56 
" style="fill:none;stroke:#b0b0b0;stroke-linecap:square;stroke-width:0.8;"/>
     </g>
     <g id="line2d_26">
      <g>
       <use style="stroke:#000000;stroke-width:0.8;" x="801.578969" xlink:href="#ma013905605" y="252"/>
      </g>
     </g>
     <g id="text_29">
      <!-- 0.8 -->
      <g transform="translate(788.856469 271.1575)scale(0.16 -0.16)">
       <use xlink:href="#DejaVuSans-48"/>
       <use x="63.623047" xlink:href="#DejaVuSans-46"/>
       <use x="95.410156" xlink:href="#DejaVuSans-56"/>
      </g>
     </g>
    </g>
    <g id="xtick_14">
     <g id="line2d_27">
      <path clip-path="url(#p71f149ec28)" d="M 888.895098 252 
L 888.895098 34.56 
" style="fill:none;stroke:#b0b0b0;stroke-linecap:square;stroke-width:0.8;"/>
     </g>
     <g id="line2d_28">
      <g>
       <use style="stroke:#000000;stroke-width:0.8;" x="888.895098" xlink:href="#ma013905605" y="252"/>
      </g>
     </g>
     <g id="text_30">
      <!-- 1.0 -->
      <g transform="translate(876.172598 271.1575)scale(0.16 -0.16)">
       <use xlink:href="#DejaVuSans-49"/>
       <use x="63.623047" xlink:href="#DejaVuSans-46"/>
       <use x="95.410156" xlink:href="#DejaVuSans-48"/>
      </g>
     </g>
    </g>
    <g id="xtick_15">
     <g id="line2d_29">
      <path clip-path="url(#p71f149ec28)" d="M 976.211228 252 
L 976.211228 34.56 
" style="fill:none;stroke:#b0b0b0;stroke-linecap:square;stroke-width:0.8;"/>
     </g>
     <g id="line2d_30">
      <g>
       <use style="stroke:#000000;stroke-width:0.8;" x="976.211228" xlink:href="#ma013905605" y="252"/>
      </g>
     </g>
     <g id="text_31">
      <!-- 1.2 -->
      <g transform="translate(963.488728 271.1575)scale(0.16 -0.16)">
       <use xlink:href="#DejaVuSans-49"/>
       <use x="63.623047" xlink:href="#DejaVuSans-46"/>
       <use x="95.410156" xlink:href="#DejaVuSans-50"/>
      </g>
     </g>
    </g>
   </g>
   <g id="matplotlib.axis_6">
    <g id="ytick_11">
     <g id="line2d_31">
      <path clip-path="url(#p71f149ec28)" d="M 774.211765 252 
L 1036.8 252 
" style="fill:none;stroke:#b0b0b0;stroke-linecap:square;stroke-width:0.8;"/>
     </g>
     <g id="line2d_32">
      <g>
       <use style="stroke:#000000;stroke-width:0.8;" x="774.211765" xlink:href="#m645e5eec5a" y="252"/>
      </g>
     </g>
     <g id="text_32">
      <!-- 0 -->
      <g transform="translate(757.031765 258.07875)scale(0.16 -0.16)">
       <use xlink:href="#DejaVuSans-48"/>
      </g>
     </g>
    </g>
    <g id="ytick_12">
     <g id="line2d_33">
      <path clip-path="url(#p71f149ec28)" d="M 774.211765 210.829878 
L 1036.8 210.829878 
" style="fill:none;stroke:#b0b0b0;stroke-linecap:square;stroke-width:0.8;"/>
     </g>
     <g id="line2d_34">
      <g>
       <use style="stroke:#000000;stroke-width:0.8;" x="774.211765" xlink:href="#m645e5eec5a" y="210.829878"/>
      </g>
     </g>
     <g id="text_33">
      <!-- 200 -->
      <g transform="translate(736.671765 216.908628)scale(0.16 -0.16)">
       <use xlink:href="#DejaVuSans-50"/>
       <use x="63.623047" xlink:href="#DejaVuSans-48"/>
       <use x="127.246094" xlink:href="#DejaVuSans-48"/>
      </g>
     </g>
    </g>
    <g id="ytick_13">
     <g id="line2d_35">
      <path clip-path="url(#p71f149ec28)" d="M 774.211765 169.659756 
L 1036.8 169.659756 
" style="fill:none;stroke:#b0b0b0;stroke-linecap:square;stroke-width:0.8;"/>
     </g>
     <g id="line2d_36">
      <g>
       <use style="stroke:#000000;stroke-width:0.8;" x="774.211765" xlink:href="#m645e5eec5a" y="169.659756"/>
      </g>
     </g>
     <g id="text_34">
      <!-- 400 -->
      <g transform="translate(736.671765 175.738506)scale(0.16 -0.16)">
       <use xlink:href="#DejaVuSans-52"/>
       <use x="63.623047" xlink:href="#DejaVuSans-48"/>
       <use x="127.246094" xlink:href="#DejaVuSans-48"/>
      </g>
     </g>
    </g>
    <g id="ytick_14">
     <g id="line2d_37">
      <path clip-path="url(#p71f149ec28)" d="M 774.211765 128.489634 
L 1036.8 128.489634 
" style="fill:none;stroke:#b0b0b0;stroke-linecap:square;stroke-width:0.8;"/>
     </g>
     <g id="line2d_38">
      <g>
       <use style="stroke:#000000;stroke-width:0.8;" x="774.211765" xlink:href="#m645e5eec5a" y="128.489634"/>
      </g>
     </g>
     <g id="text_35">
      <!-- 600 -->
      <g transform="translate(736.671765 134.568384)scale(0.16 -0.16)">
       <use xlink:href="#DejaVuSans-54"/>
       <use x="63.623047" xlink:href="#DejaVuSans-48"/>
       <use x="127.246094" xlink:href="#DejaVuSans-48"/>
      </g>
     </g>
    </g>
    <g id="ytick_15">
     <g id="line2d_39">
      <path clip-path="url(#p71f149ec28)" d="M 774.211765 87.319512 
L 1036.8 87.319512 
" style="fill:none;stroke:#b0b0b0;stroke-linecap:square;stroke-width:0.8;"/>
     </g>
     <g id="line2d_40">
      <g>
       <use style="stroke:#000000;stroke-width:0.8;" x="774.211765" xlink:href="#m645e5eec5a" y="87.319512"/>
      </g>
     </g>
     <g id="text_36">
      <!-- 800 -->
      <g transform="translate(736.671765 93.398262)scale(0.16 -0.16)">
       <use xlink:href="#DejaVuSans-56"/>
       <use x="63.623047" xlink:href="#DejaVuSans-48"/>
       <use x="127.246094" xlink:href="#DejaVuSans-48"/>
      </g>
     </g>
    </g>
    <g id="ytick_16">
     <g id="line2d_41">
      <path clip-path="url(#p71f149ec28)" d="M 774.211765 46.149389 
L 1036.8 46.149389 
" style="fill:none;stroke:#b0b0b0;stroke-linecap:square;stroke-width:0.8;"/>
     </g>
     <g id="line2d_42">
      <g>
       <use style="stroke:#000000;stroke-width:0.8;" x="774.211765" xlink:href="#m645e5eec5a" y="46.149389"/>
      </g>
     </g>
     <g id="text_37">
      <!-- 1000 -->
      <g transform="translate(726.491765 52.228139)scale(0.16 -0.16)">
       <use xlink:href="#DejaVuSans-49"/>
       <use x="63.623047" xlink:href="#DejaVuSans-48"/>
       <use x="127.246094" xlink:href="#DejaVuSans-48"/>
       <use x="190.869141" xlink:href="#DejaVuSans-48"/>
      </g>
     </g>
    </g>
   </g>
   <g id="patch_173">
    <path d="M 774.211765 252 
L 774.211765 34.56 
" style="fill:none;stroke:#000000;stroke-linecap:square;stroke-linejoin:miter;stroke-width:0.8;"/>
   </g>
   <g id="patch_174">
    <path d="M 1036.8 252 
L 1036.8 34.56 
" style="fill:none;stroke:#000000;stroke-linecap:square;stroke-linejoin:miter;stroke-width:0.8;"/>
   </g>
   <g id="patch_175">
    <path d="M 774.211765 252 
L 1036.8 252 
" style="fill:none;stroke:#000000;stroke-linecap:square;stroke-linejoin:miter;stroke-width:0.8;"/>
   </g>
   <g id="patch_176">
    <path d="M 774.211765 34.56 
L 1036.8 34.56 
" style="fill:none;stroke:#000000;stroke-linecap:square;stroke-linejoin:miter;stroke-width:0.8;"/>
   </g>
   <g id="text_38">
    <!-- Scale factors v. naive aniso scaling -->
    <g transform="translate(737.898882 28.56)scale(0.192 -0.192)">
     <defs>
      <path d="M 53.515625 70.515625 
L 53.515625 60.890625 
Q 47.90625 63.578125 42.921875 64.890625 
Q 37.9375 66.21875 33.296875 66.21875 
Q 25.25 66.21875 20.875 63.09375 
Q 16.5 59.96875 16.5 54.203125 
Q 16.5 49.359375 19.40625 46.890625 
Q 22.3125 44.4375 30.421875 42.921875 
L 36.375 41.703125 
Q 47.40625 39.59375 52.65625 34.296875 
Q 57.90625 29 57.90625 20.125 
Q 57.90625 9.515625 50.796875 4.046875 
Q 43.703125 -1.421875 29.984375 -1.421875 
Q 24.8125 -1.421875 18.96875 -0.25 
Q 13.140625 0.921875 6.890625 3.21875 
L 6.890625 13.375 
Q 12.890625 10.015625 18.65625 8.296875 
Q 24.421875 6.59375 29.984375 6.59375 
Q 38.421875 6.59375 43.015625 9.90625 
Q 47.609375 13.234375 47.609375 19.390625 
Q 47.609375 24.75 44.3125 27.78125 
Q 41.015625 30.8125 33.5 32.328125 
L 27.484375 33.5 
Q 16.453125 35.6875 11.515625 40.375 
Q 6.59375 45.0625 6.59375 53.421875 
Q 6.59375 63.09375 13.40625 68.65625 
Q 20.21875 74.21875 32.171875 74.21875 
Q 37.3125 74.21875 42.625 73.28125 
Q 47.953125 72.359375 53.515625 70.515625 
z
" id="DejaVuSans-83"/>
      <path d="M 2.984375 54.6875 
L 12.5 54.6875 
L 29.59375 8.796875 
L 46.6875 54.6875 
L 56.203125 54.6875 
L 35.6875 0 
L 23.484375 0 
z
" id="DejaVuSans-118"/>
      <path d="M 45.40625 27.984375 
Q 45.40625 37.75 41.375 43.109375 
Q 37.359375 48.484375 30.078125 48.484375 
Q 22.859375 48.484375 18.828125 43.109375 
Q 14.796875 37.75 14.796875 27.984375 
Q 14.796875 18.265625 18.828125 12.890625 
Q 22.859375 7.515625 30.078125 7.515625 
Q 37.359375 7.515625 41.375 12.890625 
Q 45.40625 18.265625 45.40625 27.984375 
z
M 54.390625 6.78125 
Q 54.390625 -7.171875 48.1875 -13.984375 
Q 42 -20.796875 29.203125 -20.796875 
Q 24.46875 -20.796875 20.265625 -20.09375 
Q 16.0625 -19.390625 12.109375 -17.921875 
L 12.109375 -9.1875 
Q 16.0625 -11.328125 19.921875 -12.34375 
Q 23.78125 -13.375 27.78125 -13.375 
Q 36.625 -13.375 41.015625 -8.765625 
Q 45.40625 -4.15625 45.40625 5.171875 
L 45.40625 9.625 
Q 42.625 4.78125 38.28125 2.390625 
Q 33.9375 0 27.875 0 
Q 17.828125 0 11.671875 7.65625 
Q 5.515625 15.328125 5.515625 27.984375 
Q 5.515625 40.671875 11.671875 48.328125 
Q 17.828125 56 27.875 56 
Q 33.9375 56 38.28125 53.609375 
Q 42.625 51.21875 45.40625 46.390625 
L 45.40625 54.6875 
L 54.390625 54.6875 
z
" id="DejaVuSans-103"/>
     </defs>
     <use xlink:href="#DejaVuSans-83"/>
     <use x="63.476562" xlink:href="#DejaVuSans-99"/>
     <use x="118.457031" xlink:href="#DejaVuSans-97"/>
     <use x="179.736328" xlink:href="#DejaVuSans-108"/>
     <use x="207.519531" xlink:href="#DejaVuSans-101"/>
     <use x="269.042969" xlink:href="#DejaVuSans-32"/>
     <use x="300.830078" xlink:href="#DejaVuSans-102"/>
     <use x="336.035156" xlink:href="#DejaVuSans-97"/>
     <use x="397.314453" xlink:href="#DejaVuSans-99"/>
     <use x="452.294922" xlink:href="#DejaVuSans-116"/>
     <use x="491.503906" xlink:href="#DejaVuSans-111"/>
     <use x="552.685547" xlink:href="#DejaVuSans-114"/>
     <use x="593.798828" xlink:href="#DejaVuSans-115"/>
     <use x="645.898438" xlink:href="#DejaVuSans-32"/>
     <use x="677.685547" xlink:href="#DejaVuSans-118"/>
     <use x="729.115234" xlink:href="#DejaVuSans-46"/>
     <use x="760.902344" xlink:href="#DejaVuSans-32"/>
     <use x="792.689453" xlink:href="#DejaVuSans-110"/>
     <use x="856.068359" xlink:href="#DejaVuSans-97"/>
     <use x="917.347656" xlink:href="#DejaVuSans-105"/>
     <use x="945.130859" xlink:href="#DejaVuSans-118"/>
     <use x="1004.310547" xlink:href="#DejaVuSans-101"/>
     <use x="1065.833984" xlink:href="#DejaVuSans-32"/>
     <use x="1097.621094" xlink:href="#DejaVuSans-97"/>
     <use x="1158.900391" xlink:href="#DejaVuSans-110"/>
     <use x="1222.279297" xlink:href="#DejaVuSans-105"/>
     <use x="1250.0625" xlink:href="#DejaVuSans-115"/>
     <use x="1302.162109" xlink:href="#DejaVuSans-111"/>
     <use x="1363.34375" xlink:href="#DejaVuSans-32"/>
     <use x="1395.130859" xlink:href="#DejaVuSans-115"/>
     <use x="1447.230469" xlink:href="#DejaVuSans-99"/>
     <use x="1502.210938" xlink:href="#DejaVuSans-97"/>
     <use x="1563.490234" xlink:href="#DejaVuSans-108"/>
     <use x="1591.273438" xlink:href="#DejaVuSans-105"/>
     <use x="1619.056641" xlink:href="#DejaVuSans-110"/>
     <use x="1682.435547" xlink:href="#DejaVuSans-103"/>
    </g>
   </g>
  </g>
 </g>
 <defs>
  <clipPath id="p39de724eb3">
   <rect height="217.44" width="262.588235" x="144" y="34.56"/>
  </clipPath>
  <clipPath id="p691cc4b9d4">
   <rect height="217.44" width="262.588235" x="459.105882" y="34.56"/>
  </clipPath>
  <clipPath id="p71f149ec28">
   <rect height="217.44" width="262.588235" x="774.211765" y="34.56"/>
  </clipPath>
 </defs>
</svg>
