<?xml version="1.0" encoding="utf-8" standalone="no"?>
<!DOCTYPE svg PUBLIC "-//W3C//DTD SVG 1.1//EN"
  "http://www.w3.org/Graphics/SVG/1.1/DTD/svg11.dtd">
<svg xmlns:xlink="http://www.w3.org/1999/xlink" width="1152pt" height="288pt" viewBox="0 0 1152 288" xmlns="http://www.w3.org/2000/svg" version="1.1">
 <metadata>
  <rdf:RDF xmlns:dc="http://purl.org/dc/elements/1.1/" xmlns:cc="http://creativecommons.org/ns#" xmlns:rdf="http://www.w3.org/1999/02/22-rdf-syntax-ns#">
   <cc:Work>
    <dc:type rdf:resource="http://purl.org/dc/dcmitype/StillImage"/>
    <dc:date>2024-03-19T16:07:43.414801</dc:date>
    <dc:format>image/svg+xml</dc:format>
    <dc:creator>
     <cc:Agent>
      <dc:title>Matplotlib v3.8.2, https://matplotlib.org/</dc:title>
     </cc:Agent>
    </dc:creator>
   </cc:Work>
  </rdf:RDF>
 </metadata>
 <defs>
  <style type="text/css">*{stroke-linejoin: round; stroke-linecap: butt}</style>
 </defs>
 <g id="figure_1">
  <g id="patch_1">
   <path d="M 0 288 
L 1152 288 
L 1152 0 
L 0 0 
z
" style="fill: #ffffff"/>
  </g>
  <g id="axes_1">
   <g id="patch_2">
    <path d="M 144 256.32 
L 406.588235 256.32 
L 406.588235 34.56 
L 144 34.56 
z
" style="fill: #ffffff"/>
   </g>
   <g id="patch_3">
    <path d="M 144 256.32 
L 167.034056 256.32 
L 167.034056 45.12 
L 144 45.12 
z
" clip-path="url(#pe2ff96f951)" style="fill: #1f77b4"/>
   </g>
   <g id="patch_4">
    <path d="M 167.034056 256.32 
L 190.068111 256.32 
L 190.068111 120.061935 
L 167.034056 120.061935 
z
" clip-path="url(#pe2ff96f951)" style="fill: #1f77b4"/>
   </g>
   <g id="patch_5">
    <path d="M 190.068111 256.32 
L 213.102167 256.32 
L 213.102167 184.784516 
L 190.068111 184.784516 
z
" clip-path="url(#pe2ff96f951)" style="fill: #1f77b4"/>
   </g>
   <g id="patch_6">
    <path d="M 213.102167 256.32 
L 236.136223 256.32 
L 236.136223 239.287742 
L 213.102167 239.287742 
z
" clip-path="url(#pe2ff96f951)" style="fill: #1f77b4"/>
   </g>
   <g id="patch_7">
    <path d="M 236.136223 256.32 
L 259.170279 256.32 
L 259.170279 249.507097 
L 236.136223 249.507097 
z
" clip-path="url(#pe2ff96f951)" style="fill: #1f77b4"/>
   </g>
   <g id="patch_8">
    <path d="M 259.170279 256.32 
L 282.204334 256.32 
L 282.204334 252.913548 
L 259.170279 252.913548 
z
" clip-path="url(#pe2ff96f951)" style="fill: #1f77b4"/>
   </g>
   <g id="patch_9">
    <path d="M 282.204334 256.32 
L 305.23839 256.32 
L 305.23839 252.913548 
L 282.204334 252.913548 
z
" clip-path="url(#pe2ff96f951)" style="fill: #1f77b4"/>
   </g>
   <g id="patch_10">
    <path d="M 305.23839 256.32 
L 328.272446 256.32 
L 328.272446 256.32 
L 305.23839 256.32 
z
" clip-path="url(#pe2ff96f951)" style="fill: #1f77b4"/>
   </g>
   <g id="patch_11">
    <path d="M 328.272446 256.32 
L 351.306502 256.32 
L 351.306502 256.32 
L 328.272446 256.32 
z
" clip-path="url(#pe2ff96f951)" style="fill: #1f77b4"/>
   </g>
   <g id="patch_12">
    <path d="M 351.306502 256.32 
L 374.340557 256.32 
L 374.340557 256.32 
L 351.306502 256.32 
z
" clip-path="url(#pe2ff96f951)" style="fill: #1f77b4"/>
   </g>
   <g id="patch_13">
    <path d="M 374.340557 256.32 
L 397.374613 256.32 
L 397.374613 256.32 
L 374.340557 256.32 
z
" clip-path="url(#pe2ff96f951)" style="fill: #1f77b4"/>
   </g>
   <g id="patch_14">
    <path d="M 397.374613 256.32 
L 420.408669 256.32 
L 420.408669 256.32 
L 397.374613 256.32 
z
" clip-path="url(#pe2ff96f951)" style="fill: #1f77b4"/>
   </g>
   <g id="patch_15">
    <path d="M 420.408669 256.32 
L 443.442724 256.32 
L 443.442724 256.32 
L 420.408669 256.32 
z
" clip-path="url(#pe2ff96f951)" style="fill: #1f77b4"/>
   </g>
   <g id="patch_16">
    <path d="M 443.442724 256.32 
L 466.47678 256.32 
L 466.47678 256.32 
L 443.442724 256.32 
z
" clip-path="url(#pe2ff96f951)" style="fill: #1f77b4"/>
   </g>
   <g id="patch_17">
    <path d="M 466.47678 256.32 
L 489.510836 256.32 
L 489.510836 256.32 
L 466.47678 256.32 
z
" clip-path="url(#pe2ff96f951)" style="fill: #1f77b4"/>
   </g>
   <g id="patch_18">
    <path d="M 489.510836 256.32 
L 512.544892 256.32 
L 512.544892 256.32 
L 489.510836 256.32 
z
" clip-path="url(#pe2ff96f951)" style="fill: #1f77b4"/>
   </g>
   <g id="patch_19">
    <path d="M 512.544892 256.32 
L 535.578947 256.32 
L 535.578947 256.32 
L 512.544892 256.32 
z
" clip-path="url(#pe2ff96f951)" style="fill: #1f77b4"/>
   </g>
   <g id="patch_20">
    <path d="M 535.578947 256.32 
L 558.613003 256.32 
L 558.613003 256.32 
L 535.578947 256.32 
z
" clip-path="url(#pe2ff96f951)" style="fill: #1f77b4"/>
   </g>
   <g id="patch_21">
    <path d="M 558.613003 256.32 
L 581.647059 256.32 
L 581.647059 256.32 
L 558.613003 256.32 
z
" clip-path="url(#pe2ff96f951)" style="fill: #1f77b4"/>
   </g>
   <g id="matplotlib.axis_1">
    <g id="xtick_1">
     <g id="line2d_1">
      <defs>
       <path id="m7d8de1b947" d="M 0 0 
L 0 3.5 
" style="stroke: #000000; stroke-width: 0.8"/>
      </defs>
      <g>
       <use xlink:href="#m7d8de1b947" x="144" y="256.32" style="stroke: #000000; stroke-width: 0.8"/>
      </g>
     </g>
     <g id="text_1">
      <text style="font: 12px 'DejaVu Sans', 'Bitstream Vera Sans', 'Computer Modern Sans Serif', 'Lucida Grande', 'Verdana', 'Geneva', 'Lucid', 'Arial', 'Helvetica', 'Avant Garde', sans-serif; text-anchor: middle" x="144" y="272.438125" transform="rotate(-0 144 272.438125)">0</text>
     </g>
    </g>
    <g id="xtick_2">
     <g id="line2d_2">
      <g>
       <use xlink:href="#m7d8de1b947" x="231.529412" y="256.32" style="stroke: #000000; stroke-width: 0.8"/>
      </g>
     </g>
     <g id="text_2">
      <text style="font: 12px 'DejaVu Sans', 'Bitstream Vera Sans', 'Computer Modern Sans Serif', 'Lucida Grande', 'Verdana', 'Geneva', 'Lucid', 'Arial', 'Helvetica', 'Avant Garde', sans-serif; text-anchor: middle" x="231.529412" y="272.438125" transform="rotate(-0 231.529412 272.438125)">1</text>
     </g>
    </g>
    <g id="xtick_3">
     <g id="line2d_3">
      <g>
       <use xlink:href="#m7d8de1b947" x="319.058824" y="256.32" style="stroke: #000000; stroke-width: 0.8"/>
      </g>
     </g>
     <g id="text_3">
      <text style="font: 12px 'DejaVu Sans', 'Bitstream Vera Sans', 'Computer Modern Sans Serif', 'Lucida Grande', 'Verdana', 'Geneva', 'Lucid', 'Arial', 'Helvetica', 'Avant Garde', sans-serif; text-anchor: middle" x="319.058824" y="272.438125" transform="rotate(-0 319.058824 272.438125)">2</text>
     </g>
    </g>
    <g id="xtick_4">
     <g id="line2d_4">
      <g>
       <use xlink:href="#m7d8de1b947" x="406.588235" y="256.32" style="stroke: #000000; stroke-width: 0.8"/>
      </g>
     </g>
     <g id="text_4">
      <text style="font: 12px 'DejaVu Sans', 'Bitstream Vera Sans', 'Computer Modern Sans Serif', 'Lucida Grande', 'Verdana', 'Geneva', 'Lucid', 'Arial', 'Helvetica', 'Avant Garde', sans-serif; text-anchor: middle" x="406.588235" y="272.438125" transform="rotate(-0 406.588235 272.438125)">3</text>
     </g>
    </g>
    <g id="text_5">
     <text style="font: 12px 'DejaVu Sans', 'Bitstream Vera Sans', 'Computer Modern Sans Serif', 'Lucida Grande', 'Verdana', 'Geneva', 'Lucid', 'Arial', 'Helvetica', 'Avant Garde', sans-serif; text-anchor: middle" x="275.294118" y="288.051875" transform="rotate(-0 275.294118 288.051875)">SF amplitude (inhibitor)</text>
    </g>
   </g>
   <g id="matplotlib.axis_2">
    <g id="ytick_1">
     <g id="line2d_5">
      <defs>
       <path id="m4fb32cabbd" d="M 0 0 
L -3.5 0 
" style="stroke: #000000; stroke-width: 0.8"/>
      </defs>
      <g>
       <use xlink:href="#m4fb32cabbd" x="144" y="256.32" style="stroke: #000000; stroke-width: 0.8"/>
      </g>
     </g>
     <g id="text_6">
      <text style="font: 12px 'DejaVu Sans', 'Bitstream Vera Sans', 'Computer Modern Sans Serif', 'Lucida Grande', 'Verdana', 'Geneva', 'Lucid', 'Arial', 'Helvetica', 'Avant Garde', sans-serif; text-anchor: end" x="137" y="260.879063" transform="rotate(-0 137 260.879063)">0.00</text>
     </g>
    </g>
    <g id="ytick_2">
     <g id="line2d_6">
      <g>
       <use xlink:href="#m4fb32cabbd" x="144" y="226.737657" style="stroke: #000000; stroke-width: 0.8"/>
      </g>
     </g>
     <g id="text_7">
      <text style="font: 12px 'DejaVu Sans', 'Bitstream Vera Sans', 'Computer Modern Sans Serif', 'Lucida Grande', 'Verdana', 'Geneva', 'Lucid', 'Arial', 'Helvetica', 'Avant Garde', sans-serif; text-anchor: end" x="137" y="231.29672" transform="rotate(-0 137 231.29672)">0.25</text>
     </g>
    </g>
    <g id="ytick_3">
     <g id="line2d_7">
      <g>
       <use xlink:href="#m4fb32cabbd" x="144" y="197.155314" style="stroke: #000000; stroke-width: 0.8"/>
      </g>
     </g>
     <g id="text_8">
      <text style="font: 12px 'DejaVu Sans', 'Bitstream Vera Sans', 'Computer Modern Sans Serif', 'Lucida Grande', 'Verdana', 'Geneva', 'Lucid', 'Arial', 'Helvetica', 'Avant Garde', sans-serif; text-anchor: end" x="137" y="201.714377" transform="rotate(-0 137 201.714377)">0.50</text>
     </g>
    </g>
    <g id="ytick_4">
     <g id="line2d_8">
      <g>
       <use xlink:href="#m4fb32cabbd" x="144" y="167.572971" style="stroke: #000000; stroke-width: 0.8"/>
      </g>
     </g>
     <g id="text_9">
      <text style="font: 12px 'DejaVu Sans', 'Bitstream Vera Sans', 'Computer Modern Sans Serif', 'Lucida Grande', 'Verdana', 'Geneva', 'Lucid', 'Arial', 'Helvetica', 'Avant Garde', sans-serif; text-anchor: end" x="137" y="172.132034" transform="rotate(-0 137 172.132034)">0.75</text>
     </g>
    </g>
    <g id="ytick_5">
     <g id="line2d_9">
      <g>
       <use xlink:href="#m4fb32cabbd" x="144" y="137.990628" style="stroke: #000000; stroke-width: 0.8"/>
      </g>
     </g>
     <g id="text_10">
      <text style="font: 12px 'DejaVu Sans', 'Bitstream Vera Sans', 'Computer Modern Sans Serif', 'Lucida Grande', 'Verdana', 'Geneva', 'Lucid', 'Arial', 'Helvetica', 'Avant Garde', sans-serif; text-anchor: end" x="137" y="142.549691" transform="rotate(-0 137 142.549691)">1.00</text>
     </g>
    </g>
    <g id="ytick_6">
     <g id="line2d_10">
      <g>
       <use xlink:href="#m4fb32cabbd" x="144" y="108.408285" style="stroke: #000000; stroke-width: 0.8"/>
      </g>
     </g>
     <g id="text_11">
      <text style="font: 12px 'DejaVu Sans', 'Bitstream Vera Sans', 'Computer Modern Sans Serif', 'Lucida Grande', 'Verdana', 'Geneva', 'Lucid', 'Arial', 'Helvetica', 'Avant Garde', sans-serif; text-anchor: end" x="137" y="112.967348" transform="rotate(-0 137 112.967348)">1.25</text>
     </g>
    </g>
    <g id="ytick_7">
     <g id="line2d_11">
      <g>
       <use xlink:href="#m4fb32cabbd" x="144" y="78.825942" style="stroke: #000000; stroke-width: 0.8"/>
      </g>
     </g>
     <g id="text_12">
      <text style="font: 12px 'DejaVu Sans', 'Bitstream Vera Sans', 'Computer Modern Sans Serif', 'Lucida Grande', 'Verdana', 'Geneva', 'Lucid', 'Arial', 'Helvetica', 'Avant Garde', sans-serif; text-anchor: end" x="137" y="83.385005" transform="rotate(-0 137 83.385005)">1.50</text>
     </g>
    </g>
    <g id="ytick_8">
     <g id="line2d_12">
      <g>
       <use xlink:href="#m4fb32cabbd" x="144" y="49.243599" style="stroke: #000000; stroke-width: 0.8"/>
      </g>
     </g>
     <g id="text_13">
      <text style="font: 12px 'DejaVu Sans', 'Bitstream Vera Sans', 'Computer Modern Sans Serif', 'Lucida Grande', 'Verdana', 'Geneva', 'Lucid', 'Arial', 'Helvetica', 'Avant Garde', sans-serif; text-anchor: end" x="137" y="53.802662" transform="rotate(-0 137 53.802662)">1.75</text>
     </g>
    </g>
    <g id="text_14">
     <text style="font: 12px 'DejaVu Sans', 'Bitstream Vera Sans', 'Computer Modern Sans Serif', 'Lucida Grande', 'Verdana', 'Geneva', 'Lucid', 'Arial', 'Helvetica', 'Avant Garde', sans-serif; text-anchor: middle" x="103.785625" y="145.44" transform="rotate(-90 103.785625 145.44)">Density</text>
    </g>
   </g>
   <g id="line2d_13">
    <path d="M 144 78.936534 
L 146.652406 79.223765 
L 149.304813 80.082672 
L 151.957219 81.504936 
L 154.609626 83.476847 
L 157.262032 85.979515 
L 159.914439 88.989179 
L 162.566845 92.477577 
L 165.219251 96.412391 
L 167.871658 100.757743 
L 170.524064 105.47474 
L 173.176471 110.522052 
L 175.828877 115.85651 
L 178.481283 121.43372 
L 181.13369 127.208667 
L 183.786096 133.136313 
L 186.438503 139.172167 
L 189.090909 145.272823 
L 191.743316 151.396452 
L 194.395722 157.503249 
L 197.048128 163.555821 
L 199.700535 169.519516 
L 202.352941 175.36269 
L 205.005348 181.056912 
L 207.657754 186.577097 
L 210.31016 191.901592 
L 212.962567 197.012187 
L 215.614973 201.894084 
L 218.26738 206.535807 
L 220.919786 210.929074 
L 223.572193 215.068626 
L 226.224599 218.952026 
L 228.877005 222.579429 
L 231.529412 225.953343 
L 234.181818 229.078364 
L 236.834225 231.960915 
L 239.486631 234.608975 
L 242.139037 237.031823 
L 244.791444 239.239779 
L 247.44385 241.243962 
L 250.096257 243.056067 
L 252.748663 244.688152 
L 255.40107 246.152449 
L 258.053476 247.461194 
L 260.705882 248.626478 
L 263.358289 249.660121 
L 266.010695 250.573565 
L 268.663102 251.377785 
L 271.315508 252.083223 
L 273.967914 252.699733 
L 276.620321 253.236554 
L 279.272727 253.702283 
L 281.925134 254.104866 
L 284.57754 254.451609 
L 287.229947 254.749181 
L 289.882353 255.00364 
L 292.534759 255.220452 
L 295.187166 255.404531 
L 297.839572 255.560262 
L 300.491979 255.691546 
L 303.144385 255.801828 
L 305.796791 255.894142 
L 308.449198 255.971145 
L 311.101604 256.035151 
L 313.754011 256.088167 
L 316.406417 256.131927 
L 319.058824 256.167922 
L 321.71123 256.197427 
L 324.363636 256.221528 
L 327.016043 256.241146 
L 329.668449 256.257061 
L 332.320856 256.269927 
L 334.973262 256.280291 
L 337.625668 256.288613 
L 340.278075 256.295271 
L 342.930481 256.30058 
L 345.582888 256.304799 
L 348.235294 256.308139 
L 350.887701 256.310776 
L 353.540107 256.31285 
L 356.192513 256.314475 
L 358.84492 256.315745 
L 361.497326 256.316734 
L 364.149733 256.317501 
L 366.802139 256.318094 
L 369.454545 256.318551 
L 372.106952 256.318902 
L 374.759358 256.319171 
L 377.411765 256.319376 
L 380.064171 256.319532 
L 382.716578 256.31965 
L 385.368984 256.319739 
L 388.02139 256.319806 
L 390.673797 256.319856 
L 393.326203 256.319894 
L 395.97861 256.319922 
L 398.631016 256.319943 
L 401.283422 256.319958 
L 403.935829 256.319969 
L 406.588235 256.319978 
" clip-path="url(#pe2ff96f951)" style="fill: none; stroke: #ff0000; stroke-width: 1.5; stroke-linecap: square"/>
   </g>
   <g id="line2d_14">
    <path d="M 144 161.906821 
L 146.652406 161.95016 
L 149.304813 162.080056 
L 151.957219 162.296153 
L 154.609626 162.597857 
L 157.262032 162.984339 
L 159.914439 163.454543 
L 162.566845 164.007186 
L 165.219251 164.640765 
L 167.871658 165.353565 
L 170.524064 166.143669 
L 173.176471 167.008959 
L 175.828877 167.947135 
L 178.481283 168.955716 
L 181.13369 170.032059 
L 183.786096 171.173365 
L 186.438503 172.376694 
L 189.090909 173.638975 
L 191.743316 174.957023 
L 194.395722 176.327548 
L 197.048128 177.747172 
L 199.700535 179.21244 
L 202.352941 180.719836 
L 205.005348 182.265798 
L 207.657754 183.846726 
L 210.31016 185.459004 
L 212.962567 187.099007 
L 215.614973 188.763119 
L 218.26738 190.447741 
L 220.919786 192.149308 
L 223.572193 193.864298 
L 226.224599 195.589249 
L 228.877005 197.32076 
L 231.529412 199.055512 
L 234.181818 200.790273 
L 236.834225 202.521905 
L 239.486631 204.247377 
L 242.139037 205.963769 
L 244.791444 207.668283 
L 247.44385 209.358244 
L 250.096257 211.03111 
L 252.748663 212.684472 
L 255.40107 214.316065 
L 258.053476 215.923761 
L 260.705882 217.505582 
L 263.358289 219.059693 
L 266.010695 220.584408 
L 268.663102 222.078189 
L 271.315508 223.539644 
L 273.967914 224.967527 
L 276.620321 226.360735 
L 279.272727 227.71831 
L 281.925134 229.039431 
L 284.57754 230.323411 
L 287.229947 231.569698 
L 289.882353 232.777865 
L 292.534759 233.94761 
L 295.187166 235.078748 
L 297.839572 236.171207 
L 300.491979 237.225022 
L 303.144385 238.24033 
L 305.796791 239.217365 
L 308.449198 240.15645 
L 311.101604 241.057992 
L 313.754011 241.922476 
L 316.406417 242.75046 
L 319.058824 243.542566 
L 321.71123 244.299477 
L 324.363636 245.021929 
L 327.016043 245.710708 
L 329.668449 246.366639 
L 332.320856 246.990588 
L 334.973262 247.58345 
L 337.625668 248.146146 
L 340.278075 248.679619 
L 342.930481 249.18483 
L 345.582888 249.662751 
L 348.235294 250.114361 
L 350.887701 250.540644 
L 353.540107 250.942585 
L 356.192513 251.321164 
L 358.84492 251.677356 
L 361.497326 252.012125 
L 364.149733 252.326424 
L 366.802139 252.62119 
L 369.454545 252.897343 
L 372.106952 253.155786 
L 374.759358 253.397399 
L 377.411765 253.62304 
L 380.064171 253.833545 
L 382.716578 254.029724 
L 385.368984 254.21236 
L 388.02139 254.382213 
L 390.673797 254.540013 
L 393.326203 254.686463 
L 395.97861 254.82224 
L 398.631016 254.947992 
L 401.283422 255.064339 
L 403.935829 255.171874 
L 406.588235 255.271164 
" clip-path="url(#pe2ff96f951)" style="fill: none; stroke: #0000ff; stroke-width: 1.5; stroke-linecap: square"/>
   </g>
   <g id="patch_22">
    <path d="M 144 256.32 
L 144 34.56 
" style="fill: none; stroke: #000000; stroke-width: 0.8; stroke-linejoin: miter; stroke-linecap: square"/>
   </g>
   <g id="patch_23">
    <path d="M 406.588235 256.32 
L 406.588235 34.56 
" style="fill: none; stroke: #000000; stroke-width: 0.8; stroke-linejoin: miter; stroke-linecap: square"/>
   </g>
   <g id="patch_24">
    <path d="M 144 256.32 
L 406.588235 256.32 
" style="fill: none; stroke: #000000; stroke-width: 0.8; stroke-linejoin: miter; stroke-linecap: square"/>
   </g>
   <g id="patch_25">
    <path d="M 144 34.56 
L 406.588235 34.56 
" style="fill: none; stroke: #000000; stroke-width: 0.8; stroke-linejoin: miter; stroke-linecap: square"/>
   </g>
  </g>
  <g id="axes_2">
   <g id="patch_26">
    <path d="M 459.105882 256.32 
L 721.694118 256.32 
L 721.694118 34.56 
L 459.105882 34.56 
z
" style="fill: #ffffff"/>
   </g>
   <g id="patch_27">
    <path d="M 459.105882 256.32 
L 482.139938 256.32 
L 482.139938 122.56 
L 459.105882 122.56 
z
" clip-path="url(#p3ea8f70ed7)" style="fill: #1f77b4"/>
   </g>
   <g id="patch_28">
    <path d="M 482.139938 256.32 
L 505.173994 256.32 
L 505.173994 45.12 
L 482.139938 45.12 
z
" clip-path="url(#p3ea8f70ed7)" style="fill: #1f77b4"/>
   </g>
   <g id="patch_29">
    <path d="M 505.173994 256.32 
L 528.20805 256.32 
L 528.20805 66.24 
L 505.173994 66.24 
z
" clip-path="url(#p3ea8f70ed7)" style="fill: #1f77b4"/>
   </g>
   <g id="patch_30">
    <path d="M 528.20805 256.32 
L 551.242105 256.32 
L 551.242105 52.16 
L 528.20805 52.16 
z
" clip-path="url(#p3ea8f70ed7)" style="fill: #1f77b4"/>
   </g>
   <g id="patch_31">
    <path d="M 551.242105 256.32 
L 574.276161 256.32 
L 574.276161 150.72 
L 551.242105 150.72 
z
" clip-path="url(#p3ea8f70ed7)" style="fill: #1f77b4"/>
   </g>
   <g id="patch_32">
    <path d="M 574.276161 256.32 
L 597.310217 256.32 
L 597.310217 192.96 
L 574.276161 192.96 
z
" clip-path="url(#p3ea8f70ed7)" style="fill: #1f77b4"/>
   </g>
   <g id="patch_33">
    <path d="M 597.310217 256.32 
L 620.344272 256.32 
L 620.344272 235.2 
L 597.310217 235.2 
z
" clip-path="url(#p3ea8f70ed7)" style="fill: #1f77b4"/>
   </g>
   <g id="patch_34">
    <path d="M 620.344272 256.32 
L 643.378328 256.32 
L 643.378328 256.32 
L 620.344272 256.32 
z
" clip-path="url(#p3ea8f70ed7)" style="fill: #1f77b4"/>
   </g>
   <g id="patch_35">
    <path d="M 643.378328 256.32 
L 666.412384 256.32 
L 666.412384 256.32 
L 643.378328 256.32 
z
" clip-path="url(#p3ea8f70ed7)" style="fill: #1f77b4"/>
   </g>
   <g id="patch_36">
    <path d="M 666.412384 256.32 
L 689.44644 256.32 
L 689.44644 256.32 
L 666.412384 256.32 
z
" clip-path="url(#p3ea8f70ed7)" style="fill: #1f77b4"/>
   </g>
   <g id="patch_37">
    <path d="M 689.44644 256.32 
L 712.480495 256.32 
L 712.480495 256.32 
L 689.44644 256.32 
z
" clip-path="url(#p3ea8f70ed7)" style="fill: #1f77b4"/>
   </g>
   <g id="patch_38">
    <path d="M 712.480495 256.32 
L 735.514551 256.32 
L 735.514551 256.32 
L 712.480495 256.32 
z
" clip-path="url(#p3ea8f70ed7)" style="fill: #1f77b4"/>
   </g>
   <g id="patch_39">
    <path d="M 735.514551 256.32 
L 758.548607 256.32 
L 758.548607 256.32 
L 735.514551 256.32 
z
" clip-path="url(#p3ea8f70ed7)" style="fill: #1f77b4"/>
   </g>
   <g id="patch_40">
    <path d="M 758.548607 256.32 
L 781.582663 256.32 
L 781.582663 256.32 
L 758.548607 256.32 
z
" clip-path="url(#p3ea8f70ed7)" style="fill: #1f77b4"/>
   </g>
   <g id="patch_41">
    <path d="M 781.582663 256.32 
L 804.616718 256.32 
L 804.616718 256.32 
L 781.582663 256.32 
z
" clip-path="url(#p3ea8f70ed7)" style="fill: #1f77b4"/>
   </g>
   <g id="patch_42">
    <path d="M 804.616718 256.32 
L 827.650774 256.32 
L 827.650774 256.32 
L 804.616718 256.32 
z
" clip-path="url(#p3ea8f70ed7)" style="fill: #1f77b4"/>
   </g>
   <g id="patch_43">
    <path d="M 827.650774 256.32 
L 850.68483 256.32 
L 850.68483 256.32 
L 827.650774 256.32 
z
" clip-path="url(#p3ea8f70ed7)" style="fill: #1f77b4"/>
   </g>
   <g id="patch_44">
    <path d="M 850.68483 256.32 
L 873.718885 256.32 
L 873.718885 256.32 
L 850.68483 256.32 
z
" clip-path="url(#p3ea8f70ed7)" style="fill: #1f77b4"/>
   </g>
   <g id="patch_45">
    <path d="M 873.718885 256.32 
L 896.752941 256.32 
L 896.752941 256.32 
L 873.718885 256.32 
z
" clip-path="url(#p3ea8f70ed7)" style="fill: #1f77b4"/>
   </g>
   <g id="matplotlib.axis_3">
    <g id="xtick_5">
     <g id="line2d_15">
      <g>
       <use xlink:href="#m7d8de1b947" x="459.105882" y="256.32" style="stroke: #000000; stroke-width: 0.8"/>
      </g>
     </g>
     <g id="text_15">
      <text style="font: 12px 'DejaVu Sans', 'Bitstream Vera Sans', 'Computer Modern Sans Serif', 'Lucida Grande', 'Verdana', 'Geneva', 'Lucid', 'Arial', 'Helvetica', 'Avant Garde', sans-serif; text-anchor: middle" x="459.105882" y="272.438125" transform="rotate(-0 459.105882 272.438125)">0</text>
     </g>
    </g>
    <g id="xtick_6">
     <g id="line2d_16">
      <g>
       <use xlink:href="#m7d8de1b947" x="546.635294" y="256.32" style="stroke: #000000; stroke-width: 0.8"/>
      </g>
     </g>
     <g id="text_16">
      <text style="font: 12px 'DejaVu Sans', 'Bitstream Vera Sans', 'Computer Modern Sans Serif', 'Lucida Grande', 'Verdana', 'Geneva', 'Lucid', 'Arial', 'Helvetica', 'Avant Garde', sans-serif; text-anchor: middle" x="546.635294" y="272.438125" transform="rotate(-0 546.635294 272.438125)">1</text>
     </g>
    </g>
    <g id="xtick_7">
     <g id="line2d_17">
      <g>
       <use xlink:href="#m7d8de1b947" x="634.164706" y="256.32" style="stroke: #000000; stroke-width: 0.8"/>
      </g>
     </g>
     <g id="text_17">
      <text style="font: 12px 'DejaVu Sans', 'Bitstream Vera Sans', 'Computer Modern Sans Serif', 'Lucida Grande', 'Verdana', 'Geneva', 'Lucid', 'Arial', 'Helvetica', 'Avant Garde', sans-serif; text-anchor: middle" x="634.164706" y="272.438125" transform="rotate(-0 634.164706 272.438125)">2</text>
     </g>
    </g>
    <g id="xtick_8">
     <g id="line2d_18">
      <g>
       <use xlink:href="#m7d8de1b947" x="721.694118" y="256.32" style="stroke: #000000; stroke-width: 0.8"/>
      </g>
     </g>
     <g id="text_18">
      <text style="font: 12px 'DejaVu Sans', 'Bitstream Vera Sans', 'Computer Modern Sans Serif', 'Lucida Grande', 'Verdana', 'Geneva', 'Lucid', 'Arial', 'Helvetica', 'Avant Garde', sans-serif; text-anchor: middle" x="721.694118" y="272.438125" transform="rotate(-0 721.694118 272.438125)">3</text>
     </g>
    </g>
    <g id="text_19">
     <text style="font: 12px 'DejaVu Sans', 'Bitstream Vera Sans', 'Computer Modern Sans Serif', 'Lucida Grande', 'Verdana', 'Geneva', 'Lucid', 'Arial', 'Helvetica', 'Avant Garde', sans-serif; text-anchor: middle" x="590.4" y="288.051875" transform="rotate(-0 590.4 288.051875)">SF amplitude (inhibitor)</text>
    </g>
   </g>
   <g id="matplotlib.axis_4">
    <g id="ytick_9">
     <g id="line2d_19">
      <g>
       <use xlink:href="#m4fb32cabbd" x="459.105882" y="256.32" style="stroke: #000000; stroke-width: 0.8"/>
      </g>
     </g>
     <g id="text_20">
      <text style="font: 12px 'DejaVu Sans', 'Bitstream Vera Sans', 'Computer Modern Sans Serif', 'Lucida Grande', 'Verdana', 'Geneva', 'Lucid', 'Arial', 'Helvetica', 'Avant Garde', sans-serif; text-anchor: end" x="452.105882" y="260.879063" transform="rotate(-0 452.105882 260.879063)">0.0</text>
     </g>
    </g>
    <g id="ytick_10">
     <g id="line2d_20">
      <g>
       <use xlink:href="#m4fb32cabbd" x="459.105882" y="207.410526" style="stroke: #000000; stroke-width: 0.8"/>
      </g>
     </g>
     <g id="text_21">
      <text style="font: 12px 'DejaVu Sans', 'Bitstream Vera Sans', 'Computer Modern Sans Serif', 'Lucida Grande', 'Verdana', 'Geneva', 'Lucid', 'Arial', 'Helvetica', 'Avant Garde', sans-serif; text-anchor: end" x="452.105882" y="211.969589" transform="rotate(-0 452.105882 211.969589)">0.2</text>
     </g>
    </g>
    <g id="ytick_11">
     <g id="line2d_21">
      <g>
       <use xlink:href="#m4fb32cabbd" x="459.105882" y="158.501053" style="stroke: #000000; stroke-width: 0.8"/>
      </g>
     </g>
     <g id="text_22">
      <text style="font: 12px 'DejaVu Sans', 'Bitstream Vera Sans', 'Computer Modern Sans Serif', 'Lucida Grande', 'Verdana', 'Geneva', 'Lucid', 'Arial', 'Helvetica', 'Avant Garde', sans-serif; text-anchor: end" x="452.105882" y="163.060115" transform="rotate(-0 452.105882 163.060115)">0.4</text>
     </g>
    </g>
    <g id="ytick_12">
     <g id="line2d_22">
      <g>
       <use xlink:href="#m4fb32cabbd" x="459.105882" y="109.591579" style="stroke: #000000; stroke-width: 0.8"/>
      </g>
     </g>
     <g id="text_23">
      <text style="font: 12px 'DejaVu Sans', 'Bitstream Vera Sans', 'Computer Modern Sans Serif', 'Lucida Grande', 'Verdana', 'Geneva', 'Lucid', 'Arial', 'Helvetica', 'Avant Garde', sans-serif; text-anchor: end" x="452.105882" y="114.150641" transform="rotate(-0 452.105882 114.150641)">0.6</text>
     </g>
    </g>
    <g id="ytick_13">
     <g id="line2d_23">
      <g>
       <use xlink:href="#m4fb32cabbd" x="459.105882" y="60.682105" style="stroke: #000000; stroke-width: 0.8"/>
      </g>
     </g>
     <g id="text_24">
      <text style="font: 12px 'DejaVu Sans', 'Bitstream Vera Sans', 'Computer Modern Sans Serif', 'Lucida Grande', 'Verdana', 'Geneva', 'Lucid', 'Arial', 'Helvetica', 'Avant Garde', sans-serif; text-anchor: end" x="452.105882" y="65.241168" transform="rotate(-0 452.105882 65.241168)">0.8</text>
     </g>
    </g>
   </g>
   <g id="line2d_24">
    <path d="M 459.105882 62.046577 
L 461.758289 61.956898 
L 464.410695 61.691036 
L 467.063102 61.258456 
L 469.715508 60.674703 
L 472.367914 59.961068 
L 475.020321 59.14413 
L 477.672727 58.255183 
L 480.325134 57.329567 
L 482.97754 56.405912 
L 485.629947 55.525322 
L 488.282353 54.730501 
L 490.934759 54.064864 
L 493.587166 53.571629 
L 496.239572 53.292928 
L 498.891979 53.268949 
L 501.544385 53.537126 
L 504.196791 54.131398 
L 506.849198 55.081548 
L 509.501604 56.412643 
L 512.154011 58.144567 
L 514.806417 60.291681 
L 517.458824 62.86259 
L 520.11123 65.860033 
L 522.763636 69.280893 
L 525.416043 73.116314 
L 528.068449 77.351938 
L 530.720856 81.968229 
L 533.373262 86.940895 
L 536.025668 92.241382 
L 538.678075 97.837433 
L 541.330481 103.693694 
L 543.982888 109.772354 
L 546.635294 116.033806 
L 549.287701 122.437308 
L 551.940107 128.941635 
L 554.592513 135.505711 
L 557.24492 142.089205 
L 559.897326 148.653074 
L 562.549733 155.160067 
L 565.202139 161.575153 
L 567.854545 167.865895 
L 570.506952 174.002752 
L 573.159358 179.959306 
L 575.811765 185.712423 
L 578.464171 191.242354 
L 581.116578 196.532756 
L 583.768984 201.570666 
L 586.42139 206.346417 
L 589.073797 210.853503 
L 591.726203 215.088407 
L 594.37861 219.050393 
L 597.031016 222.741271 
L 599.683422 226.165147 
L 602.335829 229.328147 
L 604.988235 232.238155 
L 607.640642 234.904531 
L 610.293048 237.337846 
L 612.945455 239.549622 
L 615.597861 241.552087 
L 618.250267 243.357946 
L 620.902674 244.980171 
L 623.55508 246.431809 
L 626.207487 247.72582 
L 628.859893 248.874924 
L 631.512299 249.891487 
L 634.164706 250.78741 
L 636.817112 251.574053 
L 639.469519 252.262175 
L 642.121925 252.861881 
L 644.774332 253.382605 
L 647.426738 253.833087 
L 650.079144 254.221376 
L 652.731551 254.55484 
L 655.383957 254.840179 
L 658.036364 255.083456 
L 660.68877 255.290122 
L 663.341176 255.465058 
L 665.993583 255.612603 
L 668.645989 255.736602 
L 671.298396 255.840441 
L 673.950802 255.927089 
L 676.603209 255.999135 
L 679.255615 256.058829 
L 681.908021 256.108114 
L 684.560428 256.148662 
L 687.212834 256.181904 
L 689.865241 256.209061 
L 692.517647 256.231169 
L 695.170053 256.249105 
L 697.82246 256.263605 
L 700.474866 256.275286 
L 703.127273 256.284663 
L 705.779679 256.292166 
L 708.432086 256.298147 
L 711.084492 256.3029 
L 713.736898 256.306662 
L 716.389305 256.309631 
L 719.041711 256.311965 
L 721.694118 256.313795 
" clip-path="url(#p3ea8f70ed7)" style="fill: none; stroke: #ff0000; stroke-width: 1.5; stroke-linecap: square"/>
   </g>
   <g id="line2d_25">
    <path d="M 459.105882 61.19943 
L 461.758289 61.288997 
L 464.410695 61.55745 
L 467.063102 62.00405 
L 469.715508 62.627571 
L 472.367914 63.426301 
L 475.020321 64.398056 
L 477.672727 65.540184 
L 480.325134 66.84958 
L 482.97754 68.322702 
L 485.629947 69.955582 
L 488.282353 71.74385 
L 490.934759 73.682745 
L 493.587166 75.767147 
L 496.239572 77.991589 
L 498.891979 80.350288 
L 501.544385 82.837167 
L 504.196791 85.445882 
L 506.849198 88.169848 
L 509.501604 91.002266 
L 512.154011 93.936155 
L 514.806417 96.964376 
L 517.458824 100.079662 
L 520.11123 103.274648 
L 522.763636 106.5419 
L 525.416043 109.873942 
L 528.068449 113.263282 
L 530.720856 116.702446 
L 533.373262 120.183998 
L 536.025668 123.700569 
L 538.678075 127.244884 
L 541.330481 130.80978 
L 543.982888 134.388237 
L 546.635294 137.973392 
L 549.287701 141.558564 
L 551.940107 145.13727 
L 554.592513 148.703245 
L 557.24492 152.250457 
L 559.897326 155.773119 
L 562.549733 159.265705 
L 565.202139 162.72296 
L 567.854545 166.13991 
L 570.506952 169.511867 
L 573.159358 172.83444 
L 575.811765 176.103536 
L 578.464171 179.315366 
L 581.116578 182.466444 
L 583.768984 185.553592 
L 586.42139 188.573931 
L 589.073797 191.524888 
L 591.726203 194.404186 
L 594.37861 197.209841 
L 597.031016 199.940157 
L 599.683422 202.593716 
L 602.335829 205.169376 
L 604.988235 207.666255 
L 607.640642 210.083728 
L 610.293048 212.421413 
L 612.945455 214.679161 
L 615.597861 216.857045 
L 618.250267 218.955348 
L 620.902674 220.974554 
L 623.55508 222.915329 
L 626.207487 224.778516 
L 628.859893 226.565117 
L 631.512299 228.276283 
L 634.164706 229.913302 
L 636.817112 231.477585 
L 639.469519 232.970653 
L 642.121925 234.394129 
L 644.774332 235.749722 
L 647.426738 237.039216 
L 650.079144 238.264463 
L 652.731551 239.427368 
L 655.383957 240.52988 
L 658.036364 241.573983 
L 660.68877 242.561685 
L 663.341176 243.495012 
L 665.993583 244.375998 
L 668.645989 245.206676 
L 671.298396 245.989073 
L 673.950802 246.725203 
L 676.603209 247.417059 
L 679.255615 248.066609 
L 681.908021 248.675792 
L 684.560428 249.246509 
L 687.212834 249.780624 
L 689.865241 250.279957 
L 692.517647 250.746283 
L 695.170053 251.181327 
L 697.82246 251.586763 
L 700.474866 251.964212 
L 703.127273 252.31524 
L 705.779679 252.641359 
L 708.432086 252.944023 
L 711.084492 253.224629 
L 713.736898 253.484516 
L 716.389305 253.724967 
L 719.041711 253.947207 
L 721.694118 254.152406 
" clip-path="url(#p3ea8f70ed7)" style="fill: none; stroke: #0000ff; stroke-width: 1.5; stroke-linecap: square"/>
   </g>
   <g id="patch_46">
    <path d="M 459.105882 256.32 
L 459.105882 34.56 
" style="fill: none; stroke: #000000; stroke-width: 0.8; stroke-linejoin: miter; stroke-linecap: square"/>
   </g>
   <g id="patch_47">
    <path d="M 721.694118 256.32 
L 721.694118 34.56 
" style="fill: none; stroke: #000000; stroke-width: 0.8; stroke-linejoin: miter; stroke-linecap: square"/>
   </g>
   <g id="patch_48">
    <path d="M 459.105882 256.32 
L 721.694118 256.32 
" style="fill: none; stroke: #000000; stroke-width: 0.8; stroke-linejoin: miter; stroke-linecap: square"/>
   </g>
   <g id="patch_49">
    <path d="M 459.105882 34.56 
L 721.694118 34.56 
" style="fill: none; stroke: #000000; stroke-width: 0.8; stroke-linejoin: miter; stroke-linecap: square"/>
   </g>
  </g>
  <g id="axes_3">
   <g id="patch_50">
    <path d="M 774.211765 256.32 
L 1036.8 256.32 
L 1036.8 34.56 
L 774.211765 34.56 
z
" style="fill: #ffffff"/>
   </g>
   <g id="patch_51">
    <path d="M 774.211765 256.32 
L 797.24582 256.32 
L 797.24582 248.641681 
L 774.211765 248.641681 
z
" clip-path="url(#p5bea3b924d)" style="fill: #1f77b4"/>
   </g>
   <g id="patch_52">
    <path d="M 797.24582 256.32 
L 820.279876 256.32 
L 820.279876 240.963362 
L 797.24582 240.963362 
z
" clip-path="url(#p5bea3b924d)" style="fill: #1f77b4"/>
   </g>
   <g id="patch_53">
    <path d="M 820.279876 256.32 
L 843.313932 256.32 
L 843.313932 217.928405 
L 820.279876 217.928405 
z
" clip-path="url(#p5bea3b924d)" style="fill: #1f77b4"/>
   </g>
   <g id="patch_54">
    <path d="M 843.313932 256.32 
L 866.347988 256.32 
L 866.347988 171.858491 
L 843.313932 171.858491 
z
" clip-path="url(#p5bea3b924d)" style="fill: #1f77b4"/>
   </g>
   <g id="patch_55">
    <path d="M 866.347988 256.32 
L 889.382043 256.32 
L 889.382043 125.788576 
L 866.347988 125.788576 
z
" clip-path="url(#p5bea3b924d)" style="fill: #1f77b4"/>
   </g>
   <g id="patch_56">
    <path d="M 889.382043 256.32 
L 912.416099 256.32 
L 912.416099 56.683705 
L 889.382043 56.683705 
z
" clip-path="url(#p5bea3b924d)" style="fill: #1f77b4"/>
   </g>
   <g id="patch_57">
    <path d="M 912.416099 256.32 
L 935.450155 256.32 
L 935.450155 102.753619 
L 912.416099 102.753619 
z
" clip-path="url(#p5bea3b924d)" style="fill: #1f77b4"/>
   </g>
   <g id="patch_58">
    <path d="M 935.450155 256.32 
L 958.484211 256.32 
L 958.484211 56.683705 
L 935.450155 56.683705 
z
" clip-path="url(#p5bea3b924d)" style="fill: #1f77b4"/>
   </g>
   <g id="patch_59">
    <path d="M 958.484211 256.32 
L 981.518266 256.32 
L 981.518266 164.180172 
L 958.484211 164.180172 
z
" clip-path="url(#p5bea3b924d)" style="fill: #1f77b4"/>
   </g>
   <g id="patch_60">
    <path d="M 981.518266 256.32 
L 1004.552322 256.32 
L 1004.552322 210.250086 
L 981.518266 210.250086 
z
" clip-path="url(#p5bea3b924d)" style="fill: #1f77b4"/>
   </g>
   <g id="patch_61">
    <path d="M 1004.552322 256.32 
L 1027.586378 256.32 
L 1027.586378 233.285043 
L 1004.552322 233.285043 
z
" clip-path="url(#p5bea3b924d)" style="fill: #1f77b4"/>
   </g>
   <g id="patch_62">
    <path d="M 1027.586378 256.32 
L 1050.620433 256.32 
L 1050.620433 240.963362 
L 1027.586378 240.963362 
z
" clip-path="url(#p5bea3b924d)" style="fill: #1f77b4"/>
   </g>
   <g id="patch_63">
    <path d="M 1050.620433 256.32 
L 1073.654489 256.32 
L 1073.654489 256.32 
L 1050.620433 256.32 
z
" clip-path="url(#p5bea3b924d)" style="fill: #1f77b4"/>
   </g>
   <g id="patch_64">
    <path d="M 1073.654489 256.32 
L 1096.688545 256.32 
L 1096.688545 256.32 
L 1073.654489 256.32 
z
" clip-path="url(#p5bea3b924d)" style="fill: #1f77b4"/>
   </g>
   <g id="patch_65">
    <path d="M 1096.688545 256.32 
L 1119.722601 256.32 
L 1119.722601 256.32 
L 1096.688545 256.32 
z
" clip-path="url(#p5bea3b924d)" style="fill: #1f77b4"/>
   </g>
   <g id="patch_66">
    <path d="M 1119.722601 256.32 
L 1142.756656 256.32 
L 1142.756656 256.32 
L 1119.722601 256.32 
z
" clip-path="url(#p5bea3b924d)" style="fill: #1f77b4"/>
   </g>
   <g id="patch_67">
    <path d="M 1142.756656 256.32 
L 1165.790712 256.32 
L 1165.790712 256.32 
L 1142.756656 256.32 
z
" clip-path="url(#p5bea3b924d)" style="fill: #1f77b4"/>
   </g>
   <g id="patch_68">
    <path d="M 1165.790712 256.32 
L 1188.824768 256.32 
L 1188.824768 256.32 
L 1165.790712 256.32 
z
" clip-path="url(#p5bea3b924d)" style="fill: #1f77b4"/>
   </g>
   <g id="patch_69">
    <path d="M 1188.824768 256.32 
L 1211.858824 256.32 
L 1211.858824 256.32 
L 1188.824768 256.32 
z
" clip-path="url(#p5bea3b924d)" style="fill: #1f77b4"/>
   </g>
   <g id="matplotlib.axis_5">
    <g id="xtick_9">
     <g id="line2d_26">
      <g>
       <use xlink:href="#m7d8de1b947" x="774.211765" y="256.32" style="stroke: #000000; stroke-width: 0.8"/>
      </g>
     </g>
     <g id="text_25">
      <text style="font: 12px 'DejaVu Sans', 'Bitstream Vera Sans', 'Computer Modern Sans Serif', 'Lucida Grande', 'Verdana', 'Geneva', 'Lucid', 'Arial', 'Helvetica', 'Avant Garde', sans-serif; text-anchor: middle" x="774.211765" y="272.438125" transform="rotate(-0 774.211765 272.438125)">0</text>
     </g>
    </g>
    <g id="xtick_10">
     <g id="line2d_27">
      <g>
       <use xlink:href="#m7d8de1b947" x="861.741176" y="256.32" style="stroke: #000000; stroke-width: 0.8"/>
      </g>
     </g>
     <g id="text_26">
      <text style="font: 12px 'DejaVu Sans', 'Bitstream Vera Sans', 'Computer Modern Sans Serif', 'Lucida Grande', 'Verdana', 'Geneva', 'Lucid', 'Arial', 'Helvetica', 'Avant Garde', sans-serif; text-anchor: middle" x="861.741176" y="272.438125" transform="rotate(-0 861.741176 272.438125)">1</text>
     </g>
    </g>
    <g id="xtick_11">
     <g id="line2d_28">
      <g>
       <use xlink:href="#m7d8de1b947" x="949.270588" y="256.32" style="stroke: #000000; stroke-width: 0.8"/>
      </g>
     </g>
     <g id="text_27">
      <text style="font: 12px 'DejaVu Sans', 'Bitstream Vera Sans', 'Computer Modern Sans Serif', 'Lucida Grande', 'Verdana', 'Geneva', 'Lucid', 'Arial', 'Helvetica', 'Avant Garde', sans-serif; text-anchor: middle" x="949.270588" y="272.438125" transform="rotate(-0 949.270588 272.438125)">2</text>
     </g>
    </g>
    <g id="xtick_12">
     <g id="line2d_29">
      <g>
       <use xlink:href="#m7d8de1b947" x="1036.8" y="256.32" style="stroke: #000000; stroke-width: 0.8"/>
      </g>
     </g>
     <g id="text_28">
      <text style="font: 12px 'DejaVu Sans', 'Bitstream Vera Sans', 'Computer Modern Sans Serif', 'Lucida Grande', 'Verdana', 'Geneva', 'Lucid', 'Arial', 'Helvetica', 'Avant Garde', sans-serif; text-anchor: middle" x="1036.8" y="272.438125" transform="rotate(-0 1036.8 272.438125)">3</text>
     </g>
    </g>
    <g id="text_29">
     <text style="font: 12px 'DejaVu Sans', 'Bitstream Vera Sans', 'Computer Modern Sans Serif', 'Lucida Grande', 'Verdana', 'Geneva', 'Lucid', 'Arial', 'Helvetica', 'Avant Garde', sans-serif; text-anchor: middle" x="905.505882" y="288.051875" transform="rotate(-0 905.505882 288.051875)">SF amplitude (inhibitor)</text>
    </g>
   </g>
   <g id="matplotlib.axis_6">
    <g id="ytick_14">
     <g id="line2d_30">
      <g>
       <use xlink:href="#m4fb32cabbd" x="774.211765" y="256.32" style="stroke: #000000; stroke-width: 0.8"/>
      </g>
     </g>
     <g id="text_30">
      <text style="font: 12px 'DejaVu Sans', 'Bitstream Vera Sans', 'Computer Modern Sans Serif', 'Lucida Grande', 'Verdana', 'Geneva', 'Lucid', 'Arial', 'Helvetica', 'Avant Garde', sans-serif; text-anchor: end" x="767.211765" y="260.879063" transform="rotate(-0 767.211765 260.879063)">0.0</text>
     </g>
    </g>
    <g id="ytick_15">
     <g id="line2d_31">
      <g>
       <use xlink:href="#m4fb32cabbd" x="774.211765" y="229.850005" style="stroke: #000000; stroke-width: 0.8"/>
      </g>
     </g>
     <g id="text_31">
      <text style="font: 12px 'DejaVu Sans', 'Bitstream Vera Sans', 'Computer Modern Sans Serif', 'Lucida Grande', 'Verdana', 'Geneva', 'Lucid', 'Arial', 'Helvetica', 'Avant Garde', sans-serif; text-anchor: end" x="767.211765" y="234.409068" transform="rotate(-0 767.211765 234.409068)">0.1</text>
     </g>
    </g>
    <g id="ytick_16">
     <g id="line2d_32">
      <g>
       <use xlink:href="#m4fb32cabbd" x="774.211765" y="203.380011" style="stroke: #000000; stroke-width: 0.8"/>
      </g>
     </g>
     <g id="text_32">
      <text style="font: 12px 'DejaVu Sans', 'Bitstream Vera Sans', 'Computer Modern Sans Serif', 'Lucida Grande', 'Verdana', 'Geneva', 'Lucid', 'Arial', 'Helvetica', 'Avant Garde', sans-serif; text-anchor: end" x="767.211765" y="207.939073" transform="rotate(-0 767.211765 207.939073)">0.2</text>
     </g>
    </g>
    <g id="ytick_17">
     <g id="line2d_33">
      <g>
       <use xlink:href="#m4fb32cabbd" x="774.211765" y="176.910016" style="stroke: #000000; stroke-width: 0.8"/>
      </g>
     </g>
     <g id="text_33">
      <text style="font: 12px 'DejaVu Sans', 'Bitstream Vera Sans', 'Computer Modern Sans Serif', 'Lucida Grande', 'Verdana', 'Geneva', 'Lucid', 'Arial', 'Helvetica', 'Avant Garde', sans-serif; text-anchor: end" x="767.211765" y="181.469079" transform="rotate(-0 767.211765 181.469079)">0.3</text>
     </g>
    </g>
    <g id="ytick_18">
     <g id="line2d_34">
      <g>
       <use xlink:href="#m4fb32cabbd" x="774.211765" y="150.440022" style="stroke: #000000; stroke-width: 0.8"/>
      </g>
     </g>
     <g id="text_34">
      <text style="font: 12px 'DejaVu Sans', 'Bitstream Vera Sans', 'Computer Modern Sans Serif', 'Lucida Grande', 'Verdana', 'Geneva', 'Lucid', 'Arial', 'Helvetica', 'Avant Garde', sans-serif; text-anchor: end" x="767.211765" y="154.999084" transform="rotate(-0 767.211765 154.999084)">0.4</text>
     </g>
    </g>
    <g id="ytick_19">
     <g id="line2d_35">
      <g>
       <use xlink:href="#m4fb32cabbd" x="774.211765" y="123.970027" style="stroke: #000000; stroke-width: 0.8"/>
      </g>
     </g>
     <g id="text_35">
      <text style="font: 12px 'DejaVu Sans', 'Bitstream Vera Sans', 'Computer Modern Sans Serif', 'Lucida Grande', 'Verdana', 'Geneva', 'Lucid', 'Arial', 'Helvetica', 'Avant Garde', sans-serif; text-anchor: end" x="767.211765" y="128.52909" transform="rotate(-0 767.211765 128.52909)">0.5</text>
     </g>
    </g>
    <g id="ytick_20">
     <g id="line2d_36">
      <g>
       <use xlink:href="#m4fb32cabbd" x="774.211765" y="97.500033" style="stroke: #000000; stroke-width: 0.8"/>
      </g>
     </g>
     <g id="text_36">
      <text style="font: 12px 'DejaVu Sans', 'Bitstream Vera Sans', 'Computer Modern Sans Serif', 'Lucida Grande', 'Verdana', 'Geneva', 'Lucid', 'Arial', 'Helvetica', 'Avant Garde', sans-serif; text-anchor: end" x="767.211765" y="102.059095" transform="rotate(-0 767.211765 102.059095)">0.6</text>
     </g>
    </g>
    <g id="ytick_21">
     <g id="line2d_37">
      <g>
       <use xlink:href="#m4fb32cabbd" x="774.211765" y="71.030038" style="stroke: #000000; stroke-width: 0.8"/>
      </g>
     </g>
     <g id="text_37">
      <text style="font: 12px 'DejaVu Sans', 'Bitstream Vera Sans', 'Computer Modern Sans Serif', 'Lucida Grande', 'Verdana', 'Geneva', 'Lucid', 'Arial', 'Helvetica', 'Avant Garde', sans-serif; text-anchor: end" x="767.211765" y="75.5891" transform="rotate(-0 767.211765 75.5891)">0.7</text>
     </g>
    </g>
    <g id="ytick_22">
     <g id="line2d_38">
      <g>
       <use xlink:href="#m4fb32cabbd" x="774.211765" y="44.560043" style="stroke: #000000; stroke-width: 0.8"/>
      </g>
     </g>
     <g id="text_38">
      <text style="font: 12px 'DejaVu Sans', 'Bitstream Vera Sans', 'Computer Modern Sans Serif', 'Lucida Grande', 'Verdana', 'Geneva', 'Lucid', 'Arial', 'Helvetica', 'Avant Garde', sans-serif; text-anchor: end" x="767.211765" y="49.119106" transform="rotate(-0 767.211765 49.119106)">0.8</text>
     </g>
    </g>
   </g>
   <g id="line2d_39">
    <path d="M 774.211765 251.630328 
L 776.864171 251.569574 
L 779.516578 251.38659 
L 782.168984 251.079215 
L 784.82139 250.643878 
L 787.473797 250.075637 
L 790.126203 249.368235 
L 792.77861 248.514181 
L 795.431016 247.504844 
L 798.083422 246.330567 
L 800.735829 244.980805 
L 803.388235 243.444283 
L 806.040642 241.709172 
L 808.693048 239.763296 
L 811.345455 237.594352 
L 813.997861 235.190158 
L 816.650267 232.538918 
L 819.302674 229.629507 
L 821.95508 226.451771 
L 824.607487 222.996839 
L 827.259893 219.257445 
L 829.912299 215.228255 
L 832.564706 210.906188 
L 835.217112 206.290731 
L 837.869519 201.384242 
L 840.521925 196.192226 
L 843.174332 190.723587 
L 845.826738 184.990837 
L 848.479144 179.010266 
L 851.131551 172.802059 
L 853.783957 166.390353 
L 856.436364 159.803232 
L 859.08877 153.072653 
L 861.741176 146.234301 
L 864.393583 139.327367 
L 867.045989 132.394252 
L 869.698396 125.480201 
L 872.350802 118.63286 
L 875.003209 111.901772 
L 877.655615 105.33781 
L 880.308021 98.992562 
L 882.960428 92.917673 
L 885.612834 87.164157 
L 888.265241 81.781693 
L 890.917647 76.817917 
L 893.570053 72.317723 
L 896.22246 68.322588 
L 898.874866 64.869939 
L 901.527273 61.992568 
L 904.179679 59.718116 
L 906.832086 58.06863 
L 909.484492 57.060205 
L 912.136898 56.702726 
L 914.789305 56.999706 
L 917.441711 57.948226 
L 920.094118 59.538987 
L 922.746524 61.756458 
L 925.39893 64.57913 
L 928.051337 67.979863 
L 930.703743 71.926322 
L 933.35615 76.381486 
L 936.008556 81.304227 
L 938.660963 86.649942 
L 941.313369 92.371223 
L 943.965775 98.418551 
L 946.618182 104.741012 
L 949.270588 111.286993 
L 951.922995 118.004881 
L 954.575401 124.843717 
L 957.227807 131.753823 
L 959.880214 138.687369 
L 962.53262 145.598886 
L 965.185027 152.445718 
L 967.837433 159.188391 
L 970.48984 165.790923 
L 973.142246 172.221054 
L 975.794652 178.450395 
L 978.447059 184.454517 
L 981.099465 190.212964 
L 983.751872 195.709205 
L 986.404278 200.930528 
L 989.056684 205.867878 
L 991.709091 210.515663 
L 994.361497 214.871509 
L 997.013904 218.935997 
L 999.66631 222.712374 
L 1002.318717 226.206251 
L 1004.971123 229.425295 
L 1007.623529 232.378923 
L 1010.275936 235.077993 
L 1012.928342 237.534517 
L 1015.580749 239.761379 
L 1018.233155 241.77208 
L 1020.885561 243.580494 
L 1023.537968 245.200654 
L 1026.190374 246.646562 
L 1028.842781 247.932019 
L 1031.495187 249.070485 
L 1034.147594 250.074957 
L 1036.8 250.957876 
" clip-path="url(#p5bea3b924d)" style="fill: none; stroke: #ff0000; stroke-width: 1.5; stroke-linecap: square"/>
   </g>
   <g id="line2d_40">
    <path d="M 774.211765 45.12 
L 776.864171 45.216947 
L 779.516578 45.507523 
L 782.168984 45.990927 
L 784.82139 46.66583 
L 787.473797 47.530382 
L 790.126203 48.582217 
L 792.77861 49.818465 
L 795.431016 51.235765 
L 798.083422 52.830284 
L 800.735829 54.597726 
L 803.388235 56.53336 
L 806.040642 58.632036 
L 808.693048 60.888208 
L 811.345455 63.295961 
L 813.997861 65.849035 
L 816.650267 68.540852 
L 819.302674 71.364545 
L 821.95508 74.312987 
L 824.607487 77.378818 
L 827.259893 80.554482 
L 829.912299 83.832251 
L 832.564706 87.204261 
L 835.217112 90.662538 
L 837.869519 94.199037 
L 840.521925 97.805664 
L 843.174332 101.474312 
L 845.826738 105.196889 
L 848.479144 108.965348 
L 851.131551 112.771711 
L 853.783957 116.608105 
L 856.436364 120.466776 
L 859.08877 124.340125 
L 861.741176 128.220725 
L 864.393583 132.101342 
L 867.045989 135.974961 
L 869.698396 139.8348 
L 872.350802 143.674329 
L 875.003209 147.487285 
L 877.655615 151.267687 
L 880.308021 155.009847 
L 882.960428 158.708379 
L 885.612834 162.358211 
L 888.265241 165.95459 
L 890.917647 169.493084 
L 893.570053 172.969594 
L 896.22246 176.380345 
L 898.874866 179.721897 
L 901.527273 182.991136 
L 904.179679 186.185275 
L 906.832086 189.301849 
L 909.484492 192.338711 
L 912.136898 195.294026 
L 914.789305 198.166259 
L 917.441711 200.954172 
L 920.094118 203.656814 
L 922.746524 206.273505 
L 925.39893 208.803833 
L 928.051337 211.247636 
L 930.703743 213.604995 
L 933.35615 215.876215 
L 936.008556 218.061818 
L 938.660963 220.162529 
L 941.313369 222.179256 
L 943.965775 224.113087 
L 946.618182 225.965266 
L 949.270588 227.737188 
L 951.922995 229.43038 
L 954.575401 231.046488 
L 957.227807 232.587269 
L 959.880214 234.054573 
L 962.53262 235.450332 
L 965.185027 236.776549 
L 967.837433 238.035286 
L 970.48984 239.228653 
L 973.142246 240.358798 
L 975.794652 241.427894 
L 978.447059 242.438135 
L 981.099465 243.39172 
L 983.751872 244.290853 
L 986.404278 245.137726 
L 989.056684 245.934518 
L 991.709091 246.683388 
L 994.361497 247.386467 
L 997.013904 248.045851 
L 999.66631 248.663599 
L 1002.318717 249.241729 
L 1004.971123 249.782212 
L 1007.623529 250.286966 
L 1010.275936 250.757861 
L 1012.928342 251.196708 
L 1015.580749 251.605261 
L 1018.233155 251.985217 
L 1020.885561 252.338211 
L 1023.537968 252.665817 
L 1026.190374 252.969546 
L 1028.842781 253.25085 
L 1031.495187 253.511116 
L 1034.147594 253.751671 
L 1036.8 253.97378 
" clip-path="url(#p5bea3b924d)" style="fill: none; stroke: #0000ff; stroke-width: 1.5; stroke-linecap: square"/>
   </g>
   <g id="patch_70">
    <path d="M 774.211765 256.32 
L 774.211765 34.56 
" style="fill: none; stroke: #000000; stroke-width: 0.8; stroke-linejoin: miter; stroke-linecap: square"/>
   </g>
   <g id="patch_71">
    <path d="M 1036.8 256.32 
L 1036.8 34.56 
" style="fill: none; stroke: #000000; stroke-width: 0.8; stroke-linejoin: miter; stroke-linecap: square"/>
   </g>
   <g id="patch_72">
    <path d="M 774.211765 256.32 
L 1036.8 256.32 
" style="fill: none; stroke: #000000; stroke-width: 0.8; stroke-linejoin: miter; stroke-linecap: square"/>
   </g>
   <g id="patch_73">
    <path d="M 774.211765 34.56 
L 1036.8 34.56 
" style="fill: none; stroke: #000000; stroke-width: 0.8; stroke-linejoin: miter; stroke-linecap: square"/>
   </g>
   <g id="text_39">
    <text style="font: 14.4px 'DejaVu Sans', 'Bitstream Vera Sans', 'Computer Modern Sans Serif', 'Lucida Grande', 'Verdana', 'Geneva', 'Lucid', 'Arial', 'Helvetica', 'Avant Garde', sans-serif; text-anchor: middle" x="905.505882" y="28.56" transform="rotate(-0 905.505882 28.56)">Conditional histograms for E1 given E2 (centric, real data)</text>
   </g>
  </g>
 </g>
 <defs>
  <clipPath id="pe2ff96f951">
   <rect x="144" y="34.56" width="262.588235" height="221.76"/>
  </clipPath>
  <clipPath id="p3ea8f70ed7">
   <rect x="459.105882" y="34.56" width="262.588235" height="221.76"/>
  </clipPath>
  <clipPath id="p5bea3b924d">
   <rect x="774.211765" y="34.56" width="262.588235" height="221.76"/>
  </clipPath>
 </defs>
</svg>
