<?xml version="1.0" encoding="utf-8" standalone="no"?>
<!DOCTYPE svg PUBLIC "-//W3C//DTD SVG 1.1//EN"
  "http://www.w3.org/Graphics/SVG/1.1/DTD/svg11.dtd">
<!-- Created with matplotlib (https://matplotlib.org/) -->
<svg height="288pt" version="1.1" viewBox="0 0 1152 288" width="1152pt" xmlns="http://www.w3.org/2000/svg" xmlns:xlink="http://www.w3.org/1999/xlink">
 <metadata>
  <rdf:RDF xmlns:cc="http://creativecommons.org/ns#" xmlns:dc="http://purl.org/dc/elements/1.1/" xmlns:rdf="http://www.w3.org/1999/02/22-rdf-syntax-ns#">
   <cc:Work>
    <dc:type rdf:resource="http://purl.org/dc/dcmitype/StillImage"/>
    <dc:date>2021-08-03T14:24:07.598108</dc:date>
    <dc:format>image/svg+xml</dc:format>
    <dc:creator>
     <cc:Agent>
      <dc:title>Matplotlib v3.3.4, https://matplotlib.org/</dc:title>
     </cc:Agent>
    </dc:creator>
   </cc:Work>
  </rdf:RDF>
 </metadata>
 <defs>
  <style type="text/css">*{stroke-linecap:butt;stroke-linejoin:round;}</style>
 </defs>
 <g id="figure_1">
  <g id="patch_1">
   <path d="M 0 288 
L 1152 288 
L 1152 0 
L 0 0 
z
" style="fill:none;"/>
  </g>
  <g id="axes_1">
   <g id="patch_2">
    <path d="M 144 252 
L 406.588235 252 
L 406.588235 34.56 
L 144 34.56 
z
" style="fill:#ffffff;"/>
   </g>
   <g id="patch_3">
    <path clip-path="url(#peff083372f)" d="M 144.947483 252 
L 155.200293 252 
L 155.200293 93.461852 
L 144.947483 93.461852 
z
" style="fill:#1f77b4;opacity:0.5;"/>
   </g>
   <g id="patch_4">
    <path clip-path="url(#peff083372f)" d="M 155.200293 252 
L 165.453103 252 
L 165.453103 44.914286 
L 155.200293 44.914286 
z
" style="fill:#1f77b4;opacity:0.5;"/>
   </g>
   <g id="patch_5">
    <path clip-path="url(#peff083372f)" d="M 165.453103 252 
L 175.705912 252 
L 175.705912 49.46562 
L 165.453103 49.46562 
z
" style="fill:#1f77b4;opacity:0.5;"/>
   </g>
   <g id="patch_6">
    <path clip-path="url(#peff083372f)" d="M 175.705912 252 
L 185.958722 252 
L 185.958722 69.946625 
L 175.705912 69.946625 
z
" style="fill:#1f77b4;opacity:0.5;"/>
   </g>
   <g id="patch_7">
    <path clip-path="url(#peff083372f)" d="M 185.958722 252 
L 196.211532 252 
L 196.211532 91.944741 
L 185.958722 91.944741 
z
" style="fill:#1f77b4;opacity:0.5;"/>
   </g>
   <g id="patch_8">
    <path clip-path="url(#peff083372f)" d="M 196.211532 252 
L 206.464341 252 
L 206.464341 141.630141 
L 196.211532 141.630141 
z
" style="fill:#1f77b4;opacity:0.5;"/>
   </g>
   <g id="patch_9">
    <path clip-path="url(#peff083372f)" d="M 206.464341 252 
L 216.717151 252 
L 216.717151 173.489482 
L 206.464341 173.489482 
z
" style="fill:#1f77b4;opacity:0.5;"/>
   </g>
   <g id="patch_10">
    <path clip-path="url(#peff083372f)" d="M 216.717151 252 
L 226.969961 252 
L 226.969961 181.454317 
L 216.717151 181.454317 
z
" style="fill:#1f77b4;opacity:0.5;"/>
   </g>
   <g id="patch_11">
    <path clip-path="url(#peff083372f)" d="M 226.969961 252 
L 237.22277 252 
L 237.22277 206.486656 
L 226.969961 206.486656 
z
" style="fill:#1f77b4;opacity:0.5;"/>
   </g>
   <g id="patch_12">
    <path clip-path="url(#peff083372f)" d="M 237.22277 252 
L 247.47558 252 
L 247.47558 218.623548 
L 237.22277 218.623548 
z
" style="fill:#1f77b4;opacity:0.5;"/>
   </g>
   <g id="patch_13">
    <path clip-path="url(#peff083372f)" d="M 247.47558 252 
L 257.72839 252 
L 257.72839 229.243328 
L 247.47558 229.243328 
z
" style="fill:#1f77b4;opacity:0.5;"/>
   </g>
   <g id="patch_14">
    <path clip-path="url(#peff083372f)" d="M 257.72839 252 
L 267.9812 252 
L 267.9812 237.966719 
L 257.72839 237.966719 
z
" style="fill:#1f77b4;opacity:0.5;"/>
   </g>
   <g id="patch_15">
    <path clip-path="url(#peff083372f)" d="M 267.9812 252 
L 278.234009 252 
L 278.234009 240.621664 
L 267.9812 240.621664 
z
" style="fill:#1f77b4;opacity:0.5;"/>
   </g>
   <g id="patch_16">
    <path clip-path="url(#peff083372f)" d="M 278.234009 252 
L 288.486819 252 
L 288.486819 246.310832 
L 278.234009 246.310832 
z
" style="fill:#1f77b4;opacity:0.5;"/>
   </g>
   <g id="patch_17">
    <path clip-path="url(#peff083372f)" d="M 288.486819 252 
L 298.739629 252 
L 298.739629 250.862166 
L 288.486819 250.862166 
z
" style="fill:#1f77b4;opacity:0.5;"/>
   </g>
   <g id="patch_18">
    <path clip-path="url(#peff083372f)" d="M 298.739629 252 
L 308.992438 252 
L 308.992438 250.862166 
L 298.739629 250.862166 
z
" style="fill:#1f77b4;opacity:0.5;"/>
   </g>
   <g id="patch_19">
    <path clip-path="url(#peff083372f)" d="M 308.992438 252 
L 319.245248 252 
L 319.245248 251.241444 
L 308.992438 251.241444 
z
" style="fill:#1f77b4;opacity:0.5;"/>
   </g>
   <g id="patch_20">
    <path clip-path="url(#peff083372f)" d="M 319.245248 252 
L 329.498058 252 
L 329.498058 252 
L 319.245248 252 
z
" style="fill:#1f77b4;opacity:0.5;"/>
   </g>
   <g id="patch_21">
    <path clip-path="url(#peff083372f)" d="M 329.498058 252 
L 339.750868 252 
L 339.750868 252 
L 329.498058 252 
z
" style="fill:#1f77b4;opacity:0.5;"/>
   </g>
   <g id="patch_22">
    <path clip-path="url(#peff083372f)" d="M 339.750868 252 
L 350.003677 252 
L 350.003677 251.620722 
L 339.750868 251.620722 
z
" style="fill:#1f77b4;opacity:0.5;"/>
   </g>
   <g id="matplotlib.axis_1">
    <g id="xtick_1">
     <g id="line2d_1">
      <defs>
       <path d="M 0 0 
L 0 3.5 
" id="m758b2cb3a9" style="stroke:#000000;stroke-width:0.8;"/>
      </defs>
      <g>
       <use style="stroke:#000000;stroke-width:0.8;" x="144" xlink:href="#m758b2cb3a9" y="252"/>
      </g>
     </g>
     <g id="text_1">
      <!-- 0 -->
      <g transform="translate(138.91 271.1575)scale(0.16 -0.16)">
       <defs>
        <path d="M 31.78125 66.40625 
Q 24.171875 66.40625 20.328125 58.90625 
Q 16.5 51.421875 16.5 36.375 
Q 16.5 21.390625 20.328125 13.890625 
Q 24.171875 6.390625 31.78125 6.390625 
Q 39.453125 6.390625 43.28125 13.890625 
Q 47.125 21.390625 47.125 36.375 
Q 47.125 51.421875 43.28125 58.90625 
Q 39.453125 66.40625 31.78125 66.40625 
z
M 31.78125 74.21875 
Q 44.046875 74.21875 50.515625 64.515625 
Q 56.984375 54.828125 56.984375 36.375 
Q 56.984375 17.96875 50.515625 8.265625 
Q 44.046875 -1.421875 31.78125 -1.421875 
Q 19.53125 -1.421875 13.0625 8.265625 
Q 6.59375 17.96875 6.59375 36.375 
Q 6.59375 54.828125 13.0625 64.515625 
Q 19.53125 74.21875 31.78125 74.21875 
z
" id="DejaVuSans-48"/>
       </defs>
       <use xlink:href="#DejaVuSans-48"/>
      </g>
     </g>
    </g>
    <g id="xtick_2">
     <g id="line2d_2">
      <g>
       <use style="stroke:#000000;stroke-width:0.8;" x="196.517647" xlink:href="#m758b2cb3a9" y="252"/>
      </g>
     </g>
     <g id="text_2">
      <!-- 1 -->
      <g transform="translate(191.427647 271.1575)scale(0.16 -0.16)">
       <defs>
        <path d="M 12.40625 8.296875 
L 28.515625 8.296875 
L 28.515625 63.921875 
L 10.984375 60.40625 
L 10.984375 69.390625 
L 28.421875 72.90625 
L 38.28125 72.90625 
L 38.28125 8.296875 
L 54.390625 8.296875 
L 54.390625 0 
L 12.40625 0 
z
" id="DejaVuSans-49"/>
       </defs>
       <use xlink:href="#DejaVuSans-49"/>
      </g>
     </g>
    </g>
    <g id="xtick_3">
     <g id="line2d_3">
      <g>
       <use style="stroke:#000000;stroke-width:0.8;" x="249.035294" xlink:href="#m758b2cb3a9" y="252"/>
      </g>
     </g>
     <g id="text_3">
      <!-- 2 -->
      <g transform="translate(243.945294 271.1575)scale(0.16 -0.16)">
       <defs>
        <path d="M 19.1875 8.296875 
L 53.609375 8.296875 
L 53.609375 0 
L 7.328125 0 
L 7.328125 8.296875 
Q 12.9375 14.109375 22.625 23.890625 
Q 32.328125 33.6875 34.8125 36.53125 
Q 39.546875 41.84375 41.421875 45.53125 
Q 43.3125 49.21875 43.3125 52.78125 
Q 43.3125 58.59375 39.234375 62.25 
Q 35.15625 65.921875 28.609375 65.921875 
Q 23.96875 65.921875 18.8125 64.3125 
Q 13.671875 62.703125 7.8125 59.421875 
L 7.8125 69.390625 
Q 13.765625 71.78125 18.9375 73 
Q 24.125 74.21875 28.421875 74.21875 
Q 39.75 74.21875 46.484375 68.546875 
Q 53.21875 62.890625 53.21875 53.421875 
Q 53.21875 48.921875 51.53125 44.890625 
Q 49.859375 40.875 45.40625 35.40625 
Q 44.1875 33.984375 37.640625 27.21875 
Q 31.109375 20.453125 19.1875 8.296875 
z
" id="DejaVuSans-50"/>
       </defs>
       <use xlink:href="#DejaVuSans-50"/>
      </g>
     </g>
    </g>
    <g id="xtick_4">
     <g id="line2d_4">
      <g>
       <use style="stroke:#000000;stroke-width:0.8;" x="301.552941" xlink:href="#m758b2cb3a9" y="252"/>
      </g>
     </g>
     <g id="text_4">
      <!-- 3 -->
      <g transform="translate(296.462941 271.1575)scale(0.16 -0.16)">
       <defs>
        <path d="M 40.578125 39.3125 
Q 47.65625 37.796875 51.625 33 
Q 55.609375 28.21875 55.609375 21.1875 
Q 55.609375 10.40625 48.1875 4.484375 
Q 40.765625 -1.421875 27.09375 -1.421875 
Q 22.515625 -1.421875 17.65625 -0.515625 
Q 12.796875 0.390625 7.625 2.203125 
L 7.625 11.71875 
Q 11.71875 9.328125 16.59375 8.109375 
Q 21.484375 6.890625 26.8125 6.890625 
Q 36.078125 6.890625 40.9375 10.546875 
Q 45.796875 14.203125 45.796875 21.1875 
Q 45.796875 27.640625 41.28125 31.265625 
Q 36.765625 34.90625 28.71875 34.90625 
L 20.21875 34.90625 
L 20.21875 43.015625 
L 29.109375 43.015625 
Q 36.375 43.015625 40.234375 45.921875 
Q 44.09375 48.828125 44.09375 54.296875 
Q 44.09375 59.90625 40.109375 62.90625 
Q 36.140625 65.921875 28.71875 65.921875 
Q 24.65625 65.921875 20.015625 65.03125 
Q 15.375 64.15625 9.8125 62.3125 
L 9.8125 71.09375 
Q 15.4375 72.65625 20.34375 73.4375 
Q 25.25 74.21875 29.59375 74.21875 
Q 40.828125 74.21875 47.359375 69.109375 
Q 53.90625 64.015625 53.90625 55.328125 
Q 53.90625 49.265625 50.4375 45.09375 
Q 46.96875 40.921875 40.578125 39.3125 
z
" id="DejaVuSans-51"/>
       </defs>
       <use xlink:href="#DejaVuSans-51"/>
      </g>
     </g>
    </g>
    <g id="xtick_5">
     <g id="line2d_5">
      <g>
       <use style="stroke:#000000;stroke-width:0.8;" x="354.070588" xlink:href="#m758b2cb3a9" y="252"/>
      </g>
     </g>
     <g id="text_5">
      <!-- 4 -->
      <g transform="translate(348.980588 271.1575)scale(0.16 -0.16)">
       <defs>
        <path d="M 37.796875 64.3125 
L 12.890625 25.390625 
L 37.796875 25.390625 
z
M 35.203125 72.90625 
L 47.609375 72.90625 
L 47.609375 25.390625 
L 58.015625 25.390625 
L 58.015625 17.1875 
L 47.609375 17.1875 
L 47.609375 0 
L 37.796875 0 
L 37.796875 17.1875 
L 4.890625 17.1875 
L 4.890625 26.703125 
z
" id="DejaVuSans-52"/>
       </defs>
       <use xlink:href="#DejaVuSans-52"/>
      </g>
     </g>
    </g>
    <g id="xtick_6">
     <g id="line2d_6">
      <g>
       <use style="stroke:#000000;stroke-width:0.8;" x="406.588235" xlink:href="#m758b2cb3a9" y="252"/>
      </g>
     </g>
     <g id="text_6">
      <!-- 5 -->
      <g transform="translate(401.498235 271.1575)scale(0.16 -0.16)">
       <defs>
        <path d="M 10.796875 72.90625 
L 49.515625 72.90625 
L 49.515625 64.59375 
L 19.828125 64.59375 
L 19.828125 46.734375 
Q 21.96875 47.46875 24.109375 47.828125 
Q 26.265625 48.1875 28.421875 48.1875 
Q 40.625 48.1875 47.75 41.5 
Q 54.890625 34.8125 54.890625 23.390625 
Q 54.890625 11.625 47.5625 5.09375 
Q 40.234375 -1.421875 26.90625 -1.421875 
Q 22.3125 -1.421875 17.546875 -0.640625 
Q 12.796875 0.140625 7.71875 1.703125 
L 7.71875 11.625 
Q 12.109375 9.234375 16.796875 8.0625 
Q 21.484375 6.890625 26.703125 6.890625 
Q 35.15625 6.890625 40.078125 11.328125 
Q 45.015625 15.765625 45.015625 23.390625 
Q 45.015625 31 40.078125 35.4375 
Q 35.15625 39.890625 26.703125 39.890625 
Q 22.75 39.890625 18.8125 39.015625 
Q 14.890625 38.140625 10.796875 36.28125 
z
" id="DejaVuSans-53"/>
       </defs>
       <use xlink:href="#DejaVuSans-53"/>
      </g>
     </g>
    </g>
    <g id="text_7">
     <!-- Normalized sf amplitude -->
     <g transform="translate(177.430368 290.6425)scale(0.16 -0.16)">
      <defs>
       <path d="M 9.8125 72.90625 
L 23.09375 72.90625 
L 55.421875 11.921875 
L 55.421875 72.90625 
L 64.984375 72.90625 
L 64.984375 0 
L 51.703125 0 
L 19.390625 60.984375 
L 19.390625 0 
L 9.8125 0 
z
" id="DejaVuSans-78"/>
       <path d="M 30.609375 48.390625 
Q 23.390625 48.390625 19.1875 42.75 
Q 14.984375 37.109375 14.984375 27.296875 
Q 14.984375 17.484375 19.15625 11.84375 
Q 23.34375 6.203125 30.609375 6.203125 
Q 37.796875 6.203125 41.984375 11.859375 
Q 46.1875 17.53125 46.1875 27.296875 
Q 46.1875 37.015625 41.984375 42.703125 
Q 37.796875 48.390625 30.609375 48.390625 
z
M 30.609375 56 
Q 42.328125 56 49.015625 48.375 
Q 55.71875 40.765625 55.71875 27.296875 
Q 55.71875 13.875 49.015625 6.21875 
Q 42.328125 -1.421875 30.609375 -1.421875 
Q 18.84375 -1.421875 12.171875 6.21875 
Q 5.515625 13.875 5.515625 27.296875 
Q 5.515625 40.765625 12.171875 48.375 
Q 18.84375 56 30.609375 56 
z
" id="DejaVuSans-111"/>
       <path d="M 41.109375 46.296875 
Q 39.59375 47.171875 37.8125 47.578125 
Q 36.03125 48 33.890625 48 
Q 26.265625 48 22.1875 43.046875 
Q 18.109375 38.09375 18.109375 28.8125 
L 18.109375 0 
L 9.078125 0 
L 9.078125 54.6875 
L 18.109375 54.6875 
L 18.109375 46.1875 
Q 20.953125 51.171875 25.484375 53.578125 
Q 30.03125 56 36.53125 56 
Q 37.453125 56 38.578125 55.875 
Q 39.703125 55.765625 41.0625 55.515625 
z
" id="DejaVuSans-114"/>
       <path d="M 52 44.1875 
Q 55.375 50.25 60.0625 53.125 
Q 64.75 56 71.09375 56 
Q 79.640625 56 84.28125 50.015625 
Q 88.921875 44.046875 88.921875 33.015625 
L 88.921875 0 
L 79.890625 0 
L 79.890625 32.71875 
Q 79.890625 40.578125 77.09375 44.375 
Q 74.3125 48.1875 68.609375 48.1875 
Q 61.625 48.1875 57.5625 43.546875 
Q 53.515625 38.921875 53.515625 30.90625 
L 53.515625 0 
L 44.484375 0 
L 44.484375 32.71875 
Q 44.484375 40.625 41.703125 44.40625 
Q 38.921875 48.1875 33.109375 48.1875 
Q 26.21875 48.1875 22.15625 43.53125 
Q 18.109375 38.875 18.109375 30.90625 
L 18.109375 0 
L 9.078125 0 
L 9.078125 54.6875 
L 18.109375 54.6875 
L 18.109375 46.1875 
Q 21.1875 51.21875 25.484375 53.609375 
Q 29.78125 56 35.6875 56 
Q 41.65625 56 45.828125 52.96875 
Q 50 49.953125 52 44.1875 
z
" id="DejaVuSans-109"/>
       <path d="M 34.28125 27.484375 
Q 23.390625 27.484375 19.1875 25 
Q 14.984375 22.515625 14.984375 16.5 
Q 14.984375 11.71875 18.140625 8.90625 
Q 21.296875 6.109375 26.703125 6.109375 
Q 34.1875 6.109375 38.703125 11.40625 
Q 43.21875 16.703125 43.21875 25.484375 
L 43.21875 27.484375 
z
M 52.203125 31.203125 
L 52.203125 0 
L 43.21875 0 
L 43.21875 8.296875 
Q 40.140625 3.328125 35.546875 0.953125 
Q 30.953125 -1.421875 24.3125 -1.421875 
Q 15.921875 -1.421875 10.953125 3.296875 
Q 6 8.015625 6 15.921875 
Q 6 25.140625 12.171875 29.828125 
Q 18.359375 34.515625 30.609375 34.515625 
L 43.21875 34.515625 
L 43.21875 35.40625 
Q 43.21875 41.609375 39.140625 45 
Q 35.0625 48.390625 27.6875 48.390625 
Q 23 48.390625 18.546875 47.265625 
Q 14.109375 46.140625 10.015625 43.890625 
L 10.015625 52.203125 
Q 14.9375 54.109375 19.578125 55.046875 
Q 24.21875 56 28.609375 56 
Q 40.484375 56 46.34375 49.84375 
Q 52.203125 43.703125 52.203125 31.203125 
z
" id="DejaVuSans-97"/>
       <path d="M 9.421875 75.984375 
L 18.40625 75.984375 
L 18.40625 0 
L 9.421875 0 
z
" id="DejaVuSans-108"/>
       <path d="M 9.421875 54.6875 
L 18.40625 54.6875 
L 18.40625 0 
L 9.421875 0 
z
M 9.421875 75.984375 
L 18.40625 75.984375 
L 18.40625 64.59375 
L 9.421875 64.59375 
z
" id="DejaVuSans-105"/>
       <path d="M 5.515625 54.6875 
L 48.1875 54.6875 
L 48.1875 46.484375 
L 14.40625 7.171875 
L 48.1875 7.171875 
L 48.1875 0 
L 4.296875 0 
L 4.296875 8.203125 
L 38.09375 47.515625 
L 5.515625 47.515625 
z
" id="DejaVuSans-122"/>
       <path d="M 56.203125 29.59375 
L 56.203125 25.203125 
L 14.890625 25.203125 
Q 15.484375 15.921875 20.484375 11.0625 
Q 25.484375 6.203125 34.421875 6.203125 
Q 39.59375 6.203125 44.453125 7.46875 
Q 49.3125 8.734375 54.109375 11.28125 
L 54.109375 2.78125 
Q 49.265625 0.734375 44.1875 -0.34375 
Q 39.109375 -1.421875 33.890625 -1.421875 
Q 20.796875 -1.421875 13.15625 6.1875 
Q 5.515625 13.8125 5.515625 26.8125 
Q 5.515625 40.234375 12.765625 48.109375 
Q 20.015625 56 32.328125 56 
Q 43.359375 56 49.78125 48.890625 
Q 56.203125 41.796875 56.203125 29.59375 
z
M 47.21875 32.234375 
Q 47.125 39.59375 43.09375 43.984375 
Q 39.0625 48.390625 32.421875 48.390625 
Q 24.90625 48.390625 20.390625 44.140625 
Q 15.875 39.890625 15.1875 32.171875 
z
" id="DejaVuSans-101"/>
       <path d="M 45.40625 46.390625 
L 45.40625 75.984375 
L 54.390625 75.984375 
L 54.390625 0 
L 45.40625 0 
L 45.40625 8.203125 
Q 42.578125 3.328125 38.25 0.953125 
Q 33.9375 -1.421875 27.875 -1.421875 
Q 17.96875 -1.421875 11.734375 6.484375 
Q 5.515625 14.40625 5.515625 27.296875 
Q 5.515625 40.1875 11.734375 48.09375 
Q 17.96875 56 27.875 56 
Q 33.9375 56 38.25 53.625 
Q 42.578125 51.265625 45.40625 46.390625 
z
M 14.796875 27.296875 
Q 14.796875 17.390625 18.875 11.75 
Q 22.953125 6.109375 30.078125 6.109375 
Q 37.203125 6.109375 41.296875 11.75 
Q 45.40625 17.390625 45.40625 27.296875 
Q 45.40625 37.203125 41.296875 42.84375 
Q 37.203125 48.484375 30.078125 48.484375 
Q 22.953125 48.484375 18.875 42.84375 
Q 14.796875 37.203125 14.796875 27.296875 
z
" id="DejaVuSans-100"/>
       <path id="DejaVuSans-32"/>
       <path d="M 44.28125 53.078125 
L 44.28125 44.578125 
Q 40.484375 46.53125 36.375 47.5 
Q 32.28125 48.484375 27.875 48.484375 
Q 21.1875 48.484375 17.84375 46.4375 
Q 14.5 44.390625 14.5 40.28125 
Q 14.5 37.15625 16.890625 35.375 
Q 19.28125 33.59375 26.515625 31.984375 
L 29.59375 31.296875 
Q 39.15625 29.25 43.1875 25.515625 
Q 47.21875 21.78125 47.21875 15.09375 
Q 47.21875 7.46875 41.1875 3.015625 
Q 35.15625 -1.421875 24.609375 -1.421875 
Q 20.21875 -1.421875 15.453125 -0.5625 
Q 10.6875 0.296875 5.421875 2 
L 5.421875 11.28125 
Q 10.40625 8.6875 15.234375 7.390625 
Q 20.0625 6.109375 24.8125 6.109375 
Q 31.15625 6.109375 34.5625 8.28125 
Q 37.984375 10.453125 37.984375 14.40625 
Q 37.984375 18.0625 35.515625 20.015625 
Q 33.0625 21.96875 24.703125 23.78125 
L 21.578125 24.515625 
Q 13.234375 26.265625 9.515625 29.90625 
Q 5.8125 33.546875 5.8125 39.890625 
Q 5.8125 47.609375 11.28125 51.796875 
Q 16.75 56 26.8125 56 
Q 31.78125 56 36.171875 55.265625 
Q 40.578125 54.546875 44.28125 53.078125 
z
" id="DejaVuSans-115"/>
       <path d="M 37.109375 75.984375 
L 37.109375 68.5 
L 28.515625 68.5 
Q 23.6875 68.5 21.796875 66.546875 
Q 19.921875 64.59375 19.921875 59.515625 
L 19.921875 54.6875 
L 34.71875 54.6875 
L 34.71875 47.703125 
L 19.921875 47.703125 
L 19.921875 0 
L 10.890625 0 
L 10.890625 47.703125 
L 2.296875 47.703125 
L 2.296875 54.6875 
L 10.890625 54.6875 
L 10.890625 58.5 
Q 10.890625 67.625 15.140625 71.796875 
Q 19.390625 75.984375 28.609375 75.984375 
z
" id="DejaVuSans-102"/>
       <path d="M 18.109375 8.203125 
L 18.109375 -20.796875 
L 9.078125 -20.796875 
L 9.078125 54.6875 
L 18.109375 54.6875 
L 18.109375 46.390625 
Q 20.953125 51.265625 25.265625 53.625 
Q 29.59375 56 35.59375 56 
Q 45.5625 56 51.78125 48.09375 
Q 58.015625 40.1875 58.015625 27.296875 
Q 58.015625 14.40625 51.78125 6.484375 
Q 45.5625 -1.421875 35.59375 -1.421875 
Q 29.59375 -1.421875 25.265625 0.953125 
Q 20.953125 3.328125 18.109375 8.203125 
z
M 48.6875 27.296875 
Q 48.6875 37.203125 44.609375 42.84375 
Q 40.53125 48.484375 33.40625 48.484375 
Q 26.265625 48.484375 22.1875 42.84375 
Q 18.109375 37.203125 18.109375 27.296875 
Q 18.109375 17.390625 22.1875 11.75 
Q 26.265625 6.109375 33.40625 6.109375 
Q 40.53125 6.109375 44.609375 11.75 
Q 48.6875 17.390625 48.6875 27.296875 
z
" id="DejaVuSans-112"/>
       <path d="M 18.3125 70.21875 
L 18.3125 54.6875 
L 36.8125 54.6875 
L 36.8125 47.703125 
L 18.3125 47.703125 
L 18.3125 18.015625 
Q 18.3125 11.328125 20.140625 9.421875 
Q 21.96875 7.515625 27.59375 7.515625 
L 36.8125 7.515625 
L 36.8125 0 
L 27.59375 0 
Q 17.1875 0 13.234375 3.875 
Q 9.28125 7.765625 9.28125 18.015625 
L 9.28125 47.703125 
L 2.6875 47.703125 
L 2.6875 54.6875 
L 9.28125 54.6875 
L 9.28125 70.21875 
z
" id="DejaVuSans-116"/>
       <path d="M 8.5 21.578125 
L 8.5 54.6875 
L 17.484375 54.6875 
L 17.484375 21.921875 
Q 17.484375 14.15625 20.5 10.265625 
Q 23.53125 6.390625 29.59375 6.390625 
Q 36.859375 6.390625 41.078125 11.03125 
Q 45.3125 15.671875 45.3125 23.6875 
L 45.3125 54.6875 
L 54.296875 54.6875 
L 54.296875 0 
L 45.3125 0 
L 45.3125 8.40625 
Q 42.046875 3.421875 37.71875 1 
Q 33.40625 -1.421875 27.6875 -1.421875 
Q 18.265625 -1.421875 13.375 4.4375 
Q 8.5 10.296875 8.5 21.578125 
z
M 31.109375 56 
z
" id="DejaVuSans-117"/>
      </defs>
      <use xlink:href="#DejaVuSans-78"/>
      <use x="74.804688" xlink:href="#DejaVuSans-111"/>
      <use x="135.986328" xlink:href="#DejaVuSans-114"/>
      <use x="175.349609" xlink:href="#DejaVuSans-109"/>
      <use x="272.761719" xlink:href="#DejaVuSans-97"/>
      <use x="334.041016" xlink:href="#DejaVuSans-108"/>
      <use x="361.824219" xlink:href="#DejaVuSans-105"/>
      <use x="389.607422" xlink:href="#DejaVuSans-122"/>
      <use x="442.097656" xlink:href="#DejaVuSans-101"/>
      <use x="503.621094" xlink:href="#DejaVuSans-100"/>
      <use x="567.097656" xlink:href="#DejaVuSans-32"/>
      <use x="598.884766" xlink:href="#DejaVuSans-115"/>
      <use x="650.984375" xlink:href="#DejaVuSans-102"/>
      <use x="686.189453" xlink:href="#DejaVuSans-32"/>
      <use x="717.976562" xlink:href="#DejaVuSans-97"/>
      <use x="779.255859" xlink:href="#DejaVuSans-109"/>
      <use x="876.667969" xlink:href="#DejaVuSans-112"/>
      <use x="940.144531" xlink:href="#DejaVuSans-108"/>
      <use x="967.927734" xlink:href="#DejaVuSans-105"/>
      <use x="995.710938" xlink:href="#DejaVuSans-116"/>
      <use x="1034.919922" xlink:href="#DejaVuSans-117"/>
      <use x="1098.298828" xlink:href="#DejaVuSans-100"/>
      <use x="1161.775391" xlink:href="#DejaVuSans-101"/>
     </g>
    </g>
   </g>
   <g id="matplotlib.axis_2">
    <g id="ytick_1">
     <g id="line2d_7">
      <defs>
       <path d="M 0 0 
L -3.5 0 
" id="m359df49f14" style="stroke:#000000;stroke-width:0.8;"/>
      </defs>
      <g>
       <use style="stroke:#000000;stroke-width:0.8;" x="144" xlink:href="#m359df49f14" y="252"/>
      </g>
     </g>
     <g id="text_8">
      <!-- 0.0 -->
      <g transform="translate(111.555 258.07875)scale(0.16 -0.16)">
       <defs>
        <path d="M 10.6875 12.40625 
L 21 12.40625 
L 21 0 
L 10.6875 0 
z
" id="DejaVuSans-46"/>
       </defs>
       <use xlink:href="#DejaVuSans-48"/>
       <use x="63.623047" xlink:href="#DejaVuSans-46"/>
       <use x="95.410156" xlink:href="#DejaVuSans-48"/>
      </g>
     </g>
    </g>
    <g id="ytick_2">
     <g id="line2d_8">
      <g>
       <use style="stroke:#000000;stroke-width:0.8;" x="144" xlink:href="#m359df49f14" y="201.012684"/>
      </g>
     </g>
     <g id="text_9">
      <!-- 0.2 -->
      <g transform="translate(111.555 207.091434)scale(0.16 -0.16)">
       <use xlink:href="#DejaVuSans-48"/>
       <use x="63.623047" xlink:href="#DejaVuSans-46"/>
       <use x="95.410156" xlink:href="#DejaVuSans-50"/>
      </g>
     </g>
    </g>
    <g id="ytick_3">
     <g id="line2d_9">
      <g>
       <use style="stroke:#000000;stroke-width:0.8;" x="144" xlink:href="#m359df49f14" y="150.025368"/>
      </g>
     </g>
     <g id="text_10">
      <!-- 0.4 -->
      <g transform="translate(111.555 156.104118)scale(0.16 -0.16)">
       <use xlink:href="#DejaVuSans-48"/>
       <use x="63.623047" xlink:href="#DejaVuSans-46"/>
       <use x="95.410156" xlink:href="#DejaVuSans-52"/>
      </g>
     </g>
    </g>
    <g id="ytick_4">
     <g id="line2d_10">
      <g>
       <use style="stroke:#000000;stroke-width:0.8;" x="144" xlink:href="#m359df49f14" y="99.038051"/>
      </g>
     </g>
     <g id="text_11">
      <!-- 0.6 -->
      <g transform="translate(111.555 105.116801)scale(0.16 -0.16)">
       <defs>
        <path d="M 33.015625 40.375 
Q 26.375 40.375 22.484375 35.828125 
Q 18.609375 31.296875 18.609375 23.390625 
Q 18.609375 15.53125 22.484375 10.953125 
Q 26.375 6.390625 33.015625 6.390625 
Q 39.65625 6.390625 43.53125 10.953125 
Q 47.40625 15.53125 47.40625 23.390625 
Q 47.40625 31.296875 43.53125 35.828125 
Q 39.65625 40.375 33.015625 40.375 
z
M 52.59375 71.296875 
L 52.59375 62.3125 
Q 48.875 64.0625 45.09375 64.984375 
Q 41.3125 65.921875 37.59375 65.921875 
Q 27.828125 65.921875 22.671875 59.328125 
Q 17.53125 52.734375 16.796875 39.40625 
Q 19.671875 43.65625 24.015625 45.921875 
Q 28.375 48.1875 33.59375 48.1875 
Q 44.578125 48.1875 50.953125 41.515625 
Q 57.328125 34.859375 57.328125 23.390625 
Q 57.328125 12.15625 50.6875 5.359375 
Q 44.046875 -1.421875 33.015625 -1.421875 
Q 20.359375 -1.421875 13.671875 8.265625 
Q 6.984375 17.96875 6.984375 36.375 
Q 6.984375 53.65625 15.1875 63.9375 
Q 23.390625 74.21875 37.203125 74.21875 
Q 40.921875 74.21875 44.703125 73.484375 
Q 48.484375 72.75 52.59375 71.296875 
z
" id="DejaVuSans-54"/>
       </defs>
       <use xlink:href="#DejaVuSans-48"/>
       <use x="63.623047" xlink:href="#DejaVuSans-46"/>
       <use x="95.410156" xlink:href="#DejaVuSans-54"/>
      </g>
     </g>
    </g>
    <g id="ytick_5">
     <g id="line2d_11">
      <g>
       <use style="stroke:#000000;stroke-width:0.8;" x="144" xlink:href="#m359df49f14" y="48.050735"/>
      </g>
     </g>
     <g id="text_12">
      <!-- 0.8 -->
      <g transform="translate(111.555 54.129485)scale(0.16 -0.16)">
       <defs>
        <path d="M 31.78125 34.625 
Q 24.75 34.625 20.71875 30.859375 
Q 16.703125 27.09375 16.703125 20.515625 
Q 16.703125 13.921875 20.71875 10.15625 
Q 24.75 6.390625 31.78125 6.390625 
Q 38.8125 6.390625 42.859375 10.171875 
Q 46.921875 13.96875 46.921875 20.515625 
Q 46.921875 27.09375 42.890625 30.859375 
Q 38.875 34.625 31.78125 34.625 
z
M 21.921875 38.8125 
Q 15.578125 40.375 12.03125 44.71875 
Q 8.5 49.078125 8.5 55.328125 
Q 8.5 64.0625 14.71875 69.140625 
Q 20.953125 74.21875 31.78125 74.21875 
Q 42.671875 74.21875 48.875 69.140625 
Q 55.078125 64.0625 55.078125 55.328125 
Q 55.078125 49.078125 51.53125 44.71875 
Q 48 40.375 41.703125 38.8125 
Q 48.828125 37.15625 52.796875 32.3125 
Q 56.78125 27.484375 56.78125 20.515625 
Q 56.78125 9.90625 50.3125 4.234375 
Q 43.84375 -1.421875 31.78125 -1.421875 
Q 19.734375 -1.421875 13.25 4.234375 
Q 6.78125 9.90625 6.78125 20.515625 
Q 6.78125 27.484375 10.78125 32.3125 
Q 14.796875 37.15625 21.921875 38.8125 
z
M 18.3125 54.390625 
Q 18.3125 48.734375 21.84375 45.5625 
Q 25.390625 42.390625 31.78125 42.390625 
Q 38.140625 42.390625 41.71875 45.5625 
Q 45.3125 48.734375 45.3125 54.390625 
Q 45.3125 60.0625 41.71875 63.234375 
Q 38.140625 66.40625 31.78125 66.40625 
Q 25.390625 66.40625 21.84375 63.234375 
Q 18.3125 60.0625 18.3125 54.390625 
z
" id="DejaVuSans-56"/>
       </defs>
       <use xlink:href="#DejaVuSans-48"/>
       <use x="63.623047" xlink:href="#DejaVuSans-46"/>
       <use x="95.410156" xlink:href="#DejaVuSans-56"/>
      </g>
     </g>
    </g>
    <g id="text_13">
     <!-- count -->
     <g transform="translate(104.2275 165.85)rotate(-90)scale(0.16 -0.16)">
      <defs>
       <path d="M 48.78125 52.59375 
L 48.78125 44.1875 
Q 44.96875 46.296875 41.140625 47.34375 
Q 37.3125 48.390625 33.40625 48.390625 
Q 24.65625 48.390625 19.8125 42.84375 
Q 14.984375 37.3125 14.984375 27.296875 
Q 14.984375 17.28125 19.8125 11.734375 
Q 24.65625 6.203125 33.40625 6.203125 
Q 37.3125 6.203125 41.140625 7.25 
Q 44.96875 8.296875 48.78125 10.40625 
L 48.78125 2.09375 
Q 45.015625 0.34375 40.984375 -0.53125 
Q 36.96875 -1.421875 32.421875 -1.421875 
Q 20.0625 -1.421875 12.78125 6.34375 
Q 5.515625 14.109375 5.515625 27.296875 
Q 5.515625 40.671875 12.859375 48.328125 
Q 20.21875 56 33.015625 56 
Q 37.15625 56 41.109375 55.140625 
Q 45.0625 54.296875 48.78125 52.59375 
z
" id="DejaVuSans-99"/>
       <path d="M 54.890625 33.015625 
L 54.890625 0 
L 45.90625 0 
L 45.90625 32.71875 
Q 45.90625 40.484375 42.875 44.328125 
Q 39.84375 48.1875 33.796875 48.1875 
Q 26.515625 48.1875 22.3125 43.546875 
Q 18.109375 38.921875 18.109375 30.90625 
L 18.109375 0 
L 9.078125 0 
L 9.078125 54.6875 
L 18.109375 54.6875 
L 18.109375 46.1875 
Q 21.34375 51.125 25.703125 53.5625 
Q 30.078125 56 35.796875 56 
Q 45.21875 56 50.046875 50.171875 
Q 54.890625 44.34375 54.890625 33.015625 
z
" id="DejaVuSans-110"/>
      </defs>
      <use xlink:href="#DejaVuSans-99"/>
      <use x="54.980469" xlink:href="#DejaVuSans-111"/>
      <use x="116.162109" xlink:href="#DejaVuSans-117"/>
      <use x="179.541016" xlink:href="#DejaVuSans-110"/>
      <use x="242.919922" xlink:href="#DejaVuSans-116"/>
     </g>
    </g>
   </g>
   <g id="line2d_12">
    <path clip-path="url(#peff083372f)" d="M 144 48.590038 
L 145.683933 48.694575 
L 147.367865 49.007863 
L 149.051798 49.528938 
L 150.73573 50.256197 
L 152.419663 51.187406 
L 154.524579 52.633823 
L 156.629494 54.387526 
L 158.73441 56.440205 
L 160.839326 58.782201 
L 163.365225 61.959008 
L 165.891123 65.515466 
L 168.417022 69.428191 
L 171.363904 74.409377 
L 174.731769 80.598065 
L 178.099635 87.250008 
L 182.309466 96.107245 
L 186.940281 106.385934 
L 193.255028 120.971089 
L 207.568455 154.225466 
L 213.041235 166.27895 
L 217.67205 175.957555 
L 221.881881 184.263208 
L 225.67073 191.294181 
L 229.459578 197.877779 
L 233.248426 203.997873 
L 236.616291 209.04257 
L 239.984157 213.714873 
L 243.352022 218.019021 
L 246.719887 221.963061 
L 250.087752 225.558295 
L 253.455617 228.81873 
L 256.823482 231.760537 
L 260.191347 234.401536 
L 263.559213 236.760718 
L 266.927078 238.857795 
L 270.294943 240.712806 
L 274.083791 242.535262 
L 277.872639 244.10466 
L 281.661488 245.448019 
L 285.871319 246.706737 
L 290.502134 247.844854 
L 295.553931 248.837431 
L 301.026712 249.671479 
L 306.920476 250.345684 
L 314.07719 250.926035 
L 322.496853 251.369151 
L 333.021431 251.687106 
L 347.755841 251.890414 
L 354.070588 251.931764 
L 354.070588 251.931764 
" style="fill:none;stroke:#ff0000;stroke-linecap:square;stroke-width:1.5;"/>
   </g>
   <g id="patch_23">
    <path d="M 144 252 
L 144 34.56 
" style="fill:none;stroke:#000000;stroke-linecap:square;stroke-linejoin:miter;stroke-width:0.8;"/>
   </g>
   <g id="patch_24">
    <path d="M 406.588235 252 
L 406.588235 34.56 
" style="fill:none;stroke:#000000;stroke-linecap:square;stroke-linejoin:miter;stroke-width:0.8;"/>
   </g>
   <g id="patch_25">
    <path d="M 144 252 
L 406.588235 252 
" style="fill:none;stroke:#000000;stroke-linecap:square;stroke-linejoin:miter;stroke-width:0.8;"/>
   </g>
   <g id="patch_26">
    <path d="M 144 34.56 
L 406.588235 34.56 
" style="fill:none;stroke:#000000;stroke-linecap:square;stroke-linejoin:miter;stroke-width:0.8;"/>
   </g>
   <g id="text_14">
    <!-- Centric -->
    <g transform="translate(240.944118 28.56)scale(0.192 -0.192)">
     <defs>
      <path d="M 64.40625 67.28125 
L 64.40625 56.890625 
Q 59.421875 61.53125 53.78125 63.8125 
Q 48.140625 66.109375 41.796875 66.109375 
Q 29.296875 66.109375 22.65625 58.46875 
Q 16.015625 50.828125 16.015625 36.375 
Q 16.015625 21.96875 22.65625 14.328125 
Q 29.296875 6.6875 41.796875 6.6875 
Q 48.140625 6.6875 53.78125 8.984375 
Q 59.421875 11.28125 64.40625 15.921875 
L 64.40625 5.609375 
Q 59.234375 2.09375 53.4375 0.328125 
Q 47.65625 -1.421875 41.21875 -1.421875 
Q 24.65625 -1.421875 15.125 8.703125 
Q 5.609375 18.84375 5.609375 36.375 
Q 5.609375 53.953125 15.125 64.078125 
Q 24.65625 74.21875 41.21875 74.21875 
Q 47.75 74.21875 53.53125 72.484375 
Q 59.328125 70.75 64.40625 67.28125 
z
" id="DejaVuSans-67"/>
     </defs>
     <use xlink:href="#DejaVuSans-67"/>
     <use x="69.824219" xlink:href="#DejaVuSans-101"/>
     <use x="131.347656" xlink:href="#DejaVuSans-110"/>
     <use x="194.726562" xlink:href="#DejaVuSans-116"/>
     <use x="233.935547" xlink:href="#DejaVuSans-114"/>
     <use x="275.048828" xlink:href="#DejaVuSans-105"/>
     <use x="302.832031" xlink:href="#DejaVuSans-99"/>
    </g>
   </g>
  </g>
  <g id="axes_2">
   <g id="patch_27">
    <path d="M 459.105882 252 
L 721.694118 252 
L 721.694118 34.56 
L 459.105882 34.56 
z
" style="fill:#ffffff;"/>
   </g>
   <g id="patch_28">
    <path clip-path="url(#p4b6be456ca)" d="M 459.996812 252 
L 463.9092 252 
L 463.9092 243.927573 
L 459.996812 243.927573 
z
" style="fill:#1f77b4;opacity:0.5;"/>
   </g>
   <g id="patch_29">
    <path clip-path="url(#p4b6be456ca)" d="M 463.9092 252 
L 467.821588 252 
L 467.821588 215.634118 
L 463.9092 215.634118 
z
" style="fill:#1f77b4;opacity:0.5;"/>
   </g>
   <g id="patch_30">
    <path clip-path="url(#p4b6be456ca)" d="M 467.821588 252 
L 471.733976 252 
L 471.733976 175.831461 
L 467.821588 175.831461 
z
" style="fill:#1f77b4;opacity:0.5;"/>
   </g>
   <g id="patch_31">
    <path clip-path="url(#p4b6be456ca)" d="M 471.733976 252 
L 475.646364 252 
L 475.646364 139.865204 
L 471.733976 139.865204 
z
" style="fill:#1f77b4;opacity:0.5;"/>
   </g>
   <g id="patch_32">
    <path clip-path="url(#p4b6be456ca)" d="M 475.646364 252 
L 479.558752 252 
L 479.558752 111.731598 
L 475.646364 111.731598 
z
" style="fill:#1f77b4;opacity:0.5;"/>
   </g>
   <g id="patch_33">
    <path clip-path="url(#p4b6be456ca)" d="M 479.558752 252 
L 483.47114 252 
L 483.47114 84.956718 
L 479.558752 84.956718 
z
" style="fill:#1f77b4;opacity:0.5;"/>
   </g>
   <g id="patch_34">
    <path clip-path="url(#p4b6be456ca)" d="M 483.47114 252 
L 487.383528 252 
L 487.383528 67.533065 
L 483.47114 67.533065 
z
" style="fill:#1f77b4;opacity:0.5;"/>
   </g>
   <g id="patch_35">
    <path clip-path="url(#p4b6be456ca)" d="M 487.383528 252 
L 491.295916 252 
L 491.295916 48.830611 
L 487.383528 48.830611 
z
" style="fill:#1f77b4;opacity:0.5;"/>
   </g>
   <g id="patch_36">
    <path clip-path="url(#p4b6be456ca)" d="M 491.295916 252 
L 495.208303 252 
L 495.208303 46.912411 
L 491.295916 46.912411 
z
" style="fill:#1f77b4;opacity:0.5;"/>
   </g>
   <g id="patch_37">
    <path clip-path="url(#p4b6be456ca)" d="M 495.208303 252 
L 499.120691 252 
L 499.120691 44.914286 
L 495.208303 44.914286 
z
" style="fill:#1f77b4;opacity:0.5;"/>
   </g>
   <g id="patch_38">
    <path clip-path="url(#p4b6be456ca)" d="M 499.120691 252 
L 503.033079 252 
L 503.033079 46.832486 
L 499.120691 46.832486 
z
" style="fill:#1f77b4;opacity:0.5;"/>
   </g>
   <g id="patch_39">
    <path clip-path="url(#p4b6be456ca)" d="M 503.033079 252 
L 506.945467 252 
L 506.945467 55.304538 
L 503.033079 55.304538 
z
" style="fill:#1f77b4;opacity:0.5;"/>
   </g>
   <g id="patch_40">
    <path clip-path="url(#p4b6be456ca)" d="M 506.945467 252 
L 510.857855 252 
L 510.857855 78.482792 
L 506.945467 78.482792 
z
" style="fill:#1f77b4;opacity:0.5;"/>
   </g>
   <g id="patch_41">
    <path clip-path="url(#p4b6be456ca)" d="M 510.857855 252 
L 514.770243 252 
L 514.770243 86.155594 
L 510.857855 86.155594 
z
" style="fill:#1f77b4;opacity:0.5;"/>
   </g>
   <g id="patch_42">
    <path clip-path="url(#p4b6be456ca)" d="M 514.770243 252 
L 518.682631 252 
L 518.682631 101.421271 
L 514.770243 101.421271 
z
" style="fill:#1f77b4;opacity:0.5;"/>
   </g>
   <g id="patch_43">
    <path clip-path="url(#p4b6be456ca)" d="M 518.682631 252 
L 522.595019 252 
L 522.595019 119.7241 
L 518.682631 119.7241 
z
" style="fill:#1f77b4;opacity:0.5;"/>
   </g>
   <g id="patch_44">
    <path clip-path="url(#p4b6be456ca)" d="M 522.595019 252 
L 526.507407 252 
L 526.507407 137.787153 
L 522.595019 137.787153 
z
" style="fill:#1f77b4;opacity:0.5;"/>
   </g>
   <g id="patch_45">
    <path clip-path="url(#p4b6be456ca)" d="M 526.507407 252 
L 530.419795 252 
L 530.419795 156.729382 
L 526.507407 156.729382 
z
" style="fill:#1f77b4;opacity:0.5;"/>
   </g>
   <g id="patch_46">
    <path clip-path="url(#p4b6be456ca)" d="M 530.419795 252 
L 534.332183 252 
L 534.332183 171.67536 
L 530.419795 171.67536 
z
" style="fill:#1f77b4;opacity:0.5;"/>
   </g>
   <g id="patch_47">
    <path clip-path="url(#p4b6be456ca)" d="M 534.332183 252 
L 538.244571 252 
L 538.244571 182.385312 
L 534.332183 182.385312 
z
" style="fill:#1f77b4;opacity:0.5;"/>
   </g>
   <g id="patch_48">
    <path clip-path="url(#p4b6be456ca)" d="M 538.244571 252 
L 542.156959 252 
L 542.156959 189.498638 
L 538.244571 189.498638 
z
" style="fill:#1f77b4;opacity:0.5;"/>
   </g>
   <g id="patch_49">
    <path clip-path="url(#p4b6be456ca)" d="M 542.156959 252 
L 546.069347 252 
L 546.069347 206.282891 
L 542.156959 206.282891 
z
" style="fill:#1f77b4;opacity:0.5;"/>
   </g>
   <g id="patch_50">
    <path clip-path="url(#p4b6be456ca)" d="M 546.069347 252 
L 549.981735 252 
L 549.981735 213.236368 
L 546.069347 213.236368 
z
" style="fill:#1f77b4;opacity:0.5;"/>
   </g>
   <g id="patch_51">
    <path clip-path="url(#p4b6be456ca)" d="M 549.981735 252 
L 553.894123 252 
L 553.894123 222.267894 
L 549.981735 222.267894 
z
" style="fill:#1f77b4;opacity:0.5;"/>
   </g>
   <g id="patch_52">
    <path clip-path="url(#p4b6be456ca)" d="M 553.894123 252 
L 557.806511 252 
L 557.806511 225.784595 
L 553.894123 225.784595 
z
" style="fill:#1f77b4;opacity:0.5;"/>
   </g>
   <g id="patch_53">
    <path clip-path="url(#p4b6be456ca)" d="M 557.806511 252 
L 561.718899 252 
L 561.718899 233.217621 
L 557.806511 233.217621 
z
" style="fill:#1f77b4;opacity:0.5;"/>
   </g>
   <g id="patch_54">
    <path clip-path="url(#p4b6be456ca)" d="M 561.718899 252 
L 565.631287 252 
L 565.631287 238.572597 
L 561.718899 238.572597 
z
" style="fill:#1f77b4;opacity:0.5;"/>
   </g>
   <g id="patch_55">
    <path clip-path="url(#p4b6be456ca)" d="M 565.631287 252 
L 569.543675 252 
L 569.543675 240.410873 
L 565.631287 240.410873 
z
" style="fill:#1f77b4;opacity:0.5;"/>
   </g>
   <g id="patch_56">
    <path clip-path="url(#p4b6be456ca)" d="M 569.543675 252 
L 573.456063 252 
L 573.456063 243.128323 
L 569.543675 243.128323 
z
" style="fill:#1f77b4;opacity:0.5;"/>
   </g>
   <g id="patch_57">
    <path clip-path="url(#p4b6be456ca)" d="M 573.456063 252 
L 577.368451 252 
L 577.368451 245.526074 
L 573.456063 245.526074 
z
" style="fill:#1f77b4;opacity:0.5;"/>
   </g>
   <g id="patch_58">
    <path clip-path="url(#p4b6be456ca)" d="M 577.368451 252 
L 581.280839 252 
L 581.280839 246.565099 
L 577.368451 246.565099 
z
" style="fill:#1f77b4;opacity:0.5;"/>
   </g>
   <g id="patch_59">
    <path clip-path="url(#p4b6be456ca)" d="M 581.280839 252 
L 585.193227 252 
L 585.193227 249.202624 
L 581.280839 249.202624 
z
" style="fill:#1f77b4;opacity:0.5;"/>
   </g>
   <g id="patch_60">
    <path clip-path="url(#p4b6be456ca)" d="M 585.193227 252 
L 589.105615 252 
L 589.105615 249.042774 
L 585.193227 249.042774 
z
" style="fill:#1f77b4;opacity:0.5;"/>
   </g>
   <g id="patch_61">
    <path clip-path="url(#p4b6be456ca)" d="M 589.105615 252 
L 593.018003 252 
L 593.018003 250.321575 
L 589.105615 250.321575 
z
" style="fill:#1f77b4;opacity:0.5;"/>
   </g>
   <g id="patch_62">
    <path clip-path="url(#p4b6be456ca)" d="M 593.018003 252 
L 596.930391 252 
L 596.930391 251.120825 
L 593.018003 251.120825 
z
" style="fill:#1f77b4;opacity:0.5;"/>
   </g>
   <g id="patch_63">
    <path clip-path="url(#p4b6be456ca)" d="M 596.930391 252 
L 600.842778 252 
L 600.842778 251.3606 
L 596.930391 251.3606 
z
" style="fill:#1f77b4;opacity:0.5;"/>
   </g>
   <g id="patch_64">
    <path clip-path="url(#p4b6be456ca)" d="M 600.842778 252 
L 604.755166 252 
L 604.755166 251.280675 
L 600.842778 251.280675 
z
" style="fill:#1f77b4;opacity:0.5;"/>
   </g>
   <g id="patch_65">
    <path clip-path="url(#p4b6be456ca)" d="M 604.755166 252 
L 608.667554 252 
L 608.667554 251.6803 
L 604.755166 251.6803 
z
" style="fill:#1f77b4;opacity:0.5;"/>
   </g>
   <g id="patch_66">
    <path clip-path="url(#p4b6be456ca)" d="M 608.667554 252 
L 612.579942 252 
L 612.579942 251.3606 
L 608.667554 251.3606 
z
" style="fill:#1f77b4;opacity:0.5;"/>
   </g>
   <g id="patch_67">
    <path clip-path="url(#p4b6be456ca)" d="M 612.579942 252 
L 616.49233 252 
L 616.49233 251.920075 
L 612.579942 251.920075 
z
" style="fill:#1f77b4;opacity:0.5;"/>
   </g>
   <g id="matplotlib.axis_3">
    <g id="xtick_7">
     <g id="line2d_13">
      <g>
       <use style="stroke:#000000;stroke-width:0.8;" x="459.105882" xlink:href="#m758b2cb3a9" y="252"/>
      </g>
     </g>
     <g id="text_15">
      <!-- 0 -->
      <g transform="translate(454.015882 271.1575)scale(0.16 -0.16)">
       <use xlink:href="#DejaVuSans-48"/>
      </g>
     </g>
    </g>
    <g id="xtick_8">
     <g id="line2d_14">
      <g>
       <use style="stroke:#000000;stroke-width:0.8;" x="511.623529" xlink:href="#m758b2cb3a9" y="252"/>
      </g>
     </g>
     <g id="text_16">
      <!-- 1 -->
      <g transform="translate(506.533529 271.1575)scale(0.16 -0.16)">
       <use xlink:href="#DejaVuSans-49"/>
      </g>
     </g>
    </g>
    <g id="xtick_9">
     <g id="line2d_15">
      <g>
       <use style="stroke:#000000;stroke-width:0.8;" x="564.141176" xlink:href="#m758b2cb3a9" y="252"/>
      </g>
     </g>
     <g id="text_17">
      <!-- 2 -->
      <g transform="translate(559.051176 271.1575)scale(0.16 -0.16)">
       <use xlink:href="#DejaVuSans-50"/>
      </g>
     </g>
    </g>
    <g id="xtick_10">
     <g id="line2d_16">
      <g>
       <use style="stroke:#000000;stroke-width:0.8;" x="616.658824" xlink:href="#m758b2cb3a9" y="252"/>
      </g>
     </g>
     <g id="text_18">
      <!-- 3 -->
      <g transform="translate(611.568824 271.1575)scale(0.16 -0.16)">
       <use xlink:href="#DejaVuSans-51"/>
      </g>
     </g>
    </g>
    <g id="xtick_11">
     <g id="line2d_17">
      <g>
       <use style="stroke:#000000;stroke-width:0.8;" x="669.176471" xlink:href="#m758b2cb3a9" y="252"/>
      </g>
     </g>
     <g id="text_19">
      <!-- 4 -->
      <g transform="translate(664.086471 271.1575)scale(0.16 -0.16)">
       <use xlink:href="#DejaVuSans-52"/>
      </g>
     </g>
    </g>
    <g id="xtick_12">
     <g id="line2d_18">
      <g>
       <use style="stroke:#000000;stroke-width:0.8;" x="721.694118" xlink:href="#m758b2cb3a9" y="252"/>
      </g>
     </g>
     <g id="text_20">
      <!-- 5 -->
      <g transform="translate(716.604118 271.1575)scale(0.16 -0.16)">
       <use xlink:href="#DejaVuSans-53"/>
      </g>
     </g>
    </g>
    <g id="text_21">
     <!-- Normalized sf amplitude -->
     <g transform="translate(492.53625 290.6425)scale(0.16 -0.16)">
      <use xlink:href="#DejaVuSans-78"/>
      <use x="74.804688" xlink:href="#DejaVuSans-111"/>
      <use x="135.986328" xlink:href="#DejaVuSans-114"/>
      <use x="175.349609" xlink:href="#DejaVuSans-109"/>
      <use x="272.761719" xlink:href="#DejaVuSans-97"/>
      <use x="334.041016" xlink:href="#DejaVuSans-108"/>
      <use x="361.824219" xlink:href="#DejaVuSans-105"/>
      <use x="389.607422" xlink:href="#DejaVuSans-122"/>
      <use x="442.097656" xlink:href="#DejaVuSans-101"/>
      <use x="503.621094" xlink:href="#DejaVuSans-100"/>
      <use x="567.097656" xlink:href="#DejaVuSans-32"/>
      <use x="598.884766" xlink:href="#DejaVuSans-115"/>
      <use x="650.984375" xlink:href="#DejaVuSans-102"/>
      <use x="686.189453" xlink:href="#DejaVuSans-32"/>
      <use x="717.976562" xlink:href="#DejaVuSans-97"/>
      <use x="779.255859" xlink:href="#DejaVuSans-109"/>
      <use x="876.667969" xlink:href="#DejaVuSans-112"/>
      <use x="940.144531" xlink:href="#DejaVuSans-108"/>
      <use x="967.927734" xlink:href="#DejaVuSans-105"/>
      <use x="995.710938" xlink:href="#DejaVuSans-116"/>
      <use x="1034.919922" xlink:href="#DejaVuSans-117"/>
      <use x="1098.298828" xlink:href="#DejaVuSans-100"/>
      <use x="1161.775391" xlink:href="#DejaVuSans-101"/>
     </g>
    </g>
   </g>
   <g id="matplotlib.axis_4">
    <g id="ytick_6">
     <g id="line2d_19">
      <g>
       <use style="stroke:#000000;stroke-width:0.8;" x="459.105882" xlink:href="#m359df49f14" y="252"/>
      </g>
     </g>
     <g id="text_22">
      <!-- 0.0 -->
      <g transform="translate(426.660882 258.07875)scale(0.16 -0.16)">
       <use xlink:href="#DejaVuSans-48"/>
       <use x="63.623047" xlink:href="#DejaVuSans-46"/>
       <use x="95.410156" xlink:href="#DejaVuSans-48"/>
      </g>
     </g>
    </g>
    <g id="ytick_7">
     <g id="line2d_20">
      <g>
       <use style="stroke:#000000;stroke-width:0.8;" x="459.105882" xlink:href="#m359df49f14" y="207.27842"/>
      </g>
     </g>
     <g id="text_23">
      <!-- 0.2 -->
      <g transform="translate(426.660882 213.35717)scale(0.16 -0.16)">
       <use xlink:href="#DejaVuSans-48"/>
       <use x="63.623047" xlink:href="#DejaVuSans-46"/>
       <use x="95.410156" xlink:href="#DejaVuSans-50"/>
      </g>
     </g>
    </g>
    <g id="ytick_8">
     <g id="line2d_21">
      <g>
       <use style="stroke:#000000;stroke-width:0.8;" x="459.105882" xlink:href="#m359df49f14" y="162.556839"/>
      </g>
     </g>
     <g id="text_24">
      <!-- 0.4 -->
      <g transform="translate(426.660882 168.635589)scale(0.16 -0.16)">
       <use xlink:href="#DejaVuSans-48"/>
       <use x="63.623047" xlink:href="#DejaVuSans-46"/>
       <use x="95.410156" xlink:href="#DejaVuSans-52"/>
      </g>
     </g>
    </g>
    <g id="ytick_9">
     <g id="line2d_22">
      <g>
       <use style="stroke:#000000;stroke-width:0.8;" x="459.105882" xlink:href="#m359df49f14" y="117.835259"/>
      </g>
     </g>
     <g id="text_25">
      <!-- 0.6 -->
      <g transform="translate(426.660882 123.914009)scale(0.16 -0.16)">
       <use xlink:href="#DejaVuSans-48"/>
       <use x="63.623047" xlink:href="#DejaVuSans-46"/>
       <use x="95.410156" xlink:href="#DejaVuSans-54"/>
      </g>
     </g>
    </g>
    <g id="ytick_10">
     <g id="line2d_23">
      <g>
       <use style="stroke:#000000;stroke-width:0.8;" x="459.105882" xlink:href="#m359df49f14" y="73.113678"/>
      </g>
     </g>
     <g id="text_26">
      <!-- 0.8 -->
      <g transform="translate(426.660882 79.192428)scale(0.16 -0.16)">
       <use xlink:href="#DejaVuSans-48"/>
       <use x="63.623047" xlink:href="#DejaVuSans-46"/>
       <use x="95.410156" xlink:href="#DejaVuSans-56"/>
      </g>
     </g>
    </g>
    <g id="text_27">
     <!-- count -->
     <g transform="translate(419.333382 165.85)rotate(-90)scale(0.16 -0.16)">
      <use xlink:href="#DejaVuSans-99"/>
      <use x="54.980469" xlink:href="#DejaVuSans-111"/>
      <use x="116.162109" xlink:href="#DejaVuSans-117"/>
      <use x="179.541016" xlink:href="#DejaVuSans-110"/>
      <use x="242.919922" xlink:href="#DejaVuSans-116"/>
     </g>
    </g>
   </g>
   <g id="line2d_24">
    <path clip-path="url(#p4b6be456ca)" d="M 459.105882 252 
L 465.841613 195.577472 
L 469.209478 169.088692 
L 472.15636 147.523102 
L 474.682259 130.528469 
L 477.208157 115.11805 
L 479.313073 103.604213 
L 481.417989 93.377974 
L 483.101921 86.162142 
L 484.785854 79.826283 
L 486.469787 74.382574 
L 488.153719 69.835605 
L 489.416669 67.012445 
L 490.679618 64.688443 
L 491.942567 62.857601 
L 493.205517 61.511845 
L 494.047483 60.879285 
L 494.889449 60.454454 
L 495.731416 60.233564 
L 496.573382 60.212494 
L 497.415348 60.386807 
L 498.257315 60.75177 
L 499.099281 61.302373 
L 500.36223 62.464757 
L 501.62518 64.014143 
L 502.888129 65.930697 
L 504.151079 68.193679 
L 505.835011 71.712632 
L 507.518944 75.756622 
L 509.623859 81.46786 
L 511.728775 87.808861 
L 514.254674 96.099744 
L 517.622539 108.016544 
L 522.674337 126.927853 
L 530.252033 155.321539 
L 534.040882 168.687252 
L 537.408747 179.799355 
L 540.355629 188.824328 
L 543.302511 197.14046 
L 545.82841 203.68194 
L 548.354309 209.675779 
L 550.880207 215.126769 
L 553.406106 220.04822 
L 555.932005 224.46038 
L 558.457904 228.388916 
L 560.983803 231.863506 
L 563.509702 234.916555 
L 566.035601 237.582049 
L 568.561499 239.894577 
L 571.087398 241.888496 
L 573.613297 243.597253 
L 576.139196 245.052857 
L 579.086078 246.471246 
L 582.03296 247.630301 
L 585.400825 248.688495 
L 588.76869 249.512756 
L 592.557539 250.21658 
L 597.188353 250.830305 
L 602.661134 251.304573 
L 609.396864 251.644772 
L 618.658493 251.866765 
L 633.813887 251.976754 
L 669.176471 251.999799 
L 669.176471 251.999799 
" style="fill:none;stroke:#ff0000;stroke-linecap:square;stroke-width:1.5;"/>
   </g>
   <g id="patch_68">
    <path d="M 459.105882 252 
L 459.105882 34.56 
" style="fill:none;stroke:#000000;stroke-linecap:square;stroke-linejoin:miter;stroke-width:0.8;"/>
   </g>
   <g id="patch_69">
    <path d="M 721.694118 252 
L 721.694118 34.56 
" style="fill:none;stroke:#000000;stroke-linecap:square;stroke-linejoin:miter;stroke-width:0.8;"/>
   </g>
   <g id="patch_70">
    <path d="M 459.105882 252 
L 721.694118 252 
" style="fill:none;stroke:#000000;stroke-linecap:square;stroke-linejoin:miter;stroke-width:0.8;"/>
   </g>
   <g id="patch_71">
    <path d="M 459.105882 34.56 
L 721.694118 34.56 
" style="fill:none;stroke:#000000;stroke-linecap:square;stroke-linejoin:miter;stroke-width:0.8;"/>
   </g>
   <g id="text_28">
    <!-- Acentric -->
    <g transform="translate(551.076 28.56)scale(0.192 -0.192)">
     <defs>
      <path d="M 34.1875 63.1875 
L 20.796875 26.90625 
L 47.609375 26.90625 
z
M 28.609375 72.90625 
L 39.796875 72.90625 
L 67.578125 0 
L 57.328125 0 
L 50.6875 18.703125 
L 17.828125 18.703125 
L 11.1875 0 
L 0.78125 0 
z
" id="DejaVuSans-65"/>
     </defs>
     <use xlink:href="#DejaVuSans-65"/>
     <use x="66.658203" xlink:href="#DejaVuSans-99"/>
     <use x="121.638672" xlink:href="#DejaVuSans-101"/>
     <use x="183.162109" xlink:href="#DejaVuSans-110"/>
     <use x="246.541016" xlink:href="#DejaVuSans-116"/>
     <use x="285.75" xlink:href="#DejaVuSans-114"/>
     <use x="326.863281" xlink:href="#DejaVuSans-105"/>
     <use x="354.646484" xlink:href="#DejaVuSans-99"/>
    </g>
   </g>
  </g>
  <g id="axes_3">
   <g id="patch_72">
    <path d="M 774.211765 252 
L 1036.8 252 
L 1036.8 34.56 
L 774.211765 34.56 
z
" style="fill:#ffffff;"/>
   </g>
   <g id="patch_73">
    <path clip-path="url(#p4a869b6974)" d="M 786.147594 252 
L 788.534759 252 
L 788.534759 251.336264 
L 786.147594 251.336264 
z
" style="fill:#1f77b4;"/>
   </g>
   <g id="patch_74">
    <path clip-path="url(#p4a869b6974)" d="M 788.534759 252 
L 790.921925 252 
L 790.921925 249.5663 
L 788.534759 249.5663 
z
" style="fill:#1f77b4;"/>
   </g>
   <g id="patch_75">
    <path clip-path="url(#p4a869b6974)" d="M 790.921925 252 
L 793.309091 252 
L 793.309091 249.5663 
L 790.921925 249.5663 
z
" style="fill:#1f77b4;"/>
   </g>
   <g id="patch_76">
    <path clip-path="url(#p4a869b6974)" d="M 793.309091 252 
L 795.696257 252 
L 795.696257 246.69011 
L 793.309091 246.69011 
z
" style="fill:#1f77b4;"/>
   </g>
   <g id="patch_77">
    <path clip-path="url(#p4a869b6974)" d="M 795.696257 252 
L 798.083422 252 
L 798.083422 246.468864 
L 795.696257 246.468864 
z
" style="fill:#1f77b4;"/>
   </g>
   <g id="patch_78">
    <path clip-path="url(#p4a869b6974)" d="M 798.083422 252 
L 800.470588 252 
L 800.470588 244.477656 
L 798.083422 244.477656 
z
" style="fill:#1f77b4;"/>
   </g>
   <g id="patch_79">
    <path clip-path="url(#p4a869b6974)" d="M 800.470588 252 
L 802.857754 252 
L 802.857754 244.920147 
L 800.470588 244.920147 
z
" style="fill:#1f77b4;"/>
   </g>
   <g id="patch_80">
    <path clip-path="url(#p4a869b6974)" d="M 802.857754 252 
L 805.24492 252 
L 805.24492 240.052747 
L 802.857754 240.052747 
z
" style="fill:#1f77b4;"/>
   </g>
   <g id="patch_81">
    <path clip-path="url(#p4a869b6974)" d="M 805.24492 252 
L 807.632086 252 
L 807.632086 234.742857 
L 805.24492 234.742857 
z
" style="fill:#1f77b4;"/>
   </g>
   <g id="patch_82">
    <path clip-path="url(#p4a869b6974)" d="M 807.632086 252 
L 810.019251 252 
L 810.019251 234.521612 
L 807.632086 234.521612 
z
" style="fill:#1f77b4;"/>
   </g>
   <g id="patch_83">
    <path clip-path="url(#p4a869b6974)" d="M 810.019251 252 
L 812.406417 252 
L 812.406417 230.539194 
L 810.019251 230.539194 
z
" style="fill:#1f77b4;"/>
   </g>
   <g id="patch_84">
    <path clip-path="url(#p4a869b6974)" d="M 812.406417 252 
L 814.793583 252 
L 814.793583 229.654212 
L 812.406417 229.654212 
z
" style="fill:#1f77b4;"/>
   </g>
   <g id="patch_85">
    <path clip-path="url(#p4a869b6974)" d="M 814.793583 252 
L 817.180749 252 
L 817.180749 223.680586 
L 814.793583 223.680586 
z
" style="fill:#1f77b4;"/>
   </g>
   <g id="patch_86">
    <path clip-path="url(#p4a869b6974)" d="M 817.180749 252 
L 819.567914 252 
L 819.567914 215.494505 
L 817.180749 215.494505 
z
" style="fill:#1f77b4;"/>
   </g>
   <g id="patch_87">
    <path clip-path="url(#p4a869b6974)" d="M 819.567914 252 
L 821.95508 252 
L 821.95508 212.175824 
L 819.567914 212.175824 
z
" style="fill:#1f77b4;"/>
   </g>
   <g id="patch_88">
    <path clip-path="url(#p4a869b6974)" d="M 821.95508 252 
L 824.342246 252 
L 824.342246 204.65348 
L 821.95508 204.65348 
z
" style="fill:#1f77b4;"/>
   </g>
   <g id="patch_89">
    <path clip-path="url(#p4a869b6974)" d="M 824.342246 252 
L 826.729412 252 
L 826.729412 202.21978 
L 824.342246 202.21978 
z
" style="fill:#1f77b4;"/>
   </g>
   <g id="patch_90">
    <path clip-path="url(#p4a869b6974)" d="M 826.729412 252 
L 829.116578 252 
L 829.116578 196.688645 
L 826.729412 196.688645 
z
" style="fill:#1f77b4;"/>
   </g>
   <g id="patch_91">
    <path clip-path="url(#p4a869b6974)" d="M 829.116578 252 
L 831.503743 252 
L 831.503743 189.1663 
L 829.116578 189.1663 
z
" style="fill:#1f77b4;"/>
   </g>
   <g id="patch_92">
    <path clip-path="url(#p4a869b6974)" d="M 831.503743 252 
L 833.890909 252 
L 833.890909 184.962637 
L 831.503743 184.962637 
z
" style="fill:#1f77b4;"/>
   </g>
   <g id="patch_93">
    <path clip-path="url(#p4a869b6974)" d="M 833.890909 252 
L 836.278075 252 
L 836.278075 159.961905 
L 833.890909 159.961905 
z
" style="fill:#1f77b4;"/>
   </g>
   <g id="patch_94">
    <path clip-path="url(#p4a869b6974)" d="M 836.278075 252 
L 838.665241 252 
L 838.665241 163.501832 
L 836.278075 163.501832 
z
" style="fill:#1f77b4;"/>
   </g>
   <g id="patch_95">
    <path clip-path="url(#p4a869b6974)" d="M 838.665241 252 
L 841.052406 252 
L 841.052406 160.404396 
L 838.665241 160.404396 
z
" style="fill:#1f77b4;"/>
   </g>
   <g id="patch_96">
    <path clip-path="url(#p4a869b6974)" d="M 841.052406 252 
L 843.439572 252 
L 843.439572 152.218315 
L 841.052406 152.218315 
z
" style="fill:#1f77b4;"/>
   </g>
   <g id="patch_97">
    <path clip-path="url(#p4a869b6974)" d="M 843.439572 252 
L 845.826738 252 
L 845.826738 142.483516 
L 843.439572 142.483516 
z
" style="fill:#1f77b4;"/>
   </g>
   <g id="patch_98">
    <path clip-path="url(#p4a869b6974)" d="M 845.826738 252 
L 848.213904 252 
L 848.213904 148.014652 
L 845.826738 148.014652 
z
" style="fill:#1f77b4;"/>
   </g>
   <g id="patch_99">
    <path clip-path="url(#p4a869b6974)" d="M 848.213904 252 
L 850.60107 252 
L 850.60107 140.271062 
L 848.213904 140.271062 
z
" style="fill:#1f77b4;"/>
   </g>
   <g id="patch_100">
    <path clip-path="url(#p4a869b6974)" d="M 850.60107 252 
L 852.988235 252 
L 852.988235 130.536264 
L 850.60107 130.536264 
z
" style="fill:#1f77b4;"/>
   </g>
   <g id="patch_101">
    <path clip-path="url(#p4a869b6974)" d="M 852.988235 252 
L 855.375401 252 
L 855.375401 131.642491 
L 852.988235 131.642491 
z
" style="fill:#1f77b4;"/>
   </g>
   <g id="patch_102">
    <path clip-path="url(#p4a869b6974)" d="M 855.375401 252 
L 857.762567 252 
L 857.762567 119.916484 
L 855.375401 119.916484 
z
" style="fill:#1f77b4;"/>
   </g>
   <g id="patch_103">
    <path clip-path="url(#p4a869b6974)" d="M 857.762567 252 
L 860.149733 252 
L 860.149733 107.305495 
L 857.762567 107.305495 
z
" style="fill:#1f77b4;"/>
   </g>
   <g id="patch_104">
    <path clip-path="url(#p4a869b6974)" d="M 860.149733 252 
L 862.536898 252 
L 862.536898 93.367033 
L 860.149733 93.367033 
z
" style="fill:#1f77b4;"/>
   </g>
   <g id="patch_105">
    <path clip-path="url(#p4a869b6974)" d="M 862.536898 252 
L 864.924064 252 
L 864.924064 79.207326 
L 862.536898 79.207326 
z
" style="fill:#1f77b4;"/>
   </g>
   <g id="patch_106">
    <path clip-path="url(#p4a869b6974)" d="M 864.924064 252 
L 867.31123 252 
L 867.31123 85.180952 
L 864.924064 85.180952 
z
" style="fill:#1f77b4;"/>
   </g>
   <g id="patch_107">
    <path clip-path="url(#p4a869b6974)" d="M 867.31123 252 
L 869.698396 252 
L 869.698396 61.065201 
L 867.31123 61.065201 
z
" style="fill:#1f77b4;"/>
   </g>
   <g id="patch_108">
    <path clip-path="url(#p4a869b6974)" d="M 869.698396 252 
L 872.085561 252 
L 872.085561 55.976557 
L 869.698396 55.976557 
z
" style="fill:#1f77b4;"/>
   </g>
   <g id="patch_109">
    <path clip-path="url(#p4a869b6974)" d="M 872.085561 252 
L 874.472727 252 
L 874.472727 67.260073 
L 872.085561 67.260073 
z
" style="fill:#1f77b4;"/>
   </g>
   <g id="patch_110">
    <path clip-path="url(#p4a869b6974)" d="M 874.472727 252 
L 876.859893 252 
L 876.859893 77.879853 
L 874.472727 77.879853 
z
" style="fill:#1f77b4;"/>
   </g>
   <g id="patch_111">
    <path clip-path="url(#p4a869b6974)" d="M 876.859893 252 
L 879.247059 252 
L 879.247059 65.932601 
L 876.859893 65.932601 
z
" style="fill:#1f77b4;"/>
   </g>
   <g id="patch_112">
    <path clip-path="url(#p4a869b6974)" d="M 879.247059 252 
L 881.634225 252 
L 881.634225 74.782418 
L 879.247059 74.782418 
z
" style="fill:#1f77b4;"/>
   </g>
   <g id="patch_113">
    <path clip-path="url(#p4a869b6974)" d="M 881.634225 252 
L 884.02139 252 
L 884.02139 77.216117 
L 881.634225 77.216117 
z
" style="fill:#1f77b4;"/>
   </g>
   <g id="patch_114">
    <path clip-path="url(#p4a869b6974)" d="M 884.02139 252 
L 886.408556 252 
L 886.408556 62.835165 
L 884.02139 62.835165 
z
" style="fill:#1f77b4;"/>
   </g>
   <g id="patch_115">
    <path clip-path="url(#p4a869b6974)" d="M 886.408556 252 
L 888.795722 252 
L 888.795722 74.339927 
L 886.408556 74.339927 
z
" style="fill:#1f77b4;"/>
   </g>
   <g id="patch_116">
    <path clip-path="url(#p4a869b6974)" d="M 888.795722 252 
L 891.182888 252 
L 891.182888 78.986081 
L 888.795722 78.986081 
z
" style="fill:#1f77b4;"/>
   </g>
   <g id="patch_117">
    <path clip-path="url(#p4a869b6974)" d="M 891.182888 252 
L 893.570053 252 
L 893.570053 60.843956 
L 891.182888 60.843956 
z
" style="fill:#1f77b4;"/>
   </g>
   <g id="patch_118">
    <path clip-path="url(#p4a869b6974)" d="M 893.570053 252 
L 895.957219 252 
L 895.957219 44.914286 
L 893.570053 44.914286 
z
" style="fill:#1f77b4;"/>
   </g>
   <g id="patch_119">
    <path clip-path="url(#p4a869b6974)" d="M 895.957219 252 
L 898.344385 252 
L 898.344385 66.817582 
L 895.957219 66.817582 
z
" style="fill:#1f77b4;"/>
   </g>
   <g id="patch_120">
    <path clip-path="url(#p4a869b6974)" d="M 898.344385 252 
L 900.731551 252 
L 900.731551 73.2337 
L 898.344385 73.2337 
z
" style="fill:#1f77b4;"/>
   </g>
   <g id="patch_121">
    <path clip-path="url(#p4a869b6974)" d="M 900.731551 252 
L 903.118717 252 
L 903.118717 76.10989 
L 900.731551 76.10989 
z
" style="fill:#1f77b4;"/>
   </g>
   <g id="patch_122">
    <path clip-path="url(#p4a869b6974)" d="M 903.118717 252 
L 905.505882 252 
L 905.505882 72.569963 
L 903.118717 72.569963 
z
" style="fill:#1f77b4;"/>
   </g>
   <g id="patch_123">
    <path clip-path="url(#p4a869b6974)" d="M 905.505882 252 
L 907.893048 252 
L 907.893048 66.375092 
L 905.505882 66.375092 
z
" style="fill:#1f77b4;"/>
   </g>
   <g id="patch_124">
    <path clip-path="url(#p4a869b6974)" d="M 907.893048 252 
L 910.280214 252 
L 910.280214 75.667399 
L 907.893048 75.667399 
z
" style="fill:#1f77b4;"/>
   </g>
   <g id="patch_125">
    <path clip-path="url(#p4a869b6974)" d="M 910.280214 252 
L 912.66738 252 
L 912.66738 72.569963 
L 910.280214 72.569963 
z
" style="fill:#1f77b4;"/>
   </g>
   <g id="patch_126">
    <path clip-path="url(#p4a869b6974)" d="M 912.66738 252 
L 915.054545 252 
L 915.054545 88.057143 
L 912.66738 88.057143 
z
" style="fill:#1f77b4;"/>
   </g>
   <g id="patch_127">
    <path clip-path="url(#p4a869b6974)" d="M 915.054545 252 
L 917.441711 252 
L 917.441711 90.712088 
L 915.054545 90.712088 
z
" style="fill:#1f77b4;"/>
   </g>
   <g id="patch_128">
    <path clip-path="url(#p4a869b6974)" d="M 917.441711 252 
L 919.828877 252 
L 919.828877 84.738462 
L 917.441711 84.738462 
z
" style="fill:#1f77b4;"/>
   </g>
   <g id="patch_129">
    <path clip-path="url(#p4a869b6974)" d="M 919.828877 252 
L 922.216043 252 
L 922.216043 83.632234 
L 919.828877 83.632234 
z
" style="fill:#1f77b4;"/>
   </g>
   <g id="patch_130">
    <path clip-path="url(#p4a869b6974)" d="M 922.216043 252 
L 924.603209 252 
L 924.603209 83.85348 
L 922.216043 83.85348 
z
" style="fill:#1f77b4;"/>
   </g>
   <g id="patch_131">
    <path clip-path="url(#p4a869b6974)" d="M 924.603209 252 
L 926.990374 252 
L 926.990374 97.128205 
L 924.603209 97.128205 
z
" style="fill:#1f77b4;"/>
   </g>
   <g id="patch_132">
    <path clip-path="url(#p4a869b6974)" d="M 926.990374 252 
L 929.37754 252 
L 929.37754 95.358242 
L 926.990374 95.358242 
z
" style="fill:#1f77b4;"/>
   </g>
   <g id="patch_133">
    <path clip-path="url(#p4a869b6974)" d="M 929.37754 252 
L 931.764706 252 
L 931.764706 83.85348 
L 929.37754 83.85348 
z
" style="fill:#1f77b4;"/>
   </g>
   <g id="patch_134">
    <path clip-path="url(#p4a869b6974)" d="M 931.764706 252 
L 934.151872 252 
L 934.151872 92.924542 
L 931.764706 92.924542 
z
" style="fill:#1f77b4;"/>
   </g>
   <g id="patch_135">
    <path clip-path="url(#p4a869b6974)" d="M 934.151872 252 
L 936.539037 252 
L 936.539037 97.128205 
L 934.151872 97.128205 
z
" style="fill:#1f77b4;"/>
   </g>
   <g id="patch_136">
    <path clip-path="url(#p4a869b6974)" d="M 936.539037 252 
L 938.926203 252 
L 938.926203 118.367766 
L 936.539037 118.367766 
z
" style="fill:#1f77b4;"/>
   </g>
   <g id="patch_137">
    <path clip-path="url(#p4a869b6974)" d="M 938.926203 252 
L 941.313369 252 
L 941.313369 127.438828 
L 938.926203 127.438828 
z
" style="fill:#1f77b4;"/>
   </g>
   <g id="patch_138">
    <path clip-path="url(#p4a869b6974)" d="M 941.313369 252 
L 943.700535 252 
L 943.700535 134.518681 
L 941.313369 134.518681 
z
" style="fill:#1f77b4;"/>
   </g>
   <g id="patch_139">
    <path clip-path="url(#p4a869b6974)" d="M 943.700535 252 
L 946.087701 252 
L 946.087701 149.342125 
L 943.700535 149.342125 
z
" style="fill:#1f77b4;"/>
   </g>
   <g id="patch_140">
    <path clip-path="url(#p4a869b6974)" d="M 946.087701 252 
L 948.474866 252 
L 948.474866 159.740659 
L 946.087701 159.740659 
z
" style="fill:#1f77b4;"/>
   </g>
   <g id="patch_141">
    <path clip-path="url(#p4a869b6974)" d="M 948.474866 252 
L 950.862032 252 
L 950.862032 163.944322 
L 948.474866 163.944322 
z
" style="fill:#1f77b4;"/>
   </g>
   <g id="patch_142">
    <path clip-path="url(#p4a869b6974)" d="M 950.862032 252 
L 953.249198 252 
L 953.249198 171.687912 
L 950.862032 171.687912 
z
" style="fill:#1f77b4;"/>
   </g>
   <g id="patch_143">
    <path clip-path="url(#p4a869b6974)" d="M 953.249198 252 
L 955.636364 252 
L 955.636364 170.581685 
L 953.249198 170.581685 
z
" style="fill:#1f77b4;"/>
   </g>
   <g id="patch_144">
    <path clip-path="url(#p4a869b6974)" d="M 955.636364 252 
L 958.023529 252 
L 958.023529 177.219048 
L 955.636364 177.219048 
z
" style="fill:#1f77b4;"/>
   </g>
   <g id="patch_145">
    <path clip-path="url(#p4a869b6974)" d="M 958.023529 252 
L 960.410695 252 
L 960.410695 182.086447 
L 958.023529 182.086447 
z
" style="fill:#1f77b4;"/>
   </g>
   <g id="patch_146">
    <path clip-path="url(#p4a869b6974)" d="M 960.410695 252 
L 962.797861 252 
L 962.797861 189.387546 
L 960.410695 189.387546 
z
" style="fill:#1f77b4;"/>
   </g>
   <g id="patch_147">
    <path clip-path="url(#p4a869b6974)" d="M 962.797861 252 
L 965.185027 252 
L 965.185027 190.272527 
L 962.797861 190.272527 
z
" style="fill:#1f77b4;"/>
   </g>
   <g id="patch_148">
    <path clip-path="url(#p4a869b6974)" d="M 965.185027 252 
L 967.572193 252 
L 967.572193 192.927473 
L 965.185027 192.927473 
z
" style="fill:#1f77b4;"/>
   </g>
   <g id="patch_149">
    <path clip-path="url(#p4a869b6974)" d="M 967.572193 252 
L 969.959358 252 
L 969.959358 192.706227 
L 967.572193 192.706227 
z
" style="fill:#1f77b4;"/>
   </g>
   <g id="patch_150">
    <path clip-path="url(#p4a869b6974)" d="M 969.959358 252 
L 972.346524 252 
L 972.346524 190.936264 
L 969.959358 190.936264 
z
" style="fill:#1f77b4;"/>
   </g>
   <g id="patch_151">
    <path clip-path="url(#p4a869b6974)" d="M 972.346524 252 
L 974.73369 252 
L 974.73369 200.449817 
L 972.346524 200.449817 
z
" style="fill:#1f77b4;"/>
   </g>
   <g id="patch_152">
    <path clip-path="url(#p4a869b6974)" d="M 974.73369 252 
L 977.120856 252 
L 977.120856 203.768498 
L 974.73369 203.768498 
z
" style="fill:#1f77b4;"/>
   </g>
   <g id="patch_153">
    <path clip-path="url(#p4a869b6974)" d="M 977.120856 252 
L 979.508021 252 
L 979.508021 212.39707 
L 977.120856 212.39707 
z
" style="fill:#1f77b4;"/>
   </g>
   <g id="patch_154">
    <path clip-path="url(#p4a869b6974)" d="M 979.508021 252 
L 981.895187 252 
L 981.895187 208.635897 
L 979.508021 208.635897 
z
" style="fill:#1f77b4;"/>
   </g>
   <g id="patch_155">
    <path clip-path="url(#p4a869b6974)" d="M 981.895187 252 
L 984.282353 252 
L 984.282353 211.733333 
L 981.895187 211.733333 
z
" style="fill:#1f77b4;"/>
   </g>
   <g id="patch_156">
    <path clip-path="url(#p4a869b6974)" d="M 984.282353 252 
L 986.669519 252 
L 986.669519 215.27326 
L 984.282353 215.27326 
z
" style="fill:#1f77b4;"/>
   </g>
   <g id="patch_157">
    <path clip-path="url(#p4a869b6974)" d="M 986.669519 252 
L 989.056684 252 
L 989.056684 215.27326 
L 986.669519 215.27326 
z
" style="fill:#1f77b4;"/>
   </g>
   <g id="patch_158">
    <path clip-path="url(#p4a869b6974)" d="M 989.056684 252 
L 991.44385 252 
L 991.44385 222.795604 
L 989.056684 222.795604 
z
" style="fill:#1f77b4;"/>
   </g>
   <g id="patch_159">
    <path clip-path="url(#p4a869b6974)" d="M 991.44385 252 
L 993.831016 252 
L 993.831016 222.574359 
L 991.44385 222.574359 
z
" style="fill:#1f77b4;"/>
   </g>
   <g id="patch_160">
    <path clip-path="url(#p4a869b6974)" d="M 993.831016 252 
L 996.218182 252 
L 996.218182 221.468132 
L 993.831016 221.468132 
z
" style="fill:#1f77b4;"/>
   </g>
   <g id="patch_161">
    <path clip-path="url(#p4a869b6974)" d="M 996.218182 252 
L 998.605348 252 
L 998.605348 224.565568 
L 996.218182 224.565568 
z
" style="fill:#1f77b4;"/>
   </g>
   <g id="patch_162">
    <path clip-path="url(#p4a869b6974)" d="M 998.605348 252 
L 1000.992513 252 
L 1000.992513 226.114286 
L 998.605348 226.114286 
z
" style="fill:#1f77b4;"/>
   </g>
   <g id="patch_163">
    <path clip-path="url(#p4a869b6974)" d="M 1000.992513 252 
L 1003.379679 252 
L 1003.379679 227.220513 
L 1000.992513 227.220513 
z
" style="fill:#1f77b4;"/>
   </g>
   <g id="patch_164">
    <path clip-path="url(#p4a869b6974)" d="M 1003.379679 252 
L 1005.766845 252 
L 1005.766845 228.105495 
L 1003.379679 228.105495 
z
" style="fill:#1f77b4;"/>
   </g>
   <g id="patch_165">
    <path clip-path="url(#p4a869b6974)" d="M 1005.766845 252 
L 1008.154011 252 
L 1008.154011 236.291575 
L 1005.766845 236.291575 
z
" style="fill:#1f77b4;"/>
   </g>
   <g id="patch_166">
    <path clip-path="url(#p4a869b6974)" d="M 1008.154011 252 
L 1010.541176 252 
L 1010.541176 239.831502 
L 1008.154011 239.831502 
z
" style="fill:#1f77b4;"/>
   </g>
   <g id="patch_167">
    <path clip-path="url(#p4a869b6974)" d="M 1010.541176 252 
L 1012.928342 252 
L 1012.928342 242.928938 
L 1010.541176 242.928938 
z
" style="fill:#1f77b4;"/>
   </g>
   <g id="patch_168">
    <path clip-path="url(#p4a869b6974)" d="M 1012.928342 252 
L 1015.315508 252 
L 1015.315508 240.937729 
L 1012.928342 240.937729 
z
" style="fill:#1f77b4;"/>
   </g>
   <g id="patch_169">
    <path clip-path="url(#p4a869b6974)" d="M 1015.315508 252 
L 1017.702674 252 
L 1017.702674 244.477656 
L 1015.315508 244.477656 
z
" style="fill:#1f77b4;"/>
   </g>
   <g id="patch_170">
    <path clip-path="url(#p4a869b6974)" d="M 1017.702674 252 
L 1020.08984 252 
L 1020.08984 246.911355 
L 1017.702674 246.911355 
z
" style="fill:#1f77b4;"/>
   </g>
   <g id="patch_171">
    <path clip-path="url(#p4a869b6974)" d="M 1020.08984 252 
L 1022.477005 252 
L 1022.477005 248.681319 
L 1020.08984 248.681319 
z
" style="fill:#1f77b4;"/>
   </g>
   <g id="patch_172">
    <path clip-path="url(#p4a869b6974)" d="M 1022.477005 252 
L 1024.864171 252 
L 1024.864171 250.451282 
L 1022.477005 250.451282 
z
" style="fill:#1f77b4;"/>
   </g>
   <g id="matplotlib.axis_5">
    <g id="xtick_13">
     <g id="line2d_25">
      <path clip-path="url(#p4a869b6974)" d="M 801.777169 252 
L 801.777169 34.56 
" style="fill:none;stroke:#b0b0b0;stroke-linecap:square;stroke-width:0.8;"/>
     </g>
     <g id="line2d_26">
      <g>
       <use style="stroke:#000000;stroke-width:0.8;" x="801.777169" xlink:href="#m758b2cb3a9" y="252"/>
      </g>
     </g>
     <g id="text_29">
      <!-- 0.8 -->
      <g transform="translate(789.054669 271.1575)scale(0.16 -0.16)">
       <use xlink:href="#DejaVuSans-48"/>
       <use x="63.623047" xlink:href="#DejaVuSans-46"/>
       <use x="95.410156" xlink:href="#DejaVuSans-56"/>
      </g>
     </g>
    </g>
    <g id="xtick_14">
     <g id="line2d_27">
      <path clip-path="url(#p4a869b6974)" d="M 854.518196 252 
L 854.518196 34.56 
" style="fill:none;stroke:#b0b0b0;stroke-linecap:square;stroke-width:0.8;"/>
     </g>
     <g id="line2d_28">
      <g>
       <use style="stroke:#000000;stroke-width:0.8;" x="854.518196" xlink:href="#m758b2cb3a9" y="252"/>
      </g>
     </g>
     <g id="text_30">
      <!-- 0.9 -->
      <g transform="translate(841.795696 271.1575)scale(0.16 -0.16)">
       <defs>
        <path d="M 10.984375 1.515625 
L 10.984375 10.5 
Q 14.703125 8.734375 18.5 7.8125 
Q 22.3125 6.890625 25.984375 6.890625 
Q 35.75 6.890625 40.890625 13.453125 
Q 46.046875 20.015625 46.78125 33.40625 
Q 43.953125 29.203125 39.59375 26.953125 
Q 35.25 24.703125 29.984375 24.703125 
Q 19.046875 24.703125 12.671875 31.3125 
Q 6.296875 37.9375 6.296875 49.421875 
Q 6.296875 60.640625 12.9375 67.421875 
Q 19.578125 74.21875 30.609375 74.21875 
Q 43.265625 74.21875 49.921875 64.515625 
Q 56.59375 54.828125 56.59375 36.375 
Q 56.59375 19.140625 48.40625 8.859375 
Q 40.234375 -1.421875 26.421875 -1.421875 
Q 22.703125 -1.421875 18.890625 -0.6875 
Q 15.09375 0.046875 10.984375 1.515625 
z
M 30.609375 32.421875 
Q 37.25 32.421875 41.125 36.953125 
Q 45.015625 41.5 45.015625 49.421875 
Q 45.015625 57.28125 41.125 61.84375 
Q 37.25 66.40625 30.609375 66.40625 
Q 23.96875 66.40625 20.09375 61.84375 
Q 16.21875 57.28125 16.21875 49.421875 
Q 16.21875 41.5 20.09375 36.953125 
Q 23.96875 32.421875 30.609375 32.421875 
z
" id="DejaVuSans-57"/>
       </defs>
       <use xlink:href="#DejaVuSans-48"/>
       <use x="63.623047" xlink:href="#DejaVuSans-46"/>
       <use x="95.410156" xlink:href="#DejaVuSans-57"/>
      </g>
     </g>
    </g>
    <g id="xtick_15">
     <g id="line2d_29">
      <path clip-path="url(#p4a869b6974)" d="M 907.259223 252 
L 907.259223 34.56 
" style="fill:none;stroke:#b0b0b0;stroke-linecap:square;stroke-width:0.8;"/>
     </g>
     <g id="line2d_30">
      <g>
       <use style="stroke:#000000;stroke-width:0.8;" x="907.259223" xlink:href="#m758b2cb3a9" y="252"/>
      </g>
     </g>
     <g id="text_31">
      <!-- 1.0 -->
      <g transform="translate(894.536723 271.1575)scale(0.16 -0.16)">
       <use xlink:href="#DejaVuSans-49"/>
       <use x="63.623047" xlink:href="#DejaVuSans-46"/>
       <use x="95.410156" xlink:href="#DejaVuSans-48"/>
      </g>
     </g>
    </g>
    <g id="xtick_16">
     <g id="line2d_31">
      <path clip-path="url(#p4a869b6974)" d="M 960.00025 252 
L 960.00025 34.56 
" style="fill:none;stroke:#b0b0b0;stroke-linecap:square;stroke-width:0.8;"/>
     </g>
     <g id="line2d_32">
      <g>
       <use style="stroke:#000000;stroke-width:0.8;" x="960.00025" xlink:href="#m758b2cb3a9" y="252"/>
      </g>
     </g>
     <g id="text_32">
      <!-- 1.1 -->
      <g transform="translate(947.27775 271.1575)scale(0.16 -0.16)">
       <use xlink:href="#DejaVuSans-49"/>
       <use x="63.623047" xlink:href="#DejaVuSans-46"/>
       <use x="95.410156" xlink:href="#DejaVuSans-49"/>
      </g>
     </g>
    </g>
    <g id="xtick_17">
     <g id="line2d_33">
      <path clip-path="url(#p4a869b6974)" d="M 1012.741277 252 
L 1012.741277 34.56 
" style="fill:none;stroke:#b0b0b0;stroke-linecap:square;stroke-width:0.8;"/>
     </g>
     <g id="line2d_34">
      <g>
       <use style="stroke:#000000;stroke-width:0.8;" x="1012.741277" xlink:href="#m758b2cb3a9" y="252"/>
      </g>
     </g>
     <g id="text_33">
      <!-- 1.2 -->
      <g transform="translate(1000.018777 271.1575)scale(0.16 -0.16)">
       <use xlink:href="#DejaVuSans-49"/>
       <use x="63.623047" xlink:href="#DejaVuSans-46"/>
       <use x="95.410156" xlink:href="#DejaVuSans-50"/>
      </g>
     </g>
    </g>
   </g>
   <g id="matplotlib.axis_6">
    <g id="ytick_11">
     <g id="line2d_35">
      <path clip-path="url(#p4a869b6974)" d="M 774.211765 252 
L 1036.8 252 
" style="fill:none;stroke:#b0b0b0;stroke-linecap:square;stroke-width:0.8;"/>
     </g>
     <g id="line2d_36">
      <g>
       <use style="stroke:#000000;stroke-width:0.8;" x="774.211765" xlink:href="#m359df49f14" y="252"/>
      </g>
     </g>
     <g id="text_34">
      <!-- 0 -->
      <g transform="translate(757.031765 258.07875)scale(0.16 -0.16)">
       <use xlink:href="#DejaVuSans-48"/>
      </g>
     </g>
    </g>
    <g id="ytick_12">
     <g id="line2d_37">
      <path clip-path="url(#p4a869b6974)" d="M 774.211765 207.750916 
L 1036.8 207.750916 
" style="fill:none;stroke:#b0b0b0;stroke-linecap:square;stroke-width:0.8;"/>
     </g>
     <g id="line2d_38">
      <g>
       <use style="stroke:#000000;stroke-width:0.8;" x="774.211765" xlink:href="#m359df49f14" y="207.750916"/>
      </g>
     </g>
     <g id="text_35">
      <!-- 200 -->
      <g transform="translate(736.671765 213.829666)scale(0.16 -0.16)">
       <use xlink:href="#DejaVuSans-50"/>
       <use x="63.623047" xlink:href="#DejaVuSans-48"/>
       <use x="127.246094" xlink:href="#DejaVuSans-48"/>
      </g>
     </g>
    </g>
    <g id="ytick_13">
     <g id="line2d_39">
      <path clip-path="url(#p4a869b6974)" d="M 774.211765 163.501832 
L 1036.8 163.501832 
" style="fill:none;stroke:#b0b0b0;stroke-linecap:square;stroke-width:0.8;"/>
     </g>
     <g id="line2d_40">
      <g>
       <use style="stroke:#000000;stroke-width:0.8;" x="774.211765" xlink:href="#m359df49f14" y="163.501832"/>
      </g>
     </g>
     <g id="text_36">
      <!-- 400 -->
      <g transform="translate(736.671765 169.580582)scale(0.16 -0.16)">
       <use xlink:href="#DejaVuSans-52"/>
       <use x="63.623047" xlink:href="#DejaVuSans-48"/>
       <use x="127.246094" xlink:href="#DejaVuSans-48"/>
      </g>
     </g>
    </g>
    <g id="ytick_14">
     <g id="line2d_41">
      <path clip-path="url(#p4a869b6974)" d="M 774.211765 119.252747 
L 1036.8 119.252747 
" style="fill:none;stroke:#b0b0b0;stroke-linecap:square;stroke-width:0.8;"/>
     </g>
     <g id="line2d_42">
      <g>
       <use style="stroke:#000000;stroke-width:0.8;" x="774.211765" xlink:href="#m359df49f14" y="119.252747"/>
      </g>
     </g>
     <g id="text_37">
      <!-- 600 -->
      <g transform="translate(736.671765 125.331497)scale(0.16 -0.16)">
       <use xlink:href="#DejaVuSans-54"/>
       <use x="63.623047" xlink:href="#DejaVuSans-48"/>
       <use x="127.246094" xlink:href="#DejaVuSans-48"/>
      </g>
     </g>
    </g>
    <g id="ytick_15">
     <g id="line2d_43">
      <path clip-path="url(#p4a869b6974)" d="M 774.211765 75.003663 
L 1036.8 75.003663 
" style="fill:none;stroke:#b0b0b0;stroke-linecap:square;stroke-width:0.8;"/>
     </g>
     <g id="line2d_44">
      <g>
       <use style="stroke:#000000;stroke-width:0.8;" x="774.211765" xlink:href="#m359df49f14" y="75.003663"/>
      </g>
     </g>
     <g id="text_38">
      <!-- 800 -->
      <g transform="translate(736.671765 81.082413)scale(0.16 -0.16)">
       <use xlink:href="#DejaVuSans-56"/>
       <use x="63.623047" xlink:href="#DejaVuSans-48"/>
       <use x="127.246094" xlink:href="#DejaVuSans-48"/>
      </g>
     </g>
    </g>
   </g>
   <g id="patch_173">
    <path d="M 774.211765 252 
L 774.211765 34.56 
" style="fill:none;stroke:#000000;stroke-linecap:square;stroke-linejoin:miter;stroke-width:0.8;"/>
   </g>
   <g id="patch_174">
    <path d="M 1036.8 252 
L 1036.8 34.56 
" style="fill:none;stroke:#000000;stroke-linecap:square;stroke-linejoin:miter;stroke-width:0.8;"/>
   </g>
   <g id="patch_175">
    <path d="M 774.211765 252 
L 1036.8 252 
" style="fill:none;stroke:#000000;stroke-linecap:square;stroke-linejoin:miter;stroke-width:0.8;"/>
   </g>
   <g id="patch_176">
    <path d="M 774.211765 34.56 
L 1036.8 34.56 
" style="fill:none;stroke:#000000;stroke-linecap:square;stroke-linejoin:miter;stroke-width:0.8;"/>
   </g>
   <g id="text_39">
    <!-- Scale factors v. naive aniso scaling -->
    <g transform="translate(737.898882 28.56)scale(0.192 -0.192)">
     <defs>
      <path d="M 53.515625 70.515625 
L 53.515625 60.890625 
Q 47.90625 63.578125 42.921875 64.890625 
Q 37.9375 66.21875 33.296875 66.21875 
Q 25.25 66.21875 20.875 63.09375 
Q 16.5 59.96875 16.5 54.203125 
Q 16.5 49.359375 19.40625 46.890625 
Q 22.3125 44.4375 30.421875 42.921875 
L 36.375 41.703125 
Q 47.40625 39.59375 52.65625 34.296875 
Q 57.90625 29 57.90625 20.125 
Q 57.90625 9.515625 50.796875 4.046875 
Q 43.703125 -1.421875 29.984375 -1.421875 
Q 24.8125 -1.421875 18.96875 -0.25 
Q 13.140625 0.921875 6.890625 3.21875 
L 6.890625 13.375 
Q 12.890625 10.015625 18.65625 8.296875 
Q 24.421875 6.59375 29.984375 6.59375 
Q 38.421875 6.59375 43.015625 9.90625 
Q 47.609375 13.234375 47.609375 19.390625 
Q 47.609375 24.75 44.3125 27.78125 
Q 41.015625 30.8125 33.5 32.328125 
L 27.484375 33.5 
Q 16.453125 35.6875 11.515625 40.375 
Q 6.59375 45.0625 6.59375 53.421875 
Q 6.59375 63.09375 13.40625 68.65625 
Q 20.21875 74.21875 32.171875 74.21875 
Q 37.3125 74.21875 42.625 73.28125 
Q 47.953125 72.359375 53.515625 70.515625 
z
" id="DejaVuSans-83"/>
      <path d="M 2.984375 54.6875 
L 12.5 54.6875 
L 29.59375 8.796875 
L 46.6875 54.6875 
L 56.203125 54.6875 
L 35.6875 0 
L 23.484375 0 
z
" id="DejaVuSans-118"/>
      <path d="M 45.40625 27.984375 
Q 45.40625 37.75 41.375 43.109375 
Q 37.359375 48.484375 30.078125 48.484375 
Q 22.859375 48.484375 18.828125 43.109375 
Q 14.796875 37.75 14.796875 27.984375 
Q 14.796875 18.265625 18.828125 12.890625 
Q 22.859375 7.515625 30.078125 7.515625 
Q 37.359375 7.515625 41.375 12.890625 
Q 45.40625 18.265625 45.40625 27.984375 
z
M 54.390625 6.78125 
Q 54.390625 -7.171875 48.1875 -13.984375 
Q 42 -20.796875 29.203125 -20.796875 
Q 24.46875 -20.796875 20.265625 -20.09375 
Q 16.0625 -19.390625 12.109375 -17.921875 
L 12.109375 -9.1875 
Q 16.0625 -11.328125 19.921875 -12.34375 
Q 23.78125 -13.375 27.78125 -13.375 
Q 36.625 -13.375 41.015625 -8.765625 
Q 45.40625 -4.15625 45.40625 5.171875 
L 45.40625 9.625 
Q 42.625 4.78125 38.28125 2.390625 
Q 33.9375 0 27.875 0 
Q 17.828125 0 11.671875 7.65625 
Q 5.515625 15.328125 5.515625 27.984375 
Q 5.515625 40.671875 11.671875 48.328125 
Q 17.828125 56 27.875 56 
Q 33.9375 56 38.28125 53.609375 
Q 42.625 51.21875 45.40625 46.390625 
L 45.40625 54.6875 
L 54.390625 54.6875 
z
" id="DejaVuSans-103"/>
     </defs>
     <use xlink:href="#DejaVuSans-83"/>
     <use x="63.476562" xlink:href="#DejaVuSans-99"/>
     <use x="118.457031" xlink:href="#DejaVuSans-97"/>
     <use x="179.736328" xlink:href="#DejaVuSans-108"/>
     <use x="207.519531" xlink:href="#DejaVuSans-101"/>
     <use x="269.042969" xlink:href="#DejaVuSans-32"/>
     <use x="300.830078" xlink:href="#DejaVuSans-102"/>
     <use x="336.035156" xlink:href="#DejaVuSans-97"/>
     <use x="397.314453" xlink:href="#DejaVuSans-99"/>
     <use x="452.294922" xlink:href="#DejaVuSans-116"/>
     <use x="491.503906" xlink:href="#DejaVuSans-111"/>
     <use x="552.685547" xlink:href="#DejaVuSans-114"/>
     <use x="593.798828" xlink:href="#DejaVuSans-115"/>
     <use x="645.898438" xlink:href="#DejaVuSans-32"/>
     <use x="677.685547" xlink:href="#DejaVuSans-118"/>
     <use x="729.115234" xlink:href="#DejaVuSans-46"/>
     <use x="760.902344" xlink:href="#DejaVuSans-32"/>
     <use x="792.689453" xlink:href="#DejaVuSans-110"/>
     <use x="856.068359" xlink:href="#DejaVuSans-97"/>
     <use x="917.347656" xlink:href="#DejaVuSans-105"/>
     <use x="945.130859" xlink:href="#DejaVuSans-118"/>
     <use x="1004.310547" xlink:href="#DejaVuSans-101"/>
     <use x="1065.833984" xlink:href="#DejaVuSans-32"/>
     <use x="1097.621094" xlink:href="#DejaVuSans-97"/>
     <use x="1158.900391" xlink:href="#DejaVuSans-110"/>
     <use x="1222.279297" xlink:href="#DejaVuSans-105"/>
     <use x="1250.0625" xlink:href="#DejaVuSans-115"/>
     <use x="1302.162109" xlink:href="#DejaVuSans-111"/>
     <use x="1363.34375" xlink:href="#DejaVuSans-32"/>
     <use x="1395.130859" xlink:href="#DejaVuSans-115"/>
     <use x="1447.230469" xlink:href="#DejaVuSans-99"/>
     <use x="1502.210938" xlink:href="#DejaVuSans-97"/>
     <use x="1563.490234" xlink:href="#DejaVuSans-108"/>
     <use x="1591.273438" xlink:href="#DejaVuSans-105"/>
     <use x="1619.056641" xlink:href="#DejaVuSans-110"/>
     <use x="1682.435547" xlink:href="#DejaVuSans-103"/>
    </g>
   </g>
  </g>
 </g>
 <defs>
  <clipPath id="peff083372f">
   <rect height="217.44" width="262.588235" x="144" y="34.56"/>
  </clipPath>
  <clipPath id="p4b6be456ca">
   <rect height="217.44" width="262.588235" x="459.105882" y="34.56"/>
  </clipPath>
  <clipPath id="p4a869b6974">
   <rect height="217.44" width="262.588235" x="774.211765" y="34.56"/>
  </clipPath>
 </defs>
</svg>
