<?xml version="1.0" encoding="utf-8" standalone="no"?>
<!DOCTYPE svg PUBLIC "-//W3C//DTD SVG 1.1//EN"
  "http://www.w3.org/Graphics/SVG/1.1/DTD/svg11.dtd">
<svg xmlns:xlink="http://www.w3.org/1999/xlink" width="1152pt" height="288pt" viewBox="0 0 1152 288" xmlns="http://www.w3.org/2000/svg" version="1.1">
 <metadata>
  <rdf:RDF xmlns:dc="http://purl.org/dc/elements/1.1/" xmlns:cc="http://creativecommons.org/ns#" xmlns:rdf="http://www.w3.org/1999/02/22-rdf-syntax-ns#">
   <cc:Work>
    <dc:type rdf:resource="http://purl.org/dc/dcmitype/StillImage"/>
    <dc:date>2024-03-19T15:48:53.628067</dc:date>
    <dc:format>image/svg+xml</dc:format>
    <dc:creator>
     <cc:Agent>
      <dc:title>Matplotlib v3.8.2, https://matplotlib.org/</dc:title>
     </cc:Agent>
    </dc:creator>
   </cc:Work>
  </rdf:RDF>
 </metadata>
 <defs>
  <style type="text/css">*{stroke-linejoin: round; stroke-linecap: butt}</style>
 </defs>
 <g id="figure_1">
  <g id="patch_1">
   <path d="M 0 288 
L 1152 288 
L 1152 0 
L 0 0 
z
" style="fill: #ffffff"/>
  </g>
  <g id="axes_1">
   <g id="patch_2">
    <path d="M 144 256.32 
L 406.588235 256.32 
L 406.588235 34.56 
L 144 34.56 
z
" style="fill: #ffffff"/>
   </g>
   <g id="patch_3">
    <path d="M 144.932569 256.32 
L 156.005483 256.32 
L 156.005483 97.201633 
L 144.932569 97.201633 
z
" clip-path="url(#p9d7b8f8714)" style="fill: #1f77b4; opacity: 0.5"/>
   </g>
   <g id="patch_4">
    <path d="M 156.005483 256.32 
L 167.078396 256.32 
L 167.078396 45.12 
L 156.005483 45.12 
z
" clip-path="url(#p9d7b8f8714)" style="fill: #1f77b4; opacity: 0.5"/>
   </g>
   <g id="patch_5">
    <path d="M 167.078396 256.32 
L 178.15131 256.32 
L 178.15131 64.156735 
L 167.078396 64.156735 
z
" clip-path="url(#p9d7b8f8714)" style="fill: #1f77b4; opacity: 0.5"/>
   </g>
   <g id="patch_6">
    <path d="M 178.15131 256.32 
L 189.224224 256.32 
L 189.224224 79.242449 
L 178.15131 79.242449 
z
" clip-path="url(#p9d7b8f8714)" style="fill: #1f77b4; opacity: 0.5"/>
   </g>
   <g id="patch_7">
    <path d="M 189.224224 256.32 
L 200.297137 256.32 
L 200.297137 104.385306 
L 189.224224 104.385306 
z
" clip-path="url(#p9d7b8f8714)" style="fill: #1f77b4; opacity: 0.5"/>
   </g>
   <g id="patch_8">
    <path d="M 200.297137 256.32 
L 211.370051 256.32 
L 211.370051 159.699592 
L 200.297137 159.699592 
z
" clip-path="url(#p9d7b8f8714)" style="fill: #1f77b4; opacity: 0.5"/>
   </g>
   <g id="patch_9">
    <path d="M 211.370051 256.32 
L 222.442965 256.32 
L 222.442965 178.017959 
L 211.370051 178.017959 
z
" clip-path="url(#p9d7b8f8714)" style="fill: #1f77b4; opacity: 0.5"/>
   </g>
   <g id="patch_10">
    <path d="M 222.442965 256.32 
L 233.515879 256.32 
L 233.515879 199.209796 
L 222.442965 199.209796 
z
" clip-path="url(#p9d7b8f8714)" style="fill: #1f77b4; opacity: 0.5"/>
   </g>
   <g id="patch_11">
    <path d="M 233.515879 256.32 
L 244.588792 256.32 
L 244.588792 217.16898 
L 233.515879 217.16898 
z
" clip-path="url(#p9d7b8f8714)" style="fill: #1f77b4; opacity: 0.5"/>
   </g>
   <g id="patch_12">
    <path d="M 244.588792 256.32 
L 255.661706 256.32 
L 255.661706 229.381224 
L 244.588792 229.381224 
z
" clip-path="url(#p9d7b8f8714)" style="fill: #1f77b4; opacity: 0.5"/>
   </g>
   <g id="patch_13">
    <path d="M 255.661706 256.32 
L 266.73462 256.32 
L 266.73462 234.409796 
L 255.661706 234.409796 
z
" clip-path="url(#p9d7b8f8714)" style="fill: #1f77b4; opacity: 0.5"/>
   </g>
   <g id="patch_14">
    <path d="M 266.73462 256.32 
L 277.807534 256.32 
L 277.807534 245.185306 
L 266.73462 245.185306 
z
" clip-path="url(#p9d7b8f8714)" style="fill: #1f77b4; opacity: 0.5"/>
   </g>
   <g id="patch_15">
    <path d="M 277.807534 256.32 
L 288.880447 256.32 
L 288.880447 247.699592 
L 277.807534 247.699592 
z
" clip-path="url(#p9d7b8f8714)" style="fill: #1f77b4; opacity: 0.5"/>
   </g>
   <g id="patch_16">
    <path d="M 288.880447 256.32 
L 299.953361 256.32 
L 299.953361 253.446531 
L 288.880447 253.446531 
z
" clip-path="url(#p9d7b8f8714)" style="fill: #1f77b4; opacity: 0.5"/>
   </g>
   <g id="patch_17">
    <path d="M 299.953361 256.32 
L 311.026275 256.32 
L 311.026275 255.242449 
L 299.953361 255.242449 
z
" clip-path="url(#p9d7b8f8714)" style="fill: #1f77b4; opacity: 0.5"/>
   </g>
   <g id="patch_18">
    <path d="M 311.026275 256.32 
L 322.099188 256.32 
L 322.099188 255.960816 
L 311.026275 255.960816 
z
" clip-path="url(#p9d7b8f8714)" style="fill: #1f77b4; opacity: 0.5"/>
   </g>
   <g id="patch_19">
    <path d="M 322.099188 256.32 
L 333.172102 256.32 
L 333.172102 255.960816 
L 322.099188 255.960816 
z
" clip-path="url(#p9d7b8f8714)" style="fill: #1f77b4; opacity: 0.5"/>
   </g>
   <g id="patch_20">
    <path d="M 333.172102 256.32 
L 344.245016 256.32 
L 344.245016 256.32 
L 333.172102 256.32 
z
" clip-path="url(#p9d7b8f8714)" style="fill: #1f77b4; opacity: 0.5"/>
   </g>
   <g id="patch_21">
    <path d="M 344.245016 256.32 
L 355.31793 256.32 
L 355.31793 256.32 
L 344.245016 256.32 
z
" clip-path="url(#p9d7b8f8714)" style="fill: #1f77b4; opacity: 0.5"/>
   </g>
   <g id="patch_22">
    <path d="M 355.31793 256.32 
L 366.390843 256.32 
L 366.390843 255.960816 
L 355.31793 255.960816 
z
" clip-path="url(#p9d7b8f8714)" style="fill: #1f77b4; opacity: 0.5"/>
   </g>
   <g id="matplotlib.axis_1">
    <g id="xtick_1">
     <g id="line2d_1">
      <defs>
       <path id="md026204214" d="M 0 0 
L 0 3.5 
" style="stroke: #000000; stroke-width: 0.8"/>
      </defs>
      <g>
       <use xlink:href="#md026204214" x="144" y="256.32" style="stroke: #000000; stroke-width: 0.8"/>
      </g>
     </g>
     <g id="text_1">
      <text style="font: 12px 'DejaVu Sans', 'Bitstream Vera Sans', 'Computer Modern Sans Serif', 'Lucida Grande', 'Verdana', 'Geneva', 'Lucid', 'Arial', 'Helvetica', 'Avant Garde', sans-serif; text-anchor: middle" x="144" y="272.438125" transform="rotate(-0 144 272.438125)">0</text>
     </g>
    </g>
    <g id="xtick_2">
     <g id="line2d_2">
      <g>
       <use xlink:href="#md026204214" x="196.517647" y="256.32" style="stroke: #000000; stroke-width: 0.8"/>
      </g>
     </g>
     <g id="text_2">
      <text style="font: 12px 'DejaVu Sans', 'Bitstream Vera Sans', 'Computer Modern Sans Serif', 'Lucida Grande', 'Verdana', 'Geneva', 'Lucid', 'Arial', 'Helvetica', 'Avant Garde', sans-serif; text-anchor: middle" x="196.517647" y="272.438125" transform="rotate(-0 196.517647 272.438125)">1</text>
     </g>
    </g>
    <g id="xtick_3">
     <g id="line2d_3">
      <g>
       <use xlink:href="#md026204214" x="249.035294" y="256.32" style="stroke: #000000; stroke-width: 0.8"/>
      </g>
     </g>
     <g id="text_3">
      <text style="font: 12px 'DejaVu Sans', 'Bitstream Vera Sans', 'Computer Modern Sans Serif', 'Lucida Grande', 'Verdana', 'Geneva', 'Lucid', 'Arial', 'Helvetica', 'Avant Garde', sans-serif; text-anchor: middle" x="249.035294" y="272.438125" transform="rotate(-0 249.035294 272.438125)">2</text>
     </g>
    </g>
    <g id="xtick_4">
     <g id="line2d_4">
      <g>
       <use xlink:href="#md026204214" x="301.552941" y="256.32" style="stroke: #000000; stroke-width: 0.8"/>
      </g>
     </g>
     <g id="text_4">
      <text style="font: 12px 'DejaVu Sans', 'Bitstream Vera Sans', 'Computer Modern Sans Serif', 'Lucida Grande', 'Verdana', 'Geneva', 'Lucid', 'Arial', 'Helvetica', 'Avant Garde', sans-serif; text-anchor: middle" x="301.552941" y="272.438125" transform="rotate(-0 301.552941 272.438125)">3</text>
     </g>
    </g>
    <g id="xtick_5">
     <g id="line2d_5">
      <g>
       <use xlink:href="#md026204214" x="354.070588" y="256.32" style="stroke: #000000; stroke-width: 0.8"/>
      </g>
     </g>
     <g id="text_5">
      <text style="font: 12px 'DejaVu Sans', 'Bitstream Vera Sans', 'Computer Modern Sans Serif', 'Lucida Grande', 'Verdana', 'Geneva', 'Lucid', 'Arial', 'Helvetica', 'Avant Garde', sans-serif; text-anchor: middle" x="354.070588" y="272.438125" transform="rotate(-0 354.070588 272.438125)">4</text>
     </g>
    </g>
    <g id="xtick_6">
     <g id="line2d_6">
      <g>
       <use xlink:href="#md026204214" x="406.588235" y="256.32" style="stroke: #000000; stroke-width: 0.8"/>
      </g>
     </g>
     <g id="text_6">
      <text style="font: 12px 'DejaVu Sans', 'Bitstream Vera Sans', 'Computer Modern Sans Serif', 'Lucida Grande', 'Verdana', 'Geneva', 'Lucid', 'Arial', 'Helvetica', 'Avant Garde', sans-serif; text-anchor: middle" x="406.588235" y="272.438125" transform="rotate(-0 406.588235 272.438125)">5</text>
     </g>
    </g>
    <g id="text_7">
     <text style="font: 12px 'DejaVu Sans', 'Bitstream Vera Sans', 'Computer Modern Sans Serif', 'Lucida Grande', 'Verdana', 'Geneva', 'Lucid', 'Arial', 'Helvetica', 'Avant Garde', sans-serif; text-anchor: middle" x="275.294118" y="288.051875" transform="rotate(-0 275.294118 288.051875)">SF amplitude</text>
    </g>
   </g>
   <g id="matplotlib.axis_2">
    <g id="ytick_1">
     <g id="line2d_7">
      <defs>
       <path id="m33f483305e" d="M 0 0 
L -3.5 0 
" style="stroke: #000000; stroke-width: 0.8"/>
      </defs>
      <g>
       <use xlink:href="#m33f483305e" x="144" y="256.32" style="stroke: #000000; stroke-width: 0.8"/>
      </g>
     </g>
     <g id="text_8">
      <text style="font: 12px 'DejaVu Sans', 'Bitstream Vera Sans', 'Computer Modern Sans Serif', 'Lucida Grande', 'Verdana', 'Geneva', 'Lucid', 'Arial', 'Helvetica', 'Avant Garde', sans-serif; text-anchor: end" x="137" y="260.879063" transform="rotate(-0 137 260.879063)">0.0</text>
     </g>
    </g>
    <g id="ytick_2">
     <g id="line2d_8">
      <g>
       <use xlink:href="#m33f483305e" x="144" y="230.253417" style="stroke: #000000; stroke-width: 0.8"/>
      </g>
     </g>
     <g id="text_9">
      <text style="font: 12px 'DejaVu Sans', 'Bitstream Vera Sans', 'Computer Modern Sans Serif', 'Lucida Grande', 'Verdana', 'Geneva', 'Lucid', 'Arial', 'Helvetica', 'Avant Garde', sans-serif; text-anchor: end" x="137" y="234.812479" transform="rotate(-0 137 234.812479)">0.1</text>
     </g>
    </g>
    <g id="ytick_3">
     <g id="line2d_9">
      <g>
       <use xlink:href="#m33f483305e" x="144" y="204.186833" style="stroke: #000000; stroke-width: 0.8"/>
      </g>
     </g>
     <g id="text_10">
      <text style="font: 12px 'DejaVu Sans', 'Bitstream Vera Sans', 'Computer Modern Sans Serif', 'Lucida Grande', 'Verdana', 'Geneva', 'Lucid', 'Arial', 'Helvetica', 'Avant Garde', sans-serif; text-anchor: end" x="137" y="208.745896" transform="rotate(-0 137 208.745896)">0.2</text>
     </g>
    </g>
    <g id="ytick_4">
     <g id="line2d_10">
      <g>
       <use xlink:href="#m33f483305e" x="144" y="178.12025" style="stroke: #000000; stroke-width: 0.8"/>
      </g>
     </g>
     <g id="text_11">
      <text style="font: 12px 'DejaVu Sans', 'Bitstream Vera Sans', 'Computer Modern Sans Serif', 'Lucida Grande', 'Verdana', 'Geneva', 'Lucid', 'Arial', 'Helvetica', 'Avant Garde', sans-serif; text-anchor: end" x="137" y="182.679312" transform="rotate(-0 137 182.679312)">0.3</text>
     </g>
    </g>
    <g id="ytick_5">
     <g id="line2d_11">
      <g>
       <use xlink:href="#m33f483305e" x="144" y="152.053667" style="stroke: #000000; stroke-width: 0.8"/>
      </g>
     </g>
     <g id="text_12">
      <text style="font: 12px 'DejaVu Sans', 'Bitstream Vera Sans', 'Computer Modern Sans Serif', 'Lucida Grande', 'Verdana', 'Geneva', 'Lucid', 'Arial', 'Helvetica', 'Avant Garde', sans-serif; text-anchor: end" x="137" y="156.612729" transform="rotate(-0 137 156.612729)">0.4</text>
     </g>
    </g>
    <g id="ytick_6">
     <g id="line2d_12">
      <g>
       <use xlink:href="#m33f483305e" x="144" y="125.987083" style="stroke: #000000; stroke-width: 0.8"/>
      </g>
     </g>
     <g id="text_13">
      <text style="font: 12px 'DejaVu Sans', 'Bitstream Vera Sans', 'Computer Modern Sans Serif', 'Lucida Grande', 'Verdana', 'Geneva', 'Lucid', 'Arial', 'Helvetica', 'Avant Garde', sans-serif; text-anchor: end" x="137" y="130.546146" transform="rotate(-0 137 130.546146)">0.5</text>
     </g>
    </g>
    <g id="ytick_7">
     <g id="line2d_13">
      <g>
       <use xlink:href="#m33f483305e" x="144" y="99.9205" style="stroke: #000000; stroke-width: 0.8"/>
      </g>
     </g>
     <g id="text_14">
      <text style="font: 12px 'DejaVu Sans', 'Bitstream Vera Sans', 'Computer Modern Sans Serif', 'Lucida Grande', 'Verdana', 'Geneva', 'Lucid', 'Arial', 'Helvetica', 'Avant Garde', sans-serif; text-anchor: end" x="137" y="104.479562" transform="rotate(-0 137 104.479562)">0.6</text>
     </g>
    </g>
    <g id="ytick_8">
     <g id="line2d_14">
      <g>
       <use xlink:href="#m33f483305e" x="144" y="73.853917" style="stroke: #000000; stroke-width: 0.8"/>
      </g>
     </g>
     <g id="text_15">
      <text style="font: 12px 'DejaVu Sans', 'Bitstream Vera Sans', 'Computer Modern Sans Serif', 'Lucida Grande', 'Verdana', 'Geneva', 'Lucid', 'Arial', 'Helvetica', 'Avant Garde', sans-serif; text-anchor: end" x="137" y="78.412979" transform="rotate(-0 137 78.412979)">0.7</text>
     </g>
    </g>
    <g id="ytick_9">
     <g id="line2d_15">
      <g>
       <use xlink:href="#m33f483305e" x="144" y="47.787333" style="stroke: #000000; stroke-width: 0.8"/>
      </g>
     </g>
     <g id="text_16">
      <text style="font: 12px 'DejaVu Sans', 'Bitstream Vera Sans', 'Computer Modern Sans Serif', 'Lucida Grande', 'Verdana', 'Geneva', 'Lucid', 'Arial', 'Helvetica', 'Avant Garde', sans-serif; text-anchor: end" x="137" y="52.346396" transform="rotate(-0 137 52.346396)">0.8</text>
     </g>
    </g>
    <g id="text_17">
     <text style="font: 12px 'DejaVu Sans', 'Bitstream Vera Sans', 'Computer Modern Sans Serif', 'Lucida Grande', 'Verdana', 'Geneva', 'Lucid', 'Arial', 'Helvetica', 'Avant Garde', sans-serif; text-anchor: middle" x="111.420625" y="145.44" transform="rotate(-90 111.420625 145.44)">Frequency (normalized)</text>
    </g>
   </g>
   <g id="line2d_16">
    <path d="M 144 48.338756 
L 145.683933 48.445642 
L 147.367865 48.765971 
L 149.051798 49.298756 
L 150.73573 50.042358 
L 152.419663 50.994495 
L 154.524579 52.473418 
L 156.629494 54.266532 
L 158.73441 56.365342 
L 160.839326 58.75997 
L 163.365225 62.00817 
L 165.891123 65.644554 
L 168.417022 69.645209 
L 171.363904 74.738339 
L 174.731769 81.066107 
L 178.099635 87.867541 
L 181.888483 95.994202 
L 186.519297 106.459292 
L 192.834045 121.339766 
L 207.989438 157.316649 
L 213.462219 169.594096 
L 218.093033 179.440516 
L 222.302865 187.881585 
L 226.091713 195.020845 
L 229.880561 201.700387 
L 233.669409 207.904733 
L 237.037275 213.015115 
L 240.40514 217.745044 
L 243.773005 222.099371 
L 247.14087 226.086772 
L 250.508735 229.719178 
L 253.8766 233.011218 
L 257.244465 235.979666 
L 260.612331 238.642917 
L 263.980196 241.020505 
L 267.348061 243.132648 
L 270.715926 244.999853 
L 274.504774 246.833117 
L 278.293623 248.410763 
L 282.082471 249.760281 
L 286.292302 251.023889 
L 290.923117 252.165557 
L 295.974915 253.160403 
L 301.447695 253.995609 
L 307.341459 254.670104 
L 314.498173 255.250074 
L 322.917836 255.692331 
L 333.442414 256.009183 
L 348.176824 256.211386 
L 354.070588 256.25023 
L 354.070588 256.25023 
" clip-path="url(#p9d7b8f8714)" style="fill: none; stroke: #ff0000; stroke-width: 1.5; stroke-linecap: square"/>
   </g>
   <g id="patch_23">
    <path d="M 144 256.32 
L 144 34.56 
" style="fill: none; stroke: #000000; stroke-width: 0.8; stroke-linejoin: miter; stroke-linecap: square"/>
   </g>
   <g id="patch_24">
    <path d="M 406.588235 256.32 
L 406.588235 34.56 
" style="fill: none; stroke: #000000; stroke-width: 0.8; stroke-linejoin: miter; stroke-linecap: square"/>
   </g>
   <g id="patch_25">
    <path d="M 144 256.32 
L 406.588235 256.32 
" style="fill: none; stroke: #000000; stroke-width: 0.8; stroke-linejoin: miter; stroke-linecap: square"/>
   </g>
   <g id="patch_26">
    <path d="M 144 34.56 
L 406.588235 34.56 
" style="fill: none; stroke: #000000; stroke-width: 0.8; stroke-linejoin: miter; stroke-linecap: square"/>
   </g>
   <g id="text_18">
    <text style="font: 14.4px 'DejaVu Sans', 'Bitstream Vera Sans', 'Computer Modern Sans Serif', 'Lucida Grande', 'Verdana', 'Geneva', 'Lucid', 'Arial', 'Helvetica', 'Avant Garde', sans-serif; text-anchor: middle" x="275.294118" y="28.56" transform="rotate(-0 275.294118 28.56)">Centric</text>
   </g>
  </g>
  <g id="axes_2">
   <g id="patch_27">
    <path d="M 459.105882 256.32 
L 721.694118 256.32 
L 721.694118 34.56 
L 459.105882 34.56 
z
" style="fill: #ffffff"/>
   </g>
   <g id="patch_28">
    <path d="M 459.845622 256.32 
L 464.329989 256.32 
L 464.329989 247.225959 
L 459.845622 247.225959 
z
" clip-path="url(#p57a284c40d)" style="fill: #1f77b4; opacity: 0.5"/>
   </g>
   <g id="patch_29">
    <path d="M 464.329989 256.32 
L 468.814356 256.32 
L 468.814356 212.159339 
L 464.329989 212.159339 
z
" clip-path="url(#p57a284c40d)" style="fill: #1f77b4; opacity: 0.5"/>
   </g>
   <g id="patch_30">
    <path d="M 468.814356 256.32 
L 473.298723 256.32 
L 473.298723 165.816107 
L 468.814356 165.816107 
z
" clip-path="url(#p57a284c40d)" style="fill: #1f77b4; opacity: 0.5"/>
   </g>
   <g id="patch_31">
    <path d="M 473.298723 256.32 
L 477.78309 256.32 
L 477.78309 130.312973 
L 473.298723 130.312973 
z
" clip-path="url(#p57a284c40d)" style="fill: #1f77b4; opacity: 0.5"/>
   </g>
   <g id="patch_32">
    <path d="M 477.78309 256.32 
L 482.267457 256.32 
L 482.267457 100.266262 
L 477.78309 100.266262 
z
" clip-path="url(#p57a284c40d)" style="fill: #1f77b4; opacity: 0.5"/>
   </g>
   <g id="patch_33">
    <path d="M 482.267457 256.32 
L 486.751824 256.32 
L 486.751824 69.710286 
L 482.267457 69.710286 
z
" clip-path="url(#p57a284c40d)" style="fill: #1f77b4; opacity: 0.5"/>
   </g>
   <g id="patch_34">
    <path d="M 486.751824 256.32 
L 491.236191 256.32 
L 491.236191 51.231195 
L 486.751824 51.231195 
z
" clip-path="url(#p57a284c40d)" style="fill: #1f77b4; opacity: 0.5"/>
   </g>
   <g id="patch_35">
    <path d="M 491.236191 256.32 
L 495.720558 256.32 
L 495.720558 45.993028 
L 491.236191 45.993028 
z
" clip-path="url(#p57a284c40d)" style="fill: #1f77b4; opacity: 0.5"/>
   </g>
   <g id="patch_36">
    <path d="M 495.720558 256.32 
L 500.204925 256.32 
L 500.204925 45.12 
L 495.720558 45.12 
z
" clip-path="url(#p57a284c40d)" style="fill: #1f77b4; opacity: 0.5"/>
   </g>
   <g id="patch_37">
    <path d="M 500.204925 256.32 
L 504.689292 256.32 
L 504.689292 49.921653 
L 500.204925 49.921653 
z
" clip-path="url(#p57a284c40d)" style="fill: #1f77b4; opacity: 0.5"/>
   </g>
   <g id="patch_38">
    <path d="M 504.689292 256.32 
L 509.173659 256.32 
L 509.173659 64.035605 
L 504.689292 64.035605 
z
" clip-path="url(#p57a284c40d)" style="fill: #1f77b4; opacity: 0.5"/>
   </g>
   <g id="patch_39">
    <path d="M 509.173659 256.32 
L 513.658026 256.32 
L 513.658026 82.732952 
L 509.173659 82.732952 
z
" clip-path="url(#p57a284c40d)" style="fill: #1f77b4; opacity: 0.5"/>
   </g>
   <g id="patch_40">
    <path d="M 513.658026 256.32 
L 518.142393 256.32 
L 518.142393 97.865436 
L 513.658026 97.865436 
z
" clip-path="url(#p57a284c40d)" style="fill: #1f77b4; opacity: 0.5"/>
   </g>
   <g id="patch_41">
    <path d="M 518.142393 256.32 
L 522.62676 256.32 
L 522.62676 118.090582 
L 518.142393 118.090582 
z
" clip-path="url(#p57a284c40d)" style="fill: #1f77b4; opacity: 0.5"/>
   </g>
   <g id="patch_42">
    <path d="M 522.62676 256.32 
L 527.111127 256.32 
L 527.111127 136.060406 
L 522.62676 136.060406 
z
" clip-path="url(#p57a284c40d)" style="fill: #1f77b4; opacity: 0.5"/>
   </g>
   <g id="patch_43">
    <path d="M 527.111127 256.32 
L 531.595493 256.32 
L 531.595493 152.866194 
L 527.111127 152.866194 
z
" clip-path="url(#p57a284c40d)" style="fill: #1f77b4; opacity: 0.5"/>
   </g>
   <g id="patch_44">
    <path d="M 531.595493 256.32 
L 536.07986 256.32 
L 536.07986 172.654826 
L 531.595493 172.654826 
z
" clip-path="url(#p57a284c40d)" style="fill: #1f77b4; opacity: 0.5"/>
   </g>
   <g id="patch_45">
    <path d="M 536.07986 256.32 
L 540.564227 256.32 
L 540.564227 187.569053 
L 536.07986 187.569053 
z
" clip-path="url(#p57a284c40d)" style="fill: #1f77b4; opacity: 0.5"/>
   </g>
   <g id="patch_46">
    <path d="M 540.564227 256.32 
L 545.048594 256.32 
L 545.048594 198.045388 
L 540.564227 198.045388 
z
" clip-path="url(#p57a284c40d)" style="fill: #1f77b4; opacity: 0.5"/>
   </g>
   <g id="patch_47">
    <path d="M 545.048594 256.32 
L 549.532961 256.32 
L 549.532961 214.050899 
L 545.048594 214.050899 
z
" clip-path="url(#p57a284c40d)" style="fill: #1f77b4; opacity: 0.5"/>
   </g>
   <g id="patch_48">
    <path d="M 549.532961 256.32 
L 554.017328 256.32 
L 554.017328 218.634296 
L 549.532961 218.634296 
z
" clip-path="url(#p57a284c40d)" style="fill: #1f77b4; opacity: 0.5"/>
   </g>
   <g id="patch_49">
    <path d="M 554.017328 256.32 
L 558.501695 256.32 
L 558.501695 228.528612 
L 554.017328 228.528612 
z
" clip-path="url(#p57a284c40d)" style="fill: #1f77b4; opacity: 0.5"/>
   </g>
   <g id="patch_50">
    <path d="M 558.501695 256.32 
L 562.986062 256.32 
L 562.986062 236.094854 
L 558.501695 236.094854 
z
" clip-path="url(#p57a284c40d)" style="fill: #1f77b4; opacity: 0.5"/>
   </g>
   <g id="patch_51">
    <path d="M 562.986062 256.32 
L 567.470429 256.32 
L 567.470429 239.586965 
L 562.986062 239.586965 
z
" clip-path="url(#p57a284c40d)" style="fill: #1f77b4; opacity: 0.5"/>
   </g>
   <g id="patch_52">
    <path d="M 567.470429 256.32 
L 571.954796 256.32 
L 571.954796 243.661095 
L 567.470429 243.661095 
z
" clip-path="url(#p57a284c40d)" style="fill: #1f77b4; opacity: 0.5"/>
   </g>
   <g id="patch_53">
    <path d="M 571.954796 256.32 
L 576.439163 256.32 
L 576.439163 247.662473 
L 571.954796 247.662473 
z
" clip-path="url(#p57a284c40d)" style="fill: #1f77b4; opacity: 0.5"/>
   </g>
   <g id="patch_54">
    <path d="M 576.439163 256.32 
L 580.92353 256.32 
L 580.92353 249.481281 
L 576.439163 249.481281 
z
" clip-path="url(#p57a284c40d)" style="fill: #1f77b4; opacity: 0.5"/>
   </g>
   <g id="patch_55">
    <path d="M 580.92353 256.32 
L 585.407897 256.32 
L 585.407897 251.95486 
L 580.92353 251.95486 
z
" clip-path="url(#p57a284c40d)" style="fill: #1f77b4; opacity: 0.5"/>
   </g>
   <g id="patch_56">
    <path d="M 585.407897 256.32 
L 589.892264 256.32 
L 589.892264 252.318622 
L 585.407897 252.318622 
z
" clip-path="url(#p57a284c40d)" style="fill: #1f77b4; opacity: 0.5"/>
   </g>
   <g id="patch_57">
    <path d="M 589.892264 256.32 
L 594.376631 256.32 
L 594.376631 254.282935 
L 589.892264 254.282935 
z
" clip-path="url(#p57a284c40d)" style="fill: #1f77b4; opacity: 0.5"/>
   </g>
   <g id="patch_58">
    <path d="M 594.376631 256.32 
L 598.860998 256.32 
L 598.860998 255.228715 
L 594.376631 255.228715 
z
" clip-path="url(#p57a284c40d)" style="fill: #1f77b4; opacity: 0.5"/>
   </g>
   <g id="patch_59">
    <path d="M 598.860998 256.32 
L 603.345364 256.32 
L 603.345364 255.228715 
L 598.860998 255.228715 
z
" clip-path="url(#p57a284c40d)" style="fill: #1f77b4; opacity: 0.5"/>
   </g>
   <g id="patch_60">
    <path d="M 603.345364 256.32 
L 607.829731 256.32 
L 607.829731 255.883486 
L 603.345364 255.883486 
z
" clip-path="url(#p57a284c40d)" style="fill: #1f77b4; opacity: 0.5"/>
   </g>
   <g id="patch_61">
    <path d="M 607.829731 256.32 
L 612.314098 256.32 
L 612.314098 256.028991 
L 607.829731 256.028991 
z
" clip-path="url(#p57a284c40d)" style="fill: #1f77b4; opacity: 0.5"/>
   </g>
   <g id="patch_62">
    <path d="M 612.314098 256.32 
L 616.798465 256.32 
L 616.798465 255.810734 
L 612.314098 255.810734 
z
" clip-path="url(#p57a284c40d)" style="fill: #1f77b4; opacity: 0.5"/>
   </g>
   <g id="patch_63">
    <path d="M 616.798465 256.32 
L 621.282832 256.32 
L 621.282832 256.32 
L 616.798465 256.32 
z
" clip-path="url(#p57a284c40d)" style="fill: #1f77b4; opacity: 0.5"/>
   </g>
   <g id="patch_64">
    <path d="M 621.282832 256.32 
L 625.767199 256.32 
L 625.767199 256.32 
L 621.282832 256.32 
z
" clip-path="url(#p57a284c40d)" style="fill: #1f77b4; opacity: 0.5"/>
   </g>
   <g id="patch_65">
    <path d="M 625.767199 256.32 
L 630.251566 256.32 
L 630.251566 256.32 
L 625.767199 256.32 
z
" clip-path="url(#p57a284c40d)" style="fill: #1f77b4; opacity: 0.5"/>
   </g>
   <g id="patch_66">
    <path d="M 630.251566 256.32 
L 634.735933 256.32 
L 634.735933 256.32 
L 630.251566 256.32 
z
" clip-path="url(#p57a284c40d)" style="fill: #1f77b4; opacity: 0.5"/>
   </g>
   <g id="patch_67">
    <path d="M 634.735933 256.32 
L 639.2203 256.32 
L 639.2203 256.247248 
L 634.735933 256.247248 
z
" clip-path="url(#p57a284c40d)" style="fill: #1f77b4; opacity: 0.5"/>
   </g>
   <g id="matplotlib.axis_3">
    <g id="xtick_7">
     <g id="line2d_17">
      <g>
       <use xlink:href="#md026204214" x="459.105882" y="256.32" style="stroke: #000000; stroke-width: 0.8"/>
      </g>
     </g>
     <g id="text_19">
      <text style="font: 12px 'DejaVu Sans', 'Bitstream Vera Sans', 'Computer Modern Sans Serif', 'Lucida Grande', 'Verdana', 'Geneva', 'Lucid', 'Arial', 'Helvetica', 'Avant Garde', sans-serif; text-anchor: middle" x="459.105882" y="272.438125" transform="rotate(-0 459.105882 272.438125)">0</text>
     </g>
    </g>
    <g id="xtick_8">
     <g id="line2d_18">
      <g>
       <use xlink:href="#md026204214" x="511.623529" y="256.32" style="stroke: #000000; stroke-width: 0.8"/>
      </g>
     </g>
     <g id="text_20">
      <text style="font: 12px 'DejaVu Sans', 'Bitstream Vera Sans', 'Computer Modern Sans Serif', 'Lucida Grande', 'Verdana', 'Geneva', 'Lucid', 'Arial', 'Helvetica', 'Avant Garde', sans-serif; text-anchor: middle" x="511.623529" y="272.438125" transform="rotate(-0 511.623529 272.438125)">1</text>
     </g>
    </g>
    <g id="xtick_9">
     <g id="line2d_19">
      <g>
       <use xlink:href="#md026204214" x="564.141176" y="256.32" style="stroke: #000000; stroke-width: 0.8"/>
      </g>
     </g>
     <g id="text_21">
      <text style="font: 12px 'DejaVu Sans', 'Bitstream Vera Sans', 'Computer Modern Sans Serif', 'Lucida Grande', 'Verdana', 'Geneva', 'Lucid', 'Arial', 'Helvetica', 'Avant Garde', sans-serif; text-anchor: middle" x="564.141176" y="272.438125" transform="rotate(-0 564.141176 272.438125)">2</text>
     </g>
    </g>
    <g id="xtick_10">
     <g id="line2d_20">
      <g>
       <use xlink:href="#md026204214" x="616.658824" y="256.32" style="stroke: #000000; stroke-width: 0.8"/>
      </g>
     </g>
     <g id="text_22">
      <text style="font: 12px 'DejaVu Sans', 'Bitstream Vera Sans', 'Computer Modern Sans Serif', 'Lucida Grande', 'Verdana', 'Geneva', 'Lucid', 'Arial', 'Helvetica', 'Avant Garde', sans-serif; text-anchor: middle" x="616.658824" y="272.438125" transform="rotate(-0 616.658824 272.438125)">3</text>
     </g>
    </g>
    <g id="xtick_11">
     <g id="line2d_21">
      <g>
       <use xlink:href="#md026204214" x="669.176471" y="256.32" style="stroke: #000000; stroke-width: 0.8"/>
      </g>
     </g>
     <g id="text_23">
      <text style="font: 12px 'DejaVu Sans', 'Bitstream Vera Sans', 'Computer Modern Sans Serif', 'Lucida Grande', 'Verdana', 'Geneva', 'Lucid', 'Arial', 'Helvetica', 'Avant Garde', sans-serif; text-anchor: middle" x="669.176471" y="272.438125" transform="rotate(-0 669.176471 272.438125)">4</text>
     </g>
    </g>
    <g id="xtick_12">
     <g id="line2d_22">
      <g>
       <use xlink:href="#md026204214" x="721.694118" y="256.32" style="stroke: #000000; stroke-width: 0.8"/>
      </g>
     </g>
     <g id="text_24">
      <text style="font: 12px 'DejaVu Sans', 'Bitstream Vera Sans', 'Computer Modern Sans Serif', 'Lucida Grande', 'Verdana', 'Geneva', 'Lucid', 'Arial', 'Helvetica', 'Avant Garde', sans-serif; text-anchor: middle" x="721.694118" y="272.438125" transform="rotate(-0 721.694118 272.438125)">5</text>
     </g>
    </g>
    <g id="text_25">
     <text style="font: 12px 'DejaVu Sans', 'Bitstream Vera Sans', 'Computer Modern Sans Serif', 'Lucida Grande', 'Verdana', 'Geneva', 'Lucid', 'Arial', 'Helvetica', 'Avant Garde', sans-serif; text-anchor: middle" x="590.4" y="288.051875" transform="rotate(-0 590.4 288.051875)">SF amplitude</text>
    </g>
   </g>
   <g id="matplotlib.axis_4">
    <g id="ytick_10">
     <g id="line2d_23">
      <g>
       <use xlink:href="#m33f483305e" x="459.105882" y="256.32" style="stroke: #000000; stroke-width: 0.8"/>
      </g>
     </g>
     <g id="text_26">
      <text style="font: 12px 'DejaVu Sans', 'Bitstream Vera Sans', 'Computer Modern Sans Serif', 'Lucida Grande', 'Verdana', 'Geneva', 'Lucid', 'Arial', 'Helvetica', 'Avant Garde', sans-serif; text-anchor: end" x="452.105882" y="260.879063" transform="rotate(-0 452.105882 260.879063)">0.0</text>
     </g>
    </g>
    <g id="ytick_11">
     <g id="line2d_24">
      <g>
       <use xlink:href="#m33f483305e" x="459.105882" y="209.712635" style="stroke: #000000; stroke-width: 0.8"/>
      </g>
     </g>
     <g id="text_27">
      <text style="font: 12px 'DejaVu Sans', 'Bitstream Vera Sans', 'Computer Modern Sans Serif', 'Lucida Grande', 'Verdana', 'Geneva', 'Lucid', 'Arial', 'Helvetica', 'Avant Garde', sans-serif; text-anchor: end" x="452.105882" y="214.271697" transform="rotate(-0 452.105882 214.271697)">0.2</text>
     </g>
    </g>
    <g id="ytick_12">
     <g id="line2d_25">
      <g>
       <use xlink:href="#m33f483305e" x="459.105882" y="163.10527" style="stroke: #000000; stroke-width: 0.8"/>
      </g>
     </g>
     <g id="text_28">
      <text style="font: 12px 'DejaVu Sans', 'Bitstream Vera Sans', 'Computer Modern Sans Serif', 'Lucida Grande', 'Verdana', 'Geneva', 'Lucid', 'Arial', 'Helvetica', 'Avant Garde', sans-serif; text-anchor: end" x="452.105882" y="167.664332" transform="rotate(-0 452.105882 167.664332)">0.4</text>
     </g>
    </g>
    <g id="ytick_13">
     <g id="line2d_26">
      <g>
       <use xlink:href="#m33f483305e" x="459.105882" y="116.497904" style="stroke: #000000; stroke-width: 0.8"/>
      </g>
     </g>
     <g id="text_29">
      <text style="font: 12px 'DejaVu Sans', 'Bitstream Vera Sans', 'Computer Modern Sans Serif', 'Lucida Grande', 'Verdana', 'Geneva', 'Lucid', 'Arial', 'Helvetica', 'Avant Garde', sans-serif; text-anchor: end" x="452.105882" y="121.056967" transform="rotate(-0 452.105882 121.056967)">0.6</text>
     </g>
    </g>
    <g id="ytick_14">
     <g id="line2d_27">
      <g>
       <use xlink:href="#m33f483305e" x="459.105882" y="69.890539" style="stroke: #000000; stroke-width: 0.8"/>
      </g>
     </g>
     <g id="text_30">
      <text style="font: 12px 'DejaVu Sans', 'Bitstream Vera Sans', 'Computer Modern Sans Serif', 'Lucida Grande', 'Verdana', 'Geneva', 'Lucid', 'Arial', 'Helvetica', 'Avant Garde', sans-serif; text-anchor: end" x="452.105882" y="74.449602" transform="rotate(-0 452.105882 74.449602)">0.8</text>
     </g>
    </g>
   </g>
   <g id="line2d_28">
    <path d="M 459.105882 256.32 
L 465.841613 197.51829 
L 469.209478 169.912552 
L 472.15636 147.437601 
L 474.682259 129.726352 
L 477.208157 113.666118 
L 479.313073 101.666775 
L 481.417989 91.009324 
L 483.101921 83.489221 
L 484.785854 76.886196 
L 486.469787 71.212941 
L 488.153719 66.474238 
L 489.416669 63.532034 
L 490.679618 61.110035 
L 491.942567 59.201992 
L 493.205517 57.799489 
L 494.047483 57.140255 
L 494.889449 56.69751 
L 495.731416 56.467306 
L 496.573382 56.445347 
L 497.415348 56.627011 
L 498.257315 57.007364 
L 499.099281 57.581184 
L 500.36223 58.792582 
L 501.62518 60.407301 
L 502.888129 62.404671 
L 504.151079 64.763077 
L 505.835011 68.430415 
L 507.518944 72.644928 
L 509.623859 78.596994 
L 511.728775 85.205377 
L 514.254674 93.845863 
L 517.622539 106.265161 
L 522.253354 124.308385 
L 530.252033 155.564877 
L 534.040882 169.494185 
L 537.408747 181.074854 
L 540.355629 190.480386 
L 543.302511 199.147186 
L 545.82841 205.964502 
L 548.354309 212.211084 
L 550.880207 217.891927 
L 553.406106 223.020902 
L 555.932005 227.619111 
L 558.457904 231.713302 
L 560.983803 235.334406 
L 563.509702 238.516193 
L 566.035601 241.294084 
L 568.561499 243.704125 
L 571.087398 245.782122 
L 573.613297 247.562932 
L 576.139196 249.079916 
L 578.665095 250.364518 
L 581.611977 251.608399 
L 584.558859 252.618022 
L 587.926724 253.533267 
L 591.715572 254.316839 
L 595.925404 254.950103 
L 600.977201 255.467398 
L 606.870965 255.841778 
L 614.869645 256.110957 
L 627.078156 256.266214 
L 653.600094 256.318092 
L 669.176471 256.31979 
L 669.176471 256.31979 
" clip-path="url(#p57a284c40d)" style="fill: none; stroke: #ff0000; stroke-width: 1.5; stroke-linecap: square"/>
   </g>
   <g id="patch_68">
    <path d="M 459.105882 256.32 
L 459.105882 34.56 
" style="fill: none; stroke: #000000; stroke-width: 0.8; stroke-linejoin: miter; stroke-linecap: square"/>
   </g>
   <g id="patch_69">
    <path d="M 721.694118 256.32 
L 721.694118 34.56 
" style="fill: none; stroke: #000000; stroke-width: 0.8; stroke-linejoin: miter; stroke-linecap: square"/>
   </g>
   <g id="patch_70">
    <path d="M 459.105882 256.32 
L 721.694118 256.32 
" style="fill: none; stroke: #000000; stroke-width: 0.8; stroke-linejoin: miter; stroke-linecap: square"/>
   </g>
   <g id="patch_71">
    <path d="M 459.105882 34.56 
L 721.694118 34.56 
" style="fill: none; stroke: #000000; stroke-width: 0.8; stroke-linejoin: miter; stroke-linecap: square"/>
   </g>
   <g id="text_31">
    <text style="font: 14.4px 'DejaVu Sans', 'Bitstream Vera Sans', 'Computer Modern Sans Serif', 'Lucida Grande', 'Verdana', 'Geneva', 'Lucid', 'Arial', 'Helvetica', 'Avant Garde', sans-serif; text-anchor: middle" x="590.4" y="28.56" transform="rotate(-0 590.4 28.56)">Acentric</text>
   </g>
  </g>
 </g>
 <defs>
  <clipPath id="p9d7b8f8714">
   <rect x="144" y="34.56" width="262.588235" height="221.76"/>
  </clipPath>
  <clipPath id="p57a284c40d">
   <rect x="459.105882" y="34.56" width="262.588235" height="221.76"/>
  </clipPath>
 </defs>
</svg>
