<?xml version="1.0" encoding="utf-8" standalone="no"?>
<!DOCTYPE svg PUBLIC "-//W3C//DTD SVG 1.1//EN"
  "http://www.w3.org/Graphics/SVG/1.1/DTD/svg11.dtd">
<!-- Created with matplotlib (https://matplotlib.org/) -->
<svg height="216pt" version="1.1" viewBox="0 0 360 216" width="360pt" xmlns="http://www.w3.org/2000/svg" xmlns:xlink="http://www.w3.org/1999/xlink">
 <metadata>
  <rdf:RDF xmlns:cc="http://creativecommons.org/ns#" xmlns:dc="http://purl.org/dc/elements/1.1/" xmlns:rdf="http://www.w3.org/1999/02/22-rdf-syntax-ns#">
   <cc:Work>
    <dc:type rdf:resource="http://purl.org/dc/dcmitype/StillImage"/>
    <dc:date>2024-03-19T16:49:35.715056</dc:date>
    <dc:format>image/svg+xml</dc:format>
    <dc:creator>
     <cc:Agent>
      <dc:title>Matplotlib v3.3.4, https://matplotlib.org/</dc:title>
     </cc:Agent>
    </dc:creator>
   </cc:Work>
  </rdf:RDF>
 </metadata>
 <defs>
  <style type="text/css">*{stroke-linecap:butt;stroke-linejoin:round;}</style>
 </defs>
 <g id="figure_1">
  <g id="patch_1">
   <path d="M 0 216 
L 360 216 
L 360 0 
L 0 0 
z
" style="fill:none;"/>
  </g>
  <g id="axes_1">
   <g id="patch_2">
    <path d="M 45 189 
L 324 189 
L 324 25.92 
L 45 25.92 
z
" style="fill:#ffffff;"/>
   </g>
   <g id="patch_3">
    <path clip-path="url(#p8ec04b801e)" d="M 57.681818 24386.976688 
L 60.218182 24386.976688 
L 60.218182 169.523962 
L 57.681818 169.523962 
z
" style="fill:#1f77b4;"/>
   </g>
   <g id="patch_4">
    <path clip-path="url(#p8ec04b801e)" d="M 60.218182 24386.976688 
L 62.754545 24386.976688 
L 62.754545 176.852249 
L 60.218182 176.852249 
z
" style="fill:#1f77b4;"/>
   </g>
   <g id="patch_5">
    <path clip-path="url(#p8ec04b801e)" d="M 62.754545 24386.976688 
L 65.290909 24386.976688 
L 65.290909 169.523962 
L 62.754545 169.523962 
z
" style="fill:#1f77b4;"/>
   </g>
   <g id="patch_6">
    <path clip-path="url(#p8ec04b801e)" d="M 65.290909 24386.976688 
L 67.827273 24386.976688 
L 67.827273 165.23719 
L 65.290909 165.23719 
z
" style="fill:#1f77b4;"/>
   </g>
   <g id="patch_7">
    <path clip-path="url(#p8ec04b801e)" d="M 67.827273 24386.976688 
L 70.363636 24386.976688 
L 70.363636 162.195676 
L 67.827273 162.195676 
z
" style="fill:#1f77b4;"/>
   </g>
   <g id="patch_8">
    <path clip-path="url(#p8ec04b801e)" d="M 70.363636 24386.976688 
L 72.9 24386.976688 
L 72.9 149.734366 
L 70.363636 149.734366 
z
" style="fill:#1f77b4;"/>
   </g>
   <g id="patch_9">
    <path clip-path="url(#p8ec04b801e)" d="M 72.9 24386.976688 
L 75.436364 24386.976688 
L 75.436364 146.89815 
L 72.9 146.89815 
z
" style="fill:#1f77b4;"/>
   </g>
   <g id="patch_10">
    <path clip-path="url(#p8ec04b801e)" d="M 75.436364 24386.976688 
L 77.972727 24386.976688 
L 77.972727 142.007071 
L 75.436364 142.007071 
z
" style="fill:#1f77b4;"/>
   </g>
   <g id="patch_11">
    <path clip-path="url(#p8ec04b801e)" d="M 77.972727 24386.976688 
L 80.509091 24386.976688 
L 80.509091 135.492454 
L 77.972727 135.492454 
z
" style="fill:#1f77b4;"/>
   </g>
   <g id="patch_12">
    <path clip-path="url(#p8ec04b801e)" d="M 80.509091 24386.976688 
L 83.045455 24386.976688 
L 83.045455 129.161265 
L 80.509091 129.161265 
z
" style="fill:#1f77b4;"/>
   </g>
   <g id="patch_13">
    <path clip-path="url(#p8ec04b801e)" d="M 83.045455 24386.976688 
L 85.581818 24386.976688 
L 85.581818 124.913291 
L 83.045455 124.913291 
z
" style="fill:#1f77b4;"/>
   </g>
   <g id="patch_14">
    <path clip-path="url(#p8ec04b801e)" d="M 85.581818 24386.976688 
L 88.118182 24386.976688 
L 88.118182 121.832979 
L 85.581818 121.832979 
z
" style="fill:#1f77b4;"/>
   </g>
   <g id="patch_15">
    <path clip-path="url(#p8ec04b801e)" d="M 88.118182 24386.976688 
L 90.654545 24386.976688 
L 90.654545 115.670377 
L 88.118182 115.670377 
z
" style="fill:#1f77b4;"/>
   </g>
   <g id="patch_16">
    <path clip-path="url(#p8ec04b801e)" d="M 90.654545 24386.976688 
L 93.190909 24386.976688 
L 93.190909 111.25467 
L 90.654545 111.25467 
z
" style="fill:#1f77b4;"/>
   </g>
   <g id="patch_17">
    <path clip-path="url(#p8ec04b801e)" d="M 93.190909 24386.976688 
L 95.727273 24386.976688 
L 95.727273 105.918245 
L 93.190909 105.918245 
z
" style="fill:#1f77b4;"/>
   </g>
   <g id="patch_18">
    <path clip-path="url(#p8ec04b801e)" d="M 95.727273 24386.976688 
L 98.263636 24386.976688 
L 98.263636 102.631405 
L 95.727273 102.631405 
z
" style="fill:#1f77b4;"/>
   </g>
   <g id="patch_19">
    <path clip-path="url(#p8ec04b801e)" d="M 98.263636 24386.976688 
L 100.8 24386.976688 
L 100.8 98.117191 
L 98.263636 98.117191 
z
" style="fill:#1f77b4;"/>
   </g>
   <g id="patch_20">
    <path clip-path="url(#p8ec04b801e)" d="M 100.8 24386.976688 
L 103.336364 24386.976688 
L 103.336364 94.006544 
L 100.8 94.006544 
z
" style="fill:#1f77b4;"/>
   </g>
   <g id="patch_21">
    <path clip-path="url(#p8ec04b801e)" d="M 103.336364 24386.976688 
L 105.872727 24386.976688 
L 105.872727 90.227667 
L 103.336364 90.227667 
z
" style="fill:#1f77b4;"/>
   </g>
   <g id="patch_22">
    <path clip-path="url(#p8ec04b801e)" d="M 105.872727 24386.976688 
L 108.409091 24386.976688 
L 108.409091 86.182342 
L 105.872727 86.182342 
z
" style="fill:#1f77b4;"/>
   </g>
   <g id="patch_23">
    <path clip-path="url(#p8ec04b801e)" d="M 108.409091 24386.976688 
L 110.945455 24386.976688 
L 110.945455 82.416587 
L 108.409091 82.416587 
z
" style="fill:#1f77b4;"/>
   </g>
   <g id="patch_24">
    <path clip-path="url(#p8ec04b801e)" d="M 110.945455 24386.976688 
L 113.481818 24386.976688 
L 113.481818 78.942143 
L 110.945455 78.942143 
z
" style="fill:#1f77b4;"/>
   </g>
   <g id="patch_25">
    <path clip-path="url(#p8ec04b801e)" d="M 113.481818 24386.976688 
L 116.018182 24386.976688 
L 116.018182 75.517884 
L 113.481818 75.517884 
z
" style="fill:#1f77b4;"/>
   </g>
   <g id="patch_26">
    <path clip-path="url(#p8ec04b801e)" d="M 116.018182 24386.976688 
L 118.554545 24386.976688 
L 118.554545 72.06408 
L 116.018182 72.06408 
z
" style="fill:#1f77b4;"/>
   </g>
   <g id="patch_27">
    <path clip-path="url(#p8ec04b801e)" d="M 118.554545 24386.976688 
L 121.090909 24386.976688 
L 121.090909 68.812525 
L 118.554545 68.812525 
z
" style="fill:#1f77b4;"/>
   </g>
   <g id="patch_28">
    <path clip-path="url(#p8ec04b801e)" d="M 121.090909 24386.976688 
L 123.627273 24386.976688 
L 123.627273 65.776025 
L 121.090909 65.776025 
z
" style="fill:#1f77b4;"/>
   </g>
   <g id="patch_29">
    <path clip-path="url(#p8ec04b801e)" d="M 123.627273 24386.976688 
L 126.163636 24386.976688 
L 126.163636 62.852348 
L 123.627273 62.852348 
z
" style="fill:#1f77b4;"/>
   </g>
   <g id="patch_30">
    <path clip-path="url(#p8ec04b801e)" d="M 126.163636 24386.976688 
L 128.7 24386.976688 
L 128.7 60.082896 
L 126.163636 60.082896 
z
" style="fill:#1f77b4;"/>
   </g>
   <g id="patch_31">
    <path clip-path="url(#p8ec04b801e)" d="M 128.7 24386.976688 
L 131.236364 24386.976688 
L 131.236364 57.396106 
L 128.7 57.396106 
z
" style="fill:#1f77b4;"/>
   </g>
   <g id="patch_32">
    <path clip-path="url(#p8ec04b801e)" d="M 131.236364 24386.976688 
L 133.772727 24386.976688 
L 133.772727 54.894216 
L 131.236364 54.894216 
z
" style="fill:#1f77b4;"/>
   </g>
   <g id="patch_33">
    <path clip-path="url(#p8ec04b801e)" d="M 133.772727 24386.976688 
L 136.309091 24386.976688 
L 136.309091 52.469143 
L 133.772727 52.469143 
z
" style="fill:#1f77b4;"/>
   </g>
   <g id="patch_34">
    <path clip-path="url(#p8ec04b801e)" d="M 136.309091 24386.976688 
L 138.845455 24386.976688 
L 138.845455 50.173054 
L 136.309091 50.173054 
z
" style="fill:#1f77b4;"/>
   </g>
   <g id="patch_35">
    <path clip-path="url(#p8ec04b801e)" d="M 138.845455 24386.976688 
L 141.381818 24386.976688 
L 141.381818 48.020156 
L 138.845455 48.020156 
z
" style="fill:#1f77b4;"/>
   </g>
   <g id="patch_36">
    <path clip-path="url(#p8ec04b801e)" d="M 141.381818 24386.976688 
L 143.918182 24386.976688 
L 143.918182 45.966505 
L 141.381818 45.966505 
z
" style="fill:#1f77b4;"/>
   </g>
   <g id="patch_37">
    <path clip-path="url(#p8ec04b801e)" d="M 143.918182 24386.976688 
L 146.454545 24386.976688 
L 146.454545 44.115745 
L 143.918182 44.115745 
z
" style="fill:#1f77b4;"/>
   </g>
   <g id="patch_38">
    <path clip-path="url(#p8ec04b801e)" d="M 146.454545 24386.976688 
L 148.990909 24386.976688 
L 148.990909 42.408689 
L 146.454545 42.408689 
z
" style="fill:#1f77b4;"/>
   </g>
   <g id="patch_39">
    <path clip-path="url(#p8ec04b801e)" d="M 148.990909 24386.976688 
L 151.527273 24386.976688 
L 151.527273 40.786444 
L 148.990909 40.786444 
z
" style="fill:#1f77b4;"/>
   </g>
   <g id="patch_40">
    <path clip-path="url(#p8ec04b801e)" d="M 151.527273 24386.976688 
L 154.063636 24386.976688 
L 154.063636 39.298141 
L 151.527273 39.298141 
z
" style="fill:#1f77b4;"/>
   </g>
   <g id="patch_41">
    <path clip-path="url(#p8ec04b801e)" d="M 154.063636 24386.976688 
L 156.6 24386.976688 
L 156.6 37.935574 
L 154.063636 37.935574 
z
" style="fill:#1f77b4;"/>
   </g>
   <g id="patch_42">
    <path clip-path="url(#p8ec04b801e)" d="M 156.6 24386.976688 
L 159.136364 24386.976688 
L 159.136364 36.779238 
L 156.6 36.779238 
z
" style="fill:#1f77b4;"/>
   </g>
   <g id="patch_43">
    <path clip-path="url(#p8ec04b801e)" d="M 159.136364 24386.976688 
L 161.672727 24386.976688 
L 161.672727 35.702981 
L 159.136364 35.702981 
z
" style="fill:#1f77b4;"/>
   </g>
   <g id="patch_44">
    <path clip-path="url(#p8ec04b801e)" d="M 161.672727 24386.976688 
L 164.209091 24386.976688 
L 164.209091 34.750628 
L 161.672727 34.750628 
z
" style="fill:#1f77b4;"/>
   </g>
   <g id="patch_45">
    <path clip-path="url(#p8ec04b801e)" d="M 164.209091 24386.976688 
L 166.745455 24386.976688 
L 166.745455 33.947699 
L 164.209091 33.947699 
z
" style="fill:#1f77b4;"/>
   </g>
   <g id="patch_46">
    <path clip-path="url(#p8ec04b801e)" d="M 166.745455 24386.976688 
L 169.281818 24386.976688 
L 169.281818 33.303539 
L 166.745455 33.303539 
z
" style="fill:#1f77b4;"/>
   </g>
   <g id="patch_47">
    <path clip-path="url(#p8ec04b801e)" d="M 169.281818 24386.976688 
L 171.818182 24386.976688 
L 171.818182 32.739109 
L 169.281818 32.739109 
z
" style="fill:#1f77b4;"/>
   </g>
   <g id="patch_48">
    <path clip-path="url(#p8ec04b801e)" d="M 171.818182 24386.976688 
L 174.354545 24386.976688 
L 174.354545 32.333932 
L 171.818182 32.333932 
z
" style="fill:#1f77b4;"/>
   </g>
   <g id="patch_49">
    <path clip-path="url(#p8ec04b801e)" d="M 174.354545 24386.976688 
L 176.890909 24386.976688 
L 176.890909 32.100653 
L 174.354545 32.100653 
z
" style="fill:#1f77b4;"/>
   </g>
   <g id="patch_50">
    <path clip-path="url(#p8ec04b801e)" d="M 176.890909 24386.976688 
L 179.427273 24386.976688 
L 179.427273 31.968246 
L 176.890909 31.968246 
z
" style="fill:#1f77b4;"/>
   </g>
   <g id="patch_51">
    <path clip-path="url(#p8ec04b801e)" d="M 179.427273 24386.976688 
L 181.963636 24386.976688 
L 181.963636 31.969334 
L 179.427273 31.969334 
z
" style="fill:#1f77b4;"/>
   </g>
   <g id="patch_52">
    <path clip-path="url(#p8ec04b801e)" d="M 181.963636 24386.976688 
L 184.5 24386.976688 
L 184.5 32.094777 
L 181.963636 32.094777 
z
" style="fill:#1f77b4;"/>
   </g>
   <g id="patch_53">
    <path clip-path="url(#p8ec04b801e)" d="M 184.5 24386.976688 
L 187.036364 24386.976688 
L 187.036364 32.353407 
L 184.5 32.353407 
z
" style="fill:#1f77b4;"/>
   </g>
   <g id="patch_54">
    <path clip-path="url(#p8ec04b801e)" d="M 187.036364 24386.976688 
L 189.572727 24386.976688 
L 189.572727 32.763487 
L 187.036364 32.763487 
z
" style="fill:#1f77b4;"/>
   </g>
   <g id="patch_55">
    <path clip-path="url(#p8ec04b801e)" d="M 189.572727 24386.976688 
L 192.109091 24386.976688 
L 192.109091 33.307966 
L 189.572727 33.307966 
z
" style="fill:#1f77b4;"/>
   </g>
   <g id="patch_56">
    <path clip-path="url(#p8ec04b801e)" d="M 192.109091 24386.976688 
L 194.645455 24386.976688 
L 194.645455 33.938594 
L 192.109091 33.938594 
z
" style="fill:#1f77b4;"/>
   </g>
   <g id="patch_57">
    <path clip-path="url(#p8ec04b801e)" d="M 194.645455 24386.976688 
L 197.181818 24386.976688 
L 197.181818 34.764663 
L 194.645455 34.764663 
z
" style="fill:#1f77b4;"/>
   </g>
   <g id="patch_58">
    <path clip-path="url(#p8ec04b801e)" d="M 197.181818 24386.976688 
L 199.718182 24386.976688 
L 199.718182 35.667715 
L 197.181818 35.667715 
z
" style="fill:#1f77b4;"/>
   </g>
   <g id="patch_59">
    <path clip-path="url(#p8ec04b801e)" d="M 199.718182 24386.976688 
L 202.254545 24386.976688 
L 202.254545 36.747517 
L 199.718182 36.747517 
z
" style="fill:#1f77b4;"/>
   </g>
   <g id="patch_60">
    <path clip-path="url(#p8ec04b801e)" d="M 202.254545 24386.976688 
L 204.790909 24386.976688 
L 204.790909 37.961922 
L 202.254545 37.961922 
z
" style="fill:#1f77b4;"/>
   </g>
   <g id="patch_61">
    <path clip-path="url(#p8ec04b801e)" d="M 204.790909 24386.976688 
L 207.327273 24386.976688 
L 207.327273 39.282168 
L 204.790909 39.282168 
z
" style="fill:#1f77b4;"/>
   </g>
   <g id="patch_62">
    <path clip-path="url(#p8ec04b801e)" d="M 207.327273 24386.976688 
L 209.863636 24386.976688 
L 209.863636 40.737235 
L 207.327273 40.737235 
z
" style="fill:#1f77b4;"/>
   </g>
   <g id="patch_63">
    <path clip-path="url(#p8ec04b801e)" d="M 209.863636 24386.976688 
L 212.4 24386.976688 
L 212.4 42.358288 
L 209.863636 42.358288 
z
" style="fill:#1f77b4;"/>
   </g>
   <g id="patch_64">
    <path clip-path="url(#p8ec04b801e)" d="M 212.4 24386.976688 
L 214.936364 24386.976688 
L 214.936364 44.095253 
L 212.4 44.095253 
z
" style="fill:#1f77b4;"/>
   </g>
   <g id="patch_65">
    <path clip-path="url(#p8ec04b801e)" d="M 214.936364 24386.976688 
L 217.472727 24386.976688 
L 217.472727 45.979487 
L 214.936364 45.979487 
z
" style="fill:#1f77b4;"/>
   </g>
   <g id="patch_66">
    <path clip-path="url(#p8ec04b801e)" d="M 217.472727 24386.976688 
L 220.009091 24386.976688 
L 220.009091 47.970257 
L 217.472727 47.970257 
z
" style="fill:#1f77b4;"/>
   </g>
   <g id="patch_67">
    <path clip-path="url(#p8ec04b801e)" d="M 220.009091 24386.976688 
L 222.545455 24386.976688 
L 222.545455 50.09838 
L 220.009091 50.09838 
z
" style="fill:#1f77b4;"/>
   </g>
   <g id="patch_68">
    <path clip-path="url(#p8ec04b801e)" d="M 222.545455 24386.976688 
L 225.081818 24386.976688 
L 225.081818 52.387847 
L 222.545455 52.387847 
z
" style="fill:#1f77b4;"/>
   </g>
   <g id="patch_69">
    <path clip-path="url(#p8ec04b801e)" d="M 225.081818 24386.976688 
L 227.618182 24386.976688 
L 227.618182 54.818713 
L 225.081818 54.818713 
z
" style="fill:#1f77b4;"/>
   </g>
   <g id="patch_70">
    <path clip-path="url(#p8ec04b801e)" d="M 227.618182 24386.976688 
L 230.154545 24386.976688 
L 230.154545 57.312744 
L 227.618182 57.312744 
z
" style="fill:#1f77b4;"/>
   </g>
   <g id="patch_71">
    <path clip-path="url(#p8ec04b801e)" d="M 230.154545 24386.976688 
L 232.690909 24386.976688 
L 232.690909 60.052712 
L 230.154545 60.052712 
z
" style="fill:#1f77b4;"/>
   </g>
   <g id="patch_72">
    <path clip-path="url(#p8ec04b801e)" d="M 232.690909 24386.976688 
L 235.227273 24386.976688 
L 235.227273 62.80877 
L 232.690909 62.80877 
z
" style="fill:#1f77b4;"/>
   </g>
   <g id="patch_73">
    <path clip-path="url(#p8ec04b801e)" d="M 235.227273 24386.976688 
L 237.763636 24386.976688 
L 237.763636 65.857644 
L 235.227273 65.857644 
z
" style="fill:#1f77b4;"/>
   </g>
   <g id="patch_74">
    <path clip-path="url(#p8ec04b801e)" d="M 237.763636 24386.976688 
L 240.3 24386.976688 
L 240.3 68.826415 
L 237.763636 68.826415 
z
" style="fill:#1f77b4;"/>
   </g>
   <g id="patch_75">
    <path clip-path="url(#p8ec04b801e)" d="M 240.3 24386.976688 
L 242.836364 24386.976688 
L 242.836364 72.076674 
L 240.3 72.076674 
z
" style="fill:#1f77b4;"/>
   </g>
   <g id="patch_76">
    <path clip-path="url(#p8ec04b801e)" d="M 242.836364 24386.976688 
L 245.372727 24386.976688 
L 245.372727 75.415859 
L 242.836364 75.415859 
z
" style="fill:#1f77b4;"/>
   </g>
   <g id="patch_77">
    <path clip-path="url(#p8ec04b801e)" d="M 245.372727 24386.976688 
L 247.909091 24386.976688 
L 247.909091 78.899009 
L 245.372727 78.899009 
z
" style="fill:#1f77b4;"/>
   </g>
   <g id="patch_78">
    <path clip-path="url(#p8ec04b801e)" d="M 247.909091 24386.976688 
L 250.445455 24386.976688 
L 250.445455 82.391484 
L 247.909091 82.391484 
z
" style="fill:#1f77b4;"/>
   </g>
   <g id="patch_79">
    <path clip-path="url(#p8ec04b801e)" d="M 250.445455 24386.976688 
L 252.981818 24386.976688 
L 252.981818 86.446794 
L 250.445455 86.446794 
z
" style="fill:#1f77b4;"/>
   </g>
   <g id="patch_80">
    <path clip-path="url(#p8ec04b801e)" d="M 252.981818 24386.976688 
L 255.518182 24386.976688 
L 255.518182 90.36891 
L 252.981818 90.36891 
z
" style="fill:#1f77b4;"/>
   </g>
   <g id="patch_81">
    <path clip-path="url(#p8ec04b801e)" d="M 255.518182 24386.976688 
L 258.054545 24386.976688 
L 258.054545 94.010723 
L 255.518182 94.010723 
z
" style="fill:#1f77b4;"/>
   </g>
   <g id="patch_82">
    <path clip-path="url(#p8ec04b801e)" d="M 258.054545 24386.976688 
L 260.590909 24386.976688 
L 260.590909 97.652855 
L 258.054545 97.652855 
z
" style="fill:#1f77b4;"/>
   </g>
   <g id="patch_83">
    <path clip-path="url(#p8ec04b801e)" d="M 260.590909 24386.976688 
L 263.127273 24386.976688 
L 263.127273 102.462691 
L 260.590909 102.462691 
z
" style="fill:#1f77b4;"/>
   </g>
   <g id="patch_84">
    <path clip-path="url(#p8ec04b801e)" d="M 263.127273 24386.976688 
L 265.663636 24386.976688 
L 265.663636 107.032168 
L 263.127273 107.032168 
z
" style="fill:#1f77b4;"/>
   </g>
   <g id="patch_85">
    <path clip-path="url(#p8ec04b801e)" d="M 265.663636 24386.976688 
L 268.2 24386.976688 
L 268.2 111.190788 
L 265.663636 111.190788 
z
" style="fill:#1f77b4;"/>
   </g>
   <g id="patch_86">
    <path clip-path="url(#p8ec04b801e)" d="M 268.2 24386.976688 
L 270.736364 24386.976688 
L 270.736364 116.584408 
L 268.2 116.584408 
z
" style="fill:#1f77b4;"/>
   </g>
   <g id="patch_87">
    <path clip-path="url(#p8ec04b801e)" d="M 270.736364 24386.976688 
L 273.272727 24386.976688 
L 273.272727 119.828215 
L 270.736364 119.828215 
z
" style="fill:#1f77b4;"/>
   </g>
   <g id="patch_88">
    <path clip-path="url(#p8ec04b801e)" d="M 273.272727 24386.976688 
L 275.809091 24386.976688 
L 275.809091 127.060823 
L 273.272727 127.060823 
z
" style="fill:#1f77b4;"/>
   </g>
   <g id="patch_89">
    <path clip-path="url(#p8ec04b801e)" d="M 275.809091 24386.976688 
L 278.345455 24386.976688 
L 278.345455 130.791021 
L 275.809091 130.791021 
z
" style="fill:#1f77b4;"/>
   </g>
   <g id="patch_90">
    <path clip-path="url(#p8ec04b801e)" d="M 278.345455 24386.976688 
L 280.881818 24386.976688 
L 280.881818 135.924044 
L 278.345455 135.924044 
z
" style="fill:#1f77b4;"/>
   </g>
   <g id="patch_91">
    <path clip-path="url(#p8ec04b801e)" d="M 280.881818 24386.976688 
L 283.418182 24386.976688 
L 283.418182 139.263393 
L 280.881818 139.263393 
z
" style="fill:#1f77b4;"/>
   </g>
   <g id="patch_92">
    <path clip-path="url(#p8ec04b801e)" d="M 283.418182 24386.976688 
L 285.954545 24386.976688 
L 285.954545 151.500543 
L 283.418182 151.500543 
z
" style="fill:#1f77b4;"/>
   </g>
   <g id="patch_93">
    <path clip-path="url(#p8ec04b801e)" d="M 285.954545 24386.976688 
L 288.490909 24386.976688 
L 288.490909 156.279148 
L 285.954545 156.279148 
z
" style="fill:#1f77b4;"/>
   </g>
   <g id="patch_94">
    <path clip-path="url(#p8ec04b801e)" d="M 288.490909 24386.976688 
L 291.027273 24386.976688 
L 291.027273 159.836495 
L 288.490909 159.836495 
z
" style="fill:#1f77b4;"/>
   </g>
   <g id="patch_95">
    <path clip-path="url(#p8ec04b801e)" d="M 291.027273 24386.976688 
L 293.563636 24386.976688 
L 293.563636 165.23719 
L 291.027273 165.23719 
z
" style="fill:#1f77b4;"/>
   </g>
   <g id="patch_96">
    <path clip-path="url(#p8ec04b801e)" d="M 293.563636 24386.976688 
L 296.1 24386.976688 
L 296.1 162.195676 
L 293.563636 162.195676 
z
" style="fill:#1f77b4;"/>
   </g>
   <g id="patch_97">
    <path clip-path="url(#p8ec04b801e)" d="M 296.1 24386.976688 
L 298.636364 24386.976688 
L 298.636364 176.852249 
L 296.1 176.852249 
z
" style="fill:#1f77b4;"/>
   </g>
   <g id="patch_98">
    <path clip-path="url(#p8ec04b801e)" d="M 298.636364 24386.976688 
L 301.172727 24386.976688 
L 301.172727 176.852249 
L 298.636364 176.852249 
z
" style="fill:#1f77b4;"/>
   </g>
   <g id="patch_99">
    <path clip-path="url(#p8ec04b801e)" d="M 301.172727 24386.976688 
L 303.709091 24386.976688 
L 303.709091 176.852249 
L 301.172727 176.852249 
z
" style="fill:#1f77b4;"/>
   </g>
   <g id="patch_100">
    <path clip-path="url(#p8ec04b801e)" d="M 303.709091 24386.976688 
L 306.245455 24386.976688 
L 306.245455 24386.976688 
L 303.709091 24386.976688 
z
" style="fill:#1f77b4;"/>
   </g>
   <g id="patch_101">
    <path clip-path="url(#p8ec04b801e)" d="M 306.245455 24386.976688 
L 308.781818 24386.976688 
L 308.781818 24386.976688 
L 306.245455 24386.976688 
z
" style="fill:#1f77b4;"/>
   </g>
   <g id="patch_102">
    <path clip-path="url(#p8ec04b801e)" d="M 308.781818 24386.976688 
L 311.318182 24386.976688 
L 311.318182 176.852249 
L 308.781818 176.852249 
z
" style="fill:#1f77b4;"/>
   </g>
   <g id="matplotlib.axis_1">
    <g id="xtick_1">
     <g id="line2d_1">
      <path clip-path="url(#p8ec04b801e)" d="M 59.414105 189 
L 59.414105 25.92 
" style="fill:none;stroke:#b0b0b0;stroke-dasharray:2.96,1.28;stroke-dashoffset:0;stroke-width:0.8;"/>
     </g>
     <g id="line2d_2">
      <defs>
       <path d="M 0 0 
L 0 3.5 
" id="mc18c30131a" style="stroke:#000000;stroke-width:0.8;"/>
      </defs>
      <g>
       <use style="stroke:#000000;stroke-width:0.8;" x="59.414105" xlink:href="#mc18c30131a" y="189"/>
      </g>
     </g>
     <g id="text_1">
      <text style="font-family:DejaVu Sans;font-size:12px;font-stretch:normal;font-style:normal;font-weight:normal;text-anchor:middle;" transform="rotate(-0, 59.414105, 205.118125)" x="59.414105" y="205.118125">−0.75</text>
     </g>
    </g>
    <g id="xtick_2">
     <g id="line2d_3">
      <path clip-path="url(#p8ec04b801e)" d="M 99.425582 189 
L 99.425582 25.92 
" style="fill:none;stroke:#b0b0b0;stroke-dasharray:2.96,1.28;stroke-dashoffset:0;stroke-width:0.8;"/>
     </g>
     <g id="line2d_4">
      <g>
       <use style="stroke:#000000;stroke-width:0.8;" x="99.425582" xlink:href="#mc18c30131a" y="189"/>
      </g>
     </g>
     <g id="text_2">
      <text style="font-family:DejaVu Sans;font-size:12px;font-stretch:normal;font-style:normal;font-weight:normal;text-anchor:middle;" transform="rotate(-0, 99.425582, 205.118125)" x="99.425582" y="205.118125">−0.50</text>
     </g>
    </g>
    <g id="xtick_3">
     <g id="line2d_5">
      <path clip-path="url(#p8ec04b801e)" d="M 139.437059 189 
L 139.437059 25.92 
" style="fill:none;stroke:#b0b0b0;stroke-dasharray:2.96,1.28;stroke-dashoffset:0;stroke-width:0.8;"/>
     </g>
     <g id="line2d_6">
      <g>
       <use style="stroke:#000000;stroke-width:0.8;" x="139.437059" xlink:href="#mc18c30131a" y="189"/>
      </g>
     </g>
     <g id="text_3">
      <text style="font-family:DejaVu Sans;font-size:12px;font-stretch:normal;font-style:normal;font-weight:normal;text-anchor:middle;" transform="rotate(-0, 139.437059, 205.118125)" x="139.437059" y="205.118125">−0.25</text>
     </g>
    </g>
    <g id="xtick_4">
     <g id="line2d_7">
      <path clip-path="url(#p8ec04b801e)" d="M 179.448536 189 
L 179.448536 25.92 
" style="fill:none;stroke:#b0b0b0;stroke-dasharray:2.96,1.28;stroke-dashoffset:0;stroke-width:0.8;"/>
     </g>
     <g id="line2d_8">
      <g>
       <use style="stroke:#000000;stroke-width:0.8;" x="179.448536" xlink:href="#mc18c30131a" y="189"/>
      </g>
     </g>
     <g id="text_4">
      <text style="font-family:DejaVu Sans;font-size:12px;font-stretch:normal;font-style:normal;font-weight:normal;text-anchor:middle;" transform="rotate(-0, 179.448536, 205.118125)" x="179.448536" y="205.118125">0.00</text>
     </g>
    </g>
    <g id="xtick_5">
     <g id="line2d_9">
      <path clip-path="url(#p8ec04b801e)" d="M 219.460013 189 
L 219.460013 25.92 
" style="fill:none;stroke:#b0b0b0;stroke-dasharray:2.96,1.28;stroke-dashoffset:0;stroke-width:0.8;"/>
     </g>
     <g id="line2d_10">
      <g>
       <use style="stroke:#000000;stroke-width:0.8;" x="219.460013" xlink:href="#mc18c30131a" y="189"/>
      </g>
     </g>
     <g id="text_5">
      <text style="font-family:DejaVu Sans;font-size:12px;font-stretch:normal;font-style:normal;font-weight:normal;text-anchor:middle;" transform="rotate(-0, 219.460013, 205.118125)" x="219.460013" y="205.118125">0.25</text>
     </g>
    </g>
    <g id="xtick_6">
     <g id="line2d_11">
      <path clip-path="url(#p8ec04b801e)" d="M 259.47149 189 
L 259.47149 25.92 
" style="fill:none;stroke:#b0b0b0;stroke-dasharray:2.96,1.28;stroke-dashoffset:0;stroke-width:0.8;"/>
     </g>
     <g id="line2d_12">
      <g>
       <use style="stroke:#000000;stroke-width:0.8;" x="259.47149" xlink:href="#mc18c30131a" y="189"/>
      </g>
     </g>
     <g id="text_6">
      <text style="font-family:DejaVu Sans;font-size:12px;font-stretch:normal;font-style:normal;font-weight:normal;text-anchor:middle;" transform="rotate(-0, 259.47149, 205.118125)" x="259.47149" y="205.118125">0.50</text>
     </g>
    </g>
    <g id="xtick_7">
     <g id="line2d_13">
      <path clip-path="url(#p8ec04b801e)" d="M 299.482967 189 
L 299.482967 25.92 
" style="fill:none;stroke:#b0b0b0;stroke-dasharray:2.96,1.28;stroke-dashoffset:0;stroke-width:0.8;"/>
     </g>
     <g id="line2d_14">
      <g>
       <use style="stroke:#000000;stroke-width:0.8;" x="299.482967" xlink:href="#mc18c30131a" y="189"/>
      </g>
     </g>
     <g id="text_7">
      <text style="font-family:DejaVu Sans;font-size:12px;font-stretch:normal;font-style:normal;font-weight:normal;text-anchor:middle;" transform="rotate(-0, 299.482967, 205.118125)" x="299.482967" y="205.118125">0.75</text>
     </g>
    </g>
    <g id="text_8">
     <!-- $\Delta |F|$ -->
     <g transform="translate(172.86 220.85375)">
      <text>
       <tspan style="font-family:DejaVu Sans;font-size:12px;font-style:book;font-weight:book;" x="0 8.208984 19.154297" y="-0.828125">Δ||</tspan>
       <tspan style="font-family:DejaVu Sans;font-size:12px;font-style:oblique;font-weight:oblique;" x="12.251953" y="-0.828125">F</tspan>
      </text>
     </g>
    </g>
   </g>
   <g id="matplotlib.axis_2">
    <g id="ytick_1">
     <g id="line2d_15">
      <path clip-path="url(#p8ec04b801e)" d="M 45 189 
L 324 189 
" style="fill:none;stroke:#b0b0b0;stroke-dasharray:2.96,1.28;stroke-dashoffset:0;stroke-width:0.8;"/>
     </g>
     <g id="line2d_16">
      <defs>
       <path d="M 0 0 
L -3.5 0 
" id="m7be00162ed" style="stroke:#000000;stroke-width:0.8;"/>
      </defs>
      <g>
       <use style="stroke:#000000;stroke-width:0.8;" x="45" xlink:href="#m7be00162ed" y="189"/>
      </g>
     </g>
     <g id="text_9">
      <!-- $\mathdefault{10^{-6}}$ -->
      <g transform="translate(9.8 193.559063)">
       <text>
        <tspan style="font-family:DejaVu Sans;font-size:12px;font-style:book;font-weight:book;" x="0 7.634766" y="-0.171875">10</tspan>
        <tspan style="font-family:DejaVu Sans;font-size:8.4px;font-style:book;font-weight:book;" x="15.384375 22.422656" y="-4.765625">−6</tspan>
       </text>
      </g>
     </g>
    </g>
    <g id="ytick_2">
     <g id="line2d_17">
      <path clip-path="url(#p8ec04b801e)" d="M 45 140.311918 
L 324 140.311918 
" style="fill:none;stroke:#b0b0b0;stroke-dasharray:2.96,1.28;stroke-dashoffset:0;stroke-width:0.8;"/>
     </g>
     <g id="line2d_18">
      <g>
       <use style="stroke:#000000;stroke-width:0.8;" x="45" xlink:href="#m7be00162ed" y="140.311918"/>
      </g>
     </g>
     <g id="text_10">
      <!-- $\mathdefault{10^{-4}}$ -->
      <g transform="translate(9.8 144.870981)">
       <text>
        <tspan style="font-family:DejaVu Sans;font-size:12px;font-style:book;font-weight:book;" x="0 7.634766" y="-0.28125">10</tspan>
        <tspan style="font-family:DejaVu Sans;font-size:8.4px;font-style:book;font-weight:book;" x="15.384375 22.422656" y="-4.875">−4</tspan>
       </text>
      </g>
     </g>
    </g>
    <g id="ytick_3">
     <g id="line2d_19">
      <path clip-path="url(#p8ec04b801e)" d="M 45 91.623836 
L 324 91.623836 
" style="fill:none;stroke:#b0b0b0;stroke-dasharray:2.96,1.28;stroke-dashoffset:0;stroke-width:0.8;"/>
     </g>
     <g id="line2d_20">
      <g>
       <use style="stroke:#000000;stroke-width:0.8;" x="45" xlink:href="#m7be00162ed" y="91.623836"/>
      </g>
     </g>
     <g id="text_11">
      <!-- $\mathdefault{10^{-2}}$ -->
      <g transform="translate(9.8 96.182899)">
       <text>
        <tspan style="font-family:DejaVu Sans;font-size:12px;font-style:book;font-weight:book;" x="0 7.634766" y="-0.171875">10</tspan>
        <tspan style="font-family:DejaVu Sans;font-size:8.4px;font-style:book;font-weight:book;" x="15.384375 22.422656" y="-4.765625">−2</tspan>
       </text>
      </g>
     </g>
    </g>
    <g id="ytick_4">
     <g id="line2d_21">
      <path clip-path="url(#p8ec04b801e)" d="M 45 42.935754 
L 324 42.935754 
" style="fill:none;stroke:#b0b0b0;stroke-dasharray:2.96,1.28;stroke-dashoffset:0;stroke-width:0.8;"/>
     </g>
     <g id="line2d_22">
      <g>
       <use style="stroke:#000000;stroke-width:0.8;" x="45" xlink:href="#m7be00162ed" y="42.935754"/>
      </g>
     </g>
     <g id="text_12">
      <!-- $\mathdefault{10^{0}}$ -->
      <g transform="translate(16.88 47.494817)">
       <text>
        <tspan style="font-family:DejaVu Sans;font-size:12px;font-style:book;font-weight:book;" x="0 7.634766" y="-0.171875">10</tspan>
        <tspan style="font-family:DejaVu Sans;font-size:8.4px;font-style:book;font-weight:book;" x="15.384375" y="-4.765625">0</tspan>
       </text>
      </g>
     </g>
    </g>
    <g id="text_13">
     <text style="font-family:DejaVu Sans;font-size:12px;font-stretch:normal;font-style:normal;font-weight:normal;text-anchor:middle;" transform="rotate(-90, 3.304375, 107.46)" x="3.304375" y="107.46">Density</text>
    </g>
   </g>
   <g id="line2d_23">
    <path clip-path="url(#p8ec04b801e)" d="M 65.16728 167.77897 
L 67.562735 162.14354 
L 69.95819 156.627486 
L 72.353644 151.230808 
L 74.749099 145.953505 
L 77.144553 140.795578 
L 79.540008 135.757027 
L 81.935462 130.837851 
L 84.330917 126.038051 
L 86.726371 121.357626 
L 89.121826 116.796577 
L 91.51728 112.354904 
L 93.912735 108.032606 
L 96.30819 103.829684 
L 98.703644 99.746137 
L 101.099099 95.781966 
L 103.494553 91.937171 
L 105.890008 88.211751 
L 108.285462 84.605707 
L 110.680917 81.119038 
L 113.076371 77.751746 
L 115.471826 74.503828 
L 117.86728 71.375287 
L 120.262735 68.36612 
L 122.65819 65.47633 
L 125.053644 62.705915 
L 127.449099 60.054876 
L 129.844553 57.523212 
L 132.240008 55.110924 
L 134.635462 52.818012 
L 137.030917 50.644475 
L 139.426371 48.590314 
L 141.821826 46.655528 
L 144.21728 44.840118 
L 146.612735 43.144084 
L 149.00819 41.567425 
L 151.403644 40.110142 
L 153.799099 38.772234 
L 156.194553 37.553702 
L 158.590008 36.454546 
L 160.985462 35.474765 
L 163.380917 34.61436 
L 165.776371 33.873331 
L 168.171826 33.251677 
L 170.56728 32.749399 
L 172.962735 32.366496 
L 175.35819 32.102969 
L 177.753644 31.958818 
L 180.149099 31.934042 
L 182.544553 32.028642 
L 184.940008 32.242617 
L 187.335462 32.575968 
L 189.730917 33.028695 
L 192.126371 33.600797 
L 194.521826 34.292275 
L 196.91728 35.103128 
L 199.312735 36.033357 
L 201.70819 37.082962 
L 204.103644 38.251942 
L 206.499099 39.540298 
L 208.894553 40.948029 
L 211.290008 42.475137 
L 213.685462 44.121619 
L 216.080917 45.887478 
L 218.476371 47.772712 
L 220.871826 49.777321 
L 223.26728 51.901306 
L 225.662735 54.144667 
L 228.05819 56.507403 
L 230.453644 58.989515 
L 232.849099 61.591003 
L 235.244553 64.311866 
L 237.640008 67.152105 
L 240.035462 70.11172 
L 242.430917 73.19071 
L 244.826371 76.389075 
L 247.221826 79.706817 
L 249.61728 83.143933 
L 252.012735 86.700426 
L 254.40819 90.376294 
L 256.803644 94.171538 
L 259.199099 98.086157 
L 261.594553 102.120152 
L 263.990008 106.273523 
L 266.385462 110.546269 
L 268.780917 114.938391 
L 271.176371 119.449888 
L 273.571826 124.080761 
L 275.96728 128.831009 
L 278.362735 133.700634 
L 280.75819 138.689634 
L 283.153644 143.798009 
L 285.549099 149.02576 
L 287.944553 154.372887 
L 290.340008 159.839389 
L 292.735462 165.425267 
L 295.130917 171.13052 
L 297.526371 176.955149 
L 299.921826 182.899154 
L 302.31728 188.962534 
" style="fill:none;stroke:#ff0000;stroke-linecap:square;stroke-width:1.5;"/>
   </g>
   <g id="patch_103">
    <path d="M 45 189 
L 45 25.92 
" style="fill:none;stroke:#000000;stroke-linecap:square;stroke-linejoin:miter;stroke-width:0.8;"/>
   </g>
   <g id="patch_104">
    <path d="M 324 189 
L 324 25.92 
" style="fill:none;stroke:#000000;stroke-linecap:square;stroke-linejoin:miter;stroke-width:0.8;"/>
   </g>
   <g id="patch_105">
    <path d="M 45 189 
L 324 189 
" style="fill:none;stroke:#000000;stroke-linecap:square;stroke-linejoin:miter;stroke-width:0.8;"/>
   </g>
   <g id="patch_106">
    <path d="M 45 25.92 
L 324 25.92 
" style="fill:none;stroke:#000000;stroke-linecap:square;stroke-linejoin:miter;stroke-width:0.8;"/>
   </g>
   <g id="text_14">
    <!-- $r$=0.95, $r_x$=0.98, $E_{ref}$ = 0.9, std($\Delta F$)=0.141 -->
    <g transform="translate(31.284 19.92)">
     <text>
      <tspan style="font-family:DejaVu Sans;font-size:14.4px;font-style:oblique;font-weight:oblique;" x="0 59.164536 124.68425 239.030159" y="-0.0625">rrEF</tspan>
      <tspan style="font-family:DejaVu Sans;font-size:14.4px;font-style:book;font-weight:book;" x="5.916458 17.974228 27.129974 31.70433 40.860077 50.015823 54.590179 71.436172 83.493942 92.649689 97.224045 106.379791 115.535538 120.109894 148.055916 152.630272 164.688042 169.262398 178.418144 182.9925 192.148247 196.722603 201.296959 208.794411 214.436821 223.571495 229.185799 247.307579 252.921883 264.979652 274.135399 278.709755 287.865501 297.021248" y="-0.0625">=0.95, =0.98,  = 0.9, std(Δ)=0.141</tspan>
      <tspan style="font-family:DejaVu Sans;font-size:10.08px;font-style:oblique;font-weight:oblique;" x="65.080994 133.776764 137.918285 144.11581" y="2.3000000000000007">xref</tspan>
     </text>
    </g>
   </g>
  </g>
 </g>
 <defs>
  <clipPath id="p8ec04b801e">
   <rect height="163.08" width="279" x="45" y="25.92"/>
  </clipPath>
 </defs>
</svg>
