<?xml version="1.0" encoding="utf-8" standalone="no"?>
<!DOCTYPE svg PUBLIC "-//W3C//DTD SVG 1.1//EN"
  "http://www.w3.org/Graphics/SVG/1.1/DTD/svg11.dtd">
<!-- Created with matplotlib (https://matplotlib.org/) -->
<svg height="216pt" version="1.1" viewBox="0 0 360 216" width="360pt" xmlns="http://www.w3.org/2000/svg" xmlns:xlink="http://www.w3.org/1999/xlink">
 <metadata>
  <rdf:RDF xmlns:cc="http://creativecommons.org/ns#" xmlns:dc="http://purl.org/dc/elements/1.1/" xmlns:rdf="http://www.w3.org/1999/02/22-rdf-syntax-ns#">
   <cc:Work>
    <dc:type rdf:resource="http://purl.org/dc/dcmitype/StillImage"/>
    <dc:date>2024-03-19T16:48:32.277915</dc:date>
    <dc:format>image/svg+xml</dc:format>
    <dc:creator>
     <cc:Agent>
      <dc:title>Matplotlib v3.3.4, https://matplotlib.org/</dc:title>
     </cc:Agent>
    </dc:creator>
   </cc:Work>
  </rdf:RDF>
 </metadata>
 <defs>
  <style type="text/css">*{stroke-linecap:butt;stroke-linejoin:round;}</style>
 </defs>
 <g id="figure_1">
  <g id="patch_1">
   <path d="M 0 216 
L 360 216 
L 360 0 
L 0 0 
z
" style="fill:none;"/>
  </g>
  <g id="axes_1">
   <g id="patch_2">
    <path d="M 45 189 
L 324 189 
L 324 25.92 
L 45 25.92 
z
" style="fill:#ffffff;"/>
   </g>
   <g id="patch_3">
    <path clip-path="url(#p12233fa1c1)" d="M 57.681818 24386.976688 
L 60.218182 24386.976688 
L 60.218182 165.122833 
L 57.681818 165.122833 
z
" style="fill:#1f77b4;"/>
   </g>
   <g id="patch_4">
    <path clip-path="url(#p12233fa1c1)" d="M 60.218182 24386.976688 
L 62.754545 24386.976688 
L 62.754545 24386.976688 
L 60.218182 24386.976688 
z
" style="fill:#1f77b4;"/>
   </g>
   <g id="patch_5">
    <path clip-path="url(#p12233fa1c1)" d="M 62.754545 24386.976688 
L 65.290909 24386.976688 
L 65.290909 165.122833 
L 62.754545 165.122833 
z
" style="fill:#1f77b4;"/>
   </g>
   <g id="patch_6">
    <path clip-path="url(#p12233fa1c1)" d="M 65.290909 24386.976688 
L 67.827273 24386.976688 
L 67.827273 155.435366 
L 65.290909 155.435366 
z
" style="fill:#1f77b4;"/>
   </g>
   <g id="patch_7">
    <path clip-path="url(#p12233fa1c1)" d="M 67.827273 24386.976688 
L 70.363636 24386.976688 
L 70.363636 157.794547 
L 67.827273 157.794547 
z
" style="fill:#1f77b4;"/>
   </g>
   <g id="patch_8">
    <path clip-path="url(#p12233fa1c1)" d="M 70.363636 24386.976688 
L 72.9 24386.976688 
L 72.9 149.221001 
L 70.363636 149.221001 
z
" style="fill:#1f77b4;"/>
   </g>
   <g id="patch_9">
    <path clip-path="url(#p12233fa1c1)" d="M 72.9 24386.976688 
L 75.436364 24386.976688 
L 75.436364 153.507774 
L 72.9 153.507774 
z
" style="fill:#1f77b4;"/>
   </g>
   <g id="patch_10">
    <path clip-path="url(#p12233fa1c1)" d="M 75.436364 24386.976688 
L 77.972727 24386.976688 
L 77.972727 138.851201 
L 75.436364 138.851201 
z
" style="fill:#1f77b4;"/>
   </g>
   <g id="patch_11">
    <path clip-path="url(#p12233fa1c1)" d="M 77.972727 24386.976688 
L 80.509091 24386.976688 
L 80.509091 134.564428 
L 77.972727 134.564428 
z
" style="fill:#1f77b4;"/>
   </g>
   <g id="patch_12">
    <path clip-path="url(#p12233fa1c1)" d="M 80.509091 24386.976688 
L 83.045455 24386.976688 
L 83.045455 131.522914 
L 80.509091 131.522914 
z
" style="fill:#1f77b4;"/>
   </g>
   <g id="patch_13">
    <path clip-path="url(#p12233fa1c1)" d="M 83.045455 24386.976688 
L 85.581818 24386.976688 
L 85.581818 125.235384 
L 83.045455 125.235384 
z
" style="fill:#1f77b4;"/>
   </g>
   <g id="patch_14">
    <path clip-path="url(#p12233fa1c1)" d="M 85.581818 24386.976688 
L 88.118182 24386.976688 
L 88.118182 120.28148 
L 85.581818 120.28148 
z
" style="fill:#1f77b4;"/>
   </g>
   <g id="patch_15">
    <path clip-path="url(#p12233fa1c1)" d="M 88.118182 24386.976688 
L 90.654545 24386.976688 
L 90.654545 116.756781 
L 88.118182 116.756781 
z
" style="fill:#1f77b4;"/>
   </g>
   <g id="patch_16">
    <path clip-path="url(#p12233fa1c1)" d="M 90.654545 24386.976688 
L 93.190909 24386.976688 
L 93.190909 113.701652 
L 90.654545 113.701652 
z
" style="fill:#1f77b4;"/>
   </g>
   <g id="patch_17">
    <path clip-path="url(#p12233fa1c1)" d="M 93.190909 24386.976688 
L 95.727273 24386.976688 
L 95.727273 107.861206 
L 93.190909 107.861206 
z
" style="fill:#1f77b4;"/>
   </g>
   <g id="patch_18">
    <path clip-path="url(#p12233fa1c1)" d="M 95.727273 24386.976688 
L 98.263636 24386.976688 
L 98.263636 104.303859 
L 95.727273 104.303859 
z
" style="fill:#1f77b4;"/>
   </g>
   <g id="patch_19">
    <path clip-path="url(#p12233fa1c1)" d="M 98.263636 24386.976688 
L 100.8 24386.976688 
L 100.8 100.266128 
L 98.263636 100.266128 
z
" style="fill:#1f77b4;"/>
   </g>
   <g id="patch_20">
    <path clip-path="url(#p12233fa1c1)" d="M 100.8 24386.976688 
L 103.336364 24386.976688 
L 103.336364 95.960282 
L 100.8 95.960282 
z
" style="fill:#1f77b4;"/>
   </g>
   <g id="patch_21">
    <path clip-path="url(#p12233fa1c1)" d="M 103.336364 24386.976688 
L 105.872727 24386.976688 
L 105.872727 92.331308 
L 103.336364 92.331308 
z
" style="fill:#1f77b4;"/>
   </g>
   <g id="patch_22">
    <path clip-path="url(#p12233fa1c1)" d="M 105.872727 24386.976688 
L 108.409091 24386.976688 
L 108.409091 88.890485 
L 105.872727 88.890485 
z
" style="fill:#1f77b4;"/>
   </g>
   <g id="patch_23">
    <path clip-path="url(#p12233fa1c1)" d="M 108.409091 24386.976688 
L 110.945455 24386.976688 
L 110.945455 85.327003 
L 108.409091 85.327003 
z
" style="fill:#1f77b4;"/>
   </g>
   <g id="patch_24">
    <path clip-path="url(#p12233fa1c1)" d="M 110.945455 24386.976688 
L 113.481818 24386.976688 
L 113.481818 81.59349 
L 110.945455 81.59349 
z
" style="fill:#1f77b4;"/>
   </g>
   <g id="patch_25">
    <path clip-path="url(#p12233fa1c1)" d="M 113.481818 24386.976688 
L 116.018182 24386.976688 
L 116.018182 78.725753 
L 113.481818 78.725753 
z
" style="fill:#1f77b4;"/>
   </g>
   <g id="patch_26">
    <path clip-path="url(#p12233fa1c1)" d="M 116.018182 24386.976688 
L 118.554545 24386.976688 
L 118.554545 75.615028 
L 116.018182 75.615028 
z
" style="fill:#1f77b4;"/>
   </g>
   <g id="patch_27">
    <path clip-path="url(#p12233fa1c1)" d="M 118.554545 24386.976688 
L 121.090909 24386.976688 
L 121.090909 72.526332 
L 118.554545 72.526332 
z
" style="fill:#1f77b4;"/>
   </g>
   <g id="patch_28">
    <path clip-path="url(#p12233fa1c1)" d="M 121.090909 24386.976688 
L 123.627273 24386.976688 
L 123.627273 69.721732 
L 121.090909 69.721732 
z
" style="fill:#1f77b4;"/>
   </g>
   <g id="patch_29">
    <path clip-path="url(#p12233fa1c1)" d="M 123.627273 24386.976688 
L 126.163636 24386.976688 
L 126.163636 66.923216 
L 123.627273 66.923216 
z
" style="fill:#1f77b4;"/>
   </g>
   <g id="patch_30">
    <path clip-path="url(#p12233fa1c1)" d="M 126.163636 24386.976688 
L 128.7 24386.976688 
L 128.7 64.329579 
L 126.163636 64.329579 
z
" style="fill:#1f77b4;"/>
   </g>
   <g id="patch_31">
    <path clip-path="url(#p12233fa1c1)" d="M 128.7 24386.976688 
L 131.236364 24386.976688 
L 131.236364 61.840719 
L 128.7 61.840719 
z
" style="fill:#1f77b4;"/>
   </g>
   <g id="patch_32">
    <path clip-path="url(#p12233fa1c1)" d="M 131.236364 24386.976688 
L 133.772727 24386.976688 
L 133.772727 59.389834 
L 131.236364 59.389834 
z
" style="fill:#1f77b4;"/>
   </g>
   <g id="patch_33">
    <path clip-path="url(#p12233fa1c1)" d="M 133.772727 24386.976688 
L 136.309091 24386.976688 
L 136.309091 57.079639 
L 133.772727 57.079639 
z
" style="fill:#1f77b4;"/>
   </g>
   <g id="patch_34">
    <path clip-path="url(#p12233fa1c1)" d="M 136.309091 24386.976688 
L 138.845455 24386.976688 
L 138.845455 54.914425 
L 136.309091 54.914425 
z
" style="fill:#1f77b4;"/>
   </g>
   <g id="patch_35">
    <path clip-path="url(#p12233fa1c1)" d="M 138.845455 24386.976688 
L 141.381818 24386.976688 
L 141.381818 52.797621 
L 138.845455 52.797621 
z
" style="fill:#1f77b4;"/>
   </g>
   <g id="patch_36">
    <path clip-path="url(#p12233fa1c1)" d="M 141.381818 24386.976688 
L 143.918182 24386.976688 
L 143.918182 50.792733 
L 141.381818 50.792733 
z
" style="fill:#1f77b4;"/>
   </g>
   <g id="patch_37">
    <path clip-path="url(#p12233fa1c1)" d="M 143.918182 24386.976688 
L 146.454545 24386.976688 
L 146.454545 49.02762 
L 143.918182 49.02762 
z
" style="fill:#1f77b4;"/>
   </g>
   <g id="patch_38">
    <path clip-path="url(#p12233fa1c1)" d="M 146.454545 24386.976688 
L 148.990909 24386.976688 
L 148.990909 47.300594 
L 146.454545 47.300594 
z
" style="fill:#1f77b4;"/>
   </g>
   <g id="patch_39">
    <path clip-path="url(#p12233fa1c1)" d="M 148.990909 24386.976688 
L 151.527273 24386.976688 
L 151.527273 45.752563 
L 148.990909 45.752563 
z
" style="fill:#1f77b4;"/>
   </g>
   <g id="patch_40">
    <path clip-path="url(#p12233fa1c1)" d="M 151.527273 24386.976688 
L 154.063636 24386.976688 
L 154.063636 44.277861 
L 151.527273 44.277861 
z
" style="fill:#1f77b4;"/>
   </g>
   <g id="patch_41">
    <path clip-path="url(#p12233fa1c1)" d="M 154.063636 24386.976688 
L 156.6 24386.976688 
L 156.6 42.905339 
L 154.063636 42.905339 
z
" style="fill:#1f77b4;"/>
   </g>
   <g id="patch_42">
    <path clip-path="url(#p12233fa1c1)" d="M 156.6 24386.976688 
L 159.136364 24386.976688 
L 159.136364 41.624723 
L 156.6 41.624723 
z
" style="fill:#1f77b4;"/>
   </g>
   <g id="patch_43">
    <path clip-path="url(#p12233fa1c1)" d="M 159.136364 24386.976688 
L 161.672727 24386.976688 
L 161.672727 40.505204 
L 159.136364 40.505204 
z
" style="fill:#1f77b4;"/>
   </g>
   <g id="patch_44">
    <path clip-path="url(#p12233fa1c1)" d="M 161.672727 24386.976688 
L 164.209091 24386.976688 
L 164.209091 39.423218 
L 161.672727 39.423218 
z
" style="fill:#1f77b4;"/>
   </g>
   <g id="patch_45">
    <path clip-path="url(#p12233fa1c1)" d="M 164.209091 24386.976688 
L 166.745455 24386.976688 
L 166.745455 38.599083 
L 164.209091 38.599083 
z
" style="fill:#1f77b4;"/>
   </g>
   <g id="patch_46">
    <path clip-path="url(#p12233fa1c1)" d="M 166.745455 24386.976688 
L 169.281818 24386.976688 
L 169.281818 37.79341 
L 166.745455 37.79341 
z
" style="fill:#1f77b4;"/>
   </g>
   <g id="patch_47">
    <path clip-path="url(#p12233fa1c1)" d="M 169.281818 24386.976688 
L 171.818182 24386.976688 
L 171.818182 37.090831 
L 169.281818 37.090831 
z
" style="fill:#1f77b4;"/>
   </g>
   <g id="patch_48">
    <path clip-path="url(#p12233fa1c1)" d="M 171.818182 24386.976688 
L 174.354545 24386.976688 
L 174.354545 36.52616 
L 171.818182 36.52616 
z
" style="fill:#1f77b4;"/>
   </g>
   <g id="patch_49">
    <path clip-path="url(#p12233fa1c1)" d="M 174.354545 24386.976688 
L 176.890909 24386.976688 
L 176.890909 36.057968 
L 174.354545 36.057968 
z
" style="fill:#1f77b4;"/>
   </g>
   <g id="patch_50">
    <path clip-path="url(#p12233fa1c1)" d="M 176.890909 24386.976688 
L 179.427273 24386.976688 
L 179.427273 35.772924 
L 176.890909 35.772924 
z
" style="fill:#1f77b4;"/>
   </g>
   <g id="patch_51">
    <path clip-path="url(#p12233fa1c1)" d="M 179.427273 24386.976688 
L 181.963636 24386.976688 
L 181.963636 35.514373 
L 179.427273 35.514373 
z
" style="fill:#1f77b4;"/>
   </g>
   <g id="patch_52">
    <path clip-path="url(#p12233fa1c1)" d="M 181.963636 24386.976688 
L 184.5 24386.976688 
L 184.5 35.396835 
L 181.963636 35.396835 
z
" style="fill:#1f77b4;"/>
   </g>
   <g id="patch_53">
    <path clip-path="url(#p12233fa1c1)" d="M 184.5 24386.976688 
L 187.036364 24386.976688 
L 187.036364 35.497591 
L 184.5 35.497591 
z
" style="fill:#1f77b4;"/>
   </g>
   <g id="patch_54">
    <path clip-path="url(#p12233fa1c1)" d="M 187.036364 24386.976688 
L 189.572727 24386.976688 
L 189.572727 35.686579 
L 187.036364 35.686579 
z
" style="fill:#1f77b4;"/>
   </g>
   <g id="patch_55">
    <path clip-path="url(#p12233fa1c1)" d="M 189.572727 24386.976688 
L 192.109091 24386.976688 
L 192.109091 36.008417 
L 189.572727 36.008417 
z
" style="fill:#1f77b4;"/>
   </g>
   <g id="patch_56">
    <path clip-path="url(#p12233fa1c1)" d="M 192.109091 24386.976688 
L 194.645455 24386.976688 
L 194.645455 36.385559 
L 192.109091 36.385559 
z
" style="fill:#1f77b4;"/>
   </g>
   <g id="patch_57">
    <path clip-path="url(#p12233fa1c1)" d="M 194.645455 24386.976688 
L 197.181818 24386.976688 
L 197.181818 36.955778 
L 194.645455 36.955778 
z
" style="fill:#1f77b4;"/>
   </g>
   <g id="patch_58">
    <path clip-path="url(#p12233fa1c1)" d="M 197.181818 24386.976688 
L 199.718182 24386.976688 
L 199.718182 37.586928 
L 197.181818 37.586928 
z
" style="fill:#1f77b4;"/>
   </g>
   <g id="patch_59">
    <path clip-path="url(#p12233fa1c1)" d="M 199.718182 24386.976688 
L 202.254545 24386.976688 
L 202.254545 38.341089 
L 199.718182 38.341089 
z
" style="fill:#1f77b4;"/>
   </g>
   <g id="patch_60">
    <path clip-path="url(#p12233fa1c1)" d="M 202.254545 24386.976688 
L 204.790909 24386.976688 
L 204.790909 39.191437 
L 202.254545 39.191437 
z
" style="fill:#1f77b4;"/>
   </g>
   <g id="patch_61">
    <path clip-path="url(#p12233fa1c1)" d="M 204.790909 24386.976688 
L 207.327273 24386.976688 
L 207.327273 40.209006 
L 204.790909 40.209006 
z
" style="fill:#1f77b4;"/>
   </g>
   <g id="patch_62">
    <path clip-path="url(#p12233fa1c1)" d="M 207.327273 24386.976688 
L 209.863636 24386.976688 
L 209.863636 41.328092 
L 207.327273 41.328092 
z
" style="fill:#1f77b4;"/>
   </g>
   <g id="patch_63">
    <path clip-path="url(#p12233fa1c1)" d="M 209.863636 24386.976688 
L 212.4 24386.976688 
L 212.4 42.574237 
L 209.863636 42.574237 
z
" style="fill:#1f77b4;"/>
   </g>
   <g id="patch_64">
    <path clip-path="url(#p12233fa1c1)" d="M 212.4 24386.976688 
L 214.936364 24386.976688 
L 214.936364 43.872558 
L 212.4 43.872558 
z
" style="fill:#1f77b4;"/>
   </g>
   <g id="patch_65">
    <path clip-path="url(#p12233fa1c1)" d="M 214.936364 24386.976688 
L 217.472727 24386.976688 
L 217.472727 45.324048 
L 214.936364 45.324048 
z
" style="fill:#1f77b4;"/>
   </g>
   <g id="patch_66">
    <path clip-path="url(#p12233fa1c1)" d="M 217.472727 24386.976688 
L 220.009091 24386.976688 
L 220.009091 46.913022 
L 217.472727 46.913022 
z
" style="fill:#1f77b4;"/>
   </g>
   <g id="patch_67">
    <path clip-path="url(#p12233fa1c1)" d="M 220.009091 24386.976688 
L 222.545455 24386.976688 
L 222.545455 48.624842 
L 220.009091 48.624842 
z
" style="fill:#1f77b4;"/>
   </g>
   <g id="patch_68">
    <path clip-path="url(#p12233fa1c1)" d="M 222.545455 24386.976688 
L 225.081818 24386.976688 
L 225.081818 50.377529 
L 222.545455 50.377529 
z
" style="fill:#1f77b4;"/>
   </g>
   <g id="patch_69">
    <path clip-path="url(#p12233fa1c1)" d="M 225.081818 24386.976688 
L 227.618182 24386.976688 
L 227.618182 52.335696 
L 225.081818 52.335696 
z
" style="fill:#1f77b4;"/>
   </g>
   <g id="patch_70">
    <path clip-path="url(#p12233fa1c1)" d="M 227.618182 24386.976688 
L 230.154545 24386.976688 
L 230.154545 54.435307 
L 227.618182 54.435307 
z
" style="fill:#1f77b4;"/>
   </g>
   <g id="patch_71">
    <path clip-path="url(#p12233fa1c1)" d="M 230.154545 24386.976688 
L 232.690909 24386.976688 
L 232.690909 56.520154 
L 230.154545 56.520154 
z
" style="fill:#1f77b4;"/>
   </g>
   <g id="patch_72">
    <path clip-path="url(#p12233fa1c1)" d="M 232.690909 24386.976688 
L 235.227273 24386.976688 
L 235.227273 58.793991 
L 232.690909 58.793991 
z
" style="fill:#1f77b4;"/>
   </g>
   <g id="patch_73">
    <path clip-path="url(#p12233fa1c1)" d="M 235.227273 24386.976688 
L 237.763636 24386.976688 
L 237.763636 61.134319 
L 235.227273 61.134319 
z
" style="fill:#1f77b4;"/>
   </g>
   <g id="patch_74">
    <path clip-path="url(#p12233fa1c1)" d="M 237.763636 24386.976688 
L 240.3 24386.976688 
L 240.3 63.564374 
L 237.763636 63.564374 
z
" style="fill:#1f77b4;"/>
   </g>
   <g id="patch_75">
    <path clip-path="url(#p12233fa1c1)" d="M 240.3 24386.976688 
L 242.836364 24386.976688 
L 242.836364 66.215394 
L 240.3 66.215394 
z
" style="fill:#1f77b4;"/>
   </g>
   <g id="patch_76">
    <path clip-path="url(#p12233fa1c1)" d="M 242.836364 24386.976688 
L 245.372727 24386.976688 
L 245.372727 68.946104 
L 242.836364 68.946104 
z
" style="fill:#1f77b4;"/>
   </g>
   <g id="patch_77">
    <path clip-path="url(#p12233fa1c1)" d="M 245.372727 24386.976688 
L 247.909091 24386.976688 
L 247.909091 71.672033 
L 245.372727 71.672033 
z
" style="fill:#1f77b4;"/>
   </g>
   <g id="patch_78">
    <path clip-path="url(#p12233fa1c1)" d="M 247.909091 24386.976688 
L 250.445455 24386.976688 
L 250.445455 74.923798 
L 247.909091 74.923798 
z
" style="fill:#1f77b4;"/>
   </g>
   <g id="patch_79">
    <path clip-path="url(#p12233fa1c1)" d="M 250.445455 24386.976688 
L 252.981818 24386.976688 
L 252.981818 77.898818 
L 250.445455 77.898818 
z
" style="fill:#1f77b4;"/>
   </g>
   <g id="patch_80">
    <path clip-path="url(#p12233fa1c1)" d="M 252.981818 24386.976688 
L 255.518182 24386.976688 
L 255.518182 81.094271 
L 252.981818 81.094271 
z
" style="fill:#1f77b4;"/>
   </g>
   <g id="patch_81">
    <path clip-path="url(#p12233fa1c1)" d="M 255.518182 24386.976688 
L 258.054545 24386.976688 
L 258.054545 84.239042 
L 255.518182 84.239042 
z
" style="fill:#1f77b4;"/>
   </g>
   <g id="patch_82">
    <path clip-path="url(#p12233fa1c1)" d="M 258.054545 24386.976688 
L 260.590909 24386.976688 
L 260.590909 87.849851 
L 258.054545 87.849851 
z
" style="fill:#1f77b4;"/>
   </g>
   <g id="patch_83">
    <path clip-path="url(#p12233fa1c1)" d="M 260.590909 24386.976688 
L 263.127273 24386.976688 
L 263.127273 91.504628 
L 260.590909 91.504628 
z
" style="fill:#1f77b4;"/>
   </g>
   <g id="patch_84">
    <path clip-path="url(#p12233fa1c1)" d="M 263.127273 24386.976688 
L 265.663636 24386.976688 
L 265.663636 94.778736 
L 263.127273 94.778736 
z
" style="fill:#1f77b4;"/>
   </g>
   <g id="patch_85">
    <path clip-path="url(#p12233fa1c1)" d="M 265.663636 24386.976688 
L 268.2 24386.976688 
L 268.2 99.282441 
L 265.663636 99.282441 
z
" style="fill:#1f77b4;"/>
   </g>
   <g id="patch_86">
    <path clip-path="url(#p12233fa1c1)" d="M 268.2 24386.976688 
L 270.736364 24386.976688 
L 270.736364 102.209768 
L 268.2 102.209768 
z
" style="fill:#1f77b4;"/>
   </g>
   <g id="patch_87">
    <path clip-path="url(#p12233fa1c1)" d="M 270.736364 24386.976688 
L 273.272727 24386.976688 
L 273.272727 106.071561 
L 270.736364 106.071561 
z
" style="fill:#1f77b4;"/>
   </g>
   <g id="patch_88">
    <path clip-path="url(#p12233fa1c1)" d="M 273.272727 24386.976688 
L 275.809091 24386.976688 
L 275.809091 111.973223 
L 273.272727 111.973223 
z
" style="fill:#1f77b4;"/>
   </g>
   <g id="patch_89">
    <path clip-path="url(#p12233fa1c1)" d="M 275.809091 24386.976688 
L 278.345455 24386.976688 
L 278.345455 115.818704 
L 275.809091 115.818704 
z
" style="fill:#1f77b4;"/>
   </g>
   <g id="patch_90">
    <path clip-path="url(#p12233fa1c1)" d="M 278.345455 24386.976688 
L 280.881818 24386.976688 
L 280.881818 118.15298 
L 278.345455 118.15298 
z
" style="fill:#1f77b4;"/>
   </g>
   <g id="patch_91">
    <path clip-path="url(#p12233fa1c1)" d="M 280.881818 24386.976688 
L 283.418182 24386.976688 
L 283.418182 122.103119 
L 280.881818 122.103119 
z
" style="fill:#1f77b4;"/>
   </g>
   <g id="patch_92">
    <path clip-path="url(#p12233fa1c1)" d="M 283.418182 24386.976688 
L 285.954545 24386.976688 
L 285.954545 130.277655 
L 283.418182 130.277655 
z
" style="fill:#1f77b4;"/>
   </g>
   <g id="patch_93">
    <path clip-path="url(#p12233fa1c1)" d="M 285.954545 24386.976688 
L 288.490909 24386.976688 
L 288.490909 131.304917 
L 285.954545 131.304917 
z
" style="fill:#1f77b4;"/>
   </g>
   <g id="patch_94">
    <path clip-path="url(#p12233fa1c1)" d="M 288.490909 24386.976688 
L 291.027273 24386.976688 
L 291.027273 139.771127 
L 288.490909 139.771127 
z
" style="fill:#1f77b4;"/>
   </g>
   <g id="patch_95">
    <path clip-path="url(#p12233fa1c1)" d="M 291.027273 24386.976688 
L 293.563636 24386.976688 
L 293.563636 141.892715 
L 291.027273 141.892715 
z
" style="fill:#1f77b4;"/>
   </g>
   <g id="patch_96">
    <path clip-path="url(#p12233fa1c1)" d="M 293.563636 24386.976688 
L 296.1 24386.976688 
L 296.1 147.099414 
L 293.563636 147.099414 
z
" style="fill:#1f77b4;"/>
   </g>
   <g id="patch_97">
    <path clip-path="url(#p12233fa1c1)" d="M 296.1 24386.976688 
L 298.636364 24386.976688 
L 298.636364 160.836061 
L 296.1 160.836061 
z
" style="fill:#1f77b4;"/>
   </g>
   <g id="patch_98">
    <path clip-path="url(#p12233fa1c1)" d="M 298.636364 24386.976688 
L 301.172727 24386.976688 
L 301.172727 157.794547 
L 298.636364 157.794547 
z
" style="fill:#1f77b4;"/>
   </g>
   <g id="patch_99">
    <path clip-path="url(#p12233fa1c1)" d="M 301.172727 24386.976688 
L 303.709091 24386.976688 
L 303.709091 165.122833 
L 301.172727 165.122833 
z
" style="fill:#1f77b4;"/>
   </g>
   <g id="patch_100">
    <path clip-path="url(#p12233fa1c1)" d="M 303.709091 24386.976688 
L 306.245455 24386.976688 
L 306.245455 172.45112 
L 303.709091 172.45112 
z
" style="fill:#1f77b4;"/>
   </g>
   <g id="patch_101">
    <path clip-path="url(#p12233fa1c1)" d="M 306.245455 24386.976688 
L 308.781818 24386.976688 
L 308.781818 24386.976688 
L 306.245455 24386.976688 
z
" style="fill:#1f77b4;"/>
   </g>
   <g id="patch_102">
    <path clip-path="url(#p12233fa1c1)" d="M 308.781818 24386.976688 
L 311.318182 24386.976688 
L 311.318182 165.122833 
L 308.781818 165.122833 
z
" style="fill:#1f77b4;"/>
   </g>
   <g id="matplotlib.axis_1">
    <g id="xtick_1">
     <g id="line2d_1">
      <path clip-path="url(#p12233fa1c1)" d="M 62.21302 189 
L 62.21302 25.92 
" style="fill:none;stroke:#b0b0b0;stroke-dasharray:2.96,1.28;stroke-dashoffset:0;stroke-width:0.8;"/>
     </g>
     <g id="line2d_2">
      <defs>
       <path d="M 0 0 
L 0 3.5 
" id="md385e945b6" style="stroke:#000000;stroke-width:0.8;"/>
      </defs>
      <g>
       <use style="stroke:#000000;stroke-width:0.8;" x="62.21302" xlink:href="#md385e945b6" y="189"/>
      </g>
     </g>
     <g id="text_1">
      <text style="font-family:DejaVu Sans;font-size:12px;font-stretch:normal;font-style:normal;font-weight:normal;text-anchor:middle;" transform="rotate(-0, 62.21302, 205.118125)" x="62.21302" y="205.118125">−1.0</text>
     </g>
    </g>
    <g id="xtick_2">
     <g id="line2d_3">
      <path clip-path="url(#p12233fa1c1)" d="M 122.88293 189 
L 122.88293 25.92 
" style="fill:none;stroke:#b0b0b0;stroke-dasharray:2.96,1.28;stroke-dashoffset:0;stroke-width:0.8;"/>
     </g>
     <g id="line2d_4">
      <g>
       <use style="stroke:#000000;stroke-width:0.8;" x="122.88293" xlink:href="#md385e945b6" y="189"/>
      </g>
     </g>
     <g id="text_2">
      <text style="font-family:DejaVu Sans;font-size:12px;font-stretch:normal;font-style:normal;font-weight:normal;text-anchor:middle;" transform="rotate(-0, 122.88293, 205.118125)" x="122.88293" y="205.118125">−0.5</text>
     </g>
    </g>
    <g id="xtick_3">
     <g id="line2d_5">
      <path clip-path="url(#p12233fa1c1)" d="M 183.552839 189 
L 183.552839 25.92 
" style="fill:none;stroke:#b0b0b0;stroke-dasharray:2.96,1.28;stroke-dashoffset:0;stroke-width:0.8;"/>
     </g>
     <g id="line2d_6">
      <g>
       <use style="stroke:#000000;stroke-width:0.8;" x="183.552839" xlink:href="#md385e945b6" y="189"/>
      </g>
     </g>
     <g id="text_3">
      <text style="font-family:DejaVu Sans;font-size:12px;font-stretch:normal;font-style:normal;font-weight:normal;text-anchor:middle;" transform="rotate(-0, 183.552839, 205.118125)" x="183.552839" y="205.118125">0.0</text>
     </g>
    </g>
    <g id="xtick_4">
     <g id="line2d_7">
      <path clip-path="url(#p12233fa1c1)" d="M 244.222749 189 
L 244.222749 25.92 
" style="fill:none;stroke:#b0b0b0;stroke-dasharray:2.96,1.28;stroke-dashoffset:0;stroke-width:0.8;"/>
     </g>
     <g id="line2d_8">
      <g>
       <use style="stroke:#000000;stroke-width:0.8;" x="244.222749" xlink:href="#md385e945b6" y="189"/>
      </g>
     </g>
     <g id="text_4">
      <text style="font-family:DejaVu Sans;font-size:12px;font-stretch:normal;font-style:normal;font-weight:normal;text-anchor:middle;" transform="rotate(-0, 244.222749, 205.118125)" x="244.222749" y="205.118125">0.5</text>
     </g>
    </g>
    <g id="xtick_5">
     <g id="line2d_9">
      <path clip-path="url(#p12233fa1c1)" d="M 304.892659 189 
L 304.892659 25.92 
" style="fill:none;stroke:#b0b0b0;stroke-dasharray:2.96,1.28;stroke-dashoffset:0;stroke-width:0.8;"/>
     </g>
     <g id="line2d_10">
      <g>
       <use style="stroke:#000000;stroke-width:0.8;" x="304.892659" xlink:href="#md385e945b6" y="189"/>
      </g>
     </g>
     <g id="text_5">
      <text style="font-family:DejaVu Sans;font-size:12px;font-stretch:normal;font-style:normal;font-weight:normal;text-anchor:middle;" transform="rotate(-0, 304.892659, 205.118125)" x="304.892659" y="205.118125">1.0</text>
     </g>
    </g>
    <g id="text_6">
     <!-- $\Delta |F|$ -->
     <g transform="translate(172.86 220.85375)">
      <text>
       <tspan style="font-family:DejaVu Sans;font-size:12px;font-style:book;font-weight:book;" x="0 8.208984 19.154297" y="-0.828125">Δ||</tspan>
       <tspan style="font-family:DejaVu Sans;font-size:12px;font-style:oblique;font-weight:oblique;" x="12.251953" y="-0.828125">F</tspan>
      </text>
     </g>
    </g>
   </g>
   <g id="matplotlib.axis_2">
    <g id="ytick_1">
     <g id="line2d_11">
      <path clip-path="url(#p12233fa1c1)" d="M 45 189 
L 324 189 
" style="fill:none;stroke:#b0b0b0;stroke-dasharray:2.96,1.28;stroke-dashoffset:0;stroke-width:0.8;"/>
     </g>
     <g id="line2d_12">
      <defs>
       <path d="M 0 0 
L -3.5 0 
" id="m2610e4a3b6" style="stroke:#000000;stroke-width:0.8;"/>
      </defs>
      <g>
       <use style="stroke:#000000;stroke-width:0.8;" x="45" xlink:href="#m2610e4a3b6" y="189"/>
      </g>
     </g>
     <g id="text_7">
      <!-- $\mathdefault{10^{-6}}$ -->
      <g transform="translate(9.8 193.559063)">
       <text>
        <tspan style="font-family:DejaVu Sans;font-size:12px;font-style:book;font-weight:book;" x="0 7.634766" y="-0.171875">10</tspan>
        <tspan style="font-family:DejaVu Sans;font-size:8.4px;font-style:book;font-weight:book;" x="15.384375 22.422656" y="-4.765625">−6</tspan>
       </text>
      </g>
     </g>
    </g>
    <g id="ytick_2">
     <g id="line2d_13">
      <path clip-path="url(#p12233fa1c1)" d="M 45 140.311918 
L 324 140.311918 
" style="fill:none;stroke:#b0b0b0;stroke-dasharray:2.96,1.28;stroke-dashoffset:0;stroke-width:0.8;"/>
     </g>
     <g id="line2d_14">
      <g>
       <use style="stroke:#000000;stroke-width:0.8;" x="45" xlink:href="#m2610e4a3b6" y="140.311918"/>
      </g>
     </g>
     <g id="text_8">
      <!-- $\mathdefault{10^{-4}}$ -->
      <g transform="translate(9.8 144.870981)">
       <text>
        <tspan style="font-family:DejaVu Sans;font-size:12px;font-style:book;font-weight:book;" x="0 7.634766" y="-0.28125">10</tspan>
        <tspan style="font-family:DejaVu Sans;font-size:8.4px;font-style:book;font-weight:book;" x="15.384375 22.422656" y="-4.875">−4</tspan>
       </text>
      </g>
     </g>
    </g>
    <g id="ytick_3">
     <g id="line2d_15">
      <path clip-path="url(#p12233fa1c1)" d="M 45 91.623836 
L 324 91.623836 
" style="fill:none;stroke:#b0b0b0;stroke-dasharray:2.96,1.28;stroke-dashoffset:0;stroke-width:0.8;"/>
     </g>
     <g id="line2d_16">
      <g>
       <use style="stroke:#000000;stroke-width:0.8;" x="45" xlink:href="#m2610e4a3b6" y="91.623836"/>
      </g>
     </g>
     <g id="text_9">
      <!-- $\mathdefault{10^{-2}}$ -->
      <g transform="translate(9.8 96.182899)">
       <text>
        <tspan style="font-family:DejaVu Sans;font-size:12px;font-style:book;font-weight:book;" x="0 7.634766" y="-0.171875">10</tspan>
        <tspan style="font-family:DejaVu Sans;font-size:8.4px;font-style:book;font-weight:book;" x="15.384375 22.422656" y="-4.765625">−2</tspan>
       </text>
      </g>
     </g>
    </g>
    <g id="ytick_4">
     <g id="line2d_17">
      <path clip-path="url(#p12233fa1c1)" d="M 45 42.935754 
L 324 42.935754 
" style="fill:none;stroke:#b0b0b0;stroke-dasharray:2.96,1.28;stroke-dashoffset:0;stroke-width:0.8;"/>
     </g>
     <g id="line2d_18">
      <g>
       <use style="stroke:#000000;stroke-width:0.8;" x="45" xlink:href="#m2610e4a3b6" y="42.935754"/>
      </g>
     </g>
     <g id="text_10">
      <!-- $\mathdefault{10^{0}}$ -->
      <g transform="translate(16.88 47.494817)">
       <text>
        <tspan style="font-family:DejaVu Sans;font-size:12px;font-style:book;font-weight:book;" x="0 7.634766" y="-0.171875">10</tspan>
        <tspan style="font-family:DejaVu Sans;font-size:8.4px;font-style:book;font-weight:book;" x="15.384375" y="-4.765625">0</tspan>
       </text>
      </g>
     </g>
    </g>
    <g id="text_11">
     <text style="font-family:DejaVu Sans;font-size:12px;font-stretch:normal;font-style:normal;font-weight:normal;text-anchor:middle;" transform="rotate(-90, 3.304375, 107.46)" x="3.304375" y="107.46">density</text>
    </g>
   </g>
   <g id="line2d_19">
    <path clip-path="url(#p12233fa1c1)" d="M 65.782926 162.623848 
L 68.17838 157.506061 
L 70.573835 152.49344 
L 72.96929 147.585985 
L 75.364744 142.783696 
L 77.760199 138.086573 
L 80.155653 133.494616 
L 82.551108 129.007825 
L 84.946562 124.6262 
L 87.342017 120.349741 
L 89.737471 116.178448 
L 92.132926 112.11232 
L 94.52838 108.151359 
L 96.923835 104.295564 
L 99.31929 100.544934 
L 101.714744 96.899471 
L 104.110199 93.359173 
L 106.505653 89.924042 
L 108.901108 86.594076 
L 111.296562 83.369277 
L 113.692017 80.249643 
L 116.087471 77.235175 
L 118.482926 74.325874 
L 120.87838 71.521738 
L 123.273835 68.822768 
L 125.66929 66.228964 
L 128.064744 63.740326 
L 130.460199 61.356854 
L 132.855653 59.078548 
L 135.251108 56.905408 
L 137.646562 54.837434 
L 140.042017 52.874626 
L 142.437471 51.016984 
L 144.832926 49.264508 
L 147.22838 47.617198 
L 149.623835 46.075054 
L 152.01929 44.638075 
L 154.414744 43.306263 
L 156.810199 42.079617 
L 159.205653 40.958136 
L 161.601108 39.941822 
L 163.996562 39.030673 
L 166.392017 38.224691 
L 168.787471 37.523874 
L 171.182926 36.928224 
L 173.57838 36.437739 
L 175.973835 36.05242 
L 178.36929 35.772267 
L 180.764744 35.597281 
L 183.160199 35.52746 
L 185.555653 35.562805 
L 187.951108 35.703316 
L 190.346562 35.948993 
L 192.742017 36.299836 
L 195.137471 36.755845 
L 197.532926 37.31702 
L 199.92838 37.983361 
L 202.323835 38.754868 
L 204.71929 39.631541 
L 207.114744 40.61338 
L 209.510199 41.700384 
L 211.905653 42.892555 
L 214.301108 44.189892 
L 216.696562 45.592394 
L 219.092017 47.100063 
L 221.487471 48.712897 
L 223.882926 50.430898 
L 226.27838 52.254064 
L 228.673835 54.182397 
L 231.06929 56.215895 
L 233.464744 58.354559 
L 235.860199 60.59839 
L 238.255653 62.947386 
L 240.651108 65.401548 
L 243.046562 67.960876 
L 245.442017 70.625371 
L 247.837471 73.395031 
L 250.232926 76.269857 
L 252.62838 79.249849 
L 255.023835 82.335007 
L 257.41929 85.525331 
L 259.814744 88.82082 
L 262.210199 92.221476 
L 264.605653 95.727298 
L 267.001108 99.338286 
L 269.396562 103.05444 
L 271.792017 106.875759 
L 274.187471 110.802245 
L 276.582926 114.833897 
L 278.97838 118.970714 
L 281.373835 123.212698 
L 283.76929 127.559847 
L 286.164744 132.012163 
L 288.560199 136.569644 
L 290.955653 141.232291 
L 293.351108 146.000105 
L 295.746562 150.873084 
L 298.142017 155.851229 
L 300.537471 160.93454 
L 302.932926 166.123018 
" style="fill:none;stroke:#ff0000;stroke-linecap:square;stroke-width:1.5;"/>
   </g>
   <g id="patch_103">
    <path d="M 45 189 
L 45 25.92 
" style="fill:none;stroke:#000000;stroke-linecap:square;stroke-linejoin:miter;stroke-width:0.8;"/>
   </g>
   <g id="patch_104">
    <path d="M 324 189 
L 324 25.92 
" style="fill:none;stroke:#000000;stroke-linecap:square;stroke-linejoin:miter;stroke-width:0.8;"/>
   </g>
   <g id="patch_105">
    <path d="M 45 189 
L 324 189 
" style="fill:none;stroke:#000000;stroke-linecap:square;stroke-linejoin:miter;stroke-width:0.8;"/>
   </g>
   <g id="patch_106">
    <path d="M 45 25.92 
L 324 25.92 
" style="fill:none;stroke:#000000;stroke-linecap:square;stroke-linejoin:miter;stroke-width:0.8;"/>
   </g>
   <g id="text_12">
    <!-- $r$=0.8, $r_x$=0.98, $E_{ref}$ = 1.2, std($\Delta F$)=0.198 -->
    <g transform="translate(36.468 19.92)">
     <text>
      <tspan style="font-family:DejaVu Sans;font-size:14.4px;font-style:oblique;font-weight:oblique;" x="0 49.633789 115.153503 228.749413" y="-0.0625">rrEF</tspan>
      <tspan style="font-family:DejaVu Sans;font-size:14.4px;font-style:book;font-weight:book;" x="5.916458 17.974228 27.129974 31.32933 40.485077 45.059433 61.905426 73.963196 83.118942 87.693298 96.849045 106.004791 110.579147 138.525169 143.099525 155.157295 159.731651 168.887398 172.711754 181.8675 186.441856 191.016212 198.513664 204.156075 213.290749 218.905052 237.026833 242.641136 254.698906 263.854652 268.429008 277.584755 286.740501" y="-0.0625">=0.8, =0.98,  = 1.2, std(Δ)=0.198</tspan>
      <tspan style="font-family:DejaVu Sans;font-size:10.08px;font-style:oblique;font-weight:oblique;" x="55.550247 124.246017 128.387538 134.585063" y="2.3000000000000007">xref</tspan>
     </text>
    </g>
   </g>
  </g>
 </g>
 <defs>
  <clipPath id="p12233fa1c1">
   <rect height="163.08" width="279" x="45" y="25.92"/>
  </clipPath>
 </defs>
</svg>
