<?xml version="1.0" encoding="utf-8" standalone="no"?>
<!DOCTYPE svg PUBLIC "-//W3C//DTD SVG 1.1//EN"
  "http://www.w3.org/Graphics/SVG/1.1/DTD/svg11.dtd">
<!-- Created with matplotlib (https://matplotlib.org/) -->
<svg height="216pt" version="1.1" viewBox="0 0 360 216" width="360pt" xmlns="http://www.w3.org/2000/svg" xmlns:xlink="http://www.w3.org/1999/xlink">
 <metadata>
  <rdf:RDF xmlns:cc="http://creativecommons.org/ns#" xmlns:dc="http://purl.org/dc/elements/1.1/" xmlns:rdf="http://www.w3.org/1999/02/22-rdf-syntax-ns#">
   <cc:Work>
    <dc:type rdf:resource="http://purl.org/dc/dcmitype/StillImage"/>
    <dc:date>2024-03-19T16:48:51.542090</dc:date>
    <dc:format>image/svg+xml</dc:format>
    <dc:creator>
     <cc:Agent>
      <dc:title>Matplotlib v3.3.4, https://matplotlib.org/</dc:title>
     </cc:Agent>
    </dc:creator>
   </cc:Work>
  </rdf:RDF>
 </metadata>
 <defs>
  <style type="text/css">*{stroke-linecap:butt;stroke-linejoin:round;}</style>
 </defs>
 <g id="figure_1">
  <g id="patch_1">
   <path d="M 0 216 
L 360 216 
L 360 0 
L 0 0 
z
" style="fill:none;"/>
  </g>
  <g id="axes_1">
   <g id="patch_2">
    <path d="M 45 189 
L 324 189 
L 324 25.92 
L 45 25.92 
z
" style="fill:#ffffff;"/>
   </g>
   <g id="patch_3">
    <path clip-path="url(#pf90fffbc63)" d="M 57.681818 24386.976688 
L 60.218182 24386.976688 
L 60.218182 173.123058 
L 57.681818 173.123058 
z
" style="fill:#1f77b4;"/>
   </g>
   <g id="patch_4">
    <path clip-path="url(#pf90fffbc63)" d="M 60.218182 24386.976688 
L 62.754545 24386.976688 
L 62.754545 24386.976688 
L 60.218182 24386.976688 
z
" style="fill:#1f77b4;"/>
   </g>
   <g id="patch_5">
    <path clip-path="url(#pf90fffbc63)" d="M 62.754545 24386.976688 
L 65.290909 24386.976688 
L 65.290909 24386.976688 
L 62.754545 24386.976688 
z
" style="fill:#1f77b4;"/>
   </g>
   <g id="patch_6">
    <path clip-path="url(#pf90fffbc63)" d="M 65.290909 24386.976688 
L 67.827273 24386.976688 
L 67.827273 24386.976688 
L 65.290909 24386.976688 
z
" style="fill:#1f77b4;"/>
   </g>
   <g id="patch_7">
    <path clip-path="url(#pf90fffbc63)" d="M 67.827273 24386.976688 
L 70.363636 24386.976688 
L 70.363636 173.123058 
L 67.827273 173.123058 
z
" style="fill:#1f77b4;"/>
   </g>
   <g id="patch_8">
    <path clip-path="url(#pf90fffbc63)" d="M 70.363636 24386.976688 
L 72.9 24386.976688 
L 72.9 24386.976688 
L 70.363636 24386.976688 
z
" style="fill:#1f77b4;"/>
   </g>
   <g id="patch_9">
    <path clip-path="url(#pf90fffbc63)" d="M 72.9 24386.976688 
L 75.436364 24386.976688 
L 75.436364 24386.976688 
L 72.9 24386.976688 
z
" style="fill:#1f77b4;"/>
   </g>
   <g id="patch_10">
    <path clip-path="url(#pf90fffbc63)" d="M 75.436364 24386.976688 
L 77.972727 24386.976688 
L 77.972727 161.507998 
L 75.436364 161.507998 
z
" style="fill:#1f77b4;"/>
   </g>
   <g id="patch_11">
    <path clip-path="url(#pf90fffbc63)" d="M 77.972727 24386.976688 
L 80.509091 24386.976688 
L 80.509091 165.794771 
L 77.972727 165.794771 
z
" style="fill:#1f77b4;"/>
   </g>
   <g id="patch_12">
    <path clip-path="url(#pf90fffbc63)" d="M 80.509091 24386.976688 
L 83.045455 24386.976688 
L 83.045455 152.549957 
L 80.509091 152.549957 
z
" style="fill:#1f77b4;"/>
   </g>
   <g id="patch_13">
    <path clip-path="url(#pf90fffbc63)" d="M 83.045455 24386.976688 
L 85.581818 24386.976688 
L 85.581818 146.005175 
L 83.045455 146.005175 
z
" style="fill:#1f77b4;"/>
   </g>
   <g id="patch_14">
    <path clip-path="url(#pf90fffbc63)" d="M 85.581818 24386.976688 
L 88.118182 24386.976688 
L 88.118182 139.091549 
L 85.581818 139.091549 
z
" style="fill:#1f77b4;"/>
   </g>
   <g id="patch_15">
    <path clip-path="url(#pf90fffbc63)" d="M 88.118182 24386.976688 
L 90.654545 24386.976688 
L 90.654545 137.163958 
L 88.118182 137.163958 
z
" style="fill:#1f77b4;"/>
   </g>
   <g id="patch_16">
    <path clip-path="url(#pf90fffbc63)" d="M 90.654545 24386.976688 
L 93.190909 24386.976688 
L 93.190909 130.565097 
L 90.654545 130.565097 
z
" style="fill:#1f77b4;"/>
   </g>
   <g id="patch_17">
    <path clip-path="url(#pf90fffbc63)" d="M 93.190909 24386.976688 
L 95.727273 24386.976688 
L 95.727273 125.786492 
L 93.190909 125.786492 
z
" style="fill:#1f77b4;"/>
   </g>
   <g id="patch_18">
    <path clip-path="url(#pf90fffbc63)" d="M 95.727273 24386.976688 
L 98.263636 24386.976688 
L 98.263636 122.332629 
L 95.727273 122.332629 
z
" style="fill:#1f77b4;"/>
   </g>
   <g id="patch_19">
    <path clip-path="url(#pf90fffbc63)" d="M 98.263636 24386.976688 
L 100.8 24386.976688 
L 100.8 115.86143 
L 98.263636 115.86143 
z
" style="fill:#1f77b4;"/>
   </g>
   <g id="patch_20">
    <path clip-path="url(#pf90fffbc63)" d="M 100.8 24386.976688 
L 103.336364 24386.976688 
L 103.336364 111.372975 
L 100.8 111.372975 
z
" style="fill:#1f77b4;"/>
   </g>
   <g id="patch_21">
    <path clip-path="url(#pf90fffbc63)" d="M 103.336364 24386.976688 
L 105.872727 24386.976688 
L 105.872727 106.943741 
L 103.336364 106.943741 
z
" style="fill:#1f77b4;"/>
   </g>
   <g id="patch_22">
    <path clip-path="url(#pf90fffbc63)" d="M 105.872727 24386.976688 
L 108.409091 24386.976688 
L 108.409091 103.174823 
L 105.872727 103.174823 
z
" style="fill:#1f77b4;"/>
   </g>
   <g id="patch_23">
    <path clip-path="url(#pf90fffbc63)" d="M 108.409091 24386.976688 
L 110.945455 24386.976688 
L 110.945455 98.714919 
L 108.409091 98.714919 
z
" style="fill:#1f77b4;"/>
   </g>
   <g id="patch_24">
    <path clip-path="url(#pf90fffbc63)" d="M 110.945455 24386.976688 
L 113.481818 24386.976688 
L 113.481818 94.899518 
L 110.945455 94.899518 
z
" style="fill:#1f77b4;"/>
   </g>
   <g id="patch_25">
    <path clip-path="url(#pf90fffbc63)" d="M 113.481818 24386.976688 
L 116.018182 24386.976688 
L 116.018182 90.927973 
L 113.481818 90.927973 
z
" style="fill:#1f77b4;"/>
   </g>
   <g id="patch_26">
    <path clip-path="url(#pf90fffbc63)" d="M 116.018182 24386.976688 
L 118.554545 24386.976688 
L 118.554545 87.183732 
L 116.018182 87.183732 
z
" style="fill:#1f77b4;"/>
   </g>
   <g id="patch_27">
    <path clip-path="url(#pf90fffbc63)" d="M 118.554545 24386.976688 
L 121.090909 24386.976688 
L 121.090909 83.458424 
L 118.554545 83.458424 
z
" style="fill:#1f77b4;"/>
   </g>
   <g id="patch_28">
    <path clip-path="url(#pf90fffbc63)" d="M 121.090909 24386.976688 
L 123.627273 24386.976688 
L 123.627273 80.068083 
L 121.090909 80.068083 
z
" style="fill:#1f77b4;"/>
   </g>
   <g id="patch_29">
    <path clip-path="url(#pf90fffbc63)" d="M 123.627273 24386.976688 
L 126.163636 24386.976688 
L 126.163636 76.614663 
L 123.627273 76.614663 
z
" style="fill:#1f77b4;"/>
   </g>
   <g id="patch_30">
    <path clip-path="url(#pf90fffbc63)" d="M 126.163636 24386.976688 
L 128.7 24386.976688 
L 128.7 73.665366 
L 126.163636 73.665366 
z
" style="fill:#1f77b4;"/>
   </g>
   <g id="patch_31">
    <path clip-path="url(#pf90fffbc63)" d="M 128.7 24386.976688 
L 131.236364 24386.976688 
L 131.236364 70.416634 
L 128.7 70.416634 
z
" style="fill:#1f77b4;"/>
   </g>
   <g id="patch_32">
    <path clip-path="url(#pf90fffbc63)" d="M 131.236364 24386.976688 
L 133.772727 24386.976688 
L 133.772727 67.672209 
L 131.236364 67.672209 
z
" style="fill:#1f77b4;"/>
   </g>
   <g id="patch_33">
    <path clip-path="url(#pf90fffbc63)" d="M 133.772727 24386.976688 
L 136.309091 24386.976688 
L 136.309091 64.829591 
L 133.772727 64.829591 
z
" style="fill:#1f77b4;"/>
   </g>
   <g id="patch_34">
    <path clip-path="url(#pf90fffbc63)" d="M 136.309091 24386.976688 
L 138.845455 24386.976688 
L 138.845455 62.007556 
L 136.309091 62.007556 
z
" style="fill:#1f77b4;"/>
   </g>
   <g id="patch_35">
    <path clip-path="url(#pf90fffbc63)" d="M 138.845455 24386.976688 
L 141.381818 24386.976688 
L 141.381818 59.529815 
L 138.845455 59.529815 
z
" style="fill:#1f77b4;"/>
   </g>
   <g id="patch_36">
    <path clip-path="url(#pf90fffbc63)" d="M 141.381818 24386.976688 
L 143.918182 24386.976688 
L 143.918182 57.035137 
L 141.381818 57.035137 
z
" style="fill:#1f77b4;"/>
   </g>
   <g id="patch_37">
    <path clip-path="url(#pf90fffbc63)" d="M 143.918182 24386.976688 
L 146.454545 24386.976688 
L 146.454545 54.756228 
L 143.918182 54.756228 
z
" style="fill:#1f77b4;"/>
   </g>
   <g id="patch_38">
    <path clip-path="url(#pf90fffbc63)" d="M 146.454545 24386.976688 
L 148.990909 24386.976688 
L 148.990909 52.524531 
L 146.454545 52.524531 
z
" style="fill:#1f77b4;"/>
   </g>
   <g id="patch_39">
    <path clip-path="url(#pf90fffbc63)" d="M 148.990909 24386.976688 
L 151.527273 24386.976688 
L 151.527273 50.50096 
L 148.990909 50.50096 
z
" style="fill:#1f77b4;"/>
   </g>
   <g id="patch_40">
    <path clip-path="url(#pf90fffbc63)" d="M 151.527273 24386.976688 
L 154.063636 24386.976688 
L 154.063636 48.579275 
L 151.527273 48.579275 
z
" style="fill:#1f77b4;"/>
   </g>
   <g id="patch_41">
    <path clip-path="url(#pf90fffbc63)" d="M 154.063636 24386.976688 
L 156.6 24386.976688 
L 156.6 46.828783 
L 154.063636 46.828783 
z
" style="fill:#1f77b4;"/>
   </g>
   <g id="patch_42">
    <path clip-path="url(#pf90fffbc63)" d="M 156.6 24386.976688 
L 159.136364 24386.976688 
L 159.136364 45.165431 
L 156.6 45.165431 
z
" style="fill:#1f77b4;"/>
   </g>
   <g id="patch_43">
    <path clip-path="url(#pf90fffbc63)" d="M 159.136364 24386.976688 
L 161.672727 24386.976688 
L 161.672727 43.673995 
L 159.136364 43.673995 
z
" style="fill:#1f77b4;"/>
   </g>
   <g id="patch_44">
    <path clip-path="url(#pf90fffbc63)" d="M 161.672727 24386.976688 
L 164.209091 24386.976688 
L 164.209091 42.312624 
L 161.672727 42.312624 
z
" style="fill:#1f77b4;"/>
   </g>
   <g id="patch_45">
    <path clip-path="url(#pf90fffbc63)" d="M 164.209091 24386.976688 
L 166.745455 24386.976688 
L 166.745455 41.032722 
L 164.209091 41.032722 
z
" style="fill:#1f77b4;"/>
   </g>
   <g id="patch_46">
    <path clip-path="url(#pf90fffbc63)" d="M 166.745455 24386.976688 
L 169.281818 24386.976688 
L 169.281818 39.878008 
L 166.745455 39.878008 
z
" style="fill:#1f77b4;"/>
   </g>
   <g id="patch_47">
    <path clip-path="url(#pf90fffbc63)" d="M 169.281818 24386.976688 
L 171.818182 24386.976688 
L 171.818182 38.908382 
L 169.281818 38.908382 
z
" style="fill:#1f77b4;"/>
   </g>
   <g id="patch_48">
    <path clip-path="url(#pf90fffbc63)" d="M 171.818182 24386.976688 
L 174.354545 24386.976688 
L 174.354545 38.064509 
L 171.818182 38.064509 
z
" style="fill:#1f77b4;"/>
   </g>
   <g id="patch_49">
    <path clip-path="url(#pf90fffbc63)" d="M 174.354545 24386.976688 
L 176.890909 24386.976688 
L 176.890909 37.333411 
L 174.354545 37.333411 
z
" style="fill:#1f77b4;"/>
   </g>
   <g id="patch_50">
    <path clip-path="url(#pf90fffbc63)" d="M 176.890909 24386.976688 
L 179.427273 24386.976688 
L 179.427273 36.713978 
L 176.890909 36.713978 
z
" style="fill:#1f77b4;"/>
   </g>
   <g id="patch_51">
    <path clip-path="url(#pf90fffbc63)" d="M 179.427273 24386.976688 
L 181.963636 24386.976688 
L 181.963636 36.29729 
L 179.427273 36.29729 
z
" style="fill:#1f77b4;"/>
   </g>
   <g id="patch_52">
    <path clip-path="url(#pf90fffbc63)" d="M 181.963636 24386.976688 
L 184.5 24386.976688 
L 184.5 35.913172 
L 181.963636 35.913172 
z
" style="fill:#1f77b4;"/>
   </g>
   <g id="patch_53">
    <path clip-path="url(#pf90fffbc63)" d="M 184.5 24386.976688 
L 187.036364 24386.976688 
L 187.036364 35.699162 
L 184.5 35.699162 
z
" style="fill:#1f77b4;"/>
   </g>
   <g id="patch_54">
    <path clip-path="url(#pf90fffbc63)" d="M 187.036364 24386.976688 
L 189.572727 24386.976688 
L 189.572727 35.612192 
L 187.036364 35.612192 
z
" style="fill:#1f77b4;"/>
   </g>
   <g id="patch_55">
    <path clip-path="url(#pf90fffbc63)" d="M 189.572727 24386.976688 
L 192.109091 24386.976688 
L 192.109091 35.676683 
L 189.572727 35.676683 
z
" style="fill:#1f77b4;"/>
   </g>
   <g id="patch_56">
    <path clip-path="url(#pf90fffbc63)" d="M 192.109091 24386.976688 
L 194.645455 24386.976688 
L 194.645455 35.892429 
L 192.109091 35.892429 
z
" style="fill:#1f77b4;"/>
   </g>
   <g id="patch_57">
    <path clip-path="url(#pf90fffbc63)" d="M 194.645455 24386.976688 
L 197.181818 24386.976688 
L 197.181818 36.182451 
L 194.645455 36.182451 
z
" style="fill:#1f77b4;"/>
   </g>
   <g id="patch_58">
    <path clip-path="url(#pf90fffbc63)" d="M 197.181818 24386.976688 
L 199.718182 24386.976688 
L 199.718182 36.670693 
L 197.181818 36.670693 
z
" style="fill:#1f77b4;"/>
   </g>
   <g id="patch_59">
    <path clip-path="url(#pf90fffbc63)" d="M 199.718182 24386.976688 
L 202.254545 24386.976688 
L 202.254545 37.239169 
L 199.718182 37.239169 
z
" style="fill:#1f77b4;"/>
   </g>
   <g id="patch_60">
    <path clip-path="url(#pf90fffbc63)" d="M 202.254545 24386.976688 
L 204.790909 24386.976688 
L 204.790909 37.967765 
L 202.254545 37.967765 
z
" style="fill:#1f77b4;"/>
   </g>
   <g id="patch_61">
    <path clip-path="url(#pf90fffbc63)" d="M 204.790909 24386.976688 
L 207.327273 24386.976688 
L 207.327273 38.795807 
L 204.790909 38.795807 
z
" style="fill:#1f77b4;"/>
   </g>
   <g id="patch_62">
    <path clip-path="url(#pf90fffbc63)" d="M 207.327273 24386.976688 
L 209.863636 24386.976688 
L 209.863636 39.753665 
L 207.327273 39.753665 
z
" style="fill:#1f77b4;"/>
   </g>
   <g id="patch_63">
    <path clip-path="url(#pf90fffbc63)" d="M 209.863636 24386.976688 
L 212.4 24386.976688 
L 212.4 40.893144 
L 209.863636 40.893144 
z
" style="fill:#1f77b4;"/>
   </g>
   <g id="patch_64">
    <path clip-path="url(#pf90fffbc63)" d="M 212.4 24386.976688 
L 214.936364 24386.976688 
L 214.936364 42.102313 
L 212.4 42.102313 
z
" style="fill:#1f77b4;"/>
   </g>
   <g id="patch_65">
    <path clip-path="url(#pf90fffbc63)" d="M 214.936364 24386.976688 
L 217.472727 24386.976688 
L 217.472727 43.483484 
L 214.936364 43.483484 
z
" style="fill:#1f77b4;"/>
   </g>
   <g id="patch_66">
    <path clip-path="url(#pf90fffbc63)" d="M 217.472727 24386.976688 
L 220.009091 24386.976688 
L 220.009091 44.991398 
L 217.472727 44.991398 
z
" style="fill:#1f77b4;"/>
   </g>
   <g id="patch_67">
    <path clip-path="url(#pf90fffbc63)" d="M 220.009091 24386.976688 
L 222.545455 24386.976688 
L 222.545455 46.582406 
L 220.009091 46.582406 
z
" style="fill:#1f77b4;"/>
   </g>
   <g id="patch_68">
    <path clip-path="url(#pf90fffbc63)" d="M 222.545455 24386.976688 
L 225.081818 24386.976688 
L 225.081818 48.304822 
L 222.545455 48.304822 
z
" style="fill:#1f77b4;"/>
   </g>
   <g id="patch_69">
    <path clip-path="url(#pf90fffbc63)" d="M 225.081818 24386.976688 
L 227.618182 24386.976688 
L 227.618182 50.250949 
L 225.081818 50.250949 
z
" style="fill:#1f77b4;"/>
   </g>
   <g id="patch_70">
    <path clip-path="url(#pf90fffbc63)" d="M 227.618182 24386.976688 
L 230.154545 24386.976688 
L 230.154545 52.280842 
L 227.618182 52.280842 
z
" style="fill:#1f77b4;"/>
   </g>
   <g id="patch_71">
    <path clip-path="url(#pf90fffbc63)" d="M 230.154545 24386.976688 
L 232.690909 24386.976688 
L 232.690909 54.380701 
L 230.154545 54.380701 
z
" style="fill:#1f77b4;"/>
   </g>
   <g id="patch_72">
    <path clip-path="url(#pf90fffbc63)" d="M 232.690909 24386.976688 
L 235.227273 24386.976688 
L 235.227273 56.671515 
L 232.690909 56.671515 
z
" style="fill:#1f77b4;"/>
   </g>
   <g id="patch_73">
    <path clip-path="url(#pf90fffbc63)" d="M 235.227273 24386.976688 
L 237.763636 24386.976688 
L 237.763636 59.087886 
L 235.227273 59.087886 
z
" style="fill:#1f77b4;"/>
   </g>
   <g id="patch_74">
    <path clip-path="url(#pf90fffbc63)" d="M 237.763636 24386.976688 
L 240.3 24386.976688 
L 240.3 61.678066 
L 237.763636 61.678066 
z
" style="fill:#1f77b4;"/>
   </g>
   <g id="patch_75">
    <path clip-path="url(#pf90fffbc63)" d="M 240.3 24386.976688 
L 242.836364 24386.976688 
L 242.836364 64.310244 
L 240.3 64.310244 
z
" style="fill:#1f77b4;"/>
   </g>
   <g id="patch_76">
    <path clip-path="url(#pf90fffbc63)" d="M 242.836364 24386.976688 
L 245.372727 24386.976688 
L 245.372727 67.220914 
L 242.836364 67.220914 
z
" style="fill:#1f77b4;"/>
   </g>
   <g id="patch_77">
    <path clip-path="url(#pf90fffbc63)" d="M 245.372727 24386.976688 
L 247.909091 24386.976688 
L 247.909091 70.029174 
L 245.372727 70.029174 
z
" style="fill:#1f77b4;"/>
   </g>
   <g id="patch_78">
    <path clip-path="url(#pf90fffbc63)" d="M 247.909091 24386.976688 
L 250.445455 24386.976688 
L 250.445455 73.163434 
L 247.909091 73.163434 
z
" style="fill:#1f77b4;"/>
   </g>
   <g id="patch_79">
    <path clip-path="url(#pf90fffbc63)" d="M 250.445455 24386.976688 
L 252.981818 24386.976688 
L 252.981818 76.386459 
L 250.445455 76.386459 
z
" style="fill:#1f77b4;"/>
   </g>
   <g id="patch_80">
    <path clip-path="url(#pf90fffbc63)" d="M 252.981818 24386.976688 
L 255.518182 24386.976688 
L 255.518182 79.611893 
L 252.981818 79.611893 
z
" style="fill:#1f77b4;"/>
   </g>
   <g id="patch_81">
    <path clip-path="url(#pf90fffbc63)" d="M 255.518182 24386.976688 
L 258.054545 24386.976688 
L 258.054545 83.219953 
L 255.518182 83.219953 
z
" style="fill:#1f77b4;"/>
   </g>
   <g id="patch_82">
    <path clip-path="url(#pf90fffbc63)" d="M 258.054545 24386.976688 
L 260.590909 24386.976688 
L 260.590909 86.764874 
L 258.054545 86.764874 
z
" style="fill:#1f77b4;"/>
   </g>
   <g id="patch_83">
    <path clip-path="url(#pf90fffbc63)" d="M 260.590909 24386.976688 
L 263.127273 24386.976688 
L 263.127273 90.522547 
L 260.590909 90.522547 
z
" style="fill:#1f77b4;"/>
   </g>
   <g id="patch_84">
    <path clip-path="url(#pf90fffbc63)" d="M 263.127273 24386.976688 
L 265.663636 24386.976688 
L 265.663636 94.302044 
L 263.127273 94.302044 
z
" style="fill:#1f77b4;"/>
   </g>
   <g id="patch_85">
    <path clip-path="url(#pf90fffbc63)" d="M 265.663636 24386.976688 
L 268.2 24386.976688 
L 268.2 97.988588 
L 265.663636 97.988588 
z
" style="fill:#1f77b4;"/>
   </g>
   <g id="patch_86">
    <path clip-path="url(#pf90fffbc63)" d="M 268.2 24386.976688 
L 270.736364 24386.976688 
L 270.736364 103.16068 
L 268.2 103.16068 
z
" style="fill:#1f77b4;"/>
   </g>
   <g id="patch_87">
    <path clip-path="url(#pf90fffbc63)" d="M 270.736364 24386.976688 
L 273.272727 24386.976688 
L 273.272727 106.605552 
L 270.736364 106.605552 
z
" style="fill:#1f77b4;"/>
   </g>
   <g id="patch_88">
    <path clip-path="url(#pf90fffbc63)" d="M 273.272727 24386.976688 
L 275.809091 24386.976688 
L 275.809091 110.833752 
L 273.272727 110.833752 
z
" style="fill:#1f77b4;"/>
   </g>
   <g id="patch_89">
    <path clip-path="url(#pf90fffbc63)" d="M 275.809091 24386.976688 
L 278.345455 24386.976688 
L 278.345455 115.356791 
L 275.809091 115.356791 
z
" style="fill:#1f77b4;"/>
   </g>
   <g id="patch_90">
    <path clip-path="url(#pf90fffbc63)" d="M 278.345455 24386.976688 
L 280.881818 24386.976688 
L 280.881818 120.877629 
L 278.345455 120.877629 
z
" style="fill:#1f77b4;"/>
   </g>
   <g id="patch_91">
    <path clip-path="url(#pf90fffbc63)" d="M 280.881818 24386.976688 
L 283.418182 24386.976688 
L 283.418182 124.757005 
L 280.881818 124.757005 
z
" style="fill:#1f77b4;"/>
   </g>
   <g id="patch_92">
    <path clip-path="url(#pf90fffbc63)" d="M 283.418182 24386.976688 
L 285.954545 24386.976688 
L 285.954545 129.153339 
L 283.418182 129.153339 
z
" style="fill:#1f77b4;"/>
   </g>
   <g id="patch_93">
    <path clip-path="url(#pf90fffbc63)" d="M 285.954545 24386.976688 
L 288.490909 24386.976688 
L 288.490909 136.817288 
L 285.954545 136.817288 
z
" style="fill:#1f77b4;"/>
   </g>
   <g id="patch_94">
    <path clip-path="url(#pf90fffbc63)" d="M 288.490909 24386.976688 
L 291.027273 24386.976688 
L 291.027273 141.45073 
L 288.490909 141.45073 
z
" style="fill:#1f77b4;"/>
   </g>
   <g id="patch_95">
    <path clip-path="url(#pf90fffbc63)" d="M 291.027273 24386.976688 
L 293.563636 24386.976688 
L 293.563636 146.851425 
L 291.027273 146.851425 
z
" style="fill:#1f77b4;"/>
   </g>
   <g id="patch_96">
    <path clip-path="url(#pf90fffbc63)" d="M 293.563636 24386.976688 
L 296.1 24386.976688 
L 296.1 158.466485 
L 293.563636 158.466485 
z
" style="fill:#1f77b4;"/>
   </g>
   <g id="patch_97">
    <path clip-path="url(#pf90fffbc63)" d="M 296.1 24386.976688 
L 298.636364 24386.976688 
L 298.636364 151.138198 
L 296.1 151.138198 
z
" style="fill:#1f77b4;"/>
   </g>
   <g id="patch_98">
    <path clip-path="url(#pf90fffbc63)" d="M 298.636364 24386.976688 
L 301.172727 24386.976688 
L 301.172727 165.794771 
L 298.636364 165.794771 
z
" style="fill:#1f77b4;"/>
   </g>
   <g id="patch_99">
    <path clip-path="url(#pf90fffbc63)" d="M 301.172727 24386.976688 
L 303.709091 24386.976688 
L 303.709091 24386.976688 
L 301.172727 24386.976688 
z
" style="fill:#1f77b4;"/>
   </g>
   <g id="patch_100">
    <path clip-path="url(#pf90fffbc63)" d="M 303.709091 24386.976688 
L 306.245455 24386.976688 
L 306.245455 173.123058 
L 303.709091 173.123058 
z
" style="fill:#1f77b4;"/>
   </g>
   <g id="patch_101">
    <path clip-path="url(#pf90fffbc63)" d="M 306.245455 24386.976688 
L 308.781818 24386.976688 
L 308.781818 24386.976688 
L 306.245455 24386.976688 
z
" style="fill:#1f77b4;"/>
   </g>
   <g id="patch_102">
    <path clip-path="url(#pf90fffbc63)" d="M 308.781818 24386.976688 
L 311.318182 24386.976688 
L 311.318182 173.123058 
L 308.781818 173.123058 
z
" style="fill:#1f77b4;"/>
   </g>
   <g id="matplotlib.axis_1">
    <g id="xtick_1">
     <g id="line2d_1">
      <path clip-path="url(#pf90fffbc63)" d="M 74.615312 189 
L 74.615312 25.92 
" style="fill:none;stroke:#b0b0b0;stroke-dasharray:2.96,1.28;stroke-dashoffset:0;stroke-width:0.8;"/>
     </g>
     <g id="line2d_2">
      <defs>
       <path d="M 0 0 
L 0 3.5 
" id="mf8c9679257" style="stroke:#000000;stroke-width:0.8;"/>
      </defs>
      <g>
       <use style="stroke:#000000;stroke-width:0.8;" x="74.615312" xlink:href="#mf8c9679257" y="189"/>
      </g>
     </g>
     <g id="text_1">
      <text style="font-family:DejaVu Sans;font-size:12px;font-stretch:normal;font-style:normal;font-weight:normal;text-anchor:middle;" transform="rotate(-0, 74.615312, 205.118125)" x="74.615312" y="205.118125">−1.0</text>
     </g>
    </g>
    <g id="xtick_2">
     <g id="line2d_3">
      <path clip-path="url(#pf90fffbc63)" d="M 131.549301 189 
L 131.549301 25.92 
" style="fill:none;stroke:#b0b0b0;stroke-dasharray:2.96,1.28;stroke-dashoffset:0;stroke-width:0.8;"/>
     </g>
     <g id="line2d_4">
      <g>
       <use style="stroke:#000000;stroke-width:0.8;" x="131.549301" xlink:href="#mf8c9679257" y="189"/>
      </g>
     </g>
     <g id="text_2">
      <text style="font-family:DejaVu Sans;font-size:12px;font-stretch:normal;font-style:normal;font-weight:normal;text-anchor:middle;" transform="rotate(-0, 131.549301, 205.118125)" x="131.549301" y="205.118125">−0.5</text>
     </g>
    </g>
    <g id="xtick_3">
     <g id="line2d_5">
      <path clip-path="url(#pf90fffbc63)" d="M 188.483289 189 
L 188.483289 25.92 
" style="fill:none;stroke:#b0b0b0;stroke-dasharray:2.96,1.28;stroke-dashoffset:0;stroke-width:0.8;"/>
     </g>
     <g id="line2d_6">
      <g>
       <use style="stroke:#000000;stroke-width:0.8;" x="188.483289" xlink:href="#mf8c9679257" y="189"/>
      </g>
     </g>
     <g id="text_3">
      <text style="font-family:DejaVu Sans;font-size:12px;font-stretch:normal;font-style:normal;font-weight:normal;text-anchor:middle;" transform="rotate(-0, 188.483289, 205.118125)" x="188.483289" y="205.118125">0.0</text>
     </g>
    </g>
    <g id="xtick_4">
     <g id="line2d_7">
      <path clip-path="url(#pf90fffbc63)" d="M 245.417278 189 
L 245.417278 25.92 
" style="fill:none;stroke:#b0b0b0;stroke-dasharray:2.96,1.28;stroke-dashoffset:0;stroke-width:0.8;"/>
     </g>
     <g id="line2d_8">
      <g>
       <use style="stroke:#000000;stroke-width:0.8;" x="245.417278" xlink:href="#mf8c9679257" y="189"/>
      </g>
     </g>
     <g id="text_4">
      <text style="font-family:DejaVu Sans;font-size:12px;font-stretch:normal;font-style:normal;font-weight:normal;text-anchor:middle;" transform="rotate(-0, 245.417278, 205.118125)" x="245.417278" y="205.118125">0.5</text>
     </g>
    </g>
    <g id="xtick_5">
     <g id="line2d_9">
      <path clip-path="url(#pf90fffbc63)" d="M 302.351267 189 
L 302.351267 25.92 
" style="fill:none;stroke:#b0b0b0;stroke-dasharray:2.96,1.28;stroke-dashoffset:0;stroke-width:0.8;"/>
     </g>
     <g id="line2d_10">
      <g>
       <use style="stroke:#000000;stroke-width:0.8;" x="302.351267" xlink:href="#mf8c9679257" y="189"/>
      </g>
     </g>
     <g id="text_5">
      <text style="font-family:DejaVu Sans;font-size:12px;font-stretch:normal;font-style:normal;font-weight:normal;text-anchor:middle;" transform="rotate(-0, 302.351267, 205.118125)" x="302.351267" y="205.118125">1.0</text>
     </g>
    </g>
    <g id="text_6">
     <!-- $\Delta |F|$ -->
     <g transform="translate(172.86 220.85375)">
      <text>
       <tspan style="font-family:DejaVu Sans;font-size:12px;font-style:book;font-weight:book;" x="0 8.208984 19.154297" y="-0.828125">Δ||</tspan>
       <tspan style="font-family:DejaVu Sans;font-size:12px;font-style:oblique;font-weight:oblique;" x="12.251953" y="-0.828125">F</tspan>
      </text>
     </g>
    </g>
   </g>
   <g id="matplotlib.axis_2">
    <g id="ytick_1">
     <g id="line2d_11">
      <path clip-path="url(#pf90fffbc63)" d="M 45 189 
L 324 189 
" style="fill:none;stroke:#b0b0b0;stroke-dasharray:2.96,1.28;stroke-dashoffset:0;stroke-width:0.8;"/>
     </g>
     <g id="line2d_12">
      <defs>
       <path d="M 0 0 
L -3.5 0 
" id="m95287549e3" style="stroke:#000000;stroke-width:0.8;"/>
      </defs>
      <g>
       <use style="stroke:#000000;stroke-width:0.8;" x="45" xlink:href="#m95287549e3" y="189"/>
      </g>
     </g>
     <g id="text_7">
      <!-- $\mathdefault{10^{-6}}$ -->
      <g transform="translate(9.8 193.559063)">
       <text>
        <tspan style="font-family:DejaVu Sans;font-size:12px;font-style:book;font-weight:book;" x="0 7.634766" y="-0.171875">10</tspan>
        <tspan style="font-family:DejaVu Sans;font-size:8.4px;font-style:book;font-weight:book;" x="15.384375 22.422656" y="-4.765625">−6</tspan>
       </text>
      </g>
     </g>
    </g>
    <g id="ytick_2">
     <g id="line2d_13">
      <path clip-path="url(#pf90fffbc63)" d="M 45 140.311918 
L 324 140.311918 
" style="fill:none;stroke:#b0b0b0;stroke-dasharray:2.96,1.28;stroke-dashoffset:0;stroke-width:0.8;"/>
     </g>
     <g id="line2d_14">
      <g>
       <use style="stroke:#000000;stroke-width:0.8;" x="45" xlink:href="#m95287549e3" y="140.311918"/>
      </g>
     </g>
     <g id="text_8">
      <!-- $\mathdefault{10^{-4}}$ -->
      <g transform="translate(9.8 144.870981)">
       <text>
        <tspan style="font-family:DejaVu Sans;font-size:12px;font-style:book;font-weight:book;" x="0 7.634766" y="-0.28125">10</tspan>
        <tspan style="font-family:DejaVu Sans;font-size:8.4px;font-style:book;font-weight:book;" x="15.384375 22.422656" y="-4.875">−4</tspan>
       </text>
      </g>
     </g>
    </g>
    <g id="ytick_3">
     <g id="line2d_15">
      <path clip-path="url(#pf90fffbc63)" d="M 45 91.623836 
L 324 91.623836 
" style="fill:none;stroke:#b0b0b0;stroke-dasharray:2.96,1.28;stroke-dashoffset:0;stroke-width:0.8;"/>
     </g>
     <g id="line2d_16">
      <g>
       <use style="stroke:#000000;stroke-width:0.8;" x="45" xlink:href="#m95287549e3" y="91.623836"/>
      </g>
     </g>
     <g id="text_9">
      <!-- $\mathdefault{10^{-2}}$ -->
      <g transform="translate(9.8 96.182899)">
       <text>
        <tspan style="font-family:DejaVu Sans;font-size:12px;font-style:book;font-weight:book;" x="0 7.634766" y="-0.171875">10</tspan>
        <tspan style="font-family:DejaVu Sans;font-size:8.4px;font-style:book;font-weight:book;" x="15.384375 22.422656" y="-4.765625">−2</tspan>
       </text>
      </g>
     </g>
    </g>
    <g id="ytick_4">
     <g id="line2d_17">
      <path clip-path="url(#pf90fffbc63)" d="M 45 42.935754 
L 324 42.935754 
" style="fill:none;stroke:#b0b0b0;stroke-dasharray:2.96,1.28;stroke-dashoffset:0;stroke-width:0.8;"/>
     </g>
     <g id="line2d_18">
      <g>
       <use style="stroke:#000000;stroke-width:0.8;" x="45" xlink:href="#m95287549e3" y="42.935754"/>
      </g>
     </g>
     <g id="text_10">
      <!-- $\mathdefault{10^{0}}$ -->
      <g transform="translate(16.88 47.494817)">
       <text>
        <tspan style="font-family:DejaVu Sans;font-size:12px;font-style:book;font-weight:book;" x="0 7.634766" y="-0.171875">10</tspan>
        <tspan style="font-family:DejaVu Sans;font-size:8.4px;font-style:book;font-weight:book;" x="15.384375" y="-4.765625">0</tspan>
       </text>
      </g>
     </g>
    </g>
    <g id="text_11">
     <text style="font-family:DejaVu Sans;font-size:12px;font-stretch:normal;font-style:normal;font-weight:normal;text-anchor:middle;" transform="rotate(-90, 3.304375, 107.46)" x="3.304375" y="107.46">density</text>
    </g>
   </g>
   <g id="line2d_19">
    <path clip-path="url(#pf90fffbc63)" d="M 66.522493 187.250083 
L 68.917948 181.352782 
L 71.313402 175.572461 
L 73.708857 169.909118 
L 76.104312 164.362753 
L 78.499766 158.933368 
L 80.895221 153.620961 
L 83.290675 148.425533 
L 85.68613 143.347084 
L 88.081584 138.385614 
L 90.477039 133.541122 
L 92.872493 128.813609 
L 95.267948 124.203075 
L 97.663402 119.70952 
L 100.058857 115.332943 
L 102.454312 111.073346 
L 104.849766 106.930727 
L 107.245221 102.905086 
L 109.640675 98.996425 
L 112.03613 95.204742 
L 114.431584 91.530038 
L 116.827039 87.972313 
L 119.222493 84.531567 
L 121.617948 81.207799 
L 124.013402 78.00101 
L 126.408857 74.9112 
L 128.804312 71.938369 
L 131.199766 69.082517 
L 133.595221 66.343643 
L 135.990675 63.721748 
L 138.38613 61.216832 
L 140.781584 58.828894 
L 143.177039 56.557936 
L 145.572493 54.403956 
L 147.967948 52.366955 
L 150.363402 50.446932 
L 152.758857 48.643889 
L 155.154312 46.957824 
L 157.549766 45.388738 
L 159.945221 43.936631 
L 162.340675 42.601502 
L 164.73613 41.383353 
L 167.131584 40.282182 
L 169.527039 39.29799 
L 171.922493 38.430776 
L 174.317948 37.680542 
L 176.713402 37.047286 
L 179.108857 36.531009 
L 181.504312 36.13171 
L 183.899766 35.849391 
L 186.295221 35.68405 
L 188.690675 35.635688 
L 191.08613 35.704305 
L 193.481584 35.889901 
L 195.877039 36.192475 
L 198.272493 36.612028 
L 200.667948 37.14856 
L 203.063402 37.80207 
L 205.458857 38.57256 
L 207.854312 39.460028 
L 210.249766 40.464475 
L 212.645221 41.585901 
L 215.040675 42.824305 
L 217.43613 44.179689 
L 219.831584 45.652051 
L 222.227039 47.241391 
L 224.622493 48.947711 
L 227.017948 50.771009 
L 229.413402 52.711287 
L 231.808857 54.768543 
L 234.204312 56.942777 
L 236.599766 59.233991 
L 238.995221 61.642183 
L 241.390675 64.167354 
L 243.78613 66.809504 
L 246.181584 69.568632 
L 248.577039 72.44474 
L 250.972493 75.437826 
L 253.367948 78.54789 
L 255.763402 81.774934 
L 258.158857 85.118956 
L 260.554312 88.579958 
L 262.949766 92.157938 
L 265.345221 95.852896 
L 267.740675 99.664834 
L 270.13613 103.59375 
L 272.531584 107.639645 
L 274.927039 111.802519 
L 277.322493 116.082371 
L 279.717948 120.479203 
L 282.113402 124.993013 
L 284.508857 129.623802 
L 286.904312 134.371569 
L 289.299766 139.236316 
L 291.695221 144.218041 
L 294.090675 149.316745 
L 296.48613 154.532428 
L 298.881584 159.865089 
L 301.277039 165.31473 
L 303.672493 170.881349 
" style="fill:none;stroke:#ff0000;stroke-linecap:square;stroke-width:1.5;"/>
   </g>
   <g id="patch_103">
    <path d="M 45 189 
L 45 25.92 
" style="fill:none;stroke:#000000;stroke-linecap:square;stroke-linejoin:miter;stroke-width:0.8;"/>
   </g>
   <g id="patch_104">
    <path d="M 324 189 
L 324 25.92 
" style="fill:none;stroke:#000000;stroke-linecap:square;stroke-linejoin:miter;stroke-width:0.8;"/>
   </g>
   <g id="patch_105">
    <path d="M 45 189 
L 324 189 
" style="fill:none;stroke:#000000;stroke-linecap:square;stroke-linejoin:miter;stroke-width:0.8;"/>
   </g>
   <g id="patch_106">
    <path d="M 45 25.92 
L 324 25.92 
" style="fill:none;stroke:#000000;stroke-linecap:square;stroke-linejoin:miter;stroke-width:0.8;"/>
   </g>
   <g id="text_12">
    <!-- $r$=0.95, $r_x$=0.98, $E_{ref}$ = 1.2, std($\Delta F$)=0.2 -->
    <g transform="translate(41.22 19.92)">
     <text>
      <tspan style="font-family:DejaVu Sans;font-size:14.4px;font-style:oblique;font-weight:oblique;" x="0 59.164536 124.68425 238.280159" y="-0.0625">rrEF</tspan>
      <tspan style="font-family:DejaVu Sans;font-size:14.4px;font-style:book;font-weight:book;" x="5.916458 17.974228 27.129974 31.70433 40.860077 50.015823 54.590179 71.436172 83.493942 92.649689 97.224045 106.379791 115.535538 120.109894 148.055916 152.630272 164.688042 169.262398 178.418144 182.2425 191.398247 195.972603 200.546959 208.044411 213.686821 222.821495 228.435799 246.557579 252.171883 264.229652 273.385399 277.209755" y="-0.0625">=0.95, =0.98,  = 1.2, std(Δ)=0.2</tspan>
      <tspan style="font-family:DejaVu Sans;font-size:10.08px;font-style:oblique;font-weight:oblique;" x="65.080994 133.776764 137.918285 144.11581" y="2.3000000000000007">xref</tspan>
     </text>
    </g>
   </g>
  </g>
 </g>
 <defs>
  <clipPath id="pf90fffbc63">
   <rect height="163.08" width="279" x="45" y="25.92"/>
  </clipPath>
 </defs>
</svg>
