<?xml version="1.0" encoding="utf-8" standalone="no"?>
<!DOCTYPE svg PUBLIC "-//W3C//DTD SVG 1.1//EN"
  "http://www.w3.org/Graphics/SVG/1.1/DTD/svg11.dtd">
<svg xmlns:xlink="http://www.w3.org/1999/xlink" width="1152pt" height="288pt" viewBox="0 0 1152 288" xmlns="http://www.w3.org/2000/svg" version="1.1">
 <metadata>
  <rdf:RDF xmlns:dc="http://purl.org/dc/elements/1.1/" xmlns:cc="http://creativecommons.org/ns#" xmlns:rdf="http://www.w3.org/1999/02/22-rdf-syntax-ns#">
   <cc:Work>
    <dc:type rdf:resource="http://purl.org/dc/dcmitype/StillImage"/>
    <dc:date>2025-08-02T09:14:45.485426</dc:date>
    <dc:format>image/svg+xml</dc:format>
    <dc:creator>
     <cc:Agent>
      <dc:title>Matplotlib v3.8.2, https://matplotlib.org/</dc:title>
     </cc:Agent>
    </dc:creator>
   </cc:Work>
  </rdf:RDF>
 </metadata>
 <defs>
  <style type="text/css">*{stroke-linejoin: round; stroke-linecap: butt}</style>
 </defs>
 <g id="figure_1">
  <g id="patch_1">
   <path d="M 0 288 
L 1152 288 
L 1152 0 
L 0 0 
z
" style="fill: #ffffff"/>
  </g>
  <g id="axes_1">
   <g id="patch_2">
    <path d="M 144 256.32 
L 406.588235 256.32 
L 406.588235 34.56 
L 144 34.56 
z
" style="fill: #ffffff"/>
   </g>
   <g id="patch_3">
    <path d="M 0 0 
z
" clip-path="url(#pc9fc89c188)" style="fill: #1f77b4; opacity: 0.5"/>
   </g>
   <g id="patch_4">
    <path d="M 0 0 
z
" clip-path="url(#pc9fc89c188)" style="fill: #1f77b4; opacity: 0.5"/>
   </g>
   <g id="patch_5">
    <path d="M 0 0 
z
" clip-path="url(#pc9fc89c188)" style="fill: #1f77b4; opacity: 0.5"/>
   </g>
   <g id="patch_6">
    <path d="M 0 0 
z
" clip-path="url(#pc9fc89c188)" style="fill: #1f77b4; opacity: 0.5"/>
   </g>
   <g id="patch_7">
    <path d="M 0 0 
z
" clip-path="url(#pc9fc89c188)" style="fill: #1f77b4; opacity: 0.5"/>
   </g>
   <g id="patch_8">
    <path d="M 0 0 
z
" clip-path="url(#pc9fc89c188)" style="fill: #1f77b4; opacity: 0.5"/>
   </g>
   <g id="patch_9">
    <path d="M 0 0 
z
" clip-path="url(#pc9fc89c188)" style="fill: #1f77b4; opacity: 0.5"/>
   </g>
   <g id="patch_10">
    <path d="M 0 0 
z
" clip-path="url(#pc9fc89c188)" style="fill: #1f77b4; opacity: 0.5"/>
   </g>
   <g id="patch_11">
    <path d="M 0 0 
z
" clip-path="url(#pc9fc89c188)" style="fill: #1f77b4; opacity: 0.5"/>
   </g>
   <g id="patch_12">
    <path d="M 0 0 
z
" clip-path="url(#pc9fc89c188)" style="fill: #1f77b4; opacity: 0.5"/>
   </g>
   <g id="patch_13">
    <path d="M 0 0 
z
" clip-path="url(#pc9fc89c188)" style="fill: #1f77b4; opacity: 0.5"/>
   </g>
   <g id="patch_14">
    <path d="M 0 0 
z
" clip-path="url(#pc9fc89c188)" style="fill: #1f77b4; opacity: 0.5"/>
   </g>
   <g id="patch_15">
    <path d="M 0 0 
z
" clip-path="url(#pc9fc89c188)" style="fill: #1f77b4; opacity: 0.5"/>
   </g>
   <g id="patch_16">
    <path d="M 0 0 
z
" clip-path="url(#pc9fc89c188)" style="fill: #1f77b4; opacity: 0.5"/>
   </g>
   <g id="patch_17">
    <path d="M 0 0 
z
" clip-path="url(#pc9fc89c188)" style="fill: #1f77b4; opacity: 0.5"/>
   </g>
   <g id="patch_18">
    <path d="M 0 0 
z
" clip-path="url(#pc9fc89c188)" style="fill: #1f77b4; opacity: 0.5"/>
   </g>
   <g id="patch_19">
    <path d="M 0 0 
z
" clip-path="url(#pc9fc89c188)" style="fill: #1f77b4; opacity: 0.5"/>
   </g>
   <g id="patch_20">
    <path d="M 0 0 
z
" clip-path="url(#pc9fc89c188)" style="fill: #1f77b4; opacity: 0.5"/>
   </g>
   <g id="patch_21">
    <path d="M 0 0 
z
" clip-path="url(#pc9fc89c188)" style="fill: #1f77b4; opacity: 0.5"/>
   </g>
   <g id="patch_22">
    <path d="M 0 0 
z
" clip-path="url(#pc9fc89c188)" style="fill: #1f77b4; opacity: 0.5"/>
   </g>
   <g id="matplotlib.axis_1">
    <g id="xtick_1">
     <g id="line2d_1">
      <defs>
       <path id="m9d24eb7322" d="M 0 0 
L 0 3.5 
" style="stroke: #000000; stroke-width: 0.8"/>
      </defs>
      <g>
       <use xlink:href="#m9d24eb7322" x="144" y="256.32" style="stroke: #000000; stroke-width: 0.8"/>
      </g>
     </g>
     <g id="text_1">
      <text style="font: 12px 'DejaVu Sans', 'Bitstream Vera Sans', 'Computer Modern Sans Serif', 'Lucida Grande', 'Verdana', 'Geneva', 'Lucid', 'Arial', 'Helvetica', 'Avant Garde', sans-serif; text-anchor: middle" x="144" y="272.438125" transform="rotate(-0 144 272.438125)">0</text>
     </g>
    </g>
    <g id="xtick_2">
     <g id="line2d_2">
      <g>
       <use xlink:href="#m9d24eb7322" x="196.517647" y="256.32" style="stroke: #000000; stroke-width: 0.8"/>
      </g>
     </g>
     <g id="text_2">
      <text style="font: 12px 'DejaVu Sans', 'Bitstream Vera Sans', 'Computer Modern Sans Serif', 'Lucida Grande', 'Verdana', 'Geneva', 'Lucid', 'Arial', 'Helvetica', 'Avant Garde', sans-serif; text-anchor: middle" x="196.517647" y="272.438125" transform="rotate(-0 196.517647 272.438125)">1</text>
     </g>
    </g>
    <g id="xtick_3">
     <g id="line2d_3">
      <g>
       <use xlink:href="#m9d24eb7322" x="249.035294" y="256.32" style="stroke: #000000; stroke-width: 0.8"/>
      </g>
     </g>
     <g id="text_3">
      <text style="font: 12px 'DejaVu Sans', 'Bitstream Vera Sans', 'Computer Modern Sans Serif', 'Lucida Grande', 'Verdana', 'Geneva', 'Lucid', 'Arial', 'Helvetica', 'Avant Garde', sans-serif; text-anchor: middle" x="249.035294" y="272.438125" transform="rotate(-0 249.035294 272.438125)">2</text>
     </g>
    </g>
    <g id="xtick_4">
     <g id="line2d_4">
      <g>
       <use xlink:href="#m9d24eb7322" x="301.552941" y="256.32" style="stroke: #000000; stroke-width: 0.8"/>
      </g>
     </g>
     <g id="text_4">
      <text style="font: 12px 'DejaVu Sans', 'Bitstream Vera Sans', 'Computer Modern Sans Serif', 'Lucida Grande', 'Verdana', 'Geneva', 'Lucid', 'Arial', 'Helvetica', 'Avant Garde', sans-serif; text-anchor: middle" x="301.552941" y="272.438125" transform="rotate(-0 301.552941 272.438125)">3</text>
     </g>
    </g>
    <g id="xtick_5">
     <g id="line2d_5">
      <g>
       <use xlink:href="#m9d24eb7322" x="354.070588" y="256.32" style="stroke: #000000; stroke-width: 0.8"/>
      </g>
     </g>
     <g id="text_5">
      <text style="font: 12px 'DejaVu Sans', 'Bitstream Vera Sans', 'Computer Modern Sans Serif', 'Lucida Grande', 'Verdana', 'Geneva', 'Lucid', 'Arial', 'Helvetica', 'Avant Garde', sans-serif; text-anchor: middle" x="354.070588" y="272.438125" transform="rotate(-0 354.070588 272.438125)">4</text>
     </g>
    </g>
    <g id="xtick_6">
     <g id="line2d_6">
      <g>
       <use xlink:href="#m9d24eb7322" x="406.588235" y="256.32" style="stroke: #000000; stroke-width: 0.8"/>
      </g>
     </g>
     <g id="text_6">
      <text style="font: 12px 'DejaVu Sans', 'Bitstream Vera Sans', 'Computer Modern Sans Serif', 'Lucida Grande', 'Verdana', 'Geneva', 'Lucid', 'Arial', 'Helvetica', 'Avant Garde', sans-serif; text-anchor: middle" x="406.588235" y="272.438125" transform="rotate(-0 406.588235 272.438125)">5</text>
     </g>
    </g>
    <g id="text_7">
     <text style="font: 12px 'DejaVu Sans', 'Bitstream Vera Sans', 'Computer Modern Sans Serif', 'Lucida Grande', 'Verdana', 'Geneva', 'Lucid', 'Arial', 'Helvetica', 'Avant Garde', sans-serif; text-anchor: middle" x="275.294118" y="288.051875" transform="rotate(-0 275.294118 288.051875)">SF amplitude</text>
    </g>
   </g>
   <g id="matplotlib.axis_2">
    <g id="ytick_1">
     <g id="line2d_7">
      <defs>
       <path id="m9e4957d133" d="M 0 0 
L -3.5 0 
" style="stroke: #000000; stroke-width: 0.8"/>
      </defs>
      <g>
       <use xlink:href="#m9e4957d133" x="144" y="256.32" style="stroke: #000000; stroke-width: 0.8"/>
      </g>
     </g>
     <g id="text_8">
      <text style="font: 12px 'DejaVu Sans', 'Bitstream Vera Sans', 'Computer Modern Sans Serif', 'Lucida Grande', 'Verdana', 'Geneva', 'Lucid', 'Arial', 'Helvetica', 'Avant Garde', sans-serif; text-anchor: end" x="137" y="260.879063" transform="rotate(-0 137 260.879063)">0.0</text>
     </g>
    </g>
    <g id="ytick_2">
     <g id="line2d_8">
      <g>
       <use xlink:href="#m9e4957d133" x="144" y="229.849583" style="stroke: #000000; stroke-width: 0.8"/>
      </g>
     </g>
     <g id="text_9">
      <text style="font: 12px 'DejaVu Sans', 'Bitstream Vera Sans', 'Computer Modern Sans Serif', 'Lucida Grande', 'Verdana', 'Geneva', 'Lucid', 'Arial', 'Helvetica', 'Avant Garde', sans-serif; text-anchor: end" x="137" y="234.408645" transform="rotate(-0 137 234.408645)">0.1</text>
     </g>
    </g>
    <g id="ytick_3">
     <g id="line2d_9">
      <g>
       <use xlink:href="#m9e4957d133" x="144" y="203.379165" style="stroke: #000000; stroke-width: 0.8"/>
      </g>
     </g>
     <g id="text_10">
      <text style="font: 12px 'DejaVu Sans', 'Bitstream Vera Sans', 'Computer Modern Sans Serif', 'Lucida Grande', 'Verdana', 'Geneva', 'Lucid', 'Arial', 'Helvetica', 'Avant Garde', sans-serif; text-anchor: end" x="137" y="207.938228" transform="rotate(-0 137 207.938228)">0.2</text>
     </g>
    </g>
    <g id="ytick_4">
     <g id="line2d_10">
      <g>
       <use xlink:href="#m9e4957d133" x="144" y="176.908748" style="stroke: #000000; stroke-width: 0.8"/>
      </g>
     </g>
     <g id="text_11">
      <text style="font: 12px 'DejaVu Sans', 'Bitstream Vera Sans', 'Computer Modern Sans Serif', 'Lucida Grande', 'Verdana', 'Geneva', 'Lucid', 'Arial', 'Helvetica', 'Avant Garde', sans-serif; text-anchor: end" x="137" y="181.46781" transform="rotate(-0 137 181.46781)">0.3</text>
     </g>
    </g>
    <g id="ytick_5">
     <g id="line2d_11">
      <g>
       <use xlink:href="#m9e4957d133" x="144" y="150.43833" style="stroke: #000000; stroke-width: 0.8"/>
      </g>
     </g>
     <g id="text_12">
      <text style="font: 12px 'DejaVu Sans', 'Bitstream Vera Sans', 'Computer Modern Sans Serif', 'Lucida Grande', 'Verdana', 'Geneva', 'Lucid', 'Arial', 'Helvetica', 'Avant Garde', sans-serif; text-anchor: end" x="137" y="154.997393" transform="rotate(-0 137 154.997393)">0.4</text>
     </g>
    </g>
    <g id="ytick_6">
     <g id="line2d_12">
      <g>
       <use xlink:href="#m9e4957d133" x="144" y="123.967913" style="stroke: #000000; stroke-width: 0.8"/>
      </g>
     </g>
     <g id="text_13">
      <text style="font: 12px 'DejaVu Sans', 'Bitstream Vera Sans', 'Computer Modern Sans Serif', 'Lucida Grande', 'Verdana', 'Geneva', 'Lucid', 'Arial', 'Helvetica', 'Avant Garde', sans-serif; text-anchor: end" x="137" y="128.526975" transform="rotate(-0 137 128.526975)">0.5</text>
     </g>
    </g>
    <g id="ytick_7">
     <g id="line2d_13">
      <g>
       <use xlink:href="#m9e4957d133" x="144" y="97.497495" style="stroke: #000000; stroke-width: 0.8"/>
      </g>
     </g>
     <g id="text_14">
      <text style="font: 12px 'DejaVu Sans', 'Bitstream Vera Sans', 'Computer Modern Sans Serif', 'Lucida Grande', 'Verdana', 'Geneva', 'Lucid', 'Arial', 'Helvetica', 'Avant Garde', sans-serif; text-anchor: end" x="137" y="102.056558" transform="rotate(-0 137 102.056558)">0.6</text>
     </g>
    </g>
    <g id="ytick_8">
     <g id="line2d_14">
      <g>
       <use xlink:href="#m9e4957d133" x="144" y="71.027078" style="stroke: #000000; stroke-width: 0.8"/>
      </g>
     </g>
     <g id="text_15">
      <text style="font: 12px 'DejaVu Sans', 'Bitstream Vera Sans', 'Computer Modern Sans Serif', 'Lucida Grande', 'Verdana', 'Geneva', 'Lucid', 'Arial', 'Helvetica', 'Avant Garde', sans-serif; text-anchor: end" x="137" y="75.58614" transform="rotate(-0 137 75.58614)">0.7</text>
     </g>
    </g>
    <g id="ytick_9">
     <g id="line2d_15">
      <g>
       <use xlink:href="#m9e4957d133" x="144" y="44.556661" style="stroke: #000000; stroke-width: 0.8"/>
      </g>
     </g>
     <g id="text_16">
      <text style="font: 12px 'DejaVu Sans', 'Bitstream Vera Sans', 'Computer Modern Sans Serif', 'Lucida Grande', 'Verdana', 'Geneva', 'Lucid', 'Arial', 'Helvetica', 'Avant Garde', sans-serif; text-anchor: end" x="137" y="49.115723" transform="rotate(-0 137 49.115723)">0.8</text>
     </g>
    </g>
    <g id="text_17">
     <text style="font: 12px 'DejaVu Sans', 'Bitstream Vera Sans', 'Computer Modern Sans Serif', 'Lucida Grande', 'Verdana', 'Geneva', 'Lucid', 'Arial', 'Helvetica', 'Avant Garde', sans-serif; text-anchor: middle" x="111.420625" y="145.44" transform="rotate(-90 111.420625 145.44)">Frequency (normalized)</text>
    </g>
   </g>
   <g id="line2d_16">
    <path d="M 144 45.116626 
L 145.683933 45.225168 
L 147.367865 45.55046 
L 149.051798 46.091499 
L 150.73573 46.846621 
L 152.419663 47.813509 
L 154.524579 49.315344 
L 156.629494 51.136238 
L 158.73441 53.267563 
L 160.839326 55.69929 
L 163.365225 58.997812 
L 165.891123 62.690532 
L 168.417022 66.753168 
L 171.363904 71.925202 
L 174.731769 78.351003 
L 178.099635 85.257807 
L 181.888483 93.510369 
L 186.519297 104.137589 
L 192.834045 119.248597 
L 207.989438 155.782849 
L 213.462219 168.250503 
L 218.093033 178.249468 
L 222.302865 186.821309 
L 226.091713 194.071173 
L 229.880561 200.854198 
L 233.669409 207.154664 
L 237.037275 212.344218 
L 240.40514 217.147425 
L 243.773005 221.569211 
L 247.14087 225.618386 
L 250.508735 229.307068 
L 253.8766 232.650109 
L 257.244465 235.664545 
L 260.612331 238.369057 
L 263.980196 240.783479 
L 267.348061 242.928344 
L 270.715926 244.824476 
L 274.504774 246.686142 
L 278.293623 248.28823 
L 282.082471 249.658655 
L 286.292302 250.94184 
L 290.923117 252.101194 
L 295.553931 253.036261 
L 301.026712 253.902264 
L 306.920476 254.602301 
L 313.656207 255.175598 
L 321.654886 255.628388 
L 331.758482 255.965848 
L 345.650925 256.187178 
L 354.070588 256.249149 
L 354.070588 256.249149 
" clip-path="url(#pc9fc89c188)" style="fill: none; stroke: #ff0000; stroke-width: 1.5; stroke-linecap: square"/>
   </g>
   <g id="patch_23">
    <path d="M 144 256.32 
L 144 34.56 
" style="fill: none; stroke: #000000; stroke-width: 0.8; stroke-linejoin: miter; stroke-linecap: square"/>
   </g>
   <g id="patch_24">
    <path d="M 406.588235 256.32 
L 406.588235 34.56 
" style="fill: none; stroke: #000000; stroke-width: 0.8; stroke-linejoin: miter; stroke-linecap: square"/>
   </g>
   <g id="patch_25">
    <path d="M 144 256.32 
L 406.588235 256.32 
" style="fill: none; stroke: #000000; stroke-width: 0.8; stroke-linejoin: miter; stroke-linecap: square"/>
   </g>
   <g id="patch_26">
    <path d="M 144 34.56 
L 406.588235 34.56 
" style="fill: none; stroke: #000000; stroke-width: 0.8; stroke-linejoin: miter; stroke-linecap: square"/>
   </g>
   <g id="text_18">
    <text style="font: 14.4px 'DejaVu Sans', 'Bitstream Vera Sans', 'Computer Modern Sans Serif', 'Lucida Grande', 'Verdana', 'Geneva', 'Lucid', 'Arial', 'Helvetica', 'Avant Garde', sans-serif; text-anchor: middle" x="275.294118" y="28.56" transform="rotate(-0 275.294118 28.56)">Centric</text>
   </g>
  </g>
  <g id="axes_2">
   <g id="patch_27">
    <path d="M 459.105882 256.32 
L 721.694118 256.32 
L 721.694118 34.56 
L 459.105882 34.56 
z
" style="fill: #ffffff"/>
   </g>
   <g id="patch_28">
    <path d="M 462.081273 256.32 
L 468.794701 256.32 
L 468.794701 237.793684 
L 462.081273 237.793684 
z
" clip-path="url(#p6a321a34c9)" style="fill: #1f77b4; opacity: 0.5"/>
   </g>
   <g id="patch_29">
    <path d="M 468.794701 256.32 
L 475.508129 256.32 
L 475.508129 189.94746 
L 468.794701 189.94746 
z
" clip-path="url(#p6a321a34c9)" style="fill: #1f77b4; opacity: 0.5"/>
   </g>
   <g id="patch_30">
    <path d="M 475.508129 256.32 
L 482.221557 256.32 
L 482.221557 136.301693 
L 475.508129 136.301693 
z
" clip-path="url(#p6a321a34c9)" style="fill: #1f77b4; opacity: 0.5"/>
   </g>
   <g id="patch_31">
    <path d="M 482.221557 256.32 
L 488.934985 256.32 
L 488.934985 100.054554 
L 482.221557 100.054554 
z
" clip-path="url(#p6a321a34c9)" style="fill: #1f77b4; opacity: 0.5"/>
   </g>
   <g id="patch_32">
    <path d="M 488.934985 256.32 
L 495.648413 256.32 
L 495.648413 45.12 
L 488.934985 45.12 
z
" clip-path="url(#p6a321a34c9)" style="fill: #1f77b4; opacity: 0.5"/>
   </g>
   <g id="patch_33">
    <path d="M 495.648413 256.32 
L 502.36184 256.32 
L 502.36184 55.752494 
L 495.648413 55.752494 
z
" clip-path="url(#p6a321a34c9)" style="fill: #1f77b4; opacity: 0.5"/>
   </g>
   <g id="patch_34">
    <path d="M 502.36184 256.32 
L 509.075268 256.32 
L 509.075268 65.418398 
L 502.36184 65.418398 
z
" clip-path="url(#p6a321a34c9)" style="fill: #1f77b4; opacity: 0.5"/>
   </g>
   <g id="patch_35">
    <path d="M 509.075268 256.32 
L 515.788696 256.32 
L 515.788696 110.042654 
L 509.075268 110.042654 
z
" clip-path="url(#p6a321a34c9)" style="fill: #1f77b4; opacity: 0.5"/>
   </g>
   <g id="patch_36">
    <path d="M 515.788696 256.32 
L 522.502124 256.32 
L 522.502124 142.262334 
L 515.788696 142.262334 
z
" clip-path="url(#p6a321a34c9)" style="fill: #1f77b4; opacity: 0.5"/>
   </g>
   <g id="patch_37">
    <path d="M 522.502124 256.32 
L 529.215552 256.32 
L 529.215552 155.311304 
L 522.502124 155.311304 
z
" clip-path="url(#p6a321a34c9)" style="fill: #1f77b4; opacity: 0.5"/>
   </g>
   <g id="patch_38">
    <path d="M 529.215552 256.32 
L 535.92898 256.32 
L 535.92898 187.853181 
L 529.215552 187.853181 
z
" clip-path="url(#p6a321a34c9)" style="fill: #1f77b4; opacity: 0.5"/>
   </g>
   <g id="patch_39">
    <path d="M 535.92898 256.32 
L 542.642408 256.32 
L 542.642408 201.063249 
L 535.92898 201.063249 
z
" clip-path="url(#p6a321a34c9)" style="fill: #1f77b4; opacity: 0.5"/>
   </g>
   <g id="patch_40">
    <path d="M 542.642408 256.32 
L 549.355836 256.32 
L 549.355836 219.589565 
L 542.642408 219.589565 
z
" clip-path="url(#p6a321a34c9)" style="fill: #1f77b4; opacity: 0.5"/>
   </g>
   <g id="patch_41">
    <path d="M 549.355836 256.32 
L 556.069264 256.32 
L 556.069264 229.416568 
L 549.355836 229.416568 
z
" clip-path="url(#p6a321a34c9)" style="fill: #1f77b4; opacity: 0.5"/>
   </g>
   <g id="patch_42">
    <path d="M 556.069264 256.32 
L 562.782692 256.32 
L 562.782692 239.726865 
L 556.069264 239.726865 
z
" clip-path="url(#p6a321a34c9)" style="fill: #1f77b4; opacity: 0.5"/>
   </g>
   <g id="patch_43">
    <path d="M 562.782692 256.32 
L 569.49612 256.32 
L 569.49612 244.398719 
L 562.782692 244.398719 
z
" clip-path="url(#p6a321a34c9)" style="fill: #1f77b4; opacity: 0.5"/>
   </g>
   <g id="patch_44">
    <path d="M 569.49612 256.32 
L 576.209548 256.32 
L 576.209548 251.487048 
L 569.49612 251.487048 
z
" clip-path="url(#p6a321a34c9)" style="fill: #1f77b4; opacity: 0.5"/>
   </g>
   <g id="patch_45">
    <path d="M 576.209548 256.32 
L 582.922975 256.32 
L 582.922975 252.131442 
L 576.209548 252.131442 
z
" clip-path="url(#p6a321a34c9)" style="fill: #1f77b4; opacity: 0.5"/>
   </g>
   <g id="patch_46">
    <path d="M 582.922975 256.32 
L 589.636403 256.32 
L 589.636403 253.581327 
L 582.922975 253.581327 
z
" clip-path="url(#p6a321a34c9)" style="fill: #1f77b4; opacity: 0.5"/>
   </g>
   <g id="patch_47">
    <path d="M 589.636403 256.32 
L 596.349831 256.32 
L 596.349831 254.225721 
L 589.636403 254.225721 
z
" clip-path="url(#p6a321a34c9)" style="fill: #1f77b4; opacity: 0.5"/>
   </g>
   <g id="patch_48">
    <path d="M 596.349831 256.32 
L 603.063259 256.32 
L 603.063259 254.064622 
L 596.349831 254.064622 
z
" clip-path="url(#p6a321a34c9)" style="fill: #1f77b4; opacity: 0.5"/>
   </g>
   <g id="patch_49">
    <path d="M 603.063259 256.32 
L 609.776687 256.32 
L 609.776687 255.675606 
L 603.063259 255.675606 
z
" clip-path="url(#p6a321a34c9)" style="fill: #1f77b4; opacity: 0.5"/>
   </g>
   <g id="patch_50">
    <path d="M 609.776687 256.32 
L 616.490115 256.32 
L 616.490115 255.836705 
L 609.776687 255.836705 
z
" clip-path="url(#p6a321a34c9)" style="fill: #1f77b4; opacity: 0.5"/>
   </g>
   <g id="patch_51">
    <path d="M 616.490115 256.32 
L 623.203543 256.32 
L 623.203543 255.997803 
L 616.490115 255.997803 
z
" clip-path="url(#p6a321a34c9)" style="fill: #1f77b4; opacity: 0.5"/>
   </g>
   <g id="patch_52">
    <path d="M 623.203543 256.32 
L 629.916971 256.32 
L 629.916971 255.997803 
L 623.203543 255.997803 
z
" clip-path="url(#p6a321a34c9)" style="fill: #1f77b4; opacity: 0.5"/>
   </g>
   <g id="patch_53">
    <path d="M 629.916971 256.32 
L 636.630399 256.32 
L 636.630399 256.158902 
L 629.916971 256.158902 
z
" clip-path="url(#p6a321a34c9)" style="fill: #1f77b4; opacity: 0.5"/>
   </g>
   <g id="patch_54">
    <path d="M 636.630399 256.32 
L 643.343827 256.32 
L 643.343827 256.32 
L 636.630399 256.32 
z
" clip-path="url(#p6a321a34c9)" style="fill: #1f77b4; opacity: 0.5"/>
   </g>
   <g id="patch_55">
    <path d="M 643.343827 256.32 
L 650.057255 256.32 
L 650.057255 256.158902 
L 643.343827 256.158902 
z
" clip-path="url(#p6a321a34c9)" style="fill: #1f77b4; opacity: 0.5"/>
   </g>
   <g id="patch_56">
    <path d="M 650.057255 256.32 
L 656.770683 256.32 
L 656.770683 255.675606 
L 650.057255 255.675606 
z
" clip-path="url(#p6a321a34c9)" style="fill: #1f77b4; opacity: 0.5"/>
   </g>
   <g id="patch_57">
    <path d="M 656.770683 256.32 
L 663.484111 256.32 
L 663.484111 256.158902 
L 656.770683 256.158902 
z
" clip-path="url(#p6a321a34c9)" style="fill: #1f77b4; opacity: 0.5"/>
   </g>
   <g id="patch_58">
    <path d="M 663.484111 256.32 
L 670.197538 256.32 
L 670.197538 256.158902 
L 663.484111 256.158902 
z
" clip-path="url(#p6a321a34c9)" style="fill: #1f77b4; opacity: 0.5"/>
   </g>
   <g id="patch_59">
    <path d="M 670.197538 256.32 
L 676.910966 256.32 
L 676.910966 256.158902 
L 670.197538 256.158902 
z
" clip-path="url(#p6a321a34c9)" style="fill: #1f77b4; opacity: 0.5"/>
   </g>
   <g id="patch_60">
    <path d="M 676.910966 256.32 
L 683.624394 256.32 
L 683.624394 256.32 
L 676.910966 256.32 
z
" clip-path="url(#p6a321a34c9)" style="fill: #1f77b4; opacity: 0.5"/>
   </g>
   <g id="patch_61">
    <path d="M 683.624394 256.32 
L 690.337822 256.32 
L 690.337822 256.32 
L 683.624394 256.32 
z
" clip-path="url(#p6a321a34c9)" style="fill: #1f77b4; opacity: 0.5"/>
   </g>
   <g id="patch_62">
    <path d="M 690.337822 256.32 
L 697.05125 256.32 
L 697.05125 256.32 
L 690.337822 256.32 
z
" clip-path="url(#p6a321a34c9)" style="fill: #1f77b4; opacity: 0.5"/>
   </g>
   <g id="patch_63">
    <path d="M 697.05125 256.32 
L 703.764678 256.32 
L 703.764678 256.32 
L 697.05125 256.32 
z
" clip-path="url(#p6a321a34c9)" style="fill: #1f77b4; opacity: 0.5"/>
   </g>
   <g id="patch_64">
    <path d="M 703.764678 256.32 
L 710.478106 256.32 
L 710.478106 256.32 
L 703.764678 256.32 
z
" clip-path="url(#p6a321a34c9)" style="fill: #1f77b4; opacity: 0.5"/>
   </g>
   <g id="patch_65">
    <path d="M 710.478106 256.32 
L 717.191534 256.32 
L 717.191534 256.32 
L 710.478106 256.32 
z
" clip-path="url(#p6a321a34c9)" style="fill: #1f77b4; opacity: 0.5"/>
   </g>
   <g id="patch_66">
    <path d="M 717.191534 256.32 
L 723.904962 256.32 
L 723.904962 256.32 
L 717.191534 256.32 
z
" clip-path="url(#p6a321a34c9)" style="fill: #1f77b4; opacity: 0.5"/>
   </g>
   <g id="patch_67">
    <path d="M 723.904962 256.32 
L 730.61839 256.32 
L 730.61839 256.158902 
L 723.904962 256.158902 
z
" clip-path="url(#p6a321a34c9)" style="fill: #1f77b4; opacity: 0.5"/>
   </g>
   <g id="matplotlib.axis_3">
    <g id="xtick_7">
     <g id="line2d_17">
      <g>
       <use xlink:href="#m9d24eb7322" x="459.105882" y="256.32" style="stroke: #000000; stroke-width: 0.8"/>
      </g>
     </g>
     <g id="text_19">
      <text style="font: 12px 'DejaVu Sans', 'Bitstream Vera Sans', 'Computer Modern Sans Serif', 'Lucida Grande', 'Verdana', 'Geneva', 'Lucid', 'Arial', 'Helvetica', 'Avant Garde', sans-serif; text-anchor: middle" x="459.105882" y="272.438125" transform="rotate(-0 459.105882 272.438125)">0</text>
     </g>
    </g>
    <g id="xtick_8">
     <g id="line2d_18">
      <g>
       <use xlink:href="#m9d24eb7322" x="511.623529" y="256.32" style="stroke: #000000; stroke-width: 0.8"/>
      </g>
     </g>
     <g id="text_20">
      <text style="font: 12px 'DejaVu Sans', 'Bitstream Vera Sans', 'Computer Modern Sans Serif', 'Lucida Grande', 'Verdana', 'Geneva', 'Lucid', 'Arial', 'Helvetica', 'Avant Garde', sans-serif; text-anchor: middle" x="511.623529" y="272.438125" transform="rotate(-0 511.623529 272.438125)">1</text>
     </g>
    </g>
    <g id="xtick_9">
     <g id="line2d_19">
      <g>
       <use xlink:href="#m9d24eb7322" x="564.141176" y="256.32" style="stroke: #000000; stroke-width: 0.8"/>
      </g>
     </g>
     <g id="text_21">
      <text style="font: 12px 'DejaVu Sans', 'Bitstream Vera Sans', 'Computer Modern Sans Serif', 'Lucida Grande', 'Verdana', 'Geneva', 'Lucid', 'Arial', 'Helvetica', 'Avant Garde', sans-serif; text-anchor: middle" x="564.141176" y="272.438125" transform="rotate(-0 564.141176 272.438125)">2</text>
     </g>
    </g>
    <g id="xtick_10">
     <g id="line2d_20">
      <g>
       <use xlink:href="#m9d24eb7322" x="616.658824" y="256.32" style="stroke: #000000; stroke-width: 0.8"/>
      </g>
     </g>
     <g id="text_22">
      <text style="font: 12px 'DejaVu Sans', 'Bitstream Vera Sans', 'Computer Modern Sans Serif', 'Lucida Grande', 'Verdana', 'Geneva', 'Lucid', 'Arial', 'Helvetica', 'Avant Garde', sans-serif; text-anchor: middle" x="616.658824" y="272.438125" transform="rotate(-0 616.658824 272.438125)">3</text>
     </g>
    </g>
    <g id="xtick_11">
     <g id="line2d_21">
      <g>
       <use xlink:href="#m9d24eb7322" x="669.176471" y="256.32" style="stroke: #000000; stroke-width: 0.8"/>
      </g>
     </g>
     <g id="text_23">
      <text style="font: 12px 'DejaVu Sans', 'Bitstream Vera Sans', 'Computer Modern Sans Serif', 'Lucida Grande', 'Verdana', 'Geneva', 'Lucid', 'Arial', 'Helvetica', 'Avant Garde', sans-serif; text-anchor: middle" x="669.176471" y="272.438125" transform="rotate(-0 669.176471 272.438125)">4</text>
     </g>
    </g>
    <g id="xtick_12">
     <g id="line2d_22">
      <g>
       <use xlink:href="#m9d24eb7322" x="721.694118" y="256.32" style="stroke: #000000; stroke-width: 0.8"/>
      </g>
     </g>
     <g id="text_24">
      <text style="font: 12px 'DejaVu Sans', 'Bitstream Vera Sans', 'Computer Modern Sans Serif', 'Lucida Grande', 'Verdana', 'Geneva', 'Lucid', 'Arial', 'Helvetica', 'Avant Garde', sans-serif; text-anchor: middle" x="721.694118" y="272.438125" transform="rotate(-0 721.694118 272.438125)">5</text>
     </g>
    </g>
    <g id="text_25">
     <text style="font: 12px 'DejaVu Sans', 'Bitstream Vera Sans', 'Computer Modern Sans Serif', 'Lucida Grande', 'Verdana', 'Geneva', 'Lucid', 'Arial', 'Helvetica', 'Avant Garde', sans-serif; text-anchor: middle" x="590.4" y="288.051875" transform="rotate(-0 590.4 288.051875)">SF amplitude</text>
    </g>
   </g>
   <g id="matplotlib.axis_4">
    <g id="ytick_10">
     <g id="line2d_23">
      <g>
       <use xlink:href="#m9e4957d133" x="459.105882" y="256.32" style="stroke: #000000; stroke-width: 0.8"/>
      </g>
     </g>
     <g id="text_26">
      <text style="font: 12px 'DejaVu Sans', 'Bitstream Vera Sans', 'Computer Modern Sans Serif', 'Lucida Grande', 'Verdana', 'Geneva', 'Lucid', 'Arial', 'Helvetica', 'Avant Garde', sans-serif; text-anchor: end" x="452.105882" y="260.879063" transform="rotate(-0 452.105882 260.879063)">0.0</text>
     </g>
    </g>
    <g id="ytick_11">
     <g id="line2d_24">
      <g>
       <use xlink:href="#m9e4957d133" x="459.105882" y="216.422141" style="stroke: #000000; stroke-width: 0.8"/>
      </g>
     </g>
     <g id="text_27">
      <text style="font: 12px 'DejaVu Sans', 'Bitstream Vera Sans', 'Computer Modern Sans Serif', 'Lucida Grande', 'Verdana', 'Geneva', 'Lucid', 'Arial', 'Helvetica', 'Avant Garde', sans-serif; text-anchor: end" x="452.105882" y="220.981204" transform="rotate(-0 452.105882 220.981204)">0.2</text>
     </g>
    </g>
    <g id="ytick_12">
     <g id="line2d_25">
      <g>
       <use xlink:href="#m9e4957d133" x="459.105882" y="176.524283" style="stroke: #000000; stroke-width: 0.8"/>
      </g>
     </g>
     <g id="text_28">
      <text style="font: 12px 'DejaVu Sans', 'Bitstream Vera Sans', 'Computer Modern Sans Serif', 'Lucida Grande', 'Verdana', 'Geneva', 'Lucid', 'Arial', 'Helvetica', 'Avant Garde', sans-serif; text-anchor: end" x="452.105882" y="181.083345" transform="rotate(-0 452.105882 181.083345)">0.4</text>
     </g>
    </g>
    <g id="ytick_13">
     <g id="line2d_26">
      <g>
       <use xlink:href="#m9e4957d133" x="459.105882" y="136.626424" style="stroke: #000000; stroke-width: 0.8"/>
      </g>
     </g>
     <g id="text_29">
      <text style="font: 12px 'DejaVu Sans', 'Bitstream Vera Sans', 'Computer Modern Sans Serif', 'Lucida Grande', 'Verdana', 'Geneva', 'Lucid', 'Arial', 'Helvetica', 'Avant Garde', sans-serif; text-anchor: end" x="452.105882" y="141.185486" transform="rotate(-0 452.105882 141.185486)">0.6</text>
     </g>
    </g>
    <g id="ytick_14">
     <g id="line2d_27">
      <g>
       <use xlink:href="#m9e4957d133" x="459.105882" y="96.728565" style="stroke: #000000; stroke-width: 0.8"/>
      </g>
     </g>
     <g id="text_30">
      <text style="font: 12px 'DejaVu Sans', 'Bitstream Vera Sans', 'Computer Modern Sans Serif', 'Lucida Grande', 'Verdana', 'Geneva', 'Lucid', 'Arial', 'Helvetica', 'Avant Garde', sans-serif; text-anchor: end" x="452.105882" y="101.287628" transform="rotate(-0 452.105882 101.287628)">0.8</text>
     </g>
    </g>
    <g id="ytick_15">
     <g id="line2d_28">
      <g>
       <use xlink:href="#m9e4957d133" x="459.105882" y="56.830707" style="stroke: #000000; stroke-width: 0.8"/>
      </g>
     </g>
     <g id="text_31">
      <text style="font: 12px 'DejaVu Sans', 'Bitstream Vera Sans', 'Computer Modern Sans Serif', 'Lucida Grande', 'Verdana', 'Geneva', 'Lucid', 'Arial', 'Helvetica', 'Avant Garde', sans-serif; text-anchor: end" x="452.105882" y="61.389769" transform="rotate(-0 452.105882 61.389769)">1.0</text>
     </g>
    </g>
   </g>
   <g id="line2d_29">
    <path d="M 459.105882 256.32 
L 465.841613 205.983271 
L 469.209478 182.351602 
L 472.15636 163.112102 
L 474.682259 147.95053 
L 477.208157 134.202297 
L 479.313073 123.930356 
L 481.417989 114.807131 
L 483.101921 108.369607 
L 484.785854 102.717141 
L 486.469787 97.860597 
L 488.153719 93.804069 
L 489.416669 91.285418 
L 490.679618 89.212086 
L 491.942567 87.57872 
L 493.205517 86.378119 
L 494.047483 85.813788 
L 494.889449 85.434779 
L 495.731416 85.237715 
L 496.573382 85.218917 
L 497.415348 85.374429 
L 498.257315 85.700027 
L 499.520264 86.497493 
L 500.783213 87.651498 
L 502.046163 89.144963 
L 503.309112 90.959908 
L 504.993045 93.847426 
L 506.676977 97.226968 
L 508.781893 102.070816 
L 510.886809 107.514558 
L 513.412708 114.705085 
L 516.35959 123.796806 
L 520.569421 137.631154 
L 531.514983 174.123049 
L 535.303831 185.794313 
L 538.671696 195.432558 
L 541.618578 203.217575 
L 544.56546 210.356631 
L 547.091359 215.94825 
L 549.617258 221.052395 
L 552.143157 225.67732 
L 554.669056 229.838168 
L 557.194955 233.555583 
L 559.720853 236.854404 
L 562.246752 239.76246 
L 564.772651 242.309484 
L 567.29855 244.526168 
L 569.824449 246.443349 
L 572.350348 248.091339 
L 574.876247 249.49939 
L 577.823129 250.875817 
L 580.770011 252.004414 
L 584.137876 253.038493 
L 587.505741 253.847025 
L 591.294589 254.540151 
L 595.925404 255.14731 
L 601.398185 255.619043 
L 608.133915 255.959588 
L 617.395544 256.183602 
L 632.550937 256.295853 
L 669.176471 256.31982 
L 669.176471 256.31982 
" clip-path="url(#p6a321a34c9)" style="fill: none; stroke: #ff0000; stroke-width: 1.5; stroke-linecap: square"/>
   </g>
   <g id="patch_68">
    <path d="M 459.105882 256.32 
L 459.105882 34.56 
" style="fill: none; stroke: #000000; stroke-width: 0.8; stroke-linejoin: miter; stroke-linecap: square"/>
   </g>
   <g id="patch_69">
    <path d="M 721.694118 256.32 
L 721.694118 34.56 
" style="fill: none; stroke: #000000; stroke-width: 0.8; stroke-linejoin: miter; stroke-linecap: square"/>
   </g>
   <g id="patch_70">
    <path d="M 459.105882 256.32 
L 721.694118 256.32 
" style="fill: none; stroke: #000000; stroke-width: 0.8; stroke-linejoin: miter; stroke-linecap: square"/>
   </g>
   <g id="patch_71">
    <path d="M 459.105882 34.56 
L 721.694118 34.56 
" style="fill: none; stroke: #000000; stroke-width: 0.8; stroke-linejoin: miter; stroke-linecap: square"/>
   </g>
   <g id="text_32">
    <text style="font: 14.4px 'DejaVu Sans', 'Bitstream Vera Sans', 'Computer Modern Sans Serif', 'Lucida Grande', 'Verdana', 'Geneva', 'Lucid', 'Arial', 'Helvetica', 'Avant Garde', sans-serif; text-anchor: middle" x="590.4" y="28.56" transform="rotate(-0 590.4 28.56)">Acentric</text>
   </g>
  </g>
 </g>
 <defs>
  <clipPath id="pc9fc89c188">
   <rect x="144" y="34.56" width="262.588235" height="221.76"/>
  </clipPath>
  <clipPath id="p6a321a34c9">
   <rect x="459.105882" y="34.56" width="262.588235" height="221.76"/>
  </clipPath>
 </defs>
</svg>
